<svg id="Layer_1" data-name="Layer 1" xmlns="http://www.w3.org/2000/svg" viewBox="0 0 1081.58 774"><defs><style>.cls-1{fill:none;stroke:#c10000;stroke-linecap:round;stroke-linejoin:round;stroke-width:4px;opacity:0.07;}</style></defs><title>abstract moves</title><polyline class="cls-1" points="2 394.41 137.74 261.79 160.62 283.62 69.98 372.25 138.21 438.72 161.08 416.71 115.3 372.25 341.89 150.66 212.32 24.19"/><polyline class="cls-1" points="2 84.18 92.72 172.81 161.19 106.76 137.96 84.18 92.63 128.5 47.32 84.18 109.6 24.19"/><polyline class="cls-1" points="126.08 28.25 251.25 150.66 205.93 194.98 228.73 217.3 297.21 151.25 167.76 24.19"/><polyline class="cls-1" points="676.18 6.05 801.36 128.47 756.04 172.79 778.84 195.1 847.32 129.05 717.87 2"/><polyline class="cls-1" points="303.78 24.19 409.78 128.31 387.74 150.79 409.78 172.91 477.85 106.34 432.53 62.02 471.69 24.19"/><polyline class="cls-1" points="2.09 172.91 92.95 261.79 69.98 283.62 47.52 261.26 2.09 305.86"/><polyline class="cls-1" points="2 128.5 92.95 217.3 183.28 128.5 205.93 150.66 138.12 217.3 183.47 261.79 206.02 239.39 183.44 217.3"/><polyline class="cls-1" points="385.68 639.04 476.54 727.92 453.57 749.75 431.11 727.4 385.68 772"/><polyline class="cls-1" points="385.59 594.64 476.54 683.43 566.86 594.64 589.52 616.8 521.71 683.43 567.06 727.92 589.61 705.52 567.03 683.43"/><line class="cls-1" x1="257.34" y1="24.19" x2="364.75" y2="128.77"/><line class="cls-1" x1="647.9" y1="24.19" x2="755.31" y2="128.77"/><polyline class="cls-1" points="2.09 438.82 47.52 394.61 138.68 484.25 297.21 327.31 251.25 283.62 160.62 372.25"/><polyline class="cls-1" points="2 483.05 47.52 438.93 92.95 483.36 69.98 505.21 47.22 482.87 2 527.37"/><polyline class="cls-1" points="701.25 690.28 746.77 646.16 792.2 690.59 769.23 712.44 746.47 690.1 701.25 734.6"/><polyline class="cls-1" points="296.42 694.68 341.94 650.56 387.37 694.99 364.39 716.84 341.63 694.5 296.42 739"/><line class="cls-1" x1="183.24" y1="395.26" x2="251.25" y2="327.94"/><line class="cls-1" x1="47.23" y1="305.86" x2="2.09" y2="350.18"/><line class="cls-1" x1="348.34" y1="24.19" x2="432.53" y2="106.34"/><polyline class="cls-1" points="2.09 571.77 47.48 527.52 70.1 549.65 115.3 505.21 137.96 527.37 2.09 660.41"/><polyline class="cls-1" points="160.62 505.21 228.86 571.94 205.93 593.85 160.62 549.53 2.09 704.73"/><polyline class="cls-1" points="115.47 638.34 160.62 593.85 251.02 682.26 211.85 721.84"/><polyline class="cls-1" points="206.16 682.26 160.62 638.16 115.47 683.32 92.95 660.84 30.34 721.84"/><polyline class="cls-1" points="1079.58 351.62 943.84 484.25 920.97 462.42 1011.61 373.78 943.37 307.31 920.51 329.33 966.29 373.78 739.69 595.37 869.27 721.84"/><polyline class="cls-1" points="1079.58 661.85 988.87 573.23 920.39 639.28 943.63 661.85 988.95 617.54 1034.27 661.85 971.98 721.84"/><polyline class="cls-1" points="955.51 717.79 830.33 595.37 875.65 551.05 852.85 528.74 784.37 594.79 913.82 721.84"/><polyline class="cls-1" points="1079.49 573.13 988.63 484.25 1011.61 462.42 1034.06 484.77 1079.49 440.17"/><polyline class="cls-1" points="1079.58 617.53 988.63 528.74 898.31 617.53 875.65 595.37 943.47 528.74 898.11 484.25 875.56 506.65 898.15 528.74"/><polyline class="cls-1" points="1079.49 307.22 1034.06 351.43 942.9 261.79 784.37 418.73 830.33 462.42 920.97 373.78"/><polyline class="cls-1" points="1079.58 262.99 1034.06 307.11 988.63 262.68 1011.61 240.83 1034.36 263.17 1079.58 218.67"/><line class="cls-1" x1="1034.35" y1="440.17" x2="1079.49" y2="395.85"/><polyline class="cls-1" points="1079.49 174.26 1034.11 218.51 1011.48 196.39 966.29 240.83 943.63 218.67 1079.49 85.62"/><polyline class="cls-1" points="920.97 240.83 852.73 174.09 875.65 152.19 920.97 196.51 1079.49 41.3"/><polyline class="cls-1" points="966.11 107.7 920.97 152.19 830.56 63.78 869.74 24.19"/><polyline class="cls-1" points="875.42 63.78 920.97 107.87 966.11 62.72 988.63 85.2 1051.25 24.19"/><polyline class="cls-1" points="228.94 616.35 274.91 661.3 342.23 593.85"/></svg>