<svg id="Layer_1" data-name="Layer 1" xmlns="http://www.w3.org/2000/svg" viewBox="0 0 444.5 250.5"><defs><style>.cls-1{fill:#c10000;}.cls-2{fill:#3f0101;}.cls-3{fill:#4f0202;}.cls-4{fill:#5e0202;}.cls-5{fill:#6b0303;}.cls-6{fill:#770303;}.cls-7{fill:#840202;}.cls-8{fill:#910202;}.cls-9{fill:#a00404;}.cls-10{fill:#aa0404;}.cls-11{fill:#b50000;}.cls-12{fill:#af0404;}.cls-13{fill:#8e0404;}.cls-14{fill:#7f0404;}.cls-15{fill:#720404;}.cls-16{fill:#600404;}.cls-17{fill:#fff;}.cls-18{fill:#c67810;}.cls-19{fill:none;stroke:#1a1a1a;stroke-miterlimit:10;stroke-width:0.5px;}</style></defs><title>cards</title><path class="cls-1" d="M444,250H-.5V-.5H444Z" transform="translate(0.5 0.5)"/><rect class="cls-2" x="255.5" y="245.5" width="23" height="5"/><rect class="cls-3" x="269.5" y="242.5" width="23" height="8"/><rect class="cls-4" x="284.5" y="237.5" width="23" height="13"/><rect class="cls-5" x="298.5" y="231.5" width="23" height="19"/><rect class="cls-6" x="313.5" y="221.5" width="23" height="29"/><rect class="cls-7" x="329.5" y="211.5" width="23" height="39"/><rect class="cls-8" x="345.5" y="202.5" width="31" height="48"/><rect class="cls-9" x="364.5" y="192.5" width="31" height="58"/><rect class="cls-10" x="384.5" y="183.5" width="40" height="67"/><rect class="cls-11" x="404.5" y="172.5" width="40" height="78"/><rect class="cls-9" x="0.5" y="0.5" width="101" height="101"/><rect class="cls-9" x="61.5" y="59.5" width="72" height="72"/><rect class="cls-9" x="42.5" y="121.5" width="58" height="58"/><rect class="cls-9" x="16.5" y="15.5" width="72" height="72"/><rect class="cls-9" x="118.5" y="31.5" width="48" height="48"/><path class="cls-12" d="M216.5,0c1.39,11.93,7.6,75.64-36.91,127.65-42,49.1-112.51,68.27-179.59,48.87V0Z" transform="translate(0.5 0.5)"/><path class="cls-9" d="M199.87,0c1.27,11,7,69.48-33.91,117.26C127.38,162.35,62.62,180,1,162.14V0Z" transform="translate(0.5 0.5)"/><path class="cls-13" d="M182.09,0c1.16,10,6.39,63.61-31.05,107.36-35.33,41.29-94.62,57.42-151,41.1V0Z" transform="translate(0.5 0.5)"/><path class="cls-14" d="M164.18,0c1,9.05,5.76,57.36-28,96.8C104.33,134,50.87,148.57,0,133.86V0Z" transform="translate(0.5 0.5)"/><path class="cls-15" d="M147.09,0C148,8.11,152.25,51.39,122,86.73c-28.54,33.35-76.43,46.38-122,33.2V0Z" transform="translate(0.5 0.5)"/><path class="cls-16" d="M147.09,0C148,8.11,152.25,51.39,122,86.73c-28.54,33.35-76.43,46.38-122,33.2V0Z" transform="translate(0.5 0.5)"/><path class="cls-17" d="M60.13,65.51A22.52,22.52,0,0,0,83.26,45.62a.77.77,0,0,0-.71-.86l-2.33-.16a.79.79,0,0,0-.84.69,18.57,18.57,0,0,1-19,16.33.8.8,0,0,0-.81.73l-.18,2.32a.77.77,0,0,0,.74.84Zm5.34-17.19A3.1,3.1,0,1,0,61.1,48,3.09,3.09,0,0,0,65.47,48.32Zm-4.81,9.47A14.86,14.86,0,0,0,75.55,45a.76.76,0,0,0-.71-.86L72.5,44a.79.79,0,0,0-.83.66A10.91,10.91,0,0,1,60.89,53.9a.8.8,0,0,0-.79.72L59.91,57A.76.76,0,0,0,60.66,57.79Z" transform="translate(0.5 0.5)"/><rect class="cls-18" x="366.5" y="101.5" width="57" height="34" rx="5.66"/><ellipse class="cls-19" cx="395" cy="118.5" rx="4" ry="15.5"/><line class="cls-19" x1="366.5" y1="115" x2="390.5" y2="115"/><line class="cls-19" x1="366.5" y1="121" x2="390.5" y2="121"/><line class="cls-19" x1="399.5" y1="115" x2="423.5" y2="115"/><line class="cls-19" x1="399.5" y1="121" x2="423.5" y2="121"/></svg>