<svg xmlns="http://www.w3.org/2000/svg" xmlns:xlink="http://www.w3.org/1999/xlink" viewBox="0 0 428.94 372.61"><defs><style>.cls-1{fill:none;}.cls-2{fill:#ebebeb;}.cls-3{fill:#e6e6e6;}.cls-4{fill:#f5f5f5;}.cls-5{fill:#fafafa;}.cls-18,.cls-23,.cls-6{fill:#fff;}.cls-7{fill:#f0f0f0;}.cls-17,.cls-8{fill:#263238;}.cls-9{fill:#7f3e3b;}.cls-10{fill:#dd7d14;}.cls-11,.cls-14,.cls-17,.cls-23{opacity:0.2;}.cls-12{fill:#630f0f;}.cls-13{clip-path:url(#clip-path);}.cls-15{fill:#407bff;}.cls-16{fill:#c10000;}.cls-18{opacity:0.1;}.cls-19,.cls-20{fill:#e0b3b3;}.cls-20{opacity:0.6;}.cls-21{fill:#af6e51;}.cls-22{fill:#a1a4a8;}.cls-24{fill:#ffc3bd;}.cls-25{fill:#843722;}</style><clipPath id="clip-path" transform="translate(0 -4.63)"><path class="cls-1" d="M326.65,130.46a55.14,55.14,0,0,1,2.38-7.41,29.93,29.93,0,0,1,4.69-1,34,34,0,0,1,7.84,10.18c4.29-4.34,12.5-8.73,17.5-10.33a13.46,13.46,0,0,1,5.05.63c-3.41,10.76-6.89,21.59-.72,24.36-.11,5.11.19,11.45.44,17.86-5.83-.63-28.95-1.75-38.34.31-.48-6.5-.65-12-.62-16.75C320.45,142.74,324.83,135.16,326.65,130.46Z"/></clipPath></defs><title>colleagues-holding-puzzles</title><g id="Background_Complete" data-name="Background Complete"><rect class="cls-2" y="327.83" width="428.94" height="0.27"/><rect class="cls-2" x="17.8" y="336.97" width="33.12" height="0.25"/><rect class="cls-2" x="118.78" y="334.26" width="26.39" height="0.25"/><rect class="cls-2" x="55.31" y="342.87" width="45.92" height="0.25"/><rect class="cls-2" x="393.64" y="344.58" width="21.6" height="0.25"/><rect class="cls-2" x="356.81" y="344.58" width="31.97" height="0.25"/><rect class="cls-2" x="242.55" y="340.35" width="55.12" height="0.25"/><path class="cls-2" d="M202.35,287.48H9.26a5.71,5.71,0,0,1-5.71-5.71V10.34A5.71,5.71,0,0,1,9.26,4.63H202.35a5.71,5.71,0,0,1,5.71,5.71V281.77A5.71,5.71,0,0,1,202.35,287.48ZM9.26,4.88A5.47,5.47,0,0,0,3.8,10.34V281.77a5.47,5.47,0,0,0,5.46,5.46H202.35a5.47,5.47,0,0,0,5.46-5.46V10.34a5.47,5.47,0,0,0-5.46-5.46Z" transform="translate(0 -4.63)"/><path class="cls-2" d="M418.65,287.48H225.55a5.71,5.71,0,0,1-5.7-5.71V10.34a5.71,5.71,0,0,1,5.7-5.71h193.1a5.71,5.71,0,0,1,5.71,5.71V281.77A5.71,5.71,0,0,1,418.65,287.48ZM225.55,4.88a5.46,5.46,0,0,0-5.45,5.46V281.77a5.46,5.46,0,0,0,5.45,5.46h193.1a5.47,5.47,0,0,0,5.46-5.46V10.34a5.47,5.47,0,0,0-5.46-5.46Z" transform="translate(0 -4.63)"/><rect class="cls-3" x="51.58" y="30.99" width="326.64" height="141.69" transform="translate(429.79 199.03) rotate(180)"/><rect class="cls-4" x="47.08" y="30.99" width="329.18" height="141.69" transform="translate(423.33 199.03) rotate(180)"/><rect class="cls-5" x="148.99" y="-54.68" width="125.35" height="313.03" transform="translate(313.5 -114.47) rotate(90)"/><polygon class="cls-6" points="188.25 159.87 152.55 34.52 127.64 34.52 163.34 159.87 188.25 159.87"/><polygon class="cls-6" points="156.28 159.87 120.58 34.52 103.42 34.52 139.12 159.87 156.28 159.87"/><polygon class="cls-6" points="338.12 159.87 302.43 34.52 277.51 34.52 313.21 159.87 338.12 159.87"/><polygon class="cls-6" points="306.15 159.87 270.45 34.52 253.3 34.52 289 159.87 306.15 159.87"/><rect class="cls-3" x="56.85" y="97.01" width="125.35" height="9.64" transform="translate(221.36 -22.33) rotate(90)"/><rect class="cls-3" x="247.59" y="97.01" width="125.35" height="9.64" transform="translate(412.09 -213.06) rotate(90)"/><rect class="cls-4" x="48.21" y="95.29" width="136.61" height="12.18" transform="translate(217.9 -19.77) rotate(90)"/><rect class="cls-4" x="238.95" y="95.29" width="136.61" height="12.18" transform="translate(408.64 -210.5) rotate(90)"/><rect class="cls-3" x="-7.09" y="101.4" width="125.35" height="0.86" transform="translate(157.41 41.62) rotate(90)"/><path class="cls-3" d="M160.1,281.38c3.55-1.2,6.12-4.62,3.87-8.13-3.73-5.79,5.6-7,3-16.73-3.69-13.7-15.16-1.83-18-15-2.07-9.57-18.14-15.84-18.77-3.24-.69,13.79-7.6,4.78-9.14,20.12-1.06,10.6,14,12.14,9.53,15.46-3.29,2.42-5.24,6.64-.65,9.53,6.26,3.93.36,7,4.61,9.74s4.94-1.63,11.54.5c5.9,1.9,10.9-3.93,9.73-7.58C154.69,282.67,156.54,282.59,160.1,281.38Z" transform="translate(0 -4.63)"/><path class="cls-7" d="M126,287.68s.48,44.4,19.09,44.4,19.09-44.4,19.09-44.4Z" transform="translate(0 -4.63)"/><path class="cls-3" d="M108.28,281.38c3.54-1.2,6.12-4.62,3.86-8.13-3.73-5.79,5.61-7,3-16.73-3.7-13.7-15.17-1.83-18-15C95,232,79,225.7,78.34,238.3c-.69,13.79-7.6,4.78-9.14,20.12-1.06,10.6,14,12.14,9.53,15.46-3.29,2.42-5.24,6.64-.64,9.53,6.25,3.93.35,7,4.6,9.74s4.94-1.63,11.54.5c5.91,1.9,10.91-3.93,9.73-7.58C102.86,282.67,104.71,282.59,108.28,281.38Z" transform="translate(0 -4.63)"/><path class="cls-7" d="M74.16,287.68s.49,44.4,19.09,44.4,19.09-44.4,19.09-44.4Z" transform="translate(0 -4.63)"/><path class="cls-7" d="M271,238.57c2.68-29.68,4.55-77.84,3.1-93.95a2,2,0,0,0-.75-1.4h0a1.85,1.85,0,0,0-2.95,1.66c.25,8,.54,27.93-1.05,62.35-.79,17.13-1.93,28.86-1.15,31.34Z" transform="translate(0 -4.63)"/><path class="cls-7" d="M279.25,177.12c6.42-8,19.52-13.76,32.87-13.73,5.24,0-15.95,9.35-24.76,19.66-6.84,8-14.56,21.48-17.18,28.95C271.87,196.27,272.84,185.16,279.25,177.12Z" transform="translate(0 -4.63)"/><path class="cls-7" d="M265.84,177c-6.34-8.84-21-15.64-36.85-16.41-6.23-.3,17.46,10.79,26.29,22.16,6.87,8.84,13.91,23.47,15.84,31.49C271.59,197.63,272.19,185.88,265.84,177Z" transform="translate(0 -4.63)"/><path class="cls-7" d="M279.25,190c6.42-8,19.52-13.76,32.87-13.73,5.24,0-15.95,9.36-24.76,19.66-6.84,8-14.56,21.48-17.18,28.95C271.87,209.18,272.84,198.07,279.25,190Z" transform="translate(0 -4.63)"/><path class="cls-7" d="M265.84,190.67c-6.34-8.84-21-15.64-36.85-16.41-6.23-.3,17.46,10.79,26.29,22.16,6.87,8.84,13.91,23.47,15.84,31.49C271.59,211.26,272.19,199.51,265.84,190.67Z" transform="translate(0 -4.63)"/><path class="cls-7" d="M278.1,146.75c4.2-6,13.19-10.64,22.58-11.27,3.69-.25-10.85,7.36-16.65,15-4.51,6-9.42,15.83-11,21.21C273.64,160.59,273.9,152.72,278.1,146.75Z" transform="translate(0 -4.63)"/><path class="cls-7" d="M269.74,149.27c-4.47-6.23-14.8-11-26-11.56-4.39-.21,12.3,7.61,18.53,15.62,4.84,6.23,9.8,16.54,11.16,22.19C273.79,163.79,274.22,155.51,269.74,149.27Z" transform="translate(0 -4.63)"/><path class="cls-7" d="M279.54,154.5c5.43-6.81,16.52-11.65,27.83-11.62,4.44,0-13.5,7.91-21,16.64-5.8,6.78-12.33,18.19-14.56,24.52C273.29,170.72,274.11,161.31,279.54,154.5Z" transform="translate(0 -4.63)"/><path class="cls-7" d="M268.51,158.12c-5.38-7.48-17.79-13.24-31.21-13.89C232,144,252.08,153.37,259.56,163c5.82,7.48,11.78,19.87,13.42,26.67C273.37,175.56,273.88,165.61,268.51,158.12Z" transform="translate(0 -4.63)"/><path class="cls-7" d="M279.9,163.94c5.86-7.34,17.83-12.56,30-12.54,4.79,0-14.56,8.55-22.61,18-6.25,7.32-13.3,19.62-15.7,26.45C273.16,181.44,274,171.29,279.9,163.94Z" transform="translate(0 -4.63)"/><path class="cls-7" d="M267.66,168c-6-8.31-19.74-14.7-34.65-15.42-5.85-.29,16.41,10.14,24.72,20.83,6.46,8.31,13.08,22.07,14.9,29.61C273.06,187.32,273.63,176.28,267.66,168Z" transform="translate(0 -4.63)"/><path class="cls-3" d="M253,233.55l1,8.33a3.54,3.54,0,0,0,3.53,3.33h24.88a3.54,3.54,0,0,0,3.53-3.33l1-8.33a3.53,3.53,0,0,0-3.53-3.73H256.48A3.52,3.52,0,0,0,253,233.55Z" transform="translate(0 -4.63)"/><path class="cls-4" d="M251.47,235.31h36.88a1.05,1.05,0,0,0,1.06-.94l.88-7.94a1.07,1.07,0,0,0-1.06-1.18H250.59a1.06,1.06,0,0,0-1.05,1.18l.87,7.94A1.06,1.06,0,0,0,251.47,235.31Z" transform="translate(0 -4.63)"/><rect class="cls-3" x="196.27" y="245.21" width="16.02" height="86.87" transform="translate(408.57 572.65) rotate(180)"/><polygon class="cls-7" points="201.08 327.45 196.28 327.45 196.28 310.82 206.11 310.82 201.08 327.45"/><rect class="cls-3" x="395.85" y="245.21" width="16.02" height="86.87" transform="translate(807.73 572.65) rotate(180)"/><rect class="cls-7" x="196.27" y="245.21" width="203.77" height="76.67" transform="translate(596.32 562.45) rotate(180)"/><polygon class="cls-7" points="395.24 327.45 400.04 327.45 400.04 310.82 390.21 310.82 395.24 327.45"/><rect class="cls-3" x="200" y="250.6" width="196.32" height="30.68" transform="translate(596.32 527.25) rotate(180)"/><path class="cls-7" d="M228.77,260.14H364.32c4.69,0,9.16-3.79,12.39-10.47H216.39C219.61,256.35,224.09,260.14,228.77,260.14Z" transform="translate(0 -4.63)"/><rect class="cls-3" x="200" y="286.24" width="196.32" height="30.68" transform="translate(596.32 598.53) rotate(180)"/><path class="cls-7" d="M228.77,295.78H364.32c4.69,0,9.16-3.79,12.39-10.47H216.39C219.61,292,224.09,295.78,228.77,295.78Z" transform="translate(0 -4.63)"/><path class="cls-4" d="M397.58,224.85s-.88,20.36-34.46,20.36-34.45-20.36-34.45-20.36Z" transform="translate(0 -4.63)"/><path class="cls-4" d="M397.58,214.28s-.88,20.36-34.46,20.36-34.45-20.36-34.45-20.36Z" transform="translate(0 -4.63)"/></g><g id="Shadow"><ellipse id="_Path_" data-name="&lt;Path&gt;" class="cls-4" cx="215.34" cy="361.29" rx="193.89" ry="11.32"/></g><g id="Character_3" data-name="Character 3"><path class="cls-8" d="M333.24,85.05c-6,3.28-8.05,13-5.19,17.23-10.4,3.12-5,21,12,22s29.94-5.21,21.59-18.47c8.26-11.13,4.46-23.56-2.78-22.19C351.09,68.05,325.07,68.51,333.24,85.05Z" transform="translate(0 -4.63)"/><path class="cls-8" d="M351.3,125.48a14.54,14.54,0,0,1-7.44-2.08.26.26,0,0,1-.09-.35.26.26,0,0,1,.35-.08,14.14,14.14,0,0,0,18.14-3.14c2.72-3.39,3.95-8.81-.78-13.87a.26.26,0,0,1,0-.36.25.25,0,0,1,.36,0c4.94,5.29,3.65,11,.8,14.52A14.86,14.86,0,0,1,351.3,125.48Z" transform="translate(0 -4.63)"/><path class="cls-8" d="M326.17,105.6a.25.25,0,0,1-.23-.17c-2.66-7.62.9-17.85,7.19-20.64a.25.25,0,1,1,.2.45c-6.08,2.7-9.51,12.62-6.92,20a.24.24,0,0,1-.15.31Z" transform="translate(0 -4.63)"/><path class="cls-8" d="M324.54,94.59l-.09,0a.24.24,0,0,1-.14-.32c1.8-4.76,5.19-8.4,8.85-9.48a.25.25,0,0,1,.31.17.25.25,0,0,1-.17.31c-3.51,1-6.78,4.56-8.53,9.18A.25.25,0,0,1,324.54,94.59Z" transform="translate(0 -4.63)"/><polygon class="cls-9" points="338.54 355.96 332.76 355.97 331.79 334.26 341.52 334.5 338.54 355.96"/><path class="cls-10" d="M328.49,173.25s-.51,60.25-1.78,86.48a20.3,20.3,0,0,0,0,2.34c1.9,26.29,5,76.82,5,76.82l9.79.25s8.53-40.35,3.25-76.9c8.49-41.34,13.06-78.23,5.37-89Z" transform="translate(0 -4.63)"/><path class="cls-11" d="M344.89,197.18c-3,10.06-.08,42.4,1.47,57.32,2.11-10.78,3.91-21.15,5.24-30.71Z" transform="translate(0 -4.63)"/><path class="cls-8" d="M332.12,357.79h7.5a.62.62,0,0,1,.64.56l.76,6.15a1.42,1.42,0,0,1-1.43,1.46c-3.3-.05-4.89-.24-9.06-.23-2.57,0-4.12.26-7.67.27s-3.55-3.4-2.06-3.71c6.69-1.4,7.55-2.17,9.88-4A2.33,2.33,0,0,1,332.12,357.79Z" transform="translate(0 -4.63)"/><path class="cls-9" d="M334.58,128.92c-.37,2.06-.79,4-1.24,6s-.91,4-1.44,6c-1,4-2.14,7.92-3.58,11.88a55.68,55.68,0,0,1-2.51,6,24.94,24.94,0,0,1-1.84,3.11c-.2.27-.38.53-.64.83a6.53,6.53,0,0,1-.83.88,6.84,6.84,0,0,1-2.7,1.57,6.5,6.5,0,0,1-3.26.13,7.81,7.81,0,0,1-2.4-1,12,12,0,0,1-2.94-2.66,21.5,21.5,0,0,1-3.35-5.86,2.1,2.1,0,0,1,3.45-2.24l.12.13a35.41,35.41,0,0,0,4,3.64,6.76,6.76,0,0,0,1.84,1c.23.06.4.06.42,0s-.14-.11-.28-.1-.23.06-.19,0a1.5,1.5,0,0,1,.17-.25,4.2,4.2,0,0,0,.25-.38,17.24,17.24,0,0,0,1.1-2.16c.7-1.61,1.34-3.41,1.92-5.23,1.14-3.67,2.18-7.47,3.08-11.31s1.79-7.74,2.59-11.56v0a4.19,4.19,0,0,1,8.22,1.61Z" transform="translate(0 -4.63)"/><path class="cls-8" d="M325.49,165.07c0,2.46,38.34,2.94,38.34-.31l-19.59-5-18.75,5.31" transform="translate(0 -4.63)"/><path class="cls-9" d="M332.53,122.46a87.59,87.59,0,0,1,30.51.3,4.38,4.38,0,0,1,3.59,5.28c-5.42,24.27-5.11,32.43-4.58,45.21H328.5c-1.68-21.32-2.57-33.49-2.79-40.4C325.53,127.58,327.32,123.23,332.53,122.46Z" transform="translate(0 -4.63)"/><path class="cls-11" d="M362.94,129.51a26.23,26.23,0,0,0,1.32,10c.43-2.31.93-4.79,1.5-7.5Z" transform="translate(0 -4.63)"/><path class="cls-9" d="M352,104.74c-1,4.86-1.91,13.76,1.49,17,0,0-1.32,4.93-10.35,4.93-9.93,0-4.75-4.93-4.75-4.93,5.42-1.29,5.28-5.31,4.34-9.09Z" transform="translate(0 -4.63)"/><path class="cls-11" d="M348.25,108l-5.49,4.68a14.92,14.92,0,0,1,.47,2.68c2.07-.3,4.91-2.57,5.13-4.74A7.4,7.4,0,0,0,348.25,108Z" transform="translate(0 -4.63)"/><path class="cls-9" d="M357.27,96.32c-1.86,7.91-2.47,11.3-7.21,14.71-7.12,5.14-16.43,1.14-17-7.17-.5-7.47,2.61-19.16,11-21A11.09,11.09,0,0,1,357.27,96.32Z" transform="translate(0 -4.63)"/><path class="cls-8" d="M354.25,84.42c-8.38.93-5.83,16.55.47,18.07C362.1,98.87,366.65,85.16,354.25,84.42Z" transform="translate(0 -4.63)"/><polygon class="cls-9" points="395.27 341.65 389.48 343.42 381.03 325.72 389.94 323.28 395.27 341.65"/><path class="cls-8" d="M387.81,346.28l7.44-2.88a.59.59,0,0,1,.72.25l3.33,5.62a1.14,1.14,0,0,1-.57,1.61c-2.61.95-3.87,1.5-7.14,2.77-2,.78-5.14,3.38-7.92,4.45s-4-1.46-3-2.34a23.74,23.74,0,0,0,6.24-8.64A1.55,1.55,0,0,1,387.81,346.28Z" transform="translate(0 -4.63)"/><path class="cls-10" d="M337.7,173.25s12.33,63.07,17,88c4.83,26,26.35,69.06,26.35,69.06l8.93-2.44S377.73,281.85,372,259c-1.12-41.34.2-75-10-85.77Z" transform="translate(0 -4.63)"/><path class="cls-8" d="M344.15,96.27c-.11.65-.54,1.12-1,1s-.68-.66-.57-1.31.55-1.12,1-1.05S344.27,95.62,344.15,96.27Z" transform="translate(0 -4.63)"/><path class="cls-8" d="M336.8,95c-.11.65-.55,1.12-1,1s-.69-.66-.57-1.31.54-1.12,1-1.05S336.91,94.37,336.8,95Z" transform="translate(0 -4.63)"/><path class="cls-8" d="M336.41,93.78l-1.49-.72S335.52,94.42,336.41,93.78Z" transform="translate(0 -4.63)"/><path class="cls-12" d="M338.87,96.58a18,18,0,0,1-3,3.76,2.82,2.82,0,0,0,2.24.83Z" transform="translate(0 -4.63)"/><path class="cls-8" d="M341.2,104.32a5.56,5.56,0,0,1-1-.09.19.19,0,0,1-.16-.22.2.2,0,0,1,.22-.16,5.21,5.21,0,0,0,4.55-1.3.19.19,0,0,1,.28,0,.2.2,0,0,1,0,.27A5.46,5.46,0,0,1,341.2,104.32Z" transform="translate(0 -4.63)"/><path class="cls-9" d="M358.41,103.14a6,6,0,0,1-3.61,2.75c-2,.51-3-1.3-2.38-3.18.53-1.69,2.23-4,4.24-3.69A2.67,2.67,0,0,1,358.41,103.14Z" transform="translate(0 -4.63)"/><path class="cls-8" d="M347.36,95.27A.37.37,0,0,1,347,95c-.53-1.71-2.72-2.45-2.74-2.45a.39.39,0,0,1,.24-.74c.1,0,2.59.87,3.24,3a.39.39,0,0,1-.26.49A.25.25,0,0,1,347.36,95.27Z" transform="translate(0 -4.63)"/><path class="cls-8" d="M335.16,91.24a.39.39,0,0,1-.33-.19.39.39,0,0,1,.15-.53,3.86,3.86,0,0,1,3.53-.24.39.39,0,0,1-.35.69h0a3.12,3.12,0,0,0-2.8.22A.35.35,0,0,1,335.16,91.24Z" transform="translate(0 -4.63)"/><path class="cls-9" d="M365.78,124.15c2.85,3.73,5.44,7.5,7.9,11.48,1.22,2,2.42,4,3.52,6.13a40.57,40.57,0,0,1,2.95,6.91c.11.32.2.69.29,1l.07.29.08.42a7.55,7.55,0,0,1,.08.79,10.32,10.32,0,0,1-.19,2.59,19.71,19.71,0,0,1-1.27,3.93,45.57,45.57,0,0,1-3.48,6.42,86.43,86.43,0,0,1-8.51,11.11,2.08,2.08,0,0,1-3.35-2.43l0-.05c2.21-3.85,4.39-7.8,6.28-11.73a48.66,48.66,0,0,0,2.41-5.83,12.62,12.62,0,0,0,.6-2.61,2.84,2.84,0,0,0,0-.79.39.39,0,0,1,0-.06h0l0-.12c-.07-.2-.12-.38-.21-.59a40.11,40.11,0,0,0-2.74-5.43c-1.1-1.85-2.27-3.7-3.47-5.55-2.44-3.66-5-7.34-7.6-10.9l0,0a4.19,4.19,0,0,1,6.72-5Z" transform="translate(0 -4.63)"/><path class="cls-8" d="M343.77,95l-1.49-.72S342.87,95.67,343.77,95Z" transform="translate(0 -4.63)"/><path class="cls-8" d="M326.65,130.46a55.14,55.14,0,0,1,2.38-7.41,29.93,29.93,0,0,1,4.69-1,34,34,0,0,1,7.84,10.18c4.29-4.34,12.5-8.73,17.5-10.33a13.46,13.46,0,0,1,5.05.63c-3.41,10.76-6.89,21.59-.72,24.36-.11,5.11.19,11.45.44,17.86-5.83-.63-28.95-1.75-38.34.31-.48-6.5-.65-12-.62-16.75C320.45,142.74,324.83,135.16,326.65,130.46Z" transform="translate(0 -4.63)"/><g class="cls-13"><g class="cls-14"><path class="cls-6" d="M335.84,150.47a.32.32,0,0,0-.24.18,8.9,8.9,0,0,0,.06,6.14c-.69-.58-1.37-1.15-2-1.73a7.18,7.18,0,0,0-.86-7.48.31.31,0,0,0-.27-.12.28.28,0,0,0-.24.18,8.84,8.84,0,0,0,.13,6.3c-.9-.82-1.76-1.63-2.55-2.42h0a7.16,7.16,0,0,0-.81-7.57.31.31,0,0,0-.27-.12.28.28,0,0,0-.24.18,8.92,8.92,0,0,0,.13,6.31c-1.37-1.43-2.51-2.73-3.36-3.81a7.38,7.38,0,0,0-4.87-5.21.31.31,0,0,0-.36.35c.9,4.43,4.17,5.2,4.82,5.31.47.59,1,1.24,1.64,1.94a8.37,8.37,0,0,0-5-.59.28.28,0,0,0-.21.2.31.31,0,0,0,.06.29,7,7,0,0,0,7.06,2.15c.56.58,1.16,1.18,1.79,1.78a9.62,9.62,0,0,0-6.41.39.28.28,0,0,0-.16.25.31.31,0,0,0,.15.27,7.69,7.69,0,0,0,7.66.27c.84.79,1.73,1.58,2.65,2.37a9.06,9.06,0,0,0-6.51-.37.32.32,0,0,0-.19.23.31.31,0,0,0,.12.28,7.33,7.33,0,0,0,7.6,1l.08,0a.24.24,0,0,0,.06-.11l1.13.92h0a.33.33,0,0,0,.14.1q.9.72,1.83,1.41a.3.3,0,0,0,.39,0l0,0a.31.31,0,0,0-.06-.42c-.58-.43-1.15-.86-1.7-1.31a7.19,7.19,0,0,0-.94-7.32A.3.3,0,0,0,335.84,150.47Z" transform="translate(0 -4.63)"/><path class="cls-6" d="M326,135a.3.3,0,0,0,.24-.18,8.9,8.9,0,0,0-.06-6.14c.7.58,1.37,1.16,2,1.73a7.18,7.18,0,0,0,.86,7.48.29.29,0,0,0,.27.12.28.28,0,0,0,.24-.18,8.84,8.84,0,0,0-.13-6.3c.9.82,1.76,1.64,2.55,2.43h0a7.16,7.16,0,0,0,.81,7.57.31.31,0,0,0,.27.12.28.28,0,0,0,.24-.18,8.92,8.92,0,0,0-.13-6.31c1.37,1.43,2.51,2.73,3.36,3.81a7.38,7.38,0,0,0,4.87,5.21.31.31,0,0,0,.36-.35c-.9-4.43-4.16-5.2-4.82-5.31-.47-.59-1-1.24-1.64-1.94a8.47,8.47,0,0,0,5,.6.28.28,0,0,0,.21-.21.31.31,0,0,0-.06-.29,7,7,0,0,0-7.06-2.15c-.56-.58-1.16-1.17-1.79-1.78a9.69,9.69,0,0,0,6.41-.38.3.3,0,0,0,0-.53,7.69,7.69,0,0,0-7.66-.27c-.84-.79-1.72-1.58-2.65-2.37a9.12,9.12,0,0,0,6.51.38.31.31,0,0,0,.19-.24.33.33,0,0,0-.11-.28,7.34,7.34,0,0,0-7.61-1l-.08.05a.23.23,0,0,0-.06.12l-1.13-.92v0a.28.28,0,0,0-.14-.1q-.9-.72-1.83-1.41a.3.3,0,0,0-.39,0,.08.08,0,0,0,0,0,.29.29,0,0,0,.06.42l1.7,1.31a7.18,7.18,0,0,0,.93,7.32A.3.3,0,0,0,326,135Z" transform="translate(0 -4.63)"/><path class="cls-6" d="M356.81,157.77a.32.32,0,0,0-.24.17,9,9,0,0,0,.06,6.14c-.69-.57-1.37-1.15-2-1.73a7.16,7.16,0,0,0-.86-7.47.3.3,0,0,0-.51.05,8.92,8.92,0,0,0,.13,6.31c-.9-.82-1.76-1.64-2.55-2.43h0a7.12,7.12,0,0,0-.81-7.56.28.28,0,0,0-.27-.12.31.31,0,0,0-.24.17,8.92,8.92,0,0,0,.13,6.31c-1.37-1.42-2.51-2.73-3.35-3.8a7.44,7.44,0,0,0-4.88-5.22.28.28,0,0,0-.27.09.29.29,0,0,0-.08.27c.89,4.43,4.16,5.19,4.81,5.3.47.59,1,1.25,1.64,1.95a8.46,8.46,0,0,0-5-.6.32.32,0,0,0-.21.21.28.28,0,0,0,.06.28,6.93,6.93,0,0,0,7.06,2.15c.56.58,1.16,1.18,1.79,1.79a9.62,9.62,0,0,0-6.41.38.33.33,0,0,0-.16.26.3.3,0,0,0,.15.26,7.7,7.7,0,0,0,7.66.28c.84.78,1.73,1.58,2.65,2.37a9.12,9.12,0,0,0-6.51-.38.31.31,0,0,0-.19.24.29.29,0,0,0,.12.27,7.34,7.34,0,0,0,7.61,1l.07-.06a.41.41,0,0,0,.07-.11c.37.31.74.62,1.13.92v0a.3.3,0,0,0,.13.09c.6.48,1.21,1,1.83,1.42a.29.29,0,0,0,.39,0l0,0a.3.3,0,0,0-.06-.42c-.58-.43-1.14-.87-1.7-1.31a7.18,7.18,0,0,0-.93-7.32A.31.31,0,0,0,356.81,157.77Z" transform="translate(0 -4.63)"/><path class="cls-6" d="M376,164.71a.28.28,0,0,0-.24.18,8.84,8.84,0,0,0,.06,6.14c-.7-.58-1.37-1.15-2-1.73a7.18,7.18,0,0,0-.86-7.48.33.33,0,0,0-.28-.12.31.31,0,0,0-.24.18,8.89,8.89,0,0,0,.13,6.3c-.9-.82-1.75-1.64-2.54-2.43h0a7.16,7.16,0,0,0-.81-7.57.31.31,0,0,0-.27-.12.28.28,0,0,0-.24.18,8.87,8.87,0,0,0,.13,6.31c-1.37-1.43-2.52-2.73-3.36-3.81a7.38,7.38,0,0,0-4.87-5.21.32.32,0,0,0-.28.08.32.32,0,0,0-.08.27c.9,4.43,4.16,5.2,4.82,5.31.46.59,1,1.24,1.64,1.94a8.4,8.4,0,0,0-5-.59.28.28,0,0,0-.21.2.31.31,0,0,0,.07.29,6.94,6.94,0,0,0,7.05,2.15c.57.58,1.16,1.17,1.79,1.78a9.66,9.66,0,0,0-6.4.38.29.29,0,0,0-.16.26.32.32,0,0,0,.14.27,7.71,7.71,0,0,0,7.67.27q1.26,1.19,2.64,2.37a9.12,9.12,0,0,0-6.51-.38.32.32,0,0,0-.18.24.33.33,0,0,0,.11.28,7.35,7.35,0,0,0,7.61,1,.18.18,0,0,0,.07,0,.19.19,0,0,0,.07-.12l1.13.92v0a.31.31,0,0,0,.13.1l1.83,1.41a.32.32,0,0,0,.4,0s0,0,0,0a.29.29,0,0,0-.06-.42c-.57-.43-1.14-.86-1.7-1.31a7.18,7.18,0,0,0-.93-7.32A.31.31,0,0,0,376,164.71Z" transform="translate(0 -4.63)"/><path class="cls-6" d="M332.07,165.81a.29.29,0,0,0-.24.17,8.84,8.84,0,0,0,.06,6.14c-.7-.57-1.37-1.15-2-1.73a7.18,7.18,0,0,0-.86-7.48.3.3,0,0,0-.28-.11.32.32,0,0,0-.24.17,8.92,8.92,0,0,0,.13,6.31c-.9-.83-1.75-1.64-2.54-2.43h0a7.16,7.16,0,0,0-.81-7.57.28.28,0,0,0-.27-.11.29.29,0,0,0-.24.17,8.87,8.87,0,0,0,.13,6.31,49.47,49.47,0,0,1-3.36-3.81,7.42,7.42,0,0,0-4.87-5.21.32.32,0,0,0-.28.08.35.35,0,0,0-.08.28c.9,4.42,4.16,5.19,4.82,5.3.46.59,1,1.24,1.64,1.95a8.34,8.34,0,0,0-5-.6.29.29,0,0,0-.14.49,6.91,6.91,0,0,0,7.05,2.15c.57.58,1.16,1.18,1.79,1.79a9.6,9.6,0,0,0-6.4.38.29.29,0,0,0-.16.26.3.3,0,0,0,.14.26,7.72,7.72,0,0,0,7.67.28c.84.78,1.72,1.57,2.64,2.36a9.16,9.16,0,0,0-6.51-.37.33.33,0,0,0-.18.23.31.31,0,0,0,.11.28,7.34,7.34,0,0,0,7.61,1l.07-.06a.19.19,0,0,0,.07-.11l1.13.92h0a.28.28,0,0,0,.14.1c.6.48,1.21.95,1.82,1.42a.32.32,0,0,0,.4,0l0,0a.29.29,0,0,0-.06-.42l-1.7-1.31a7.18,7.18,0,0,0-.93-7.32A.29.29,0,0,0,332.07,165.81Z" transform="translate(0 -4.63)"/><path class="cls-6" d="M356.17,123.72a.34.34,0,0,0-.24.18A9,9,0,0,0,356,130c-.69-.58-1.37-1.15-2-1.73a7.18,7.18,0,0,0-.86-7.48.31.31,0,0,0-.27-.12.28.28,0,0,0-.24.18,8.89,8.89,0,0,0,.13,6.3c-.9-.82-1.76-1.63-2.55-2.42h0a7.14,7.14,0,0,0-.81-7.57.3.3,0,0,0-.27-.12.3.3,0,0,0-.24.18,8.92,8.92,0,0,0,.13,6.31c-1.37-1.43-2.51-2.73-3.35-3.81a7.41,7.41,0,0,0-4.88-5.21.3.3,0,0,0-.27.08.29.29,0,0,0-.08.27c.89,4.43,4.16,5.2,4.81,5.31.47.59,1,1.24,1.64,1.94a8.37,8.37,0,0,0-5-.59.28.28,0,0,0-.21.2.31.31,0,0,0,.06.29,7,7,0,0,0,7.06,2.15c.56.58,1.16,1.18,1.79,1.78a9.62,9.62,0,0,0-6.41.39.3.3,0,0,0-.16.25.31.31,0,0,0,.15.27,7.69,7.69,0,0,0,7.66.27c.84.79,1.73,1.58,2.65,2.37a9.06,9.06,0,0,0-6.51-.37.32.32,0,0,0-.19.23.31.31,0,0,0,.12.28,7.35,7.35,0,0,0,7.61,1l.07,0a.41.41,0,0,0,.07-.11l1.13.92h0a.26.26,0,0,0,.13.1q.9.72,1.83,1.41a.3.3,0,0,0,.39,0l0,0a.3.3,0,0,0-.06-.42c-.58-.43-1.14-.86-1.7-1.31a7.18,7.18,0,0,0-.93-7.32A.33.33,0,0,0,356.17,123.72Z" transform="translate(0 -4.63)"/><path class="cls-6" d="M346.67,142.64a.27.27,0,0,0,.24-.17,8.89,8.89,0,0,0-.05-6.14c.69.57,1.36,1.15,2,1.73a7.17,7.17,0,0,0,.85,7.48.3.3,0,0,0,.28.11.29.29,0,0,0,.24-.17,8.92,8.92,0,0,0-.13-6.31q1.35,1.25,2.55,2.43h0a7.18,7.18,0,0,0,.81,7.57.31.31,0,0,0,.52-.06,8.87,8.87,0,0,0-.14-6.31,47.4,47.4,0,0,1,3.36,3.81,7.39,7.39,0,0,0,4.88,5.21.3.3,0,0,0,.27-.08.3.3,0,0,0,.08-.27c-.89-4.43-4.16-5.2-4.82-5.31-.46-.59-1-1.24-1.64-1.95a8.34,8.34,0,0,0,5,.6.28.28,0,0,0,.21-.2.31.31,0,0,0-.07-.29,6.91,6.91,0,0,0-7.05-2.15c-.56-.58-1.16-1.18-1.79-1.79a9.54,9.54,0,0,0,6.4-.38.28.28,0,0,0,.16-.25.3.3,0,0,0-.14-.27,7.72,7.72,0,0,0-7.66-.28c-.85-.78-1.73-1.57-2.65-2.36a9.11,9.11,0,0,0,6.51.37.28.28,0,0,0,.18-.23.29.29,0,0,0-.11-.28,7.35,7.35,0,0,0-7.61-1,.18.18,0,0,0-.07.05.41.41,0,0,0-.07.11l-1.13-.92h0a.26.26,0,0,0-.13-.1c-.6-.48-1.21-1-1.83-1.42a.3.3,0,0,0-.39,0l0,0a.3.3,0,0,0,.06.42c.57.43,1.14.87,1.7,1.32a7.18,7.18,0,0,0,.93,7.32A.28.28,0,0,0,346.67,142.64Z" transform="translate(0 -4.63)"/></g></g><path class="cls-15" d="M351.06,151.29l-67,6.75a6.78,6.78,0,0,0-6.06,7.42l2.3,22.91a12,12,0,0,1,5.82-2.17,12.22,12.22,0,1,1-3.68,23.35l2.31,22.9a6.8,6.8,0,0,0,7.42,6.07l67-6.75a6.81,6.81,0,0,0,6.07-7.43l-6.75-67A6.8,6.8,0,0,0,351.06,151.29Z" transform="translate(0 -4.63)"/><path class="cls-16" d="M351.06,151.29l-67,6.75a6.78,6.78,0,0,0-6.06,7.42l2.3,22.91a12,12,0,0,1,5.82-2.17,12.22,12.22,0,1,1-3.68,23.35l2.31,22.9a6.8,6.8,0,0,0,7.42,6.07l67-6.75a6.81,6.81,0,0,0,6.07-7.43l-6.75-67A6.8,6.8,0,0,0,351.06,151.29Z" transform="translate(0 -4.63)"/><path class="cls-9" d="M369.36,171.83l-3.1-1.35L359,172.34a3.94,3.94,0,0,0-2.11,1.39l-1.54,2a2.37,2.37,0,0,0,.13,3.05l1.75,1.92a2.37,2.37,0,0,0,3.3.2l4-3.39S369.21,175.23,369.36,171.83Z" transform="translate(0 -4.63)"/><path class="cls-9" d="M306.23,159.34l3.22-.41a2,2,0,0,0,1.75-1.67l.44-2.56a2,2,0,0,0-2.15-2.37l-3.76.27a2,2,0,0,0-1.89,2.1l.1,2.7A2,2,0,0,0,306.23,159.34Z" transform="translate(0 -4.63)"/><path class="cls-8" d="M356.34,85.85c-7.94,4-21.89,2.16-21.89,2.16S342.23,75.29,356.34,85.85Z" transform="translate(0 -4.63)"/></g><g id="Character_2" data-name="Character 2"><polygon class="cls-9" points="216.62 334.94 212.63 355.71 202.53 353.26 206.52 332.5 216.62 334.94"/><path class="cls-8" d="M202.85,353.66l11.23,2.44a.71.71,0,0,1,.57.77l-.78,8.25a1.5,1.5,0,0,1-1.8,1.29c-3.54-.84-4.59-1.36-9.06-2.33-5.21-1.15-7.06-.84-13.18-2.18-3.7-.81-3.53-4.68-1.87-4.7a24.86,24.86,0,0,0,12.49-3.33A3.27,3.27,0,0,1,202.85,353.66Z" transform="translate(0 -4.63)"/><polygon class="cls-11" points="216.63 334.95 214.57 345.65 204.46 343.21 206.52 332.5 216.63 334.95"/><path class="cls-8" d="M234.2,259.58c11.85-34.86,21.23-76,21.23-76l-33.8-2.14s-5,53.38-7.58,78C211.35,285,203,342.8,203,342.8l15.25,3.09S232.51,291.48,234.2,259.58Z" transform="translate(0 -4.63)"/><path class="cls-17" d="M239.84,203l8.2,10.14c-2.09,7.83-4.53,16.63-7.21,25.62A176.83,176.83,0,0,1,239.84,203Z" transform="translate(0 -4.63)"/><path class="cls-8" d="M203.18,344.94l14,3.06a1.16,1.16,0,0,0,1.35-.76l1.54-4.51a1.15,1.15,0,0,0-.83-1.5l-15.17-3.57a1.16,1.16,0,0,0-1.42,1l-.35,5A1.15,1.15,0,0,0,203.18,344.94Z" transform="translate(0 -4.63)"/><path class="cls-18" d="M203.18,344.94l14,3.06a1.16,1.16,0,0,0,1.35-.76l1.54-4.51a1.15,1.15,0,0,0-.83-1.5l-15.17-3.57a1.16,1.16,0,0,0-1.42,1l-.35,5A1.15,1.15,0,0,0,203.18,344.94Z" transform="translate(0 -4.63)"/><polygon class="cls-9" points="272.22 334.22 272.85 355.65 262.6 355.5 261.97 334.07 272.22 334.22"/><path class="cls-8" d="M262.35,355.74l10.9.16a.71.71,0,0,1,.71.64l.88,8.24a1.52,1.52,0,0,1-1.52,1.63c-3.62-.12-4.76-.42-9.33-.49-5.34-.08-6.49.58-12.75.49-3.79-.06-4.4-3.9-2.78-4.24a24.86,24.86,0,0,0,11.59-5.74A3.28,3.28,0,0,1,262.35,355.74Z" transform="translate(0 -4.63)"/><polygon class="cls-11" points="272.23 334.23 272.55 345.27 262.29 345.13 261.97 334.08 272.23 334.23"/><path class="cls-8" d="M269.67,258.88c-2.9-36.68-.45-56.46-4.71-74.67L234.2,182.3s9.55,53.9,14.82,78.29S260,344.18,260,344.18l15.12.19S276.93,287.49,269.67,258.88Z" transform="translate(0 -4.63)"/><path class="cls-8" d="M260,346.9l14.31.22a1.15,1.15,0,0,0,1.17-1.08l.31-4.72a1.15,1.15,0,0,0-1.12-1.24l-15.57-.48a1.16,1.16,0,0,0-1.17,1.37l1,5A1.15,1.15,0,0,0,260,346.9Z" transform="translate(0 -4.63)"/><path class="cls-18" d="M260,346.9l14.31.22a1.15,1.15,0,0,0,1.17-1.08l.31-4.72a1.15,1.15,0,0,0-1.12-1.24l-15.57-.48a1.16,1.16,0,0,0-1.17,1.37l1,5A1.15,1.15,0,0,0,260,346.9Z" transform="translate(0 -4.63)"/><path class="cls-9" d="M233.21,125.89c-1.18,2.55-2.4,4.81-3.75,7.14s-2.75,4.59-4.31,6.81a64.66,64.66,0,0,1-5.16,6.55,30.45,30.45,0,0,1-7.17,6.08l-.35.2a4.91,4.91,0,0,1-4,.44c-1.95-.63-3.84-1.34-5.69-2.1s-3.65-1.6-5.42-2.47-3.5-1.82-5.2-2.82-3.35-2-5-3.21a3.09,3.09,0,0,1,2.52-5.52l.11,0c1.79.43,3.64.95,5.44,1.42l5.41,1.43c1.79.49,3.59.9,5.36,1.34s3.54.78,5.28,1.15L207,143a24,24,0,0,0,4-4.22c1.37-1.76,2.69-3.69,4-5.7s2.5-4.09,3.68-6.2,2.38-4.32,3.44-6.34l.06-.11a6.16,6.16,0,0,1,11,5.46Z" transform="translate(0 -4.63)"/><path class="cls-15" d="M235.67,108.41c-11.94,1.36-21,19.85-21,19.85L227,141.37s5.49-6.54,11.39-14.81C244.82,117.55,245.12,107.34,235.67,108.41Z" transform="translate(0 -4.63)"/><path class="cls-6" d="M234.2,111.18c4.59-1.63,25.15,1,25.15,1-4,5.16-7.34,47.89-7.71,72.45-4.37.6-21.12-.55-25-1.45C227.14,173.54,231.16,128.33,234.2,111.18Z" transform="translate(0 -4.63)"/><path class="cls-15" d="M220.93,124.14a18.26,18.26,0,0,1,18.21-16.06,127,127,0,0,1,25.55,2.82A10,10,0,0,1,272.32,123c-6.33,26.55-4.66,51.75-6.35,63.46a49.37,49.37,0,0,1-18.84,3s.15-10.11,1.56-27.18c1.12-13.57,3.13-45.48,7.27-50.78,0,0-14.84-2-19.43-.39-3.4,19.25-5.91,77.56-5.91,77.57-7.26-.51-10.68-4.55-10.57-5.76C218.6,159.36,219.31,138,220.93,124.14Z" transform="translate(0 -4.63)"/><path class="cls-9" d="M256.51,94.61c-1.39,4-3,11.09-.43,15.07a1.53,1.53,0,0,1-.63,2.28,22.81,22.81,0,0,1-13.65,2.94c-6.44-.52-6-3.43-4.34-5.32a2.32,2.32,0,0,1,1.52-.76c6.09-.73,6.16-4.4,5.27-8Z" transform="translate(0 -4.63)"/><path class="cls-11" d="M251.51,97.16l-7.25,3.69a11.54,11.54,0,0,1,.39,2.61c2.64,0,6.38-1.77,6.81-3.79A5.21,5.21,0,0,0,251.51,97.16Z" transform="translate(0 -4.63)"/><ellipse class="cls-8" cx="241.96" cy="80.34" rx="6.55" ry="4.89" transform="translate(143.63 310.93) rotate(-85.68)"/><path class="cls-9" d="M260.43,83.68c-1.34,7.9-1.73,12.58-6.11,16.25-6.59,5.51-15.84.86-16.84-7.27-.91-7.32,1.43-19,9.41-21.37S261.77,75.78,260.43,83.68Z" transform="translate(0 -4.63)"/><path class="cls-8" d="M258.71,90.35c-.1,0-.22-.13-.33-.07-3.58,2-4.74-2.3-4.51-5.15a6.75,6.75,0,0,1,2.64-4.89c-3.88.44-7.64-2.06-7.7-4.39-4.29,1.89-9.46,2.05-11.79-2s1-9.22,5.44-7.84c-1.8-3.22,5.81-9.66,13.78-.16.25-6.89,11.39,0,9.56,6.78,5.16,1.77,9.58,11.57.83,13.66C266.05,95.38,258.71,90.35,258.71,90.35Z" transform="translate(0 -4.63)"/><path class="cls-9" d="M262.93,92.83a7.59,7.59,0,0,1-4.84,2.73c-2.4.26-2.93-2.18-1.7-4.4,1.11-2,3.69-4.54,5.83-3.76S264.49,90.93,262.93,92.83Z" transform="translate(0 -4.63)"/><path class="cls-8" d="M249,84.28c-.06.65-.45,1.14-.88,1.1s-.73-.6-.67-1.25.45-1.15.88-1.11S249,83.62,249,84.28Z" transform="translate(0 -4.63)"/><path class="cls-8" d="M241.24,83.41c-.06.65-.45,1.15-.88,1.1s-.72-.6-.67-1.25.45-1.15.88-1.11S241.3,82.76,241.24,83.41Z" transform="translate(0 -4.63)"/><path class="cls-12" d="M244.27,83.79a23.4,23.4,0,0,1-3.61,5.27,3.79,3.79,0,0,0,3.06.89Z" transform="translate(0 -4.63)"/><path class="cls-8" d="M245.74,93.13a5.38,5.38,0,0,0,4-1.39.19.19,0,0,0,0-.27.2.2,0,0,0-.27,0A5.15,5.15,0,0,1,245,92.64a.19.19,0,0,0-.22.15.19.19,0,0,0,.15.23C245.18,93.07,245.47,93.11,245.74,93.13Z" transform="translate(0 -4.63)"/><path class="cls-8" d="M251.55,82.71a.32.32,0,0,0,.19,0,.38.38,0,0,0,.19-.51,3.89,3.89,0,0,0-2.68-2.29.39.39,0,0,0-.44.32.39.39,0,0,0,.32.44h0a3.08,3.08,0,0,1,2.1,1.84A.41.41,0,0,0,251.55,82.71Z" transform="translate(0 -4.63)"/><path class="cls-8" d="M238,80.22a.37.37,0,0,0,.36-.08,3.06,3.06,0,0,1,2.67-.73.38.38,0,0,0,.47-.26.39.39,0,0,0-.26-.48,3.8,3.8,0,0,0-3.39.89.38.38,0,0,0,0,.54A.36.36,0,0,0,238,80.22Z" transform="translate(0 -4.63)"/><path class="cls-9" d="M274.72,122.49c.65,1.27,1.18,2.37,1.7,3.56s1,2.34,1.52,3.53c1,2.35,1.87,4.75,2.69,7.18a98.67,98.67,0,0,1,3.82,15.07l.27,2,.14,1,0,.24,0,.44c0,.32.05.65.06,1a15.61,15.61,0,0,1-1.08,5.32,39.32,39.32,0,0,1-3.78,7.39,72.44,72.44,0,0,1-4.47,6.29,73.78,73.78,0,0,1-5,5.77,3.08,3.08,0,0,1-5-3.48l0-.08c2.07-4.31,4.26-8.67,6-12.92.45-1.06.85-2.12,1.2-3.15a25.63,25.63,0,0,0,.87-2.94,5.74,5.74,0,0,0,.17-1.9.08.08,0,0,0,0,0s0,.06,0,0l-.05-.21-.19-.83-.37-1.65a118.16,118.16,0,0,0-4.23-13.2c-.8-2.2-1.71-4.37-2.59-6.55-.44-1.08-.91-2.16-1.38-3.23L263.7,128l-.08-.19a6.15,6.15,0,0,1,11.1-5.3Z" transform="translate(0 -4.63)"/><path class="cls-15" d="M265.72,111.18c13.32,3.36,17,20.39,17,20.39L266.2,143.43s-4.1-4.29-5.34-14.37C260.27,124.25,263,111.05,265.72,111.18Z" transform="translate(0 -4.63)"/><path class="cls-9" d="M267.77,175.72l-7.7,2.87,5.9,7.9s6.65-3.45,5.39-7.28Z" transform="translate(0 -4.63)"/><path class="cls-19" d="M254.3,179.72a12.1,12.1,0,0,0-6.18.57l3.82-22.71a6.79,6.79,0,0,0-5.56-7.81L180,138.59a6.79,6.79,0,0,0-7.81,5.55l-3.83,22.71a12.22,12.22,0,1,1-3.53,21L161,210.54a6.79,6.79,0,0,0,5.56,7.81L233,229.54a6.81,6.81,0,0,0,7.81-5.56l3.82-22.71a12,12,0,0,0,5.66,2.56,12.22,12.22,0,0,0,4.06-24.11Z" transform="translate(0 -4.63)"/><path class="cls-20" d="M254.3,179.72a12.1,12.1,0,0,0-6.18.57l3.82-22.71a6.79,6.79,0,0,0-5.56-7.81L180,138.59a6.79,6.79,0,0,0-7.81,5.55l-3.83,22.71a12.22,12.22,0,1,1-3.53,21L161,210.54a6.79,6.79,0,0,0,5.56,7.81L233,229.54a6.81,6.81,0,0,0,7.81-5.56l3.82-22.71a12,12,0,0,0,5.66,2.56,12.22,12.22,0,0,0,4.06-24.11Z" transform="translate(0 -4.63)"/><path class="cls-9" d="M256.47,186.33l2.53,2.41a2.84,2.84,0,0,0,3.68.22l3.29-2.47-5.9-7.9-3.65,3.67A2.84,2.84,0,0,0,256.47,186.33Z" transform="translate(0 -4.63)"/><path class="cls-9" d="M182.38,140.68l.93-3.42a2,2,0,0,1,1.95-1.32h0a10.07,10.07,0,0,1,3.83.59l5.2,1.92-.25,2.12c-.21,1.82-2.24,3.34-4.54,3.41a19.33,19.33,0,0,1-4.59-.49l-.56-.12A2.21,2.21,0,0,1,182.38,140.68Z" transform="translate(0 -4.63)"/></g><g id="Character_1" data-name="Character 1"><path d="M100.43,93.62c3.33-3.88,8.34-13.93-1.08-17.77C92.4,73,77.65,74.46,69.18,87.65c-5.79,2-7.5,14.88,5.87,17.59S100.43,93.62,100.43,93.62Z" transform="translate(0 -4.63)"/><polygon class="cls-21" points="130.64 337.13 115.36 338.4 117.95 356.36 130.72 355.32 130.64 337.13"/><polygon class="cls-11" points="130.64 337.14 115.35 338.4 116.81 348.46 130.69 347.32 130.64 337.14"/><path class="cls-22" d="M101.43,288.89c-6-23-21.54-50.38-11.69-72.5l42.81-.14s1.06,45.55,1.36,67c.31,22.35-1.62,64.59-1.62,64.59l-17.51,1.33S102.83,314.68,101.43,288.89Z" transform="translate(0 -4.63)"/><path class="cls-8" d="M114,349.9l18.92-1.39a.67.67,0,0,0,.62-.62l.4-7a.66.66,0,0,0-.74-.7l-21,2.79a.66.66,0,0,0-.55.85l1.66,5.61A.68.68,0,0,0,114,349.9Z" transform="translate(0 -4.63)"/><path class="cls-11" d="M89.59,238.15a114.67,114.67,0,0,0,.66,16.27c2.09,7.23,4.76,14.47,7.16,21.49C100.55,256,100.56,232.86,89.59,238.15Z" transform="translate(0 -4.63)"/><polygon class="cls-21" points="74.08 338.25 58.74 338.39 58.72 356.5 71.54 356.4 74.08 338.25"/><path class="cls-8" d="M57.51,358.35a.72.72,0,0,1,.9-.59c3.85,1.52,11.15.35,13.91-.18a2.27,2.27,0,0,1,1.77.37,29.22,29.22,0,0,0,7.27,3.36,8.63,8.63,0,0,1,.4,4.61H55.9A50.75,50.75,0,0,0,57.51,358.35Z" transform="translate(0 -4.63)"/><path class="cls-8" d="M116.26,358.35a.72.72,0,0,1,.9-.59c3.85,1.52,11.15.35,13.91-.18a2.27,2.27,0,0,1,1.77.37c2.94,2.08,10.78,3.36,10.78,3.36a8.56,8.56,0,0,1,.39,4.61H114.65A50.75,50.75,0,0,0,116.26,358.35Z" transform="translate(0 -4.63)"/><polygon class="cls-11" points="74.08 338.25 58.73 338.4 58.72 348.54 72.66 348.42 74.08 338.25"/><path class="cls-22" d="M56.58,281.45c-2.08-23.23-8.6-54.52-1.2-65.2h50.1S95.27,262.57,91.08,284C86.73,306.3,74.22,349.1,74.22,349.1l-16.59,0S51.3,308,56.58,281.45Z" transform="translate(0 -4.63)"/><path class="cls-23" d="M59.59,344.4a.51.51,0,0,1-.48-.35c-1.19-4-1-50,2-62.54,0-1.65-.35-4.92-.75-9-1.37-14-3.91-40-.12-54.76a.5.5,0,1,1,1,.25c-3.75,14.59-1.22,40.49.14,54.41.41,4.2.74,7.51.76,9.19a.57.57,0,0,1,0,.13c-2.88,11.91-3.16,58.2-2,62.07a.5.5,0,0,1-.33.62A.39.39,0,0,1,59.59,344.4Z" transform="translate(0 -4.63)"/><path class="cls-8" d="M56.48,349.77h18.8a.62.62,0,0,0,.62-.52l1.24-6.67a.69.69,0,0,0-.7-.81L56,342.68a.63.63,0,0,0-.61.69l.42,5.76A.7.7,0,0,0,56.48,349.77Z" transform="translate(0 -4.63)"/><path class="cls-24" d="M122.5,135.34c1,4,1.92,7.95,2.81,11.95s1.73,8,2.51,12l1.2,6,1.12,6c.77,4,1.45,8.06,2.15,12.1l-1.63-3.65a3.38,3.38,0,0,0,1.33,1.84,11.63,11.63,0,0,0,4.24,1.76,33.22,33.22,0,0,0,6.16.8c1.11.06,2.25.1,3.4.08.57,0,1.15,0,1.73,0s1.21,0,1.61,0l1.42.1a5.52,5.52,0,0,1,2.28,10.36c-.8.44-1.37.78-2.05,1.13s-1.31.64-2,.95c-1.34.58-2.71,1.13-4.13,1.59a42.09,42.09,0,0,1-4.39,1.18,41.13,41.13,0,0,1-4.73.66,29.75,29.75,0,0,1-5.15-.08,22.94,22.94,0,0,1-5.58-1.18,23.3,23.3,0,0,1-5.71-2.82,23,23,0,0,1-4.92-4.63,7.27,7.27,0,0,1-1.32-2.54l-.31-1.11c-1.1-3.93-2.23-7.87-3.27-11.83l-1.58-5.92-1.52-5.94c-1-4-2-7.94-2.91-11.91s-1.82-8-2.61-12v0a11.2,11.2,0,0,1,21.84-4.95Z" transform="translate(0 -4.63)"/><path class="cls-21" d="M148.43,185.26l.21,6.46c2.61,6.27,10.09,1.51,10.09,1.51l4.52-.83a3.44,3.44,0,0,0,2.58-3.61l-.12-4.51a3.58,3.58,0,0,0-3.34-3.7l-4,.08a7.06,7.06,0,0,0-3.33.9Z" transform="translate(0 -4.63)"/><path class="cls-8" d="M114.84,124.2c9.2,4.84,15.21,21.92,15.21,21.92-1.94,8-9.76,22.59-17,22.5,0,0-10.63-13.71-11.78-23.63C99.87,133,96.24,114.42,114.84,124.2Z" transform="translate(0 -4.63)"/><path class="cls-8" d="M106.33,121.36a193,193,0,0,0-42.65.68c-8.18,1.15-14,6.24-13,23,2,34-1.1,60.5,3.22,72.72,0,0,62.92,18,80.86.75,4.36-40.91-10.31-74.87-17-89A14.36,14.36,0,0,0,106.33,121.36Z" transform="translate(0 -4.63)"/><path class="cls-21" d="M101.61,125.08c-1.63-1.6-3.34-.67-4.13-3.08a8.32,8.32,0,0,1,.9-5.53L79,106c.38,7.14.67,12.78-2.49,15.62-.93,5.32,8.94,10.63,22.2,10.71C107.09,132.37,104,127.38,101.61,125.08Z" transform="translate(0 -4.63)"/><path class="cls-25" d="M98.09,117.07l-15.32-3.83c3.87,6.09,10.84,9.42,14.59,8A8.54,8.54,0,0,1,98.09,117.07Z" transform="translate(0 -4.63)"/><path class="cls-21" d="M91.75,82.13c-10.14-2.25-18.9,6.17-16.94,15.35s3.51,15.38,9.86,18.51c12.62,6.21,18.78.22,19.81-9.38C105.41,98,102,84.4,91.75,82.13Z" transform="translate(0 -4.63)"/><path class="cls-11" d="M89.76,98.43a4.65,4.65,0,0,0-3.51.52A9.17,9.17,0,0,0,89.76,98.43Z" transform="translate(0 -4.63)"/><path class="cls-11" d="M89.83,99.28a3.82,3.82,0,0,0-3,1.24A7.54,7.54,0,0,0,89.83,99.28Z" transform="translate(0 -4.63)"/><path d="M76.09,105.24c5.67,1.27,8-1.57,8-4.75,0-3.38-3.19-9.09-6.69-10.14,1.25-7.5,21.92,3,19.95-7.39,0,0-.56-1.78-5.9-2.78S71.87,82.4,72.87,93.07,76.09,105.24,76.09,105.24Z" transform="translate(0 -4.63)"/><path class="cls-8" d="M68.87,88.18a13.54,13.54,0,0,0,1.11-9S76.21,83.29,68.87,88.18Z" transform="translate(0 -4.63)"/><path class="cls-8" d="M95,108.09a8.56,8.56,0,0,0,1.26-.19.24.24,0,0,0,.19-.3.24.24,0,0,0-.3-.19,6.86,6.86,0,0,1-6-1.38.25.25,0,0,0-.36,0,.26.26,0,0,0,0,.36A7.1,7.1,0,0,0,95,108.09Z" transform="translate(0 -4.63)"/><path class="cls-21" d="M72.5,105.69A8.29,8.29,0,0,0,78,109c2.91.4,4-2.29,2.88-4.83-1-2.29-3.72-5.25-6.48-4.49S70.92,103.5,72.5,105.69Z" transform="translate(0 -4.63)"/><path class="cls-8" d="M91.41,98.53c.12.81.64,1.41,1.17,1.33s.87-.8.75-1.62-.63-1.4-1.16-1.32S91.3,97.72,91.41,98.53Z" transform="translate(0 -4.63)"/><path class="cls-8" d="M100.94,97.25c.12.82.64,1.41,1.17,1.33s.87-.8.75-1.61-.63-1.41-1.16-1.33S100.83,96.44,100.94,97.25Z" transform="translate(0 -4.63)"/><path class="cls-25" d="M97.38,98.32l.46,6.86s2.25.39,3.47-.91A14,14,0,0,0,97.38,98.32Z" transform="translate(0 -4.63)"/><path class="cls-8" d="M88.27,96.67a.47.47,0,0,1-.57-.6,4.85,4.85,0,0,1,2.92-3.31.48.48,0,0,1,.29.92h0a3.89,3.89,0,0,0-2.29,2.65A.47.47,0,0,1,88.27,96.67Z" transform="translate(0 -4.63)"/><path class="cls-8" d="M104.07,93.62a.48.48,0,0,1-.41-.2,3.81,3.81,0,0,0-3.06-1.63.48.48,0,0,1,0-1,4.71,4.71,0,0,1,3.89,2,.48.48,0,0,1-.11.67A.52.52,0,0,1,104.07,93.62Z" transform="translate(0 -4.63)"/><path class="cls-16" d="M162.37,159a12.22,12.22,0,0,0-5.86,2l-1.81-23a6.8,6.8,0,0,0-7.29-6.22l-67.13,5.3a6.8,6.8,0,0,0-6.22,7.29l5.3,67.12a6.78,6.78,0,0,0,7.29,6.22l67.12-5.3a6.8,6.8,0,0,0,6.23-7.29l-1.82-22.95a12.07,12.07,0,0,0,6.11,1.1A12.22,12.22,0,0,0,162.37,159Z" transform="translate(0 -4.63)"/><path class="cls-21" d="M65,149.83l-1,1.84-1.15,2.06c-.74,1.4-1.5,2.8-2.19,4.22a90.35,90.35,0,0,0-3.72,8.5c-.53,1.4-1,2.79-1.35,4.16a31.78,31.78,0,0,0-.94,4,20.88,20.88,0,0,0-.21,6.6l-2.3-4a16.93,16.93,0,0,0,3.44,3.47,51.74,51.74,0,0,0,5.33,3.74c1.93,1.23,4,2.42,6.08,3.61l3.18,1.78c1,.59,2.2,1.19,3.15,1.77l.48.29a5.66,5.66,0,0,1-3,10.5c-1.52,0-2.82-.1-4.22-.21s-2.73-.28-4.09-.49a70.87,70.87,0,0,1-8.19-1.76,54.42,54.42,0,0,1-8.3-3.1,32.34,32.34,0,0,1-8.61-5.8,7.78,7.78,0,0,1-2-3.15L35,187a36.94,36.94,0,0,1-1.66-14.7,57.44,57.44,0,0,1,2.48-12.78,81.12,81.12,0,0,1,4.45-11.37c.87-1.81,1.76-3.59,2.76-5.32.49-.87,1-1.74,1.52-2.6l.82-1.3.43-.66.52-.76a11.19,11.19,0,0,1,19,11.8Z" transform="translate(0 -4.63)"/><path class="cls-8" d="M57.19,124.2c-16.58,8.86-22.76,28.65-22.76,28.65,3.28,6.25,23.06,13,30.5,11.16,0,0,7.13-13,8.6-24.62C74.89,128.62,66.9,119,57.19,124.2Z" transform="translate(0 -4.63)"/><path class="cls-21" d="M68.79,192.64l.34,6.45c2.74,6.22,10.12,1.31,10.12,1.31l4.51-.92a3.43,3.43,0,0,0,2.5-3.66l-.2-4.51a3.59,3.59,0,0,0-3.42-3.63l-4,.16a7.05,7.05,0,0,0-3.31,1Z" transform="translate(0 -4.63)"/></g></svg>