<svg xmlns="http://www.w3.org/2000/svg" viewBox="0 0 462.55 331.51"><defs><style>.cls-1{isolation:isolate;}.cls-2,.cls-7{opacity:0.35;}.cls-3,.cls-7{fill:#c10000;}.cls-4{fill:#1d7400;}.cls-15,.cls-16,.cls-17,.cls-5{fill:none;}.cls-5{stroke:#1d7400;}.cls-16,.cls-5{stroke-miterlimit:10;}.cls-6{opacity:0.64;}.cls-8{fill:#e8505b;}.cls-13,.cls-9{opacity:0.45;}.cls-10,.cls-13{fill:#b03d44;}.cls-11{fill:#c3ecfe;}.cls-12{fill:#fff;}.cls-14{opacity:0.15;}.cls-15{stroke:#0964af;stroke-width:3.12px;}.cls-15,.cls-17{stroke-linecap:round;stroke-linejoin:round;}.cls-16{stroke:#58595b;stroke-width:1.16px;}.cls-17{stroke:#c10000;stroke-width:3.47px;}.cls-18{fill:#35aad3;}.cls-19{fill:#2496b5;}.cls-20{fill:#8a5e3c;}.cls-21{fill:#754c29;}.cls-22{fill:#16405a;}.cls-23{fill:#103649;}.cls-24{fill:#3a3a3a;}.cls-25{fill:#243a6c;}.cls-26{fill:#1c3059;}.cls-27,.cls-30{fill:#ffc25b;}.cls-28{fill:#fe7f9a;}.cls-29{fill:#ffe7c5;}.cls-30,.cls-31{mix-blend-mode:multiply;}.cls-31{fill:#bec4cc;opacity:0.67;}</style></defs><title>developers-signup</title><g class="cls-1"><g id="OBJECTS"><g class="cls-2"><path class="cls-3" d="M435,239.21c-7.4-26.55,16.13-27.58,16.65-61.8.21-14-7.46-28.25-25.9-34.79-9.07-3.21-18.11-5.42-26.18-10.53-18.38-11.64-18-33.79-23.06-52.68C365.44,37.93,279.16,5,236.26,6c-30.93.77-45.2,15.68-73.4,41.93-19.29,18-53.29,16.34-43.38,62.75,8.82,41.34-12,38.27-31.06,53.53s-32.95,33.4-25.38,54C71.39,241,20.29,254,11.18,283.51c-6.18,20,26.29,21.68,48.39,21.68s211.15-1.7,291.12.66c21.52.64,90.19,6.5,99.91-20.33C457.21,267.26,440.12,257.76,435,239.21Z" transform="translate(-5.56 -5.99)"/></g><path class="cls-4" d="M453.87,234.75a30.64,30.64,0,0,0,10.55-18.53c.28-1.76.34-3.76-.85-5.09a2,2,0,0,0-1.24-.72,2.54,2.54,0,0,0-2,1.09c-2.78,3.12-3.74,7.43-4.22,11.58s-1.38,7.19-2.25,11.67" transform="translate(-5.56 -5.99)"/><path class="cls-4" d="M446.29,247.42a30.66,30.66,0,0,0,2.33-21.19c-.44-1.73-1.18-3.59-2.8-4.34a2,2,0,0,0-1.42-.17,2.54,2.54,0,0,0-1.4,1.79c-1.31,4-.49,8.31.72,12.31s1.58,7.15,2.57,11.6" transform="translate(-5.56 -5.99)"/><path class="cls-4" d="M435.12,263a30.59,30.59,0,0,0,4.9-20.74c-.22-1.77-.73-3.7-2.24-4.65a2,2,0,0,0-1.39-.34,2.54,2.54,0,0,0-1.61,1.6c-1.79,3.78-1.5,8.19-.79,12.31s.7,7.29,1.13,11.82" transform="translate(-5.56 -5.99)"/><path class="cls-4" d="M422.29,276.66a30.68,30.68,0,0,0,4.9-20.75c-.22-1.76-.73-3.7-2.24-4.64a2,2,0,0,0-1.39-.34c-.78.14-1.28.89-1.62,1.6-1.78,3.78-1.49,8.19-.78,12.3s.69,7.29,1.13,11.83" transform="translate(-5.56 -5.99)"/><path class="cls-4" d="M403.06,292.42a30.65,30.65,0,0,0,7-20.13c0-1.77-.35-3.75-1.75-4.85A2,2,0,0,0,407,267a2.55,2.55,0,0,0-1.77,1.43c-2.16,3.57-2.33,8-2.05,12.15s-.07,7.32-.11,11.88" transform="translate(-5.56 -5.99)"/><path class="cls-4" d="M388,302.49a32.71,32.71,0,0,0,8.16-19.12c.15-1.77.1-3.77-1-5a1.68,1.68,0,0,0-1.11-.64c-.68,0-1.24.58-1.66,1.2-2.24,3.28-2.85,7.64-3.06,11.81s-.83,7.26-1.35,11.78" transform="translate(-5.56 -5.99)"/><path class="cls-4" d="M442.48,253a33.22,33.22,0,0,0,21.94-4.21c1.62-1,3.3-2.25,3.64-4a1.9,1.9,0,0,0-.19-1.43,2.55,2.55,0,0,0-2.17-.82c-4.32-.07-8.48,2.07-12.2,4.46s-6.79,3.73-11,6.05" transform="translate(-5.56 -5.99)"/><path class="cls-4" d="M433.46,264.79a33.18,33.18,0,0,0,22.3,1.15c1.81-.54,3.75-1.39,4.51-3.06a1.92,1.92,0,0,0,.15-1.44,2.52,2.52,0,0,0-1.9-1.31c-4.19-1.1-8.74,0-12.92,1.42s-7.48,2-12.14,3.24" transform="translate(-5.56 -5.99)"/><path class="cls-4" d="M420,278.54a33.18,33.18,0,0,0,21.62,5.59c1.88-.17,3.95-.61,5-2.09a2,2,0,0,0,.44-1.39c-.11-.78-.87-1.3-1.6-1.66-3.89-1.91-8.56-1.77-12.94-1.19s-7.74.46-12.55.74" transform="translate(-5.56 -5.99)"/><path class="cls-4" d="M401.13,294.43a33.18,33.18,0,0,0,22.32.65c1.79-.58,3.71-1.47,4.44-3.16a2,2,0,0,0,.12-1.44,2.54,2.54,0,0,0-1.94-1.27c-4.21-1-8.73.17-12.88,1.71s-7.43,2.16-12.06,3.51" transform="translate(-5.56 -5.99)"/><path class="cls-4" d="M385.88,303.53a33.22,33.22,0,0,0,19.64,10.63c1.86.29,4,.36,5.39-.82a2,2,0,0,0,.75-1.24,2.56,2.56,0,0,0-1.15-2c-3.31-2.79-7.88-3.77-12.27-4.27s-7.62-1.42-12.36-2.3" transform="translate(-5.56 -5.99)"/><path class="cls-5" d="M112.41,172.58c9.35,51.08,45,96.63,92.29,118" transform="translate(-5.56 -5.99)"/><path class="cls-4" d="M114.78,183.27a30.67,30.67,0,0,1-6.15-20.41c.12-1.78.51-3.74,2-4.78a2,2,0,0,1,1.37-.42,2.57,2.57,0,0,1,1.71,1.5c2,3.66,2,8.08,1.52,12.23s-.25,7.32-.41,11.88" transform="translate(-5.56 -5.99)"/><path class="cls-4" d="M119.35,197.31a30.67,30.67,0,0,1,2.45-21.17c.82-1.59,2-3.24,3.7-3.61a2,2,0,0,1,1.42.15,2.58,2.58,0,0,1,1,2.06c.39,4.16-1.38,8.21-3.45,11.84s-3.14,6.61-5.09,10.73" transform="translate(-5.56 -5.99)"/><path class="cls-4" d="M126.76,215a30.58,30.58,0,0,1-.15-21.31c.61-1.67,1.54-3.45,3.22-4a2,2,0,0,1,1.43,0,2.53,2.53,0,0,1,1.22,1.92c.9,4.08-.37,8.31-2,12.17s-2.3,6.95-3.74,11.27" transform="translate(-5.56 -5.99)"/><path class="cls-4" d="M136.23,231.17a30.67,30.67,0,0,1-.16-21.32c.62-1.67,1.54-3.44,3.22-4a2,2,0,0,1,1.44,0,2.55,2.55,0,0,1,1.21,1.92c.9,4.08-.37,8.32-2,12.17s-2.3,7-3.73,11.28" transform="translate(-5.56 -5.99)"/><path class="cls-4" d="M151.45,250.82a30.66,30.66,0,0,1-2.36-21.19c.44-1.72,1.18-3.58,2.79-4.34a2,2,0,0,1,1.42-.17,2.57,2.57,0,0,1,1.41,1.79c1.31,4,.49,8.31-.71,12.3s-1.57,7.16-2.55,11.61" transform="translate(-5.56 -5.99)"/><path class="cls-4" d="M163.89,264a32.71,32.71,0,0,1-3.69-20.45c.25-1.76.74-3.7,2.08-4.69a1.68,1.68,0,0,1,1.22-.38c.67.12,1.08.85,1.36,1.54,1.45,3.7,1.07,8.09.34,12.2s-.81,7.26-1.31,11.78" transform="translate(-5.56 -5.99)"/><path class="cls-4" d="M121.81,203.6a33.23,33.23,0,0,1-20.44-9c-1.37-1.3-2.72-2.93-2.65-4.76a2,2,0,0,1,.51-1.36,2.56,2.56,0,0,1,2.29-.31c4.24.9,7.82,3.9,10.9,7.07s5.79,5.15,9.39,8.35" transform="translate(-5.56 -5.99)"/><path class="cls-4" d="M128,217.11a33.22,33.22,0,0,1-22-3.86c-1.63-.92-3.34-2.19-3.71-4a1.93,1.93,0,0,1,.18-1.44,2.53,2.53,0,0,1,2.14-.86c4.33-.13,8.52,1.93,12.28,4.27s6.85,3.62,11.11,5.87" transform="translate(-5.56 -5.99)"/><path class="cls-4" d="M138.05,233.52a33.24,33.24,0,0,1-22.32.63c-1.79-.59-3.71-1.48-4.44-3.17a2,2,0,0,1-.11-1.44,2.54,2.54,0,0,1,1.93-1.27c4.21-1,8.74.19,12.88,1.73s7.44,2.17,12.06,3.52" transform="translate(-5.56 -5.99)"/><path class="cls-4" d="M152.89,253.21a33.21,33.21,0,0,1-21.9-4.34c-1.62-1-3.29-2.27-3.63-4.07a2,2,0,0,1,.21-1.44,2.54,2.54,0,0,1,2.17-.8c4.33,0,8.47,2.12,12.17,4.54s6.77,3.76,11,6.11" transform="translate(-5.56 -5.99)"/><path class="cls-4" d="M165.73,265.48a33.25,33.25,0,0,1-21.52,6c-1.88-.14-4-.55-5.07-2a2,2,0,0,1-.46-1.37c.1-.78.85-1.32,1.57-1.7,3.85-2,8.53-1.92,12.92-1.42s7.74.31,12.56.51" transform="translate(-5.56 -5.99)"/><path class="cls-4" d="M31.24,243.81A30.65,30.65,0,0,0,10,242.41c-1.7.51-3.53,1.34-4.21,3a2,2,0,0,0-.1,1.43,2.54,2.54,0,0,0,1.84,1.32c4,1.14,8.32.12,12.27-1.26s7.07-1.89,11.47-3.07" transform="translate(-5.56 -5.99)"/><path class="cls-4" d="M46,245.12a30.61,30.61,0,0,0-20.08,7.14c-1.36,1.15-2.71,2.63-2.68,4.41a1.92,1.92,0,0,0,.47,1.35,2.54,2.54,0,0,0,2.22.48c4.14-.55,7.69-3.18,10.76-6s5.74-4.54,9.31-7.36" transform="translate(-5.56 -5.99)"/><path class="cls-4" d="M64.85,248.36A30.66,30.66,0,0,0,44,253c-1.49,1-3,2.28-3.2,4.05a2,2,0,0,0,.3,1.4,2.6,2.6,0,0,0,2.15.75c4.17,0,8-2.23,11.41-4.66s6.26-3.81,10.15-6.18" transform="translate(-5.56 -5.99)"/><path class="cls-4" d="M82.74,254a30.66,30.66,0,0,0-20.81,4.64c-1.49,1-3,2.28-3.2,4.05A2,2,0,0,0,59,264a2.57,2.57,0,0,0,2.15.75c4.17,0,8-2.23,11.41-4.66s6.25-3.81,10.15-6.18" transform="translate(-5.56 -5.99)"/><path class="cls-4" d="M105.31,264.38a30.59,30.59,0,0,0-21.18,2.45c-1.58.82-3.23,1.95-3.61,3.69a2,2,0,0,0,.16,1.43,2.57,2.57,0,0,0,2.06,1c4.15.39,8.2-1.39,11.83-3.45s6.62-3.14,10.74-5.09" transform="translate(-5.56 -5.99)"/><path class="cls-4" d="M120.93,273.53a32.67,32.67,0,0,0-20.75,1c-1.66.63-3.44,1.55-4.1,3.07a1.65,1.65,0,0,0-.1,1.28,2.16,2.16,0,0,0,1.81,1c3.92.59,8.12-.77,12-2.4s6.89-2.42,11.18-3.93" transform="translate(-5.56 -5.99)"/><path class="cls-4" d="M52.63,246.1a33.18,33.18,0,0,0-13.35-17.9c-1.57-1-3.46-2-5.23-1.52a2,2,0,0,0-1.21.81,2.53,2.53,0,0,0,.21,2.3c1.83,3.93,5.56,6.74,9.34,9s6.31,4.49,10.24,7.28" transform="translate(-5.56 -5.99)"/><path class="cls-4" d="M67.18,249.08a33.18,33.18,0,0,0-8.69-20.57c-1.28-1.39-2.89-2.77-4.72-2.73a2,2,0,0,0-1.37.5,2.57,2.57,0,0,0-.35,2.28c.85,4.25,3.8,7.87,6.92,11s5.06,5.87,8.21,9.52" transform="translate(-5.56 -5.99)"/><path class="cls-4" d="M85.44,255.21A33.17,33.17,0,0,0,81,233.31c-1-1.61-2.27-3.28-4.07-3.61a2,2,0,0,0-1.44.21,2.57,2.57,0,0,0-.8,2.17c0,4.33,2.14,8.47,4.58,12.16s3.78,6.76,6.14,11" transform="translate(-5.56 -5.99)"/><path class="cls-4" d="M108,265.24a33.28,33.28,0,0,0-9.15-20.37c-1.31-1.36-3-2.7-4.78-2.62a2,2,0,0,0-1.36.53,2.52,2.52,0,0,0-.29,2.29c.93,4.23,4,7.78,7.15,10.84s5.2,5.76,8.43,9.33" transform="translate(-5.56 -5.99)"/><path class="cls-4" d="M122.8,275a33.21,33.21,0,0,0,1-22.31c-.56-1.8-1.42-3.73-3.09-4.49a2,2,0,0,0-1.44-.14A2.52,2.52,0,0,0,118,250c-1.07,4.2,0,8.74,1.51,12.91s2,7.47,3.32,12.12" transform="translate(-5.56 -5.99)"/><g class="cls-6"><path class="cls-3" d="M184.25,265.86a36.72,36.72,0,0,0-28.37-9.58c-6.93.7-14.49,4.41-16,11.21-.72,3.24-.47,7.53-3.53,8.8s-5.9-1.84-9-2.87c-5.12-1.72-11,4.14-9.25,9.26.79,2.33,2.76,4.36,2.6,6.81-.22,3.34-4.35,5.08-7.66,4.57s-6.23-2.45-9.47-3.28-7.45,0-8.59,3.15c-1,2.82.74,6.61-1.48,8.64a6,6,0,0,1-3.6,1.16c-28.09,2.67-59,7.71-55.89,12.7.86,1.37,3.06.93,4.67.91,59.8-.94,114.11-1.83,173.89,0" transform="translate(-5.56 -5.99)"/></g><g class="cls-6"><path class="cls-3" d="M311,325.7l132.67,1.81c1.48,0,6.16-1.43-1.9-6.62-6.83-4.41-28.41-.44-28.41-.44s5-2,5-4.62-2-4.88-4.35-6a16.28,16.28,0,0,0-7.66-1,49.13,49.13,0,0,0-15.41,3.45,4.47,4.47,0,1,0-5.18-7.25c3.31-4.49,8.43-24.38-7.31-33.15-19.74-11-34.73-2-37.93,4.67-1.62-6.49-9.07-11.41-14-12.63-11.18-2.77-18.47-1.95-28.91,2.93-3.7,1.72-8.65,7.62-11.1,10.87-3.85,5.1-4.45,11.88-4.66,18.26q-.24,7.19-.07,14.38" transform="translate(-5.56 -5.99)"/></g><path class="cls-7" d="M336.8,332.77c0,2.3-44.53,4.16-99.48,4.16s-99.48-1.86-99.48-4.16,44.54-4.15,99.48-4.15S336.8,330.48,336.8,332.77Z" transform="translate(-5.56 -5.99)"/><path class="cls-8" d="M239.22,43.22a10,10,0,0,0-10,10V66h20V53.2A10,10,0,0,0,239.22,43.22Zm0,15.71a5.6,5.6,0,1,1,5.6-5.6A5.6,5.6,0,0,1,239.22,58.93Z" transform="translate(-5.56 -5.99)"/><g class="cls-9"><path class="cls-10" d="M244.82,53.33a5.6,5.6,0,0,0-5.6-5.6,5.7,5.7,0,0,0-.84.08,4.13,4.13,0,0,1,2.27-.54,5.6,5.6,0,0,1,5.6,5.6c0,2.81-1.43,4.33-3.59,4.88A6.14,6.14,0,0,0,244.82,53.33ZM232.28,64.72V51.92a9.74,9.74,0,0,1,4.2-8.31,10,10,0,0,0-7.25,9.59V66h20V64.72Z" transform="translate(-5.56 -5.99)"/></g><rect class="cls-3" x="137.67" y="60.67" width="188.17" height="266.06" rx="9.74"/><rect class="cls-11" x="148.58" y="71.11" width="166.36" height="245.19"/><rect class="cls-12" x="154.98" y="78.6" width="153.57" height="230.21"/><path class="cls-8" d="M297.85,71.07v10h-121v-10a7,7,0,0,1,7-7h107A7,7,0,0,1,297.85,71.07Z" transform="translate(-5.56 -5.99)"/><path class="cls-13" d="M297.85,78.57v2.5h-121v-10a7,7,0,0,1,7-7h1a10.51,10.51,0,0,0-3.31,7.28v7.24Z" transform="translate(-5.56 -5.99)"/><g class="cls-14"><line class="cls-15" x1="197.56" y1="103.07" x2="222.51" y2="103.07"/><line class="cls-15" x1="278.49" y1="111.03" x2="297.45" y2="111.03"/><line class="cls-15" x1="197.56" y1="111.03" x2="270.27" y2="111.03"/><line class="cls-15" x1="197.56" y1="118.98" x2="297.45" y2="118.98"/><line class="cls-15" x1="265.7" y1="126.93" x2="297.45" y2="126.93"/><line class="cls-15" x1="197.56" y1="126.93" x2="257.8" y2="126.93"/><line class="cls-15" x1="230.69" y1="103.07" x2="297.45" y2="103.07"/></g><g class="cls-14"><line class="cls-15" x1="197.56" y1="160.24" x2="222.51" y2="160.24"/><line class="cls-15" x1="278.49" y1="168.2" x2="297.45" y2="168.2"/><line class="cls-15" x1="197.56" y1="168.2" x2="270.27" y2="168.2"/><line class="cls-15" x1="197.56" y1="176.15" x2="297.45" y2="176.15"/><line class="cls-15" x1="265.7" y1="184.1" x2="297.45" y2="184.1"/><line class="cls-15" x1="197.56" y1="184.1" x2="257.8" y2="184.1"/><line class="cls-15" x1="230.69" y1="160.24" x2="297.45" y2="160.24"/></g><g class="cls-14"><line class="cls-15" x1="197.56" y1="215.41" x2="222.51" y2="215.41"/><line class="cls-15" x1="278.49" y1="223.37" x2="297.45" y2="223.37"/><line class="cls-15" x1="197.56" y1="223.37" x2="270.27" y2="223.37"/><line class="cls-15" x1="197.56" y1="231.32" x2="297.45" y2="231.32"/><line class="cls-15" x1="265.7" y1="239.27" x2="297.45" y2="239.27"/><line class="cls-15" x1="197.56" y1="239.27" x2="257.8" y2="239.27"/><line class="cls-15" x1="230.69" y1="215.41" x2="297.45" y2="215.41"/></g><g class="cls-14"><line class="cls-15" x1="197.56" y1="271.58" x2="222.51" y2="271.58"/><line class="cls-15" x1="278.49" y1="279.53" x2="297.45" y2="279.53"/><line class="cls-15" x1="197.56" y1="279.53" x2="270.27" y2="279.53"/><line class="cls-15" x1="197.56" y1="287.49" x2="297.45" y2="287.49"/><line class="cls-15" x1="265.7" y1="295.44" x2="297.45" y2="295.44"/><line class="cls-15" x1="197.56" y1="295.44" x2="257.8" y2="295.44"/><line class="cls-15" x1="230.69" y1="271.58" x2="297.45" y2="271.58"/></g><rect class="cls-16" x="166.27" y="100.67" width="22.87" height="22.87" rx="2.1"/><rect class="cls-16" x="166.27" y="157.66" width="22.87" height="22.87" rx="2.1"/><rect class="cls-16" x="166.27" y="214.64" width="22.87" height="22.87" rx="2.1"/><rect class="cls-16" x="166.27" y="271.63" width="22.87" height="22.87" rx="2.1"/><polyline class="cls-17" points="169.09 108.08 177.71 118.49 194.29 92.32"/><polyline class="cls-17" points="169.09 164.59 177.71 175 194.29 148.83"/><g class="cls-2"><path class="cls-3" d="M136.05,335.48c0,1.12-12.58,2-28.11,2s-28.11-.91-28.11-2,12.59-2,28.11-2S136.05,334.35,136.05,335.48Z" transform="translate(-5.56 -5.99)"/></g><path class="cls-12" d="M112.72,219.28a2.58,2.58,0,0,0,.82,1.42,3,3,0,0,0,1.67.76c1.66.17,4.22.52,6.93.88a87.11,87.11,0,0,0,11.06,1.07,10.36,10.36,0,0,0,3.52-.49l.11,0,0,0c.29-.26.3-1,.21-1.66s-.28-1.53-.3-1.72a3.36,3.36,0,0,0-2.74-3,2.18,2.18,0,0,0-.45-.09l-.31-.1c-4.07-1.3-8.67-1.61-11.64-2.11a9.71,9.71,0,0,0-4.29.22,8.67,8.67,0,0,0-2.65,1.24C113.41,216.57,112.4,217.78,112.72,219.28Z" transform="translate(-5.56 -5.99)"/><path class="cls-18" d="M132.67,221.22a2.81,2.81,0,0,0,.41.77,2.16,2.16,0,0,0,.25.27,3.81,3.81,0,0,0,3,.79h0l.37-.13.13,0c2.6-1.1,8.12-5.15,11.89-8l0,0c2.25-1.74,3.88-3,3.88-3l-.34-.52-1.33-2s-8.39,4-12.35,5.35a25,25,0,0,0-4.62,1.88,4.38,4.38,0,0,0-.42.28A4.78,4.78,0,0,0,132.67,221.22Z" transform="translate(-5.56 -5.99)"/><path class="cls-19" d="M122.14,222.34a87.11,87.11,0,0,0,11.06,1.07,10.36,10.36,0,0,0,3.52-.49l.11,0,0,0c2.6-1.1,8.12-5.15,11.89-8-.54.32-7.69,4.47-11.68,6.37a13.53,13.53,0,0,1-2.25.92,8.46,8.46,0,0,1-1.48.13h-.23a10.72,10.72,0,0,1-9-5.13,18.61,18.61,0,0,0-1.76-2.41S122.22,219.18,122.14,222.34Z" transform="translate(-5.56 -5.99)"/><path class="cls-12" d="M134.89,216.06s-.65.47-2.55,0,.1,1.87.1,1.87l3-.19.25-.78Z" transform="translate(-5.56 -5.99)"/><path class="cls-18" d="M104.53,237.93a11.48,11.48,0,0,1,.51,6.56c-1,4.35.13,4.64.13,4.64A55.52,55.52,0,0,0,116,254.39c3.51,1.1,6.51.91,6.42-3v-.06c0-.23,0-.46,0-.68-.16-8.71,1.65-9.16,2.1-18.91.46-10,.36-15.94-2.84-17.55-3.49-1.76-8.3-3-15.11-1.36-5.12,1.2-6.81,2.56-6.77,6.35a30.77,30.77,0,0,0,.55,4.66A84.66,84.66,0,0,0,104.53,237.93Z" transform="translate(-5.56 -5.99)"/><path class="cls-19" d="M104.53,237.93a11.48,11.48,0,0,1,.51,6.56c-1,4.35.13,4.64.13,4.64A55.52,55.52,0,0,0,116,254.39l4.58-.43,1.83-1.44v-1.15c0-.23,0-.46,0-.68a34,34,0,0,1-6.91-.18,28.35,28.35,0,0,1-6.78-1.7,2.64,2.64,0,0,1-1.67-2.93,38,38,0,0,0,.64-6.08,33,33,0,0,0-1.63-7.5,14.88,14.88,0,0,1-.61-5.55,50.51,50.51,0,0,0,0-6.32l-3.63-2-2,.75a30.77,30.77,0,0,0,.55,4.66A84.66,84.66,0,0,0,104.53,237.93Z" transform="translate(-5.56 -5.99)"/><path class="cls-20" d="M120.92,202.27c-.67.27-.39,2.54-.52,3.27s-.65,3.58-2.15,4-2.42.55-2.42.8,0,.63.07,1.15c0,.22,0,.44,0,.62s0,.1,0,.14a.49.49,0,0,1,0,.12,2.86,2.86,0,0,1-.13,1.06l-1,.65a.73.73,0,0,1-.51.26l-1,.08a.78.78,0,0,1-.22,0l-.58-.17c-.08-.35-.14-.62-.15-.63s-1.83-1.21-2.88-1.9a26.31,26.31,0,0,0-.23-2.65c-.07-.27-.84-1.76-1.64-3.53-.07-.15-.14-.3-.2-.45-.18-.4-.35-.81-.52-1.22a1.11,1.11,0,0,1-.07-.16,12.64,12.64,0,0,1-1-3.84c0-2.62.09-5.36,1.71-6.71s11.77-6.16,12.11,1.74c0,.05,0,.09,0,.14a37.41,37.41,0,0,0,1.76,5.31A1.25,1.25,0,0,1,120.92,202.27Z" transform="translate(-5.56 -5.99)"/><path class="cls-21" d="M115.84,213.44l-.1.49a.72.72,0,0,1-.73.58l-1.74-.07-.17,0-.58-.17c-.08-.35-.14-.62-.15-.63s-1.83-1.21-2.88-1.9a26.31,26.31,0,0,0-.23-2.65c-.07-.27-.84-1.76-1.64-3.53-.07-.15-.14-.3-.2-.45-.18-.4-.35-.81-.52-1.22a.78.78,0,0,1-.05-.34l.07-.78a.71.71,0,0,1,.63-.65c.86-.1,2.4-.27,2.48-.26a11.36,11.36,0,0,1,1,1.91c0,.08-.43,1.4-.55,1.76a1,1,0,0,0,0,.18c0,.4-.07,2,0,3.55a3,3,0,0,0,1.55,2.56l.13.07A26.11,26.11,0,0,0,115.84,213.44Z" transform="translate(-5.56 -5.99)"/><path d="M121.35,203c2.18,2-.18,6.27-.88,6.88s-5.7,2.13-8.57-.63a5.46,5.46,0,0,1-1.23-1.75,0,0,0,0,0,0,0,9.89,9.89,0,0,1-.67-3.93l-.82.2a22.14,22.14,0,0,0,.14,4.13.71.71,0,0,1-1.2.51c-1.3-1.27-3.27-4.06-3.94-9.66-1-8.61,7.6-9.2,9.54-9a11.48,11.48,0,0,0,4.43-.3c4.85-2.8,4.4,2.19,3.71,4.07-.23.64-.75,1.45-.86,1.74a16.34,16.34,0,0,0,.12,2.15,1.15,1.15,0,0,1-.52.89s-.49-1.61-.55-1.84l-.34-1.21a.36.36,0,0,0-.2-.22,4.6,4.6,0,0,0-.6-.17,22.37,22.37,0,0,0-2.55-.21,1.17,1.17,0,0,0-1.23,1.11c-.12,2.69-1.5,3.18-2.13,3.26a.38.38,0,0,0-.34.34c-.42,3.28.84,5.12,1.38,5.21s2.27-1.37,2.27-1.37S119.18,201,121.35,203Z" transform="translate(-5.56 -5.99)"/><path class="cls-20" d="M110.25,201.34s-.13-1.47-1.26-1.26c-1.34.24-2,3.37.06,4.12a.71.71,0,0,0,.94-.66A10.08,10.08,0,0,1,110.25,201.34Z" transform="translate(-5.56 -5.99)"/><path class="cls-22" d="M116.89,216.49s5.31,17.41,4.25,25.75l-2,3.56L117,241.92s1.74-16.67-1.59-25.13Z" transform="translate(-5.56 -5.99)"/><path class="cls-23" d="M117.26,215l0,.23a4.55,4.55,0,0,1-.34,1.25h0l-1.44.3-1.25-.94,1.44-1.66.22.05a3.22,3.22,0,0,1,1.38.75Z" transform="translate(-5.56 -5.99)"/><path class="cls-19" d="M109.45,211s-.36.43-1,1.46a12.8,12.8,0,0,1,1.82.88c.75.46,4.36,3,4.36,3l1.06-2.17A36.33,36.33,0,0,0,109.45,211Z" transform="translate(-5.56 -5.99)"/><path class="cls-19" d="M115.64,214.19a3,3,0,0,1,1.64,1.37,4.91,4.91,0,0,0,.1-2.9,2.75,2.75,0,0,0-1.5-1.42Z" transform="translate(-5.56 -5.99)"/><path class="cls-20" d="M121.25,329.65a6.09,6.09,0,0,1,.43,2.12c-.06.84-2.74.9-3.05.46s-.47-4.3-.47-4.3" transform="translate(-5.56 -5.99)"/><path class="cls-24" d="M117.92,333a18.21,18.21,0,0,0,.24,2.3h3.09l.16-.51a4.88,4.88,0,0,0,1.78.51h2.61c1.91,0,3-.24,3-.58.2-1.4-2.08-1.34-2.67-1.34-1.7,0-3.55-.79-4-1.66-.3-.63-.17-.79-.52-.67a.88.88,0,0,0-.53.46,1.55,1.55,0,0,1-1.61.88,1.86,1.86,0,0,1-1-.51A1.14,1.14,0,0,0,117.92,333Z" transform="translate(-5.56 -5.99)"/><path class="cls-20" d="M91.19,326.73a25.17,25.17,0,0,1-.94,3c-.37.76-2.88-.17-3-.69s1.16-4.17,1.16-4.17" transform="translate(-5.56 -5.99)"/><path class="cls-24" d="M86.3,329.48c-.32.82-.8,2.4-.8,2.4l2.34,1.4.46-.35a4.64,4.64,0,0,0,1.23,1.29,10.23,10.23,0,0,0,2.32,1c2.14.48,3.79.25,4-.05.71-1.22-2.13-1.9-2.68-2.12a3.82,3.82,0,0,1-2.36-3.12c0-.69.14-.79-.23-.81a.85.85,0,0,0-.66.23,1.6,1.6,0,0,1-1.83.22,1.91,1.91,0,0,1-.78-.86A1.14,1.14,0,0,0,86.3,329.48Z" transform="translate(-5.56 -5.99)"/><path class="cls-25" d="M102.05,266.48s-4.2-10.06,3.12-17.35c0,0,6.25,2.79,11.25,3.13a24.56,24.56,0,0,0,5.94-.14,91.72,91.72,0,0,1,1,19.37Z" transform="translate(-5.56 -5.99)"/><path class="cls-25" d="M117.79,330.62h.37a21.91,21.91,0,0,0,4.09-.28v-.76c-.14-11.5,1.25-30.31,1.52-36.26a7,7,0,0,0,0-1.14c-.46-4.35-4.95-3.78-6.84.22a15.28,15.28,0,0,0-1.07,3.08,29.16,29.16,0,0,0-.7,4.34C114.26,309.76,117,323.2,117.79,330.62Z" transform="translate(-5.56 -5.99)"/><path class="cls-25" d="M110,271.12c0,.11.05.24.08.37,1,5.23,4.22,19.39,5.76,24h0a2.79,2.79,0,0,0,2,1.45c2.26.61,5.64-.23,5.93-4.75a12.69,12.69,0,0,0,0-1.62c-.19-2.36-.36-12.4-.32-19.08a27,27,0,0,0-1-6.79c-.15-1.95-.5-4.8-1.54-5.16C115.77,257.75,108.65,263.79,110,271.12Z" transform="translate(-5.56 -5.99)"/><path class="cls-26" d="M115.13,299.83c-.87,9.93,1.89,23.37,2.66,30.79h.37s-.64-11.76-1.69-19.9a32.38,32.38,0,0,1,1.34-13.79c.21-.64.35-1,.35-1l-1.26-3.55c-1.41-4.61-1.45-15.38-1.45-15.38,3.44-7.58,3.92-17.12,3.92-17.12l-2.94.4-5.27,6.32-1.09,4.86c1,5.23,4.22,19.39,5.76,24h0A29.16,29.16,0,0,0,115.13,299.83Z" transform="translate(-5.56 -5.99)"/><path class="cls-26" d="M114.8,292a25.27,25.27,0,0,1,.33,7.87c-.55,3.89,1.87-3.42,1.87-3.42l-1.28-2.64Z" transform="translate(-5.56 -5.99)"/><path class="cls-25" d="M99.74,292.12c3.48-3.28,8.33-1.73,6.07,3.36-2.42,5.44-9.91,20.54-14,31.31l-.28.7a21.8,21.8,0,0,1-4.25-1.38c1.93-7,3.34-19,7.35-27.42A22.62,22.62,0,0,1,99.74,292.12Z" transform="translate(-5.56 -5.99)"/><path class="cls-25" d="M119.37,259.91c.68-8.09-9.41-2.72-14.25-.05-2,1.13-2.78,3.38-3.05,5.5s-2.89,23.92-3.42,27.9c-1.18,9,6.66,4.07,7.4,1.58C107.91,288.57,119,264.32,119.37,259.91Z" transform="translate(-5.56 -5.99)"/><path class="cls-25" d="M99.35,287.7a21.7,21.7,0,0,1-3.93,9.59s5.9-2.73,6.19-3.13a21.55,21.55,0,0,0,1.2-5C102.7,288.72,99.35,287.7,99.35,287.7Z" transform="translate(-5.56 -5.99)"/><polygon class="cls-27" points="173.43 161.22 166.56 185.32 81.12 277.36 80.33 278.21 72.12 286.83 56.37 272.2 65.11 263.01 66.81 261.17 150.81 170.69 173.43 161.22"/><rect class="cls-28" x="68.75" y="272.34" width="6.59" height="21.5" transform="translate(-190.04 137.36) rotate(-47.14)"/><rect class="cls-29" x="73.24" y="267.51" width="6.59" height="21.5" transform="translate(-184.94 138.87) rotate(-47.09)"/><polygon class="cls-29" points="150.81 170.69 166.56 185.32 173.43 161.22 150.81 170.69"/><polygon class="cls-27" points="165.33 164.6 171.05 169.55 173.43 161.22 165.33 164.6"/><polygon class="cls-30" points="173.43 161.22 163.32 182.31 67.75 282.77 72.12 286.83 166.56 185.32 173.43 161.22"/><path class="cls-31" d="M111.56,253.56l0,.57-.79.85a2.53,2.53,0,0,1-1.22-.76,7.72,7.72,0,0,1-.78-1.28l-.36.42s-8.93-7-12.78-13.67l1.62-1.75,1.47.58s4.3,4.33,4.58,4.73,3.32,5,3.32,5Z" transform="translate(-5.56 -5.99)"/><path class="cls-20" d="M107.51,251.74l2.81-2.34s.83,1.37,1.44,1.56a3.74,3.74,0,0,0,.74-.09,5.08,5.08,0,0,1,2.28.71c.66.3,1.53.58,1.57.84s-.43.69-.89.65a1.39,1.39,0,0,1-.23,0,.91.91,0,0,1,0,.28c-.19.58-3,4.44-5.7.25A7.9,7.9,0,0,0,107.51,251.74Z" transform="translate(-5.56 -5.99)"/><path class="cls-18" d="M106.09,224.31c-.93,2.86-1.92,7.38-3.79,11.21a2.68,2.68,0,0,1-.12.24l0,.05a3.28,3.28,0,0,1-.14.42,3.41,3.41,0,0,1-3.34,2.29l-.71,0a12.88,12.88,0,0,1-1.39,0c-.58,0-1.09-.15-1.26-.44a0,0,0,0,1,0,0,1.76,1.76,0,0,1-.07-.29.76.76,0,0,1,0-.16.86.86,0,0,1,0-.17c0-.16,0-.32,0-.48a1.93,1.93,0,0,1,0-.24,16.43,16.43,0,0,1,.19-2.34c.3-3.22,3.48-13.3,4.56-17.5a2.9,2.9,0,0,1,1-1.55,2.56,2.56,0,0,1,1.51-.6h.26c1.41,0,2.38,1.15,3,2.48a8.63,8.63,0,0,1,.83,2.79A9.88,9.88,0,0,1,106.09,224.31Z" transform="translate(-5.56 -5.99)"/><path class="cls-18" d="M110.93,250.73l-1.76,1.59h0l-.46.4s-3.57-3.1-6.35-5.72a31.63,31.63,0,0,1-6.82-8.42c-.08-.15-.16-.32-.23-.47v0a1.76,1.76,0,0,1-.07-.29.76.76,0,0,1,0-.16.86.86,0,0,1,0-.17c0-.16,0-.32,0-.48a1.93,1.93,0,0,1,0-.24,2.93,2.93,0,0,1,.65-1.88l.13-.15a2.94,2.94,0,0,1,.7-.51,2.89,2.89,0,0,1,.52-.22,5,5,0,0,1,4,.54c.11.11.23.23.34.36s.49.55.74.86A14.43,14.43,0,0,1,104.1,239C105.8,242.9,110.93,250.73,110.93,250.73Z" transform="translate(-5.56 -5.99)"/><path class="cls-20" d="M152.84,212.09s4.28-3,4.48-5.27c.21-2.52-1.56-3.73-2.73-2.34-1.83,2.19-1.34,6.14-1.34,6.14l-.41,1.47Z" transform="translate(-5.56 -5.99)"/><path class="cls-19" d="M109.17,252.32h0l-.46.4s-3.57-3.1-6.35-5.72a31.63,31.63,0,0,1-6.82-8.42c-.08-.15-.16-.32-.23-.47v0a1.76,1.76,0,0,1-.07-.29.76.76,0,0,1,0-.16.86.86,0,0,1,0-.17c0-.16,0-.32,0-.48a1.93,1.93,0,0,1,0-.24,16.43,16.43,0,0,1,.19-2.34c.3-3.22,3.48-13.3,4.56-17.5a2.9,2.9,0,0,1,1-1.55,2.56,2.56,0,0,1,1.51-.6h.26c-.67,1.08-1.62,3.26-2.69,7.63-1.42,5.83-2.42,9.35-2.82,11.61a7.89,7.89,0,0,0-.18,2.43,7.53,7.53,0,0,0,1,2.12C100.41,242.61,106.63,250.58,109.17,252.32Z" transform="translate(-5.56 -5.99)"/></g></g></svg>