<svg xmlns="http://www.w3.org/2000/svg" viewBox="0 0 657.3 488.16"><defs><style>.cls-1{fill:#fafafa;}.cls-2{fill:#e0e0e0;}.cls-3{fill:#c10000;}.cls-4,.cls-6{fill:#263238;}.cls-5{fill:#e8505b;}.cls-6{fill-rule:evenodd;}.cls-7{opacity:0.62;}.cls-8{fill:#455a64;}.cls-9{fill:none;}.cls-10{opacity:0.8;}.cls-11{fill:#fff;}.cls-12{opacity:0.3;}.cls-13{opacity:0.5;}.cls-14{fill:#a36957;}.cls-15{fill:#7c3b29;}</style></defs><title>div-port</title><g id="Dasboard"><rect class="cls-1" x="0.31" y="0.31" width="609.65" height="430.09" rx="8.69"/><path class="cls-2" d="M602.45,348.31H493.86a8.73,8.73,0,0,1-8.72-8.72V111.36a8.73,8.73,0,0,1,8.72-8.71H602.45a8.73,8.73,0,0,1,8.72,8.71V339.59A8.73,8.73,0,0,1,602.45,348.31ZM493.86,103.85a7.52,7.52,0,0,0-7.51,7.51V339.59a7.52,7.52,0,0,0,7.51,7.51H602.45a7.52,7.52,0,0,0,7.51-7.51V111.36a7.52,7.52,0,0,0-7.51-7.51Z" transform="translate(-12.99 -4.62)"/><rect class="cls-3" x="0.07" y="0.75" width="56.62" height="430" rx="9.65"/><path class="cls-1" d="M66.65,190.73H23.13a3.37,3.37,0,0,0-3.37,3.37v34.32a3.37,3.37,0,0,0,3.37,3.37H70.24a3.37,3.37,0,0,0,3.35-3.72l4.24-37.57Z" transform="translate(-12.99 -4.62)"/><path class="cls-4" d="M546.72,45.49a2.24,2.24,0,0,1,.3-.18,2.56,2.56,0,0,0,.7-.64,5.73,5.73,0,0,0,1-3.37,10.41,10.41,0,0,1,.47-2.53,3.49,3.49,0,0,1,2-2.28,3.57,3.57,0,0,1,3.34.43,5.06,5.06,0,0,1,1.58,3.22,12.5,12.5,0,0,1,.14,1.6,3.43,3.43,0,0,0,.18,1.39A5.29,5.29,0,0,0,558,45.26l.65.53h-.82c-3.35,0-6.23-.15-8.15-.22l-3-.08,3.28-.08c2-.07,4.67-.2,7.83-.21l-.18.53a5.81,5.81,0,0,1-1.85-2.38,4.12,4.12,0,0,1-.23-1.6,11,11,0,0,0-.13-1.51,4.48,4.48,0,0,0-1.34-2.83,3,3,0,0,0-2.75-.38,3,3,0,0,0-1.71,1.91,10.54,10.54,0,0,0-.52,2.41,9,9,0,0,1-.4,2.08,4.11,4.11,0,0,1-.82,1.4,2.34,2.34,0,0,1-.83.6.55.55,0,0,1-.24,0Z" transform="translate(-12.99 -4.62)"/><circle class="cls-5" cx="542.45" cy="33.48" r="2.38"/><path class="cls-6" d="M550.78,47h3.28a1.61,1.61,0,0,1-1.79,1.66A1.36,1.36,0,0,1,550.78,47Z" transform="translate(-12.99 -4.62)"/><rect class="cls-3" x="557.93" y="25.46" width="25.26" height="25.26" rx="4.51"/><path class="cls-5" d="M302,249.48c-10.82,0-15.66-8.52-20.33-16.76-3.86-6.8-7.85-13.83-14.38-13.83-7.3,0-10.88,2.74-15,5.92-4.52,3.46-9.63,7.38-19.68,7.38-11,0-15.58-10.33-20.42-21.27-3.73-8.42-7.94-18-14.28-18s-10.55,9.54-14.27,18c-4.84,10.94-9.41,21.28-20.43,21.28-10.37,0-15.49-5.5-20-10.34-4.14-4.45-7.72-8.28-14.7-8.28v-1c7.43,0,11.14,4,15.45,8.6s9.33,10,19.25,10c10.35,0,14.79-10,19.49-20.66,3.85-8.71,8.21-18.58,15.21-18.58s11.37,9.87,15.22,18.58c4.7,10.62,9.14,20.66,19.48,20.66,9.7,0,14.67-3.81,19-7.17s8-6.13,15.65-6.13c7.13,0,11.27,7.29,15.27,14.34,4.53,8,9.22,16.25,19.44,16.25s14.88-7.74,19.42-15.22c4.17-6.88,8.11-13.38,15.28-13.38,7.4,0,11.12,4.14,15.43,8.92s9.33,10.37,19.28,10.37c10.38,0,14.81-10.69,19.5-22,3.86-9.32,8.23-19.88,15.21-19.88s11.22,8.12,15.24,16c4.52,8.83,9.19,17.95,19.47,17.95,9.93,0,14.89-5.32,19.26-10s8-8.61,15.46-8.61v1c-7,0-10.56,3.84-14.7,8.28-4.52,4.84-9.64,10.34-20,10.34-10.91,0-15.73-9.41-20.38-18.51-3.88-7.58-7.89-15.41-14.33-15.41s-10.53,10.23-14.26,19.24c-4.83,11.66-9.39,22.66-20.45,22.66-10.41,0-15.53-5.69-20-10.71-4.14-4.6-7.72-8.58-14.66-8.58-6.59,0-10.38,6.26-14.4,12.89C317.6,241.49,312.76,249.48,302,249.48Z" transform="translate(-12.99 -4.62)"/><path class="cls-2" d="M129.79,263.75l.27-.31a1.1,1.1,0,0,0,.94.53c.53,0,.8-.31.8-1v-2.61h-1.58V260h2v3c0,.92-.43,1.37-1.26,1.37A1.42,1.42,0,0,1,129.79,263.75Z" transform="translate(-12.99 -4.62)"/><path class="cls-2" d="M136,262.32v2h-.42v-.51a1.21,1.21,0,0,1-1.12.54c-.73,0-1.18-.38-1.18-.94s.32-.92,1.25-.92h1v-.2c0-.55-.31-.86-.92-.86a1.64,1.64,0,0,0-1.08.39l-.2-.33a2.06,2.06,0,0,1,1.32-.44A1.16,1.16,0,0,1,136,262.32Zm-.44,1v-.53h-1c-.63,0-.83.24-.83.58s.3.61.82.61A1,1,0,0,0,135.54,263.36Z" transform="translate(-12.99 -4.62)"/><path class="cls-2" d="M140.16,262.45v1.88h-.44v-1.84a.9.9,0,0,0-1-1,1.06,1.06,0,0,0-1.14,1.17v1.7h-.44v-3.25h.42v.6a1.39,1.39,0,0,1,1.24-.62A1.24,1.24,0,0,1,140.16,262.45Z" transform="translate(-12.99 -4.62)"/><path class="cls-2" d="M176.94,260.41v1.69h2.24v.4h-2.24v1.83h-.45V260h3v.4Z" transform="translate(-12.99 -4.62)"/><path class="cls-2" d="M183,262.84H180.3a1.2,1.2,0,0,0,1.28,1.13,1.3,1.3,0,0,0,1-.42l.24.28a1.58,1.58,0,0,1-1.25.53,1.6,1.6,0,0,1-1.7-1.65,1.56,1.56,0,0,1,1.58-1.65,1.55,1.55,0,0,1,1.58,1.65S183,262.79,183,262.84Zm-2.72-.32h2.31a1.16,1.16,0,0,0-2.31,0Z" transform="translate(-12.99 -4.62)"/><path class="cls-2" d="M187.21,262.71a1.57,1.57,0,0,1-1.61,1.65,1.41,1.41,0,0,1-1.26-.67v.64h-.42v-4.58h.44v1.95a1.42,1.42,0,0,1,1.24-.64A1.57,1.57,0,0,1,187.21,262.71Zm-.44,0a1.21,1.21,0,1,0-1.2,1.26A1.19,1.19,0,0,0,186.77,262.71Z" transform="translate(-12.99 -4.62)"/><path class="cls-2" d="M229.15,260v4.32h-.44v-3.46L227,263.78h-.22l-1.7-2.89v3.44h-.43V260H225l1.88,3.2,1.86-3.2Z" transform="translate(-12.99 -4.62)"/><path class="cls-2" d="M232.92,262.32v2h-.42v-.51a1.19,1.19,0,0,1-1.11.54c-.74,0-1.19-.38-1.19-.94s.32-.92,1.25-.92h1v-.2c0-.55-.31-.86-.92-.86a1.64,1.64,0,0,0-1.08.39l-.19-.33a2,2,0,0,1,1.32-.44A1.15,1.15,0,0,1,232.92,262.32Zm-.44,1v-.53h-1c-.63,0-.84.24-.84.58s.31.61.82.61A1,1,0,0,0,232.48,263.36Z" transform="translate(-12.99 -4.62)"/><path class="cls-2" d="M235.75,261.06v.43h-.1a1.05,1.05,0,0,0-1.1,1.2v1.65h-.43v-3.25h.42v.64A1.21,1.21,0,0,1,235.75,261.06Z" transform="translate(-12.99 -4.62)"/><path class="cls-2" d="M273.34,263.18h-2.41l-.52,1.15h-.47l2-4.32h.45l2,4.32h-.48Zm-.17-.37-1-2.32-1,2.32Z" transform="translate(-12.99 -4.62)"/><path class="cls-2" d="M278.25,262.71a1.57,1.57,0,0,1-1.61,1.65,1.43,1.43,0,0,1-1.24-.64v1.81H275v-4.45h.42v.65a1.39,1.39,0,0,1,1.25-.67A1.57,1.57,0,0,1,278.25,262.71Zm-.43,0a1.21,1.21,0,1,0-2.42,0,1.21,1.21,0,1,0,2.42,0Z" transform="translate(-12.99 -4.62)"/><path class="cls-2" d="M280.79,261.06v.43h-.11a1.05,1.05,0,0,0-1.09,1.2v1.65h-.44v-3.25h.42v.64A1.24,1.24,0,0,1,280.79,261.06Z" transform="translate(-12.99 -4.62)"/><path class="cls-2" d="M325.51,260v4.32h-.44v-3.46l-1.7,2.91h-.21l-1.7-2.89v3.44H321V260h.38l1.87,3.2,1.86-3.2Z" transform="translate(-12.99 -4.62)"/><path class="cls-2" d="M329.28,262.32v2h-.42v-.51a1.21,1.21,0,0,1-1.12.54c-.73,0-1.18-.38-1.18-.94s.32-.92,1.25-.92h1v-.2c0-.55-.31-.86-.92-.86a1.64,1.64,0,0,0-1.08.39l-.2-.33a2.06,2.06,0,0,1,1.32-.44A1.16,1.16,0,0,1,329.28,262.32Zm-.44,1v-.53h-1c-.63,0-.83.24-.83.58s.3.61.82.61A1,1,0,0,0,328.84,263.36Z" transform="translate(-12.99 -4.62)"/><path class="cls-2" d="M333.14,261.08l-1.62,3.64c-.28.64-.62.84-1.08.84a1.08,1.08,0,0,1-.79-.3l.2-.32a.81.81,0,0,0,.59.24c.29,0,.49-.13.68-.54l.14-.32-1.45-3.24h.45l1.23,2.76,1.22-2.76Z" transform="translate(-12.99 -4.62)"/><path class="cls-2" d="M366.25,263.75l.27-.31a1.1,1.1,0,0,0,.94.53c.53,0,.8-.31.8-1v-2.61h-1.58V260h2v3c0,.92-.43,1.37-1.26,1.37A1.42,1.42,0,0,1,366.25,263.75Z" transform="translate(-12.99 -4.62)"/><path class="cls-2" d="M372.91,261.08v3.25h-.42v-.59a1.28,1.28,0,0,1-1.16.62A1.25,1.25,0,0,1,370,263v-1.89h.44v1.84c0,.69.35,1.05,1,1.05a1.06,1.06,0,0,0,1.11-1.18v-1.71Z" transform="translate(-12.99 -4.62)"/><path class="cls-2" d="M377.13,262.45v1.88h-.44v-1.84a.9.9,0,0,0-1-1,1.06,1.06,0,0,0-1.14,1.17v1.7h-.43v-3.25h.42v.6a1.36,1.36,0,0,1,1.23-.62A1.24,1.24,0,0,1,377.13,262.45Z" transform="translate(-12.99 -4.62)"/><path class="cls-2" d="M414.43,263.75l.27-.31a1.09,1.09,0,0,0,.93.53c.53,0,.81-.31.81-1v-2.61h-1.58V260h2v3c0,.92-.44,1.37-1.26,1.37A1.42,1.42,0,0,1,414.43,263.75Z" transform="translate(-12.99 -4.62)"/><path class="cls-2" d="M421.09,261.08v3.25h-.42v-.59a1.3,1.3,0,0,1-1.16.62,1.25,1.25,0,0,1-1.37-1.39v-1.89h.43v1.84a.92.92,0,0,0,1,1.05,1.05,1.05,0,0,0,1.1-1.18v-1.71Z" transform="translate(-12.99 -4.62)"/><path class="cls-2" d="M422.32,259.75h.44v4.58h-.44Z" transform="translate(-12.99 -4.62)"/><path class="cls-2" d="M463.84,263.18h-2.41l-.52,1.15h-.47l2-4.32h.45l2,4.32h-.48Zm-.17-.37-1-2.32-1,2.32Z" transform="translate(-12.99 -4.62)"/><path class="cls-2" d="M468.33,261.08v3.25h-.42v-.59a1.3,1.3,0,0,1-1.17.62,1.26,1.26,0,0,1-1.37-1.39v-1.89h.44v1.84a.92.92,0,0,0,1,1.05,1.06,1.06,0,0,0,1.1-1.18v-1.71Z" transform="translate(-12.99 -4.62)"/><path class="cls-2" d="M472.57,261.08v2.86a1.43,1.43,0,0,1-1.63,1.62,2.27,2.27,0,0,1-1.51-.5l.22-.33a2,2,0,0,0,1.28.44c.82,0,1.2-.38,1.2-1.18v-.41a1.48,1.48,0,0,1-1.27.63,1.58,1.58,0,1,1,0-3.15,1.47,1.47,0,0,1,1.29.65v-.63Zm-.43,1.55a1.23,1.23,0,1,0-1.23,1.19A1.16,1.16,0,0,0,472.14,262.63Z" transform="translate(-12.99 -4.62)"/><path class="cls-2" d="M107.17,261.74c0-.94.49-1.51,1.18-1.51s1.18.57,1.18,1.51-.5,1.51-1.18,1.51S107.17,262.69,107.17,261.74Zm2,0c0-.79-.36-1.23-.87-1.23s-.88.44-.88,1.23.36,1.23.88,1.23S109.22,262.53,109.22,261.74Z" transform="translate(-12.99 -4.62)"/><path class="cls-2" d="M104.48,246.22v3h-.31v-2.7h-.7v-.27Z" transform="translate(-12.99 -4.62)"/><path class="cls-2" d="M105.19,247.71c0-1,.49-1.51,1.18-1.51s1.18.56,1.18,1.51-.5,1.5-1.18,1.5S105.19,248.65,105.19,247.71Zm2,0c0-.8-.36-1.23-.87-1.23s-.88.43-.88,1.23.36,1.22.88,1.22S107.24,248.5,107.24,247.71Z" transform="translate(-12.99 -4.62)"/><path class="cls-2" d="M105.68,237.31v.27H103.6v-.21l1.23-1.21c.34-.33.4-.53.4-.73,0-.35-.24-.56-.69-.56a1,1,0,0,0-.81.33l-.22-.19a1.34,1.34,0,0,1,1-.42c.6,0,1,.31,1,.8a1.21,1.21,0,0,1-.49.93l-1,1Z" transform="translate(-12.99 -4.62)"/><path class="cls-2" d="M106.05,236.1c0-.95.49-1.51,1.18-1.51s1.18.56,1.18,1.51-.5,1.51-1.18,1.51S106.05,237,106.05,236.1Zm2,0c0-.79-.36-1.23-.87-1.23s-.88.44-.88,1.23.36,1.23.88,1.23S108.1,236.89,108.1,236.1Z" transform="translate(-12.99 -4.62)"/><path class="cls-2" d="M105.62,224.72c0,.5-.36.88-1.08.88a1.56,1.56,0,0,1-1.07-.38l.15-.24a1.35,1.35,0,0,0,.92.34c.49,0,.76-.23.76-.6s-.25-.59-.8-.59h-.21v-.22l.82-1H103.6v-.27h1.9v.21l-.84,1.06C105.3,223.91,105.62,224.25,105.62,224.72Z" transform="translate(-12.99 -4.62)"/><path class="cls-2" d="M106.05,224.09c0-.94.49-1.51,1.18-1.51s1.18.57,1.18,1.51-.5,1.51-1.18,1.51S106.05,225,106.05,224.09Zm2,0c0-.79-.36-1.23-.87-1.23s-.88.44-.88,1.23.36,1.23.88,1.23S108.1,224.88,108.1,224.09Z" transform="translate(-12.99 -4.62)"/><path class="cls-2" d="M106.18,213.19h-.6V214h-.3v-.78h-1.67V213l1.57-2h.34L104,212.92h1.29v-.69h.29v.69h.6Z" transform="translate(-12.99 -4.62)"/><path class="cls-2" d="M106.46,212.49c0-1,.49-1.51,1.18-1.51s1.19.56,1.19,1.51-.5,1.5-1.19,1.5S106.46,213.43,106.46,212.49Zm2.05,0c0-.8-.35-1.23-.87-1.23s-.87.43-.87,1.23.35,1.22.87,1.22S108.51,213.28,108.51,212.49Z" transform="translate(-12.99 -4.62)"/><path class="cls-2" d="M105.67,202c0,.5-.35.9-1.08.9a1.53,1.53,0,0,1-1.06-.38l.15-.24a1.28,1.28,0,0,0,.91.34c.5,0,.77-.25.77-.61s-.24-.61-1-.61h-.63l.15-1.49h1.62v.27h-1.35l-.1.94h.38C105.33,201.08,105.67,201.44,105.67,202Z" transform="translate(-12.99 -4.62)"/><path class="cls-2" d="M106.05,201.35c0-.94.5-1.51,1.19-1.51s1.18.57,1.18,1.51-.5,1.51-1.18,1.51S106.05,202.3,106.05,201.35Zm2.06,0c0-.79-.36-1.23-.87-1.23s-.88.44-.88,1.23.36,1.23.88,1.23S108.11,202.14,108.11,201.35Z" transform="translate(-12.99 -4.62)"/><path class="cls-2" d="M105.88,190.34a.92.92,0,0,1-1,.91c-.79,0-1.21-.54-1.21-1.48s.55-1.53,1.35-1.53a1.33,1.33,0,0,1,.71.16l-.13.24a1,1,0,0,0-.57-.14c-.64,0-1,.42-1,1.22a2.09,2.09,0,0,0,0,.24,1,1,0,0,1,.91-.51A.9.9,0,0,1,105.88,190.34Zm-.3,0c0-.39-.28-.64-.74-.64a.69.69,0,0,0-.76.65c0,.33.27.64.78.64A.65.65,0,0,0,105.58,190.35Z" transform="translate(-12.99 -4.62)"/><path class="cls-2" d="M106.24,189.75c0-.95.49-1.51,1.18-1.51s1.18.56,1.18,1.51-.5,1.5-1.18,1.5S106.24,190.69,106.24,189.75Zm2.05,0c0-.8-.35-1.23-.87-1.23s-.87.43-.87,1.23.35,1.22.87,1.22S108.29,190.54,108.29,189.75Z" transform="translate(-12.99 -4.62)"/><g class="cls-7"><rect class="cls-2" x="108.43" y="185.85" width="355.25" height="0.3"/><rect class="cls-2" x="108.43" y="197.43" width="355.25" height="0.3"/><rect class="cls-2" x="108.43" y="209.01" width="355.25" height="0.3"/><rect class="cls-2" x="108.43" y="220.59" width="355.25" height="0.3"/><rect class="cls-2" x="108.43" y="232.17" width="355.25" height="0.3"/><rect class="cls-2" x="108.43" y="243.75" width="355.25" height="0.3"/></g><path class="cls-5" d="M201.3,193a3.53,3.53,0,1,0-3.53,3.53A3.53,3.53,0,0,0,201.3,193Z" transform="translate(-12.99 -4.62)"/><path class="cls-8" d="M305.2,248.63a3.53,3.53,0,1,0-3.53,3.53A3.53,3.53,0,0,0,305.2,248.63Z" transform="translate(-12.99 -4.62)"/><path class="cls-1" d="M49.8,97.27a.42.42,0,0,1-.3-.12L41.38,89.8l-8.12,7.35a.45.45,0,1,1-.61-.67l8.42-7.62a.45.45,0,0,1,.61,0l8.42,7.62a.45.45,0,0,1,0,.64A.43.43,0,0,1,49.8,97.27Z" transform="translate(-12.99 -4.62)"/><path class="cls-1" d="M47.49,103.7H35.26a.45.45,0,0,1-.45-.45V94.74a.45.45,0,0,1,.9,0v8.06H47V94.74a.45.45,0,1,1,.9,0v8.51A.45.45,0,0,1,47.49,103.7Z" transform="translate(-12.99 -4.62)"/><path class="cls-1" d="M49,156.42H33a.45.45,0,0,1-.45-.45V145.8a2.29,2.29,0,0,1,2.29-2.28H39a2.57,2.57,0,0,1,2.38,1.58l.71,1.7h5a2.29,2.29,0,0,1,2.29,2.28V156A.46.46,0,0,1,49,156.42Zm-15.48-.9h15v-6.44a1.38,1.38,0,0,0-1.38-1.38H41.8a.46.46,0,0,1-.42-.28l-.83-2a1.67,1.67,0,0,0-1.54-1H34.87a1.38,1.38,0,0,0-1.38,1.38Z" transform="translate(-12.99 -4.62)"/><path class="cls-1" d="M36.5,343.15a1.23,1.23,0,0,1-.71-.23,1.17,1.17,0,0,1-.48-1.16l.66-4.24a.29.29,0,0,0-.08-.26l-3-3a1.2,1.2,0,0,1-.3-1.22,1.22,1.22,0,0,1,1-.82l4.24-.67a.36.36,0,0,0,.22-.16l2-3.82a1.25,1.25,0,0,1,2.15,0l2,3.82a.31.31,0,0,0,.22.16l4.23.67a1.21,1.21,0,0,1,.67,2l-3,3a.32.32,0,0,0-.09.26l.67,4.24a1.19,1.19,0,0,1-.48,1.16A1.22,1.22,0,0,1,45,343l-3.82-1.94a.26.26,0,0,0-.27,0L37,343A1.16,1.16,0,0,1,36.5,343.15Zm4.5-3a1.17,1.17,0,0,1,.55.13l3.82,1.94a.31.31,0,0,0,.32,0,.32.32,0,0,0,.12-.29l-.67-4.24a1.21,1.21,0,0,1,.34-1l3-3a.29.29,0,0,0,.07-.3.28.28,0,0,0-.24-.2l-4.23-.68a1.23,1.23,0,0,1-.89-.64l-1.95-3.82h0a.29.29,0,0,0-.27-.17.29.29,0,0,0-.26.17l-2,3.82a1.19,1.19,0,0,1-.88.64l-4.24.68a.27.27,0,0,0-.23.2.27.27,0,0,0,.07.3l3,3a1.21,1.21,0,0,1,.34,1l-.67,4.24a.3.3,0,0,0,.12.29.28.28,0,0,0,.31,0l3.83-1.94A1.16,1.16,0,0,1,41,340.14Z" transform="translate(-12.99 -4.62)"/><path class="cls-1" d="M50,279.52H32.05a.46.46,0,0,1-.45-.46V267.78a.46.46,0,0,1,.45-.46H50a.47.47,0,0,1,.46.46v11.28A.47.47,0,0,1,50,279.52Zm-17.44-.91h17V268.23h-17Z" transform="translate(-12.99 -4.62)"/><path class="cls-1" d="M41.22,276.34a.48.48,0,0,1-.3-.11l-9.17-8.11a.46.46,0,0,1,0-.64.45.45,0,0,1,.64,0l8.86,7.84,8.44-7.84a.45.45,0,1,1,.61.67l-8.73,8.11A.47.47,0,0,1,41.22,276.34Z" transform="translate(-12.99 -4.62)"/><path class="cls-1" d="M32.31,279a.44.44,0,0,1-.32-.13.45.45,0,0,1,0-.64l5.45-5.45a.45.45,0,0,1,.64.64l-5.45,5.45A.44.44,0,0,1,32.31,279Z" transform="translate(-12.99 -4.62)"/><path class="cls-1" d="M50.07,279.4a.5.5,0,0,1-.32-.13l-5.82-5.83a.45.45,0,0,1,0-.64.47.47,0,0,1,.64,0l5.82,5.82a.46.46,0,0,1,0,.65A.48.48,0,0,1,50.07,279.4Z" transform="translate(-12.99 -4.62)"/><rect class="cls-5" x="27.06" y="202.48" width="2.65" height="2.65"/><rect class="cls-5" x="32.04" y="202.48" width="2.65" height="2.65"/><rect class="cls-5" x="22.07" y="202.48" width="2.65" height="2.65"/><rect class="cls-5" x="32.04" y="206.64" width="2.65" height="2.65"/><rect class="cls-5" x="27.06" y="206.64" width="2.65" height="2.65"/><rect class="cls-5" x="22.07" y="206.64" width="2.65" height="2.65"/><path class="cls-5" d="M50.76,218.42H32a.46.46,0,0,1-.46-.45V202.53a.46.46,0,0,1,.46-.45H50.76a.46.46,0,0,1,.46.45V218A.46.46,0,0,1,50.76,218.42Zm-18.32-.9H50.31V203H32.44Z" transform="translate(-12.99 -4.62)"/><path class="cls-5" d="M37.06,204.85a.46.46,0,0,1-.45-.46v-5a.45.45,0,0,1,.45-.45.46.46,0,0,1,.46.45v5A.47.47,0,0,1,37.06,204.85Z" transform="translate(-12.99 -4.62)"/><path class="cls-5" d="M45.22,204.85a.46.46,0,0,1-.45-.46v-5a.45.45,0,0,1,.45-.45.46.46,0,0,1,.46.45v5A.47.47,0,0,1,45.22,204.85Z" transform="translate(-12.99 -4.62)"/><rect class="cls-3" x="161.31" y="364.05" width="6.02" height="20.16"/><rect class="cls-3" x="111.04" y="361.13" width="6.02" height="23.08"/><rect class="cls-3" x="123.61" y="356.32" width="6.02" height="27.89"/><rect class="cls-3" x="136.18" y="357.85" width="6.02" height="26.36"/><rect class="cls-3" x="148.74" y="348.93" width="6.02" height="35.28"/><rect class="cls-3" x="173.88" y="349.1" width="6.02" height="35.11"/><rect class="cls-3" x="186.44" y="360.64" width="6.02" height="23.58"/><rect class="cls-3" x="199.01" y="350.65" width="6.02" height="33.56"/><rect class="cls-3" x="211.58" y="343.09" width="6.02" height="41.12"/><rect class="cls-3" x="224.14" y="350.48" width="6.02" height="33.73"/><path class="cls-2" d="M255.73,413.82h-148A12.24,12.24,0,0,1,95.48,401.6V313.1a12.24,12.24,0,0,1,12.22-12.22h148A12.24,12.24,0,0,1,268,313.1v88.5A12.24,12.24,0,0,1,255.73,413.82Zm-148-111.73a11,11,0,0,0-11,11v88.5a11,11,0,0,0,11,11h148a11,11,0,0,0,11-11V313.1a11,11,0,0,0-11-11Z" transform="translate(-12.99 -4.62)"/><path class="cls-2" d="M192,330.31c0,.17-17.12.31-38.24.31s-38.24-.14-38.24-.31,17.12-.32,38.24-.32S192,330.13,192,330.31Z" transform="translate(-12.99 -4.62)"/><path class="cls-9" d="M327,347.57a20.28,20.28,0,0,0-7.47,7.47,19.89,19.89,0,0,0-2,4.92,20.62,20.62,0,0,0,0,10.58,19.89,19.89,0,0,0,2,4.92,20.3,20.3,0,0,0,3.24,4.23,20.56,20.56,0,0,0,4.23,3.24,20.59,20.59,0,0,0,10.22,2.75,19.67,19.67,0,0,0,5.28-.71,20.4,20.4,0,0,0,9.1-5.24l.05,0a20.3,20.3,0,0,0,3.24-4.23,20.73,20.73,0,0,0,2.06-4.92A20.62,20.62,0,0,0,357,360a20.79,20.79,0,0,0-5.3-9.15A20.42,20.42,0,0,0,327,347.57Z" transform="translate(-12.99 -4.62)"/><path class="cls-5" d="M347.45,382.93a19.89,19.89,0,0,1-4.92,2A20.06,20.06,0,0,1,332,385a19.89,19.89,0,0,1-4.92-2,20.56,20.56,0,0,1-4.23-3.24,20.3,20.3,0,0,1-3.24-4.23,19.89,19.89,0,0,1-2-4.92,20.62,20.62,0,0,1,0-10.58,19.89,19.89,0,0,1,2-4.92,20.28,20.28,0,0,1,7.47-7.47,19.89,19.89,0,0,1,4.92-2,20.11,20.11,0,0,1,5.3-.7v-4A24.37,24.37,0,0,0,320,348a24.27,24.27,0,0,0-3.88,5.07,23.87,23.87,0,0,0-2.45,5.89,24.55,24.55,0,0,0,0,12.66,23.94,23.94,0,0,0,2.45,5.9,24.27,24.27,0,0,0,3.88,5.07,24.78,24.78,0,0,0,5.06,3.87,23.79,23.79,0,0,0,5.91,2.45,24.55,24.55,0,0,0,12.66,0,23.65,23.65,0,0,0,5.89-2.45,24,24,0,0,0,5-3.84l-2.85-2.85A19.74,19.74,0,0,1,347.45,382.93Z" transform="translate(-12.99 -4.62)"/><path class="cls-2" d="M360.86,358.92a24.24,24.24,0,0,0-2.44-5.89,24.67,24.67,0,0,0-3.89-5.07,24.34,24.34,0,0,0-5.06-3.89,24.39,24.39,0,0,0-12.22-3.27v4a20.48,20.48,0,0,1,14.43,6A20.79,20.79,0,0,1,357,360a20.62,20.62,0,0,1,0,10.58,20.73,20.73,0,0,1-2.06,4.92,20.3,20.3,0,0,1-3.24,4.23l-.05,0,2.85,2.85a.09.09,0,0,0,0,0,24.67,24.67,0,0,0,3.89-5.07,24.52,24.52,0,0,0,2.44-18.56Z" transform="translate(-12.99 -4.62)"/><path class="cls-4" d="M333.32,367.84a2.2,2.2,0,0,1-2.41,2.17c-1.87,0-2.89-1.3-2.89-3.53,0-2.39,1.31-3.64,3.23-3.64a3.25,3.25,0,0,1,1.67.38l-.29.58a2.49,2.49,0,0,0-1.37-.33c-1.52,0-2.5,1-2.5,2.89,0,.16,0,.37,0,.58a2.25,2.25,0,0,1,2.16-1.21A2.13,2.13,0,0,1,333.32,367.84Zm-.71,0c0-.92-.69-1.52-1.78-1.52a1.64,1.64,0,0,0-1.81,1.55c0,.77.65,1.51,1.87,1.51A1.55,1.55,0,0,0,332.61,367.86Z" transform="translate(-12.99 -4.62)"/><path class="cls-4" d="M339,367.87c0,1.2-.84,2.14-2.56,2.14a3.62,3.62,0,0,1-2.53-.91l.35-.57a3.09,3.09,0,0,0,2.17.82c1.2,0,1.83-.59,1.83-1.44s-.56-1.48-2.35-1.48h-1.51l.37-3.53h3.86v.64h-3.23l-.24,2.25H336C338.14,365.79,339,366.63,339,367.87Z" transform="translate(-12.99 -4.62)"/><path class="cls-4" d="M339.67,364.76c0-1.15.64-1.91,1.59-1.91s1.59.75,1.59,1.91-.65,1.92-1.59,1.92S339.67,365.91,339.67,364.76Zm2.68,0c0-.92-.44-1.46-1.09-1.46s-1.09.55-1.09,1.46.42,1.46,1.09,1.46S342.35,365.68,342.35,364.76Zm3.18-1.86h.6L341.31,370h-.59ZM344,368.09c0-1.15.66-1.92,1.59-1.92s1.59.77,1.59,1.92-.64,1.91-1.59,1.91A1.69,1.69,0,0,1,344,368.09Zm2.68,0c0-.91-.42-1.46-1.09-1.46s-1.09.54-1.09,1.46.44,1.46,1.09,1.46S346.67,369,346.67,368.09Z" transform="translate(-12.99 -4.62)"/><path class="cls-2" d="M432.11,365.26a24.77,24.77,0,0,1-.83,6.32,24.1,24.1,0,0,1-2.45,5.89,24.22,24.22,0,0,1-8.95,8.95,23.87,23.87,0,0,1-5.89,2.45,24.55,24.55,0,0,1-12.66,0,23.87,23.87,0,0,1-5.89-2.45,24.54,24.54,0,0,1-5.07-3.88,24.27,24.27,0,0,1-3.88-5.07,23.71,23.71,0,0,1-2.45-5.89,25.16,25.16,0,0,1-.78-4.63h4.06a20,20,0,0,0,2.65,8.51,20.66,20.66,0,0,0,3.26,4.23,20.9,20.9,0,0,0,4.22,3.25,20.41,20.41,0,0,0,20.42,0,20.9,20.9,0,0,0,4.22-3.25,20.66,20.66,0,0,0,3.26-4.23,20.3,20.3,0,0,0,2.73-10.2,20.39,20.39,0,0,0-20.43-20.43v-4a24.93,24.93,0,0,1,6.34.83,24.26,24.26,0,0,1,5.89,2.45,24.22,24.22,0,0,1,8.95,8.95,24.26,24.26,0,0,1,2.45,5.89A24.93,24.93,0,0,1,432.11,365.26Z" transform="translate(-12.99 -4.62)"/><path class="cls-4" d="M402.14,362.5V363l-2.95,6.54h-.79l2.91-6.41h-3.63v1.32H397v-2Z" transform="translate(-12.99 -4.62)"/><path class="cls-4" d="M407.7,367.47c0,1.2-.84,2.14-2.56,2.14a3.61,3.61,0,0,1-2.53-.91l.35-.57a3.07,3.07,0,0,0,2.17.81c1.2,0,1.83-.58,1.83-1.44S406.4,366,404.6,366h-1.5l.37-3.53h3.85v.64H404.1l-.24,2.25h.9C406.89,365.39,407.7,366.22,407.7,367.47Z" transform="translate(-12.99 -4.62)"/><path class="cls-4" d="M408.42,364.36c0-1.15.64-1.92,1.59-1.92s1.59.76,1.59,1.92-.65,1.91-1.59,1.91S408.42,365.51,408.42,364.36Zm2.68,0c0-.92-.44-1.46-1.09-1.46s-1.09.55-1.09,1.46.42,1.46,1.09,1.46S411.1,365.28,411.1,364.36Zm3.18-1.86h.6l-4.82,7.05h-.6Zm-1.54,5.19c0-1.15.65-1.92,1.59-1.92s1.59.77,1.59,1.92-.64,1.91-1.59,1.91S412.74,368.83,412.74,367.69Zm2.68,0c0-.91-.42-1.47-1.09-1.47s-1.09.55-1.09,1.47.44,1.46,1.09,1.46S415.42,368.59,415.42,367.69Z" transform="translate(-12.99 -4.62)"/><path class="cls-5" d="M428.08,365.26a20.3,20.3,0,0,1-2.73,10.2,20.66,20.66,0,0,1-3.26,4.23,20.9,20.9,0,0,1-4.22,3.25,20.41,20.41,0,0,1-20.42,0,20.9,20.9,0,0,1-4.22-3.25,20.66,20.66,0,0,1-3.26-4.23,20,20,0,0,1-2.65-8.51h0c-.05-.56-.08-1.12-.08-1.7a20.38,20.38,0,0,1,10.21-17.68,19.89,19.89,0,0,1,4.92-2,20.09,20.09,0,0,1,5.29-.7v-4a24.43,24.43,0,0,0-24.45,24.45c0,.57,0,1.14.06,1.7h0a25.16,25.16,0,0,0,.78,4.63,23.71,23.71,0,0,0,2.45,5.89,24.27,24.27,0,0,0,3.88,5.07,24.54,24.54,0,0,0,5.07,3.88,23.87,23.87,0,0,0,5.89,2.45,24.55,24.55,0,0,0,12.66,0,23.87,23.87,0,0,0,5.89-2.45,24.22,24.22,0,0,0,8.95-8.95,24.1,24.1,0,0,0,2.45-5.89,24.77,24.77,0,0,0,.83-6.32Z" transform="translate(-12.99 -4.62)"/><path class="cls-2" d="M451.37,412.27H293.53a10.63,10.63,0,0,1-10.62-10.62v-88.6a10.64,10.64,0,0,1,10.62-10.62H451.37A10.64,10.64,0,0,1,462,313.05v88.6A10.63,10.63,0,0,1,451.37,412.27ZM293.53,303.64a9.42,9.42,0,0,0-9.41,9.41v88.6a9.43,9.43,0,0,0,9.41,9.42H451.37a9.43,9.43,0,0,0,9.41-9.42v-88.6a9.42,9.42,0,0,0-9.41-9.41Z" transform="translate(-12.99 -4.62)"/><path class="cls-2" d="M374.11,327.32c0,.18-16.51.32-36.86.32s-36.86-.14-36.86-.32,16.5-.31,36.86-.31S374.11,327.15,374.11,327.32Z" transform="translate(-12.99 -4.62)"/><path class="cls-2" d="M504.53,206.43h0a2.51,2.51,0,0,1-2.52-2.51V156.77a2.52,2.52,0,0,1,2.52-2.52h0a2.52,2.52,0,0,1,2.51,2.52v47.15A2.51,2.51,0,0,1,504.53,206.43Z" transform="translate(-12.99 -4.62)"/><path class="cls-5" d="M504.53,206.66h0a2.52,2.52,0,0,1-2.52-2.52v-30.4a2.52,2.52,0,0,1,2.52-2.51h0a2.52,2.52,0,0,1,2.51,2.51v30.4A2.52,2.52,0,0,1,504.53,206.66Z" transform="translate(-12.99 -4.62)"/><path class="cls-4" d="M503,208.62v4.2h-.44V209h-1v-.39Z" transform="translate(-12.99 -4.62)"/><path class="cls-4" d="M503.94,210.72c0-1.34.7-2.13,1.67-2.13s1.68.79,1.68,2.13-.71,2.13-1.68,2.13S503.94,212.06,503.94,210.72Zm2.91,0c0-1.12-.51-1.74-1.24-1.74s-1.23.62-1.23,1.74.5,1.74,1.23,1.74S506.85,211.84,506.85,210.72Z" transform="translate(-12.99 -4.62)"/><path class="cls-2" d="M514.57,206.43h0a2.51,2.51,0,0,1-2.51-2.51V156.77a2.52,2.52,0,0,1,2.51-2.52h0a2.52,2.52,0,0,1,2.52,2.52v47.15A2.51,2.51,0,0,1,514.57,206.43Z" transform="translate(-12.99 -4.62)"/><path class="cls-5" d="M514.57,206.66h0a2.52,2.52,0,0,1-2.51-2.52v-40a2.52,2.52,0,0,1,2.51-2.52h0a2.52,2.52,0,0,1,2.52,2.52v40A2.52,2.52,0,0,1,514.57,206.66Z" transform="translate(-12.99 -4.62)"/><path class="cls-4" d="M514,212.43v.39h-3v-.31l1.75-1.71c.47-.46.56-.74.56-1,0-.49-.34-.79-1-.79a1.44,1.44,0,0,0-1.15.47l-.3-.26a1.85,1.85,0,0,1,1.48-.6c.85,0,1.39.43,1.39,1.13a1.7,1.7,0,0,1-.69,1.31l-1.42,1.4Z" transform="translate(-12.99 -4.62)"/><path class="cls-4" d="M514.49,210.72c0-1.34.7-2.13,1.67-2.13s1.67.79,1.67,2.13-.7,2.13-1.67,2.13S514.49,212.06,514.49,210.72Zm2.9,0c0-1.12-.5-1.74-1.23-1.74s-1.24.62-1.24,1.74.51,1.74,1.24,1.74S517.39,211.84,517.39,210.72Z" transform="translate(-12.99 -4.62)"/><path class="cls-2" d="M524.62,206.43h0a2.51,2.51,0,0,1-2.51-2.51V156.77a2.51,2.51,0,0,1,2.51-2.52h0a2.52,2.52,0,0,1,2.52,2.52v47.15A2.51,2.51,0,0,1,524.62,206.43Z" transform="translate(-12.99 -4.62)"/><path class="cls-5" d="M524.62,206.66h0a2.51,2.51,0,0,1-2.51-2.52V180.92a2.51,2.51,0,0,1,2.51-2.51h0a2.52,2.52,0,0,1,2.52,2.51v23.22A2.52,2.52,0,0,1,524.62,206.66Z" transform="translate(-12.99 -4.62)"/><path class="cls-4" d="M524,211.61c0,.7-.51,1.24-1.52,1.24a2.16,2.16,0,0,1-1.51-.54l.21-.34a1.84,1.84,0,0,0,1.3.49c.69,0,1.08-.33,1.08-.85s-.36-.83-1.14-.83h-.3v-.32l1.17-1.45h-2.15v-.39h2.7v.31l-1.19,1.49C523.52,210.47,524,210.94,524,211.61Z" transform="translate(-12.99 -4.62)"/><path class="cls-4" d="M524.57,210.72c0-1.34.7-2.13,1.67-2.13s1.68.79,1.68,2.13-.71,2.13-1.68,2.13S524.57,212.06,524.57,210.72Zm2.91,0c0-1.12-.51-1.74-1.24-1.74s-1.23.62-1.23,1.74.5,1.74,1.23,1.74S527.48,211.84,527.48,210.72Z" transform="translate(-12.99 -4.62)"/><path class="cls-2" d="M534.67,206.43h0a2.51,2.51,0,0,1-2.51-2.51V156.77a2.51,2.51,0,0,1,2.51-2.52h0a2.51,2.51,0,0,1,2.51,2.52v47.15A2.51,2.51,0,0,1,534.67,206.43Z" transform="translate(-12.99 -4.62)"/><path class="cls-5" d="M534.67,206.66h0a2.51,2.51,0,0,1-2.51-2.52v-40a2.51,2.51,0,0,1,2.51-2.52h0a2.51,2.51,0,0,1,2.51,2.52v40A2.51,2.51,0,0,1,534.67,206.66Z" transform="translate(-12.99 -4.62)"/><path class="cls-4" d="M534.69,211.71h-.84v1.11h-.43v-1.11h-2.36v-.31l2.22-2.78h.48l-2.15,2.71h1.82v-1h.42v1h.84Z" transform="translate(-12.99 -4.62)"/><path class="cls-4" d="M535.08,210.72c0-1.34.7-2.13,1.67-2.13s1.68.79,1.68,2.13-.71,2.13-1.68,2.13S535.08,212.06,535.08,210.72Zm2.91,0c0-1.12-.51-1.74-1.24-1.74s-1.23.62-1.23,1.74.5,1.74,1.23,1.74S538,211.84,538,210.72Z" transform="translate(-12.99 -4.62)"/><path class="cls-2" d="M544.72,206.43h0a2.51,2.51,0,0,1-2.52-2.51V156.77a2.52,2.52,0,0,1,2.52-2.52h0a2.51,2.51,0,0,1,2.51,2.52v47.15A2.51,2.51,0,0,1,544.72,206.43Z" transform="translate(-12.99 -4.62)"/><path class="cls-5" d="M544.72,206.66h0a2.52,2.52,0,0,1-2.52-2.52V171.83a2.52,2.52,0,0,1,2.52-2.52h0a2.51,2.51,0,0,1,2.51,2.52v32.31A2.51,2.51,0,0,1,544.72,206.66Z" transform="translate(-12.99 -4.62)"/><path class="cls-4" d="M544.49,211.58c0,.72-.49,1.27-1.52,1.27a2.16,2.16,0,0,1-1.5-.54l.21-.34a1.83,1.83,0,0,0,1.29.49c.71,0,1.09-.35,1.09-.86s-.34-.87-1.4-.87h-.9l.22-2.11h2.29V209h-1.91l-.15,1.33h.54C544,210.34,544.49,210.84,544.49,211.58Z" transform="translate(-12.99 -4.62)"/><path class="cls-4" d="M545,210.72c0-1.34.7-2.13,1.67-2.13s1.67.79,1.67,2.13-.7,2.13-1.67,2.13S545,212.06,545,210.72Zm2.9,0c0-1.12-.5-1.74-1.23-1.74s-1.24.62-1.24,1.74.51,1.74,1.24,1.74S547.94,211.84,547.94,210.72Z" transform="translate(-12.99 -4.62)"/><path class="cls-2" d="M554.76,206.43h0a2.51,2.51,0,0,1-2.51-2.51V156.77a2.52,2.52,0,0,1,2.51-2.52h0a2.52,2.52,0,0,1,2.52,2.52v47.15A2.51,2.51,0,0,1,554.76,206.43Z" transform="translate(-12.99 -4.62)"/><path class="cls-5" d="M554.76,206.43h0a2.48,2.48,0,0,1-2.51-2.29V180.92a2.57,2.57,0,0,1,2.51-2.73h0a2.51,2.51,0,0,1,2.52,2.51v23.22A2.51,2.51,0,0,1,554.76,206.43Z" transform="translate(-12.99 -4.62)"/><path class="cls-4" d="M554.44,211.57a1.31,1.31,0,0,1-1.44,1.28c-1.11,0-1.71-.77-1.71-2.09s.77-2.17,1.91-2.17a1.88,1.88,0,0,1,1,.23l-.18.34a1.47,1.47,0,0,0-.81-.19c-.91,0-1.49.58-1.49,1.71,0,.1,0,.22,0,.35a1.32,1.32,0,0,1,1.28-.72A1.28,1.28,0,0,1,554.44,211.57Zm-.43,0a.93.93,0,0,0-1-.91,1,1,0,0,0-1.08.92c0,.46.38.9,1.11.9A.92.92,0,0,0,554,211.58Z" transform="translate(-12.99 -4.62)"/><path class="cls-4" d="M554.93,210.72c0-1.34.7-2.13,1.67-2.13s1.68.79,1.68,2.13-.71,2.13-1.68,2.13S554.93,212.06,554.93,210.72Zm2.9,0c0-1.12-.5-1.74-1.23-1.74s-1.23.62-1.23,1.74.5,1.74,1.23,1.74S557.83,211.84,557.83,210.72Z" transform="translate(-12.99 -4.62)"/><path class="cls-2" d="M564.81,206.43h0a2.51,2.51,0,0,1-2.51-2.51V156.77a2.51,2.51,0,0,1,2.51-2.52h0a2.52,2.52,0,0,1,2.52,2.52v47.15A2.51,2.51,0,0,1,564.81,206.43Z" transform="translate(-12.99 -4.62)"/><path class="cls-5" d="M564.81,206.66h0a2.51,2.51,0,0,1-2.51-2.52V161.77a2.51,2.51,0,0,1,2.51-2.51h0a2.52,2.52,0,0,1,2.52,2.51v42.37A2.52,2.52,0,0,1,564.81,206.66Z" transform="translate(-12.99 -4.62)"/><path class="cls-4" d="M564.28,208.62v.31l-1.76,3.89h-.47l1.73-3.81h-2.16v.78h-.42v-1.17Z" transform="translate(-12.99 -4.62)"/><path class="cls-4" d="M564.72,210.72c0-1.34.7-2.13,1.67-2.13s1.68.79,1.68,2.13-.71,2.13-1.68,2.13S564.72,212.06,564.72,210.72Zm2.91,0c0-1.12-.51-1.74-1.24-1.74s-1.23.62-1.23,1.74.5,1.74,1.23,1.74S567.63,211.84,567.63,210.72Z" transform="translate(-12.99 -4.62)"/><path class="cls-2" d="M574.86,206.43h0a2.51,2.51,0,0,1-2.51-2.51V156.77a2.51,2.51,0,0,1,2.51-2.52h0a2.51,2.51,0,0,1,2.51,2.52v47.15A2.51,2.51,0,0,1,574.86,206.43Z" transform="translate(-12.99 -4.62)"/><path class="cls-5" d="M574.86,206.66h0a2.51,2.51,0,0,1-2.51-2.52V185.71a2.51,2.51,0,0,1,2.51-2.51h0a2.51,2.51,0,0,1,2.51,2.51v18.43A2.51,2.51,0,0,1,574.86,206.66Z" transform="translate(-12.99 -4.62)"/><path class="cls-4" d="M574.36,211.65c0,.74-.63,1.2-1.63,1.2s-1.62-.46-1.62-1.2a1,1,0,0,1,.81-1,1,1,0,0,1-.66-.92c0-.69.59-1.11,1.47-1.11s1.48.42,1.48,1.11a1,1,0,0,1-.67.92A1,1,0,0,1,574.36,211.65Zm-.44,0c0-.51-.45-.84-1.19-.84s-1.18.33-1.18.84.44.85,1.18.85S573.92,212.16,573.92,211.64Zm-1.19-1.18c.65,0,1-.29,1-.75s-.41-.76-1-.76-1,.29-1,.76S572.08,210.46,572.73,210.46Z" transform="translate(-12.99 -4.62)"/><path class="cls-4" d="M575,210.72c0-1.34.7-2.13,1.67-2.13s1.67.79,1.67,2.13-.7,2.13-1.67,2.13S575,212.06,575,210.72Zm2.9,0c0-1.12-.5-1.74-1.23-1.74s-1.24.62-1.24,1.74.51,1.74,1.24,1.74S577.86,211.84,577.86,210.72Z" transform="translate(-12.99 -4.62)"/><path class="cls-2" d="M584.91,206.43h0a2.51,2.51,0,0,1-2.52-2.51V156.77a2.52,2.52,0,0,1,2.52-2.52h0a2.51,2.51,0,0,1,2.51,2.52v47.15A2.51,2.51,0,0,1,584.91,206.43Z" transform="translate(-12.99 -4.62)"/><path class="cls-5" d="M584.91,206.43h0a2.48,2.48,0,0,1-2.52-2.29v-6.46a2.58,2.58,0,0,1,2.52-2.74h0a2.51,2.51,0,0,1,2.51,2.52v6.46A2.51,2.51,0,0,1,584.91,206.43Z" transform="translate(-12.99 -4.62)"/><path class="cls-4" d="M584.15,210.68c0,1.43-.78,2.17-1.92,2.17a1.84,1.84,0,0,1-1-.23l.17-.34a1.53,1.53,0,0,0,.82.19c.9,0,1.48-.58,1.48-1.71,0-.1,0-.22,0-.34a1.34,1.34,0,0,1-1.29.71,1.27,1.27,0,0,1-1.41-1.25,1.31,1.31,0,0,1,1.43-1.29C583.55,208.59,584.15,209.36,584.15,210.68Zm-.59-.83c0-.46-.38-.9-1.11-.9a.92.92,0,0,0-1,.91c0,.56.4.91,1.05.91A1,1,0,0,0,583.56,209.85Z" transform="translate(-12.99 -4.62)"/><path class="cls-4" d="M584.77,210.72c0-1.34.7-2.13,1.67-2.13s1.68.79,1.68,2.13-.71,2.13-1.68,2.13S584.77,212.06,584.77,210.72Zm2.91,0c0-1.12-.51-1.74-1.24-1.74s-1.23.62-1.23,1.74.5,1.74,1.23,1.74S587.68,211.84,587.68,210.72Z" transform="translate(-12.99 -4.62)"/><path class="cls-2" d="M595,206.43h0a2.51,2.51,0,0,1-2.52-2.51V156.77a2.52,2.52,0,0,1,2.52-2.52h0a2.52,2.52,0,0,1,2.51,2.52v47.15A2.51,2.51,0,0,1,595,206.43Z" transform="translate(-12.99 -4.62)"/><path class="cls-5" d="M595,206.43h0a2.48,2.48,0,0,1-2.52-2.29V180.92a2.57,2.57,0,0,1,2.52-2.73h0a2.51,2.51,0,0,1,2.51,2.51v23.22A2.51,2.51,0,0,1,595,206.43Z" transform="translate(-12.99 -4.62)"/><path class="cls-4" d="M591.35,208.62v4.2h-.43V209h-1v-.39Z" transform="translate(-12.99 -4.62)"/><path class="cls-4" d="M592.35,210.72c0-1.34.7-2.13,1.67-2.13s1.68.79,1.68,2.13-.71,2.13-1.68,2.13S592.35,212.06,592.35,210.72Zm2.91,0c0-1.12-.51-1.74-1.24-1.74s-1.23.62-1.23,1.74.5,1.74,1.23,1.74S595.26,211.84,595.26,210.72Z" transform="translate(-12.99 -4.62)"/><path class="cls-4" d="M596.31,210.72c0-1.34.7-2.13,1.67-2.13s1.68.79,1.68,2.13-.71,2.13-1.68,2.13S596.31,212.06,596.31,210.72Zm2.91,0c0-1.12-.5-1.74-1.24-1.74s-1.23.62-1.23,1.74.5,1.74,1.23,1.74S599.22,211.84,599.22,210.72Z" transform="translate(-12.99 -4.62)"/><path class="cls-2" d="M574.75,130.68c0,.18-16.36.32-36.53.32s-36.54-.14-36.54-.32,16.36-.31,36.54-.31S574.75,130.51,574.75,130.68Z" transform="translate(-12.99 -4.62)"/><path class="cls-2" d="M597.47,241c0,.18-21.45.32-47.89.32s-47.9-.14-47.9-.32,21.44-.31,47.9-.31S597.47,240.83,597.47,241Z" transform="translate(-12.99 -4.62)"/><path class="cls-2" d="M597.47,257.46c0,.17-21.45.31-47.89.31s-47.9-.14-47.9-.31,21.44-.31,47.9-.31S597.47,257.29,597.47,257.46Z" transform="translate(-12.99 -4.62)"/><path class="cls-2" d="M597.47,273.92c0,.17-21.45.31-47.89.31s-47.9-.14-47.9-.31,21.44-.32,47.9-.32S597.47,273.74,597.47,273.92Z" transform="translate(-12.99 -4.62)"/><path class="cls-2" d="M597.47,290.37c0,.18-21.45.32-47.89.32s-47.9-.14-47.9-.32,21.44-.31,47.9-.31S597.47,290.2,597.47,290.37Z" transform="translate(-12.99 -4.62)"/><path class="cls-2" d="M597.47,306.83c0,.17-21.45.31-47.89.31s-47.9-.14-47.9-.31,21.44-.31,47.9-.31S597.47,306.66,597.47,306.83Z" transform="translate(-12.99 -4.62)"/><path class="cls-5" d="M593.67,362.83A16.15,16.15,0,0,1,609.8,379V392.4a16.15,16.15,0,0,1-16.13,16.13H503.53A16.15,16.15,0,0,1,487.4,392.4V379a16.15,16.15,0,0,1,16.13-16.13h90.14m0-1.2H503.53A17.33,17.33,0,0,0,486.19,379V392.4a17.33,17.33,0,0,0,17.34,17.33h90.14A17.33,17.33,0,0,0,611,392.4V379a17.33,17.33,0,0,0-17.34-17.33Z" transform="translate(-12.99 -4.62)"/><path class="cls-5" d="M586.11,387c0,.18-16.79.32-37.51.32s-37.51-.14-37.51-.32,16.79-.31,37.51-.31S586.11,386.86,586.11,387Z" transform="translate(-12.99 -4.62)"/><path class="cls-5" d="M233.63,58.4c9.3-7.29,17.51-16.25,28.18-21.32,18.34-8.72,40-4.3,59.57,1.1s40.26,11.65,59.8,6.1c18.1-5.14,32.52-21.06,36.54-39.35H81.65c4.47,37.16,32.49,67.8,69.72,74.23.77.14,1.55.26,2.33.38A106,106,0,0,0,233.63,58.4Z" transform="translate(-12.99 -4.62)"/><path class="cls-5" d="M461.7,39.4C471.16,48,485,50.32,497.65,48.85c8.55-1,17.23-3.71,23.4-9.7,7-6.78,9.87-17.32,8-26.88a32.05,32.05,0,0,0-2.41-7.34h-70C448.91,15.06,452.25,30.82,461.7,39.4Z" transform="translate(-12.99 -4.62)"/><g class="cls-10"><path class="cls-11" d="M233.63,58.4c9.3-7.29,17.51-16.25,28.18-21.32,18.34-8.72,40-4.3,59.57,1.1s40.26,11.65,59.8,6.1c18.1-5.14,32.52-21.06,36.54-39.35H81.65c4.47,37.16,32.49,67.8,69.72,74.23.77.14,1.55.26,2.33.38A106,106,0,0,0,233.63,58.4Z" transform="translate(-12.99 -4.62)"/><path class="cls-11" d="M461.7,39.4C471.16,48,485,50.32,497.65,48.85c8.55-1,17.23-3.71,23.4-9.7,7-6.78,9.87-17.32,8-26.88a32.05,32.05,0,0,0-2.41-7.34h-70C448.91,15.06,452.25,30.82,461.7,39.4Z" transform="translate(-12.99 -4.62)"/></g><path class="cls-9" d="M531.53,37.86a5.36,5.36,0,0,1,1.25.33l.92-.77,1.57,1.2-.49,1.09a5,5,0,0,1,.65,1.12l1.19.1.27,2-1.12.42a5.36,5.36,0,0,1-.33,1.25l.76.91L535,47.06l-1.09-.5a4.59,4.59,0,0,1-1.11.66l-.11,1.19-2,.26-.42-1.12a4.44,4.44,0,0,1-1.25-.33l-.92.77-1.58-1.2.5-1.09a5.13,5.13,0,0,1-.65-1.11l-1.19-.11-.27-2,1.12-.42a5.11,5.11,0,0,1,.33-1.25l-.77-.92,1.2-1.58,1.09.5A5.2,5.2,0,0,1,529,38.2l.11-1.19,2-.27.42,1.12Zm-.59,2.71a2.13,2.13,0,1,0,2.14,1.63A2.13,2.13,0,0,0,530.94,40.57Z" transform="translate(-12.99 -4.62)"/><path class="cls-4" d="M530.94,40.57s.19-.11.55-.07a2.15,2.15,0,0,1,1.34.71,2.35,2.35,0,0,1,.47,2.24,2.4,2.4,0,0,1-4.53.14,2.34,2.34,0,0,1,.33-2.26,2.11,2.11,0,0,1,1.29-.8c.36-.05.55,0,.55,0s-.85.08-1.48,1a2,2,0,0,0-.16,1.79,1.89,1.89,0,0,0,1.77,1.13,1.86,1.86,0,0,0,1.68-1.25,1.9,1.9,0,0,0-.27-1.76A3,3,0,0,0,530.94,40.57Z" transform="translate(-12.99 -4.62)"/><path class="cls-4" d="M531.53,37.86a4.89,4.89,0,0,1-.51-1.09l.1.07-2,.32.13-.14c0,.37,0,.77-.08,1.19v.11l-.11,0a4.91,4.91,0,0,0-1.06.64l-.09.08-.12-.05-1.1-.48.27-.07-1.18,1.59v-.31c.25.28.51.59.78.91l.1.12-.06.15a4.75,4.75,0,0,0-.3,1.18l0,.16-.15.06-1.12.43.18-.3c.09.62.18,1.28.28,2l-.27-.25,1.2.1h.18l.07.17a4.53,4.53,0,0,0,.61,1.05l.11.14-.07.17c-.16.34-.32.71-.5,1.09l-.09-.37,1.58,1.19h-.39l.92-.77.14-.12.18.07a4.48,4.48,0,0,0,1.17.31h0l.25.2h0v0l0,.07.05.14.1.29.21.55-.33-.2,2-.26-.27.28c0-.4.07-.8.11-1.19l0-.19.17-.07a4.57,4.57,0,0,0,1.05-.61l.14-.11.17.08,1.09.5-.36.09,1.2-1.57v.36l-.76-.92-.11-.14.06-.15a4.52,4.52,0,0,0,.33-1.18l0-.16.15-.06,1.13-.41-.17.28c-.09-.69-.17-1.34-.25-2l.22.2-1.19-.12h-.14l0-.13a4.45,4.45,0,0,0-.61-1.07l-.07-.1.05-.11.51-1.09.06.23-1.55-1.24h.18l-.95.74-.05,0,0,0c-.79-.34-1.22-.37-1.21-.42a.69.69,0,0,1,.33,0,4.22,4.22,0,0,1,1,.24h-.11l.9-.8.08-.07.09.07,1.61,1.16.11.09-.06.14c-.15.34-.3.7-.48,1.1l0-.21a5.58,5.58,0,0,1,.7,1.15l-.19-.14,1.19.09.19,0,0,.19c.09.62.19,1.28.29,2l0,.21-.2.07-1.12.43.18-.22a5.7,5.7,0,0,1-.34,1.32l-.05-.28c.26.29.51.6.78.91l.15.17-.15.19c-.38.52-.78,1-1.19,1.58l-.14.19-.22-.1-1.09-.49.31,0a5.18,5.18,0,0,1-1.18.7l.19-.26c0,.4-.07.79-.11,1.2l0,.24-.25,0-2,.27-.25,0-.09-.24-.2-.55-.11-.29,0-.14,0-.07v0h0l.26.2h0a4.73,4.73,0,0,1-1.33-.35l.32,0c-.31.27-.63.53-.92.77l-.19.16-.2-.15L526.38,47l-.2-.15.1-.23c.18-.37.35-.74.5-1.08l0,.31a5.12,5.12,0,0,1-.68-1.19l.24.18-1.19-.11-.23,0,0-.23c-.09-.68-.18-1.35-.26-2l0-.22.21-.08,1.13-.41-.18.22a5.71,5.71,0,0,1,.36-1.31l0,.26-.76-.92-.12-.16.12-.15c.42-.55.83-1.07,1.22-1.56l.11-.15.16.08,1.08.51-.21,0A4.76,4.76,0,0,1,529,38l-.11.15c0-.42.09-.82.13-1.19v-.13h.12l2-.21h.08l0,.07A7.46,7.46,0,0,1,531.53,37.86Z" transform="translate(-12.99 -4.62)"/><path class="cls-4" d="M612.47,435l.33,0c.22,0,.56,0,1-.09a10.12,10.12,0,0,0,3.75-1.24,10.51,10.51,0,0,0,4.36-4.71,10.37,10.37,0,0,0,1-4.06c0-1.5,0-3.12,0-4.84,0-13.73,0-34-.06-60.06,0-52.16-.06-127.64-.1-220.9q0-35,0-73.19,0-19.09,0-38.94V17a13.28,13.28,0,0,0-.55-4.88,10.26,10.26,0,0,0-6.86-6.54,17,17,0,0,0-5-.4H600.08L425,5.22l-401.16,0a10.23,10.23,0,0,0-9.76,7.12c-.67,2.05-.42,4.29-.47,6.51V206.66c0,67.11,0,131.84,0,193.5q0,11.56,0,23a21.43,21.43,0,0,0,.11,2.8,10.21,10.21,0,0,0,.74,2.66,10.33,10.33,0,0,0,3.44,4.24A10.17,10.17,0,0,0,23,434.7c1.84.08,3.75,0,5.62,0H158l152.55,0,301.88.22-301.88.23-152.55,0-85,0H28.61c-1.89,0-3.74,0-5.66-.05A10.7,10.7,0,0,1,13.14,426a18.66,18.66,0,0,1-.12-2.88v-23c0-61.66,0-126.39,0-193.5V104.3q0-26,0-52.35V15.55a12.38,12.38,0,0,1,.5-3.37A10.91,10.91,0,0,1,17.43,6.7a10.78,10.78,0,0,1,6.42-2.08L425,4.64l175.07,0h10.24a17.75,17.75,0,0,1,5.12.43A10.72,10.72,0,0,1,622.63,12a13.75,13.75,0,0,1,.58,5V27q0,19.85,0,38.94,0,38.18,0,73.19c0,93.26-.08,168.74-.1,220.9,0,26.08-.05,46.33-.06,60.06,0,1.72,0,3.33,0,4.85a10.35,10.35,0,0,1-1,4.09,10.6,10.6,0,0,1-4.42,4.73,10.14,10.14,0,0,1-3.77,1.21A9.65,9.65,0,0,1,612.47,435Z" transform="translate(-12.99 -4.62)"/><rect class="cls-2" x="341.68" y="94.07" width="118.65" height="56.03" rx="9.57"/><path class="cls-4" d="M387.16,125.56v10.32H386.1v-9.37h-2.44v-1Z" transform="translate(-12.99 -4.62)"/><path class="cls-4" d="M396.62,132.84c0,1.76-1.22,3.13-3.74,3.13a5.32,5.32,0,0,1-3.7-1.33l.51-.84a4.49,4.49,0,0,0,3.17,1.2c1.75,0,2.68-.86,2.68-2.11s-.82-2.15-3.44-2.15h-2.2l.53-5.18h5.64v1h-4.71l-.36,3.28h1.33C395.44,129.79,396.62,131,396.62,132.84Z" transform="translate(-12.99 -4.62)"/><path class="cls-4" d="M398,130.72c0-3.28,1.73-5.25,4.12-5.25s4.12,2,4.12,5.25-1.74,5.25-4.12,5.25S398,134,398,130.72Zm7.15,0c0-2.75-1.24-4.27-3-4.27s-3,1.52-3,4.27,1.24,4.28,3,4.28S405.11,133.48,405.11,130.72Z" transform="translate(-12.99 -4.62)"/><path class="cls-4" d="M407.72,130.72c0-3.28,1.72-5.25,4.11-5.25s4.13,2,4.13,5.25-1.74,5.25-4.13,5.25S407.72,134,407.72,130.72Zm7.15,0c0-2.75-1.24-4.27-3-4.27s-3,1.52-3,4.27,1.23,4.28,3,4.28S414.87,133.48,414.87,130.72Z" transform="translate(-12.99 -4.62)"/><path class="cls-4" d="M426.25,133.17h-2.07v2.71h-1.06v-2.71H417.3v-.77l5.47-6.84H424l-5.28,6.66h4.48v-2.38h1v2.38h2.07Z" transform="translate(-12.99 -4.62)"/><path class="cls-4" d="M434.21,134.94v.94H427v-.75l4.29-4.2c1.17-1.15,1.39-1.84,1.39-2.55,0-1.2-.84-1.93-2.42-1.93a3.52,3.52,0,0,0-2.82,1.15l-.75-.65a4.66,4.66,0,0,1,3.66-1.48c2.09,0,3.42,1.07,3.42,2.79,0,1-.31,1.87-1.7,3.23l-3.51,3.45Z" transform="translate(-12.99 -4.62)"/><path class="cls-4" d="M435.48,130.72c0-3.28,1.72-5.25,4.11-5.25s4.13,2,4.13,5.25S442,136,439.59,136,435.48,134,435.48,130.72Zm7.15,0c0-2.75-1.24-4.27-3-4.27s-3,1.52-3,4.27,1.24,4.28,3,4.28S442.63,133.48,442.63,130.72Z" transform="translate(-12.99 -4.62)"/><path class="cls-4" d="M424.32,115c0,.17-11.47.31-25.63.31s-25.62-.14-25.62-.31,11.47-.32,25.62-.32S424.32,114.77,424.32,115Z" transform="translate(-12.99 -4.62)"/><rect class="cls-2" x="212.3" y="94.38" width="118.65" height="56.03" rx="9.57"/><path class="cls-4" d="M268.89,137.85v1h-7.23V138l4.29-4.2c1.16-1.15,1.38-1.84,1.38-2.55,0-1.19-.84-1.93-2.42-1.93a3.51,3.51,0,0,0-2.81,1.15l-.75-.65a4.63,4.63,0,0,1,3.65-1.47c2.1,0,3.42,1.06,3.42,2.79,0,1-.31,1.87-1.69,3.22l-3.51,3.45Z" transform="translate(-12.99 -4.62)"/><path class="cls-4" d="M277.05,135.83c0,1.73-1.26,3-3.75,3a5.34,5.34,0,0,1-3.71-1.32l.51-.84a4.55,4.55,0,0,0,3.2,1.19c1.71,0,2.65-.79,2.65-2.08s-.87-2-2.78-2h-.74V133l2.86-3.58H270v-.94h6.64v.75l-2.92,3.67C275.94,133,277.05,134.18,277.05,135.83Z" transform="translate(-12.99 -4.62)"/><path class="cls-4" d="M285.39,135.76c0,1.75-1.22,3.12-3.74,3.12a5.31,5.31,0,0,1-3.7-1.32l.51-.84a4.49,4.49,0,0,0,3.17,1.19c1.75,0,2.68-.85,2.68-2.11s-.82-2.15-3.45-2.15h-2.19l.53-5.17h5.64v.94h-4.71l-.36,3.29h1.33C284.21,132.71,285.39,133.93,285.39,135.76Z" transform="translate(-12.99 -4.62)"/><path class="cls-4" d="M286.73,133.64c0-3.29,1.73-5.25,4.11-5.25s4.13,2,4.13,5.25-1.74,5.24-4.13,5.24S286.73,136.92,286.73,133.64Zm7.15,0c0-2.76-1.24-4.28-3-4.28s-3,1.52-3,4.28,1.24,4.27,3,4.27S293.88,136.39,293.88,133.64Z" transform="translate(-12.99 -4.62)"/><path class="cls-4" d="M297.92,138.06a2.34,2.34,0,0,1-.21.85l-.62,2h-.7l.5-2.14a.75.75,0,0,1-.53-.75.77.77,0,0,1,.78-.8A.78.78,0,0,1,297.92,138.06Z" transform="translate(-12.99 -4.62)"/><path class="cls-4" d="M299.29,133.64c0-3.29,1.72-5.25,4.11-5.25s4.13,2,4.13,5.25-1.74,5.24-4.13,5.24S299.29,136.92,299.29,133.64Zm7.15,0c0-2.76-1.24-4.28-3-4.28s-3,1.52-3,4.28,1.23,4.27,3,4.27S306.44,136.39,306.44,133.64Z" transform="translate(-12.99 -4.62)"/><path class="cls-4" d="M309.05,133.64c0-3.29,1.72-5.25,4.11-5.25s4.13,2,4.13,5.25-1.74,5.24-4.13,5.24S309.05,136.92,309.05,133.64Zm7.15,0c0-2.76-1.24-4.28-3-4.28s-3,1.52-3,4.28,1.24,4.27,3,4.27S316.2,136.39,316.2,133.64Z" transform="translate(-12.99 -4.62)"/><path class="cls-4" d="M293.57,116.43c0,.18-10.39.32-23.21.32s-23.22-.14-23.22-.32,10.39-.31,23.22-.31S293.57,116.26,293.57,116.43Z" transform="translate(-12.99 -4.62)"/><rect class="cls-3" x="82.45" y="94.38" width="118.65" height="56.03" rx="9.57"/><path class="cls-11" d="M138.08,137.85v1h-7.24V138l4.29-4.2c1.16-1.14,1.38-1.84,1.38-2.54,0-1.2-.84-1.94-2.41-1.94a3.52,3.52,0,0,0-2.82,1.15l-.75-.64a4.62,4.62,0,0,1,3.65-1.48c2.1,0,3.42,1.06,3.42,2.79,0,1-.31,1.87-1.69,3.22l-3.51,3.45Z" transform="translate(-12.99 -4.62)"/><path class="cls-11" d="M142.26,128.48V138.8H141.2v-9.38h-2.43v-.94Z" transform="translate(-12.99 -4.62)"/><path class="cls-11" d="M144.73,133.64c0-3.29,1.72-5.25,4.11-5.25s4.12,2,4.12,5.25-1.73,5.24-4.12,5.24S144.73,136.92,144.73,133.64Zm7.14,0c0-2.76-1.23-4.28-3-4.28s-3,1.52-3,4.28,1.24,4.27,3,4.27S151.87,136.39,151.87,133.64Z" transform="translate(-12.99 -4.62)"/><path class="cls-11" d="M154.48,133.64c0-3.29,1.73-5.25,4.11-5.25s4.13,2,4.13,5.25-1.74,5.24-4.13,5.24S154.48,136.92,154.48,133.64Zm7.15,0c0-2.76-1.24-4.28-3-4.28s-3,1.52-3,4.28,1.24,4.27,3,4.27S161.63,136.39,161.63,133.64Z" transform="translate(-12.99 -4.62)"/><path class="cls-11" d="M165.67,138.06a2.34,2.34,0,0,1-.21.85l-.61,2h-.71l.5-2.14a.75.75,0,0,1-.53-.75.78.78,0,1,1,1.56,0Z" transform="translate(-12.99 -4.62)"/><path class="cls-11" d="M174.65,133.55c0,3.51-1.92,5.33-4.72,5.33a4.73,4.73,0,0,1-2.45-.56l.43-.85a3.66,3.66,0,0,0,2,.49c2.22,0,3.65-1.43,3.65-4.23,0-.24,0-.53,0-.84a3.32,3.32,0,0,1-3.16,1.77c-2.05,0-3.48-1.21-3.48-3.1a3.22,3.22,0,0,1,3.53-3.17C173.16,128.39,174.65,130.29,174.65,133.55Zm-1.46-2.05c0-1.13-.95-2.21-2.73-2.21a2.26,2.26,0,0,0-2.52,2.24c0,1.36,1,2.23,2.6,2.23A2.39,2.39,0,0,0,173.19,131.5Z" transform="translate(-12.99 -4.62)"/><path class="cls-11" d="M176.18,133.64c0-3.29,1.73-5.25,4.11-5.25s4.13,2,4.13,5.25-1.74,5.24-4.13,5.24S176.18,136.92,176.18,133.64Zm7.15,0c0-2.76-1.24-4.28-3-4.28s-3,1.52-3,4.28,1.24,4.27,3,4.27S183.33,136.39,183.33,133.64Z" transform="translate(-12.99 -4.62)"/><path class="cls-11" d="M159,116.43c0,.18-9.55.32-21.33.32s-21.33-.14-21.33-.32,9.55-.31,21.33-.31S159,116.26,159,116.43Z" transform="translate(-12.99 -4.62)"/><path class="cls-11" d="M41.38,53.11h0A10.32,10.32,0,0,1,31.05,42.78h0A10.32,10.32,0,0,1,41.38,32.46h0A10.32,10.32,0,0,1,51.7,42.78h0A10.32,10.32,0,0,1,41.38,53.11Z" transform="translate(-12.99 -4.62)"/></g><g id="Character"><path class="cls-3" d="M586,309.29s11.55,3.81,16.49,32.59c4.69,27.3,14.85,40.88,14.85,40.88l39,6.79L637.92,422l-53-18.56-2.77-54.21Z" transform="translate(-12.99 -4.62)"/><path class="cls-3" d="M515.62,308.59s-17.46,2.28-22.36,20S483,387.91,483,387.91l-31.93,54,21.19,13.17,31.64-42.85a36.9,36.9,0,0,0,7-16.68,35.34,35.34,0,0,0,.3-7l-.77-13.25Z" transform="translate(-12.99 -4.62)"/><path class="cls-3" d="M511.38,309.53l-6.31,43.74a44.72,44.72,0,0,0,1.34,18.9l7.77,26.65s-6.66,15,2.05,20.19c1.72,1,44.5,1.71,44.5,1.71h18.83l6.83-66.33-.43-45.1s-15.71-5.73-21.87-6.41a232.8,232.8,0,0,0-34.31.28Z" transform="translate(-12.99 -4.62)"/><path class="cls-4" d="M494,395.89c-.15.11-1.83-2.57-4.93-4.79a17.57,17.57,0,0,0-4.23-2.35,6.33,6.33,0,0,1-1.84-.89,7.07,7.07,0,0,1,2,.48,14,14,0,0,1,4.44,2.25C492.68,392.9,494.17,395.84,494,395.89Z" transform="translate(-12.99 -4.62)"/><path class="cls-4" d="M509.09,332.34a13.7,13.7,0,0,1-.56,2c-.2.64-.44,1.43-.67,2.36s-.55,2-.77,3.15a68.7,68.7,0,0,0-1.33,8.34,78.81,78.81,0,0,0-.24,10.33,111.17,111.17,0,0,0,2.6,18.6c.53,2.36,1,4.26,1.31,5.56a13.38,13.38,0,0,1,.43,2.06,13.64,13.64,0,0,1-.67-2c-.4-1.29-.91-3.18-1.5-5.53a98,98,0,0,1-2.8-18.68,74.73,74.73,0,0,1,.29-10.41,63.3,63.3,0,0,1,1.47-8.38c.26-1.18.61-2.22.87-3.15s.54-1.7.78-2.33A13.19,13.19,0,0,1,509.09,332.34Z" transform="translate(-12.99 -4.62)"/><path class="cls-4" d="M585.77,334.86a12.9,12.9,0,0,1,.13,2c.05,1.32.09,3.22.11,5.57,0,4.71-.06,11.21-.38,18.38s-.85,13.66-1.31,18.34c-.24,2.34-.45,4.23-.62,5.53a12.14,12.14,0,0,1-.32,2,13.59,13.59,0,0,1,.08-2c.11-1.42.25-3.29.41-5.55.36-4.69.8-11.17,1.13-18.33s.48-13.65.56-18.35c0-2.27.07-4.15.1-5.57A11.86,11.86,0,0,1,585.77,334.86Z" transform="translate(-12.99 -4.62)"/><g class="cls-12"><path d="M568.66,386.85c.89,1.46-.5,4.22-4,7.14a32.24,32.24,0,0,1-6.61,4.22,42.58,42.58,0,0,1-18.56,4.22,32.19,32.19,0,0,1-7.79-.94c-4.38-1.14-6.82-3-6.65-4.72s2.79-3,6.63-4.17,8.95-2.23,14.54-3.49,10.65-2.5,14.62-3.15S567.75,385.34,568.66,386.85Z" transform="translate(-12.99 -4.62)"/></g><path class="cls-4" d="M570.42,388.55a13,13,0,0,1-1.34,1.5,16.49,16.49,0,0,1-1.72,1.63,29.42,29.42,0,0,1-2.42,2l-1.48,1.07c-.52.37-1.1.69-1.67,1.06a42.73,42.73,0,0,1-3.84,2.09,43.54,43.54,0,0,1-19.39,4.26,41.68,41.68,0,0,1-4.36-.3c-.68-.09-1.34-.14-2-.26l-1.79-.35a28.83,28.83,0,0,1-3-.79,16.54,16.54,0,0,1-2.24-.76,12.42,12.42,0,0,1-1.84-.8c0-.14,2.68,1,7.2,1.91l1.78.32c.62.1,1.27.14,1.94.21a41.62,41.62,0,0,0,4.31.24,45.19,45.19,0,0,0,19.15-4.2,42.09,42.09,0,0,0,3.81-2c.57-.35,1.15-.66,1.67-1l1.48-1C568.41,390.61,570.32,388.44,570.42,388.55Z" transform="translate(-12.99 -4.62)"/><path class="cls-4" d="M588.32,310.68c.16.12-1.63,2.48-2.89,5.85s-1.5,6.33-1.69,6.31-.23-3,1.1-6.53A14.14,14.14,0,0,1,588.32,310.68Z" transform="translate(-12.99 -4.62)"/><g class="cls-13"><path class="cls-11" d="M592.54,354.69c-2.52.92-1.48.61-2.57,2.74a7.52,7.52,0,0,0-.27,6.9,8.57,8.57,0,0,0,4.85,3.62c2.33.83,5.12,1.1,7.1-.39s2.5-4.43,1.78-6.83a8.87,8.87,0,0,0-11.36-5.9" transform="translate(-12.99 -4.62)"/><path class="cls-11" d="M561.56,380.19c-.9-1.64-5-2.6-6.52-1.49a4.51,4.51,0,0,0,0,5.23,4.07,4.07,0,0,0,5,1.1A3.73,3.73,0,0,0,561.56,380.19Z" transform="translate(-12.99 -4.62)"/><path class="cls-11" d="M504.81,384.53c-.9-1.64-5-2.59-6.51-1.49a4.49,4.49,0,0,0,0,5.24,4.08,4.08,0,0,0,5,1.1A3.74,3.74,0,0,0,504.81,384.53Z" transform="translate(-12.99 -4.62)"/><path class="cls-11" d="M519.82,313.1a14.78,14.78,0,0,0-11,7.85,8.13,8.13,0,0,0-1,4.29,4.43,4.43,0,0,0,2.26,3.64c2,1,4.33-.06,6.24-1.18a20.62,20.62,0,0,0,4.64-3.42,8.81,8.81,0,0,0,2.57-5.07,5.67,5.67,0,0,0-2.05-5.13,4.19,4.19,0,0,0-5.3.22" transform="translate(-12.99 -4.62)"/><path class="cls-11" d="M486.42,404.83a14.77,14.77,0,0,0-11,7.84,8.24,8.24,0,0,0-1,4.3,4.45,4.45,0,0,0,2.26,3.63c2,1,4.33-.06,6.24-1.18a20.62,20.62,0,0,0,4.64-3.42,8.81,8.81,0,0,0,2.57-5.07A5.67,5.67,0,0,0,488,405.8a4.2,4.2,0,0,0-5.3.22" transform="translate(-12.99 -4.62)"/><path class="cls-11" d="M570.32,313.7c-2.52.92-1.48.62-2.57,2.75a7.53,7.53,0,0,0-.28,6.89,8.56,8.56,0,0,0,4.86,3.63c2.33.82,5.12,1.09,7.1-.4s2.49-4.43,1.78-6.83a8.88,8.88,0,0,0-11.36-5.9" transform="translate(-12.99 -4.62)"/><path class="cls-11" d="M560.21,344.8c.2,1.87.17,1.11,1.43,2.22a5.31,5.31,0,0,0,4.65,1.37,6,6,0,0,0,3.3-2.69c1-1.45,1.62-3.31.95-4.9a4.47,4.47,0,0,0-4.35-2.39,6.24,6.24,0,0,0-6,6.73" transform="translate(-12.99 -4.62)"/><path class="cls-11" d="M489.67,364.3c.2,1.87.17,1.11,1.43,2.22a5.32,5.32,0,0,0,4.65,1.37,6,6,0,0,0,3.3-2.69c1-1.45,1.62-3.31.95-4.9a4.49,4.49,0,0,0-4.35-2.39,6.24,6.24,0,0,0-6,6.73" transform="translate(-12.99 -4.62)"/><path class="cls-11" d="M543.33,340.8a2.18,2.18,0,0,0-2.1-1,6.36,6.36,0,0,0-2.33.78l-.89,1.72a3.15,3.15,0,0,0,4.5,1.07A2.15,2.15,0,0,0,543.33,340.8Z" transform="translate(-12.99 -4.62)"/><path class="cls-11" d="M503.64,340a2.19,2.19,0,0,0-2.1-1,6.38,6.38,0,0,0-2.33.79l-.89,1.71a3.15,3.15,0,0,0,4.5,1.07A2.14,2.14,0,0,0,503.64,340Z" transform="translate(-12.99 -4.62)"/><path class="cls-11" d="M580.44,372.87a2.16,2.16,0,0,0-2.1-1,6.36,6.36,0,0,0-2.33.78l-.89,1.71a3.15,3.15,0,0,0,4.5,1.07A2.15,2.15,0,0,0,580.44,372.87Z" transform="translate(-12.99 -4.62)"/><path class="cls-11" d="M521.34,410a2.18,2.18,0,0,0-2.1-1,6.36,6.36,0,0,0-2.33.78l-.89,1.71a3.15,3.15,0,0,0,4.5,1.08A2.15,2.15,0,0,0,521.34,410Z" transform="translate(-12.99 -4.62)"/><path class="cls-11" d="M552,359.4c-1.86-2.36-4.8-3.62-7.75-4.23-3.52.13-6.07,2.42-8.5,5a5.74,5.74,0,0,0-1.89,4.17c.12,1.72,1.46,3.12,2.9,4.09a14.16,14.16,0,0,0,11.59,1.81,7.92,7.92,0,0,0,4.09-2.48C554.25,365.39,553.81,361.76,552,359.4Z" transform="translate(-12.99 -4.62)"/><path class="cls-11" d="M570.59,358.18c-.68-1.24-3.79-2-4.93-1.12a3.41,3.41,0,0,0,0,3.95,3.08,3.08,0,0,0,3.8.83A2.81,2.81,0,0,0,570.59,358.18Z" transform="translate(-12.99 -4.62)"/><path class="cls-11" d="M549.24,411.39c-.68-1.24-3.78-2-4.92-1.12a3.39,3.39,0,0,0,0,4,3.09,3.09,0,0,0,3.81.83A2.82,2.82,0,0,0,549.24,411.39Z" transform="translate(-12.99 -4.62)"/><path class="cls-11" d="M597.62,334.69c-.67-1.24-3.78-2-4.92-1.13a3.39,3.39,0,0,0,0,4,3.07,3.07,0,0,0,3.8.83A2.81,2.81,0,0,0,597.62,334.69Z" transform="translate(-12.99 -4.62)"/><path class="cls-11" d="M525.1,378.84a4.31,4.31,0,0,0-3.23-1l0,0c-2.25,0-4.11.88-4.31,3a6.91,6.91,0,0,0,2.25,5.69,3.86,3.86,0,0,0,6.75-1.95A5.71,5.71,0,0,0,525.1,378.84Z" transform="translate(-12.99 -4.62)"/><path class="cls-11" d="M578.25,400.79a5.74,5.74,0,0,0-3-3.72,5,5,0,0,0-4.74.71,9.59,9.59,0,0,0-3,3.93,11.72,11.72,0,0,0-1.21,5.59c.12,1.92,3,4.1,5.22,3.46h0a6.4,6.4,0,0,0,4.52-1.37A8.18,8.18,0,0,0,578.25,400.79Z" transform="translate(-12.99 -4.62)"/><path class="cls-11" d="M516.7,342.47c-2.52.92-1.47.62-2.57,2.75a7.5,7.5,0,0,0-.27,6.89,8.54,8.54,0,0,0,4.85,3.63c2.33.82,5.13,1.09,7.1-.4s2.5-4.43,1.79-6.83a8.89,8.89,0,0,0-11.37-5.9" transform="translate(-12.99 -4.62)"/></g><path class="cls-5" d="M559.05,459.55s46.23,12.79,48.09,13.45c2.78,1,2.31,11.18-2,11-2-.07-35.51,1.25-39.74,1s-17-5.29-17-5.29Z" transform="translate(-12.99 -4.62)"/><path class="cls-4" d="M578.31,477.19c.23,0,.55-2.42,2-5s3.41-4.07,3.27-4.25-2.38,1.12-3.94,3.87S578.12,477.21,578.31,477.19Z" transform="translate(-12.99 -4.62)"/><path class="cls-4" d="M573.49,475c.23,0,.7-2.14,1.93-4.56s2.68-4.1,2.51-4.26-1.93,1.36-3.2,3.91S573.29,475,573.49,475Z" transform="translate(-12.99 -4.62)"/><path class="cls-4" d="M569,473.79c.23,0,.06-2.32,1.08-4.88s2.68-4.16,2.52-4.33-2.17,1.26-3.24,4.05S568.78,473.86,569,473.79Z" transform="translate(-12.99 -4.62)"/><path class="cls-4" d="M569.79,467.82a8.32,8.32,0,0,0,.5-3.44,16.68,16.68,0,0,0-.47-3.77,16.18,16.18,0,0,0-.69-2.15,2.66,2.66,0,0,0-.74-1.13,1.23,1.23,0,0,0-1.59.08,2,2,0,0,0-.61,1.31,8.45,8.45,0,0,0-.06,1.22,10.2,10.2,0,0,0,.28,2.26,13.8,13.8,0,0,0,1.42,3.54,9.34,9.34,0,0,0,2.08,2.78c.11-.08-.67-1.15-1.59-3a14.72,14.72,0,0,1-1.21-3.43,9.7,9.7,0,0,1-.23-2.12c0-.71,0-1.59.43-1.94a.45.45,0,0,1,.61-.05,2,2,0,0,1,.51.81,18.28,18.28,0,0,1,.7,2,18.76,18.76,0,0,1,.61,3.61C569.87,466.49,569.66,467.8,569.79,467.82Z" transform="translate(-12.99 -4.62)"/><path class="cls-4" d="M569.73,467.35a6.49,6.49,0,0,0-3-.48,13.71,13.71,0,0,0-3.28.4,7.19,7.19,0,0,0-1.89.7,2,2,0,0,0-1,2.11,2.31,2.31,0,0,0,1.66,1.65,4.29,4.29,0,0,0,2.08,0,8,8,0,0,0,3-1.47,8.29,8.29,0,0,0,2.15-2.12A19.41,19.41,0,0,0,567,469.8a8.33,8.33,0,0,1-2.84,1.23,3.66,3.66,0,0,1-1.71,0,1.56,1.56,0,0,1-1.13-1.1,1.2,1.2,0,0,1,.69-1.29,7.33,7.33,0,0,1,1.67-.65,14.93,14.93,0,0,1,3.12-.54C568.58,467.29,569.71,467.47,569.73,467.35Z" transform="translate(-12.99 -4.62)"/><path class="cls-4" d="M585.41,477.68c.23,0,0-2,.92-4.17s2.4-3.44,2.26-3.62-2,.91-3,3.33S585.23,477.76,585.41,477.68Z" transform="translate(-12.99 -4.62)"/><path class="cls-4" d="M553.16,479.82a9.77,9.77,0,0,0,1.79.84,39.37,39.37,0,0,0,5.14,1.59,72.74,72.74,0,0,0,17.65,1.67c6.93-.07,13.17-.39,17.7-.57l5.35-.28a10.27,10.27,0,0,0,2-.21,9.26,9.26,0,0,0-2-.09l-5.36,0-17.68.35a83.2,83.2,0,0,1-17.53-1.43C555.79,480.81,553.21,479.67,553.16,479.82Z" transform="translate(-12.99 -4.62)"/><path class="cls-4" d="M551.79,480.87a37.76,37.76,0,0,0,3.46-1.57,16.13,16.13,0,0,1,8.75-1.45c3.49.53,6,2.87,7.56,4.49a26.79,26.79,0,0,0,2.67,2.73A14.24,14.24,0,0,0,572,482a18.3,18.3,0,0,0-3.06-2.86,11.09,11.09,0,0,0-4.78-2,15.36,15.36,0,0,0-9.1,1.72A12.11,12.11,0,0,0,551.79,480.87Z" transform="translate(-12.99 -4.62)"/><g class="cls-12"><path d="M559.05,459.55s46.23,12.79,48.09,13.45c2.78,1,2.31,11.18-2,11-2-.07-35.51,1.25-39.74,1s-17-5.29-17-5.29Z" transform="translate(-12.99 -4.62)"/></g><path class="cls-4" d="M518,419.32,503,436.83s-50.1-15.24-62.73-14.54-23,5.76-25.42,16-2.79,24.4,11.94,34.22,87.93,15.24,87.93,15.24h29L591,425.35l-4.16-3.43Z" transform="translate(-12.99 -4.62)"/><path class="cls-8" d="M528.09,459.82a6.2,6.2,0,0,1-1,0c-.62-.05-1.54,0-2.72-.21a55.8,55.8,0,0,1-9.82-2,94.57,94.57,0,0,1-13.84-5.41c-5.07-2.39-10.47-5.33-16.15-8.38a166.65,166.65,0,0,0-16.36-7.85,73.15,73.15,0,0,0-14.15-4.23,49.74,49.74,0,0,0-9.92-.86c-1.18,0-2.09.1-2.71.1a4.29,4.29,0,0,1-1,0,6.45,6.45,0,0,1,.94-.13c.62-.05,1.53-.22,2.72-.23a46.64,46.64,0,0,1,10,.67,71.45,71.45,0,0,1,14.29,4.13,163.89,163.89,0,0,1,16.44,7.83c5.68,3.06,11.06,6,16.09,8.41a98.25,98.25,0,0,0,13.73,5.52,62.52,62.52,0,0,0,9.72,2.21c1.17.2,2.09.23,2.7.33A5.48,5.48,0,0,1,528.09,459.82Z" transform="translate(-12.99 -4.62)"/><path class="cls-4" d="M562.33,482.67c9.3-3.65,60.48-19.94,78.6-40.87,15.08-17.43-8.91-33-8.91-33s-16.83-.54-22.45,0-85.92,54.81-85.92,54.81,14,27.36,13.68,28.41Z" transform="translate(-12.99 -4.62)"/><path class="cls-8" d="M587.53,422s-.06.07-.21.18l-.68.46L584,424.32l-9.73,6.19L542.1,450.75l-17.49,10.9.11-.36c3.73,9,6.9,16.61,9.17,22.07l2.58,6.33.66,1.69a2.47,2.47,0,0,1,.2.6,5.3,5.3,0,0,1-.29-.56l-.74-1.66-2.73-6.27c-2.33-5.43-5.57-13.05-9.38-22l-.1-.23.21-.13,17.46-11,32.3-20.07,9.83-6,2.68-1.61.71-.41A1.63,1.63,0,0,1,587.53,422Z" transform="translate(-12.99 -4.62)"/><path class="cls-8" d="M516.82,446.12a8.66,8.66,0,0,1-2.38-.9,32.69,32.69,0,0,1-5.25-3.15A32,32,0,0,1,504.6,438a8.24,8.24,0,0,1-1.57-2c.14-.13,2.7,2.76,6.53,5.55S516.9,445.94,516.82,446.12Z" transform="translate(-12.99 -4.62)"/><path class="cls-8" d="M538.7,420.24a20.17,20.17,0,0,1,.12,3.2c0,2,.1,4.7.37,7.7s.69,5.69,1,7.63a19.51,19.51,0,0,1,.46,3.18,14.07,14.07,0,0,1-.89-3.09,59.16,59.16,0,0,1-1.2-7.67,61.44,61.44,0,0,1-.2-7.75A13.36,13.36,0,0,1,538.7,420.24Z" transform="translate(-12.99 -4.62)"/><path class="cls-8" d="M545.79,423s.24-.06.63.09a2.84,2.84,0,0,1,1.33,1.12,3.1,3.1,0,0,1,.38,2.58,2.78,2.78,0,0,1-2.6,1.82,2.72,2.72,0,0,1-2.74-1.6,2.81,2.81,0,0,1,.36-2.58,2.44,2.44,0,0,1,1.4-1c.41-.1.64,0,.63,0a2.94,2.94,0,0,0-1.66,1.27,2.52,2.52,0,0,0-.2,2.13,2.2,2.2,0,0,0,2.18,1.2,2.26,2.26,0,0,0,2.08-1.4,2.7,2.7,0,0,0-.21-2.16C546.72,423.21,545.74,423.07,545.79,423Z" transform="translate(-12.99 -4.62)"/><path class="cls-8" d="M525.92,420.73a3,3,0,0,1,.44,1,8.31,8.31,0,0,1,.42,2.83,10.2,10.2,0,0,1-.93,4.15,9.29,9.29,0,0,1-8.32,5.6,10.41,10.41,0,0,1-4.2-.7,8.6,8.6,0,0,1-2.46-1.46c-.51-.45-.74-.74-.72-.77a15.33,15.33,0,0,0,3.33,1.81,10.34,10.34,0,0,0,4,.54,9,9,0,0,0,7.83-5.26,10.53,10.53,0,0,0,1-3.93A15.66,15.66,0,0,0,525.92,420.73Z" transform="translate(-12.99 -4.62)"/><path class="cls-8" d="M573.67,430.27a3.34,3.34,0,0,1-1.9-.27,7.2,7.2,0,0,1-4.8-7.35,3.46,3.46,0,0,1,.52-1.85c.1,0-.09.73-.07,1.86a7.56,7.56,0,0,0,4.52,6.93C573,430.06,573.69,430.17,573.67,430.27Z" transform="translate(-12.99 -4.62)"/><path class="cls-14" d="M626.88,395.5s7.82-11.29,9.54-12.25,16.18-3.89,17.3-3.34,17.29,5.91,15.08,7.59-13.46-2.22-13.46-2.22l-1.68.54s9.77,3.12,11.69,4.65c1.77,1.42.74,3.69-1.06,3.22s-10.24-3.47-10.81-3.19,9.1,3.78,10.07,4.58c1.32,1.07,1.07,3.66-.73,3.26-1.06-.24-10.1-4.1-10.1-4.1s7,4,7.61,4.77c1,1.24-.18,2.73-1.74,2.13-1.07-.42-6-3.73-7.4-4.28,0,0-1.44.16-3.13,2.78S636.23,408,636.23,408Z" transform="translate(-12.99 -4.62)"/><path class="cls-14" d="M630.65,396.25c.87,1.09,2.57,1.11,3.86.58s2.37-1.49,3.62-2.11c3.74-1.87,8.52-.56,12.17-2.61.5-.28,1-.79.87-1.35s-.8-.67-1.33-.74l-13.74-1.75" transform="translate(-12.99 -4.62)"/><path class="cls-15" d="M636.1,388.27a5.64,5.64,0,0,1,1.51,0c1,.07,2.35.21,4.06.39l6,.68,1.74.21a2.77,2.77,0,0,1,1.94.72,1.16,1.16,0,0,1,0,1.31,2.34,2.34,0,0,1-.82.78,8.65,8.65,0,0,1-1.88.8c-2.64.77-5.19.59-7.4.95a10.5,10.5,0,0,0-3,.85c-.88.42-1.64,1-2.4,1.42a4.84,4.84,0,0,1-4,.77c-1-.35-1.23-.95-1.2-.94a4.19,4.19,0,0,0,1.28.65,4.74,4.74,0,0,0,3.68-1c.71-.45,1.46-1,2.4-1.53a10.94,10.94,0,0,1,3.18-1c2.29-.4,4.84-.27,7.28-1a8.33,8.33,0,0,0,1.7-.71c.5-.29.79-.74.58-1s-.83-.36-1.42-.43l-1.73-.24-6-.85c-1.7-.25-3.08-.47-4-.64A5.55,5.55,0,0,1,636.1,388.27Z" transform="translate(-12.99 -4.62)"/><path class="cls-15" d="M668.76,387.54a7.76,7.76,0,0,1-3.15.37,17.58,17.58,0,0,1-3.44-.38c-1.25-.33-2.61-.74-4-1.16l-3-.93.19,0c-4.32.83-7.47,1.33-7.5,1.15s3.05-1,7.35-1.89l.09,0,.1,0,3,.88,4,1.21a21.5,21.5,0,0,0,3.32.53A30.2,30.2,0,0,1,668.76,387.54Z" transform="translate(-12.99 -4.62)"/><path class="cls-4" d="M597.77,270.82c-3.23-3.86-7.17-7.82-7.3-12.85-.08-2.67.9-5.67-.71-7.81-1.39-1.87-4.16-2.16-5.73-3.88-2.09-2.3-1.19-5.93-1.91-8.95-.78-3.29-3.59-5.82-6.76-7a21.73,21.73,0,0,0-10-.76l-3.15,69.25c1.54-1.68,5.54-2.39,7.67-1.57s4.12,2.12,6.39,2.31c5.1.41,8.68-4.68,13-7.36,4.16-2.55,9.86-3.37,12.15-7.68S601,274.68,597.77,270.82Z" transform="translate(-12.99 -4.62)"/><path class="cls-8" d="M588.24,292.74a5.48,5.48,0,0,0,1.7-.7,3.76,3.76,0,0,0,1.34-1.6,3.7,3.7,0,0,0,0-2.71,5,5,0,0,0-2.3-2.4,6.27,6.27,0,0,1-1.55-1.35,3.3,3.3,0,0,1-.65-2.14,15.85,15.85,0,0,1,1.4-4.34,6.33,6.33,0,0,0,.46-2.21,3.9,3.9,0,0,0-.66-2.14,13,13,0,0,0-3.43-3.17,18.83,18.83,0,0,1-3.47-3,14.63,14.63,0,0,1-3.32-6.9,13.76,13.76,0,0,1,0-5.16,8.4,8.4,0,0,1,.36-1.36c.1-.3.17-.46.19-.45s-.16.66-.31,1.85a14.77,14.77,0,0,0,3.53,11.64,18.44,18.44,0,0,0,3.39,2.83,13.17,13.17,0,0,1,3.6,3.34,4.55,4.55,0,0,1,.76,2.47,7.06,7.06,0,0,1-.51,2.42,16,16,0,0,0-1.4,4.15,2.77,2.77,0,0,0,.51,1.79,6,6,0,0,0,1.4,1.25,10.52,10.52,0,0,1,1.48,1.16,3.92,3.92,0,0,1,1,1.52,4,4,0,0,1-.14,3,3.93,3.93,0,0,1-1.53,1.67,3.75,3.75,0,0,1-1.34.49A1,1,0,0,1,588.24,292.74Z" transform="translate(-12.99 -4.62)"/><path class="cls-14" d="M563,308.13l-.21-11.62s11.54-1.71,14.2-16.68c1.31-7.45,1.16-19.7.7-29.73-.4-9-9.95-18.19-18.95-17.4l-29.21,5v4.85l.8,66.06a16.33,16.33,0,0,0,16.33,16.13h0A16.33,16.33,0,0,0,563,308.13Z" transform="translate(-12.99 -4.62)"/><path class="cls-4" d="M573.05,260.51a1.92,1.92,0,0,1-1.89,1.91,1.84,1.84,0,0,1-2-1.77,1.92,1.92,0,0,1,1.89-1.91A1.84,1.84,0,0,1,573.05,260.51Z" transform="translate(-12.99 -4.62)"/><path class="cls-4" d="M574.91,256.43c-.24.24-1.68-.86-3.75-.89s-3.61,1-3.83.72.14-.57.81-1a5.33,5.33,0,0,1,3.07-.88,5.09,5.09,0,0,1,3,1C574.83,255.86,575,256.32,574.91,256.43Z" transform="translate(-12.99 -4.62)"/><path class="cls-4" d="M554,260a1.92,1.92,0,0,1-1.89,1.91,1.84,1.84,0,0,1-2-1.77,1.92,1.92,0,0,1,1.89-1.91A1.84,1.84,0,0,1,554,260Z" transform="translate(-12.99 -4.62)"/><path class="cls-4" d="M554.53,256.45c-.24.25-1.68-.86-3.75-.89s-3.61,1-3.83.72c-.11-.11.14-.56.81-1a5.26,5.26,0,0,1,3.07-.89,5.16,5.16,0,0,1,3,1C554.44,255.88,554.65,256.34,554.53,256.45Z" transform="translate(-12.99 -4.62)"/><path class="cls-4" d="M561.78,272a13.7,13.7,0,0,1,3.38-.55c.53-.05,1-.14,1.13-.5a2.7,2.7,0,0,0-.33-1.58c-.47-1.29-1-2.64-1.49-4.05-2.07-5.78-3.56-10.53-3.33-10.61s2.1,4.54,4.18,10.31c.49,1.43,1,2.78,1.42,4.08a3.11,3.11,0,0,1,.24,2.09,1.31,1.31,0,0,1-.88.75,3.44,3.44,0,0,1-.9.11A14,14,0,0,1,561.78,272Z" transform="translate(-12.99 -4.62)"/><path class="cls-15" d="M562.78,296.51a38.25,38.25,0,0,1-20-5.72s5,10.49,20.09,9.35Z" transform="translate(-12.99 -4.62)"/><path class="cls-15" d="M560.82,276.94a3.74,3.74,0,0,0-3.33-1.45,3.4,3.4,0,0,0-2.37,1.22,2.15,2.15,0,0,0-.21,2.47,2.48,2.48,0,0,0,2.7.73,7.81,7.81,0,0,0,2.68-1.53,2.28,2.28,0,0,0,.6-.6.68.68,0,0,0,0-.77" transform="translate(-12.99 -4.62)"/><path class="cls-4" d="M555.66,273.28c.34,0,.3,2.24,2.2,3.87s4.29,1.43,4.31,1.74c0,.14-.55.43-1.56.44A5.64,5.64,0,0,1,557,278a4.86,4.86,0,0,1-1.7-3.24C555.24,273.82,555.5,273.27,555.66,273.28Z" transform="translate(-12.99 -4.62)"/><path class="cls-4" d="M555.21,248.34c-.21.56-2.28.25-4.71.5s-4.42.88-4.73.37c-.14-.24.21-.77,1-1.3a8.25,8.25,0,0,1,7.2-.66C554.86,247.62,555.31,248.07,555.21,248.34Z" transform="translate(-12.99 -4.62)"/><path class="cls-4" d="M574.26,250.42c-.37.46-1.79,0-3.51-.11s-3.18.26-3.5-.24c-.14-.24.09-.71.74-1.14a5.08,5.08,0,0,1,5.65.28C574.23,249.7,574.42,250.19,574.26,250.42Z" transform="translate(-12.99 -4.62)"/><path class="cls-8" d="M537.17,255.42c4.94-6,19-16.94,25.84-19.95,1.09-.48,2.11-1.49,2.79-1.49a21.25,21.25,0,0,1,4,2.72c3.65,3.19,6.54,10.7,7.95,15.33,2-5.77,1.36-14.06-2.65-18.69s-8.28-7.17-14.39-7.47a25.61,25.61,0,0,0-15.92,4.27c-2.06,1.27-9.51,7.46-11.59,11Z" transform="translate(-12.99 -4.62)"/><path class="cls-4" d="M563.47,226.17c1,.12-5.81-5.47-10.06-6.24a17.07,17.07,0,0,0-12.36,2.59c-2.43,1.63-4.46,3.9-7.15,5-2,.87-4.33,1-6.46,1.65A15,15,0,0,0,517,242.15c-.18,2.49.27,5,.31,7.48s-.42,5.17-2.11,7c-1.47,1.6-3.62,2.33-5.45,3.48a13.52,13.52,0,0,0-6,13.29c.44,2.73,1.74,5.54.79,8.14-.62,1.72-2.11,2.95-3.11,4.47a9.08,9.08,0,0,0,.33,10.21c2.55.28,4.55,2.19,6.53,3.81s4.5,3.13,7,2.41c3.18-.94,4.69-5.2,8-5.67s5.57,3,8.61,4.11c3.47,1.31,7.52-.66,9.62-3.72s2.6-6.92,2.68-10.63c.09-4.66-.5-9.58-3.26-13.34-2-2.69-5.12-5-5.17-8.34s2.88-5.74,3.37-8.9c.43-2.78-1.07-5.44-2.22-8s-3.29-6.35-1.67-8.64C535.21,239.32,546.29,224.26,563.47,226.17Z" transform="translate(-12.99 -4.62)"/><path class="cls-4" d="M564.82,228.69c0-.05.53.24.93,1a3.84,3.84,0,0,1-2.5,5.49c-.85.22-1.39,0-1.38,0s.52-.1,1.25-.4a3.76,3.76,0,0,0,2.22-4.9C565.08,229.15,564.74,228.76,564.82,228.69Z" transform="translate(-12.99 -4.62)"/><path class="cls-4" d="M569,235.1c0,.16-1,0-2-.78s-1.38-1.68-1.23-1.76.75.59,1.62,1.27S569.09,234.93,569,235.1Z" transform="translate(-12.99 -4.62)"/><path class="cls-4" d="M559.11,231.17c0-.18.91-.15,1.92-.43s1.78-.73,1.89-.59-.55.89-1.72,1.2S559.06,231.33,559.11,231.17Z" transform="translate(-12.99 -4.62)"/><path class="cls-4" d="M559.22,228.42c0-.18.9-.19,1.95,0s1.88.43,1.86.61-.9.18-2,0S559.19,228.59,559.22,228.42Z" transform="translate(-12.99 -4.62)"/><path class="cls-4" d="M569.37,229.34c0,.18-.34.34-.78.38s-.82-.08-.83-.26.34-.34.78-.37S569.36,229.17,569.37,229.34Z" transform="translate(-12.99 -4.62)"/><path class="cls-4" d="M569.49,231.06c0,.18-.52.32-1.16.32s-1.15-.14-1.15-.32.52-.31,1.15-.31S569.49,230.89,569.49,231.06Z" transform="translate(-12.99 -4.62)"/><path class="cls-4" d="M543,241.17c.13.13-1.44,1.75-3,4s-2.59,4.27-2.76,4.2.61-2.25,2.25-4.56S542.93,241,543,241.17Z" transform="translate(-12.99 -4.62)"/><path class="cls-4" d="M543.58,236.7c.14.12-1.69,2.38-3.56,5.43s-3.08,5.69-3.26,5.62.81-2.86,2.73-5.95S543.47,236.58,543.58,236.7Z" transform="translate(-12.99 -4.62)"/><path class="cls-4" d="M503.08,258.1a1.72,1.72,0,0,1-.36-.38,4.91,4.91,0,0,1-.69-1.34,6.12,6.12,0,0,1,.84-5.36c1.33-2,4.47-3.22,7.54-2.36a14.11,14.11,0,0,1,4.22,2.37,6.89,6.89,0,0,0,2.17,1,2.65,2.65,0,0,0,2.21-.47,3.79,3.79,0,0,0,1.25-2,6.61,6.61,0,0,0,.12-2.39c-.19-1.61-.58-3.21-.62-4.76a11.52,11.52,0,0,1,2.13-7.82,7.51,7.51,0,0,1,4.69-2.79,5.41,5.41,0,0,1,1.51,0c.34.07.51.12.5.14a9.13,9.13,0,0,0-2,.11,7.5,7.5,0,0,0-4.38,2.83,11.21,11.21,0,0,0-1.9,7.51c.06,1.51.44,3,.65,4.72a5.32,5.32,0,0,1-1.6,5,3.28,3.28,0,0,1-2.73.58,7.45,7.45,0,0,1-2.37-1.14,14.19,14.19,0,0,0-4-2.33,6.5,6.5,0,0,0-7,2.07,6,6,0,0,0-1,5A7.92,7.92,0,0,0,503.08,258.1Z" transform="translate(-12.99 -4.62)"/><path class="cls-4" d="M595.39,259.23a4.86,4.86,0,0,0-.51,0,1.64,1.64,0,0,0-1.19.71,1.56,1.56,0,0,0,0,2,2.37,2.37,0,0,0,2.66.57,3.51,3.51,0,0,0,1.86-2.86,9.26,9.26,0,0,0-.77-4.15,7.24,7.24,0,0,0-2.62-3.74,3.64,3.64,0,0,0-2.28-.48,16.4,16.4,0,0,0-2.52.56,7.45,7.45,0,0,1-2.71.37,3.52,3.52,0,0,1-2.42-1.28,6.46,6.46,0,0,1-1.13-4.83c.17-1.56.53-3,.55-4.33a8.89,8.89,0,0,0-.73-3.62,9.79,9.79,0,0,0-3.38-4.16c-1.07-.72-1.77-.95-1.75-1a1.78,1.78,0,0,1,.52.14,7.81,7.81,0,0,1,1.36.67,9.5,9.5,0,0,1,3.66,4.18,9.16,9.16,0,0,1,.84,3.81c0,1.42-.35,2.87-.5,4.38a5.92,5.92,0,0,0,1,4.37,2.92,2.92,0,0,0,2,1.06,7.31,7.31,0,0,0,2.49-.35,15.2,15.2,0,0,1,2.63-.58,4.28,4.28,0,0,1,2.65.57,7.83,7.83,0,0,1,2.85,4.07,9.8,9.8,0,0,1,.74,4.41,4,4,0,0,1-2.21,3.21,2.72,2.72,0,0,1-3.1-.76,1.81,1.81,0,0,1-.39-1.33,2.13,2.13,0,0,1,.48-1.05,1.77,1.77,0,0,1,1.37-.68A.9.9,0,0,1,595.39,259.23Z" transform="translate(-12.99 -4.62)"/><path class="cls-4" d="M496.7,279a3.49,3.49,0,0,0,.48.08,1.35,1.35,0,0,0,1.08-.7,1.18,1.18,0,0,0,.16-.89,1.34,1.34,0,0,0-.66-.84,2.08,2.08,0,0,0-2.52.39,4.6,4.6,0,0,0-1.2,3.15,3.15,3.15,0,0,0,.47,1.79,2.62,2.62,0,0,0,1.55,1.1,3.72,3.72,0,0,0,3.85-1.23,7,7,0,0,0,1.48-4.41,34.32,34.32,0,0,0-.46-4.89,13,13,0,0,1,.11-4.71,8.18,8.18,0,0,1,2.15-3.7,11.42,11.42,0,0,1,3-2.14,20.42,20.42,0,0,1,5.05-1.63,10.54,10.54,0,0,1,1.91-.31,13.54,13.54,0,0,1-1.85.54,24.07,24.07,0,0,0-4.91,1.79,11.4,11.4,0,0,0-2.85,2.12,7.64,7.64,0,0,0-2,3.47,12.71,12.71,0,0,0-.06,4.49,35.49,35.49,0,0,1,.48,5,7.46,7.46,0,0,1-1.65,4.8,4.42,4.42,0,0,1-2.08,1.38,4.26,4.26,0,0,1-2.4,0,3.22,3.22,0,0,1-1.85-1.37,3.7,3.7,0,0,1-.52-2.09,5,5,0,0,1,1.42-3.46,2.44,2.44,0,0,1,3-.37,1.67,1.67,0,0,1,.78,1.08,1.47,1.47,0,0,1-.26,1.08,1.44,1.44,0,0,1-1.29.7A.72.72,0,0,1,496.7,279Z" transform="translate(-12.99 -4.62)"/><path class="cls-4" d="M538.55,221.7a3.1,3.1,0,0,1-.2-.48,2,2,0,0,0-1-.95,3.26,3.26,0,0,0-2.2-.13,2.41,2.41,0,0,0-1.85,2c-.39,2.14,2.09,4.85,5,4.33a8.23,8.23,0,0,0,4.11-2,23.5,23.5,0,0,0,3.36-3.8,22.68,22.68,0,0,1,3.48-3.88,8.45,8.45,0,0,1,4.45-2,6.63,6.63,0,0,1,4.3,1.12,9.12,9.12,0,0,1,2.68,2.77,14.5,14.5,0,0,1,1.82,5.2c.1.65.16,1.15.19,1.49a1.59,1.59,0,0,1,0,.52,19.23,19.23,0,0,1-.44-2,15.44,15.44,0,0,0-2-5,8.58,8.58,0,0,0-2.59-2.57,6.12,6.12,0,0,0-4-1,7.89,7.89,0,0,0-4.12,1.94A22.09,22.09,0,0,0,546.3,221a23.54,23.54,0,0,1-3.46,3.9,8.73,8.73,0,0,1-4.43,2.08,5,5,0,0,1-4.21-1.36,4.11,4.11,0,0,1-1.35-3.61,2.71,2.71,0,0,1,.83-1.55,3,3,0,0,1,1.37-.7,3.47,3.47,0,0,1,2.4.25,2,2,0,0,1,1,1.13A1.22,1.22,0,0,1,538.55,221.7Z" transform="translate(-12.99 -4.62)"/><path class="cls-8" d="M557.06,225.83a1.13,1.13,0,0,1-.1-.24,2.4,2.4,0,0,0-.32-.66,4.4,4.4,0,0,0-2.25-1.63,12,12,0,0,0-4.44-.63,10.58,10.58,0,0,0-2.76.42,8.67,8.67,0,0,0-2.68,1.56,20.76,20.76,0,0,0-4.77,5.41,11.08,11.08,0,0,0-.87,1.76,5.32,5.32,0,0,1-1.11,1.86A8.72,8.72,0,0,1,534,236a16.62,16.62,0,0,1-2.23.45,9.56,9.56,0,0,0-2.11.72,8.65,8.65,0,0,0-3.47,2.92,7.45,7.45,0,0,0-1.27,4.47,31,31,0,0,0,.59,5,16.12,16.12,0,0,1,.23,5.14,7.39,7.39,0,0,1-2.41,4.41c-2.49,2.25-5.61,3.16-7.79,5.08a7.78,7.78,0,0,0-2.44,3.33,5,5,0,0,0,.33,3.78c.52,1.17,1.27,2.22,1.78,3.37a5.72,5.72,0,0,1,.53,3.57,4.74,4.74,0,0,1-2,2.6,22,22,0,0,0-2.25,1.71,4.86,4.86,0,0,0-1.38,4.05,15.19,15.19,0,0,0,.55,2.81,6.82,6.82,0,0,1,.25,1,.88.88,0,0,1-.11-.23c-.07-.16-.15-.4-.26-.71a12.8,12.8,0,0,1-.67-2.83,6.49,6.49,0,0,1,.11-2.12,4.58,4.58,0,0,1,1.26-2.2,21.93,21.93,0,0,1,2.26-1.78,4.27,4.27,0,0,0,1.79-2.39,5.23,5.23,0,0,0-.53-3.26c-.5-1.09-1.25-2.13-1.82-3.36a5.56,5.56,0,0,1-.38-4.16,8.31,8.31,0,0,1,2.59-3.6c2.3-2,5.42-3,7.75-5.09a6.75,6.75,0,0,0,2.21-4.06,15.61,15.61,0,0,0-.23-4.94,32,32,0,0,1-.6-5.08,8.1,8.1,0,0,1,1.39-4.82,9.24,9.24,0,0,1,3.73-3.11,10,10,0,0,1,2.24-.76,14,14,0,0,0,2.18-.43,8,8,0,0,0,3.56-2.1,4.6,4.6,0,0,0,1-1.68,12,12,0,0,1,.92-1.83,21.18,21.18,0,0,1,4.94-5.49,9.14,9.14,0,0,1,2.84-1.59,10.25,10.25,0,0,1,2.87-.39,11.86,11.86,0,0,1,4.54.75,4.42,4.42,0,0,1,2.27,1.79,1.94,1.94,0,0,1,.27.71A.72.72,0,0,1,557.06,225.83Z" transform="translate(-12.99 -4.62)"/><g class="cls-12"><path d="M508.2,405c-6.7-17.57-6.91-37.67-2.81-56-1,9.79.53,19.52,2.57,29.15,1.91,9,4.21,9.13,2.57,19.16a23.28,23.28,0,0,1-1,4Z" transform="translate(-12.99 -4.62)"/></g><path class="cls-5" d="M526.46,467.25s-46.22,12.8-48.08,13.45c-2.78,1-2.32,11.18,2,11,2.05-.08,35.51,1.24,39.73,1S535.74,488,535.74,488Z" transform="translate(-12.99 -4.62)"/><path class="cls-4" d="M507.21,484.89c-.24,0-.55-2.41-2-5s-3.41-4.07-3.27-4.26,2.38,1.13,3.94,3.87S507.4,484.91,507.21,484.89Z" transform="translate(-12.99 -4.62)"/><path class="cls-4" d="M512,482.71c-.23,0-.7-2.15-1.93-4.56s-2.68-4.11-2.52-4.27,1.94,1.36,3.21,3.92S512.22,482.7,512,482.71Z" transform="translate(-12.99 -4.62)"/><path class="cls-4" d="M516.55,481.5c-.24,0-.06-2.33-1.08-4.89s-2.68-4.15-2.52-4.32,2.16,1.25,3.24,4S516.73,481.56,516.55,481.5Z" transform="translate(-12.99 -4.62)"/><path class="cls-4" d="M515.73,475.53a8.12,8.12,0,0,1-.5-3.44,16.27,16.27,0,0,1,1.16-5.92,2.54,2.54,0,0,1,.74-1.13,1.23,1.23,0,0,1,1.59.08,2,2,0,0,1,.61,1.3,8.52,8.52,0,0,1,.06,1.22,10.3,10.3,0,0,1-.28,2.27,14.08,14.08,0,0,1-1.43,3.53,9.08,9.08,0,0,1-2.07,2.78c-.11-.07.67-1.15,1.59-3a15.29,15.29,0,0,0,1.21-3.44,10.34,10.34,0,0,0,.22-2.11c0-.71,0-1.6-.42-1.94a.44.44,0,0,0-.61-.05,1.82,1.82,0,0,0-.51.81,15.91,15.91,0,0,0-.7,2,18.51,18.51,0,0,0-.61,3.61C515.64,474.2,515.85,475.51,515.73,475.53Z" transform="translate(-12.99 -4.62)"/><path class="cls-4" d="M515.78,475.05a6.73,6.73,0,0,1,3-.48,13.33,13.33,0,0,1,3.28.41,7.14,7.14,0,0,1,1.89.69,2,2,0,0,1,1,2.11,2.29,2.29,0,0,1-1.67,1.65,4.14,4.14,0,0,1-2.07,0,7.94,7.94,0,0,1-3-1.48,8.16,8.16,0,0,1-2.15-2.11,19.89,19.89,0,0,1,2.46,1.66,8.14,8.14,0,0,0,2.84,1.23,3.66,3.66,0,0,0,1.71,0,1.59,1.59,0,0,0,1.13-1.1,1.19,1.19,0,0,0-.69-1.29,7,7,0,0,0-1.68-.66,16.15,16.15,0,0,0-3.11-.54C516.94,475,515.8,475.18,515.78,475.05Z" transform="translate(-12.99 -4.62)"/><path class="cls-4" d="M500.1,485.39c-.23,0,0-2-.91-4.17s-2.41-3.44-2.26-3.62,2,.91,3,3.33S500.29,485.47,500.1,485.39Z" transform="translate(-12.99 -4.62)"/><path class="cls-4" d="M532.36,487.52a9.39,9.39,0,0,1-1.79.84,39.62,39.62,0,0,1-5.14,1.6,73.81,73.81,0,0,1-17.65,1.67c-6.93-.08-13.17-.39-17.7-.57l-5.36-.29a8.78,8.78,0,0,1-2-.21,10.29,10.29,0,0,1,2-.09l5.37,0,17.68.35a82.51,82.51,0,0,0,17.53-1.44C529.73,488.52,532.31,487.38,532.36,487.52Z" transform="translate(-12.99 -4.62)"/><path class="cls-4" d="M533.73,488.58c-.07.1-1.33-.64-3.47-1.57a16.09,16.09,0,0,0-8.74-1.46c-3.49.54-6,2.88-7.57,4.5a27.9,27.9,0,0,1-2.66,2.72,14.48,14.48,0,0,1,2.26-3.09,18.44,18.44,0,0,1,3.07-2.87,11,11,0,0,1,4.77-2,15.27,15.27,0,0,1,9.1,1.72A12.3,12.3,0,0,1,533.73,488.58Z" transform="translate(-12.99 -4.62)"/><path class="cls-4" d="M487.35,490.57c-.08-.05.31-.66.68-1.74a8.44,8.44,0,0,0-1.53-8.28c-.73-.88-1.31-1.31-1.26-1.4s.73.25,1.59,1.1a7.9,7.9,0,0,1,1.61,8.74C487.94,490.09,487.41,490.62,487.35,490.57Z" transform="translate(-12.99 -4.62)"/><path class="cls-8" d="M535.59,419.5h0a1.5,1.5,0,0,1,1.48-1.5l42.93-.54,17-52.55a4.19,4.19,0,0,1,4.1-2.9l65.17,1.83A4.18,4.18,0,0,1,670,369.5l-20.47,54.3L537.05,421A1.49,1.49,0,0,1,535.59,419.5Z" transform="translate(-12.99 -4.62)"/><path class="cls-11" d="M631.89,391.42c-.77-1.41-4-1.88-5.55-.71a4.35,4.35,0,0,0-2,2.59,3.71,3.71,0,0,0,2.25,4.34,4.43,4.43,0,0,0,4.58-1.74A4.23,4.23,0,0,0,631.89,391.42Z" transform="translate(-12.99 -4.62)"/></g></svg>