<svg id="Layer_1" data-name="Layer 1" xmlns="http://www.w3.org/2000/svg" viewBox="0 0 656.74 589.67"><defs><style>.cls-1{fill:#fafafa;}.cls-2{fill:#e0e0e0;}.cls-3{fill:#c10000;}.cls-4,.cls-6{fill:#263238;}.cls-5{fill:#e8505b;}.cls-6{fill-rule:evenodd;}.cls-7{opacity:0.62;}.cls-8{fill:#455a64;}.cls-9{fill:none;}.cls-10{opacity:0.8;}.cls-11{fill:#fff;}.cls-12{opacity:0.3;}.cls-13{opacity:0.5;}.cls-14{fill:#a36957;}.cls-15{fill:#7c3b29;}</style></defs><title>diversified portfolio</title><g id="Dasboard"><path class="cls-1" d="M9,.37H601.27C606.07.37,610,5,610,10.77V504.55c0,5.75-3.89,10.4-8.69,10.4H9c-4.8,0-8.69-4.65-8.69-10.4V10.77C.31,5,4.2.37,9,.37Z" transform="translate(-0.02 0.01)"/><path class="cls-2" d="M589.46,411.21H480.87c-4.81,0-8.71-4.68-8.72-10.44V127.71c0-5.75,3.91-10.41,8.72-10.42H589.46c4.81,0,8.71,4.67,8.72,10.42V400.77C598.17,406.53,594.27,411.2,589.46,411.21ZM480.87,118.73c-4.15,0-7.5,4-7.51,9V400.77c0,5,3.36,9,7.51,9H589.46c4.15,0,7.5-4,7.51-9V127.71c0-5-3.36-9-7.51-9Z" transform="translate(-0.02 0.01)"/><path class="cls-3" d="M9.72.9H47c5.33,0,9.65,5.17,9.65,11.55V503.82c0,6.38-4.32,11.55-9.65,11.55H9.72c-5.33,0-9.65-5.17-9.65-11.55V12.45C.07,6.07,4.39.9,9.72.9Z" transform="translate(-0.02 0.01)"/><path class="cls-1" d="M53.66,222.67H10.14c-1.86,0-3.37,1.81-3.37,4v41.07c0,2.22,1.51,4,3.37,4H57.25c1.86,0,3.37-1.81,3.37-4,0-.14,0-.27,0-.41l4.24-45Z" transform="translate(-0.02 0.01)"/><path class="cls-4" d="M533.73,48.9a2.73,2.73,0,0,1,.3-.21,2.88,2.88,0,0,0,.7-.77,7.83,7.83,0,0,0,1-4,14.6,14.6,0,0,1,.47-3,4,4,0,0,1,2-2.73,3.1,3.1,0,0,1,3.34.52,6.61,6.61,0,0,1,1.58,3.85,17.34,17.34,0,0,1,.14,1.91,4.69,4.69,0,0,0,.18,1.67A6.35,6.35,0,0,0,545,48.63l.65.63h-.82c-3.35,0-6.23-.18-8.15-.26l-3-.1,3.28-.09c2-.09,4.67-.24,7.83-.26l-.18.64a6.92,6.92,0,0,1-1.85-2.85,5.82,5.82,0,0,1-.23-1.91,15.57,15.57,0,0,0-.13-1.81,5.88,5.88,0,0,0-1.34-3.39,2.59,2.59,0,0,0-2.75-.45,3.47,3.47,0,0,0-1.71,2.28,14.85,14.85,0,0,0-.52,2.89,13.06,13.06,0,0,1-.4,2.49,5.42,5.42,0,0,1-.82,1.67,2.37,2.37,0,0,1-.83.72.49.49,0,0,1-.24,0Z" transform="translate(-0.02 0.01)"/><ellipse class="cls-5" cx="542.43" cy="40.07" rx="2.38" ry="2.85"/><path class="cls-6" d="M537.79,50.71h3.28a1.82,1.82,0,0,1-1.55,2,1,1,0,0,1-.24,0,1.44,1.44,0,0,1-1.52-1.41A1.81,1.81,0,0,1,537.79,50.71Z" transform="translate(-0.02 0.01)"/><path class="cls-3" d="M562.44,30.46h16.24c2.49,0,4.51,2.42,4.51,5.4V55.29c0,3-2,5.4-4.51,5.4H562.44c-2.49,0-4.51-2.42-4.51-5.4V35.86C557.93,32.88,560,30.46,562.44,30.46Z" transform="translate(-0.02 0.01)"/><path class="cls-5" d="M289,293c-10.82,0-15.66-10.19-20.33-20-3.86-8.14-7.85-16.55-14.38-16.55-7.3,0-10.88,3.28-15,7.09-4.52,4.14-9.63,8.83-19.68,8.83-11,0-15.58-12.36-20.42-25.45-3.73-10.08-7.94-21.54-14.28-21.54s-10.55,11.42-14.27,21.54c-4.84,13.09-9.41,25.46-20.43,25.46-10.37,0-15.49-6.58-20-12.37-4.14-5.33-7.72-9.91-14.7-9.91v-1.2c7.43,0,11.14,4.79,15.45,10.29s9.33,12,19.25,12c10.35,0,14.79-12,19.49-24.72,3.85-10.42,8.21-22.23,15.21-22.23s11.37,11.81,15.22,22.23c4.7,12.71,9.14,24.72,19.48,24.72,9.7,0,14.67-4.56,19-8.58s8-7.33,15.65-7.33c7.13,0,11.27,8.72,15.27,17.15,4.53,9.57,9.22,19.44,19.44,19.44s14.88-9.26,19.42-18.21c4.17-8.23,8.11-16,15.28-16,7.4,0,11.12,4.95,15.43,10.67s9.33,12.41,19.28,12.41c10.38,0,14.81-12.79,19.5-26.33,3.86-11.15,8.23-23.78,15.21-23.78s11.22,9.71,15.24,19.14c4.52,10.57,9.19,21.48,19.47,21.48,9.93,0,14.89-6.37,19.26-12s8-10.3,15.46-10.3v1.2c-7,0-10.56,4.59-14.7,9.91-4.52,5.79-9.64,12.37-20,12.37-10.91,0-15.73-11.26-20.38-22.15-3.88-9.07-7.89-18.44-14.33-18.44s-10.53,12.24-14.26,23c-4.83,14-9.39,27.11-20.45,27.11-10.41,0-15.53-6.8-20-12.81-4.14-5.5-7.72-10.27-14.66-10.27-6.59,0-10.38,7.49-14.4,15.43C304.61,283.4,299.77,293,289,293Z" transform="translate(-0.02 0.01)"/><path class="cls-2" d="M116.8,310l.27-.37a1.08,1.08,0,0,0,.94.63c.53,0,.8-.37.8-1.2V306h-1.58v-.43h2v3.59c0,1.1-.43,1.64-1.26,1.64A1.37,1.37,0,0,1,116.8,310Z" transform="translate(-0.02 0.01)"/><path class="cls-2" d="M123,308.33v2.39h-.42v-.61a1.16,1.16,0,0,1-1.12.64,1.08,1.08,0,0,1-1.18-1.12c0-.67.32-1.1,1.25-1.1h1v-.24c0-.66-.31-1-.92-1a1.49,1.49,0,0,0-1.08.47l-.2-.4a1.83,1.83,0,0,1,1.32-.52,1.19,1.19,0,0,1,1.34,1.13A1.7,1.7,0,0,1,123,308.33Zm-.44,1.19v-.63h-1c-.63,0-.83.28-.83.69a.74.74,0,0,0,.82.73,1,1,0,0,0,1-.74Z" transform="translate(-0.02 0.01)"/><path class="cls-2" d="M127.17,308.48v2.25h-.44v-2.2a1.05,1.05,0,0,0-.79-1.2h-.21a1.14,1.14,0,0,0-1.14,1.16,1,1,0,0,0,0,.24v2h-.44v-3.89h.42v.72a1.34,1.34,0,0,1,1.24-.75,1.32,1.32,0,0,1,1.36,1.33A1.5,1.5,0,0,1,127.17,308.48Z" transform="translate(-0.02 0.01)"/><path class="cls-2" d="M164,306v2h2.24v.48H164v2.19h-.45v-5.18h3V306Z" transform="translate(-0.02 0.01)"/><path class="cls-2" d="M170,309h-2.7a1.3,1.3,0,0,0,1.27,1.35h0a1.23,1.23,0,0,0,1-.5l.24.33a1.48,1.48,0,0,1-1.25.64,1.74,1.74,0,0,1-1.7-1.79v-.19a1.78,1.78,0,0,1,1.47-2h.11a1.7,1.7,0,0,1,1.58,1.81v.16A.74.74,0,0,0,170,309Zm-2.72-.39h2.31a1.24,1.24,0,0,0-1.26-1.25A1.29,1.29,0,0,0,167.29,308.56Z" transform="translate(-0.02 0.01)"/><path class="cls-2" d="M174.22,308.79a1.78,1.78,0,0,1-1.49,2h-.12a1.39,1.39,0,0,1-1.26-.81v.77h-.42v-5.48h.44v2.33a1.37,1.37,0,0,1,1.24-.76,1.72,1.72,0,0,1,1.61,1.83Zm-.44,0a1.31,1.31,0,0,0-1.26-1.38,1.36,1.36,0,0,0-1.16,1.5,1.34,1.34,0,0,0,1.22,1.39,1.31,1.31,0,0,0,1.2-1.41Z" transform="translate(-0.02 0.01)"/><path class="cls-2" d="M216.16,305.55v5.17h-.44v-4.14L214,310.07h-.22l-1.7-3.46v4.12h-.43v-5.18H212l1.88,3.83,1.86-3.83Z" transform="translate(-0.02 0.01)"/><path class="cls-2" d="M219.93,308.33v2.39h-.42v-.61a1.14,1.14,0,0,1-1.11.64,1.08,1.08,0,0,1-1.19-1.12c0-.67.32-1.1,1.25-1.1h1v-.24c0-.66-.31-1-.92-1a1.49,1.49,0,0,0-1.08.47l-.19-.4a1.78,1.78,0,0,1,1.32-.52,1.18,1.18,0,0,1,1.33,1.11A1.88,1.88,0,0,1,219.93,308.33Zm-.44,1.19v-.63h-1c-.63,0-.84.28-.84.69a.74.74,0,0,0,.82.73,1,1,0,0,0,1-.74Z" transform="translate(-0.02 0.01)"/><path class="cls-2" d="M222.76,306.82v.51h-.1a1.14,1.14,0,0,0-1.11,1.18,2.26,2.26,0,0,0,0,.26v2h-.43v-3.89h.42v.77A1.19,1.19,0,0,1,222.76,306.82Z" transform="translate(-0.02 0.01)"/><path class="cls-2" d="M260.35,309.35h-2.41l-.52,1.38H257l2-5.17h.45l2,5.17h-.48Zm-.17-.44-1-2.77-1,2.77Z" transform="translate(-0.02 0.01)"/><path class="cls-2" d="M265.26,308.79a1.78,1.78,0,0,1-1.49,2h-.12a1.37,1.37,0,0,1-1.24-.77v2.17H262v-5.33h.42v.78a1.34,1.34,0,0,1,1.25-.8,1.72,1.72,0,0,1,1.58,1.86Zm-.43,0a1.23,1.23,0,1,0-1.21,1.45A1.35,1.35,0,0,0,264.83,308.79Z" transform="translate(-0.02 0.01)"/><path class="cls-2" d="M267.8,306.82v.51h-.11a1.15,1.15,0,0,0-1.1,1.2,1.93,1.93,0,0,0,0,.24v2h-.44v-3.89h.42v.77A1.2,1.2,0,0,1,267.8,306.82Z" transform="translate(-0.02 0.01)"/><path class="cls-2" d="M312.52,305.55v5.17h-.44v-4.14l-1.7,3.48h-.21l-1.7-3.46v4.12H308v-5.17h.38l1.87,3.83,1.86-3.83Z" transform="translate(-0.02 0.01)"/><path class="cls-2" d="M316.29,308.33v2.39h-.42v-.61a1.16,1.16,0,0,1-1.12.64,1.08,1.08,0,0,1-1.18-1.12c0-.67.32-1.1,1.25-1.1h1v-.24c0-.66-.31-1-.92-1a1.49,1.49,0,0,0-1.08.47l-.2-.4a1.83,1.83,0,0,1,1.32-.52,1.19,1.19,0,0,1,1.34,1.13A1.7,1.7,0,0,1,316.29,308.33Zm-.44,1.19v-.63h-1c-.63,0-.83.28-.83.69a.74.74,0,0,0,.82.73,1,1,0,0,0,1-.74Z" transform="translate(-0.02 0.01)"/><path class="cls-2" d="M320.15,306.84l-1.62,4.36c-.28.76-.62,1-1.08,1a1,1,0,0,1-.79-.36l.2-.38a.77.77,0,0,0,.59.29c.29,0,.49-.16.68-.65l.14-.38-1.45-3.88h.45l1.23,3.3,1.22-3.3Z" transform="translate(-0.02 0.01)"/><path class="cls-2" d="M353.26,310l.27-.37a1.08,1.08,0,0,0,.94.63c.53,0,.8-.37.8-1.2V306h-1.58v-.43h2v3.59c0,1.1-.43,1.64-1.26,1.64A1.37,1.37,0,0,1,353.26,310Z" transform="translate(-0.02 0.01)"/><path class="cls-2" d="M359.92,306.84v3.89h-.42V310a1.25,1.25,0,0,1-1.16.75,1.35,1.35,0,0,1-1.33-1.39,1,1,0,0,1,0-.24v-2.26h.44v2.2c0,.82.35,1.26,1,1.26a1.17,1.17,0,0,0,1.12-1.2,1.62,1.62,0,0,0,0-.22v-2Z" transform="translate(-0.02 0.01)"/><path class="cls-2" d="M364.14,308.48v2.25h-.44v-2.2a1.05,1.05,0,0,0-.79-1.2h-.21a1.14,1.14,0,0,0-1.14,1.16,1,1,0,0,0,0,.24v2h-.43v-3.89h.42v.72a1.37,1.37,0,0,1,2.59.58A1.5,1.5,0,0,1,364.14,308.48Z" transform="translate(-0.02 0.01)"/><path class="cls-2" d="M401.44,310l.27-.37a1.07,1.07,0,0,0,.93.63c.53,0,.81-.37.81-1.2V306h-1.58v-.43h2v3.59c0,1.1-.44,1.64-1.26,1.64A1.37,1.37,0,0,1,401.44,310Z" transform="translate(-0.02 0.01)"/><path class="cls-2" d="M408.1,306.84v3.89h-.42V310a1.28,1.28,0,0,1-1.16.75,1.33,1.33,0,0,1-1.37-1.34,1.82,1.82,0,0,1,0-.33v-2.26h.43V309a1.09,1.09,0,0,0,.78,1.25.55.55,0,0,0,.22,0,1.15,1.15,0,0,0,1.11-1.19,1.62,1.62,0,0,0,0-.22v-2.05Z" transform="translate(-0.02 0.01)"/><path class="cls-2" d="M409.33,305.25h.44v5.48h-.44Z" transform="translate(-0.02 0.01)"/><path class="cls-2" d="M450.85,309.35h-2.41l-.52,1.38h-.47l2-5.17h.45l2,5.17h-.48Zm-.17-.44-1-2.77-1,2.77Z" transform="translate(-0.02 0.01)"/><path class="cls-2" d="M455.34,306.84v3.89h-.42V310a1.28,1.28,0,0,1-1.17.75,1.35,1.35,0,0,1-1.37-1.36,1.6,1.6,0,0,1,0-.31v-2.26h.44V309a1.09,1.09,0,0,0,.78,1.25.55.55,0,0,0,.22,0,1.16,1.16,0,0,0,1.11-1.21,1.27,1.27,0,0,0,0-.2v-2.05Z" transform="translate(-0.02 0.01)"/><path class="cls-2" d="M459.58,306.84v3.42a1.69,1.69,0,0,1-1.21,1.94,1,1,0,0,1-.42,0,2,2,0,0,1-1.51-.6l.22-.39a1.84,1.84,0,0,0,1.28.53c.82,0,1.2-.46,1.2-1.42v-.49a1.42,1.42,0,0,1-1.27.76,1.7,1.7,0,0,1-1.7-1.74,1.81,1.81,0,0,1,1.45-2h.25a1.4,1.4,0,0,1,1.29.78v-.76Zm-.43,1.86a1.38,1.38,0,0,0-1.19-1.52,1.34,1.34,0,0,0-1.27,1.42,1.39,1.39,0,0,0,1.19,1.52h0a1.26,1.26,0,0,0,1.23-1.3v-.12Z" transform="translate(-0.02 0.01)"/><path class="cls-2" d="M94.18,307.63c0-1.12.49-1.81,1.18-1.81s1.18.69,1.18,1.81-.5,1.81-1.18,1.81S94.18,308.77,94.18,307.63Zm2,0c0-.94-.36-1.47-.87-1.47s-.88.53-.88,1.47.36,1.47.88,1.47.92-.52.92-1.47Z" transform="translate(-0.02 0.01)"/><path class="cls-2" d="M91.49,289.06v3.59h-.31v-3.23h-.7v-.32Z" transform="translate(-0.02 0.01)"/><path class="cls-2" d="M92.2,290.85c0-1.2.49-1.81,1.18-1.81s1.18.67,1.18,1.81-.5,1.79-1.18,1.79S92.2,292,92.2,290.85Zm2,0c0-1-.36-1.48-.87-1.48s-.88.52-.88,1.48.36,1.45.88,1.45.92-.51.92-1.45Z" transform="translate(-0.02 0.01)"/><path class="cls-2" d="M92.69,278.4v.33H90.61v-.26L91.84,277a1.27,1.27,0,0,0,.4-.88.62.62,0,0,0-.69-.67.93.93,0,0,0-.81.4l-.22-.23a1.23,1.23,0,0,1,1-.5.92.92,0,0,1,1,1,1.51,1.51,0,0,1-.49,1.11l-1,1.19Z" transform="translate(-0.02 0.01)"/><path class="cls-2" d="M93.06,277c0-1.13.49-1.8,1.18-1.8s1.18.67,1.18,1.8-.5,1.81-1.18,1.81S93.06,278,93.06,277Zm2,0c0-.94-.36-1.47-.87-1.47s-.88.53-.88,1.47.36,1.48.88,1.48.92-.53.92-1.48Z" transform="translate(-0.02 0.01)"/><path class="cls-2" d="M92.63,263.34a1,1,0,0,1-1.08,1.05,1.42,1.42,0,0,1-1.07-.45l.15-.29a1.25,1.25,0,0,0,.92.41.68.68,0,0,0,.76-.72c0-.44-.25-.71-.8-.71H91.3v-.26l.82-1.2H90.61v-.32h1.9v.25l-.84,1.27A.89.89,0,0,1,92.63,263.34Z" transform="translate(-0.02 0.01)"/><path class="cls-2" d="M93.06,262.59c0-1.13.49-1.81,1.18-1.81s1.18.68,1.18,1.81-.5,1.8-1.18,1.8S93.06,263.67,93.06,262.59Zm2,0c0-.95-.36-1.48-.87-1.48s-.88.53-.88,1.48.36,1.47.88,1.47.92-.53.92-1.47Z" transform="translate(-0.02 0.01)"/><path class="cls-2" d="M93.19,249.54h-.6v1h-.3v-.93H90.62v-.26l1.57-2.4h.34L91,249.22H92.3v-.82h.29v.82h.6Z" transform="translate(-0.02 0.01)"/><path class="cls-2" d="M93.47,248.71c0-1.2.49-1.81,1.18-1.81s1.19.67,1.19,1.81-.5,1.79-1.19,1.79S93.47,249.83,93.47,248.71Zm2,0c0-1-.35-1.48-.87-1.48s-.87.52-.87,1.48.35,1.46.87,1.46S95.52,249.65,95.52,248.71Z" transform="translate(-0.02 0.01)"/><path class="cls-2" d="M92.68,236.16a1,1,0,0,1-1.08,1.07,1.35,1.35,0,0,1-1.06-.45l.15-.29a1.19,1.19,0,0,0,.91.41.69.69,0,0,0,.77-.73c0-.43-.24-.73-1-.73h-.63l.15-1.78h1.62V234H91.16l-.1,1.12h.38C92.34,235.06,92.68,235.49,92.68,236.16Z" transform="translate(-0.02 0.01)"/><path class="cls-2" d="M93.06,235.38c0-1.13.5-1.81,1.19-1.81s1.18.68,1.18,1.81-.5,1.8-1.18,1.8S93.06,236.51,93.06,235.38Zm2.06,0c0-.95-.36-1.47-.87-1.47s-.88.52-.88,1.47.36,1.47.88,1.47S95.12,236.32,95.12,235.38Z" transform="translate(-0.02 0.01)"/><path class="cls-2" d="M92.89,222.21A1,1,0,0,1,92,223.3h-.07c-.79,0-1.21-.64-1.21-1.77s.55-1.83,1.35-1.83a1.21,1.21,0,0,1,.71.19l-.13.29A.91.91,0,0,0,92,220c-.64,0-1,.51-1,1.46v.29a1,1,0,0,1,1.85.42Zm-.3,0a.7.7,0,0,0-.74-.77.73.73,0,0,0-.76.74v0a.74.74,0,0,0,.78.76.69.69,0,0,0,.72-.69v-.07Z" transform="translate(-0.02 0.01)"/><path class="cls-2" d="M93.25,221.5c0-1.14.49-1.81,1.18-1.81s1.18.67,1.18,1.81-.5,1.79-1.18,1.79S93.25,222.62,93.25,221.5Zm2,0c0-1-.35-1.47-.87-1.47s-.87.51-.87,1.47.35,1.46.87,1.46S95.3,222.44,95.3,221.5Z" transform="translate(-0.02 0.01)"/><g class="cls-7"><rect class="cls-2" x="108.41" y="222.37" width="355.25" height="0.36"/><rect class="cls-2" x="108.41" y="236.23" width="355.25" height="0.36"/><rect class="cls-2" x="108.41" y="250.08" width="355.25" height="0.36"/><rect class="cls-2" x="108.41" y="263.94" width="355.25" height="0.36"/><rect class="cls-2" x="108.41" y="277.79" width="355.25" height="0.36"/><rect class="cls-2" x="108.41" y="291.65" width="355.25" height="0.36"/></g><path class="cls-5" d="M188.31,225.39c0-2.33-1.58-4.23-3.53-4.23s-3.53,1.9-3.53,4.23,1.58,4.22,3.53,4.22h0C186.73,229.61,188.31,227.72,188.31,225.39Z" transform="translate(-0.02 0.01)"/><path class="cls-8" d="M292.21,292c0-2.34-1.58-4.23-3.53-4.23s-3.53,1.89-3.53,4.23,1.58,4.22,3.53,4.22h0C290.63,296.17,292.21,294.28,292.21,292Z" transform="translate(-0.02 0.01)"/><path class="cls-1" d="M36.81,110.85a.41.41,0,0,1-.3-.14l-8.12-8.79-8.12,8.79a.4.4,0,0,1-.64,0,.6.6,0,0,1,0-.76h0l8.42-9.12a.4.4,0,0,1,.61,0l8.42,9.12a.6.6,0,0,1,0,.76h0A.4.4,0,0,1,36.81,110.85Z" transform="translate(-0.02 0.01)"/><path class="cls-1" d="M34.5,118.55H22.27a.51.51,0,0,1-.45-.54V107.83a.46.46,0,1,1,.9,0v9.64H34v-9.64a.46.46,0,1,1,.9,0V118A.52.52,0,0,1,34.5,118.55Z" transform="translate(-0.02 0.01)"/><path class="cls-1" d="M36,181.62H20a.5.5,0,0,1-.45-.54V168.92a2.55,2.55,0,0,1,2.29-2.73H26a2.6,2.6,0,0,1,2.38,1.89l.71,2h5a2.55,2.55,0,0,1,2.29,2.73v8.28A.52.52,0,0,1,36,181.62Zm-15.48-1.07h15v-7.71a1.54,1.54,0,0,0-1.38-1.65H28.81a.46.46,0,0,1-.42-.34l-.83-2.39a1.7,1.7,0,0,0-1.54-1.2H21.88a1.54,1.54,0,0,0-1.38,1.66h0Z" transform="translate(-0.02 0.01)"/><path class="cls-1" d="M23.51,405a1.09,1.09,0,0,1-.71-.27,1.53,1.53,0,0,1-.48-1.39L23,398.3a.37.37,0,0,0-.08-.31l-3-3.59a1.64,1.64,0,0,1-.3-1.46,1.3,1.3,0,0,1,1-1l4.24-.81a.34.34,0,0,0,.22-.19l2-4.57a1.14,1.14,0,0,1,1.71-.52,1.49,1.49,0,0,1,.44.52l2,4.57a.32.32,0,0,0,.22.19l4.23.81a1.45,1.45,0,0,1,1,1.69,1.56,1.56,0,0,1-.29.7l-3,3.59a.41.41,0,0,0-.09.31l.67,5.07a1.57,1.57,0,0,1-.48,1.39,1.05,1.05,0,0,1-1.42.14l-3.82-2.32a.22.22,0,0,0-.27,0L24,404.85A.92.92,0,0,1,23.51,405Zm4.5-3.59a1,1,0,0,1,.55.16l3.82,2.32a.27.27,0,0,0,.32,0,.42.42,0,0,0,.12-.35l-.67-5.07a1.63,1.63,0,0,1,.34-1.2l3-3.58a.39.39,0,0,0,.07-.36.3.3,0,0,0-.24-.24l-4.23-.82a1.25,1.25,0,0,1-.89-.76L28.25,387h0a.29.29,0,0,0-.27-.21.31.31,0,0,0-.26.21l-2,4.57a1.21,1.21,0,0,1-.88.76l-4.24.82a.29.29,0,0,0-.23.24.39.39,0,0,0,.07.36l3,3.58a1.63,1.63,0,0,1,.34,1.2l-.67,5.07a.39.39,0,0,0,.12.35.23.23,0,0,0,.31,0l3.83-2.32a1,1,0,0,1,.64-.17Z" transform="translate(-0.02 0.01)"/><path class="cls-1" d="M37,328.9H19.06a.51.51,0,0,1-.45-.55V314.86a.51.51,0,0,1,.45-.55H37a.52.52,0,0,1,.46.55v13.49A.52.52,0,0,1,37,328.9Zm-17.44-1.08h17V315.4h-17Z" transform="translate(-0.02 0.01)"/><path class="cls-1" d="M28.23,325.1a.43.43,0,0,1-.3-.13l-9.17-9.71a.63.63,0,0,1,0-.76.41.41,0,0,1,.64,0h0l8.86,9.38,8.44-9.38a.4.4,0,0,1,.64,0,.62.62,0,0,1,0,.77h0L28.58,325A.42.42,0,0,1,28.23,325.1Z" transform="translate(-0.02 0.01)"/><path class="cls-1" d="M19.32,328.28a.41.41,0,0,1-.32-.15.62.62,0,0,1,0-.77h0l5.45-6.52a.4.4,0,0,1,.64,0,.62.62,0,0,1,0,.77l-5.45,6.52A.41.41,0,0,1,19.32,328.28Z" transform="translate(-0.02 0.01)"/><path class="cls-1" d="M37.08,328.76a.43.43,0,0,1-.32-.16l-5.82-7a.6.6,0,0,1,0-.76h0a.42.42,0,0,1,.64,0l5.82,7a.62.62,0,0,1,0,.77A.43.43,0,0,1,37.08,328.76Z" transform="translate(-0.02 0.01)"/><rect class="cls-5" x="27.04" y="242.27" width="2.65" height="3.17"/><rect class="cls-5" x="32.02" y="242.27" width="2.65" height="3.17"/><rect class="cls-5" x="22.05" y="242.27" width="2.65" height="3.17"/><rect class="cls-5" x="32.02" y="247.25" width="2.65" height="3.17"/><rect class="cls-5" x="27.04" y="247.25" width="2.65" height="3.17"/><rect class="cls-5" x="22.05" y="247.25" width="2.65" height="3.17"/><path class="cls-5" d="M37.77,255.8H19a.51.51,0,0,1-.46-.54V236.79a.51.51,0,0,1,.46-.54H37.77a.51.51,0,0,1,.46.54V255.3A.5.5,0,0,1,37.77,255.8Zm-18.32-1.08H37.32V237.35H19.45Z" transform="translate(-0.02 0.01)"/><path class="cls-5" d="M24.07,239.57a.52.52,0,0,1-.45-.55v-6a.51.51,0,0,1,.45-.54.51.51,0,0,1,.46.54v6A.53.53,0,0,1,24.07,239.57Z" transform="translate(-0.02 0.01)"/><path class="cls-5" d="M32.23,239.57a.52.52,0,0,1-.45-.55v-6a.51.51,0,0,1,.45-.54.51.51,0,0,1,.46.54v6A.53.53,0,0,1,32.23,239.57Z" transform="translate(-0.02 0.01)"/><rect class="cls-3" x="161.29" y="435.58" width="6.02" height="24.12"/><rect class="cls-3" x="111.02" y="432.09" width="6.02" height="27.61"/><rect class="cls-3" x="123.59" y="426.33" width="6.02" height="33.37"/><rect class="cls-3" x="136.16" y="428.16" width="6.02" height="31.54"/><rect class="cls-3" x="148.72" y="417.49" width="6.02" height="42.21"/><rect class="cls-3" x="173.86" y="417.69" width="6.02" height="42.01"/><rect class="cls-3" x="186.42" y="431.5" width="6.02" height="28.21"/><rect class="cls-3" x="198.99" y="419.55" width="6.02" height="40.15"/><rect class="cls-3" x="211.56" y="410.5" width="6.02" height="49.2"/><rect class="cls-3" x="224.12" y="419.34" width="6.02" height="40.36"/><path class="cls-2" d="M242.74,489.59h-148c-6.76,0-12.24-6.54-12.25-14.62V369.08c0-8.07,5.48-14.61,12.22-14.62h148c6.76,0,12.27,6.48,12.3,14.57V475c0,8.08-5.5,14.63-12.26,14.62Zm-148-133.68c-6.08,0-11,5.89-11,13.16V475c0,7.27,4.92,13.16,11,13.16h148c6.08,0,11-5.89,11-13.16V369.08c0-7.27-4.92-13.16-11-13.16Z" transform="translate(-0.02 0.01)"/><path class="cls-2" d="M179,389.67c0,.2-17.12.37-38.24.37s-38.24-.17-38.24-.37,17.12-.38,38.24-.38S179,389.46,179,389.67Z" transform="translate(-0.02 0.01)"/><path class="cls-9" d="M314,410.32a22.7,22.7,0,0,0-7.47,8.94,26.73,26.73,0,0,0-2,5.89,29.33,29.33,0,0,0,0,12.65,26.73,26.73,0,0,0,2,5.89,24.4,24.4,0,0,0,3.24,5.06,21.48,21.48,0,0,0,4.23,3.88,18.07,18.07,0,0,0,10.22,3.29,16.77,16.77,0,0,0,5.28-.85,20,20,0,0,0,9.1-6.27h.05a24.4,24.4,0,0,0,3.24-5.06,27.4,27.4,0,0,0,2.06-5.89,29.38,29.38,0,0,0,.05-12.66,26.31,26.31,0,0,0-5.3-10.94C332.18,406.38,322,404.77,314,410.32Z" transform="translate(-0.02 0.01)"/><path class="cls-5" d="M334.46,452.63a18.35,18.35,0,0,1-4.92,2.39,16.85,16.85,0,0,1-10.53.08,18.06,18.06,0,0,1-4.92-2.39,21.73,21.73,0,0,1-4.23-3.87,24.48,24.48,0,0,1-3.24-5.07,26.47,26.47,0,0,1-2-5.88,29.38,29.38,0,0,1,0-12.66,26.73,26.73,0,0,1,2-5.89,22.67,22.67,0,0,1,7.47-8.93A18.09,18.09,0,0,1,319,408a16.87,16.87,0,0,1,5.3-.83v-4.79c-6.48-.05-12.7,3-17.3,8.45a28.62,28.62,0,0,0-3.88,6.06,31.8,31.8,0,0,0-2.45,7.05,34.88,34.88,0,0,0,0,15.15,32.06,32.06,0,0,0,2.45,7.06,29.13,29.13,0,0,0,3.88,6.06,25.68,25.68,0,0,0,5.06,4.63,21.74,21.74,0,0,0,5.91,2.93,20.58,20.58,0,0,0,12.66,0,21.62,21.62,0,0,0,5.89-2.93,25.16,25.16,0,0,0,5-4.59l-2.85-3.41A20.59,20.59,0,0,1,334.46,452.63Z" transform="translate(-0.02 0.01)"/><path class="cls-2" d="M347.87,423.9a32.29,32.29,0,0,0-2.44-7,29.59,29.59,0,0,0-3.89-6.06,25.55,25.55,0,0,0-5.06-4.66,21.47,21.47,0,0,0-12.22-3.91V407a18.94,18.94,0,0,1,14.43,7.18,26.34,26.34,0,0,1,5.32,11,29.38,29.38,0,0,1,0,12.66,27.4,27.4,0,0,1-2.06,5.89,24.4,24.4,0,0,1-3.24,5.06h0l2.85,3.41h0a29.39,29.39,0,0,0,3.89-6.07,34.42,34.42,0,0,0,2.44-22.2Z" transform="translate(-0.02 0.01)"/><path class="cls-4" d="M320.33,434.57a2.43,2.43,0,0,1-2.22,2.61h-.19c-1.87,0-2.89-1.56-2.89-4.22,0-2.86,1.31-4.36,3.23-4.36a2.8,2.8,0,0,1,1.67.46l-.29.69a2.15,2.15,0,0,0-1.37-.39c-1.52,0-2.5,1.19-2.5,3.45v.7a2.19,2.19,0,0,1,2.16-1.45,2.24,2.24,0,0,1,2.38,2.2C320.32,434.36,320.33,434.47,320.33,434.57Zm-.71,0a1.69,1.69,0,0,0-1.78-1.82,1.74,1.74,0,0,0-1.8,1.75.41.41,0,0,0,0,.11,1.77,1.77,0,0,0,1.87,1.81,1.65,1.65,0,0,0,1.71-1.64,1.09,1.09,0,0,0,0-.18Z" transform="translate(-0.02 0.01)"/><path class="cls-4" d="M326,434.61a2.37,2.37,0,0,1-2.56,2.56,3.28,3.28,0,0,1-2.53-1.09l.35-.68a2.84,2.84,0,0,0,2.17,1,1.64,1.64,0,0,0,1.83-1.72c0-1-.56-1.77-2.35-1.77h-1.51l.37-4.23h3.86v.77h-3.23l-.24,2.69H323C325.15,432.12,326,433.13,326,434.61Z" transform="translate(-0.02 0.01)"/><path class="cls-4" d="M326.68,430.89c0-1.38.64-2.29,1.59-2.29s1.59.9,1.59,2.29-.65,2.3-1.59,2.3S326.68,432.26,326.68,430.89Zm2.68,0c0-1.1-.44-1.75-1.09-1.75s-1.09.66-1.09,1.75.42,1.75,1.09,1.75S329.36,432,329.36,430.89Zm3.18-2.23h.6l-4.82,8.5h-.59ZM331,434.87c0-1.37.66-2.29,1.59-2.29s1.59.92,1.59,2.29-.64,2.29-1.59,2.29A1.92,1.92,0,0,1,331,435,1,1,0,0,1,331,434.87Zm2.68,0c0-1.09-.42-1.74-1.09-1.74s-1.09.64-1.09,1.74.44,1.75,1.09,1.75,1.08-.66,1.08-1.75Z" transform="translate(-0.02 0.01)"/><path class="cls-2" d="M419.12,431.49a34.82,34.82,0,0,1-.83,7.56,32.31,32.31,0,0,1-2.45,7.05,27.12,27.12,0,0,1-8.95,10.7,21.62,21.62,0,0,1-5.89,2.93,20.58,20.58,0,0,1-12.66,0,21.62,21.62,0,0,1-5.89-2.93,25.19,25.19,0,0,1-5.07-4.64,29.13,29.13,0,0,1-3.88-6.06,31.8,31.8,0,0,1-2.45-7.05,36.76,36.76,0,0,1-.78-5.54h4.06A27.38,27.38,0,0,0,377,443.69a24.48,24.48,0,0,0,3.26,5.06,21.79,21.79,0,0,0,4.22,3.89,17.54,17.54,0,0,0,20.42,0,21.79,21.79,0,0,0,4.22-3.89,24.48,24.48,0,0,0,3.26-5.06,28,28,0,0,0,2.73-12.2c0-13.48-9.09-24.42-20.35-24.45h-.08v-4.78a21.14,21.14,0,0,1,6.34,1,22.36,22.36,0,0,1,5.89,2.93,27.16,27.16,0,0,1,8.95,10.71,32.31,32.31,0,0,1,2.45,7.05A35.28,35.28,0,0,1,419.12,431.49Z" transform="translate(-0.02 0.01)"/><path class="cls-4" d="M389.15,428.18v.6l-2.95,7.83h-.79l2.91-7.67h-3.63v1.58H384v-2.4Z" transform="translate(-0.02 0.01)"/><path class="cls-4" d="M394.71,434.13a2.37,2.37,0,0,1-2.56,2.56,3.27,3.27,0,0,1-2.53-1.09l.35-.68a2.8,2.8,0,0,0,2.17,1,1.63,1.63,0,0,0,1.83-1.72c0-1-.56-1.8-2.36-1.8h-1.5l.37-4.22h3.85v.76h-3.22l-.24,2.7h.9C393.9,431.64,394.71,432.64,394.71,434.13Z" transform="translate(-0.02 0.01)"/><path class="cls-4" d="M395.43,430.41c0-1.38.64-2.3,1.59-2.3s1.59.91,1.59,2.3S398,432.7,397,432.7,395.43,431.79,395.43,430.41Zm2.68,0c0-1.1-.44-1.75-1.09-1.75s-1.09.66-1.09,1.75.42,1.75,1.09,1.75S398.11,431.51,398.11,430.41Zm3.18-2.23h.6l-4.82,8.44h-.6Zm-1.54,6.21c0-1.37.65-2.29,1.59-2.29s1.59.92,1.59,2.29-.64,2.29-1.59,2.29S399.75,435.76,399.75,434.39Zm2.68,0c0-1.08-.42-1.75-1.09-1.75s-1.09.65-1.09,1.75.44,1.75,1.09,1.75,1.09-.67,1.09-1.75Z" transform="translate(-0.02 0.01)"/><path class="cls-5" d="M415.09,431.49a28,28,0,0,1-2.73,12.2,24.48,24.48,0,0,1-3.26,5.06,21.79,21.79,0,0,1-4.22,3.89,17.54,17.54,0,0,1-20.42,0,21.79,21.79,0,0,1-4.22-3.89,24.48,24.48,0,0,1-3.26-5.06,27.38,27.38,0,0,1-2.65-10.18h0c-.05-.67-.08-1.34-.08-2,0-8.72,3.89-16.79,10.21-21.15a18.06,18.06,0,0,1,4.92-2.39,17.06,17.06,0,0,1,5.29-.84v-4.78c-13.49,0-24.44,13.06-24.45,29.2v.05c0,.68,0,1.36.06,2h0a36.58,36.58,0,0,0,.78,5.54,31.8,31.8,0,0,0,2.45,7.05,28.62,28.62,0,0,0,3.88,6.06,25.54,25.54,0,0,0,5.07,4.65,21.91,21.91,0,0,0,5.89,2.93,20.73,20.73,0,0,0,12.66,0,21.91,21.91,0,0,0,5.89-2.93,27.23,27.23,0,0,0,9-10.71,32.31,32.31,0,0,0,2.45-7.05,34.82,34.82,0,0,0,.83-7.56Z" transform="translate(-0.02 0.01)"/><path class="cls-2" d="M438.38,487.73H280.54c-5.86,0-10.61-5.69-10.62-12.7V369c0-7,4.76-12.69,10.62-12.71H438.38C444.24,356.32,449,362,449,369V475C449,482,444.25,487.73,438.38,487.73Zm-157.84-130c-5.19,0-9.4,5.05-9.41,11.26V475c0,6.21,4.21,11.25,9.41,11.27H438.38c5.2,0,9.4-5.06,9.41-11.27V369c0-6.21-4.22-11.25-9.41-11.26Z" transform="translate(-0.02 0.01)"/><path class="cls-2" d="M361.12,386.09c0,.22-16.51.39-36.86.39s-36.86-.17-36.86-.39,16.5-.37,36.86-.37S361.12,385.89,361.12,386.09Z" transform="translate(-0.02 0.01)"/><path class="cls-2" d="M491.54,241.46h0a2.79,2.79,0,0,1-2.52-3V182a2.8,2.8,0,0,1,2.52-3h0a2.79,2.79,0,0,1,2.51,3v56.41A2.79,2.79,0,0,1,491.54,241.46Z" transform="translate(-0.02 0.01)"/><path class="cls-5" d="M491.54,241.73h0a2.8,2.8,0,0,1-2.52-3V202.34a2.8,2.8,0,0,1,2.52-3h0a2.81,2.81,0,0,1,2.51,3v36.38A2.8,2.8,0,0,1,491.54,241.73Z" transform="translate(-0.02 0.01)"/><path class="cls-4" d="M490,244.08v5h-.44v-4.57h-1v-.47Z" transform="translate(-0.02 0.01)"/><path class="cls-4" d="M491,246.59c0-1.6.7-2.55,1.67-2.55s1.68,1,1.68,2.55-.71,2.55-1.68,2.55S491,248.19,491,246.59Zm2.91,0c0-1.34-.51-2.08-1.24-2.08s-1.23.74-1.23,2.08.5,2.08,1.23,2.08S493.86,247.93,493.86,246.59Z" transform="translate(-0.02 0.01)"/><path class="cls-2" d="M501.58,241.46h0a2.79,2.79,0,0,1-2.51-3h0V182a2.79,2.79,0,0,1,2.51-3h0a2.8,2.8,0,0,1,2.52,3h0v56.41a2.79,2.79,0,0,1-2.51,3Z" transform="translate(-0.02 0.01)"/><path class="cls-5" d="M501.58,241.73h0a2.8,2.8,0,0,1-2.51-3V190.86a2.81,2.81,0,0,1,2.51-3h0a2.8,2.8,0,0,1,2.52,3h0v47.86a2.8,2.8,0,0,1-2.52,3Z" transform="translate(-0.02 0.01)"/><path class="cls-4" d="M501,248.63v.47h-3v-.37l1.75-2a1.75,1.75,0,0,0,.56-1.19.88.88,0,0,0-1-1,1.33,1.33,0,0,0-1.15.57l-.3-.32a1.72,1.72,0,0,1,1.48-.71,1.27,1.27,0,0,1,1.39,1.35,2.19,2.19,0,0,1-.69,1.57l-1.42,1.67Z" transform="translate(-0.02 0.01)"/><path class="cls-4" d="M501.5,246.59c0-1.6.7-2.55,1.67-2.55s1.67,1,1.67,2.55-.7,2.55-1.67,2.55S501.5,248.19,501.5,246.59Zm2.9,0c0-1.34-.5-2.08-1.23-2.08s-1.24.74-1.24,2.08.51,2.08,1.24,2.08S504.4,247.93,504.4,246.59Z" transform="translate(-0.02 0.01)"/><path class="cls-2" d="M511.63,241.46h0a2.79,2.79,0,0,1-2.51-3h0V182a2.78,2.78,0,0,1,2.5-3h0a2.8,2.8,0,0,1,2.52,3h0v56.41a2.79,2.79,0,0,1-2.51,3Z" transform="translate(-0.02 0.01)"/><path class="cls-5" d="M511.63,241.73h0a2.78,2.78,0,0,1-2.51-3h0V210.93a2.79,2.79,0,0,1,2.51-3h0a2.8,2.8,0,0,1,2.52,3v27.79a2.8,2.8,0,0,1-2.52,3Z" transform="translate(-0.02 0.01)"/><path class="cls-4" d="M511,247.65a1.4,1.4,0,0,1-1.52,1.49,2,2,0,0,1-1.51-.65l.21-.41a1.64,1.64,0,0,0,1.3.59,1,1,0,0,0,1.08-1c0-.62-.36-1-1.14-1h-.3v-.38l1.17-1.74h-2.15v-.46h2.7v.37l-1.19,1.78A1.34,1.34,0,0,1,511,247.65Z" transform="translate(-0.02 0.01)"/><path class="cls-4" d="M511.58,246.59c0-1.6.7-2.55,1.67-2.55s1.68,1,1.68,2.55-.71,2.55-1.68,2.55S511.58,248.19,511.58,246.59Zm2.91,0c0-1.34-.51-2.08-1.24-2.08s-1.23.74-1.23,2.08.5,2.08,1.23,2.08S514.49,247.93,514.49,246.59Z" transform="translate(-0.02 0.01)"/><path class="cls-2" d="M521.68,241.46h0a2.79,2.79,0,0,1-2.51-3h0V182a2.78,2.78,0,0,1,2.5-3h0a2.78,2.78,0,0,1,2.51,3h0v56.41A2.79,2.79,0,0,1,521.68,241.46Z" transform="translate(-0.02 0.01)"/><path class="cls-5" d="M521.68,241.73h0a2.78,2.78,0,0,1-2.51-3h0V190.86a2.8,2.8,0,0,1,2.5-3h0a2.79,2.79,0,0,1,2.51,3h0v47.86a2.79,2.79,0,0,1-2.5,3Z" transform="translate(-0.02 0.01)"/><path class="cls-4" d="M521.7,247.77h-.84v1.33h-.43v-1.33h-2.36v-.37l2.22-3.32h.48l-2.15,3.24h1.82v-1.2h.42v1.2h.84Z" transform="translate(-0.02 0.01)"/><path class="cls-4" d="M522.09,246.59c0-1.6.7-2.55,1.67-2.55s1.68,1,1.68,2.55-.71,2.55-1.68,2.55S522.09,248.19,522.09,246.59Zm2.91,0c0-1.34-.51-2.08-1.24-2.08s-1.23.74-1.23,2.08.5,2.08,1.23,2.08,1.25-.74,1.25-2.08Z" transform="translate(-0.02 0.01)"/><path class="cls-2" d="M531.73,241.46h0a2.79,2.79,0,0,1-2.52-3V182a2.8,2.8,0,0,1,2.52-3h0a2.78,2.78,0,0,1,2.51,3h0v56.41A2.79,2.79,0,0,1,531.73,241.46Z" transform="translate(-0.02 0.01)"/><path class="cls-5" d="M531.73,241.73h0a2.8,2.8,0,0,1-2.52-3h0V200.06a2.8,2.8,0,0,1,2.52-3h0a2.79,2.79,0,0,1,2.51,3h0v38.66a2.79,2.79,0,0,1-2.5,3Z" transform="translate(-0.02 0.01)"/><path class="cls-4" d="M531.5,247.62a1.4,1.4,0,0,1-1.52,1.52,2,2,0,0,1-1.5-.65l.21-.41a1.68,1.68,0,0,0,1.29.59,1,1,0,0,0,1.09-1c0-.61-.34-1-1.4-1h-.9l.22-2.52h2.29v.45h-1.91l-.15,1.59h.54C531,246.13,531.5,246.73,531.5,247.62Z" transform="translate(-0.02 0.01)"/><path class="cls-4" d="M532,246.59c0-1.6.7-2.55,1.67-2.55s1.67,1,1.67,2.55-.7,2.55-1.67,2.55S532,248.19,532,246.59Zm2.9,0c0-1.34-.5-2.08-1.23-2.08s-1.24.74-1.24,2.08.51,2.08,1.24,2.08,1.27-.74,1.27-2.08Z" transform="translate(-0.02 0.01)"/><path class="cls-2" d="M541.77,241.46h0a2.79,2.79,0,0,1-2.51-3h0V182a2.79,2.79,0,0,1,2.51-3h0a2.8,2.8,0,0,1,2.52,3h0v56.41a2.79,2.79,0,0,1-2.51,3Z" transform="translate(-0.02 0.01)"/><path class="cls-5" d="M541.77,241.46h0a2.71,2.71,0,0,1-2.51-2.74V210.93a2.94,2.94,0,0,1,2.4-3.26h.11a2.78,2.78,0,0,1,2.52,3h0v27.78a2.79,2.79,0,0,1-2.51,3Z" transform="translate(-0.02 0.01)"/><path class="cls-4" d="M541.45,247.61a1.43,1.43,0,0,1-1.33,1.53H540c-1.11,0-1.71-.92-1.71-2.5s.77-2.6,1.91-2.6a1.59,1.59,0,0,1,1,.28l-.18.4a1.26,1.26,0,0,0-.81-.22c-.91,0-1.49.69-1.49,2V247a1.3,1.3,0,0,1,1.28-.86,1.35,1.35,0,0,1,1.43,1.33A1.09,1.09,0,0,1,541.45,247.61Zm-.43,0a1,1,0,0,0-.95-1.1H540a1.07,1.07,0,0,0-1.08,1.09h0a1,1,0,0,0,1.11,1.07,1,1,0,0,0,1-1.05v0Z" transform="translate(-0.02 0.01)"/><path class="cls-4" d="M541.94,246.59c0-1.6.7-2.55,1.67-2.55s1.68,1,1.68,2.55-.71,2.55-1.68,2.55S541.94,248.19,541.94,246.59Zm2.9,0c0-1.34-.5-2.08-1.23-2.08s-1.23.74-1.23,2.08.5,2.08,1.23,2.08S544.84,247.93,544.84,246.59Z" transform="translate(-0.02 0.01)"/><path class="cls-2" d="M551.82,241.46h0a2.79,2.79,0,0,1-2.51-3h0V182a2.78,2.78,0,0,1,2.5-3h0a2.8,2.8,0,0,1,2.52,3h0v56.41a2.79,2.79,0,0,1-2.51,3Z" transform="translate(-0.02 0.01)"/><path class="cls-5" d="M551.82,241.73h0a2.78,2.78,0,0,1-2.51-3h0V188a2.78,2.78,0,0,1,2.51-3h0a2.8,2.8,0,0,1,2.52,3v50.7a2.8,2.8,0,0,1-2.52,3Z" transform="translate(-0.02 0.01)"/><path class="cls-4" d="M551.29,244.08v.37l-1.76,4.65h-.47l1.73-4.56h-2.16v.94h-.42v-1.4Z" transform="translate(-0.02 0.01)"/><path class="cls-4" d="M551.73,246.59c0-1.6.7-2.55,1.67-2.55s1.68,1,1.68,2.55-.71,2.55-1.68,2.55S551.73,248.19,551.73,246.59Zm2.91,0c0-1.34-.51-2.08-1.24-2.08s-1.23.74-1.23,2.08.5,2.08,1.23,2.08,1.24-.74,1.24-2.08Z" transform="translate(-0.02 0.01)"/><path class="cls-2" d="M561.87,241.46h0a2.79,2.79,0,0,1-2.51-3h0V182a2.78,2.78,0,0,1,2.5-3h0a2.78,2.78,0,0,1,2.51,3h0v56.41A2.79,2.79,0,0,1,561.87,241.46Z" transform="translate(-0.02 0.01)"/><path class="cls-5" d="M561.87,241.73h0a2.78,2.78,0,0,1-2.51-3h0V216.67a2.79,2.79,0,0,1,2.51-3h0a2.79,2.79,0,0,1,2.51,3h0v22.05a2.79,2.79,0,0,1-2.5,3Z" transform="translate(-0.02 0.01)"/><path class="cls-4" d="M561.37,247.7a1.64,1.64,0,0,1-3.25,0,1.15,1.15,0,0,1,.81-1.19,1.21,1.21,0,0,1-.66-1.11,1.48,1.48,0,0,1,3,0,1.22,1.22,0,0,1-.67,1.11A1.15,1.15,0,0,1,561.37,247.7Zm-.44,0c0-.61-.45-1-1.19-1s-1.18.39-1.18,1,.44,1,1.18,1,1.19-.41,1.19-1Zm-1.19-1.41c.65,0,1-.35,1-.9a1,1,0,0,0-2,0c0,.56.35.89,1,.89Z" transform="translate(-0.02 0.01)"/><path class="cls-4" d="M562,246.59c0-1.6.7-2.55,1.67-2.55s1.67,1,1.67,2.55-.7,2.55-1.67,2.55S562,248.19,562,246.59Zm2.9,0c0-1.34-.5-2.08-1.23-2.08s-1.24.74-1.24,2.08.51,2.08,1.24,2.08,1.19-.74,1.19-2.08Z" transform="translate(-0.02 0.01)"/><path class="cls-2" d="M571.92,241.46h0a2.79,2.79,0,0,1-2.52-3V182a2.8,2.8,0,0,1,2.52-3h0a2.78,2.78,0,0,1,2.51,3h0v56.41A2.79,2.79,0,0,1,571.92,241.46Z" transform="translate(-0.02 0.01)"/><path class="cls-5" d="M571.92,241.46h0a2.71,2.71,0,0,1-2.52-2.74V231a3,3,0,0,1,2.41-3.28h.11a2.78,2.78,0,0,1,2.51,3h0v7.73a2.79,2.79,0,0,1-2.51,3Z" transform="translate(-0.02 0.01)"/><path class="cls-4" d="M571.16,246.54c0,1.71-.78,2.6-1.92,2.6a1.57,1.57,0,0,1-1-.28l.17-.4a1.34,1.34,0,0,0,.82.22c.9,0,1.48-.69,1.48-2v-.41a1.31,1.31,0,0,1-1.29.85,1.35,1.35,0,0,1-1.4-1.34.86.86,0,0,1,0-.16,1.45,1.45,0,0,1,1.32-1.55h.11C570.56,244,571.16,245,571.16,246.54Zm-.59-1a1.05,1.05,0,0,0-1.11-1.08,1,1,0,0,0-1,1v.09a1,1,0,0,0,1,1.09,1.07,1.07,0,0,0,1.06-1.1Z" transform="translate(-0.02 0.01)"/><path class="cls-4" d="M571.78,246.59c0-1.6.7-2.55,1.67-2.55s1.68,1,1.68,2.55-.71,2.55-1.68,2.55S571.78,248.19,571.78,246.59Zm2.91,0c0-1.34-.51-2.08-1.24-2.08s-1.23.74-1.23,2.08.5,2.08,1.23,2.08S574.69,247.93,574.69,246.59Z" transform="translate(-0.02 0.01)"/><path class="cls-2" d="M582,241.46h0a2.79,2.79,0,0,1-2.52-3V182a2.8,2.8,0,0,1,2.52-3h0a2.79,2.79,0,0,1,2.51,3v56.41A2.79,2.79,0,0,1,582,241.46Z" transform="translate(-0.02 0.01)"/><path class="cls-5" d="M582,241.46h0a2.71,2.71,0,0,1-2.52-2.74V210.93a2.94,2.94,0,0,1,2.4-3.26H582a2.78,2.78,0,0,1,2.51,3h0v27.78a2.79,2.79,0,0,1-2.51,3Z" transform="translate(-0.02 0.01)"/><path class="cls-4" d="M578.36,244.08v5h-.43v-4.57h-1v-.47Z" transform="translate(-0.02 0.01)"/><path class="cls-4" d="M579.36,246.59c0-1.6.7-2.55,1.67-2.55s1.68,1,1.68,2.55-.71,2.55-1.68,2.55S579.36,248.19,579.36,246.59Zm2.91,0c0-1.34-.51-2.08-1.24-2.08s-1.23.74-1.23,2.08.5,2.08,1.23,2.08,1.24-.74,1.24-2.08Z" transform="translate(-0.02 0.01)"/><path class="cls-4" d="M583.32,246.59c0-1.6.7-2.55,1.67-2.55s1.68,1,1.68,2.55-.71,2.55-1.68,2.55S583.32,248.19,583.32,246.59Zm2.91,0c0-1.34-.5-2.08-1.24-2.08s-1.23.74-1.23,2.08.5,2.08,1.23,2.08S586.23,247.93,586.23,246.59Z" transform="translate(-0.02 0.01)"/><path class="cls-2" d="M561.76,150.83c0,.21-16.36.38-36.53.38s-36.54-.17-36.54-.38,16.36-.38,36.54-.38S561.76,150.62,561.76,150.83Z" transform="translate(-0.02 0.01)"/><path class="cls-2" d="M584.48,282.82c0,.21-21.45.38-47.89.38s-47.9-.17-47.9-.38,21.44-.37,47.9-.37S584.48,282.61,584.48,282.82Z" transform="translate(-0.02 0.01)"/><path class="cls-2" d="M584.48,302.51c0,.2-21.45.37-47.89.37s-47.9-.17-47.9-.37,21.44-.37,47.9-.37S584.48,302.31,584.48,302.51Z" transform="translate(-0.02 0.01)"/><path class="cls-2" d="M584.48,322.2c0,.21-21.45.37-47.89.37s-47.9-.16-47.9-.37,21.44-.38,47.9-.38S584.48,322,584.48,322.2Z" transform="translate(-0.02 0.01)"/><path class="cls-2" d="M584.48,341.89c0,.21-21.45.38-47.89.38s-47.9-.17-47.9-.38,21.44-.38,47.9-.38S584.48,341.68,584.48,341.89Z" transform="translate(-0.02 0.01)"/><path class="cls-2" d="M584.48,361.58c0,.2-21.45.37-47.89.37s-47.9-.17-47.9-.37,21.44-.37,47.9-.37S584.48,361.38,584.48,361.58Z" transform="translate(-0.02 0.01)"/><path class="cls-5" d="M580.68,428.58c8.92,0,16.14,8.67,16.13,19.35h0v16c0,10.65-7.23,19.28-16.13,19.3H490.54c-8.9,0-16.12-8.65-16.13-19.3v-16c0-10.66,7.23-19.29,16.13-19.3h90.14m0-1.44H490.54c-9.57,0-17.33,9.27-17.34,20.72v16c0,11.45,7.76,20.73,17.33,20.73h90.15c9.57,0,17.33-9.28,17.33-20.73h0v-16c0-11.46-7.76-20.74-17.33-20.74h0Z" transform="translate(-0.02 0.01)"/><path class="cls-5" d="M573.12,457.5c0,.21-16.79.38-37.51.38s-37.51-.17-37.51-.38,16.79-.37,37.51-.37S573.12,457.33,573.12,457.5Z" transform="translate(-0.02 0.01)"/><path class="cls-5" d="M220.64,64.35c9.3-8.72,17.51-19.44,28.18-25.51,18.34-10.43,40-5.15,59.57,1.32s40.26,13.93,59.8,7.29c18.1-6.15,32.52-25.19,36.54-47.08H68.66c4.47,44.46,32.49,81.12,69.72,88.82.77.16,1.55.31,2.33.45C169.12,94.5,198,85.37,220.64,64.35Z" transform="translate(-0.02 0.01)"/><path class="cls-5" d="M448.71,41.61c9.46,10.29,23.3,13.07,36,11.31,8.55-1.2,17.23-4.44,23.4-11.6,7-8.12,9.87-20.73,8-32.16A43.24,43.24,0,0,0,513.65.37h-70C435.92,12.49,439.26,31.35,448.71,41.61Z" transform="translate(-0.02 0.01)"/><g class="cls-10"><path class="cls-11" d="M220.64,64.35c9.3-8.72,17.51-19.44,28.18-25.51,18.34-10.43,40-5.15,59.57,1.32s40.26,13.93,59.8,7.29c18.1-6.15,32.52-25.19,36.54-47.08H68.66c4.47,44.46,32.49,81.12,69.72,88.82.77.16,1.55.31,2.33.45C169.12,94.5,198,85.37,220.64,64.35Z" transform="translate(-0.02 0.01)"/><path class="cls-11" d="M448.71,41.61c9.46,10.29,23.3,13.07,36,11.31,8.55-1.2,17.23-4.44,23.4-11.6,7-8.12,9.87-20.73,8-32.16A43.24,43.24,0,0,0,513.65.37h-70C435.92,12.49,439.26,31.35,448.71,41.61Z" transform="translate(-0.02 0.01)"/></g><path class="cls-9" d="M518.54,39.77a4.67,4.67,0,0,1,1.25.4l.92-.92,1.57,1.43L521.79,42a6.65,6.65,0,0,1,.65,1.34l1.19.12.27,2.39-1.12.5a7.57,7.57,0,0,1-.33,1.5l.76,1.09L522,50.78l-1.09-.6a4.42,4.42,0,0,1-1.11.79l-.11,1.42-2,.32-.42-1.34A4.06,4.06,0,0,1,516,51l-.92.92-1.58-1.43.5-1.31a6.57,6.57,0,0,1-.65-1.33l-1.19-.13-.27-2.39,1.12-.5a7.42,7.42,0,0,1,.33-1.5l-.77-1.1,1.2-1.89,1.09.6a5,5,0,0,1,1.12-.73l.11-1.42,2-.33.42,1.34ZM518,43a2.4,2.4,0,0,0-2.06,2.63,2.34,2.34,0,0,0,2.2,2.47,2.4,2.4,0,0,0,2.06-2.63,4.6,4.6,0,0,0-.06-.52A2.25,2.25,0,0,0,518,43Z" transform="translate(-0.02 0.01)"/><path class="cls-4" d="M518,43a.82.82,0,0,1,.55-.08,2.07,2.07,0,0,1,1.34.85,3.27,3.27,0,0,1,.47,2.68,2.36,2.36,0,0,1-3,1.88,2.62,2.62,0,0,1-1.52-1.71,3.26,3.26,0,0,1,.33-2.71,2.08,2.08,0,0,1,1.29-1,1.29,1.29,0,0,1,.55,0,2.17,2.17,0,0,0-1.48,1.19,2.84,2.84,0,0,0-.16,2.14,1.91,1.91,0,0,0,1.77,1.36,1.94,1.94,0,0,0,1.68-1.5,2.61,2.61,0,0,0-.27-2.1A2.92,2.92,0,0,0,518,43Z" transform="translate(-0.02 0.01)"/><path class="cls-4" d="M518.54,39.77a6.39,6.39,0,0,1-.51-1.3l.1.08-2,.38.13-.16a8.82,8.82,0,0,1-.08,1.42v.13h-.11a4.63,4.63,0,0,0-1.06.77l-.09.09-.12-.06-1.1-.57.27-.08-1.18,1.9V42c.25.33.51.7.78,1.09l.1.14-.06.18a6.68,6.68,0,0,0-.3,1.41V45l-.15.07L512,45.6l.18-.36c.09.74.18,1.53.28,2.39l-.27-.3,1.2.12h.18l.07.21a5.8,5.8,0,0,0,.61,1.25l.11.17-.07.2c-.16.41-.32.85-.5,1.31l-.09-.44,1.58,1.42h-.39l.92-.92.14-.15.18.09a4.09,4.09,0,0,0,1.17.37h0l.25.24h0v.08l0,.17.1.35.21.65-.33-.23,2-.32-.27.34c0-.48.07-1,.11-1.42v-.23l.17-.09a4.13,4.13,0,0,0,1-.73l.14-.13.17.1,1.09.6-.36.1,1.2-1.87V49l-.76-1.1-.11-.17.06-.18a6.73,6.73,0,0,0,.33-1.41V46l.15-.08,1.13-.49-.17.34c-.09-.83-.17-1.6-.25-2.39l.22.24-1.19-.15h-.14v-.15a5.59,5.59,0,0,0-.61-1.28l-.07-.12,0-.14.51-1.3.06.28-1.55-1.49h.18l-1,.89h0c-.79-.41-1.22-.45-1.21-.51a.62.62,0,0,1,.33,0,3.94,3.94,0,0,1,1,.29h-.11l.9-1,.08-.08.09.08,1.61,1.39.11.11-.06.17c-.15.4-.3.84-.48,1.31v-.25a7.45,7.45,0,0,1,.7,1.38l-.19-.17,1.19.11h.19v.23c.09.74.19,1.53.29,2.39v.25l-.2.08-1.12.52.18-.26a7.44,7.44,0,0,1-.34,1.57l-.05-.33c.26.35.51.72.78,1.09l.15.2-.15.23c-.38.62-.78,1.2-1.19,1.89l-.14.23L521.9,51l-1.09-.59h.31a5.3,5.3,0,0,1-1.18.84l.19-.31c0,.48-.07.94-.11,1.43v.29h-.25l-2,.32h-.25l-.09-.28-.2-.66-.11-.35v-.25h0l.26.24h0a4,4,0,0,1-1.33-.42h.32l-.92.92-.19.19-.2-.18-1.67-1.43-.2-.18.1-.28c.18-.44.35-.88.5-1.29v.37a6.2,6.2,0,0,1-.68-1.42l.24.21L512.16,48h-.23v-.27c-.09-.82-.18-1.62-.26-2.4v-.26l.21-.1,1.13-.49-.18.27a8.15,8.15,0,0,1,.36-1.57v.31l-.76-1.1-.12-.19.12-.18c.42-.66.83-1.28,1.22-1.87l.11-.18.16.1,1.08.61h-.21a4.65,4.65,0,0,1,1.22-.73l-.11.18c0-.5.09-1,.13-1.42v-.16h.12l2-.25h.08v.08A11.29,11.29,0,0,1,518.54,39.77Z" transform="translate(-0.02 0.01)"/><path class="cls-4" d="M599.48,514.93h.33a3.86,3.86,0,0,0,1-.11,9.17,9.17,0,0,0,3.75-1.48,12,12,0,0,0,4.36-5.64,14.19,14.19,0,0,0,1-4.86v-5.79c0-16.43,0-40.68-.06-71.86,0-62.4-.06-152.71-.1-264.29V14.81A18.68,18.68,0,0,0,609.21,9a11.3,11.3,0,0,0-6.86-7.83,14.58,14.58,0,0,0-5-.48H587.09L412,.72H10.85C6.39.71,2.44,4.16,1.09,9.24.42,11.69.67,14.37.62,17V500.76a31.16,31.16,0,0,0,.11,3.35,14,14,0,0,0,.74,3.18,12.27,12.27,0,0,0,3.44,5.08,9.2,9.2,0,0,0,5.1,2.2c1.84.09,3.75,0,5.62,0H297.56l301.88.26-301.88.28H15.62c-1.89,0-3.74,0-5.66-.06-5-.44-9.07-5-9.81-10.89A28.35,28.35,0,0,1,0,500.71V13.08a17.51,17.51,0,0,1,.5-4A13.21,13.21,0,0,1,4.44,2.49,9.66,9.66,0,0,1,10.86,0L412,0H597.32a14.8,14.8,0,0,1,5.12.51,11.86,11.86,0,0,1,7.2,8.29,19.37,19.37,0,0,1,.58,6V160.94c0,111.58-.08,201.88-.1,264.29,0,31.2,0,55.43-.06,71.86v5.8a14.36,14.36,0,0,1-1,4.89,12,12,0,0,1-4.42,5.66,8.92,8.92,0,0,1-3.77,1.45A9.23,9.23,0,0,1,599.48,514.93Z" transform="translate(-0.02 0.01)"/><path class="cls-2" d="M351.25,112.55h99.51c5.29,0,9.57,5.13,9.57,11.45v44.14c0,6.32-4.28,11.45-9.57,11.45H351.25c-5.29,0-9.57-5.13-9.57-11.45V124C341.68,117.68,346,112.55,351.25,112.55Z" transform="translate(-0.02 0.01)"/><path class="cls-4" d="M374.17,144.7v12.35h-1.06V145.84h-2.44v-1.2Z" transform="translate(-0.02 0.01)"/><path class="cls-4" d="M383.63,153.41a3.47,3.47,0,0,1-3.74,3.75,4.84,4.84,0,0,1-3.7-1.6l.51-1a4.1,4.1,0,0,0,3.17,1.43,2.39,2.39,0,0,0,2.68-2.52c0-1.5-.82-2.57-3.44-2.57h-2.2l.53-6.2h5.64v1.2h-4.71l-.36,3.92h1.33C382.45,149.76,383.63,151.21,383.63,153.41Z" transform="translate(-0.02 0.01)"/><path class="cls-4" d="M385,150.87c0-3.92,1.73-6.28,4.12-6.28s4.12,2.4,4.12,6.28-1.74,6.29-4.12,6.29S385,154.8,385,150.87Zm7.15,0c0-3.29-1.24-5.11-3-5.11s-3,1.82-3,5.11,1.24,5.12,3,5.12,3-1.81,3-5.12Z" transform="translate(-0.02 0.01)"/><path class="cls-4" d="M394.73,150.87c0-3.92,1.72-6.28,4.11-6.28S403,147,403,150.87s-1.74,6.29-4.13,6.29S394.73,154.8,394.73,150.87Zm7.15,0c0-3.29-1.24-5.11-3-5.11s-3,1.82-3,5.11,1.23,5.12,3,5.12S401.88,154.18,401.88,150.87Z" transform="translate(-0.02 0.01)"/><path class="cls-4" d="M413.26,153.8h-2.07v3.25h-1.06V153.8h-5.82v-.92l5.47-8.18H411l-5.28,8h4.48v-2.85h1v2.85h2.07Z" transform="translate(-0.02 0.01)"/><path class="cls-4" d="M421.22,155.92v1.13H414v-.9l4.29-5a4.38,4.38,0,0,0,1.39-3.05,2.15,2.15,0,0,0-2.42-2.31,3.27,3.27,0,0,0-2.82,1.38l-.75-.78a4.3,4.3,0,0,1,3.66-1.77,3.15,3.15,0,0,1,3.42,3.34,5.44,5.44,0,0,1-1.7,3.86l-3.51,4.13Z" transform="translate(-0.02 0.01)"/><path class="cls-4" d="M422.49,150.87c0-3.92,1.72-6.28,4.11-6.28s4.13,2.4,4.13,6.28-1.72,6.32-4.13,6.32S422.49,154.8,422.49,150.87Zm7.15,0c0-3.29-1.24-5.11-3-5.11s-3,1.82-3,5.11,1.24,5.12,3,5.12S429.64,154.18,429.64,150.87Z" transform="translate(-0.02 0.01)"/><path class="cls-4" d="M411.33,132.07c0,.2-11.47.37-25.63.37s-25.62-.17-25.62-.37,11.47-.39,25.62-.39S411.33,131.79,411.33,132.07Z" transform="translate(-0.02 0.01)"/><path class="cls-2" d="M221.87,112.92h99.51c5.29,0,9.57,5.13,9.57,11.45v44.14c0,6.32-4.28,11.45-9.57,11.45H221.87c-5.29,0-9.57-5.13-9.57-11.45V124.37C212.3,118.05,216.58,112.92,221.87,112.92Z" transform="translate(-0.02 0.01)"/><path class="cls-4" d="M255.9,159.4v1.2h-7.23v-1l4.29-5a4.42,4.42,0,0,0,1.38-3.05,2.15,2.15,0,0,0-2.42-2.31,3.24,3.24,0,0,0-2.81,1.37l-.75-.77A4.28,4.28,0,0,1,252,148a3.14,3.14,0,0,1,3.42,3.34,5.46,5.46,0,0,1-1.69,3.85l-3.51,4.13Z" transform="translate(-0.02 0.01)"/><path class="cls-4" d="M264.06,157a3.39,3.39,0,0,1-3.75,3.59A4.84,4.84,0,0,1,256.6,159l.51-1a4.13,4.13,0,0,0,3.2,1.43,2.35,2.35,0,0,0,2.65-2.49c0-1.55-.87-2.4-2.78-2.4h-.74v-.93l2.86-4.28H257v-1.13h6.64v.9l-2.92,4.39A3.24,3.24,0,0,1,264.06,157Z" transform="translate(-0.02 0.01)"/><path class="cls-4" d="M272.4,156.9a3.46,3.46,0,0,1-3.74,3.74,4.82,4.82,0,0,1-3.7-1.58l.51-1a4.14,4.14,0,0,0,3.17,1.43,2.4,2.4,0,0,0,2.68-2.53c0-1.51-.82-2.57-3.45-2.57h-2.19l.53-6.19h5.64v1.13h-4.71l-.36,3.93h1.33C271.22,153.25,272.4,154.71,272.4,156.9Z" transform="translate(-0.02 0.01)"/><path class="cls-4" d="M273.74,154.37c0-3.94,1.73-6.28,4.11-6.28s4.13,2.39,4.13,6.28-1.74,6.27-4.13,6.27S273.74,158.29,273.74,154.37Zm7.15,0c0-3.3-1.24-5.12-3-5.12s-3,1.82-3,5.12,1.24,5.11,3,5.11S280.89,157.66,280.89,154.37Z" transform="translate(-0.02 0.01)"/><path class="cls-4" d="M284.93,159.66a3.43,3.43,0,0,1-.21,1l-.62,2.4h-.7l.5-2.56a.91.91,0,0,1-.53-.9.87.87,0,0,1,.74-1h0a.87.87,0,0,1,.78.93Z" transform="translate(-0.02 0.01)"/><path class="cls-4" d="M286.3,154.37c0-3.94,1.72-6.28,4.11-6.28s4.13,2.39,4.13,6.28-1.74,6.27-4.13,6.27S286.3,158.29,286.3,154.37Zm7.15,0c0-3.3-1.24-5.12-3-5.12s-3,1.82-3,5.12,1.23,5.11,3,5.11S293.45,157.66,293.45,154.37Z" transform="translate(-0.02 0.01)"/><path class="cls-4" d="M296.06,154.37c0-3.94,1.72-6.28,4.11-6.28s4.13,2.39,4.13,6.28-1.74,6.27-4.13,6.27S296.06,158.29,296.06,154.37Zm7.15,0c0-3.3-1.24-5.12-3-5.12s-3,1.82-3,5.12,1.24,5.11,3,5.11,3-1.82,3-5.11Z" transform="translate(-0.02 0.01)"/><path class="cls-4" d="M280.58,133.78c0,.21-10.39.38-23.21.38s-23.22-.17-23.22-.38,10.39-.37,23.22-.37S280.58,133.57,280.58,133.78Z" transform="translate(-0.02 0.01)"/><path class="cls-3" d="M92,112.92h99.51c5.29,0,9.57,5.13,9.57,11.45v44.14c0,6.32-4.28,11.45-9.57,11.45H92c-5.29,0-9.57-5.13-9.57-11.45V124.37C82.45,118.05,86.73,112.92,92,112.92Z" transform="translate(-0.02 0.01)"/><path class="cls-11" d="M125.09,159.4v1.2h-7.24v-1l4.29-5a4.4,4.4,0,0,0,1.38-3,2.15,2.15,0,0,0-2.41-2.32,3.26,3.26,0,0,0-2.82,1.37l-.75-.76a4.27,4.27,0,0,1,3.65-1.77,3.14,3.14,0,0,1,3.42,3.34,5.46,5.46,0,0,1-1.69,3.85l-3.51,4.13Z" transform="translate(-0.02 0.01)"/><path class="cls-11" d="M129.27,148.19v12.35h-1.06V149.32h-2.43v-1.13Z" transform="translate(-0.02 0.01)"/><path class="cls-11" d="M131.74,154.37c0-3.94,1.72-6.28,4.11-6.28s4.12,2.39,4.12,6.28-1.73,6.27-4.12,6.27S131.74,158.29,131.74,154.37Zm7.14,0c0-3.3-1.23-5.12-3-5.12s-3,1.82-3,5.12,1.24,5.11,3,5.11S138.88,157.66,138.88,154.37Z" transform="translate(-0.02 0.01)"/><path class="cls-11" d="M141.49,154.37c0-3.94,1.73-6.28,4.11-6.28s4.13,2.39,4.13,6.28-1.74,6.27-4.13,6.27S141.49,158.29,141.49,154.37Zm7.15,0c0-3.3-1.24-5.12-3-5.12s-3,1.82-3,5.12,1.24,5.11,3,5.11,3-1.82,3-5.11Z" transform="translate(-0.02 0.01)"/><path class="cls-11" d="M152.68,159.66a3.43,3.43,0,0,1-.21,1l-.61,2.4h-.71l.5-2.56a.91.91,0,0,1-.53-.9.79.79,0,1,1,1.56,0h0Z" transform="translate(-0.02 0.01)"/><path class="cls-11" d="M161.66,154.26c0,4.2-1.92,6.38-4.72,6.38a4.17,4.17,0,0,1-2.45-.67l.43-1a3.26,3.26,0,0,0,2,.59c2.22,0,3.65-1.71,3.65-5.06v-1a3.27,3.27,0,0,1-3.16,2.12,3.4,3.4,0,0,1-3.48-3.71c0-2.13,1.48-3.83,3.25-3.81l.28,0C160.17,148.09,161.66,150.36,161.66,154.26Zm-1.46-2.45a2.59,2.59,0,0,0-2.73-2.65,2.4,2.4,0,0,0-2.51,2.38c0,.1,0,.2,0,.3a2.46,2.46,0,0,0,2.6,2.67,2.54,2.54,0,0,0,2.64-2.53c0-.06,0-.11,0-.17Z" transform="translate(-0.02 0.01)"/><path class="cls-11" d="M163.19,154.37c0-3.94,1.73-6.28,4.11-6.28s4.13,2.39,4.13,6.28-1.74,6.27-4.13,6.27S163.19,158.29,163.19,154.37Zm7.15,0c0-3.3-1.24-5.12-3-5.12s-3,1.82-3,5.12,1.24,5.11,3,5.11,3-1.82,3-5.11Z" transform="translate(-0.02 0.01)"/><path class="cls-11" d="M146,133.78c0,.21-9.55.38-21.33.38s-21.33-.17-21.33-.38,9.55-.37,21.33-.37S146,133.57,146,133.78Z" transform="translate(-0.02 0.01)"/><path class="cls-11" d="M28.39,58h0c-5.7,0-10.32-5.52-10.33-12.34v0h0c0-6.82,4.62-12.35,10.32-12.35h0c5.7,0,10.32,5.53,10.32,12.35h0C38.72,52.48,34.1,58,28.4,58Z" transform="translate(-0.02 0.01)"/></g><g id="Character"><path class="cls-3" d="M572.49,375.65s11.55,4.44,16.49,38c4.69,31.84,14.85,47.68,14.85,47.68l39,7.92-18.42,37.85-53-21.65-2.77-63.23Z" transform="translate(-0.02 0.01)"/><path class="cls-3" d="M502.11,374.83s-17.46,2.66-22.36,23.33-10.26,69.19-10.26,69.19l-31.93,63,21.19,15.36,31.64-50a47.1,47.1,0,0,0,7-19.46,48.36,48.36,0,0,0,.3-8.16l-.77-15.46Z" transform="translate(-0.02 0.01)"/><path class="cls-3" d="M497.87,375.93l-6.31,51a60.51,60.51,0,0,0,1.34,22l7.77,31.09s-6.66,17.49,2.05,23.55c1.72,1.16,44.5,2,44.5,2h18.83l6.83-77.37-.43-52.6s-15.71-6.68-21.87-7.48a200.58,200.58,0,0,0-34.31.33Z" transform="translate(-0.02 0.01)"/><path class="cls-4" d="M480.49,476.66c-.15.13-1.83-3-4.93-5.59a17,17,0,0,0-4.23-2.74,6,6,0,0,1-1.84-1,6.16,6.16,0,0,1,2,.56,13.35,13.35,0,0,1,4.44,2.63C479.17,473.17,480.66,476.6,480.49,476.66Z" transform="translate(-0.02 0.01)"/><path class="cls-4" d="M495.58,402.53a18.13,18.13,0,0,1-.56,2.34c-.2.74-.44,1.66-.67,2.75s-.55,2.33-.77,3.67a93.25,93.25,0,0,0-1.33,9.73,105.32,105.32,0,0,0-.24,12.05,150.18,150.18,0,0,0,2.6,21.7c.53,2.75,1,5,1.31,6.48a17.75,17.75,0,0,1,.43,2.4,16.41,16.41,0,0,1-.67-2.33c-.4-1.5-.91-3.71-1.5-6.45a132.43,132.43,0,0,1-2.8-21.79,100.34,100.34,0,0,1,.29-12.14,84,84,0,0,1,1.47-9.77c.26-1.38.61-2.59.87-3.68s.54-2,.78-2.72A17.5,17.5,0,0,1,495.58,402.53Z" transform="translate(-0.02 0.01)"/><path class="cls-4" d="M572.26,405.47a18.36,18.36,0,0,1,.13,2.34c.05,1.54.09,3.75.11,6.49,0,5.5-.06,13.08-.38,21.44s-.85,15.93-1.31,21.39c-.24,2.73-.45,4.94-.62,6.45a16.67,16.67,0,0,1-.32,2.34,18.3,18.3,0,0,1,.08-2.34c.11-1.65.25-3.83.41-6.47.36-5.47.8-13,1.13-21.38s.48-15.92.56-21.4c0-2.65.07-4.84.1-6.5A16.88,16.88,0,0,1,572.26,405.47Z" transform="translate(-0.02 0.01)"/><g class="cls-12"><path d="M555.15,466.11c.89,1.71-.5,4.93-4,8.33a31.81,31.81,0,0,1-6.61,4.92A37.59,37.59,0,0,1,526,484.29a28.25,28.25,0,0,1-7.79-1.1c-4.38-1.33-6.82-3.5-6.65-5.51s2.79-3.49,6.63-4.86,9-2.6,14.54-4.07,10.65-2.92,14.62-3.67S554.24,464.35,555.15,466.11Z" transform="translate(-0.02 0.01)"/></g><path class="cls-4" d="M556.91,468.1a16.52,16.52,0,0,1-1.34,1.75,18.31,18.31,0,0,1-1.72,1.9,31.22,31.22,0,0,1-2.42,2.33L550,475.33c-.52.43-1.1.8-1.67,1.24a42,42,0,0,1-3.84,2.43,38.37,38.37,0,0,1-19.39,5,35.42,35.42,0,0,1-4.36-.35c-.68-.1-1.34-.16-2-.3l-1.79-.41a24.69,24.69,0,0,1-3-.92,14.71,14.71,0,0,1-2.24-.89,11.34,11.34,0,0,1-1.84-.93c0-.16,2.68,1.17,7.2,2.23l1.78.37c.62.12,1.27.16,1.94.25a36.55,36.55,0,0,0,4.31.28,40.7,40.7,0,0,0,23-7.24c.57-.4,1.15-.77,1.67-1.16l1.48-1.17C554.9,470.5,556.81,468,556.91,468.1Z" transform="translate(-0.02 0.01)"/><path class="cls-4" d="M574.81,377.27c.16.14-1.63,2.89-2.89,6.82s-1.5,7.39-1.69,7.36-.23-3.5,1.1-7.61A17.17,17.17,0,0,1,574.81,377.27Z" transform="translate(-0.02 0.01)"/><g class="cls-13"><path class="cls-11" d="M579,428.6c-2.52,1.08-1.48.71-2.57,3.2a10.11,10.11,0,0,0-.27,8.05,8.81,8.81,0,0,0,4.85,4.22c2.33,1,5.12,1.28,7.1-.46s2.5-5.16,1.78-8c-1.38-5.48-6.31-8.62-11-7l-.35.13" transform="translate(-0.02 0.01)"/><path class="cls-11" d="M548.05,458.35c-.9-1.92-5-3-6.52-1.74a6,6,0,0,0,0,6.1,3.7,3.7,0,0,0,5,1.28A4.74,4.74,0,0,0,548.05,458.35Z" transform="translate(-0.02 0.01)"/><path class="cls-11" d="M491.3,463.41c-.9-1.91-5-3-6.51-1.74a5.93,5.93,0,0,0,0,6.11,3.71,3.71,0,0,0,5,1.29A4.77,4.77,0,0,0,491.3,463.41Z" transform="translate(-0.02 0.01)"/><path class="cls-11" d="M506.31,380.09a15.12,15.12,0,0,0-11,9.16,10.78,10.78,0,0,0-1,5,5.33,5.33,0,0,0,2.26,4.25c2,1.16,4.33-.07,6.24-1.38a21.08,21.08,0,0,0,4.64-4,10.94,10.94,0,0,0,2.57-5.91,7.18,7.18,0,0,0-2-6,3.74,3.74,0,0,0-5.3.25" transform="translate(-0.02 0.01)"/><path class="cls-11" d="M472.91,487.09c-4.72.8-8.81,4.2-11,9.14a11,11,0,0,0-1,5,5.35,5.35,0,0,0,2.26,4.23c2,1.17,4.33-.07,6.24-1.38a21.08,21.08,0,0,0,4.64-4,10.94,10.94,0,0,0,2.57-5.91,7.16,7.16,0,0,0-2.13-6,3.75,3.75,0,0,0-5.3.25" transform="translate(-0.02 0.01)"/><path class="cls-11" d="M556.81,380.79c-2.52,1.08-1.48.73-2.57,3.21a10.08,10.08,0,0,0-.28,8,8.81,8.81,0,0,0,4.86,4.23c2.33,1,5.12,1.27,7.1-.47s2.49-5.16,1.78-8c-1.39-5.49-6.33-8.62-11-7l-.33.13" transform="translate(-0.02 0.01)"/><path class="cls-11" d="M546.7,417.07c.2,2.18.17,1.29,1.43,2.59a4.81,4.81,0,0,0,4.65,1.59,6.28,6.28,0,0,0,3.3-3.13,7,7,0,0,0,.95-5.72,4.37,4.37,0,0,0-4.35-2.79c-3.44.15-6.14,3.52-6,7.53,0,.11,0,.22,0,.32" transform="translate(-0.02 0.01)"/><path class="cls-11" d="M476.16,439.81c.2,2.18.17,1.3,1.43,2.59a4.84,4.84,0,0,0,4.65,1.6,6.3,6.3,0,0,0,3.3-3.14,7,7,0,0,0,.95-5.71,4.38,4.38,0,0,0-4.35-2.79c-3.44.14-6.14,3.51-6,7.53,0,.11,0,.21,0,.32" transform="translate(-0.02 0.01)"/><path class="cls-11" d="M529.82,412.4a2.08,2.08,0,0,0-2.1-1.16,5.68,5.68,0,0,0-2.33.91l-.89,2a2.92,2.92,0,0,0,4.29,1.4l.21-.15A2.76,2.76,0,0,0,529.82,412.4Z" transform="translate(-0.02 0.01)"/><path class="cls-11" d="M490.13,411.47a2.1,2.1,0,0,0-2.1-1.17,5.84,5.84,0,0,0-2.33.92l-.89,2a2.93,2.93,0,0,0,4.29,1.4l.21-.15A2.73,2.73,0,0,0,490.13,411.47Z" transform="translate(-0.02 0.01)"/><path class="cls-11" d="M566.93,449.81a2.09,2.09,0,0,0-2.1-1.17,5.82,5.82,0,0,0-2.33.91l-.89,2a2.92,2.92,0,0,0,4.29,1.39l.21-.15A2.73,2.73,0,0,0,566.93,449.81Z" transform="translate(-0.02 0.01)"/><path class="cls-11" d="M507.83,493.12a2.09,2.09,0,0,0-2.1-1.17,5.68,5.68,0,0,0-2.33.91l-.89,2a2.93,2.93,0,0,0,4.29,1.42l.21-.16A2.75,2.75,0,0,0,507.83,493.12Z" transform="translate(-0.02 0.01)"/><path class="cls-11" d="M538.49,434.1a12.6,12.6,0,0,0-7.75-4.94c-3.52.15-6.07,2.83-8.5,5.83a7.23,7.23,0,0,0-1.89,4.87,6.87,6.87,0,0,0,2.9,4.77,12.51,12.51,0,0,0,11.59,2.11,7.84,7.84,0,0,0,4.09-2.89C540.74,441.08,540.3,436.85,538.49,434.1Z" transform="translate(-0.02 0.01)"/><path class="cls-11" d="M557.08,432.67c-.68-1.44-3.79-2.33-4.93-1.3a4.51,4.51,0,0,0,0,4.6,2.79,2.79,0,0,0,3.8,1A3.57,3.57,0,0,0,557.08,432.67Z" transform="translate(-0.02 0.01)"/><path class="cls-11" d="M535.73,494.74c-.68-1.45-3.78-2.34-4.92-1.31a4.5,4.5,0,0,0,0,4.67,2.8,2.8,0,0,0,3.81,1A3.59,3.59,0,0,0,535.73,494.74Z" transform="translate(-0.02 0.01)"/><path class="cls-11" d="M584.11,405.28c-.67-1.45-3.78-2.34-4.92-1.32a4.49,4.49,0,0,0,0,4.66,2.79,2.79,0,0,0,3.8,1A3.57,3.57,0,0,0,584.11,405.28Z" transform="translate(-0.02 0.01)"/><path class="cls-11" d="M511.59,456.77a3.9,3.9,0,0,0-3.23-1.16h0c-2.25,0-4.11,1-4.31,3.49a8.77,8.77,0,0,0,2.25,6.64,3.49,3.49,0,0,0,5.44.49,4.77,4.77,0,0,0,1.31-2.76A7.45,7.45,0,0,0,511.59,456.77Z" transform="translate(-0.02 0.01)"/><path class="cls-11" d="M564.74,482.37a6.61,6.61,0,0,0-3-4.34,4.43,4.43,0,0,0-4.74.83,11.17,11.17,0,0,0-3,4.59,15.48,15.48,0,0,0-1.21,6.52c.12,2.24,3,4.78,5.22,4h0a5.77,5.77,0,0,0,4.52-1.6A10.64,10.64,0,0,0,564.74,482.37Z" transform="translate(-0.02 0.01)"/><path class="cls-11" d="M503.19,414.35c-2.52,1.07-1.47.72-2.57,3.21a10.06,10.06,0,0,0-.27,8,8.77,8.77,0,0,0,4.85,4.24c2.33.95,5.13,1.27,7.1-.47s2.5-5.17,1.79-8c-1.39-5.49-6.34-8.62-11.05-7l-.32.12" transform="translate(-0.02 0.01)"/></g><path class="cls-5" d="M545.54,550.91s46.23,14.92,48.09,15.69c2.78,1.17,2.31,13-2,12.83-2-.08-35.51,1.46-39.74,1.17s-17-6.17-17-6.17Z" transform="translate(-0.02 0.01)"/><path class="cls-4" d="M564.8,571.49c.23,0,.55-2.83,2-5.84s3.41-4.74,3.27-4.95-2.38,1.3-3.94,4.51S564.61,571.51,564.8,571.49Z" transform="translate(-0.02 0.01)"/><path class="cls-4" d="M560,568.93c.23,0,.7-2.49,1.93-5.32s2.68-4.78,2.51-5-1.93,1.59-3.2,4.56S559.78,568.93,560,568.93Z" transform="translate(-0.02 0.01)"/><path class="cls-4" d="M555.49,567.52c.23,0,.06-2.71,1.08-5.69s2.68-4.85,2.52-5.05-2.17,1.47-3.24,4.72S555.27,567.6,555.49,567.52Z" transform="translate(-0.02 0.01)"/><path class="cls-4" d="M556.28,560.56a11.09,11.09,0,0,0,.5-4,22.26,22.26,0,0,0-.47-4.39,21.12,21.12,0,0,0-.69-2.51,3.24,3.24,0,0,0-.74-1.32,1.1,1.1,0,0,0-1.59.09,2.52,2.52,0,0,0-.61,1.53,11.32,11.32,0,0,0-.06,1.43,13.66,13.66,0,0,0,.28,2.63,17.53,17.53,0,0,0,1.42,4.13,10.91,10.91,0,0,0,2.08,3.24c.11-.09-.67-1.34-1.59-3.5a19.28,19.28,0,0,1-1.21-4,12.76,12.76,0,0,1-.23-2.47c0-.83,0-1.85.43-2.26a.41.41,0,0,1,.61-.06,2.45,2.45,0,0,1,.51.94c.27.77.5,1.54.7,2.34a25.58,25.58,0,0,1,.61,4.21C556.36,559,556.15,560.53,556.28,560.56Z" transform="translate(-0.02 0.01)"/><path class="cls-4" d="M556.22,560a5.71,5.71,0,0,0-3-.56,11.77,11.77,0,0,0-3.28.47,6.43,6.43,0,0,0-1.89.81,2.48,2.48,0,0,0-1,2.46,2.54,2.54,0,0,0,1.66,1.93,3.68,3.68,0,0,0,2.08,0,7.7,7.7,0,0,0,3-1.72,9,9,0,0,0,2.15-2.47,18.8,18.8,0,0,0-2.45,1.94,7.85,7.85,0,0,1-2.84,1.43,3.11,3.11,0,0,1-1.71,0,1.7,1.7,0,0,1-1.13-1.28,1.46,1.46,0,0,1,.69-1.51,6.74,6.74,0,0,1,1.67-.75,12.9,12.9,0,0,1,3.12-.63C555.07,559.94,556.2,560.15,556.22,560Z" transform="translate(-0.02 0.01)"/><path class="cls-4" d="M571.9,572.06c.23,0,0-2.34.92-4.87s2.4-4,2.26-4.22-2,1.06-3,3.89S571.72,572.15,571.9,572.06Z" transform="translate(-0.02 0.01)"/><path class="cls-4" d="M539.65,574.55a9,9,0,0,0,1.79,1,34.34,34.34,0,0,0,5.14,1.86,63.05,63.05,0,0,0,17.65,2c6.93-.09,13.17-.46,17.7-.67l5.35-.33a8.48,8.48,0,0,0,2-.24,8.37,8.37,0,0,0-2-.11h-5.36l-17.68.41a71.89,71.89,0,0,1-17.53-1.66C542.28,575.71,539.7,574.38,539.65,574.55Z" transform="translate(-0.02 0.01)"/><path class="cls-4" d="M538.28,575.78a34.74,34.74,0,0,0,3.46-1.83,14.09,14.09,0,0,1,8.75-1.69c3.49.61,6,3.34,7.56,5.23a29.47,29.47,0,0,0,2.67,3.19,16.33,16.33,0,0,0-2.23-3.58,19.53,19.53,0,0,0-3.06-3.34,10.2,10.2,0,0,0-4.78-2.33,13.53,13.53,0,0,0-9.1,2A12.16,12.16,0,0,0,538.28,575.78Z" transform="translate(-0.02 0.01)"/><g class="cls-12"><path d="M545.54,550.91s46.23,14.92,48.09,15.69c2.78,1.17,2.31,13-2,12.83-2-.08-35.51,1.46-39.74,1.17s-17-6.17-17-6.17Z" transform="translate(-0.02 0.01)"/></g><path class="cls-4" d="M504.49,504l-15,20.42s-50.1-17.78-62.73-17-23,6.72-25.42,18.66-2.79,28.46,11.94,39.92,87.93,17.77,87.93,17.77h29L577.49,511l-4.16-4Z" transform="translate(-0.02 0.01)"/><path class="cls-8" d="M514.58,551.23a5.57,5.57,0,0,1-1,0,17.61,17.61,0,0,1-2.72-.25,48.7,48.7,0,0,1-9.82-2.33,87.34,87.34,0,0,1-13.84-6.31c-5.07-2.79-10.47-6.22-16.15-9.78a158.65,158.65,0,0,0-16.36-9.15,65.69,65.69,0,0,0-14.15-4.94,43.06,43.06,0,0,0-9.92-1c-1.18,0-2.09.12-2.71.12a4.18,4.18,0,0,1-1,0,5,5,0,0,1,.94-.15,22.94,22.94,0,0,1,2.72-.27,40,40,0,0,1,10,.78,63.5,63.5,0,0,1,14.29,4.82,153.18,153.18,0,0,1,16.44,9.13c5.68,3.57,11.06,7,16.09,9.81a91.08,91.08,0,0,0,13.73,6.44,54.65,54.65,0,0,0,9.72,2.57c1.17.24,2.09.27,2.7.39A4.55,4.55,0,0,1,514.58,551.23Z" transform="translate(-0.02 0.01)"/><path class="cls-4" d="M548.82,577.88c9.3-4.26,60.48-23.26,78.6-47.67,15.08-20.33-8.91-38.49-8.91-38.49s-16.83-.63-22.45,0-85.92,63.93-85.92,63.93,14,31.91,13.68,33.13Z" transform="translate(-0.02 0.01)"/><path class="cls-8" d="M574,507.11a1.56,1.56,0,0,1-.21.21l-.68.54-2.64,2L560.76,517l-32.17,23.61L511.1,553.36l.11-.42c3.73,10.5,6.9,19.37,9.17,25.74l2.58,7.39.66,2a3.15,3.15,0,0,1,.2.7,4.88,4.88,0,0,1-.29-.66l-.74-1.93-2.73-7.32c-2.33-6.33-5.57-15.22-9.38-25.66l-.1-.26.21-.16,17.46-12.83,32.3-23.41,9.83-7,2.68-1.88.71-.48Z" transform="translate(-0.02 0.01)"/><path class="cls-8" d="M503.31,535.25a8,8,0,0,1-2.38-1,31.64,31.64,0,0,1-5.25-3.68,33.81,33.81,0,0,1-4.59-4.74,9.78,9.78,0,0,1-1.57-2.34c.14-.15,2.7,3.22,6.53,6.48S503.39,535,503.31,535.25Z" transform="translate(-0.02 0.01)"/><path class="cls-8" d="M525.19,505.06a29.06,29.06,0,0,1,.12,3.73c0,2.34.1,5.48.37,9s.69,6.64,1,8.9a27.05,27.05,0,0,1,.46,3.71,19,19,0,0,1-.89-3.6,78.86,78.86,0,0,1-1.2-8.95,82.56,82.56,0,0,1-.2-9A17.92,17.92,0,0,1,525.19,505.06Z" transform="translate(-0.02 0.01)"/><path class="cls-8" d="M532.28,508.28a1,1,0,0,1,.63.1,3.05,3.05,0,0,1,1.33,1.31,4.13,4.13,0,0,1,.38,3,2.83,2.83,0,0,1-2.6,2.12,2.68,2.68,0,0,1-2.74-1.86,3.72,3.72,0,0,1,.36-3,2.49,2.49,0,0,1,1.4-1.17.86.86,0,0,1,.63,0,3.06,3.06,0,0,0-1.66,1.48,3.4,3.4,0,0,0-.2,2.49,2.17,2.17,0,0,0,2.18,1.4,2.3,2.3,0,0,0,2.08-1.64,3.65,3.65,0,0,0-.21-2.52A3.36,3.36,0,0,0,532.28,508.28Z" transform="translate(-0.02 0.01)"/><path class="cls-8" d="M512.41,505.63a3.93,3.93,0,0,1,.44,1.17,11.41,11.41,0,0,1,.42,3.3,13.65,13.65,0,0,1-.93,4.84c-1.44,3.89-4.69,6.44-8.32,6.53a9,9,0,0,1-4.2-.82,8.16,8.16,0,0,1-2.46-1.7,3.1,3.1,0,0,1-.72-.9,14.49,14.49,0,0,0,3.33,2.11,8.86,8.86,0,0,0,4,.63,9.1,9.1,0,0,0,7.83-6.13,14.23,14.23,0,0,0,1-4.58A21.36,21.36,0,0,0,512.41,505.63Z" transform="translate(-0.02 0.01)"/><path class="cls-8" d="M560.16,516.76a2.93,2.93,0,0,1-1.9-.32c-3.08-1.25-5-4.77-4.8-8.57a4.45,4.45,0,0,1,.52-2.16c.1,0-.09.85-.07,2.17a9,9,0,0,0,4.52,8.09C559.49,516.51,560.18,516.64,560.16,516.76Z" transform="translate(-0.02 0.01)"/><path class="cls-14" d="M613.37,476.2s7.82-13.17,9.54-14.28,16.18-4.54,17.3-3.9,17.29,6.89,15.08,8.85-13.46-2.59-13.46-2.59l-1.68.63s9.77,3.64,11.69,5.43c1.77,1.65.74,4.3-1.06,3.75s-10.24-4-10.81-3.72,9.1,4.41,10.07,5.34c1.32,1.25,1.07,4.27-.73,3.81-1.06-.28-10.1-4.79-10.1-4.79s7,4.67,7.61,5.57c1,1.44-.18,3.18-1.74,2.48-1.07-.49-6-4.35-7.4-5,0,0-1.44.19-3.13,3.24s-11.83,9.75-11.83,9.75Z" transform="translate(-0.02 0.01)"/><path class="cls-14" d="M617.14,477.08a3,3,0,0,0,3.86.67c1.29-.61,2.37-1.73,3.62-2.46,3.74-2.18,8.52-.65,12.17-3a1.66,1.66,0,0,0,.87-1.58c-.13-.65-.8-.78-1.33-.86l-13.74-2" transform="translate(-0.02 0.01)"/><path class="cls-15" d="M622.59,467.77a4.78,4.78,0,0,1,1.51,0c1,.08,2.35.25,4.06.46l6,.79,1.74.24a2.58,2.58,0,0,1,1.94.84,1.55,1.55,0,0,1,0,1.53,2.58,2.58,0,0,1-.82.91,7.66,7.66,0,0,1-1.88.93c-2.64.9-5.19.69-7.4,1.11a9.54,9.54,0,0,0-3,1c-.88.49-1.64,1.17-2.4,1.66a4.3,4.3,0,0,1-4,.9c-1-.41-1.23-1.11-1.2-1.1a4.09,4.09,0,0,0,1.28.76,4.25,4.25,0,0,0,3.68-1.17c.71-.52,1.46-1.16,2.4-1.78a9.77,9.77,0,0,1,3.18-1.17c2.29-.46,4.84-.31,7.28-1.16a8.1,8.1,0,0,0,1.7-.83c.5-.34.79-.87.58-1.17s-.83-.42-1.42-.5l-1.73-.28-6-1c-1.7-.29-3.08-.55-4-.75A4.78,4.78,0,0,1,622.59,467.77Z" transform="translate(-0.02 0.01)"/><path class="cls-15" d="M655.25,466.92a6.8,6.8,0,0,1-3.15.43,14.81,14.81,0,0,1-3.44-.44c-1.25-.39-2.61-.87-4-1.36l-3-1.08h.19c-4.32,1-7.47,1.55-7.5,1.34s3-1.17,7.35-2.2h.19l3,1,4,1.41a18,18,0,0,0,3.32.62A25.79,25.79,0,0,1,655.25,466.92Z" transform="translate(-0.02 0.01)"/><path class="cls-4" d="M584.26,330.78c-3.23-4.5-7.17-9.12-7.3-15-.08-3.11.9-6.61-.71-9.11-1.39-2.18-4.16-2.52-5.73-4.53-2.09-2.68-1.19-6.91-1.91-10.43a11.63,11.63,0,0,0-6.76-8.17,18.87,18.87,0,0,0-10-.89l-3.15,80.78c1.54-2,5.54-2.79,7.67-1.83s4.12,2.47,6.39,2.69c5.1.48,8.68-5.46,13-8.58,4.16-3,9.86-3.94,12.15-9S587.49,335.28,584.26,330.78Z" transform="translate(-0.02 0.01)"/><path class="cls-8" d="M574.73,356.34a4.93,4.93,0,0,0,1.7-.81,4.29,4.29,0,0,0,1.34-1.87,5,5,0,0,0,0-3.16,5.54,5.54,0,0,0-2.3-2.8,6.61,6.61,0,0,1-1.55-1.57,4.3,4.3,0,0,1-.65-2.5,20.62,20.62,0,0,1,1.4-5.06,8.58,8.58,0,0,0,.46-2.58,5.14,5.14,0,0,0-.66-2.49,14,14,0,0,0-3.43-3.7,19.83,19.83,0,0,1-3.47-3.5,19,19,0,0,1-3.32-14.07,10.35,10.35,0,0,1,.36-1.58,1.76,1.76,0,0,1,.19-.53s-.16.77-.31,2.16A19.25,19.25,0,0,0,568,325.86a19.57,19.57,0,0,0,3.39,3.3,14.14,14.14,0,0,1,3.6,3.89,6,6,0,0,1,.76,2.88,9.63,9.63,0,0,1-.51,2.83,20.4,20.4,0,0,0-1.4,4.84,3.62,3.62,0,0,0,.51,2.08,6.49,6.49,0,0,0,1.4,1.46,10.51,10.51,0,0,1,1.48,1.36,4.61,4.61,0,0,1,1,1.77,5.45,5.45,0,0,1-.14,3.5,4.52,4.52,0,0,1-1.53,2,3.6,3.6,0,0,1-1.34.57A.81.81,0,0,1,574.73,356.34Z" transform="translate(-0.02 0.01)"/><path class="cls-14" d="M549.49,374.3l-.21-13.56s11.54-2,14.2-19.45c1.31-8.69,1.16-23,.7-34.68-.4-10.5-9.95-21.22-18.95-20.3L516,292.15v5.65l.8,77.06c.11,10.42,7.39,18.81,16.33,18.81h0c9,0,16.33-8.51,16.34-19Z" transform="translate(-0.02 0.01)"/><path class="cls-4" d="M559.54,318.75a2.11,2.11,0,0,1-1.89,2.23,1.94,1.94,0,0,1-2-2,.45.45,0,0,1,0-.11,2.1,2.1,0,0,1,1.89-2.23,1.94,1.94,0,0,1,2,1.95A.41.41,0,0,1,559.54,318.75Z" transform="translate(-0.02 0.01)"/><path class="cls-4" d="M561.4,314c-.24.28-1.68-1-3.75-1s-3.61,1.16-3.83.83.14-.66.81-1.16a4.8,4.8,0,0,1,3.07-1,4.66,4.66,0,0,1,3,1.17C561.32,313.33,561.49,313.86,561.4,314Z" transform="translate(-0.02 0.01)"/><path class="cls-4" d="M540.49,318.16a2.09,2.09,0,0,1-1.89,2.22,1.93,1.93,0,0,1-2-1.95.37.37,0,0,1,0-.11,2.1,2.1,0,0,1,1.89-2.23,2,2,0,0,1,2,2A.49.49,0,0,1,540.49,318.16Z" transform="translate(-0.02 0.01)"/><path class="cls-4" d="M541,314c-.24.29-1.68-1-3.75-1s-3.61,1.16-3.83.84c-.11-.13.14-.66.81-1.17a4.76,4.76,0,0,1,3.07-1,4.71,4.71,0,0,1,3,1.17C540.93,313.35,541.14,313.89,541,314Z" transform="translate(-0.02 0.01)"/><path class="cls-4" d="M548.27,332.15a12.25,12.25,0,0,1,3.38-.64c.53-.06,1-.16,1.13-.58a3.6,3.6,0,0,0-.33-1.84c-.47-1.51-1-3.08-1.49-4.73-2.07-6.74-3.56-12.28-3.33-12.37s2.1,5.29,4.18,12c.49,1.67,1,3.25,1.42,4.76a4.23,4.23,0,0,1,.24,2.44,1.38,1.38,0,0,1-.88.87,2.76,2.76,0,0,1-.9.13A11.53,11.53,0,0,1,548.27,332.15Z" transform="translate(-0.02 0.01)"/><path class="cls-15" d="M549.27,360.74a34.25,34.25,0,0,1-20-6.67s5,12.24,20.09,10.91Z" transform="translate(-0.02 0.01)"/><path class="cls-15" d="M547.31,337.92a3.54,3.54,0,0,0-3.33-1.7,3.29,3.29,0,0,0-2.37,1.43,2.83,2.83,0,0,0-.21,2.88,2.27,2.27,0,0,0,2.7.85,7.62,7.62,0,0,0,2.68-1.78,2.71,2.71,0,0,0,.6-.7.9.9,0,0,0,0-.9" transform="translate(-0.02 0.01)"/><path class="cls-4" d="M542.15,333.65c.34,0,.3,2.61,2.2,4.51s4.29,1.67,4.31,2c0,.16-.55.5-1.56.51a5.13,5.13,0,0,1-3.61-1.55,6,6,0,0,1-1.7-3.78C541.73,334.28,542,333.64,542.15,333.65Z" transform="translate(-0.02 0.01)"/><path class="cls-4" d="M541.7,304.56c-.21.65-2.28.29-4.71.58s-4.42,1-4.73.43c-.14-.28.21-.9,1-1.51a7.22,7.22,0,0,1,7.2-.77C541.35,303.72,541.8,304.24,541.7,304.56Z" transform="translate(-0.02 0.01)"/><path class="cls-4" d="M560.75,307c-.37.54-1.79,0-3.51-.13s-3.18.31-3.5-.28c-.14-.28.09-.82.74-1.32a4.5,4.5,0,0,1,5.65.32C560.72,306.14,560.91,306.71,560.75,307Z" transform="translate(-0.02 0.01)"/><path class="cls-8" d="M523.66,312.82c4.94-7,19-19.76,25.84-23.27,1.09-.56,2.11-1.74,2.79-1.74a21.44,21.44,0,0,1,4,3.17c3.65,3.72,6.54,12.48,8,17.88,2-6.73,1.36-16.4-2.65-21.8s-8.28-8.36-14.39-8.71a23,23,0,0,0-15.92,5c-2.06,1.48-9.51,8.7-11.59,12.83Z" transform="translate(-0.02 0.01)"/><path class="cls-4" d="M550,278.7c1,.14-5.81-6.38-10.06-7.28a15.16,15.16,0,0,0-12.36,3c-2.43,1.9-4.46,4.55-7.15,5.83-2,1-4.33,1.17-6.46,1.93-5.78,2.12-9.9,8.09-10.44,15.14-.18,2.9.27,5.83.31,8.72s-.42,6-2.11,8.17c-1.47,1.86-3.62,2.71-5.45,4.06-4.42,3.35-6.77,9.41-6,15.5.44,3.18,1.74,6.46.79,9.49-.62,2-2.11,3.44-3.11,5.22a12,12,0,0,0,.33,11.9c2.55.33,4.55,2.56,6.53,4.45s4.5,3.65,7,2.81c3.18-1.1,4.69-6.07,8-6.61s5.57,3.49,8.61,4.79c3.47,1.53,7.52-.77,9.62-4.34s2.6-8.07,2.68-12.4c.09-5.43-.5-11.17-3.26-15.56-2-3.14-5.12-5.83-5.17-9.73s2.88-6.69,3.37-10.38c.43-3.24-1.07-6.34-2.22-9.33s-3.29-7.4-1.67-10.08C521.7,294,532.78,276.47,550,278.7Z" transform="translate(-0.02 0.01)"/><path class="cls-4" d="M551.31,281.64c0-.06.53.28.93,1.16a4.88,4.88,0,0,1-1.65,6,4,4,0,0,1-.85.37,2.06,2.06,0,0,1-1.38,0,6.43,6.43,0,0,0,1.25-.47,4.62,4.62,0,0,0,2.25-5.62l0-.09C551.57,282.17,551.23,281.72,551.31,281.64Z" transform="translate(-0.02 0.01)"/><path class="cls-4" d="M555.49,289.11c0,.19-1,0-2-.91s-1.38-2-1.23-2.05.75.69,1.62,1.48S555.58,288.92,555.49,289.11Z" transform="translate(-0.02 0.01)"/><path class="cls-4" d="M545.6,284.53c0-.21.91-.17,1.92-.5s1.78-.85,1.89-.69-.55,1-1.72,1.4S545.55,284.72,545.6,284.53Z" transform="translate(-0.02 0.01)"/><path class="cls-4" d="M545.71,281.32c0-.21.9-.22,1.95,0s1.88.5,1.86.71-.9.21-2,0S545.68,281.52,545.71,281.32Z" transform="translate(-0.02 0.01)"/><path class="cls-4" d="M555.86,282.4c0,.21-.34.39-.78.44s-.82-.09-.83-.3.34-.4.78-.44S555.85,282.2,555.86,282.4Z" transform="translate(-0.02 0.01)"/><path class="cls-4" d="M556,284.4c0,.21-.52.37-1.16.37s-1.15-.16-1.15-.37.52-.36,1.15-.36S556,284.2,556,284.4Z" transform="translate(-0.02 0.01)"/><path class="cls-4" d="M529.49,296.19c.13.16-1.44,2.05-3,4.67s-2.59,5-2.76,4.9.61-2.63,2.25-5.32S529.42,296,529.49,296.19Z" transform="translate(-0.02 0.01)"/><path class="cls-4" d="M530.07,291c.14.14-1.69,2.78-3.56,6.33s-3.08,6.64-3.26,6.56.81-3.34,2.73-6.94S530,290.84,530.07,291Z" transform="translate(-0.02 0.01)"/><path class="cls-4" d="M489.57,315.94a1.73,1.73,0,0,1-.36-.44,6.14,6.14,0,0,1-.69-1.57,8.14,8.14,0,0,1,.84-6.25,6.45,6.45,0,0,1,7.54-2.75,13.86,13.86,0,0,1,4.22,2.76,6.37,6.37,0,0,0,2.17,1.17,2.36,2.36,0,0,0,2.21-.55,4.53,4.53,0,0,0,1.25-2.33,9,9,0,0,0,.12-2.79c-.19-1.88-.58-3.74-.62-5.55a15.16,15.16,0,0,1,2.13-9.12,7.45,7.45,0,0,1,4.69-3.26,4.78,4.78,0,0,1,1.51,0c.34.09.51.14.5.17a7.89,7.89,0,0,0-2,.13,7.46,7.46,0,0,0-4.38,3.3,14.73,14.73,0,0,0-1.9,8.76c.06,1.76.44,3.5.65,5.5a6.86,6.86,0,0,1-1.6,5.83,2.92,2.92,0,0,1-2.73.68,7.07,7.07,0,0,1-2.37-1.33,14.18,14.18,0,0,0-4-2.72,6,6,0,0,0-7,2.42,7.92,7.92,0,0,0-1,5.83A10.15,10.15,0,0,0,489.57,315.94Z" transform="translate(-0.02 0.01)"/><path class="cls-4" d="M581.88,317.26h-.51a1.62,1.62,0,0,0-1.19.83,2.07,2.07,0,0,0,0,2.33,2.13,2.13,0,0,0,2.66.66,4.17,4.17,0,0,0,1.86-3.33,12.36,12.36,0,0,0-.77-4.84,8.56,8.56,0,0,0-2.62-4.36A3.19,3.19,0,0,0,579,308a13.93,13.93,0,0,0-2.52.65,6.46,6.46,0,0,1-2.71.43,3.39,3.39,0,0,1-2.42-1.49,8.52,8.52,0,0,1-1.13-5.64c.17-1.82.53-3.49.55-5.05a12,12,0,0,0-.73-4.22,11.3,11.3,0,0,0-3.38-4.85c-1.07-.84-1.77-1.11-1.75-1.17a1.67,1.67,0,0,1,.52.17,7.13,7.13,0,0,1,1.36.78,10.75,10.75,0,0,1,3.66,4.87,12.17,12.17,0,0,1,.84,4.45c0,1.65-.35,3.34-.5,5.11a7.84,7.84,0,0,0,1,5.09,2.83,2.83,0,0,0,2,1.24,6.45,6.45,0,0,0,2.49-.41,14.32,14.32,0,0,1,2.63-.68,3.85,3.85,0,0,1,2.65.67,9.23,9.23,0,0,1,2.85,4.75,13.1,13.1,0,0,1,.74,5.14,4.71,4.71,0,0,1-2.21,3.74,2.47,2.47,0,0,1-3.1-.88,2.39,2.39,0,0,1-.39-1.55,2.72,2.72,0,0,1,.48-1.23,1.7,1.7,0,0,1,1.37-.79A.79.79,0,0,1,581.88,317.26Z" transform="translate(-0.02 0.01)"/><path class="cls-4" d="M483.19,340.32l.48.09a1.37,1.37,0,0,0,1.08-.81,1.56,1.56,0,0,0,.16-1,1.5,1.5,0,0,0-.66-1,1.87,1.87,0,0,0-2.52.45,6,6,0,0,0-1.2,3.68,4.11,4.11,0,0,0,.47,2.08,2.68,2.68,0,0,0,1.55,1.29,3.42,3.42,0,0,0,3.85-1.44,9.1,9.1,0,0,0,1.48-5.14,47.1,47.1,0,0,0-.46-5.7,17.8,17.8,0,0,1,.11-5.5,10,10,0,0,1,2.15-4.31,11.66,11.66,0,0,1,3-2.5,18.09,18.09,0,0,1,5.05-1.9,8.94,8.94,0,0,1,1.91-.36,12.22,12.22,0,0,1-1.85.63,21.75,21.75,0,0,0-4.91,2.08,11.54,11.54,0,0,0-2.85,2.48,9.43,9.43,0,0,0-2,4,17.05,17.05,0,0,0-.06,5.24,47.41,47.41,0,0,1,.48,5.83,9.66,9.66,0,0,1-1.65,5.6,4.44,4.44,0,0,1-2.08,1.61,3.66,3.66,0,0,1-2.4,0,3.31,3.31,0,0,1-1.85-1.6,4.8,4.8,0,0,1-.52-2.43,6.41,6.41,0,0,1,1.42-4,2.18,2.18,0,0,1,3-.43,1.94,1.94,0,0,1,.78,1.26,2,2,0,0,1-.26,1.26,1.41,1.41,0,0,1-1.29.82A.78.78,0,0,1,483.19,340.32Z" transform="translate(-0.02 0.01)"/><path class="cls-4" d="M525,273.48a3.38,3.38,0,0,1-.2-.56,2.2,2.2,0,0,0-1-1.1,2.86,2.86,0,0,0-2.2-.16,2.69,2.69,0,0,0-1.85,2.34c-.39,2.49,2.09,5.65,5,5.05a7.85,7.85,0,0,0,4.11-2.33,27,27,0,0,0,3.36-4.44,25.13,25.13,0,0,1,3.48-4.52,7.94,7.94,0,0,1,4.45-2.34,6,6,0,0,1,4.3,1.31,10.1,10.1,0,0,1,2.68,3.23A19,19,0,0,1,549,276c.1.76.16,1.34.19,1.73a2.08,2.08,0,0,1,0,.61c-.18-.77-.33-1.55-.44-2.33a19.92,19.92,0,0,0-2-5.83,9.33,9.33,0,0,0-2.59-3,5.46,5.46,0,0,0-4-1.17,7.48,7.48,0,0,0-4.12,2.27,24.8,24.8,0,0,0-3.24,4.36,27.41,27.41,0,0,1-3.46,4.55,8.31,8.31,0,0,1-4.43,2.42,4.55,4.55,0,0,1-4.21-1.58,5.26,5.26,0,0,1-1.35-4.21,3.37,3.37,0,0,1,.83-1.81,2.87,2.87,0,0,1,1.37-.82,3,3,0,0,1,2.4.29,2.25,2.25,0,0,1,1,1.32A1.61,1.61,0,0,1,525,273.48Z" transform="translate(-0.02 0.01)"/><path class="cls-8" d="M543.55,278.3a1.33,1.33,0,0,1-.1-.28,3.06,3.06,0,0,0-.32-.77,4.49,4.49,0,0,0-2.25-1.9,10.28,10.28,0,0,0-4.44-.73,9,9,0,0,0-2.76.49,8.38,8.38,0,0,0-2.68,1.82,23.32,23.32,0,0,0-4.77,6.31,14.33,14.33,0,0,0-.87,2.05,6.66,6.66,0,0,1-1.11,2.17,8.63,8.63,0,0,1-3.76,2.7,14.45,14.45,0,0,1-2.23.53,8.3,8.3,0,0,0-2.11.84,9.12,9.12,0,0,0-3.47,3.4,9.84,9.84,0,0,0-1.27,5.22A42,42,0,0,0,512,306a21.92,21.92,0,0,1,.23,6,9.08,9.08,0,0,1-2.41,5.14c-2.49,2.62-5.61,3.68-7.79,5.92a9.16,9.16,0,0,0-2.44,3.89,6.74,6.74,0,0,0,.33,4.41c.52,1.36,1.27,2.59,1.78,3.93a7.65,7.65,0,0,1,.53,4.16,5.52,5.52,0,0,1-2,3,22.34,22.34,0,0,0-2.25,2,6.26,6.26,0,0,0-1.38,4.72,20.06,20.06,0,0,0,.55,3.28,9,9,0,0,1,.25,1.17,1,1,0,0,1-.11-.27c-.07-.19-.15-.47-.26-.83a16.65,16.65,0,0,1-.67-3.3,8.88,8.88,0,0,1,.11-2.47,5.55,5.55,0,0,1,1.26-2.57,23.3,23.3,0,0,1,2.26-2.08,5,5,0,0,0,1.79-2.78,7.07,7.07,0,0,0-.53-3.81c-.5-1.27-1.25-2.48-1.82-3.91a7.5,7.5,0,0,1-.38-4.86,9.85,9.85,0,0,1,2.59-4.2c2.3-2.33,5.42-3.49,7.75-5.93a8.39,8.39,0,0,0,2.21-4.74,21,21,0,0,0-.23-5.76,41.81,41.81,0,0,1-.6-5.93,10.65,10.65,0,0,1,1.39-5.62,9.66,9.66,0,0,1,3.73-3.62,9,9,0,0,1,2.24-.89,12.52,12.52,0,0,0,2.18-.5,7.9,7.9,0,0,0,3.56-2.45,5.6,5.6,0,0,0,1-2,14.52,14.52,0,0,1,.92-2.14,23.75,23.75,0,0,1,4.94-6.4,7.58,7.58,0,0,1,5.71-2.31,10.23,10.23,0,0,1,4.54.88,4.56,4.56,0,0,1,2.27,2.08,2.45,2.45,0,0,1,.27.83A.76.76,0,0,1,543.55,278.3Z" transform="translate(-0.02 0.01)"/><g class="cls-12"><path d="M494.69,487.28c-6.7-20.49-6.91-43.93-2.81-65.31-1,11.42.53,22.76,2.57,34,1.91,10.49,4.21,10.65,2.57,22.34a31.78,31.78,0,0,1-1,4.67Z" transform="translate(-0.02 0.01)"/></g><path class="cls-5" d="M513,559.89s-46.22,14.93-48.08,15.69c-2.78,1.17-2.32,13,2,12.83,2.05-.09,35.51,1.45,39.73,1.17s15.63-5.49,15.63-5.49Z" transform="translate(-0.02 0.01)"/><path class="cls-4" d="M493.7,580.47c-.24,0-.55-2.81-2-5.83s-3.41-4.75-3.27-5,2.38,1.31,3.94,4.51S493.89,580.49,493.7,580.47Z" transform="translate(-0.02 0.01)"/><path class="cls-4" d="M498.49,577.92c-.23,0-.7-2.5-1.93-5.31s-2.68-4.8-2.52-5,1.94,1.58,3.21,4.57S498.71,577.91,498.49,577.92Z" transform="translate(-0.02 0.01)"/><path class="cls-4" d="M503,576.51c-.24,0-.06-2.71-1.08-5.7s-2.68-4.84-2.52-5,2.16,1.46,3.24,4.67S503.22,576.58,503,576.51Z" transform="translate(-0.02 0.01)"/><path class="cls-4" d="M502.22,569.55a11.06,11.06,0,0,1-.5-4,21.73,21.73,0,0,1,1.16-6.91,3.13,3.13,0,0,1,.74-1.32,1.11,1.11,0,0,1,1.59.1,2.52,2.52,0,0,1,.61,1.51,11.4,11.4,0,0,1,.06,1.43,13.67,13.67,0,0,1-.28,2.64,18.42,18.42,0,0,1-1.43,4.12,10.63,10.63,0,0,1-2.07,3.24c-.11-.08.67-1.34,1.59-3.49a20.29,20.29,0,0,0,1.21-4,14.42,14.42,0,0,0,.22-2.46c0-.83,0-1.86-.42-2.26a.4.4,0,0,0-.61-.06,2.14,2.14,0,0,0-.51,1,19.63,19.63,0,0,0-.7,2.33,24.84,24.84,0,0,0-.61,4.21C502.13,568,502.34,569.53,502.22,569.55Z" transform="translate(-0.02 0.01)"/><path class="cls-4" d="M502.27,569a5.92,5.92,0,0,1,3-.56,11.42,11.42,0,0,1,3.28.48,6.4,6.4,0,0,1,1.89.8,2.49,2.49,0,0,1-.67,4.39,3.65,3.65,0,0,1-2.07,0,7.53,7.53,0,0,1-3-1.73,8.83,8.83,0,0,1-2.15-2.46,19.58,19.58,0,0,1,2.46,1.94,7.62,7.62,0,0,0,2.84,1.43,3.11,3.11,0,0,0,1.71,0,1.74,1.74,0,0,0,1.13-1.28,1.46,1.46,0,0,0-.69-1.51,6.71,6.71,0,0,0-1.68-.77,14.53,14.53,0,0,0-3.11-.62C503.43,568.93,502.29,569.14,502.27,569Z" transform="translate(-0.02 0.01)"/><path class="cls-4" d="M486.59,581.05c-.23,0,0-2.33-.91-4.86s-2.41-4-2.26-4.23,2,1.07,3,3.89S486.78,581.14,486.59,581.05Z" transform="translate(-0.02 0.01)"/><path class="cls-4" d="M518.85,583.54a9.43,9.43,0,0,1-1.79,1,34.79,34.79,0,0,1-5.14,1.87,63.47,63.47,0,0,1-17.65,2c-6.93-.09-13.17-.46-17.7-.67l-5.36-.33a8,8,0,0,1-2-.25,8.92,8.92,0,0,1,2-.1h5.37l17.68.4a70.94,70.94,0,0,0,17.53-1.68C516.22,584.7,518.8,583.37,518.85,583.54Z" transform="translate(-0.02 0.01)"/><path class="cls-4" d="M520.22,584.77c-.07.12-1.33-.75-3.47-1.83a14.08,14.08,0,0,0-8.74-1.7c-3.49.63-6,3.36-7.57,5.25a31.2,31.2,0,0,1-2.66,3.17,16.89,16.89,0,0,1,2.26-3.61,20,20,0,0,1,3.07-3.34,10.28,10.28,0,0,1,4.77-2.34,13.48,13.48,0,0,1,9.1,2A12.18,12.18,0,0,1,520.22,584.77Z" transform="translate(-0.02 0.01)"/><path class="cls-4" d="M473.84,587.09c-.08-.06.31-.77.68-2a11.13,11.13,0,0,0-1.53-9.65,19.9,19.9,0,0,1-1.26-1.64c0-.1.73.29,1.59,1.29a10.36,10.36,0,0,1,1.61,10.19C474.43,586.53,473.9,587.15,473.84,587.09Z" transform="translate(-0.02 0.01)"/><path class="cls-8" d="M522.08,504.2h0a1.64,1.64,0,0,1,1.48-1.75l42.93-.63,17-61.3a4.28,4.28,0,0,1,4.1-3.38l65.17,2.14c2.31.11,4.1,2.38,4,5.07a5.58,5.58,0,0,1-.27,1.53L636,509.21,523.54,506A1.63,1.63,0,0,1,522.08,504.2Z" transform="translate(-0.02 0.01)"/><path class="cls-11" d="M618.38,471.44c-.77-1.64-4-2.19-5.55-.82a5,5,0,0,0-2,3,4.53,4.53,0,0,0,2.25,5.06,4.14,4.14,0,0,0,4.58-2A5.58,5.58,0,0,0,618.38,471.44Z" transform="translate(-0.02 0.01)"/></g></svg>