<svg id="Layer_1" data-name="Layer 1" xmlns="http://www.w3.org/2000/svg" viewBox="0 0 1920 243"><defs><style>.cls-1{fill:#f2f2f2;}</style></defs><title>end-end-curve-gray</title><path class="cls-1" d="M1,51.32C120.11-2.22,267-8.74,417.81,24.9c99.57,22.2,136.47,62,237.38,86.18C757.83,135.73,897,137.19,1081,63.89,790.79,238.33,624.17,235.6,524.69,197.78c-54.57-20.74-85.84-50.86-155.25-61.56C226.81,114.24,92.25,168,1,244Z" transform="translate(-1 -1)"/><path class="cls-1" d="M1921,179.45c-119.11,53.54-266,60.06-416.81,26.42-99.57-22.2-136.47-62-237.38-86.19C1164.17,95,1025,93.58,841,166.88,1131.21-7.57,1297.83-4.83,1397.31,33c54.57,20.74,85.84,50.86,155.25,61.57C1695.19,116.53,1829.75,77,1921,1Z" transform="translate(-1 -1)"/></svg>