<?xml version="1.0" encoding="utf-8"?>
<!-- Generator: Adobe Illustrator 23.0.1, SVG Export Plug-In . SVG Version: 6.00 Build 0)  -->
<svg version="1.1" id="Layer_1" xmlns="http://www.w3.org/2000/svg" xmlns:xlink="http://www.w3.org/1999/xlink" x="0px" y="0px"
	 viewBox="0 0 1920 388.3" style="enable-background:new 0 0 1920 388.3;" xml:space="preserve">
<style type="text/css">
	.st0{fill:#DDDDDD;}
</style>
<title>end-end-curve</title>
<g>
	<path class="st0" d="M0,124.1C119.1,70.5,266,64,416.8,97.7c99.6,22.2,136.5,61.9,237.4,86.2c102.6,24.6,241.8,26.1,425.8-47.2
		C789.8,311.1,623.2,308.4,523.7,270.5c-54.6-20.7-85.8-50.9-155.3-61.6C225.8,187,91.3,312.3,0,388.3V124.1z"/>
	<path class="st0" d="M1920,264.2c-119.1,53.5-266,60.1-416.8,26.4c-99.6-22.2-136.5-62-237.4-86.2
		c-102.6-24.7-241.8-26.1-425.8,47.2c290.2-174.4,456.8-171.7,556.3-133.9c54.6,20.7,85.8,50.9,155.3,61.6
		C1694.2,201.3,1828.8,76,1920,0V264.2z"/>
</g>
</svg>
