<svg xmlns="http://www.w3.org/2000/svg" viewBox="0 0 2438.86 2111.46"><defs><style>.cls-1{fill:#a0a0a0;}.cls-2{fill:#cd0000;}.cls-3{fill:#704126;}.cls-4{fill:#0a0034;}.cls-5{fill:#0a00b4;}.cls-6{fill:#fff;}.cls-7{fill:#008305;}.cls-8{fill:#7c9af2;}.cls-9{fill:#fa7167;}.cls-10{fill:#f3b537;}.cls-11{fill:#ddd;}.cls-12{fill:#7a7167;}.cls-13{fill:#4f2013;}.cls-14{fill:#f7a491;}.cls-15{fill:red;}.cls-16{fill:#f47458;}.cls-17{fill:#242e00;}.cls-18{fill:#4951ec;}.cls-19{fill:#bed1f9;}.cls-20{fill:#0b0706;}.cls-21{fill:#170e00;}.cls-22{fill:#050017;}.cls-23{fill:#2e57ff;}.cls-24{fill:#0a0050;}.cls-25{fill:#0b0728;}.cls-26{fill:#0b0754;}.cls-27{fill:#060000;}.cls-28{fill:#0a003e;}</style></defs><title>faq1</title><g id="Layer_1" data-name="Layer 1"><path class="cls-1" d="M1022.2,2028.29c-5.37-65.8,349.89-180.34,649.46-194.39,383.71-18,785,123.79,779.35,194.39C2440.62,2158.72,1032.75,2157.6,1022.2,2028.29Z" transform="translate(-12.2 -26.9)"/><path class="cls-2" d="M2264.62,1695H2089.05a2,2,0,0,1-2-1.93L2060.55,537.07a35.12,35.12,0,0,1,35.12-35.94h165.54A35.87,35.87,0,0,1,2297.07,538L2266.59,1693A2,2,0,0,1,2264.62,1695Z" transform="translate(-12.2 -26.9)"/><ellipse class="cls-2" cx="2166.68" cy="1844.22" rx="104.31" ry="92.75"/><path class="cls-3" d="M2076.21,1908.84s13.29,8.55,14.38,12.49,10.83,46.55,7.18,51.49-17,2.55-11.81,6.14c3.92,2.72,29.18,4.8,45.33.44,4.71-1.27,2.56-41.1,3.25-47.17,1-8.81,7.11-28.81,3.4-34-1.8-2.54-12.17-7-21.49-10.65-9.81-3.82-20.7-14.64-20.7-14.64Z" transform="translate(-12.2 -26.9)"/><circle class="cls-4" cx="928.57" cy="229.64" r="136.94"/><path class="cls-5" d="M992.33,379.55C924.5,408,846.19,375.92,817.76,308.09S821.39,162,889.22,133.53s146.13,3.63,174.56,71.45S1060.15,351.12,992.33,379.55Z" transform="translate(-12.2 -26.9)"/><circle class="cls-6" cx="941.02" cy="257.12" r="108.91" transform="translate(214.79 894.89) rotate(-58.23)"/><path class="cls-6" d="M980.7,351.81A103.24,103.24,0,1,1,1036,216.69,103.35,103.35,0,0,1,980.7,351.81Z" transform="translate(-12.2 -26.9)"/><path class="cls-5" d="M856.27,286.05l-17,7.15a5.51,5.51,0,1,0,4.26,10.16l17-7.15a5.51,5.51,0,1,0-4.25-10.16Z" transform="translate(-12.2 -26.9)"/><path class="cls-5" d="M973.2,333.92a5.51,5.51,0,0,0-3,7.21l7.15,17a5.51,5.51,0,0,0,10.16-4.25l-7.15-17.05A5.51,5.51,0,0,0,973.2,333.92Z" transform="translate(-12.2 -26.9)"/><path class="cls-5" d="M1038.12,209.84l-17,7.14a5.51,5.51,0,0,0,4.26,10.16l17.05-7.15a5.5,5.5,0,1,0-4.26-10.15Z" transform="translate(-12.2 -26.9)"/><path class="cls-5" d="M897,152.07a5.5,5.5,0,0,0-3,7.2l7.14,17a5.51,5.51,0,0,0,10.16-4.25l-7.14-17A5.51,5.51,0,0,0,897,152.07Z" transform="translate(-12.2 -26.9)"/><path class="cls-5" d="M935.29,105.7l1.52-21.62a3.23,3.23,0,0,1,3.44-3l24.8,1.74a3.23,3.23,0,0,1,3,3.44l-1.52,21.62a3.22,3.22,0,0,1-3.44,3l-24.8-1.74A3.24,3.24,0,0,1,935.29,105.7Z" transform="translate(-12.2 -26.9)"/><rect class="cls-5" x="804.49" y="137.64" width="31.3" height="28.12" rx="3.22" transform="translate(159.92 649.88) rotate(-49.5)"/><path class="cls-5" d="M865.12,111.4a3.14,3.14,0,0,1-4.11-1.68l-6-14.39a3.14,3.14,0,0,1,1.68-4.1L886,78.92a3.14,3.14,0,0,1,4.1,1.68l6,14.39a3.15,3.15,0,0,1-1.68,4.11Z" transform="translate(-12.2 -26.9)"/><path class="cls-5" d="M872.83,116.59a34.26,34.26,0,1,1,19.95-8.35l3.27,7.81a42.42,42.42,0,1,0-19.95,8.35Z" transform="translate(-12.2 -26.9)"/><path class="cls-5" d="M886.79,127.73q5.13-2.16,10.34-3.87l-8.7-20.76-16.22,6.8,8.59,20.5C882.77,129.47,884.76,128.58,886.79,127.73Z" transform="translate(-12.2 -26.9)"/><path class="cls-5" d="M950.05,252.51a10,10,0,1,1-13.15-5.38A10,10,0,0,1,950.05,252.51Z" transform="translate(-12.2 -26.9)"/><path class="cls-5" d="M951.47,174.28l-7.17,82.53a3.78,3.78,0,0,1-7.53-.65C936.8,255.83,936.16,259.47,951.47,174.28Z" transform="translate(-12.2 -26.9)"/><path class="cls-5" d="M1013.37,297.24l-74-37.18a3.78,3.78,0,1,1,3.39-6.76C943,253.45,939.87,251.52,1013.37,297.24Z" transform="translate(-12.2 -26.9)"/><path class="cls-5" d="M944.57,254.8a4.11,4.11,0,1,1-5.37-2.19A4.12,4.12,0,0,1,944.57,254.8Z" transform="translate(-12.2 -26.9)"/><path class="cls-7" d="M657.23,534.84l-24.17-9.11-21.2,14.74a3.55,3.55,0,0,1-5.57-3.08l1.2-25.79L586.91,496a3.55,3.55,0,0,1,1.21-6.25l24.9-6.83,8.49-24.39a3.55,3.55,0,0,1,6.32-.79L642,479.31l25.82.53a3.56,3.56,0,0,1,2.7,5.77l-16.13,20.16,7.46,24.72A3.54,3.54,0,0,1,657.23,534.84Z" transform="translate(-12.2 -26.9)"/><polygon class="cls-8" points="681.99 353.59 668.85 318.32 635.25 328.37 620.78 294.2 587.49 299.85 572.48 276.05 560.43 283.64 580.51 315.48 612.06 310.13 627.11 345.67 660.16 335.79 672.06 367.75 681.99 353.59"/><polygon class="cls-5" points="2093.98 515.94 2060.98 497.86 2042.14 527.45 2008.84 511.07 1987.35 537.12 1960.43 528.94 1956.29 542.57 1992.3 553.51 2012.66 528.82 2047.3 545.86 2065.83 516.76 2095.74 533.14 2093.98 515.94"/><polygon class="cls-2" points="1224.06 71.54 1209.94 106.42 1241.51 121.69 1229.11 156.67 1257.48 174.99 1252.49 202.68 1266.51 205.2 1273.19 168.17 1246.3 150.81 1259.19 114.43 1228.14 99.41 1240.94 67.8 1224.06 71.54"/><polygon class="cls-9" points="2056.19 970.75 2049.25 957.08 2033.62 957.61 2026.93 941.73 2010.46 947.43 2002.09 929.8 1986.28 933.18 1975.46 917.54 1981.38 913.45 1989.47 925.14 2006.15 921.58 2014.19 938.52 2030.94 932.72 2038.33 950.25 2053.59 949.73 2060.03 962.4 2069.98 959.96 2071.69 966.96 2056.19 970.75"/><polygon class="cls-7" points="1767.31 337.46 1760.01 315.74 1793.67 300.12 1786.91 267.04 1810.19 251.24 1802.19 239.45 1771.05 260.59 1777.46 291.94 1742.44 308.18 1753.43 340.88 1767.31 337.46"/><path class="cls-10" d="M2049.19,314.26C2086.3,371,2035.82,449.71,1969.73,438c-11.88-2.1-24.26.63-34.88,7.18l-36.55,22.53c-10.07,6.21-22.73,3.52-29.08-6.19L1855.16,440c-6.35-9.71-4.26-23.16,4.8-30.92,33.06-28.31,47.12-36.34,51.56-60.08C1924.5,279.61,2012.06,257.53,2049.19,314.26Z" transform="translate(-12.2 -26.9)"/><path class="cls-1" d="M12.26,2048.76c-4.94-60.53,321.87-165.9,597.44-178.82,353-16.55,722.11,113.88,716.94,178.82C1317.09,2168.74,22,2167.71,12.26,2048.76Z" transform="translate(-12.2 -26.9)"/><path class="cls-6" d="M1962,345.47a69.67,69.67,0,0,1-1.73-10c-1.69-19.83,13.64-26.68,21.71-21.57,5.18,3.27,7.27,10.87,4.3,18.06-2.67,6.47-8.46,11.14-14.33,16.27a95.65,95.65,0,0,0,14.7,30.19c18.07-10.89,31-4.93,31.83,4.92.54,6.33-3.52,12.85-9.65,15.52-3.65,1.59-13.12,3.78-24.32-8.62-30.51,21.51-70.32,53.31-70.45,53.41l-5-7c.12-.09,39.71-31.68,70.11-53.17a103.94,103.94,0,0,1-14.56-28.75c-34.77,30.35-65.41,54.35-66.48,55.22l-5-7.05C1895.28,401.07,1925,378,1962,345.47Zm14.66-24.16c-2.69-1-9.85,1.94-7,17.41C1977.76,331.65,1980.21,328.56,1976.68,321.31Zm15.56,63.92c4.44,4.62,11.16,8.79,15.68,3.8C2013.71,382.63,2005.43,377.83,1992.24,385.23Z" transform="translate(-12.2 -26.9)"/><path class="cls-11" d="M1935.78,444.65c-.31.19-.63.34-.93.53l-36.55,22.53c-10.07,6.21-22.73,3.52-29.08-6.19L1855.16,440c-6.35-9.71-4.26-23.16,4.8-30.92,14.7-12.59,25.64-21.17,33.66-28.9Z" transform="translate(-12.2 -26.9)"/><path class="cls-3" d="M189.46,1510.31s-1.18-5.8-1.43-7.76c-.29-2.3-.61-9.26-.61-9.26s0-24.28,1.78-24.14,4.13,4.31,4.65,5.81,1.29,3.2,1.81,4.7a3.09,3.09,0,0,0,4,1.82c1.91-.52,1.11-7,.39-9.12-2.24-6.75-11.87-23.59-12.81-25.42-1.12-2.16,6.63-44.28,8.13-58.92h0c3.18-23.9,7.64-48.3,8-50.83l42.55-94-28.4-29S168.82,1317.85,167,1323.31c-.88,2.61-4,58.55-3.93,58.56.22,27.64.48,52,.4,56.68,0,0-4,13.94-7.09,22.66s-2.4,18-2.89,20.56a59.56,59.56,0,0,0-.75,20.21c1.28,9.51,4.45-.14,4.45-.14s.82-18.07,2.24-17.78c1.1.22.07,10.07,1.37,20.61.34,2.71.68,5.38,1,7.83.88,6.43,5.11,7.69,5.27.8a64.52,64.52,0,0,0-.35-9.36c-.44-3.11.16-6.12.19-8.79.06-5.31,0-9.19.25-9.07s1-.9,1.49,2c.54,3.44.05,11,1.23,16,.67,2.83,1.71,8.84,1.71,8.84s2.76,9.55,3.34,9.52c3.16-.13,3.15-7.55,1.73-11.27.33-2.85-1-9.14-1-9.14s.31-13.33,2.2-13.33c1.57,0,7,32,10.2,31.62C190.67,1520,189.46,1510.31,189.46,1510.31Z" transform="translate(-12.2 -26.9)"/><path class="cls-12" d="M228.61,1297.62s-17.65-3-27-6.54c-12.49-4.65-20.71-8.72-20.71-8.72s13.71-58.69,30.82-94.32c7.07-14.73,14.23-21.84,24.2-23.54.06,0,21,13.8,20.19,47.08C255.9,1219.39,228.61,1297.62,228.61,1297.62Z" transform="translate(-12.2 -26.9)"/><path class="cls-3" d="M282.91,1494.85l22.89,210.56s-11.18,44.53-9.84,57.18,24.88,178.61,24.88,178.61l-1,9.31,0,27.49h87.34s-18.54-8.55-44.47-25.45c-1.92-1.24-6.33-5.23-7.41-13.17-6.92-51.15,6.78-221.77,6.78-221.77l10.79-222.08Z" transform="translate(-12.2 -26.9)"/><path class="cls-3" d="M212.73,1539.14c-4.93,1.28-12.53,182.34-16.61,190.36-25.9,50.87-32.05,205.54-32.05,205.54l-7.52,22-8.06,27s25.86,7.08,39.42-.62l-1.51-26.63L185,1932.47l65.33-192.69,35.75-196.55Z" transform="translate(-12.2 -26.9)"/><path class="cls-12" d="M342.66,1188.42c-10.53-14.83-54-57.79-58.85-57.7-14.08.26-60.3.27-69.34,5l.06,10.11a544.2,544.2,0,0,0,17.39,134.05c7.93,30.52,15.44,63.1,14.52,74.8l.22.22c26.74,26.58,68.92,24.49,93.38-4.63h0s-.11-32.43,3.66-62C349.6,1241.91,368.84,1225.25,342.66,1188.42Z" transform="translate(-12.2 -26.9)"/><path class="cls-3" d="M269.64,1084.69s1.22,30.17-1.41,41.61-6.14,12.3,16.45,15.78c8.88,1.37,17.44,3.41,17.44,3.41s-2.32-16.8-2.67-23.89c-.58-11.68,2.61-47.74,2.61-47.74Z" transform="translate(-12.2 -26.9)"/><path class="cls-13" d="M286.85,1099.7a39.58,39.58,0,0,0,13,4.75c.77-14.25,2.21-30.59,2.21-30.59l-30.93,10.33A41.18,41.18,0,0,0,286.85,1099.7Z" transform="translate(-12.2 -26.9)"/><path class="cls-3" d="M276.82,1000.19a39.55,39.55,0,0,0-20,18.78c-7.13,14.22-9.79,54.19,18.3,69.83,13.91,7.74,29.95,9.21,37.5,2.4,7.71-7,6.77-22.38,6-35.21C317.05,1030.58,311.46,992.11,276.82,1000.19Z" transform="translate(-12.2 -26.9)"/><path class="cls-14" d="M256.11,1050.37c1.6,6.67-.53,13.11-4.75,14.39s-8.93-3.11-10.53-9.78.53-13.12,4.76-14.39S254.52,1043.7,256.11,1050.37Z" transform="translate(-12.2 -26.9)"/><path class="cls-15" d="M186.4,1956.71c-11.93,5.47-24.69,2.1-29.86.35l-8.28,27.11s26,7.71,39.6,0Z" transform="translate(-12.2 -26.9)"/><path class="cls-16" d="M197.73,1646.67s0,0,0,0Z" transform="translate(-12.2 -26.9)"/><path class="cls-15" d="M318.92,1984.82h90.79c3.36-.31,4.18-3.13,3-4.88-2.39-3.58-13-6.21-24.89-11.92-20.88,2.26-64.7-12.58-68-17.57C317.93,1960.44,317.05,1984.4,318.92,1984.82Z" transform="translate(-12.2 -26.9)"/><path class="cls-3" d="M501.28,1257c1.76-2.44,7.65-14.4,7.65-14.4s6.1-20.49,4.84-20.22c-.76.16-3.27,3.06-6.25,9.26-1.82,3.79-3.81,10.42-5.7,13.7-3.3,5.75-7,8.15-6.08,5.93.66-1.62,2.93-3,4.92-6.4,4.85-8.38,9.14-22.09,7.28-21.82-1.65.25-6.34,9.7-11.53,17-2.27,3.21-8.7,7.22-12.74,9.76a17.2,17.2,0,0,1,.82-4.49c.51-1.61,7.72-11.17,4.9-12.38s-20,19.51-20,19.51l-7.05,12-.63.46h0s-85.63,33.58-88.5,32.67c-6.74-2.14-29.75-68.84-29.75-68.84l-47.91,8.64c-.69-.37,50.37,99.28,59.89,104.17,8.36,4.29,97.37-42.08,114.09-52,23-8.86,32-19.4,35.75-24.79,2-2.91,9.72-15.51,9.72-15.51s1.66-17.47.4-17.62c-4.22-.52-5.39,15.94-5.39,15.94s-5.71,7.77-6.7,8.79C500.84,1259,501.28,1257,501.28,1257Z" transform="translate(-12.2 -26.9)"/><path class="cls-12" d="M264.63,1170.7c-6.54,27.71,28.34,89.5,28.34,89.5s49.68-24.13,58.41-34.53c0,0-34.27-56.55-36.39-60.25-4.59-8-20.69-24.47-31.53-21.44C276.55,1145.91,264.63,1170.7,264.63,1170.7Z" transform="translate(-12.2 -26.9)"/><path d="M272.53,1102.36c3.71-25.42,45.88-77.23,29.59-98.87C289,986,266,991.21,251.33,996.25c-66.38,22.83-62.57,106.29-83.53,119.34-38,23.66-61.36,38.39-64.1,91.7-3.25,63.22,50.45,95.52,115,80,34.72-8.31,43.92-19.67,57.84-52.46,6.28-14.78,18.94-60.88,15.47-83.41C288.93,1131.3,269.54,1122.84,272.53,1102.36Z" transform="translate(-12.2 -26.9)"/><path class="cls-13" d="M297.76,1055.76c0,7.53-2.73,13.63-6.1,13.63s-6.1-6.1-6.1-13.63,2.73-13.63,6.1-13.63S297.76,1048.24,297.76,1055.76Z" transform="translate(-12.2 -26.9)"/><path class="cls-17" d="M381,1631.82l3.11-124.92a247.18,247.18,0,0,0-20.46-102.45L340,1350.27c-9.55,3.13-18.55,5.79-28.59,7-21.83,2.52-43.3,0-65-2.54a18.84,18.84,0,0,1-.3,2.21c-3.94,18.39-25.88,59.41-35.13,115.47-10.49,63.63-14.42,158.81-13.1,166.27C298.23,1643.19,322.15,1646.81,381,1631.82Z" transform="translate(-12.2 -26.9)"/><path class="cls-18" d="M1736.36,1005.62l75.56,75.56s143.9,56.28,160,90.85-14.47,33-48.23,28.13-129.43-64.31-129.43-64.31l-87.63-101.29Z" transform="translate(-12.2 -26.9)"/><path class="cls-19" d="M1957.54,1156.87l-18.69-6.63-36.18,16.88s-18.69,12.66-27.73,44,0,218.86,15.07,249S1957.54,1156.87,1957.54,1156.87Z" transform="translate(-12.2 -26.9)"/><path class="cls-3" d="M2267.94,1908.84s13.29,8.55,14.38,12.49,10.83,46.55,7.19,51.49-17,2.55-11.82,6.14c3.92,2.72,29.18,4.8,45.33.44,4.71-1.27,2.56-41.1,3.25-47.17,1-8.81,7.11-28.81,3.41-34-1.81-2.54-12.18-7-21.5-10.65-9.81-3.82-20.7-14.64-20.7-14.64Z" transform="translate(-12.2 -26.9)"/><path class="cls-3" d="M1908.93,1214.13s.08,0,.13,0c18.18-2,63.93-61.94,63.93-61.94l-.1-.17-28.23-44.7s-41.57,7.57-33.43,20.23,12.69,43,12.69,43c-.14.35-.32.77-.57,1.27C1920.49,1178.05,1911.18,1196.42,1908.93,1214.13Z" transform="translate(-12.2 -26.9)"/><path class="cls-13" d="M1911.23,1127.55c-8.13-12.65,33.45-20.22,33.45-20.22l2.35,3.72a24.45,24.45,0,0,1-1.17,8.48c-4.49,12.68-15.3,23.83-26.5,29.2C1917.29,1140.9,1914.56,1132.73,1911.23,1127.55Z" transform="translate(-12.2 -26.9)"/><path class="cls-3" d="M1921.2,1036.64c.89-.85,32.42,51,24.85,72.36s-33,38.39-48.17,30.77c-16.73-8.43-42-67.91-26.78-93.13S1921.2,1036.64,1921.2,1036.64Z" transform="translate(-12.2 -26.9)"/><path class="cls-20" d="M1875.54,1013.37c18.56-4,51.7,1.49,70.37,14.62,22.94,16.15,23.7,44.79,13.36,63.53s-4.11,32.52-4.11,32.52-32.25-2-38.79-24c-2.74-9.21.67-15.45-5.53-20.65-4.77-4-8.78-15.64-13.51-25,0,0-20.81-11.06-28.73-2C1865.89,1055.58,1851.73,1018.49,1875.54,1013.37Z" transform="translate(-12.2 -26.9)"/><path class="cls-13" d="M1907.6,1083.44c2.82,6.77,8.3,10.94,12.24,9.3s4.84-8.46,2-15.24-8.3-10.93-12.24-9.29S1904.78,1076.67,1907.6,1083.44Z" transform="translate(-12.2 -26.9)"/><path class="cls-21" d="M2307.56,1887.31s-8.06,75.5-17.24,81.08c-2.44,1.49-15.36,2.59-16.55,8.76,0,.16-.4,6.53,3.62,6.43l48.94-.1s.56-37.16.25-51.72c0,0,6.77-37.16,4.56-39.94S2307.56,1887.31,2307.56,1887.31Z" transform="translate(-12.2 -26.9)"/><path class="cls-2" d="M1225.42,1538.42c-38.89-81.37-49.58-202.79-7.19-299.1,71.46-162.56,268.1-228.9,253.62-413.13-3.64-46.41-24.29-83.74-54.7-107.75-80-63.19-208.8-29.75-300.71,14.38q-88.07,42.31-163.54,120L927.33,527.41c110.33-78.29,243.82-119.22,377.06-129.69,273-21.46,483.87,80.95,505.33,354,19.57,249.08-148.75,359.42-261.67,483.94-62.67,69.11-76.83,122.36-72,184,2.51,31.88,14.47,71.25,33.69,96.34Zm196,445c-265.39,20.86-296.12-335.68-28-356.75C1657.51,1605.88,1685.84,1962.61,1421.46,1983.38Z" transform="translate(-12.2 -26.9)"/><path class="cls-22" d="M1919,1416.65l.71,75.85s-32.4,247.75-26.12,262.47c15.31,35.91,183.69,157.57,183.69,157.57l22.91-39.39-121-135.06,45.83-131.44c12.82-30.53,40.09-89.53,39.4-122.64-.6-28.37-56.84-94.16-56.84-94.16Z" transform="translate(-12.2 -26.9)"/><path class="cls-22" d="M2027.3,1417.59s44.8,89,54,112.83l68.27,173.2,150.55,177.1s-11,28.46-27.69,36.09c0,0-181.52-146.57-196.45-169.66-22.76-35.19-126.39-250.78-126.39-250.78l-19.27-41.46Z" transform="translate(-12.2 -26.9)"/><path class="cls-3" d="M1695.9,1022.07c-.49-2.25,1.33-.48-2.05-18.06a33,33,0,0,0-6.49-13.27,30.86,30.86,0,0,0-6-5.27c-3-1.81-5.42,1.15-4.81,2.82s3.74,7.44,4.35,9.11.88,5.77-.51,7.14-23.36-23.85-24.73-26c-1.16-1.88-3.76-10.08-3.76-10.08s-1.92-6-4.26-4.44c-1.53,1-3.21,5.9,1.19,15.59,3.85,8.45,9.18,15.21,8.58,15.7-1.58,1.31-11.13-10.12-11.13-10.12s-3.33-6.37-5.59-8.64c-1.42-4.23-4-9.49-6.72-7.43-.5.38,1.3,9.4,1.3,9.4s3.33,6,4.75,8.9c2.5,5.18,8.2,11.46,10.16,14.84,1.62,2.8,0,2.15-.09,2.48s-2.56-2.88-6.31-7.48c-1.89-2.32-4.49-4.53-6.29-7.55a76.39,76.39,0,0,0-6.23-8.42c-5-5.9-7.58-1.89-3.81,4.33,1.43,2.37,3,4.94,4.62,7.54,6.27,10.1,14,18,13.24,18.94-1,1.23-14.26-14-14.26-14s-9.36-6.25-3.79,2.94a93.69,93.69,0,0,0,13.78,17.75c2.21,1.92,8.09,11,16.72,16.46s22.64,13.79,22.64,13.79c1.6,1.94,5.7,8.25,11.37,17.17l20.94-25.19C1705.32,1033.32,1696.24,1023.63,1695.9,1022.07Z" transform="translate(-12.2 -26.9)"/><path class="cls-18" d="M1987.79,1528.74c44.61-10.13,80.71-25.89,84.41-38.34,1.68-5.63-23.2-62.22-41.51-137.78-6-24.67-4.9-47.85-14.47-134.25-2-18.33-9.62-56.75-38-66.66-10-3.47-15.53-3-15.53-3-.24,0-36.12.28-52.53,9.39-4.05,5.5-19.15,35.58-23.17,117.57-1.75,35.81-8.9,150.75-7.43,169.43q.33,4.15.83,8C1886.81,1502.74,1939,1539.82,1987.79,1528.74Z" transform="translate(-12.2 -26.9)"/><path class="cls-8" d="M1679.39,1057.59l28.94-25.33,99.38,98.08s153.85,13.49,154.25,13.6l6.17,1.93c55.81,19.27,32.83,64.82,22.08,71.86-25,16.42-164.16,6.58-208.73-21.07C1744.79,1173.9,1679.39,1057.59,1679.39,1057.59Z" transform="translate(-12.2 -26.9)"/><path class="cls-2" d="M1667.69,217.57l-113.3,76.64a25.14,25.14,0,0,1-34.91-6.74l-76.64-113.29a25.14,25.14,0,0,1,6.73-34.91l113.29-76.64a25.15,25.15,0,0,1,34.92,6.73l76.64,113.29A25.15,25.15,0,0,1,1667.69,217.57Z" transform="translate(-12.2 -26.9)"/><path class="cls-6" d="M1610.73,137.23a64.1,64.1,0,1,1-89-17.17A64.09,64.09,0,0,1,1610.73,137.23Z" transform="translate(-12.2 -26.9)"/><path class="cls-2" d="M1536.52,146.81l26.3,28.68a5.16,5.16,0,1,1-7.6,7,5.45,5.45,0,0,1-.78-1.11Z" transform="translate(-12.2 -26.9)"/><path class="cls-2" d="M1556.54,175.71l39.67-22.21L1561.61,183a4.45,4.45,0,1,1-5.78-6.78A4.73,4.73,0,0,1,1556.54,175.71Z" transform="translate(-12.2 -26.9)"/><rect class="cls-23" x="234.44" y="613.93" width="379.2" height="197.25" rx="50.27"/><polygon class="cls-23" points="568.64 736.72 662.03 778.58 599.5 691.05 568.64 736.72"/><path class="cls-6" d="M372.9,733.08c0,8-7.32,14.54-16.35,14.54s-16.36-6.51-16.36-14.54,7.32-14.54,16.36-14.54S372.9,725.05,372.9,733.08Z" transform="translate(-12.2 -26.9)"/><path class="cls-6" d="M449,733.08c0,8-7.32,14.54-16.36,14.54s-16.35-6.51-16.35-14.54,7.32-14.54,16.35-14.54S449,725.05,449,733.08Z" transform="translate(-12.2 -26.9)"/><path class="cls-6" d="M525.12,733.08c0,8-7.33,14.54-16.36,14.54s-16.36-6.51-16.36-14.54,7.33-14.54,16.36-14.54S525.12,725.05,525.12,733.08Z" transform="translate(-12.2 -26.9)"/><polygon class="cls-5" points="1394.32 38.81 1378.93 6 1391.71 0 1400.44 18.6 1421.76 5.71 1429.07 17.8 1394.32 38.81"/><polygon class="cls-2" points="523.12 510.83 488.98 523 484.23 509.7 503.59 502.8 492.8 480.34 505.53 474.22 523.12 510.83"/><path class="cls-10" d="M1950,207.19q3.81,12.13,7.61,24.25c2,6.33,3.46,16.6,9.63,20.19,1.53.89,4.06.48,4.85-1.28,3.06-6.73-1.34-15.36-3.44-21.95q-3.87-12.1-7.75-24.21c-2.2-6.9-13.08-4-10.9,3Z" transform="translate(-12.2 -26.9)"/><path class="cls-10" d="M2035.57,198.44c-13.1,44.69-13.23,43.35-12.26,47.91.76,3.56,5.61,4.61,8,2.12,3.06-3.16,2.29-2.23,14.94-47.08,2-6.89-8.7-9.81-10.71-2.95Z" transform="translate(-12.2 -26.9)"/><path class="cls-21" d="M2116.22,1897.31s-7,67.89-15.3,72.9c-2.19,1.33-13.79,2.33-14.86,7.87,0,.14-.27,5.69,3.25,5.82l44-.13s.46-33.38.18-46.46c0,0,6.08-33.38,4.1-35.88S2116.22,1897.31,2116.22,1897.31Z" transform="translate(-12.2 -26.9)"/><path class="cls-10" d="M2085.51,297.91l23.14-11.1c6.86-3.29,15.71-5.91,20.41-12.15,2.06-2.74-.78-6.35-3.7-6.44-7.62-.22-15.74,5.62-22.4,8.85l-23.09,11.2c-6.47,3.14-.81,12.73,5.64,9.64Z" transform="translate(-12.2 -26.9)"/><path class="cls-10" d="M2060.24,432.16c7.91,10.21,15.84,20.66,24.8,30,4.83,5,11.84-2.35,7.53-7.53-8.32-10-16.85-19.69-24.88-29.92-4.19-5.35-11.55,2.17-7.45,7.46Z" transform="translate(-12.2 -26.9)"/><path class="cls-10" d="M2089.35,380c7.14,3.13,14.37,6,21.64,8.88,6.63,2.6,14.5,7.24,21.68,6.22,3.81-.54,4.25-5.63,2.11-8-2.69-2.95-4.13-2.72-19.9-8.8-7.12-2.74-14.18-5.62-21.32-8.29-5.74-2.15-9.89,7.49-4.21,10Z" transform="translate(-12.2 -26.9)"/><path class="cls-3" d="M643.7,1198.21a33.37,33.37,0,0,0,3.15,8.17C656,1224,677,1249.24,677,1249.24L693.36,1210s-2.66-12.32-7.28-29.93C670.32,1184.47,655.31,1187,643.7,1198.21Z" transform="translate(-12.2 -26.9)"/><path class="cls-24" d="M737.25,1164.18s-91,41.83-94,41c-1.9-.52-37.33-63.82-37.71-123.34-.18-27.5,26.58-60.57,56.43-54,15,3.29,14.79,7.75,37,42.23S737.25,1164.18,737.25,1164.18Z" transform="translate(-12.2 -26.9)"/><path class="cls-3" d="M814.94,1914.09s-2.16,38.14-2.17,38.22c-.8,4.84-3.92,16.81-3.92,21.21,0,16.54,73.59-14,57.1-21.37-1.5-.66-9.32-5.68-9.81-11.31-.76-8.67-2.67-26.22-2.67-26.22Z" transform="translate(-12.2 -26.9)"/><path class="cls-25" d="M865.76,1952s-17.27,5.06-26.12,6.33-20.52-9.39-26.78-6.51c-6.89,3.17-6.62,31.67-6.62,31.67s92.66,8.11,118.71-.28C935.27,1979.87,901.09,1963.78,865.76,1952Z" transform="translate(-12.2 -26.9)"/><path class="cls-3" d="M664.4,1914.09s-2.16,38.14-2.18,38.22c-.79,4.84-3.92,16.81-3.92,21.21,0,16.54,73.6-14,57.1-21.37-1.49-.66-11.63-9.43-12.12-15.06-.76-8.67-.36-22.47-.36-22.47Z" transform="translate(-12.2 -26.9)"/><path class="cls-25" d="M715.22,1952s-17.28,5.06-26.13,6.33-20.51-9.39-26.77-6.51c-6.89,3.17-7.17,31.67-7.17,31.67s93.08,9.46,119.26-.28C784.57,1979.42,750.54,1963.78,715.22,1952Z" transform="translate(-12.2 -26.9)"/><path class="cls-3" d="M686.89,1219.35l64.81-96.9c.27-.85.86-2.59,1.76-5.24,3.27-9.61,10.06-29.62,16-49.53l.06-.21c1.86-7,5.8-19.09,9.61-30.84,4.24-13.05,9.5-29.24,9.68-32-.16-.48-.47-1.32-.87-2.45-2.38-6.58-5.59-22.26-6.73-29.08-.72-4.34-1.45-14.89,3.39-14.89,7.6,0,4,10.54,7.48,17.12a174.35,174.35,0,0,0,5.27-22l1.27-20.6c.25-1.56-1.3-12.92,4-12.92h.26c4.79.37,4.68,12.45,6.67,32.89.63-2.35,1.26-5.19,1.74-7.79a78.56,78.56,0,0,1,1.62-10.79c-1-5.69-.41-14.67,5.28-13.83,2.85.43,2.61,13,2.61,13,0,1.72-.2,15-.11,17.59.58-4.44,2.86-23.41,7.32-23.41,3.7,0,4,5.11,3.92,9.15-.05,2.39-2.37,22.93-2.5,25.32,1.74-3.12,3.8-21.22,5.53-21.22,7.21,0,4.6,25.74,1.95,32.45a33,33,0,0,0-.82,3.59c-.9,4.59-2.4,12.27-6.18,19.16-4.52,8.27-10.77,21.4-11.72,23.42-.7,4.1-2.87,18.86-5.6,37.43-1.16,7.94-2.44,16.66-3.78,25.68h-.07c-.24,2-1.59,8.16-6.72,31.46-7,31.87-7.74,33.25-8,33.84-3.05,5.76-72.93,107-75.91,111.35l-1.75,2.54Z" transform="translate(-12.2 -26.9)"/><path class="cls-3" d="M807.44,993.34S802.18,979,792.81,979a10.18,10.18,0,0,1,9.72,1.78C807,984.53,807.44,993.34,807.44,993.34Z" transform="translate(-12.2 -26.9)"/><path class="cls-3" d="M671.23,965.6l-8.35,56.32s31.79,27.24,50.33,21.5c15.55-4.83,4.88-26.52,4.88-26.52s-8.28-30.07-5.74-45.82S671.23,965.6,671.23,965.6Z" transform="translate(-12.2 -26.9)"/><path class="cls-13" d="M677.22,982.63c8,4,23.72,9.49,36,10.82-1.17-7.88-1.84-16.22-.85-22.37,1.17-7.28-7.5-9-17.17-8.75-12.67,1.16-23.95,3.27-23.95,3.27l-1.61,10.82A26.33,26.33,0,0,0,677.22,982.63Z" transform="translate(-12.2 -26.9)"/><path class="cls-3" d="M631.1,900.64c-1.31,0,12.57,62.92,34,73.74s53.51,5.18,59.52-11.76c6.65-18.74-17.6-82.93-47.81-91.08S631.1,900.64,631.1,900.64Z" transform="translate(-12.2 -26.9)"/><path d="M656,842.84a71,71,0,0,0-27.68,32.64c-8,4.08-17.8,12.9-22.47,36.67-5.76,29.22,14.69,51.75,36.37,58.52s25.34,22.09,25.34,22.09l2.14-16.48s-4.82-14.34-12.07-21.52S661,937.12,662,928.58c.73-6.57-3.81-19.33-2.83-30.11,0,0,12-19.48,23.92-24.29C703.29,866,678,829.29,656,842.84Z" transform="translate(-12.2 -26.9)"/><path class="cls-13" d="M665.09,939.54c2.81,7.26,1.66,14.48-2.56,16.11s-9.93-2.93-12.73-10.2-1.66-14.48,2.56-16.11S662.28,932.27,665.09,939.54Z" transform="translate(-12.2 -26.9)"/><path class="cls-13" d="M745.1,1220.91l125-21.76s-14.22-38.22-19.31-38.22-94.53,41.68-94.53,41.68l-7.12,15.25Z" transform="translate(-12.2 -26.9)"/><path class="cls-26" d="M681.06,1312.39s-12.47,64.35-7.39,113.14,5.48,222.12,5.48,222.12L659.76,1925l46,1.07s54.57-277.19,53.55-270.07,18.3-195.17,18.3-195.17l-65.06-154.51Z" transform="translate(-12.2 -26.9)"/><path class="cls-24" d="M693.26,1309.34s-8.14,57.94,2,83.36,87.19,274.75,88.2,295.08,26.63,245,26.63,245l53.51-1.6,11.58-249.83-24.24-314L827.43,1288Z" transform="translate(-12.2 -26.9)"/><path class="cls-3" d="M662.88,1021.92s13.2,9.24,25.51,8.17,29.7-13.19,29.7-13.19l-2.41-8.75s-31.84-4.95-32.65-4.42S662.88,1021.92,662.88,1021.92Z" transform="translate(-12.2 -26.9)"/><path class="cls-3" d="M803.52,1159.05s47.29,47.63,68.64,39.5,30.18-35.93-21.9-76.6C803.64,1085.55,803.52,1159.05,803.52,1159.05Z" transform="translate(-12.2 -26.9)"/><path class="cls-27" d="M835.57,1219.06c-7-40.79-57.94-167.72-62-191.1-2-11.37-29.44-11.62-55.6-10.14-27.63,1.57-55.08,5.3-55.08,5.3s-24.46,4.29-35.22,15.05-13.62,40.52,1.85,97c12.21,44.6,27.35,69.09,34.84,101.58,1.52,10.9,2.82,21.65,4.54,34.21,2.76,48.58,0,112.75,0,112.75s133.16,29.48,183-15.25C851.83,1368.48,842.76,1260.85,835.57,1219.06Z" transform="translate(-12.2 -26.9)"/><path class="cls-24" d="M869.52,1130.15s-52.25,46-55.3,46c-2,0-74.56-57-91.32-103.82-9.26-25.89,10.17-54.85,32.36-54.75,15.39.07,22.23,4.3,52.72,31.74S869.52,1130.15,869.52,1130.15Z" transform="translate(-12.2 -26.9)"/><circle cx="686.51" cy="879.25" r="4.52"/><polygon class="cls-28" points="686.81 1386.08 748.33 1614.88 751.18 1584.23 686.81 1386.08"/><path class="cls-3" d="M655.22,935.31c-2.67,1.59-1.74,6.33-1.52,7.41s1.25,6.35,4.75,6.85c3.31.47,6.66-3.69,6.08-5-.42-.92-2.76.2-4-1.14-1.69-1.83,1.29-5.53-.38-7.6C659.12,934.59,656.69,934.43,655.22,935.31Z" transform="translate(-12.2 -26.9)"/><path class="cls-10" d="M1959.39,849.43a4,4,0,0,0-4.07-1.22c-7.23,2-20.33-1-26.81-3.23l-7.06-34.93c5.1-4.6,16-12.37,23.47-13.38a4,4,0,0,0,3.27-2.7l8.93-26.55a4,4,0,0,0-1-4.13c-5.31-5.29-9.33-18.1-10.61-24.84l26.72-23.57c6.53,2.11,18.74,7.7,23.32,13.63a4,4,0,0,0,4,1.48l27.46-5.55a4,4,0,0,0,3.08-2.9c1.93-7.25,11-17.14,16.21-21.61l33.78,11.35c1.44,6.71,2.7,20.08-.15,27a4,4,0,0,0,.71,4.19l18.53,21a4,4,0,0,0,4.06,1.22c7.24-2,20.34,1,26.82,3.23l7,34.93c-5.09,4.61-16,12.38-23.46,13.38a4,4,0,0,0-3.27,2.71l-8.93,26.55a4,4,0,0,0,1,4.13c5.32,5.28,9.34,18.09,10.62,24.83L2086.3,898c-6.53-2.11-18.73-7.7-23.32-13.63a4,4,0,0,0-4-1.48l-27.46,5.54a4,4,0,0,0-3.09,2.91c-1.92,7.24-11,17.13-16.2,21.61l-33.78-11.36c-1.44-6.71-2.7-20.07.14-27a4,4,0,0,0-.7-4.18Zm76.84-8.57a35.1,35.1,0,1,0-41.36-27.46A35.1,35.1,0,0,0,2036.23,840.86Zm4.45,22.07a57.61,57.61,0,1,0-67.87-45.07A57.62,57.62,0,0,0,2040.68,862.93Z" transform="translate(-12.2 -26.9)"/><path class="cls-10" d="M2186.27,974.49a3.2,3.2,0,0,1,2.45-2.3l21.74-4.39a3.19,3.19,0,0,1,3.14,1.17c3.63,4.7,13.3,9.13,18.47,10.8l21.16-18.67c-1-5.34-4.2-15.48-8.4-19.67a3.19,3.19,0,0,1-.78-3.27l7.07-21a3.18,3.18,0,0,1,2.59-2.14c5.88-.79,14.55-7,18.58-10.59l-5.58-27.66c-5.13-1.8-15.51-4.11-21.24-2.56a3.17,3.17,0,0,1-3.21-1l-14.68-16.63a3.18,3.18,0,0,1-.55-3.31c2.25-5.49,1.25-16.08.11-21.39l-26.75-9c-4.12,3.54-11.31,11.37-12.83,17.11a3.18,3.18,0,0,1-2.44,2.3l-21.75,4.39a3.17,3.17,0,0,1-3.14-1.17c-3.63-4.7-13.3-9.12-18.47-10.79L2120.6,853.4c1,5.34,4.2,15.48,8.41,19.67a3.21,3.21,0,0,1,.77,3.27l-7.07,21a3.18,3.18,0,0,1-2.59,2.14c-5.88.8-14.55,7-18.58,10.6l5.58,27.66c5.13,1.79,15.51,4.1,21.24,2.55a3.2,3.2,0,0,1,3.22,1l14.67,16.63a3.2,3.2,0,0,1,.56,3.32c-2.26,5.49-1.26,16.07-.12,21.38l26.75,9C2177.56,988.06,2184.75,980.23,2186.27,974.49Zm7.49-33.35a34.57,34.57,0,1,1,27-40.73A34.57,34.57,0,0,1,2193.76,941.14Z" transform="translate(-12.2 -26.9)"/></g></svg>