<svg xmlns="http://www.w3.org/2000/svg" viewBox="0 0 397.44 424.87"><defs><style>.cls-1{fill:#e0e0e0;}.cls-2{fill:#f5f5f5;}.cls-3{fill:#ebebeb;}.cls-4{fill:#263238;}.cls-5{fill:#c10000;}.cls-6{opacity:0.3;}.cls-7{fill:#fff;}.cls-8{fill:#fafafa;}.cls-9{font-size:35.91px;}.cls-10,.cls-16,.cls-9{fill:#6d0000;}.cls-16,.cls-9{font-family:MyriadPro-Regular, Myriad Pro;}.cls-11{fill:#2b3235;}.cls-12{fill:#1b5e02;}.cls-13{fill:#ff725e;}.cls-14{fill:#930000;}.cls-15{fill:none;stroke:#4e585d;stroke-miterlimit:10;}.cls-16{font-size:24.74px;}.cls-17{fill:#c69076;}.cls-18{opacity:0.6;}.cls-19{fill:#455a64;}.cls-20{fill:#843722;}.cls-21{fill:#af6e51;}</style></defs><title>growing-plant-money</title><g id="Background_Complete" data-name="Background Complete"><rect class="cls-1" x="282.54" y="396.55" width="112.33" height="28.32"/><polygon class="cls-1" points="327.14 396.55 328.99 424.87 344.85 424.87 345.67 396.55 327.14 396.55"/><rect class="cls-2" x="255.28" y="396.55" width="112.33" height="28.32"/><path class="cls-3" d="M367.26,405.79c0,.36-25,.65-55.81.65s-55.81-.29-55.81-.65,25-.64,55.81-.64S367.26,405.44,367.26,405.79Z" transform="translate(0 -4.8)"/><path class="cls-3" d="M367.23,412.27c0,.36-25,.65-55.81.65s-55.82-.29-55.82-.65,25-.64,55.82-.64S367.23,411.92,367.23,412.27Z" transform="translate(0 -4.8)"/><path class="cls-3" d="M367.23,418.75c0,.36-25,.65-55.81.65s-55.82-.29-55.82-.65,25-.64,55.82-.64S367.23,418.4,367.23,418.75Z" transform="translate(0 -4.8)"/><path class="cls-3" d="M367.23,425.23c0,.36-25,.65-55.81.65s-55.82-.29-55.82-.65,25-.64,55.82-.64S367.23,424.88,367.23,425.23Z" transform="translate(0 -4.8)"/><polygon class="cls-3" points="299.88 396.55 301.74 424.87 317.59 424.87 318.42 396.55 299.88 396.55"/><rect class="cls-1" x="273.48" y="368.82" width="72.2" height="28.32"/><polygon class="cls-1" points="318.08 368.82 319.93 397.14 335.79 397.14 336.61 368.82 318.08 368.82"/><rect class="cls-2" x="246.22" y="368.82" width="112.33" height="28.32"/><path class="cls-3" d="M358.2,378.06c0,.36-25,.65-55.81.65s-55.82-.29-55.82-.65,25-.64,55.82-.64S358.2,377.71,358.2,378.06Z" transform="translate(0 -4.8)"/><path class="cls-3" d="M358.16,384.54c0,.36-25,.65-55.81.65s-55.81-.29-55.81-.65,25-.64,55.81-.64S358.16,384.19,358.16,384.54Z" transform="translate(0 -4.8)"/><path class="cls-3" d="M358.16,391c0,.36-25,.65-55.81.65s-55.81-.29-55.81-.65,25-.64,55.81-.64S358.16,390.67,358.16,391Z" transform="translate(0 -4.8)"/><path class="cls-3" d="M358.16,397.5c0,.36-25,.65-55.81.65s-55.81-.29-55.81-.65,25-.64,55.81-.64S358.16,397.15,358.16,397.5Z" transform="translate(0 -4.8)"/><polygon class="cls-3" points="290.82 368.82 292.67 397.14 308.53 397.14 309.35 368.82 290.82 368.82"/><rect class="cls-1" x="15.3" y="401.67" width="63.04" height="22.81"/><polygon class="cls-1" points="40.33 401.67 41.37 424.49 50.27 424.49 50.73 401.67 40.33 401.67"/><rect class="cls-3" y="401.67" width="63.04" height="22.81"/><path class="cls-1" d="M62.85,410.05c0,.29-14,.52-31.33.52S.2,410.34.2,410.05s14-.52,31.32-.52S62.85,409.77,62.85,410.05Z" transform="translate(0 -4.8)"/><path class="cls-1" d="M62.83,415.27c0,.29-14,.52-31.33.52S.18,415.56.18,415.27s14-.52,31.32-.52S62.83,415,62.83,415.27Z" transform="translate(0 -4.8)"/><path class="cls-1" d="M62.83,420.49c0,.29-14,.52-31.33.52S.18,420.78.18,420.49s14-.52,31.32-.52S62.83,420.2,62.83,420.49Z" transform="translate(0 -4.8)"/><path class="cls-1" d="M62.83,425.71c0,.29-14,.52-31.33.52S.18,426,.18,425.71s14-.52,31.32-.52S62.83,425.42,62.83,425.71Z" transform="translate(0 -4.8)"/><polygon class="cls-1" points="25.03 401.67 26.07 424.49 34.97 424.49 35.43 401.67 25.03 401.67"/></g><g id="Money"><rect class="cls-1" x="194.81" y="395.98" width="130.79" height="28.3"/><polygon class="cls-1" points="246.74 395.98 248.9 424.28 267.36 424.28 268.32 395.98 246.74 395.98"/><rect class="cls-3" x="162.71" y="395.9" width="130.79" height="28.3"/><path class="cls-1" d="M293.46,405.22c0,.36-29.1.65-65,.65s-65-.29-65-.65,29.09-.65,65-.65S293.46,404.86,293.46,405.22Z" transform="translate(0 -4.8)"/><path class="cls-1" d="M293.41,411.7c0,.35-29.09.64-65,.64s-65-.29-65-.64,29.09-.65,65-.65S293.41,411.34,293.41,411.7Z" transform="translate(0 -4.8)"/><path class="cls-1" d="M293.41,418.17c0,.36-29.09.65-65,.65s-65-.29-65-.65,29.09-.65,65-.65S293.41,417.81,293.41,418.17Z" transform="translate(0 -4.8)"/><path class="cls-1" d="M293.41,424.64c0,.36-29.09.65-65,.65s-65-.29-65-.65,29.09-.64,65-.64S293.41,424.29,293.41,424.64Z" transform="translate(0 -4.8)"/><polygon class="cls-1" points="215 395.98 217.16 424.28 235.62 424.28 236.58 395.98 215 395.98"/><path class="cls-4" d="M187.21,429.08l.7,0,2.06,0,7.94,0,29.35-.08,98.34-.08-.26.26v-28.3l.26.26-98.31-.14L198,400.81l-7.93-.06-2.05,0c-.47,0-.7,0-.7,0l.7,0,2.05,0,7.93,0,29.34-.06,98.31,0h.26v28.82h-.26l-98.34-.08-29.35-.08-7.94-.05-2.06,0Z" transform="translate(0 -4.8)"/><path class="cls-4" d="M294,428.9c-.14,0-.26-6.17-.26-13.77s.12-13.78.26-13.78.26,6.17.26,13.78S294.17,428.9,294,428.9Z" transform="translate(0 -4.8)"/><rect class="cls-1" x="200.7" y="342.9" width="123.46" height="26.71"/><polygon class="cls-1" points="249.72 342.9 251.76 369.61 269.19 369.61 270.09 342.9 249.72 342.9"/><rect class="cls-3" x="170.74" y="342.89" width="123.46" height="26.71"/><path class="cls-1" d="M293.82,351.89c0,.34-27.47.61-61.34.61s-61.35-.27-61.35-.61,27.46-.61,61.35-.61S293.82,351.55,293.82,351.89Z" transform="translate(0 -4.8)"/><path class="cls-1" d="M293.78,358c0,.34-27.47.61-61.34.61s-61.35-.27-61.35-.61,27.46-.61,61.35-.61S293.78,357.66,293.78,358Z" transform="translate(0 -4.8)"/><path class="cls-1" d="M293.78,364.11c0,.34-27.47.61-61.34.61s-61.35-.27-61.35-.61,27.46-.61,61.35-.61S293.78,363.77,293.78,364.11Z" transform="translate(0 -4.8)"/><path class="cls-1" d="M293.78,370.22c0,.34-27.47.61-61.34.61s-61.35-.27-61.35-.61,27.46-.61,61.35-.61S293.78,369.89,293.78,370.22Z" transform="translate(0 -4.8)"/><polygon class="cls-1" points="219.76 342.9 221.8 369.61 239.23 369.61 240.13 342.9 219.76 342.9"/><path class="cls-4" d="M193.53,374.34l.66,0,1.94,0,7.49-.05,27.7-.08,92.84-.08-.25.26c0-4.4,0-9.08,0-13.81,0-4.42,0-8.79,0-12.9l.25.25-93.46.33-27.91,0-7.55,0h-2l-.66,0,.66,0,2,0,7.55-.07,27.91-.21,93.46-.48h.26v.27c0,4.11,0,8.48,0,12.9,0,4.73,0,9.41,0,13.81v.26h-.26l-92.84-.09-27.7-.08-7.49,0-1.94,0Z" transform="translate(0 -4.8)"/><rect class="cls-1" x="213.91" y="369.61" width="123.46" height="26.71"/><polygon class="cls-1" points="262.93 369.61 264.97 396.32 282.4 396.32 283.3 369.61 262.93 369.61"/><rect class="cls-3" x="183.6" y="369.53" width="123.46" height="26.71"/><path class="cls-1" d="M307,378.6c0,.34-27.47.61-61.34.61s-61.35-.27-61.35-.61,27.46-.61,61.35-.61S307,378.26,307,378.6Z" transform="translate(0 -4.8)"/><path class="cls-1" d="M307,384.71c0,.34-27.47.61-61.34.61s-61.35-.27-61.35-.61,27.46-.61,61.35-.61S307,384.38,307,384.71Z" transform="translate(0 -4.8)"/><path class="cls-1" d="M307,390.82c0,.34-27.47.61-61.34.61s-61.35-.27-61.35-.61,27.46-.61,61.35-.61S307,390.49,307,390.82Z" transform="translate(0 -4.8)"/><path class="cls-1" d="M307,396.93c0,.34-27.47.62-61.34.62s-61.35-.28-61.35-.62,27.46-.61,61.35-.61S307,396.6,307,396.93Z" transform="translate(0 -4.8)"/><polygon class="cls-1" points="232.97 369.61 235.01 396.32 252.44 396.32 253.34 369.61 232.97 369.61"/><path class="cls-4" d="M206.74,401.12l.66,0,1.94,0,7.49,0,27.72-.08,92.83-.09-.26.26V374.41l.26.26-92.81-.14-27.69-.09-7.49-.05-1.94,0-.66,0,.66,0,1.94,0,7.49,0,27.69-.07,92.81,0h.25v.26c0,4.27,0,8.8,0,13.39s0,9.08,0,13.32v.26h-.25l-92.83-.08-27.72-.08-7.49-.05-1.94,0Z" transform="translate(0 -4.8)"/><path class="cls-4" d="M294.33,374.63c-.15,0-.26-6-.26-13.32s.11-13.33.26-13.33.26,6,.26,13.33S294.47,374.63,294.33,374.63Z" transform="translate(0 -4.8)"/><path class="cls-4" d="M307.57,401c-.14,0-.26-5.82-.26-13s.12-13,.26-13,.26,5.82.26,13S307.72,401,307.57,401Z" transform="translate(0 -4.8)"/></g><g id="Plant"><path class="cls-5" d="M142.85,59.65a6.83,6.83,0,1,1,6.31,7.3A6.82,6.82,0,0,1,142.85,59.65Z" transform="translate(0 -4.8)"/><g class="cls-6"><path d="M149.3,57l.06-.91.8,0,0,.88a3.78,3.78,0,0,1,2,.77l-.5,1a3.15,3.15,0,0,0-1.53-.67L150,59.45c.88.27,1.87.63,1.8,1.79-.05.85-.72,1.55-2,1.62l0,.9-.81,0,.06-.88a3.74,3.74,0,0,1-1.62-.59l.47-1a3.43,3.43,0,0,0,1.21.49l.08-1.37c-.88-.27-1.85-.63-1.78-1.76C147.37,57.79,148,57.1,149.3,57Zm.6,3.62-.07,1.14c.43-.07.62-.29.63-.56S150.25,60.77,149.9,60.64Zm-1.28-2c0,.28.21.45.55.59l.07-1.12C148.83,58.15,148.64,58.35,148.62,58.61Z" transform="translate(0 -4.8)"/></g><g class="cls-6"><path d="M144.47,60.36s0,.23.1.63a5.36,5.36,0,0,0,.48,1.64,5.11,5.11,0,0,0,.61,1,5.31,5.31,0,0,0,1,.93,4.22,4.22,0,0,0,.61.39,4.72,4.72,0,0,0,.68.32,5.9,5.9,0,0,0,.75.21,7,7,0,0,0,.8.1,5.3,5.3,0,0,0,.8,0,4.77,4.77,0,0,0,.77-.15,4.26,4.26,0,0,0,.71-.25,5.52,5.52,0,0,0,.64-.34,5.13,5.13,0,0,0,1-.85,5.2,5.2,0,0,0,.7-.94,5.66,5.66,0,0,0,.62-1.58,3.85,3.85,0,0,1,.14-.63s0,.23,0,.65a4.73,4.73,0,0,1-.52,1.7,5.31,5.31,0,0,1-.7,1,5.07,5.07,0,0,1-1.76,1.31,6.28,6.28,0,0,1-.76.29,5.79,5.79,0,0,1-.83.16,6.19,6.19,0,0,1-.87,0,8.08,8.08,0,0,1-.86-.11,5,5,0,0,1-.8-.24,4.53,4.53,0,0,1-.74-.34,4.83,4.83,0,0,1-.64-.44,5.34,5.34,0,0,1-1-1,4.75,4.75,0,0,1-.61-1.08,4.68,4.68,0,0,1-.38-1.74A1.55,1.55,0,0,1,144.47,60.36Z" transform="translate(0 -4.8)"/></g><path class="cls-7" d="M144.46,59.87a10.58,10.58,0,0,0,.11,1.28,5.28,5.28,0,0,0,1.67,3,5,5,0,0,0,4.8,1.09,5.22,5.22,0,0,0,.72-9.72,5.08,5.08,0,0,0-4.91.38,5.21,5.21,0,0,0-2.09,2.72,10.28,10.28,0,0,0-.3,1.25,4.36,4.36,0,0,1,.22-1.28,5.26,5.26,0,0,1,2.09-2.81,5.17,5.17,0,0,1,5.07-.43,5.4,5.4,0,0,1-.75,10.08,5.21,5.21,0,0,1-5-1.17,5.27,5.27,0,0,1-1.65-3.09A4.31,4.31,0,0,1,144.46,59.87Z" transform="translate(0 -4.8)"/><path class="cls-7" d="M151.88,54.05a2.21,2.21,0,0,1,.75.23,6,6,0,0,1,1.58,1.06,5.81,5.81,0,0,1,1.15,1.51,1.88,1.88,0,0,1,.27.74,10.14,10.14,0,0,0-1.56-2.1A9.82,9.82,0,0,0,151.88,54.05Z" transform="translate(0 -4.8)"/><path class="cls-7" d="M150.79,53.69c0-.06.15-.07.31,0s.28.13.26.18-.15.07-.31,0S150.77,53.74,150.79,53.69Z" transform="translate(0 -4.8)"/><path class="cls-8" d="M220.89,237.59V226.53h2.82a3.31,3.31,0,1,0,0-6.61h-2.82v-3.81h2.82a3.31,3.31,0,1,0,0-6.61h-2.82V204H60.11v5.52H57.28a3.31,3.31,0,1,0,0,6.61h2.83v3.81H57.28a3.31,3.31,0,1,0,0,6.61h2.83v9.52h0A20.93,20.93,0,0,0,39.18,257V400.55a28.74,28.74,0,0,0,28.74,28.74H213.08a28.73,28.73,0,0,0,28.73-28.74v-142A20.93,20.93,0,0,0,220.89,237.59Z" transform="translate(0 -4.8)"/><path class="cls-4" d="M220.89,237.59s.75,0,2.19.09a22.17,22.17,0,0,1,6.23,1.63,21,21,0,0,1,4.1,2.4,20,20,0,0,1,4.1,4,21.19,21.19,0,0,1,4.41,13.38c0,21.54,0,52.69.08,91.19,0,9.62,0,19.71,0,30.21v20.19a30.72,30.72,0,0,1-.35,4.16,29.38,29.38,0,0,1-.89,4.12c-.21.68-.48,1.33-.71,2a15.41,15.41,0,0,1-.84,2,31.31,31.31,0,0,1-2.1,3.74,30.09,30.09,0,0,1-2.69,3.39,27.56,27.56,0,0,1-6.78,5.49,28.37,28.37,0,0,1-8.25,3.26,39.06,39.06,0,0,1-9,.72h-138c-3.5,0-7.1.13-10.62-.66a28.39,28.39,0,0,1-9.88-4.15,29,29,0,0,1-12.2-17.44,43.37,43.37,0,0,1-.82-10.9V301.79q0-20.25,0-39.71v-4.84c0-.81.07-1.63.11-2.44s.21-1.61.4-2.4a21.59,21.59,0,0,1,4.14-8.64,21.31,21.31,0,0,1,16.53-7.95l-.24.24v-9.52l.24.24h-2a5.24,5.24,0,0,1-2.09-.25,3.54,3.54,0,0,1,.12-6.63,5.76,5.76,0,0,1,2-.2h2l-.23.23v-3.81l.23.23h-2a5.24,5.24,0,0,1-2.09-.25,3.53,3.53,0,0,1,.14-6.61,5.51,5.51,0,0,1,2-.2h2l-.23.22v-5.75h.23l160.78.1H221V204c0,2.25,0,3.91,0,5.52l-.11-.11h2.38a3.75,3.75,0,0,1,2.21.5,3.4,3.4,0,0,1-1.1,6.25,12.12,12.12,0,0,1-1.79.07h-1.7l.09-.09v3.81l-.09-.09h2.57a3.46,3.46,0,0,1,2.29.68,3.38,3.38,0,0,1-1.71,6.06c-1.14,0-2.17,0-3.15,0l.05-.06c0,7.41-.05,10.67-.05,11.06,0-.39,0-3.65-.06-11.06v-.06h.06c1,0,2,0,3.14,0a3.23,3.23,0,0,0,1.62-5.8,3.3,3.3,0,0,0-2.19-.64H220.8v-.09c0-1,0-2.14,0-3.81V216h1.8a11.34,11.34,0,0,0,1.75-.06,3.2,3.2,0,0,0,1-5.87,3.47,3.47,0,0,0-2.1-.46h-2.5v-.12c0-1.61,0-3.27,0-5.52l.13.12-160.78.1.23-.22v5.75h-2.2a5.26,5.26,0,0,0-1.88.18,3.07,3.07,0,0,0-.12,5.75,4.84,4.84,0,0,0,1.92.22h2.28v4.28h-2.2a5.08,5.08,0,0,0-1.89.18,3.07,3.07,0,0,0-2,2.82,3.1,3.1,0,0,0,1.95,2.92,4.77,4.77,0,0,0,1.91.21h2.28v10h-.24A20.81,20.81,0,0,0,44,244.07a21.05,21.05,0,0,0-4,8.44c-.18.77-.25,1.56-.39,2.34s-.09,1.58-.11,2.39c0,1.61,0,3.22,0,4.84v39.71c0,27,0,55,0,83.63v11a43,43,0,0,0,.8,10.78,28.54,28.54,0,0,0,12,17.13,27.94,27.94,0,0,0,9.7,4.08c3.45.77,7,.62,10.51.64h21l79.85,0h37.19a38.52,38.52,0,0,0,8.88-.7,28,28,0,0,0,8.12-3.2,27.22,27.22,0,0,0,6.69-5.41,31.21,31.21,0,0,0,2.65-3.33,29.72,29.72,0,0,0,2.07-3.69,14.83,14.83,0,0,0,.83-1.92c.23-.66.5-1.31.7-2a30,30,0,0,0,.88-4.06,52.5,52.5,0,0,0,.36-8.22V380.49c0-10.5,0-20.59,0-30.21,0-38.5.06-69.65.08-91.19a21,21,0,0,0-4.32-13.28,20.35,20.35,0,0,0-4-4,21.33,21.33,0,0,0-4.07-2.4,22.35,22.35,0,0,0-6.19-1.67Z" transform="translate(0 -4.8)"/><path class="cls-5" d="M201.52,354.71a27.13,27.13,0,1,1,15-35.28A27.1,27.1,0,0,1,201.52,354.71Z" transform="translate(0 -4.8)"/><g class="cls-6"><path d="M201.19,347.68a13,13,0,0,1,2.1-1.43,22.35,22.35,0,0,0,5-4.58,21.14,21.14,0,0,0,2.46-3.95,20.64,20.64,0,0,0,1.65-5.05,20.19,20.19,0,0,0,.33-2.85,18.78,18.78,0,0,0-.09-3,19.2,19.2,0,0,0-.56-3.05,22.82,22.82,0,0,0-1-3,22.37,22.37,0,0,0-1.52-2.82,20.79,20.79,0,0,0-1.87-2.47,19.06,19.06,0,0,0-2.14-2.08,19.38,19.38,0,0,0-2.33-1.69,21.12,21.12,0,0,0-4.83-2.2,21.14,21.14,0,0,0-11.32-.26,12.92,12.92,0,0,1-2.48.58,6,6,0,0,1,2.3-1.17,18.86,18.86,0,0,1,7-1.11,20.48,20.48,0,0,1,10.1,2.92,19.92,19.92,0,0,1,2.54,1.76,20.79,20.79,0,0,1,4.37,4.87,21.51,21.51,0,0,1,1.64,3,23.64,23.64,0,0,1,1.13,3.25,21.31,21.31,0,0,1,.57,3.3,19.32,19.32,0,0,1,.06,3.22,21.48,21.48,0,0,1-.41,3.06,21.26,21.26,0,0,1-1.91,5.35,20.94,20.94,0,0,1-2.77,4.08,19.29,19.29,0,0,1-5.53,4.39A6,6,0,0,1,201.19,347.68Z" transform="translate(0 -4.8)"/></g><path class="cls-8" d="M199.47,348.58a1.52,1.52,0,0,1,.3-.17l.89-.44a10.81,10.81,0,0,0,1.41-.76A16.35,16.35,0,0,0,203.9,346a20.39,20.39,0,0,0,4.27-4.17,20.77,20.77,0,0,0,3.55-7,20.14,20.14,0,0,0-4.51-19.18,22.7,22.7,0,0,0-2.12-2,23,23,0,0,0-2.47-1.71,19.66,19.66,0,0,0-5.71-2.33,20.53,20.53,0,0,0-6.37-.55,21,21,0,0,0-12.07,4.86,20.43,20.43,0,0,0-4.21,4.81,19.28,19.28,0,0,0-2.5,5.64,21.73,21.73,0,0,0-.6,2.95,20.64,20.64,0,0,0-.12,2.93,20.17,20.17,0,0,0,10.05,16.95,20.58,20.58,0,0,0,7.43,2.62,20.25,20.25,0,0,0,6,0,15,15,0,0,0,2.16-.4,10.07,10.07,0,0,0,1.55-.43l.94-.3.33-.08-.31.13-.93.35a9.46,9.46,0,0,1-1.54.48,15,15,0,0,1-2.17.45,20.07,20.07,0,0,1-6,0,20.57,20.57,0,0,1-17.92-19.84,23.28,23.28,0,0,1,.11-3,21.55,21.55,0,0,1,.61-3,19.94,19.94,0,0,1,2.55-5.78,20.82,20.82,0,0,1,4.31-4.94,21.5,21.5,0,0,1,12.36-5A21.2,21.2,0,0,1,197,309a20,20,0,0,1,5.85,2.41,19.07,19.07,0,0,1,4.69,3.84A20.71,20.71,0,0,1,208.4,342a20.29,20.29,0,0,1-4.38,4.16,15,15,0,0,1-1.88,1.17,9.3,9.3,0,0,1-1.44.73l-.91.39A1.46,1.46,0,0,1,199.47,348.58Z" transform="translate(0 -4.8)"/><path class="cls-7" d="M165.71,332.33a2.84,2.84,0,0,1-.18-.82,17.75,17.75,0,0,1-.19-2.27,23.61,23.61,0,0,1,4.36-14.16,17.26,17.26,0,0,1,1.44-1.77c.37-.39.58-.59.61-.57s-.71,1-1.74,2.55a26.54,26.54,0,0,0-4.3,13.95C165.67,331.14,165.8,332.32,165.71,332.33Z" transform="translate(0 -4.8)"/><path class="cls-7" d="M166.34,336.87c-.14,0-.36-.47-.48-1.11s-.12-1.19,0-1.22.36.47.49,1.12S166.48,336.85,166.34,336.87Z" transform="translate(0 -4.8)"/><text class="cls-9" transform="translate(176.05 321.48) rotate(59.91)">N</text><rect class="cls-10" x="176.64" y="331.2" width="23.73" height="3.16" transform="translate(381.94 -1.97) rotate(59.91)"/><rect class="cls-10" x="184.76" y="326.5" width="23.73" height="3.16" transform="translate(381.92 -11.33) rotate(59.91)"/><path class="cls-11" d="M184.18,336.15c-12.17,5.54-23.86,12.9-37.09,14.77-18.39,2.59-36.41-5.05-53.23-13.47C69,325,46,323.69,39.19,328.61v71.73a28.74,28.74,0,0,0,28.74,28.74H213.09a28.74,28.74,0,0,0,28.74-28.74V323.69C223.26,324.67,200.11,328.9,184.18,336.15Z" transform="translate(0 -4.8)"/><path class="cls-4" d="M220.44,236c0,.15-36.63.26-81.82.26S56.8,236.12,56.8,236s36.63-.26,81.82-.26S220.44,235.83,220.44,236Z" transform="translate(0 -4.8)"/><path class="cls-4" d="M240.23,323.69l-.54,0-1.58.08c-1.4.05-3.45.17-6.09.38a143.11,143.11,0,0,0-22.1,3.54,144.94,144.94,0,0,0-31.11,11.44c-5.62,2.75-11.44,5.83-17.8,8.35a66.87,66.87,0,0,1-9.94,3.12c-.86.2-1.73.39-2.61.52l-1.32.22-1.33.14c-.9.08-1.79.22-2.69.25l-2.71.09a65.09,65.09,0,0,1-10.7-.95,89.92,89.92,0,0,1-10.11-2.49,169.81,169.81,0,0,1-18.33-7.15c-5.72-2.55-11.1-5.1-16.24-7.23a129.54,129.54,0,0,0-14.55-5.21,63.71,63.71,0,0,0-22.09-2.76c-1.33,0-2.48.24-3.49.36-.51.08-1,.12-1.4.2l-1.14.23-1.56.31c-.35.07-.53.09-.53.09l.52-.14,1.55-.36,1.14-.26c.42-.09.89-.14,1.39-.22,1-.14,2.18-.35,3.5-.41a62.84,62.84,0,0,1,22.21,2.6,131.74,131.74,0,0,1,14.62,5.17c5.16,2.12,10.55,4.66,16.27,7.19a168.42,168.42,0,0,0,18.28,7.1,89.92,89.92,0,0,0,10.05,2.47,64.17,64.17,0,0,0,10.6.94l2.69-.09c.89,0,1.77-.17,2.66-.25l1.32-.14,1.3-.22c.88-.12,1.73-.31,2.59-.5a66.65,66.65,0,0,0,9.87-3.09c6.32-2.5,12.14-5.57,17.77-8.31a143,143,0,0,1,31.24-11.36A138.36,138.36,0,0,1,232,324c2.64-.17,4.7-.26,6.09-.28l1.59,0Z" transform="translate(0 -4.8)"/><path class="cls-5" d="M85.61,362.24c3.54.82,6.9,2.29,10.39,3.31A16.69,16.69,0,0,0,97.43,363a17.95,17.95,0,1,0-31.77,1.87A29.63,29.63,0,0,1,85.61,362.24Z" transform="translate(0 -4.8)"/><path class="cls-7" d="M64.05,357.48a6.14,6.14,0,0,1-.31-2.05,15.52,15.52,0,0,1,.67-4.95A15.33,15.33,0,0,1,66.65,346a5.37,5.37,0,0,1,1.41-1.51,25.29,25.29,0,0,0-3.15,6.13A25.78,25.78,0,0,0,64.05,357.48Z" transform="translate(0 -4.8)"/><path class="cls-7" d="M64.47,360.49c-.14,0-.32-.29-.41-.72s0-.8.11-.83.32.3.4.73S64.61,360.46,64.47,360.49Z" transform="translate(0 -4.8)"/><path class="cls-7" d="M69.58,363.21l.3-.1A14,14,0,0,1,68,358.77a13.33,13.33,0,0,1,3.49-12.52,13.63,13.63,0,0,1,7-3.72,13.83,13.83,0,0,1,14.67,6.6,13.15,13.15,0,0,1,1.5,3.78,12.58,12.58,0,0,1,.32,3.89,13.38,13.38,0,0,1-2.36,6.76c-.17.24-.36.45-.54.68l.42.15c.16-.2.33-.38.47-.59a13.7,13.7,0,0,0,2.49-7,14,14,0,0,0-1.86-7.95A14.27,14.27,0,0,0,78.33,342a13.32,13.32,0,0,0-4,1.45,12.84,12.84,0,0,0-3.23,2.44,13.77,13.77,0,0,0-3.57,6.48,13.58,13.58,0,0,0,.07,6.45A13.76,13.76,0,0,0,69.58,363.21Z" transform="translate(0 -4.8)"/><g class="cls-6"><path d="M88.77,344.23a14.52,14.52,0,0,1,3.38,3,14,14,0,0,1,1.69,2.57A14.28,14.28,0,0,1,95,353.08a12.84,12.84,0,0,1,.26,1.89,13.1,13.1,0,0,1,0,2,14,14,0,0,1-.32,2,15.35,15.35,0,0,1-.66,2,13.24,13.24,0,0,1-1,1.88,13,13,0,0,1-1,1.45c.34.13.69.24,1,.36a12.42,12.42,0,0,0,.89-1.26,14.36,14.36,0,0,0,1-2,14.92,14.92,0,0,0,.7-2.18,12.74,12.74,0,0,0,.33-2.19,13.89,13.89,0,0,0,0-2.14,13.29,13.29,0,0,0-.32-2,14.15,14.15,0,0,0-1.34-3.52,13.86,13.86,0,0,0-1.9-2.65A12.8,12.8,0,0,0,89,343.87a4,4,0,0,0-1.61-.56C87.33,343.39,87.87,343.65,88.77,344.23Z" transform="translate(0 -4.8)"/></g><path class="cls-4" d="M107,367.89a1.44,1.44,0,0,1-.48.05c-.32,0-.79,0-1.4,0a31.54,31.54,0,0,1-5.09-.53,60.88,60.88,0,0,1-7.34-1.93c-2.72-.86-5.65-2-8.82-2.75a20.11,20.11,0,0,0-9.08.08,44.55,44.55,0,0,0-7.17,2.25c-2,.8-3.58,1.52-4.67,2a16.69,16.69,0,0,1-1.72.75s.13-.11.41-.27.68-.39,1.22-.66c1.06-.57,2.63-1.34,4.62-2.19a42.27,42.27,0,0,1,7.21-2.38,20.19,20.19,0,0,1,9.3-.12c3.22.79,6.15,1.92,8.85,2.8a64.82,64.82,0,0,0,7.26,2,39.32,39.32,0,0,0,5,.69A15.85,15.85,0,0,1,107,367.89Z" transform="translate(0 -4.8)"/><path class="cls-4" d="M130.85,44.7s-.23.16-.7.43-1.15.71-2,1.3c-1.76,1.18-4.28,3-7.41,5.59-1.55,1.28-3.3,2.69-5.1,4.34a14.92,14.92,0,0,0-3.25,7.09c-1.12,5.62,0,12.23,2.3,19a98.66,98.66,0,0,0,4.26,10.45c1.65,3.56,3.59,7.17,5.31,11.06.91,1.92,1.71,3.92,2.57,5.94s1.63,4.11,2.36,6.25c1.53,4.25,2.92,8.7,4.1,13.32a150,150,0,0,1,4.6,29.55c.3,5.19.24,10.48.13,15.84s-.32,10.79-.59,16.28c-.53,11-1.24,21.71-1.63,32.08s-.61,20.36-.61,29.89c0,19.06.75,36.22,1.76,50.6s2.2,26,3.11,34c.44,4,.84,7.11,1.1,9.22.12,1,.21,1.84.28,2.39s.08.82.08.82-.05-.27-.13-.81S141.17,348,141,347c-.29-2.1-.72-5.2-1.19-9.21-1-8-2.24-19.61-3.28-34s-1.82-31.55-1.87-50.62c0-9.53.16-19.54.58-29.91s1.09-21.1,1.62-32.08c.27-5.49.48-10.92.59-16.27s.17-10.63-.12-15.8a149.82,149.82,0,0,0-4.56-29.46c-1.17-4.61-2.54-9-4.06-13.29-.73-2.13-1.56-4.19-2.34-6.23s-1.65-4-2.55-5.94c-1.7-3.87-3.64-7.48-5.29-11.06a99.63,99.63,0,0,1-4.24-10.51c-2.28-6.82-3.4-13.5-2.23-19.19a15,15,0,0,1,3.36-7.21c1.83-1.66,3.58-3,5.14-4.32,3.15-2.53,5.7-4.36,7.48-5.52A27,27,0,0,1,130.85,44.7Z" transform="translate(0 -4.8)"/><path class="cls-4" d="M46.77,283.54c.15,0,.26,23.22.26,51.86s-.11,51.87-.26,51.87-.26-23.22-.26-51.87S46.63,283.54,46.77,283.54Z" transform="translate(0 -4.8)"/><path class="cls-7" d="M232.49,392.74c-.14,0-.26-10.17-.26-22.7s.12-22.71.26-22.71.26,10.16.26,22.71S232.64,392.74,232.49,392.74Z" transform="translate(0 -4.8)"/><path class="cls-7" d="M232.49,330.43a10.53,10.53,0,0,1,0,4.65,10.53,10.53,0,0,1,0-4.65Z" transform="translate(0 -4.8)"/><path class="cls-12" d="M165.08,257.69c11.33-5.46,24-7.27,36.49-8.91A46.1,46.1,0,0,1,140.5,286.2C143,273.87,153.76,263.16,165.08,257.69Z" transform="translate(0 -4.8)"/><path class="cls-4" d="M135.32,289.6a2.26,2.26,0,0,1,.41-.36,15.13,15.13,0,0,1,1.26-.94c1.12-.78,2.79-1.81,4.88-3.05,4.18-2.48,10-5.74,16.54-9.32l16.6-9.18,5-2.82,1.37-.75a2.8,2.8,0,0,1,.5-.24,2.18,2.18,0,0,1-.44.33l-1.32.84c-1.15.73-2.84,1.73-4.94,3-4.19,2.46-10,5.74-16.53,9.32s-12.38,6.78-16.6,9.17c-2.11,1.21-3.82,2.18-5,2.91S135.36,289.65,135.32,289.6Z" transform="translate(0 -4.8)"/><path class="cls-12" d="M164.75,129.24c10.5-5.07,22.26-6.74,33.82-8.26A42.72,42.72,0,0,1,142,155.67C144.24,144.23,154.26,134.3,164.75,129.24Z" transform="translate(0 -4.8)"/><path class="cls-4" d="M137.8,158.46s.12-.13.37-.34a11.67,11.67,0,0,1,1.15-.86c1-.72,2.55-1.66,4.45-2.8,3.82-2.27,9.17-5.25,15.1-8.51L174,137.57l4.58-2.56,1.26-.69a1.76,1.76,0,0,1,.45-.21,2,2,0,0,1-.4.3l-1.2.77c-1,.67-2.59,1.59-4.5,2.71-3.83,2.25-9.17,5.25-15.11,8.51s-11.31,6.19-15.16,8.38c-1.93,1.1-3.49,2-4.53,2.65S137.84,158.5,137.8,158.46Z" transform="translate(0 -4.8)"/><path class="cls-12" d="M115,182c-8.41-4.31-17.92-5.9-27.25-7.35a34.63,34.63,0,0,0,45.2,29.22C131.3,194.52,123.38,186.27,115,182Z" transform="translate(0 -4.8)"/><path class="cls-4" d="M136.24,206.17s-.46-.31-1.31-.84-2.09-1.31-3.63-2.23L119.17,196c-4.75-2.76-9-5.3-12.07-7.21-1.53-.95-2.75-1.73-3.59-2.3a10,10,0,0,1-1.27-.92,9.25,9.25,0,0,1,1.38.75l3.67,2.16,12.14,7.07c4.74,2.76,9,5.29,12.07,7.21,1.52,1,2.74,1.76,3.54,2.37a9,9,0,0,1,.91.72C136.15,206.06,136.25,206.16,136.24,206.17Z" transform="translate(0 -4.8)"/><path class="cls-12" d="M104.79,96.41C93.6,90.67,81,88.56,68.53,86.62a46.08,46.08,0,0,0,60.15,38.88C126.52,113.12,116,102.14,104.79,96.41Z" transform="translate(0 -4.8)"/><path class="cls-4" d="M133.09,128.62s-.6-.43-1.72-1.15-2.76-1.75-4.81-3c-4.1-2.46-9.83-5.76-16.14-9.43s-12-7-16.07-9.57c-2-1.26-3.67-2.29-4.78-3l-1.28-.86c-.29-.2-.44-.31-.43-.33a2.38,2.38,0,0,1,.48.24l1.33.78,4.87,2.9,16.15,9.43c6.3,3.67,12,7,16.06,9.57,2,1.28,3.66,2.33,4.74,3.13a12.61,12.61,0,0,1,1.21,1C133,128.48,133.11,128.61,133.09,128.62Z" transform="translate(0 -4.8)"/><path class="cls-12" d="M107.77,284.35c-11.33-5.47-24-7.27-36.49-8.91a46.1,46.1,0,0,0,61.07,37.42C129.9,300.52,119.09,289.81,107.77,284.35Z" transform="translate(0 -4.8)"/><path class="cls-4" d="M137.72,316.37s-.62-.43-1.78-1.14-2.86-1.71-5-2.92c-4.24-2.4-10.15-5.62-16.67-9.21s-12.4-6.89-16.61-9.36c-2.1-1.23-3.8-2.24-5-3l-1.32-.85a3.11,3.11,0,0,1-.45-.32,1.79,1.79,0,0,1,.5.23l1.38.76c1.25.71,3,1.67,5,2.83,4.32,2.4,10.19,5.64,16.67,9.22S127,309.51,131.15,312c2.09,1.25,3.78,2.28,4.9,3.07a12.19,12.19,0,0,1,1.26.93A2.5,2.5,0,0,1,137.72,316.37Z" transform="translate(0 -4.8)"/><path class="cls-4" d="M222.33,209.52c0,.14-36.63.26-81.82.26s-81.82-.12-81.82-.26,36.63-.26,81.82-.26S222.33,209.38,222.33,209.52Z" transform="translate(0 -4.8)"/><path class="cls-4" d="M222,216.22c0,.14-36.64.26-81.82.26s-81.82-.12-81.82-.26S95,216,140.17,216,222,216.08,222,216.22Z" transform="translate(0 -4.8)"/><path class="cls-4" d="M222,219.83c0,.14-36.64.26-81.82.26s-81.82-.12-81.82-.26,36.62-.26,81.82-.26S222,219.68,222,219.83Z" transform="translate(0 -4.8)"/><path class="cls-4" d="M221.82,226.53c0,.14-36.64.26-81.82.26s-81.83-.12-81.83-.26,36.63-.26,81.83-.26S221.82,226.38,221.82,226.53Z" transform="translate(0 -4.8)"/><path class="cls-12" d="M132.2,248.56a4.48,4.48,0,0,0-1.1-2,29.1,29.1,0,0,0-23.3-8.41,1.3,1.3,0,0,0-1,.38c-.35.48,0,1.13.43,1.57a27.37,27.37,0,0,0,24.93,8.46Z" transform="translate(0 -4.8)"/><path class="cls-4" d="M134.92,250.44a29.52,29.52,0,0,1-2.67-1.61,45.16,45.16,0,0,0-6.7-3.34,50,50,0,0,0-7.17-2.2,29.59,29.59,0,0,1-3-.71,2.45,2.45,0,0,1,.85,0c.54.05,1.31.16,2.27.33a39,39,0,0,1,7.28,2.07,36.15,36.15,0,0,1,6.71,3.52c.8.54,1.43,1,1.85,1.35S134.94,250.41,134.92,250.44Z" transform="translate(0 -4.8)"/><path class="cls-12" d="M132.32,115.6a4.37,4.37,0,0,1,.68-2.17,29.09,29.09,0,0,1,21.13-12.93,1.29,1.29,0,0,1,1,.18c.44.4.19,1.12-.11,1.62a27.36,27.36,0,0,1-22.72,13.3Z" transform="translate(0 -4.8)"/><path class="cls-4" d="M129.6,118.47s.15-.27.51-.7.89-1,1.59-1.74a39.31,39.31,0,0,1,6-5,40.2,40.2,0,0,1,6.86-3.7c.93-.37,1.68-.65,2.22-.81a2.86,2.86,0,0,1,.84-.21c0,.08-1.12.52-2.91,1.36A49.18,49.18,0,0,0,132,116.29,29.27,29.27,0,0,1,129.6,118.47Z" transform="translate(0 -4.8)"/><polygon class="cls-13" points="175.31 345.54 153.78 351.36 153.82 351.5 165.12 406.65 211.11 394.23 202.14 361.04 175.31 345.54"/><polygon class="cls-14" points="175.31 345.54 153.78 351.36 153.82 351.5 165.12 406.65 211.11 394.23 202.14 361.04 175.31 345.54"/><polygon class="cls-5" points="153.78 351.36 137.69 377.31 146.94 411.56 190 399.93 180.94 366.41 153.78 351.36"/><path class="cls-4" d="M161.24,412.5a7.2,7.2,0,0,1-.43-1.25c-.26-.89-.6-2.07-1-3.5-.86-3.08-2-7.25-3.35-12l-.07-.24.25-.07L162,394l5.34-1.43.24-.06.07.24,3.17,12.09c.36,1.45.65,2.63.88,3.54a8.27,8.27,0,0,1,.26,1.29,7.2,7.2,0,0,1-.43-1.25c-.26-.89-.61-2.07-1-3.5-.86-3.08-2-7.25-3.35-12l.31.18-5.33,1.45-5.34,1.43.18-.31,3.17,12.09c.36,1.45.65,2.63.88,3.54A8.52,8.52,0,0,1,161.24,412.5Z" transform="translate(0 -4.8)"/><g class="cls-6"><rect class="cls-7" x="167.3" y="377.07" width="9.5" height="9.5" transform="matrix(0.97, -0.26, 0.26, 0.97, -93.6, 53.26)"/></g><g class="cls-6"><rect class="cls-7" x="144.91" y="383.12" width="9.5" height="9.5" transform="translate(-95.95 47.63) rotate(-15.11)"/></g><rect class="cls-13" x="140.12" y="363.39" width="4.75" height="14.1" transform="translate(-91.66 45.16) rotate(-15.11)"/><path class="cls-7" d="M153.78,356.16a1.88,1.88,0,0,1,.37-.13l1.11-.33,4.28-1.21,15.72-4.33.07,0,.07,0,26.9,15.39.55.31-.61.15-14.64,3.75L181,371.47l-.1,0-.09-.05-27.15-15.09.29-.08L142.2,375.08l-3.31,5.22-.88,1.36a3,3,0,0,1-.32.46,3.46,3.46,0,0,1,.26-.49c.21-.34.48-.81.83-1.4.76-1.24,1.84-3,3.21-5.28,2.8-4.58,6.8-11.07,11.6-18.9l.11-.18.18.1,27.19,15-.19,0,6.59-1.69,14.64-3.74-.06.47-26.84-15.5.15,0L159.6,354.7l-4.31,1.11-1.12.27Z" transform="translate(0 -4.8)"/><g class="cls-6"><polyline class="cls-7" points="171.91 404.82 167.35 387.96 156.69 390.84 161.24 407.7"/></g><path class="cls-11" d="M223.32,405.42a31.26,31.26,0,0,0-32-7.22c-7.61,2.74-14.59,8.58-22.65,7.89-4.42-.37-8.41-2.71-12.66-4a28.25,28.25,0,0,0-27,6.16l-3.78,12.12s102.84,3.85,102.84,0S223.32,405.42,223.32,405.42Z" transform="translate(0 -4.8)"/><path class="cls-4" d="M218.69,401.16a4.81,4.81,0,0,1-.78-.39c-.5-.27-1.24-.66-2.22-1.1A34.06,34.06,0,0,0,207,397a29.07,29.07,0,0,0-13.33.87c-4.9,1.43-9.88,4.07-15.28,6.45-2.69,1.2-5.46,2.33-8.33,2.36s-5.45-1.15-7.77-2.16a34.22,34.22,0,0,0-22.08-2.42c-1,.24-1.86.45-2.4.62a5.44,5.44,0,0,1-.84.22,4.36,4.36,0,0,1,.81-.32c.53-.2,1.34-.44,2.39-.72a32.93,32.93,0,0,1,9.11-1,34.13,34.13,0,0,1,13.21,3.15c2.32,1,4.82,2.15,7.56,2.09s5.45-1.13,8.12-2.32c5.38-2.38,10.4-5,15.36-6.44a29.11,29.11,0,0,1,13.53-.77,32.5,32.5,0,0,1,8.73,2.82,24.92,24.92,0,0,1,2.19,1.2A6.2,6.2,0,0,1,218.69,401.16Z" transform="translate(0 -4.8)"/><rect class="cls-5" x="74.99" y="389.03" width="37.72" height="15.66" transform="translate(66.55 -14.84) rotate(9.47)"/><rect class="cls-5" x="67.52" y="388.16" width="57.67" height="3.1" transform="translate(65.41 -15.35) rotate(9.47)"/><g class="cls-6"><rect x="107.79" y="391.5" width="17.12" height="3.08" transform="translate(66.23 -18.59) rotate(9.47)"/></g><g class="cls-6"><rect x="94.85" y="392.58" width="17.57" height="13.76" transform="matrix(0.99, 0.16, -0.16, 0.99, 67.11, -16.41)"/></g><path class="cls-7" d="M124.61,396c0,.14-12.73-1.86-28.39-4.47s-28.32-4.84-28.3-5,12.73,1.86,28.39,4.47S124.63,395.84,124.61,396Z" transform="translate(0 -4.8)"/><path class="cls-4" d="M68.77,400.07c5.59-.84,11.46-1.65,16.74.34,3.23,1.21,6.1,3.42,9.5,4,4,.68,8.15-1.1,12.24-.79a12.3,12.3,0,0,1,9.06,5.2,4.84,4.84,0,0,1-3.44,2.66,14.43,14.43,0,0,1-4.5.13c-9.08-.7-18.18-1.4-27.17-2.93a24.45,24.45,0,0,1-7.79-2.32,9.26,9.26,0,0,1-4.89-6.2" transform="translate(0 -4.8)"/><path class="cls-7" d="M65.63,398.58s.33-.33.81-1,1.12-1.72,1.89-3c1.54-2.58,3.5-6.37,6.92-9.6a11.83,11.83,0,0,1,5.8-3.05,7.39,7.39,0,0,1,5.26.9,6.1,6.1,0,0,1,2.42,2.68,4.41,4.41,0,0,1,.3.94c0,.22,0,.34,0,.34s-.13-.45-.51-1.19a6.15,6.15,0,0,0-2.43-2.45,7.09,7.09,0,0,0-5-.75,11.59,11.59,0,0,0-5.54,3,30.15,30.15,0,0,0-4.12,4.94c-1.12,1.63-2,3.2-2.84,4.47a30.34,30.34,0,0,1-2,2.95C66.06,398.35,65.65,398.61,65.63,398.58Z" transform="translate(0 -4.8)"/><path class="cls-4" d="M122.5,408.36a7.22,7.22,0,0,1-2.47-.05A23.6,23.6,0,0,1,113.7,406a28.69,28.69,0,0,0-4.28-1.71,12,12,0,0,0-2.5-.43,13.83,13.83,0,0,0-2.69.2c-1.84.29-3.72.9-5.77,1.22a11.31,11.31,0,0,1-3.19.1,9.18,9.18,0,0,1-3.11-1.06c-2-1-3.56-2.47-5.35-3.38a15.14,15.14,0,0,0-5.58-1.48c-3.71-.33-7.11.13-10,0a24.81,24.81,0,0,1-6.69-.95,14.09,14.09,0,0,1-1.72-.65,2.64,2.64,0,0,1-.57-.3s.82.34,2.34.75a26.25,26.25,0,0,0,6.64.78c2.83.07,6.21-.44,10-.13a15.53,15.53,0,0,1,5.76,1.5c1.88,1,3.48,2.37,5.37,3.38a8.16,8.16,0,0,0,2.93,1,10.67,10.67,0,0,0,3-.08c2-.31,3.89-.9,5.77-1.19a13.22,13.22,0,0,1,2.79-.18,11.31,11.31,0,0,1,2.59.47,27.41,27.41,0,0,1,4.33,1.79,25.58,25.58,0,0,0,6.2,2.49A17.75,17.75,0,0,0,122.5,408.36Z" transform="translate(0 -4.8)"/><path class="cls-15" d="M133.09,123.21" transform="translate(0 -4.8)"/><path class="cls-4" d="M143.35,63A11.47,11.47,0,0,1,142,64c-.45.3-1,.67-1.6,1.15s-1.33,1-2.06,1.6S136.76,68,136,68.83s-1.7,1.63-2.58,2.54a50.58,50.58,0,0,0-5.14,6.51,47.31,47.31,0,0,0-3.86,7.33c-.47,1.19-.93,2.31-1.25,3.4s-.63,2.1-.87,3-.39,1.8-.56,2.55-.26,1.41-.33,1.94a11.36,11.36,0,0,1-.3,1.66,9.59,9.59,0,0,1,.1-1.68,15.8,15.8,0,0,1,.25-2c.13-.76.23-1.64.48-2.58s.46-2,.82-3.08.75-2.25,1.21-3.45a45.39,45.39,0,0,1,3.88-7.43A47.91,47.91,0,0,1,133,71c.9-.91,1.76-1.78,2.64-2.53s1.68-1.43,2.44-2,1.5-1.09,2.12-1.55,1.19-.8,1.66-1.08A9.73,9.73,0,0,1,143.35,63Z" transform="translate(0 -4.8)"/><path class="cls-5" d="M105.89,157.83a12.77,12.77,0,1,1,7-16.61A12.75,12.75,0,0,1,105.89,157.83Z" transform="translate(0 -4.8)"/><g class="cls-6"><path d="M96.14,149.17l-1.56.66-.58-1.4,1.52-.63a7.25,7.25,0,0,1-.35-4l2,.05a6.12,6.12,0,0,0,.15,3.13l2.33-1c-.28-1.71-.49-3.66,1.51-4.49,1.48-.62,3.2-.08,4.38,2l1.55-.65.58,1.39-1.52.64a6.87,6.87,0,0,1,.34,3.19l-2,0a6.34,6.34,0,0,0-.17-2.45l-2.38,1c.29,1.7.49,3.62-1.48,4.45C99,151.79,97.33,151.25,96.14,149.17Zm5.59-4,2-.83c-.48-.67-1-.8-1.47-.6S101.67,144.49,101.73,145.19ZM99.37,149c.49-.2.59-.72.54-1.41L98,148.4C98.43,149,98.93,149.19,99.37,149Z" transform="translate(0 -4.8)"/></g><g class="cls-6"><path d="M105.73,154.52a6.86,6.86,0,0,1,1-.68,10.1,10.1,0,0,0,2.35-2.15,9.84,9.84,0,0,0,1.16-1.86,9.32,9.32,0,0,0,.93-3.72,9.57,9.57,0,0,0,0-1.41,9.17,9.17,0,0,0-.26-1.43,9.6,9.6,0,0,0-.5-1.42,8.79,8.79,0,0,0-.71-1.32,8.52,8.52,0,0,0-.88-1.17,9.32,9.32,0,0,0-1-1,8.84,8.84,0,0,0-1.09-.79,10,10,0,0,0-2.28-1,9.93,9.93,0,0,0-5.33-.12,5.21,5.21,0,0,1-1.16.27,2.72,2.72,0,0,1,1.08-.55,8.77,8.77,0,0,1,3.28-.52,9.81,9.81,0,0,1,2.3.33,10,10,0,0,1,2.46,1,9.42,9.42,0,0,1,1.19.83,9.07,9.07,0,0,1,1.1,1,8.45,8.45,0,0,1,1,1.25,10.75,10.75,0,0,1,.78,1.42,12.6,12.6,0,0,1,.53,1.53,12.28,12.28,0,0,1,.27,1.55,9.69,9.69,0,0,1,0,1.52,9.43,9.43,0,0,1-.19,1.44,10,10,0,0,1-.9,2.52,10.55,10.55,0,0,1-1.3,1.92,9,9,0,0,1-2.61,2.06A2.88,2.88,0,0,1,105.73,154.52Z" transform="translate(0 -4.8)"/></g><path class="cls-7" d="M104.92,154.94a22.1,22.1,0,0,0,2.06-1.25,9.93,9.93,0,0,0,3.62-5.27,9.37,9.37,0,0,0-2.13-8.91,8.59,8.59,0,0,0-2.13-1.73,8.7,8.7,0,0,0-2.65-1.08,9.75,9.75,0,0,0-10.52,4.23,9.62,9.62,0,0,0-1.5,5.35,9.47,9.47,0,0,0,1.46,4.83,9.58,9.58,0,0,0,3.19,3.07,9.85,9.85,0,0,0,6.26,1.28,23.07,23.07,0,0,0,2.34-.52,7.42,7.42,0,0,1-2.32.72,9.8,9.8,0,0,1-6.46-1.17,9.65,9.65,0,0,1-3.37-3.15,9.82,9.82,0,0,1-1.58-5.05,9.13,9.13,0,0,1,.34-2.87,9.4,9.4,0,0,1,1.21-2.76,10.2,10.2,0,0,1,11.07-4.46,9.66,9.66,0,0,1,2.79,1.15,9.28,9.28,0,0,1,2.23,1.84,9.83,9.83,0,0,1-1.73,14.66A7.76,7.76,0,0,1,104.92,154.94Z" transform="translate(0 -4.8)"/><path class="cls-7" d="M89,147.29a9.59,9.59,0,0,1,2.84-9.21,23,23,0,0,0-2.16,4.38A22.52,22.52,0,0,0,89,147.29Z" transform="translate(0 -4.8)"/><path class="cls-7" d="M89.33,149.43c-.14,0-.3-.19-.36-.5s0-.57.14-.6.31.2.37.5S89.47,149.41,89.33,149.43Z" transform="translate(0 -4.8)"/><path class="cls-12" d="M92.36,157.49c8,3.2,18,2.78,25-2.16h0c-3.67-3-8.57-5.59-13.24-5A17.57,17.57,0,0,0,92.36,157.49Z" transform="translate(0 -4.8)"/><path class="cls-12" d="M105.87,133.1a26.33,26.33,0,0,1,11.63,21.78l-.21.74a17.35,17.35,0,0,1-11.42-22.52Z" transform="translate(0 -4.8)"/><path class="cls-4" d="M137.59,173.21a8.73,8.73,0,0,1-.75-1.24,31.34,31.34,0,0,0-6.07-7.58c-1.61-1.49-3.5-3-5.49-4.59a50.47,50.47,0,0,0-10.88-7c-1.51-.69-2.77-1.17-3.65-1.47a8.57,8.57,0,0,1-1.36-.5,6.5,6.5,0,0,1,1.42.31,29.1,29.1,0,0,1,3.74,1.32,46.18,46.18,0,0,1,11.06,6.93c2,1.58,3.88,3.11,5.49,4.65a31.17,31.17,0,0,1,3.87,4.43,26.16,26.16,0,0,1,2.05,3.39A8.1,8.1,0,0,1,137.59,173.21Z" transform="translate(0 -4.8)"/><path class="cls-5" d="M157.54,204.68a6.83,6.83,0,1,1,6.3,7.3A6.81,6.81,0,0,1,157.54,204.68Z" transform="translate(0 -4.8)"/><g class="cls-6"><path d="M164,202.05l0-.9.81,0,0,.88a3.91,3.91,0,0,1,2,.77l-.5,1a3.33,3.33,0,0,0-1.54-.67l-.08,1.35c.89.27,1.87.63,1.8,1.79,0,.85-.71,1.55-2,1.62l0,.9-.81,0,0-.88a3.62,3.62,0,0,1-1.61-.59l.46-1a3.23,3.23,0,0,0,1.22.49l.08-1.37c-.89-.26-1.85-.62-1.79-1.76C162.05,202.82,162.71,202.13,164,202.05Zm.59,3.62-.07,1.15c.44-.07.62-.3.64-.56S164.93,205.8,164.58,205.67Zm-1.27-2c0,.28.21.45.55.59l.06-1.11C163.52,203.18,163.33,203.38,163.31,203.64Z" transform="translate(0 -4.8)"/></g><g class="cls-6"><path d="M159.16,205.39a2.87,2.87,0,0,1,.09.63,5.58,5.58,0,0,0,.48,1.64,5.73,5.73,0,0,0,.62,1,5,5,0,0,0,1,.94,6.17,6.17,0,0,0,.6.39,5.37,5.37,0,0,0,.69.31,4.61,4.61,0,0,0,.75.21,5,5,0,0,0,1.6.07,5,5,0,0,0,.77-.15,4.61,4.61,0,0,0,.71-.25,4.77,4.77,0,0,0,.63-.34,4.93,4.93,0,0,0,1-.85,5.27,5.27,0,0,0,.7-.93,5.62,5.62,0,0,0,.61-1.59,3.2,3.2,0,0,1,.15-.63,1.7,1.7,0,0,1,0,.65,4.72,4.72,0,0,1-.53,1.7,4.82,4.82,0,0,1-.7,1,5.49,5.49,0,0,1-1.76,1.31,4.57,4.57,0,0,1-.76.28,7,7,0,0,1-.82.17,6.33,6.33,0,0,1-.87,0,6.13,6.13,0,0,1-.86-.11,5.39,5.39,0,0,1-.81-.23,5.47,5.47,0,0,1-.73-.35,6.1,6.1,0,0,1-.65-.43,5,5,0,0,1-1-1,5.23,5.23,0,0,1-.62-1.08,4.83,4.83,0,0,1-.37-1.73A1.62,1.62,0,0,1,159.16,205.39Z" transform="translate(0 -4.8)"/></g><path class="cls-7" d="M159.15,204.9a9.3,9.3,0,0,0,.1,1.29,5.29,5.29,0,0,0,1.67,3,5.08,5.08,0,0,0,4.81,1.1,5.23,5.23,0,0,0,.72-9.72,5.08,5.08,0,0,0-4.92.37,5.3,5.3,0,0,0-2.09,2.72,9.71,9.71,0,0,0-.29,1.25,4.51,4.51,0,0,1,.21-1.28,5.31,5.31,0,0,1,2.09-2.81,5.24,5.24,0,0,1,5.08-.43,5.41,5.41,0,0,1-.75,10.08,5.23,5.23,0,0,1-5-1.17,5.3,5.3,0,0,1-1.65-3.09A4.49,4.49,0,0,1,159.15,204.9Z" transform="translate(0 -4.8)"/><path class="cls-7" d="M166.57,199.08a2.17,2.17,0,0,1,.75.24,5.6,5.6,0,0,1,2.72,2.57,2,2,0,0,1,.28.73,9.79,9.79,0,0,0-1.57-2.09A10.38,10.38,0,0,0,166.57,199.08Z" transform="translate(0 -4.8)"/><path class="cls-7" d="M165.47,198.72c0-.06.16-.07.32,0s.27.12.26.18-.16.06-.32,0S165.46,198.78,165.47,198.72Z" transform="translate(0 -4.8)"/><path class="cls-12" d="M162.54,196.69a16.26,16.26,0,0,0-7.68,13.17l.11.46a10.7,10.7,0,0,0,7.57-13.63Z" transform="translate(0 -4.8)"/><path class="cls-12" d="M170.29,211.18a16.26,16.26,0,0,1-15.22-.81l-.32-.34a10.7,10.7,0,0,1,15.54,1.15Z" transform="translate(0 -4.8)"/><path class="cls-4" d="M158,208a13,13,0,0,1-1.41,1c-.46.31-1,.7-1.64,1.2s-1.37,1-2.11,1.68-1.6,1.35-2.43,2.18-1.72,1.72-2.63,2.68a55.94,55.94,0,0,0-5.2,6.81,54.17,54.17,0,0,0-4,7.6c-.48,1.23-1,2.38-1.3,3.51-.18.56-.38,1.09-.52,1.62s-.27,1-.4,1.51c-.28,1-.43,1.85-.6,2.63s-.28,1.45-.35,2a12.84,12.84,0,0,1-.31,1.71,9.83,9.83,0,0,1,.11-1.74,17.63,17.63,0,0,1,.27-2c.14-.79.26-1.69.52-2.67l.37-1.53c.14-.53.33-1.08.5-1.64.32-1.15.79-2.32,1.26-3.57a51.52,51.52,0,0,1,4-7.69,52.64,52.64,0,0,1,5.29-6.86c.93-1,1.79-1.88,2.68-2.66s1.71-1.52,2.49-2.15,1.53-1.17,2.18-1.64,1.22-.84,1.7-1.13A11.06,11.06,0,0,1,158,208Z" transform="translate(0 -4.8)"/><path class="cls-5" d="M120.88,58.42A27.13,27.13,0,1,1,141.38,26,27.11,27.11,0,0,1,120.88,58.42Z" transform="translate(0 -4.8)"/><g class="cls-6"><path d="M121.69,51.43A12.86,12.86,0,0,1,124,50.36a22.15,22.15,0,0,0,5.66-3.71,20.32,20.32,0,0,0,5.52-8.21,18.71,18.71,0,0,0,.79-2.76,19.14,19.14,0,0,0,.4-3,21.32,21.32,0,0,0-.05-3.09,23.09,23.09,0,0,0-.55-3.15,21.91,21.91,0,0,0-1-3,19.29,19.29,0,0,0-1.45-2.74,18.76,18.76,0,0,0-1.78-2.41,19.47,19.47,0,0,0-2-2,20.59,20.59,0,0,0-4.41-3,20.91,20.91,0,0,0-4.37-1.58A22,22,0,0,0,114,11.2a11.74,11.74,0,0,1-2.54.17,6,6,0,0,1,2.46-.78,19.26,19.26,0,0,1,7.06,0,21,21,0,0,1,4.7,1.49,21.45,21.45,0,0,1,4.8,3,19.53,19.53,0,0,1,2.21,2.16,20.17,20.17,0,0,1,1.95,2.57,20.65,20.65,0,0,1,1.58,2.94,22,22,0,0,1,1.12,3.26,21.09,21.09,0,0,1,.58,3.39,20.8,20.8,0,0,1-.43,6.54,20.22,20.22,0,0,1-.91,3,20.68,20.68,0,0,1-6.14,8.54,19.24,19.24,0,0,1-6.18,3.43A6.06,6.06,0,0,1,121.69,51.43Z" transform="translate(0 -4.8)"/></g><path class="cls-7" d="M119.85,52l.32-.12,1-.29a11,11,0,0,0,1.52-.52,15.72,15.72,0,0,0,2-.9,20.13,20.13,0,0,0,4.9-3.42,21,21,0,0,0,4.64-6.37,20.2,20.2,0,0,0-1.33-19.66,23.07,23.07,0,0,0-1.76-2.34,22.46,22.46,0,0,0-2.16-2.09,19.68,19.68,0,0,0-5.26-3.23,20.57,20.57,0,0,0-6.2-1.58,21,21,0,0,0-12.7,2.84,20.48,20.48,0,0,0-4.93,4.06,19.35,19.35,0,0,0-3.39,5.16,22.83,22.83,0,0,0-1.07,2.81,22.5,22.5,0,0,0-.59,2.87A20.17,20.17,0,0,0,102,47.62a20.93,20.93,0,0,0,12.79,4.8,15.38,15.38,0,0,0,2.19,0,11.91,11.91,0,0,0,1.6-.17l1-.14a1.45,1.45,0,0,1,.34,0l-.33.08-1,.19a8.82,8.82,0,0,1-1.6.22,15,15,0,0,1-2.21.1,20.27,20.27,0,0,1-6-.94,20.93,20.93,0,0,1-7.06-3.79,20.52,20.52,0,0,1-5.87-7.7,20.74,20.74,0,0,1-1.53-11,22,22,0,0,1,.6-2.95A22.36,22.36,0,0,1,96,23.37a20.07,20.07,0,0,1,3.45-5.29,21.14,21.14,0,0,1,5.06-4.17,23.27,23.27,0,0,1,6.27-2.49,22.91,22.91,0,0,1,6.74-.41,20.9,20.9,0,0,1,6.35,1.62A20.12,20.12,0,0,1,129.25,16a22.29,22.29,0,0,1,2.2,2.14,24,24,0,0,1,1.8,2.41A20.68,20.68,0,0,1,129.73,47a20.24,20.24,0,0,1-5,3.4,15.74,15.74,0,0,1-2,.85,10.36,10.36,0,0,1-1.54.48l-1,.24Z" transform="translate(0 -4.8)"/><path class="cls-7" d="M89.18,30.51a2.84,2.84,0,0,1-.05-.83,17.81,17.81,0,0,1,.19-2.27,23.56,23.56,0,0,1,6.6-13.26,16.32,16.32,0,0,1,1.71-1.51,2.83,2.83,0,0,1,.69-.47c.06.07-.85.83-2.13,2.23a26.59,26.59,0,0,0-6.51,13.07C89.33,29.33,89.28,30.52,89.18,30.51Z" transform="translate(0 -4.8)"/><path class="cls-7" d="M89.06,35.1c-.14,0-.27-.52-.29-1.18s.08-1.19.22-1.19.28.52.3,1.18S89.21,35.1,89.06,35.1Z" transform="translate(0 -4.8)"/><text class="cls-16" transform="translate(104.74 24.12) rotate(59.91)">N</text><rect class="cls-10" x="105.15" y="32.31" width="16.35" height="2.18" transform="translate(85.41 -86.2) rotate(59.91)"/><rect class="cls-10" x="110.73" y="29.07" width="16.35" height="2.18" transform="translate(85.39 -92.65) rotate(59.91)"/></g><g id="Character"><path class="cls-4" d="M306.16,109.05c-1-2.08-2.38-4-2.82-6.3-.49-2.57.24-5.44-1.07-7.71-1.55-2.68-5.14-3.2-7.79-4.82-4.32-2.65-2.9-16.39-13.34-20.91l-3.63,20.48q-.09,20.25-1,40.46a194.24,194.24,0,0,0,20.18.74,14.23,14.23,0,0,0,5.28-.78c3.1-1.31,4.92-4.6,5.69-7.87A20.37,20.37,0,0,0,306.16,109.05Z" transform="translate(0 -4.8)"/><path class="cls-13" d="M283,102.53l-12.26,26.69-3.1-17.46-2.14,3.53s-3.63,23.77-2.76,28c1.13,5.51,5.35,9.93,5.35,9.93l4.32,20.57c.32,2.19,2.31,3.75,3.21,3.46l30.32-14.73c1.7-1.27,1.68-2.86.74-5l-1.73-3.89L304.39,129c0-1.52-.52-13.56-1.58-18.18a11.39,11.39,0,0,0-7-8.09C293.36,101.8,286.29,100.65,283,102.53Z" transform="translate(0 -4.8)"/><path class="cls-4" d="M276.67,86.81,248.18,68.9c-3.69,9.15-.6,19.91.6,22.88s2.68,6.09,2.07,9.23c-.43,2.22-1.86,4.11-2.7,6.22a12.27,12.27,0,0,0,.28,9.62c.95,2,2.5,4,2.39,6.2s-2.06,4.26-2.41,6.6c-.39,2.53,1.16,4.95,2.94,6.79A7.37,7.37,0,0,0,256,139c2,.11,3.78-1.15,5.11-2.62,3-3.33,4.29-7.83,5-12.24s1-8.92,2.39-13.18c1.3-4.11,3.55-7.84,5.38-11.74S277.16,91.09,276.67,86.81Z" transform="translate(0 -4.8)"/><polygon class="cls-17" points="355.29 238.13 375.67 215.45 366.33 206.08 342.21 226.66 355.29 238.13"/><path class="cls-13" d="M373.07,223.32l.63-.61s14.7,6.5,16.84,4.63l-20.79-21.1L363,213.45A16.94,16.94,0,0,1,373.07,223.32Z" transform="translate(0 -4.8)"/><g class="cls-18"><path class="cls-7" d="M367.36,213.37a1.21,1.21,0,0,1,.4-1.56,1.16,1.16,0,0,1,1.56.38,1.28,1.28,0,0,1-.43,1.65,1.21,1.21,0,0,1-1.58-.57" transform="translate(0 -4.8)"/></g><g class="cls-18"><path class="cls-7" d="M369.75,206.24,368.13,208l20.52,19.58s1.33.54,1.89-.22Z" transform="translate(0 -4.8)"/></g><path class="cls-4" d="M373.83,222.72c.1-.1-.36-.66-.53-1.49s0-1.53-.13-1.59-.58.69-.36,1.69S373.76,222.84,373.83,222.72Z" transform="translate(0 -4.8)"/><path class="cls-4" d="M376.93,224c.12-.08-.14-.7-.05-1.48s.45-1.33.34-1.43-.75.41-.84,1.38S376.83,224.13,376.93,224Z" transform="translate(0 -4.8)"/><path class="cls-4" d="M380.81,222.68c-.07-.11-.72.25-1,1.07s-.06,1.53.07,1.48.14-.63.4-1.3S380.91,222.8,380.81,222.68Z" transform="translate(0 -4.8)"/><path class="cls-4" d="M290.07,115.22c.06,0-.2-.81-.39-2.14a15,15,0,0,1,.17-5.18,8.24,8.24,0,0,1,2.27-4.54,4.82,4.82,0,0,1,1.89-1,1.17,1.17,0,0,0-.6,0,3.53,3.53,0,0,0-1.47.71,8,8,0,0,0-2.49,4.68,13.36,13.36,0,0,0-.05,5.31A6.46,6.46,0,0,0,290.07,115.22Z" transform="translate(0 -4.8)"/><polygon class="cls-17" points="294.96 306.54 298.2 337.47 311.68 336.8 312.58 304.48 294.96 306.54"/><path class="cls-13" d="M297.66,338.21l0,.89s-15,6.7-15,9.59l30.18-1.32-.85-10A17.27,17.27,0,0,1,297.66,338.21Z" transform="translate(0 -4.8)"/><path class="cls-4" d="M293.07,344c.12,0,.27-.63-.09-1.33s-1-.95-1-.84.35.47.64,1.05S292.94,344,293.07,344Z" transform="translate(0 -4.8)"/><g class="cls-18"><path class="cls-7" d="M309.09,340.69a1.23,1.23,0,0,1,.92,1.37,1.18,1.18,0,0,1-1.35.91,1.28,1.28,0,0,1-1-1.45,1.23,1.23,0,0,1,1.51-.8" transform="translate(0 -4.8)"/></g><g class="cls-18"><path class="cls-7" d="M312.86,347.37l-.21-2.41L283.8,347.1s-1.31.65-1.12,1.59Z" transform="translate(0 -4.8)"/></g><path class="cls-4" d="M297.59,339.19c0,.15.75.19,1.5.63s1.16,1,1.29,1-.12-.91-1-1.43S297.55,339.06,297.59,339.19Z" transform="translate(0 -4.8)"/><path class="cls-4" d="M294.48,340.64c0,.15.63.37,1.15,1s.71,1.25.85,1.24.21-.85-.46-1.58S294.48,340.5,294.48,340.64Z" transform="translate(0 -4.8)"/><path class="cls-4" d="M355.21,220.29,333,236.9s-7.18-21.88-9.2-34.56c0,0,2.59-11.1-1.57-19.1-5.33-9.14-11.26-13-11.26-13l-5-7.68-30.32,14.73L283,201.23l1.33,70.45,12.2,59.69,16-.06s1.47-34.74-2.71-47.68-2.9-19.34-2.9-19.34l2.89-30c9.88,38,25.31,28.74,30.55,25.07,8.3-5.84,26-28.4,26-28.4Z" transform="translate(0 -4.8)"/><path class="cls-19" d="M281.13,175.19a4,4,0,0,0,.68.65,6.44,6.44,0,0,0,.87.69,12.79,12.79,0,0,0,1.22.83,15.84,15.84,0,0,0,1.56.86c.57.3,1.21.54,1.88.82a22.88,22.88,0,0,0,4.56,1.12,22.58,22.58,0,0,0,4.7.07c.72-.1,1.4-.17,2-.32a14,14,0,0,0,1.73-.44,12.39,12.39,0,0,0,1.39-.48,8.46,8.46,0,0,0,1-.45,5.21,5.21,0,0,0,.83-.46c0-.08-1.23.55-3.31,1.12a16.45,16.45,0,0,1-1.72.38,18.78,18.78,0,0,1-2,.27,24,24,0,0,1-4.61-.09,23.63,23.63,0,0,1-4.49-1.08,18,18,0,0,1-1.86-.77,17.57,17.57,0,0,1-1.57-.8C282.18,176,281.18,175.12,281.13,175.19Z" transform="translate(0 -4.8)"/><path class="cls-4" d="M283,72.2c-2.9-4.81-6.81-9.42-12.15-11.19-4.75-1.57-10.7-.83-15.34,1.06a17.82,17.82,0,0,0-6.12,4.8c-2.21,2.57-2.24,6.16-2.53,9.53-.6,6.75,2.55,14.46,5.15,16l28.75,4.08c3.48-3.76,7.05-8.47,6.49-13.57C286.92,79.42,284.85,75.19,283,72.2Z" transform="translate(0 -4.8)"/><path class="cls-17" d="M270.65,66l-16.82,1c-5.16,1-6.54,8.24-5.27,13.35,1.4,5.67,3.34,12.55,5.31,16.49,4,7.93,10.69,7,10.69,7s.06.12.89,2.58l2,6.4,2.7,19.15,12.79-27.16-8.71-36.6A3.07,3.07,0,0,0,270.65,66Z" transform="translate(0 -4.8)"/><path class="cls-20" d="M252,86.2a1.13,1.13,0,0,0,1.37.76,1.08,1.08,0,0,0,.8-1.32,1.11,1.11,0,0,0-1.37-.75A1.07,1.07,0,0,0,252,86.2Z" transform="translate(0 -4.8)"/><path class="cls-20" d="M251.15,83.4c.18.1.8-.75,1.95-1.11s2.18-.05,2.26-.24-.17-.29-.62-.44a3.12,3.12,0,0,0-1.87,0,3,3,0,0,0-1.49,1.07C251.11,83.07,251.07,83.36,251.15,83.4Z" transform="translate(0 -4.8)"/><path class="cls-20" d="M263.16,82.75a1.13,1.13,0,0,0,1.37.76,1.08,1.08,0,0,0,.8-1.32,1.11,1.11,0,0,0-1.37-.75A1.07,1.07,0,0,0,263.16,82.75Z" transform="translate(0 -4.8)"/><path class="cls-20" d="M262.54,80.05c.18.09.8-.76,1.95-1.12s2.18-.05,2.26-.23-.17-.29-.62-.45a3.13,3.13,0,0,0-1.87,0,2.94,2.94,0,0,0-1.49,1.06C262.5,79.71,262.46,80,262.54,80.05Z" transform="translate(0 -4.8)"/><path class="cls-20" d="M261.06,89.91a7.61,7.61,0,0,0-2,.25c-.3.06-.6.09-.71-.09a1.52,1.52,0,0,1-.08-.94c0-.79.1-1.63.16-2.51a41.64,41.64,0,0,0,.11-6.48,39.4,39.4,0,0,0-.63,6.46c0,.87-.08,1.71-.12,2.51a1.78,1.78,0,0,0,.21,1.21.77.77,0,0,0,.62.27,1.87,1.87,0,0,0,.52-.09A7.7,7.7,0,0,0,261.06,89.91Z" transform="translate(0 -4.8)"/><path class="cls-21" d="M264.56,103.79a22.28,22.28,0,0,0,10.24-6.51s-.92,6.72-9.52,8.57Z" transform="translate(0 -4.8)"/><path class="cls-21" d="M265.54,90.86a1.92,1.92,0,0,0-1.8-.35,2.51,2.51,0,0,0-1.85,1.77,1.55,1.55,0,0,0,.24,1.11c.14.16.05.09.23.17a4.36,4.36,0,0,0,2.06.53,1.9,1.9,0,0,0,1.69-1.31A1.93,1.93,0,0,0,265.54,90.86Z" transform="translate(0 -4.8)"/><path class="cls-20" d="M264.7,89.64c-.19,0,.2,1.3-.59,2.52S262,93.67,262,93.85s.37.15.94,0a3.2,3.2,0,0,0,1.79-1.33,2.85,2.85,0,0,0,.42-2.09C265,89.87,264.78,89.6,264.7,89.64Z" transform="translate(0 -4.8)"/><path class="cls-20" d="M261.18,77.56c.21.27,1.32-.24,2.72-.5s2.61-.24,2.7-.58c0-.16-.24-.39-.78-.56a4.86,4.86,0,0,0-4.13.82C261.26,77.1,261.09,77.42,261.18,77.56Z" transform="translate(0 -4.8)"/><path class="cls-20" d="M250.31,79.29c.29.2,1-.32,1.95-.64s1.82-.38,1.91-.71c0-.16-.17-.38-.6-.52a2.93,2.93,0,0,0-1.72.07,2.87,2.87,0,0,0-1.39,1C250.21,78.89,250.18,79.19,250.31,79.29Z" transform="translate(0 -4.8)"/><path class="cls-17" d="M275.25,79c.1-.09,4.16-3,5.62,1.67s-3.52,5.17-3.57,5S275.25,79,275.25,79Z" transform="translate(0 -4.8)"/><path class="cls-20" d="M278.17,83.52s.1,0,.25,0a.82.82,0,0,0,.61-.18,2.11,2.11,0,0,0,.37-2.1,2.94,2.94,0,0,0-.59-1.09,1,1,0,0,0-.81-.43.45.45,0,0,0-.41.37c0,.15,0,.24,0,.25s-.13,0-.15-.25a.56.56,0,0,1,.09-.35.73.73,0,0,1,.41-.26A1.24,1.24,0,0,1,279,80a2.94,2.94,0,0,1,.69,1.21,2.22,2.22,0,0,1-.56,2.39,1,1,0,0,1-.78.11C278.21,83.63,278.15,83.53,278.17,83.52Z" transform="translate(0 -4.8)"/><path class="cls-4" d="M250.39,67.06A12,12,0,0,0,247,74.28a18.77,18.77,0,0,0,1,8l.55-.5a7.59,7.59,0,0,1,2.15-4.08c1.05-1.15,2.28-2.14,3.32-3.3a14.68,14.68,0,0,0,3.72-9.83A8.78,8.78,0,0,0,250.39,67.06Z" transform="translate(0 -4.8)"/><path class="cls-4" d="M271.68,64.3c-4.5-2.15-11.57-1.86-15.56,1.12,1.93,3.7,6.3,7.14,9.87,9.3s6.88,7,12,3.32c.35-.25.91,0,1.2-.36a1.54,1.54,0,0,0,.27-1A14,14,0,0,0,271.68,64.3Z" transform="translate(0 -4.8)"/><path class="cls-7" d="M265.88,136.48a57.93,57.93,0,0,1-7.35,1.45,59.24,59.24,0,0,1-7.42,1,54.86,54.86,0,0,1,7.35-1.46A55.93,55.93,0,0,1,265.88,136.48Z" transform="translate(0 -4.8)"/><path class="cls-4" d="M286.05,105.06c.1.09-6.3,7.45-14.3,16.43s-14.57,16.19-14.68,16.09,6.29-7.45,14.3-16.43S285.94,105,286.05,105.06Z" transform="translate(0 -4.8)"/><path class="cls-19" d="M324.6,193a2.19,2.19,0,0,1,.07.46,8.94,8.94,0,0,1,.07,1.33,21.63,21.63,0,0,1-.54,4.85A48.82,48.82,0,0,1,318,214.44c-.85,1.33-1.76,2.56-2.58,3.78a26.25,26.25,0,0,0-2.08,3.67,34,34,0,0,0-2.19,6.8c-.43,2-.7,3.64-.87,4.77a11.76,11.76,0,0,1-.31,1.76,11.7,11.7,0,0,1,.11-1.78c.11-1.15.32-2.8.71-4.82a31.35,31.35,0,0,1,2.12-6.93,24.66,24.66,0,0,1,2.09-3.75c.82-1.24,1.72-2.47,2.56-3.78a51.73,51.73,0,0,0,6.31-14.58,25.29,25.29,0,0,0,.7-4.78C324.6,193.66,324.54,193,324.6,193Z" transform="translate(0 -4.8)"/><polygon class="cls-13" points="269.35 124.5 227.82 188.76 238.81 194.94 291.87 126.3 269.35 124.5"/><path class="cls-4" d="M265,117.21a1.25,1.25,0,0,0-.14.36l-.32,1.08c-.26.93-.63,2.28-1,4A55.19,55.19,0,0,0,261.61,136a27,27,0,0,0,3.27,13.08,18.67,18.67,0,0,0,2.41,3.34c.32.37.61.61.79.79s.29.26.3.25-.35-.41-1-1.15a20.61,20.61,0,0,1-2.28-3.37A27.82,27.82,0,0,1,262,136a59.6,59.6,0,0,1,1.72-13.35c.37-1.64.69-3,.92-4,.09-.44.17-.8.24-1.09A1.87,1.87,0,0,0,265,117.21Z" transform="translate(0 -4.8)"/><path class="cls-4" d="M271.3,141.36a2,2,0,0,0,.35.57,5.24,5.24,0,0,0,.48.61c.21.23.43.5.71.76A13.07,13.07,0,0,0,275,145a14.92,14.92,0,0,0,3,1.45,15.14,15.14,0,0,0,3.22.74,12.82,12.82,0,0,0,2.7,0,9.61,9.61,0,0,0,1.79-.32,2.32,2.32,0,0,0,.63-.22c0-.08-.93.17-2.44.25a14.29,14.29,0,0,1-2.63-.1,15.92,15.92,0,0,1-3.14-.74,17,17,0,0,1-2.9-1.39,14.64,14.64,0,0,1-2.11-1.58C271.92,142.08,271.36,141.32,271.3,141.36Z" transform="translate(0 -4.8)"/><path class="cls-13" d="M216.67,160.2c4.42-.78,45.69-6.67,45.69-6.67a14.93,14.93,0,0,0,3.66-2.08c9.28-7,35.15-27.59,36.72-32.76,1.81-6-.2-12.5-5-15.08-3.67-2-7.39-3.39-15.22,5.61s-25.47,28.36-25.47,28.36l-40.78,10Z" transform="translate(0 -4.8)"/><path class="cls-4" d="M275.61,177.28s-.12.05-.37.1a2,2,0,0,1-1.1-.15c-.95-.39-1.72-1.73-1.95-3.38v0c-.48-2.12-1.06-4.78-1.66-7.66-.75-3.56-1.4-6.8-1.84-9.14-.23-1.17-.4-2.13-.5-2.78a4.41,4.41,0,0,1-.12-1,3.51,3.51,0,0,1,.31,1c.17.65.4,1.59.67,2.75.53,2.33,1.24,5.55,2,9.11.6,2.89,1.14,5.55,1.55,7.68h0c.17,1.56.83,2.83,1.63,3.21A3.8,3.8,0,0,0,275.61,177.28Z" transform="translate(0 -4.8)"/><path class="cls-19" d="M332.84,249.63a3.7,3.7,0,0,1-.4-1.59,16.87,16.87,0,0,1,0-3.94c.34-3.08,1.39-5.41,1.54-5.33s-.69,2.38-1,5.39a25.35,25.35,0,0,0-.19,3.86A8.39,8.39,0,0,1,332.84,249.63Z" transform="translate(0 -4.8)"/><path class="cls-4" d="M278.65,85.49c-1,1.3-.74,1.79-.27,3.39s1.21,3.19,1.09,4.85c-.19,2.62-2.44,4.8-2.45,7.42,0,1.94,1.24,3.74,1.14,5.68-.13,2.26-2,4-3.5,5.64s-4,6.63-2.84,8.55c4-4.17,9.44-9.5,12.88-13.64s6-9.45,5.25-14.79Z" transform="translate(0 -4.8)"/><path class="cls-19" d="M302.2,107.32a11.38,11.38,0,0,1,.12-1.22,9.42,9.42,0,0,0-.28-3.24,7.15,7.15,0,0,0-.92-2,7.26,7.26,0,0,0-1.8-1.78,18.67,18.67,0,0,0-5.53-2.17,16.86,16.86,0,0,1-5.63-2.34,7.66,7.66,0,0,1-2.84-4.1,12.6,12.6,0,0,1-.48-3.32,4.83,4.83,0,0,1,.08-1.23,7.05,7.05,0,0,1,.12,1.22,14.27,14.27,0,0,0,.64,3.22,7.34,7.34,0,0,0,2.76,3.82,17.17,17.17,0,0,0,5.49,2.23,18.34,18.34,0,0,1,5.66,2.27,7.57,7.57,0,0,1,1.89,1.95,7,7,0,0,1,.91,2.16,8.81,8.81,0,0,1,.13,3.37A3.73,3.73,0,0,1,302.2,107.32Z" transform="translate(0 -4.8)"/><path class="cls-19" d="M284.16,71.69s-.36-.2-1-.51a16.88,16.88,0,0,0-3-1,35.52,35.52,0,0,0-4.6-.76,51,51,0,0,1-5.74-.63,27.22,27.22,0,0,1-9.69-4,24,24,0,0,1-2.54-1.92,5.72,5.72,0,0,1-.82-.83c.06-.08,1.29,1,3.56,2.44a29,29,0,0,0,9.59,3.77c2,.43,3.91.44,5.69.66a31.54,31.54,0,0,1,4.64.88,14,14,0,0,1,3,1.14,6.14,6.14,0,0,1,.73.48C284.1,71.6,284.18,71.67,284.16,71.69Z" transform="translate(0 -4.8)"/><path class="cls-2" d="M182.77,187.39a23.83,23.83,0,0,0-2.85-1.2,21,21,0,0,1-4.67-2.56v.59a12.21,12.21,0,0,0,4.86,7.65,5.35,5.35,0,0,0,2,1,2.6,2.6,0,0,0,2.13-.43,2.52,2.52,0,0,0,.62-2.82A4.51,4.51,0,0,0,182.77,187.39Z" transform="translate(0 -4.8)"/><path class="cls-13" d="M192.25,153.1s12.07-10.72,17.73.35c0,0,1.73,2-.76,8s-7.67,16.44-7.67,16.44L200,174.29s6.83-12.82,7.59-15.42.63-4.77.06-5.92c-.67-1.38-2.5-3.56-6.2-2.36-7.4,2.39-7.69,6.34-7.69,6.34Z" transform="translate(0 -4.8)"/><path class="cls-13" d="M207,189.78s-11.43,11.2-27.77,8.48l-7.79-38.63,20.69-7.38Z" transform="translate(0 -4.8)"/><path class="cls-13" d="M180.13,192.65l-21.61-11.2a11,11,0,0,1-4.32,2.46l5.14-10.53a10.31,10.31,0,0,1,.44,4.93l17.89,7.62Z" transform="translate(0 -4.8)"/><path class="cls-17" d="M216.12,150.07l-8.28-3.43-9-.7s-.75,2.22,2.49,2.4l3.91.53.75,1.86s4,5.62,8.87,5.06Z" transform="translate(0 -4.8)"/><path class="cls-17" d="M216.33,149.05l-6.69-.33-4.26.14c-1.57.45-2.86,1.4-4.83,2a6.68,6.68,0,0,0-1.72.78,1.67,1.67,0,0,0-.85,1.55,1.08,1.08,0,0,0,1.34.91,2.21,2.21,0,0,0,1.72,2.64,1.19,1.19,0,0,0,.75,1.79,1.6,1.6,0,0,1,.7.15c.26.2.22.59.31.89.23.8,1.28,1,2.09.87a7.44,7.44,0,0,1,2.44-.44c.86.11,1.57.77,2.43,1a4.07,4.07,0,0,0,3.35-1.31,10.37,10.37,0,0,1,3.48-2.14Z" transform="translate(0 -4.8)"/><path class="cls-4" d="M179.35,198.16a8,8,0,0,1-.41-1.49c-.24-1.06-.55-2.45-.92-4.11-.76-3.48-1.78-8.29-2.86-13.61s-2-10.15-2.71-13.64c-.31-1.68-.57-3.08-.76-4.15a8.15,8.15,0,0,1-.21-1.53,9.09,9.09,0,0,1,.41,1.49c.24,1.06.55,2.45.92,4.11.76,3.48,1.77,8.29,2.86,13.61s2,10.15,2.71,13.64c.31,1.68.56,3.08.76,4.15A9.39,9.39,0,0,1,179.35,198.16Z" transform="translate(0 -4.8)"/><path class="cls-4" d="M207,189.78c-.13.06-3.57-8.3-7.68-18.67s-7.33-18.81-7.19-18.86,3.57,8.3,7.68,18.67S207.18,189.73,207,189.78Z" transform="translate(0 -4.8)"/><path class="cls-4" d="M192.39,152.53s-.17.28-.56.73A16.23,16.23,0,0,1,190,155a23,23,0,0,1-3,2.16,23.16,23.16,0,0,1-8.57,3,21.71,21.71,0,0,1-3.72.19,15.1,15.1,0,0,1-2.49-.24,2.94,2.94,0,0,1-.89-.22c0-.1,1.3.11,3.38.1a24.37,24.37,0,0,0,3.65-.31,27.18,27.18,0,0,0,4.33-1.09,26.49,26.49,0,0,0,4.07-1.84,25.78,25.78,0,0,0,3-2C191.44,153.43,192.32,152.46,192.39,152.53Z" transform="translate(0 -4.8)"/><path class="cls-4" d="M159.34,173.38a4,4,0,0,1,.18,1.82,10.7,10.7,0,0,1-1.13,4.27A12,12,0,0,1,155.7,183a4.32,4.32,0,0,1-1.51,1,19.62,19.62,0,0,0,3.73-4.77,12.63,12.63,0,0,0,1.24-4.07A14.77,14.77,0,0,1,159.34,173.38Z" transform="translate(0 -4.8)"/><path class="cls-19" d="M150.66,178.84a2.43,2.43,0,0,0-1.89.53,1.22,1.22,0,0,0,0,1.79c.56.38,1.31.07,1.89-.28a19.34,19.34,0,0,0,2.31-1.7A13.87,13.87,0,0,0,150.66,178.84Z" transform="translate(0 -4.8)"/><path class="cls-19" d="M146.61,176.87a1.84,1.84,0,0,0-1.46.41.93.93,0,0,0,0,1.36c.43.3,1,.06,1.45-.21a14.23,14.23,0,0,0,1.78-1.3A9.71,9.71,0,0,0,146.61,176.87Z" transform="translate(0 -4.8)"/><path class="cls-19" d="M154.1,174a3.38,3.38,0,0,0-2.28-1.57A1.7,1.7,0,0,0,149.9,174c.08.94,1.1,1.48,2,1.79a26.68,26.68,0,0,0,3.92,1A20.3,20.3,0,0,0,154.1,174Z" transform="translate(0 -4.8)"/><path class="cls-7" d="M288,133.08a24.29,24.29,0,0,1-1.6-2.41,37.71,37.71,0,0,0-4.34-5.42,37.11,37.11,0,0,0-5.28-4.5,27.89,27.89,0,0,1-2.37-1.67,11,11,0,0,1,2.58,1.36,30.26,30.26,0,0,1,9.72,10A11.62,11.62,0,0,1,288,133.08Z" transform="translate(0 -4.8)"/><path class="cls-7" d="M300,121.69c-.08,0-.67-1-1.77-2.58a37.28,37.28,0,0,0-4.87-5.68,34.82,34.82,0,0,0-6-4.5c-1.65-1-2.74-1.47-2.7-1.55a2.82,2.82,0,0,1,.8.26,19.64,19.64,0,0,1,2.08,1,29,29,0,0,1,6.16,4.44,30.82,30.82,0,0,1,4.82,5.86,19.14,19.14,0,0,1,1.13,2A2.84,2.84,0,0,1,300,121.69Z" transform="translate(0 -4.8)"/><path class="cls-7" d="M273.06,145.63a68,68,0,0,0-5.13-7c-3.19-3.59-6.44-5.82-6.33-6a10.13,10.13,0,0,1,2.16,1.41,32.85,32.85,0,0,1,4.56,4.21,30.79,30.79,0,0,1,3.64,5A10.37,10.37,0,0,1,273.06,145.63Z" transform="translate(0 -4.8)"/><path class="cls-7" d="M249.25,155.15a9.61,9.61,0,0,1-.24-2.22c-.1-1.57-.22-3.37-.36-5.34s-.31-3.77-.45-5.34a9.47,9.47,0,0,1-.1-2.23,9.23,9.23,0,0,1,.47,2.18c.21,1.36.44,3.25.6,5.35s.22,4,.21,5.37A8.83,8.83,0,0,1,249.25,155.15Z" transform="translate(0 -4.8)"/><path class="cls-7" d="M228,159a7.13,7.13,0,0,1-.44-2,45,45,0,0,1-.23-10.11,7.92,7.92,0,0,1,.34-2.08c.15,0-.08,3.2,0,7.13S228.18,159,228,159Z" transform="translate(0 -4.8)"/><path class="cls-7" d="M247.12,188.65a45.82,45.82,0,0,1-6.1-3,44,44,0,0,1-5.85-3.47,45.21,45.21,0,0,1,6.1,3A43.32,43.32,0,0,1,247.12,188.65Z" transform="translate(0 -4.8)"/><path class="cls-7" d="M258.12,174.1a47.55,47.55,0,0,1-6-3.74,49.67,49.67,0,0,1-5.71-4.17,47.07,47.07,0,0,1,6,3.74A49,49,0,0,1,258.12,174.1Z" transform="translate(0 -4.8)"/><path class="cls-7" d="M268,160.69c-.12.11-1.76-1.56-4-3.39s-4.17-3.15-4.09-3.28a23,23,0,0,1,8.07,6.67Z" transform="translate(0 -4.8)"/><path class="cls-7" d="M305,154.58a9.21,9.21,0,0,1-1.31.55l-3.62,1.33c-3.06,1.12-7.29,2.67-11.93,4.45s-8.83,3.43-11.85,4.64L272.71,167a8.84,8.84,0,0,1-1.34.46,6.54,6.54,0,0,1,1.26-.65c.83-.39,2-.93,3.53-1.57,3-1.3,7.16-3,11.81-4.79s8.89-3.27,12-4.3c1.54-.52,2.8-.92,3.67-1.19A6.76,6.76,0,0,1,305,154.58Z" transform="translate(0 -4.8)"/><path class="cls-7" d="M304.47,142.71a6.77,6.77,0,0,1-1.36.6c-.89.35-2.18.83-3.79,1.39-3.22,1.13-7.72,2.57-12.72,4s-9.57,2.61-12.89,3.42c-1.65.4-3,.71-3.93.92a8.7,8.7,0,0,1-1.46.26,8.08,8.08,0,0,1,1.41-.46l3.89-1.08c3.29-.9,7.84-2.13,12.84-3.56s9.5-2.82,12.74-3.86l3.84-1.23A9.54,9.54,0,0,1,304.47,142.71Z" transform="translate(0 -4.8)"/><path class="cls-7" d="M303.77,132.2a13,13,0,0,1-2.72,1.17,54,54,0,0,1-6.88,1.94,53,53,0,0,1-7.08,1,14.39,14.39,0,0,1-3,0,21.7,21.7,0,0,1,2.93-.4c1.81-.21,4.3-.57,7-1.13s5.13-1.25,6.87-1.78A22.55,22.55,0,0,1,303.77,132.2Z" transform="translate(0 -4.8)"/><path class="cls-4" d="M297.49,125s-.05.06-.16.17l-.51.47-2,1.75-7.43,6.38-11.06,9.41-6.55,5.54-1.72,1.45a16.53,16.53,0,0,1-1.83,1.43,17.08,17.08,0,0,1-4.32,1.91,66.53,66.53,0,0,1-9.09,1.64l-8.49,1.23-14.38,2-9.71,1.33-2.64.34-.69.07a.58.58,0,0,1-.23,0,.67.67,0,0,1,.23-.06l.68-.12,2.63-.44,9.67-1.49,14.37-2.16,8.48-1.25a69.37,69.37,0,0,0,9-1.64,16.29,16.29,0,0,0,4.19-1.85,15.69,15.69,0,0,0,1.78-1.38l1.72-1.45,6.57-5.52,11.13-9.32,7.54-6.25,2.07-1.68.54-.43A1.08,1.08,0,0,1,297.49,125Z" transform="translate(0 -4.8)"/><g class="cls-6"><path d="M269,156.54c-.23-2-.85-4.33-2.71-5.13a69.21,69.21,0,0,1-13.79,3.64l-.11.15a7.29,7.29,0,0,0,7.22,2.8,6.45,6.45,0,0,1,2.73-.34,4,4,0,0,1,2.41,2.52,8.28,8.28,0,0,0,2.19,3.21l2.47-3.19C269.7,159,269.11,157.8,269,156.54Z" transform="translate(0 -4.8)"/></g><g class="cls-6"><path d="M267.2,150.43a49.94,49.94,0,0,0,29.07-24.53Z" transform="translate(0 -4.8)"/></g><path class="cls-17" d="M226.81,198.6l-10.28-2.3L209.18,198s-.54,1.19,1.25,1.58l3.9-.27-3.71,2s.24,1.41,2,1.09a8.93,8.93,0,0,0,3.11-1.26l6.11,1.63s-6,2.79-5.55,4.2,1.06,1.35,1.86,1.16,1.63-1.49,3.28-1.46,4.57-.51,7.65-.86c2.65-.3,7.61-7.24,7.61-7.24l-7.1-4.09Z" transform="translate(0 -4.8)"/><path class="cls-20" d="M221.06,199.34a12.86,12.86,0,0,1-3.58-.69,4.19,4.19,0,0,0-1.29-.26,2.41,2.41,0,0,0-1,.38c-.54.33-.84.62-.89.57s.14-.43.67-.87a2.46,2.46,0,0,1,1.12-.56,1.81,1.81,0,0,1,.77.05l.71.19A13,13,0,0,1,221.06,199.34Z" transform="translate(0 -4.8)"/></g><g id="Floor"><path class="cls-4" d="M397.44,429.33s-88.94.06-198.62.06S.18,429.36.18,429.33s88.92-.06,198.64-.06S397.44,429.3,397.44,429.33Z" transform="translate(0 -4.8)"/></g></svg>