<svg id="Layer_1" data-name="Layer 1" xmlns="http://www.w3.org/2000/svg" xmlns:xlink="http://www.w3.org/1999/xlink" viewBox="0 0 1034.32 531.14"><defs><style>.cls-1,.cls-3{opacity:0.07;}.cls-2,.cls-3{fill:#c10000;}</style></defs><title>list-card</title><g class="cls-1"><polygon class="cls-2" points="42 504.38 42 464.37 72.42 484.38 42 504.38"/><polygon class="cls-2" points="104.66 504.38 104.66 464.37 135.08 484.38 104.66 504.38"/></g><g class="cls-1"><path class="cls-2" d="M818.49,75.61a5.19,5.19,0,1,1,5.19-5.19A5.19,5.19,0,0,1,818.49,75.61Z" transform="translate(1 -39.02)"/><path class="cls-2" d="M861.07,75.61a5.19,5.19,0,1,1,5.19-5.19A5.19,5.19,0,0,1,861.07,75.61Z" transform="translate(1 -39.02)"/><path class="cls-2" d="M903.66,75.61a5.19,5.19,0,1,1,5.19-5.19A5.19,5.19,0,0,1,903.66,75.61Z" transform="translate(1 -39.02)"/><path class="cls-2" d="M946.24,75.61a5.19,5.19,0,1,1,5.19-5.19A5.19,5.19,0,0,1,946.24,75.61Z" transform="translate(1 -39.02)"/><path class="cls-2" d="M818.49,119.54a5.19,5.19,0,1,1,5.19-5.19A5.19,5.19,0,0,1,818.49,119.54Z" transform="translate(1 -39.02)"/><path class="cls-2" d="M861.07,119.54a5.19,5.19,0,1,1,5.19-5.19A5.2,5.2,0,0,1,861.07,119.54Z" transform="translate(1 -39.02)"/><path class="cls-2" d="M903.66,119.54a5.19,5.19,0,1,1,5.19-5.19A5.19,5.19,0,0,1,903.66,119.54Z" transform="translate(1 -39.02)"/><path class="cls-2" d="M946.24,119.54a5.19,5.19,0,1,1,5.19-5.19A5.2,5.2,0,0,1,946.24,119.54Z" transform="translate(1 -39.02)"/></g><image class="cls-1" width="261" height="182" transform="translate(41 27.98) scale(0.2)" xlink:href="myyinvest-favicon.png"/><g class="cls-1"><path class="cls-2" d="M840,153.71l.16-1.59a144.47,144.47,0,0,0-58.48,0l.16,1.59Z" transform="translate(1 -39.02)"/><path class="cls-2" d="M881.83,167.89c-1.81-1-3.65-2-5.88-3.08l-130.53.09c-1.86,1-3.7,1.95-5.51,3l-2.63,1.5H884.45Z" transform="translate(1 -39.02)"/><path class="cls-2" d="M904.21,183.66c-1.19-1-2.39-2-3.61-3l-.22-.18h-179l-.22.18c-1.21,1-2.42,2-3.6,3l-1.65,1.41h190Z" transform="translate(1 -39.02)"/><path class="cls-2" d="M920,199.43c-.86-1-1.74-2-2.62-3l-.24-.26H704.65l-.24.26c-.89,1-1.76,2-2.62,3l-1.13,1.32H921.08Z" transform="translate(1 -39.02)"/><path class="cls-2" d="M931.67,215.2c-.64-1-1.3-2-2-3l-.24-.35H692.27l-.23.35c-.67,1-1.33,2-2,3l-.8,1.24H932.46Z" transform="translate(1 -39.02)"/><path class="cls-2" d="M940.44,231c-.48-1-1-2-1.47-3l-.22-.45H683l-.22.45c-.5,1-1,2-1.47,3l-.54,1.15H941Z" transform="translate(1 -39.02)"/><path class="cls-2" d="M946.83,246.74c-.34-1-.69-2-1.05-3l-.19-.52H676.15l-.19.53c-.36,1-1.41,4-1.41,4H947.18Z" transform="translate(1 -39.02)"/><path class="cls-2" d="M950.33,258.91H671.41l-.15.62c-.23,1-.87,4-.87,4h281Z" transform="translate(1 -39.02)"/><polygon class="cls-2" points="954.18 235.57 669.55 235.57 669.05 240.15 954.68 240.15 954.18 235.57"/><polygon class="cls-2" points="955.27 251.25 668.46 251.25 668.43 253.54 668.46 255.83 955.27 255.83 955.3 253.54 955.27 251.25"/><polygon class="cls-2" points="669.55 271.51 954.18 271.51 954.68 266.94 669.05 266.94 669.55 271.51"/><path class="cls-2" d="M671.41,326.22H950.33l.14-.62c.24-1,.88-4,.88-4h-281Z" transform="translate(1 -39.02)"/><path class="cls-2" d="M674.91,338.39c.34,1,1.24,3.51,1.24,3.51H945.59l.19-.53c.36-1,.71-2,1.05-3l.35-1.06H674.55Z" transform="translate(1 -39.02)"/><path class="cls-2" d="M681.3,354.16c.48,1,1,2,1.47,3l.22.44H938.75l.22-.44c.5-1,1-2,1.47-3L941,353H680.76Z" transform="translate(1 -39.02)"/><path class="cls-2" d="M690.07,369.93c.64,1,1.3,2,2,3l.23.35H929.46l.24-.35c.67-1,1.33-2,2-3l.79-1.24H689.27Z" transform="translate(1 -39.02)"/><path class="cls-2" d="M701.79,385.7c.86,1,1.73,2,2.62,3l.24.26H917.09l.24-.26c.88-1,1.76-2,2.62-3l1.13-1.33H700.66Z" transform="translate(1 -39.02)"/><path class="cls-2" d="M717.53,401.47c1.18,1,2.39,2,3.6,3l.22.18h179l.22-.18c1.22-1,2.42-2,3.61-3l1.64-1.41h-190Z" transform="translate(1 -39.02)"/><path class="cls-2" d="M739.91,417.24c1.81,1,3.65,2,5.87,3.08H876.15l.17-.09c1.86-1,3.7-2,5.51-3l2.62-1.5H737.28Z" transform="translate(1 -39.02)"/><path class="cls-2" d="M781.79,431.42l-.16,1.59a144.47,144.47,0,0,0,58.48,0l-.16-1.59Z" transform="translate(1 -39.02)"/></g><circle class="cls-3" cx="954.37" cy="275.85" r="78.95" transform="translate(465.3 1100.97) rotate(-76.56)"/><path class="cls-3" d="M-1,131.42A143.79,143.79,0,0,1,142.79,275.21,143.79,143.79,0,0,1-1,419Z" transform="translate(1 -39.02)"/><path class="cls-3" d="M315.61,357.27h0a3.08,3.08,0,0,1,0-4.35l143-143a3.07,3.07,0,0,1,4.34,0h0a3.08,3.08,0,0,1,0,4.35l-143,143A3.1,3.1,0,0,1,315.61,357.27Z" transform="translate(1 -39.02)"/><path class="cls-3" d="M238.64,553.29h0a3.09,3.09,0,0,1,0-4.36L382.1,405.47a3.1,3.1,0,0,1,4.37,0h0a3.09,3.09,0,0,1,0,4.36L243,553.29A3.09,3.09,0,0,1,238.64,553.29Z" transform="translate(1 -39.02)"/><path class="cls-3" d="M273.61,187.27h0a3.08,3.08,0,0,1,0-4.35l143-143a3.07,3.07,0,0,1,4.34,0h0a3.08,3.08,0,0,1,0,4.35l-143,143A3.1,3.1,0,0,1,273.61,187.27Z" transform="translate(1 -39.02)"/><path class="cls-3" d="M597.61,236.27h0a3.08,3.08,0,0,1,0-4.35l143-143a3.07,3.07,0,0,1,4.34,0h0a3.08,3.08,0,0,1,0,4.35l-143,143A3.1,3.1,0,0,1,597.61,236.27Z" transform="translate(1 -39.02)"/><path class="cls-3" d="M481.61,569.27h0a3.08,3.08,0,0,1,0-4.35l143-143a3.07,3.07,0,0,1,4.34,0h0a3.08,3.08,0,0,1,0,4.35l-143,143A3.1,3.1,0,0,1,481.61,569.27Z" transform="translate(1 -39.02)"/></svg>