<svg id="Layer_1" data-name="Layer 1" xmlns="http://www.w3.org/2000/svg" viewBox="0 0 525 486.5"><defs><style>.cls-1{fill:#d10422;}.cls-1,.cls-2{fill-rule:evenodd;opacity:0.7;isolation:isolate;}.cls-2{fill:red;}</style></defs><title>liveShape-bg</title><path class="cls-1" d="M45,193.2,368,6.7A50,50,0,0,1,436.3,25l82,142A50,50,0,0,1,500,235.3L177,421.8a50,50,0,0,1-68.3-18.3l-82-142A50,50,0,0,1,45,193.2Z" transform="translate(0 0)"/><path class="cls-2" d="M25,251.2,348,64.7A50,50,0,0,1,416.3,83l82,142A50,50,0,0,1,480,293.3L157,479.8a50,50,0,0,1-68.3-18.3l-82-142A50,50,0,0,1,25,251.2Z" transform="translate(0 0)"/></svg>