<svg xmlns="http://www.w3.org/2000/svg" viewBox="0 0 455.49 419.32"><defs><style>.cls-1{isolation:isolate;}.cls-2{fill:#e0e0e0;}.cls-3{fill:#055609;}.cls-4{fill:#000701;}.cls-5{fill:#f5f5f5;}.cls-6{fill:#a15c33;}.cls-23,.cls-7,.cls-8{fill:#263238;}.cls-8,.cls-9{opacity:0.2;}.cls-10{fill:#e8ecf1;}.cls-10,.cls-27{mix-blend-mode:multiply;}.cls-11{fill:#e58a7b;}.cls-12{fill:#6e381f;}.cls-13,.cls-26{fill:#fff;}.cls-14{fill:#4c2f02;}.cls-15,.cls-20{fill:#407bff;}.cls-16{fill:#e50505;}.cls-17{fill:#fafafa;opacity:0.56;}.cls-18{fill:#bf2717;opacity:0.07;}.cls-19,.cls-21{fill:#8e8e8e;}.cls-20{opacity:0.47;}.cls-21{opacity:0.1;}.cls-22,.cls-23{opacity:0.6;}.cls-24,.cls-26{opacity:0.4;}.cls-25{fill:#c1c765;}.cls-27,.cls-28,.cls-29{fill:#606060;}.cls-29{opacity:0.3;}</style></defs><title>login</title><g class="cls-1"><g id="Background_complete" data-name="Background complete"><path class="cls-2" d="M173.37,263.68c0,8.22,9.2,14.94,20.44,14.94H204c11.24,0,20.44-6.72,20.44-14.94Z" transform="translate(-9.45 -12.68)"/><path class="cls-3" d="M442.29,251.66c-6.16,5-14.65,14.22-22.44,27.17-5.18,8.62-8.31,17.65-9.68,29.58,0-13.51.07-28,.12-41.72,1.56-3.52,5.13-11.64,7.7-18.06,8.54-21.42,11.73-26.68,19.41-45.15,10.26-24.64,20.76-53.87,17.76-51.53C449,156.7,425.53,200.7,423,207c-8.73,21.66-11.16,37.45-12.67,52.69,0-12.87.09-24.68.14-33.79.16-29.73.66-39.32.91-42.28.95-1.51,2.07-3.26,2.73-4.2,5.52-8,7.64-14.78,12.84-26.68,7.37-16.87,13.72-46.81,11.86-45.3-7.72,6.29-13.81,19.81-21.82,37s-5.72,27.13-7.3,41.84c-.34,2.89-.59,13.78-.78,28.88-2.07-16.09-6-26.69-13.08-36.32-8.74-11.85-17.19-19.85-23.4-24s10.72,24.92,18.81,37.63c7.2,11.31,13.84,21.29,17.58,31.12-.2,20.47-.29,46.38-.29,70.5-1.86-11-4.89-22.8-8.93-31.95-4.86-11-12.33-27.87-18.28-33.59-1.43-1.37,6.22,31.43,11.13,40.16S401,285.65,404,290.6c.72,1.15,3.12,5.6,4.48,8.16,0,29.45.16,55.43.42,64.28h1.27c-.08-2.29-.1-17.26-.07-37.09,3.06-10.77,10.07-23.05,15.85-34.26C432.3,279.46,448.44,246.64,442.29,251.66Z" transform="translate(-9.45 -12.68)"/><polygon class="cls-4" points="418.55 368.4 381.73 368.4 378.95 332.32 421.32 332.32 418.55 368.4"/><polygon class="cls-4" points="424.07 336.52 376.21 336.52 374.84 324.35 425.44 324.35 424.07 336.52"/></g><g id="Shadow"><ellipse class="cls-5" cx="227.74" cy="406.02" rx="227.74" ry="13.3"/></g><g id="Character_2" data-name="Character 2"><path class="cls-6" d="M353.77,121.75,342.12,117s-15.38,28-19.78,29.45c-6,1.93-18.39,7.29-25.75,8.29-1,1.16-2.63,4.82-2.48,6.15,9.88,3.3,31.59-1.08,36.24-4.53C340.94,148.53,353.77,121.75,353.77,121.75Z" transform="translate(-9.45 -12.68)"/><path class="cls-7" d="M357.36,115.39c2.16,8-9.61,24.17-9.61,24.17l-15.46-8.67s2.89-6.64,6.41-13.39C344.4,106.59,354.88,106.22,357.36,115.39Z" transform="translate(-9.45 -12.68)"/><path class="cls-8" d="M357.36,115.39c2.16,8-9.61,24.17-9.61,24.17l-15.46-8.67s2.89-6.64,6.41-13.39C344.4,106.59,354.88,106.22,357.36,115.39Z" transform="translate(-9.45 -12.68)"/><path class="cls-9" d="M338.46,134.34l6.07,3.4,1.06-18.63C342.07,121.82,339.57,130,338.46,134.34Z" transform="translate(-9.45 -12.68)"/><path class="cls-7" d="M347.21,109.34s-12,26.7-5,76.44h47.31c.75-7.26-1.74-42.68,7.27-76.9a121.94,121.94,0,0,0-15.72-2,174.93,174.93,0,0,0-20.1,0A91.25,91.25,0,0,0,347.21,109.34Z" transform="translate(-9.45 -12.68)"/><path class="cls-8" d="M347.21,109.34s-12,26.7-5,76.44h47.31c.75-7.26-1.74-42.68,7.27-76.9a121.94,121.94,0,0,0-15.72-2,174.93,174.93,0,0,0-20.1,0A91.25,91.25,0,0,0,347.21,109.34Z" transform="translate(-9.45 -12.68)"/><path class="cls-10" d="M336.24,419.76C336.17,421,354.1,422,376.3,422s40.25-1,40.32-2.28-17.86-2.28-40.06-2.28S336.31,418.5,336.24,419.76Z" transform="translate(-9.45 -12.68)"/><rect class="cls-6" x="363.84" y="389.01" width="9.02" height="20.08" transform="translate(-128.29 146.45) rotate(-21.07)"/><polygon class="cls-6" points="395.77 398.06 386.93 398.06 383.68 377.57 392.53 377.57 395.77 398.06"/><path class="cls-7" d="M395.81,409.71h9.94a.7.7,0,0,1,.71.6l1.29,7.86a1.38,1.38,0,0,1-1.39,1.57c-3.46-.05-5.14-.26-9.51-.26-2.68,0-8.24.28-12,.28s-4-3.67-2.44-4c6.9-1.49,9.59-3.55,11.88-5.51A2.3,2.3,0,0,1,395.81,409.71Z" transform="translate(-9.45 -12.68)"/><path class="cls-7" d="M366.37,406.61l9.42-2.74a.73.73,0,0,1,.87.37l3.49,7a1.35,1.35,0,0,1-.88,1.87c-3.41.93-5.71,1.51-10,2.76-3,.85-6,2.25-8.87,3.18-2,.64-6.76.67-9.22.67-3.63,0-4.44-3.83-2.88-4,3.94-.44,4.47-.24,6.64-1.33,3.59-1.8,6.37-3.3,9.49-6.55A4.41,4.41,0,0,1,366.37,406.61Z" transform="translate(-9.45 -12.68)"/><path class="cls-11" d="M298.08,154.69l-9.73-4.1-4,10.78a40,40,0,0,0,12,0Z" transform="translate(-9.45 -12.68)"/><polygon class="cls-11" points="271.66 137.65 271.4 144.82 274.89 148.69 278.89 137.91 271.66 137.65"/><rect class="cls-12" x="362.09" y="389.34" width="9.02" height="10.35" transform="translate(-126.92 145.8) rotate(-21.11)"/><polygon class="cls-12" points="392.53 377.58 383.68 377.58 385.36 388.14 394.21 388.14 392.53 377.58"/><path class="cls-9" d="M340.7,172.33c.17,2.12.38,4.29.63,6.53l35.17-11.42A25.2,25.2,0,0,0,390,157.62c.13-3.13.31-6.43.57-9.87.13-1.68.27-3.39.43-5.13s.36-3.66.58-5.52Z" transform="translate(-9.45 -12.68)"/><path class="cls-13" d="M352.19,133.8l-1.2-.14c.7-5.86,5.07-10.5,9.69-10.39l0,1.21C356.66,124.36,352.81,128.54,352.19,133.8Z" transform="translate(-9.45 -12.68)"/><path class="cls-13" d="M358.45,144.65h-.2l0-1.2c4,.14,7.84-4.07,8.46-9.32l1.2.14C367.25,140,363,144.65,358.45,144.65Z" transform="translate(-9.45 -12.68)"/><path class="cls-6" d="M380.4,84.24c-1.65,6.47-3.61,18.33.66,22.64,0,0-3,6.57-15,6.57-11,0-5.1-6.57-5.1-6.57,7.31-1.72,7.44-7.07,6.48-12.1Z" transform="translate(-9.45 -12.68)"/><path class="cls-12" d="M375.11,88.54l-7.67,6.24a19.83,19.83,0,0,1,.41,3.56c2.25,2.24,6.75-3.42,7.21-6.3A9.56,9.56,0,0,0,375.11,88.54Z" transform="translate(-9.45 -12.68)"/><path class="cls-6" d="M354.26,84.16a7.71,7.71,0,0,0,5,3.69c2.82.62,4.24-2,3.46-4.58-.7-2.35-3-5.51-5.84-5A3.91,3.91,0,0,0,354.26,84.16Z" transform="translate(-9.45 -12.68)"/><path class="cls-7" d="M358.91,63.45c-4.39,2-5.94,19.47-.41,22S367.23,59.64,358.91,63.45Z" transform="translate(-9.45 -12.68)"/><path class="cls-6" d="M381.74,74.51c-1.05,8.76-1.22,13.91-5.91,18.41a11.29,11.29,0,0,1-19.21-6c-1.42-7.87.54-20.87,9.32-24.36S382.79,65.75,381.74,74.51Z" transform="translate(-9.45 -12.68)"/><path class="cls-7" d="M367.31,68c6.5-1.66,11.28-2.79,9.57,2.63-2.27,7.23-5,14.23-1.34,14.56,2.22.2,12.09-4,10.84-8.23-1.09-3.68,3.49-4.68,4.34-6.56,3-6.77-5.66-5.89-4.11-10s-7-10.73-11.73-7.44c-7.64,5.33-20.77,5.26-13.87-3.49,4.95-6.27-3.88-5-3.88-5s5.33,3.16-3.64,8C344,57.72,352.69,71.73,367.31,68Z" transform="translate(-9.45 -12.68)"/><path class="cls-6" d="M385.13,84.16a9,9,0,0,1-5.42,3.69c-2.89.62-4-2-2.92-4.58,1-2.35,3.66-5.51,6.43-5S386.69,81.86,385.13,84.16Z" transform="translate(-9.45 -12.68)"/><path class="cls-14" d="M342.2,185.78s-7.94,71.06-8.56,98c-.64,28.05,26.91,115.57,26.91,115.57l14.11-5.92s-16.43-80-14.14-107.51c2.48-30,12.78-100.17,12.78-100.17Z" transform="translate(-9.45 -12.68)"/><path class="cls-9" d="M361.94,205.29c-6.33,13.13-2.07,39.1,1.36,54.49,1.3-10.87,2.85-22.66,4.32-33.57C367.48,209.43,366.17,196.48,361.94,205.29Z" transform="translate(-9.45 -12.68)"/><path class="cls-15" d="M374,388.85c.07,0,1.68,4.5,1.68,4.5l-16.27,6.82-2.56-4.76Z" transform="translate(-9.45 -12.68)"/><path class="cls-14" d="M359,185.78s6.08,67.58,10.1,92.9c4.41,27.73,21.73,120.09,21.73,120.09H407s-9.71-90.12-11.54-117.57c-2-29.8-6-95.42-6-95.42Z" transform="translate(-9.45 -12.68)"/><path class="cls-15" d="M407.25,394.55c.07,0,.54,4.52.54,4.52H390l-1.27-5.19Z" transform="translate(-9.45 -12.68)"/><path class="cls-9" d="M401.05,389.2a.15.15,0,0,1-.15-.14c-.09-.81-8.84-82.18-10.49-106.84-1.79-26.77-5.38-86.12-5.42-86.71a.15.15,0,0,1,.15-.16h0a.16.16,0,0,1,.16.14c0,.6,3.62,59.94,5.41,86.71,1.65,24.65,10.4,106,10.49,106.83a.15.15,0,0,1-.14.17Z" transform="translate(-9.45 -12.68)"/><path class="cls-7" d="M368.31,77c0,.72-.46,1.3-.92,1.3s-.81-.58-.77-1.3.45-1.29.92-1.29S368.35,76.24,368.31,77Z" transform="translate(-9.45 -12.68)"/><path class="cls-7" d="M360.24,77c0,.72-.45,1.3-.92,1.3s-.81-.58-.76-1.3.45-1.29.92-1.29S360.29,76.24,360.24,77Z" transform="translate(-9.45 -12.68)"/><path class="cls-12" d="M362.79,77.31a27.81,27.81,0,0,1-3.77,6.1c1.2,1.18,3.37.64,3.37.64Z" transform="translate(-9.45 -12.68)"/><path class="cls-7" d="M363,87a.19.19,0,0,1-.19-.21.22.22,0,0,1,.22-.21,6,6,0,0,0,4.73-2.21.23.23,0,0,1,.3-.06.21.21,0,0,1,0,.29A6.39,6.39,0,0,1,363,87Z" transform="translate(-9.45 -12.68)"/><path class="cls-7" d="M369.74,74.78a.4.4,0,0,1-.37,0,3.29,3.29,0,0,0-3-.31.41.41,0,0,1-.55-.2.43.43,0,0,1,.23-.55,4.1,4.1,0,0,1,3.79.35.4.4,0,0,1,.11.57A.46.46,0,0,1,369.74,74.78Z" transform="translate(-9.45 -12.68)"/><path class="cls-7" d="M357.13,72.44a.26.26,0,0,1-.16-.09.4.4,0,0,1,0-.59,4.39,4.39,0,0,1,3.62-1.46.39.39,0,0,1,.32.48.44.44,0,0,1-.49.35h0a3.48,3.48,0,0,0-2.86,1.19A.45.45,0,0,1,357.13,72.44Z" transform="translate(-9.45 -12.68)"/><path class="cls-6" d="M401.32,120.44l-12.22-3.25s-12,29.49-16.21,31.42c-5.76,2.62-20.34,11.68-26.54,16-.34,1.46-.07,5.36.71,6.42,10.53-1.92,30.81-9.71,35-13.67C391.73,148.38,401.32,120.44,401.32,120.44Z" transform="translate(-9.45 -12.68)"/><path class="cls-15" d="M392.79,411.25a2.53,2.53,0,0,1-1.67-.45,1.2,1.2,0,0,1-.37-1.11.72.72,0,0,1,.39-.59c1-.5,3.76,1.25,4.07,1.45a.21.21,0,0,1-.08.38A10.67,10.67,0,0,1,392.79,411.25Zm-1.2-1.83a.78.78,0,0,0-.28.05.3.3,0,0,0-.14.25.8.8,0,0,0,.24.76c.46.41,1.61.46,3.13.16A8,8,0,0,0,391.59,409.42Z" transform="translate(-9.45 -12.68)"/><path class="cls-15" d="M395.08,410.94l-.1,0c-.89-.5-2.54-2.44-2.3-3.43a.75.75,0,0,1,.7-.54,1.09,1.09,0,0,1,.88.26c1,.84,1,3.4,1,3.5a.24.24,0,0,1-.11.2A.2.2,0,0,1,395.08,410.94Zm-1.58-3.59h-.09c-.28,0-.31.16-.32.21-.15.59.9,2.05,1.77,2.74-.06-.75-.26-2.23-.89-2.77A.7.7,0,0,0,393.5,407.35Z" transform="translate(-9.45 -12.68)"/><path class="cls-15" d="M361.6,409.79a3.36,3.36,0,0,1-2.21,0,1.09,1.09,0,0,1-.57-.9.66.66,0,0,1,.24-.62c.94-.85,4.77.06,5.21.16a.23.23,0,0,1,.15.19.23.23,0,0,1-.13.21A16.4,16.4,0,0,1,361.6,409.79Zm-1.91-1.4a1,1,0,0,0-.37.17.28.28,0,0,0-.09.25.73.73,0,0,0,.38.6c.62.33,2.07.07,3.93-.71A11.27,11.27,0,0,0,359.69,408.39Z" transform="translate(-9.45 -12.68)"/><path class="cls-15" d="M364.25,408.83h-.09c-1.14-.22-3.57-1.57-3.59-2.58,0-.23.1-.56.66-.75a1.5,1.5,0,0,1,1.21.07c1.27.63,1.94,2.88,2,3a.23.23,0,0,1-.05.21A.24.24,0,0,1,364.25,408.83Zm-2.78-3-.12,0c-.37.13-.37.28-.36.33,0,.61,1.7,1.72,2.89,2.1a4.53,4.53,0,0,0-1.65-2.37A1,1,0,0,0,361.47,405.87Z" transform="translate(-9.45 -12.68)"/><path class="cls-6" d="M347.35,164l-12.25,5.64-1.42,3.45,4.52,3.05s8.45-.92,10.86-6.35Z" transform="translate(-9.45 -12.68)"/><path class="cls-7" d="M347.87,171.28a17.05,17.05,0,0,0-2.28-6.65l1.93-1.45c.08.1,1.85,2.5,2.73,7.7Z" transform="translate(-9.45 -12.68)"/><path class="cls-7" d="M350,165.63a2.36,2.36,0,1,1-2.86-.91A2.14,2.14,0,0,1,350,165.63Z" transform="translate(-9.45 -12.68)"/><polygon class="cls-6" points="317.37 161.48 319 163.13 329.99 158.43 325.65 156.93 317.37 161.48"/><path class="cls-9" d="M374,388.85c.07,0,1.68,4.5,1.68,4.5l-16.27,6.82-2.56-4.76Z" transform="translate(-9.45 -12.68)"/><path class="cls-9" d="M407.25,394.55c.07,0,.54,4.52.54,4.52H390l-1.27-5.19Z" transform="translate(-9.45 -12.68)"/><path class="cls-7" d="M404.51,117.06c3.23,10.42-9.35,24.65-9.35,24.65l-17.44-7.12a177.21,177.21,0,0,1,7.13-17.71C390.16,105.36,401.24,106.55,404.51,117.06Z" transform="translate(-9.45 -12.68)"/><path class="cls-8" d="M404.51,117.06c3.23,10.42-9.35,24.65-9.35,24.65l-17.44-7.12a177.21,177.21,0,0,1,7.13-17.71C390.16,105.36,401.24,106.55,404.51,117.06Z" transform="translate(-9.45 -12.68)"/></g><g id="Screen"><rect class="cls-15" x="214.22" width="7.5" height="1.21"/><rect class="cls-15" x="318.4" y="70.06" width="20.18" height="1.21" transform="matrix(0.04, -1, 1, 0.04, 233.67, 382.97)"/><polygon class="cls-16" points="316.56 5.43 177.96 5.43 165.05 294.05 303.65 294.05 316.56 5.43"/><polygon class="cls-17" points="312.42 9.39 173.82 9.39 160.92 298.01 299.52 298.01 312.42 9.39"/><polygon class="cls-18" points="308.28 13.35 169.68 13.35 156.78 301.98 295.38 301.98 308.28 13.35"/><polygon class="cls-13" points="292.51 139.23 174.2 139.23 173.22 161.32 291.52 161.32 292.51 139.23"/><polygon class="cls-19" points="239.27 123.12 174.92 123.12 174.48 133.01 238.83 133.01 239.27 123.12"/><polygon class="cls-13" points="289.84 198.84 171.54 198.84 170.55 220.93 288.85 220.93 289.84 198.84"/><polygon class="cls-20" points="268.15 250.74 188.59 250.74 187.41 277.21 266.96 277.21 268.15 250.74"/><path class="cls-13" d="M272.28,294H192.72a.18.18,0,0,1-.1,0,.21.21,0,0,1,0-.11l1.19-26.47a.14.14,0,0,1,.14-.14h79.55a.14.14,0,0,1,.1,0,.13.13,0,0,1,0,.1l-1.18,26.48A.15.15,0,0,1,272.28,294Zm-79.41-.28h79.27l1.17-26.19H194Z" transform="translate(-9.45 -12.68)"/><polygon class="cls-19" points="225.37 182.73 172.26 182.73 171.82 192.61 224.93 192.61 225.37 182.73"/><path class="cls-13" d="M276.08,80.58a31.08,31.08,0,0,1-6.54,17.68,31.58,31.58,0,0,1-24.9,12.41,28.54,28.54,0,0,1-28.73-30.09,31.76,31.76,0,0,1,31.42-30.09A28.53,28.53,0,0,1,276.08,80.58Z" transform="translate(-9.45 -12.68)"/><path class="cls-19" d="M278.91,56.79a8.26,8.26,0,0,1-1.74,4.69,8.37,8.37,0,0,1-6.61,3.3,7.59,7.59,0,0,1-7.64-8,8.45,8.45,0,0,1,8.35-8A7.58,7.58,0,0,1,278.91,56.79Z" transform="translate(-9.45 -12.68)"/><path class="cls-7" d="M196.39,163a3.73,3.73,0,0,1-3.69,3.54,3.36,3.36,0,0,1-3.39-3.54,3.75,3.75,0,0,1,3.7-3.54A3.35,3.35,0,0,1,196.39,163Z" transform="translate(-9.45 -12.68)"/><path class="cls-7" d="M212.24,163a3.74,3.74,0,0,1-3.7,3.54,3.35,3.35,0,0,1-3.38-3.54,3.73,3.73,0,0,1,3.69-3.54A3.37,3.37,0,0,1,212.24,163Z" transform="translate(-9.45 -12.68)"/><path class="cls-7" d="M228.08,163a3.73,3.73,0,0,1-3.7,3.54A3.35,3.35,0,0,1,221,163a3.74,3.74,0,0,1,3.7-3.54A3.36,3.36,0,0,1,228.08,163Z" transform="translate(-9.45 -12.68)"/><path class="cls-7" d="M193.73,222.56a3.74,3.74,0,0,1-3.7,3.54,3.36,3.36,0,0,1-3.38-3.54,3.73,3.73,0,0,1,3.7-3.54A3.35,3.35,0,0,1,193.73,222.56Z" transform="translate(-9.45 -12.68)"/><path class="cls-7" d="M209.57,222.56a3.74,3.74,0,0,1-3.7,3.54,3.36,3.36,0,0,1-3.38-3.54,3.74,3.74,0,0,1,3.7-3.54A3.35,3.35,0,0,1,209.57,222.56Z" transform="translate(-9.45 -12.68)"/><path class="cls-7" d="M225.41,222.56a3.73,3.73,0,0,1-3.69,3.54,3.37,3.37,0,0,1-3.39-3.54A3.74,3.74,0,0,1,222,219,3.35,3.35,0,0,1,225.41,222.56Z" transform="translate(-9.45 -12.68)"/><path class="cls-7" d="M241.26,222.56a3.75,3.75,0,0,1-3.7,3.54,3.35,3.35,0,0,1-3.38-3.54,3.73,3.73,0,0,1,3.69-3.54A3.36,3.36,0,0,1,241.26,222.56Z" transform="translate(-9.45 -12.68)"/><path class="cls-7" d="M257.1,222.56a3.74,3.74,0,0,1-3.7,3.54,3.36,3.36,0,0,1-3.38-3.54,3.73,3.73,0,0,1,3.7-3.54A3.35,3.35,0,0,1,257.1,222.56Z" transform="translate(-9.45 -12.68)"/><ellipse class="cls-19" cx="246.44" cy="70.52" rx="12.45" ry="11.9" transform="translate(11.48 179.71) rotate(-44.36)"/><path class="cls-19" d="M269.54,98.26a31.58,31.58,0,0,1-24.9,12.41,28.56,28.56,0,0,1-23.78-12.41c5.71-5.68,14.75-9.38,24.76-9.38S264.34,92.58,269.54,98.26Z" transform="translate(-9.45 -12.68)"/><ellipse class="cls-21" cx="246.44" cy="70.52" rx="12.45" ry="11.9" transform="translate(11.48 179.71) rotate(-44.36)"/><path class="cls-21" d="M269.54,98.26a31.58,31.58,0,0,1-24.9,12.41,28.56,28.56,0,0,1-23.78-12.41c5.71-5.68,14.75-9.38,24.76-9.38S264.34,92.58,269.54,98.26Z" transform="translate(-9.45 -12.68)"/></g><g id="Character_1" data-name="Character 1"><path class="cls-6" d="M96.72,179.32c-1.11,2.44-2.28,5.12-3.31,7.74s-2.07,5.29-3,8a101.21,101.21,0,0,0-4.2,16.21L86,213a2.76,2.76,0,0,0,.09.88,8.85,8.85,0,0,0,1.29,2.72,34.1,34.1,0,0,0,5.22,5.85,74.64,74.64,0,0,0,6.48,5.42c2.25,1.74,4.63,3.44,7,5L103.82,237A84.28,84.28,0,0,1,88,228a38.43,38.43,0,0,1-7.09-6.67,16.82,16.82,0,0,1-2.81-5,11.35,11.35,0,0,1-.56-3.46c0-.29,0-.7,0-.89l.06-.59.11-1.16a91.21,91.21,0,0,1,3.84-18c.92-2.9,1.89-5.77,3-8.58s2.26-5.56,3.69-8.41Z" transform="translate(-9.45 -12.68)"/><path class="cls-11" d="M104.36,232.17l8.3-4.22-2.14,9.13s-5.7,1.59-8.35-1.18Z" transform="translate(-9.45 -12.68)"/><polygon class="cls-11" points="110.81 216.78 108.6 224.32 101.07 224.4 103.21 215.28 110.81 216.78"/><path class="cls-6" d="M132,135.34a23.47,23.47,0,0,0,1.86,4.65,1.9,1.9,0,0,1-1.86.59Z" transform="translate(-9.45 -12.68)"/><ellipse class="cls-7" cx="122.29" cy="121.39" rx="0.88" ry="1.35"/><path class="cls-7" d="M131.53,132.76l1.78-.51S132.4,133.64,131.53,132.76Z" transform="translate(-9.45 -12.68)"/><path class="cls-6" d="M109,144c1.07,5.47,2.14,15.48-1.68,19.13,0,0,1.49,5.55,11.65,5.55,11.17,0,5.34-5.55,5.34-5.55-6.1-1.45-5.94-6-4.88-10.23Z" transform="translate(-9.45 -12.68)"/><path class="cls-6" d="M106.08,131.51c.56,9.13.6,13,5.21,17.69,6.93,7.05,18,4.37,20.2-4.75,2-8.2.72-21.75-8.22-25.38A12.47,12.47,0,0,0,106.08,131.51Z" transform="translate(-9.45 -12.68)"/><path class="cls-7" d="M107,121.18c-4.58,1.67-10.69.43-8.29,14.56,2.54,15-1.37,19.88-1.37,19.88s17.37,3.7,35.11-.22c0,0-5.41-9.47-3.9-16.38,1.94-8.81.41-12.07.41-12.07S113.41,118.84,107,121.18Z" transform="translate(-9.45 -12.68)"/><path class="cls-6" d="M126.36,136.27a9.15,9.15,0,0,0,1.44,4.9c1.23,1.9,2.7,1.13,3.07-.85.33-1.78.08-4.91-1.5-6.13S126.38,134.2,126.36,136.27Z" transform="translate(-9.45 -12.68)"/><path class="cls-7" d="M103,122.78c-1.32-3.69,5-9.37,18.23-7s13.85,13.4,13.85,13.4L132.39,126l.12,3.36L118.88,132Z" transform="translate(-9.45 -12.68)"/><path class="cls-15" d="M104.12,163.71h0a2.07,2.07,0,0,1,1.71-2.37c4.13-.69,13.52-2.07,18.25-1.41,3.51.48,4.44,2.53,4.59,4.21a2.08,2.08,0,0,1-2.17,2.24l-20.42-.93A2.08,2.08,0,0,1,104.12,163.71Z" transform="translate(-9.45 -12.68)"/><path class="cls-22" d="M104.12,163.71h0a2.07,2.07,0,0,1,1.71-2.37c4.13-.69,13.52-2.07,18.25-1.41,3.51.48,4.44,2.53,4.59,4.21a2.08,2.08,0,0,1-2.17,2.24l-20.42-.93A2.08,2.08,0,0,1,104.12,163.71Z" transform="translate(-9.45 -12.68)"/><polygon class="cls-6" points="106.48 356.25 114.05 361.5 126.72 344.32 119.15 339.07 106.48 356.25"/><polygon class="cls-6" points="88.81 355.9 96.81 360.46 108.03 342.29 100.02 337.73 88.81 355.9"/><polygon class="cls-12" points="126.72 344.33 120.19 353.18 112.61 347.93 119.14 339.07 126.72 344.33"/><polygon class="cls-12" points="100.02 337.74 108.03 342.3 102.24 351.66 94.23 347.1 100.02 337.74"/><path class="cls-7" d="M122.31,221.07s29.58,37.28,24,72.92c-4.48,28.8-30.43,67.78-30.43,67.78l-12.21-6.06s13.26-25.91,22-53.38a39.48,39.48,0,0,0-4.73-34.18c-15-21.88-39-8.86-22.84-47.08Z" transform="translate(-9.45 -12.68)"/><path class="cls-23" d="M122.31,221.07s29.58,37.28,24,72.92c-4.48,28.8-30.43,67.78-30.43,67.78l-12.21-6.06s13.26-25.91,22-53.38a39.48,39.48,0,0,0-4.73-34.18c-15-21.88-39-8.86-22.84-47.08Z" transform="translate(-9.45 -12.68)"/><path class="cls-24" d="M136.82,245l-4.29-4.28c0,.34,8.32,51.75,10.67,66.2a89.23,89.23,0,0,0,3.15-13C149.06,276.54,143.35,258.69,136.82,245Z" transform="translate(-9.45 -12.68)"/><path class="cls-15" d="M135.52,221.07s35.62,46.85,36.62,74.94c.84,23.53-38.79,69-38.79,69l-11.51-7.44s23.18-32.33,29-58.75c-2.23-26.15-50-77.75-50-77.75Z" transform="translate(-9.45 -12.68)"/><path class="cls-7" d="M135.52,221.07s35.62,46.85,36.62,74.94c.84,23.53-38.79,69-38.79,69l-11.51-7.44s23.18-32.33,29-58.75c-2.23-26.15-50-77.75-50-77.75Z" transform="translate(-9.45 -12.68)"/><path class="cls-25" d="M91.46,165.19c-3.81.9-7.45,14.74-7.45,14.74l14.87,9.93s5-10.94,3.22-15.74C100.3,169.13,96.28,164.05,91.46,165.19Z" transform="translate(-9.45 -12.68)"/><path class="cls-9" d="M94.37,174.1l-1,12.06,5.53,3.7a49.25,49.25,0,0,0,3.37-10.73Z" transform="translate(-9.45 -12.68)"/><path class="cls-25" d="M139.93,165.45s4.39,1.55-4.41,55.62H98.1c.63-15.23.64-24.62-6.64-55.88a110.51,110.51,0,0,1,15.9-2.1,120.29,120.29,0,0,1,17,0C131.65,163.76,139.93,165.45,139.93,165.45Z" transform="translate(-9.45 -12.68)"/><path class="cls-6" d="M143.73,174c.85,2.34,1.74,4.88,2.68,7.31s1.82,4.94,2.78,7.39l2.88,7.38.73,1.85.37.92.18.46c0,.08,0,.07,0,.06a2.77,2.77,0,0,0-.83-.73,3.33,3.33,0,0,0-1.53-.45,3.17,3.17,0,0,0-1.31.24c-.53.25-.53.36-.52.34a1.44,1.44,0,0,0,.26-.26,17.47,17.47,0,0,0,1.68-2.74c.55-1.08,1.08-2.23,1.6-3.39,1-2.35,2-4.79,2.95-7.24s1.85-4.94,2.74-7.44l2.67-7.49,4.52,1.14c-.89,5.36-2,10.61-3.43,15.88-.67,2.64-1.45,5.26-2.34,7.9-.45,1.33-1,2.65-1.52,4a24,24,0,0,1-2.23,4.25,10.12,10.12,0,0,1-1,1.27,6.54,6.54,0,0,1-2.14,1.51,5.16,5.16,0,0,1-4.76-.32,6.26,6.26,0,0,1-2.14-2.22,7.41,7.41,0,0,1-.43-.82l-.23-.46-.44-.91-.89-1.83c-1.16-2.44-2.3-4.9-3.38-7.38s-2.1-5-3.11-7.52-1.92-5-2.77-7.77Z" transform="translate(-9.45 -12.68)"/><path class="cls-25" d="M139.93,165.45c4.5,1.08,9.55,14.37,9.55,14.37l-13.37,11.39s-8.66-14.49-6.91-19.28C131,167,134.05,164.05,139.93,165.45Z" transform="translate(-9.45 -12.68)"/><path class="cls-6" d="M163.16,166.1l4.7-3.92,3.26,5.08-2.4,4.25s-3.83,3.5-7.22,1.72h0A6.08,6.08,0,0,1,163.16,166.1Z" transform="translate(-9.45 -12.68)"/><polygon class="cls-6" points="166.92 149.51 166.57 150.79 159.14 152.04 158.41 149.5 166.92 149.51"/><polygon class="cls-15" points="124.85 352.95 111.44 344.27 113.84 340.1 128.91 349.36 124.85 352.95"/><path class="cls-7" d="M111.49,372.52a7.93,7.93,0,0,1-3.32-1.15.2.2,0,0,1-.11-.21.23.23,0,0,1,.15-.19c.36-.11,3.54-1.09,4.45-.33a.75.75,0,0,1,.25.71,1.25,1.25,0,0,1-.67,1A1.62,1.62,0,0,1,111.49,372.52Zm-2.64-1.28c1.46.74,2.63,1,3.2.74a.81.81,0,0,0,.42-.69.29.29,0,0,0-.1-.31C111.9,370.58,110.14,370.89,108.85,371.24Z" transform="translate(-9.45 -12.68)"/><path class="cls-7" d="M108.28,371.4a.2.2,0,0,1-.16-.07.22.22,0,0,1-.05-.21c0-.1.76-2.66,2-3.24a1.15,1.15,0,0,1,1,0,.79.79,0,0,1,.55.79c-.09,1.06-2.24,2.51-3.22,2.75Zm2.27-3.2a.66.66,0,0,0-.32.08c-.72.34-1.33,1.72-1.61,2.56,1-.44,2.44-1.59,2.49-2.23,0-.11,0-.24-.27-.35A.75.75,0,0,0,110.55,368.2Z" transform="translate(-9.45 -12.68)"/><path class="cls-7" d="M128.27,377.6c-1.32,0-3.17-1.7-4.18-2.75a.21.21,0,0,1,0-.25.22.22,0,0,1,.22-.11c.46.06,4.55.61,5.13,1.76a.71.71,0,0,1,0,.69,1.22,1.22,0,0,1-.93.65Zm-3.4-2.59c1.48,1.45,2.78,2.24,3.52,2.14a.77.77,0,0,0,.61-.43.24.24,0,0,0,0-.27C128.7,375.82,126.52,375.28,124.87,375Z" transform="translate(-9.45 -12.68)"/><path class="cls-7" d="M125,375a4.38,4.38,0,0,1-.79-.06.23.23,0,0,1-.16-.14.22.22,0,0,1,0-.22c.07-.08,1.66-2,3.16-2.13a1.62,1.62,0,0,1,1.21.38c.46.4.43.75.32,1C128.4,374.57,126.37,375,125,375Zm-.31-.44c1.32.07,3.41-.37,3.69-.94,0-.05.09-.19-.21-.45a1.15,1.15,0,0,0-.89-.28A5,5,0,0,0,124.69,374.54Z" transform="translate(-9.45 -12.68)"/><path class="cls-15" d="M108.6,370.16l-10-2.81a.73.73,0,0,0-.88.4l-3.37,7.57a1.48,1.48,0,0,0,1,2c3.49.93,5.22,1.2,9.6,2.43,2.7.77,6.56,2.16,10.28,3.21s5-2.57,3.5-3.34c-6.52-3.46-7-5.83-8.82-8.46A2.43,2.43,0,0,0,108.6,370.16Z" transform="translate(-9.45 -12.68)"/><path class="cls-15" d="M124.37,373.48l-8.51-5.9a.71.71,0,0,0-1,.1l-5.64,6.05a1.47,1.47,0,0,0,.28,2.19c3,2,4.55,2.83,8.29,5.42,2.3,1.6,6.89,5.14,10.07,7.35s5.53-.82,4.4-2c-5.05-5.4-6.16-8.78-7-11.84A2.42,2.42,0,0,0,124.37,373.48Z" transform="translate(-9.45 -12.68)"/><polygon class="cls-15" points="108.02 349.88 92.69 342.25 94.27 338.1 110.64 346.13 108.02 349.88"/><path class="cls-15" d="M97.54,218.88l-1.3,3.35c-.13.26.18.52.61.52h38.86c.34,0,.62-.16.64-.38l.34-3.35c0-.23-.27-.42-.64-.42H98.15A.67.67,0,0,0,97.54,218.88Z" transform="translate(-9.45 -12.68)"/><path class="cls-26" d="M97.54,218.88l-1.3,3.35c-.13.26.18.52.61.52h38.86c.34,0,.62-.16.64-.38l.34-3.35c0-.23-.27-.42-.64-.42H98.15A.67.67,0,0,0,97.54,218.88Z" transform="translate(-9.45 -12.68)"/><path class="cls-15" d="M103.65,223.11h-1c-.2,0-.35-.1-.34-.23l.48-4.35c0-.13.19-.23.39-.23h1c.2,0,.35.1.34.23l-.48,4.35C104,223,103.85,223.11,103.65,223.11Z" transform="translate(-9.45 -12.68)"/><path class="cls-15" d="M127.62,223.11h-1c-.2,0-.35-.1-.34-.23l.48-4.35c0-.13.19-.23.39-.23h1c.2,0,.35.1.34.23l-.48,4.35C128,223,127.82,223.11,127.62,223.11Z" transform="translate(-9.45 -12.68)"/><ellipse class="cls-27" cx="93.31" cy="407.09" rx="31.47" ry="2.28"/><path class="cls-28" d="M121.93,416.54c-5.56-1.62-11.69-3.7-15.48-5.91l-.33-.16V385.3h11.2a3.36,3.36,0,0,0,0-6.71h-11.2V263.69h-6.7v114.9H88.22a3.36,3.36,0,1,0,0,6.71h11.2v25.17l-.33.16c-3.79,2.21-9.92,4.29-15.49,5.91a1.64,1.64,0,0,0,.47,3.22h37.4A1.64,1.64,0,0,0,121.93,416.54Z" transform="translate(-9.45 -12.68)"/><rect class="cls-28" x="66.35" y="239.32" width="53.94" height="24.59" rx="5.18"/><path class="cls-28" d="M81.5,276.58v2.14c0,1.76,1.91,3.2,4.26,3.2h34c2.34,0,4.26-1.44,4.26-3.2v-2.14Z" transform="translate(-9.45 -12.68)"/><path class="cls-29" d="M81.5,276.58v2.14c0,1.76,1.91,3.2,4.26,3.2h34c2.34,0,4.26-1.44,4.26-3.2v-2.14Z" transform="translate(-9.45 -12.68)"/></g></g></svg>