<svg xmlns="http://www.w3.org/2000/svg" xmlns:xlink="http://www.w3.org/1999/xlink" viewBox="0 0 1920 1085.04"><defs><style>.cls-1{fill:none;}.cls-2{isolation:isolate;}.cls-3{opacity:0.43;fill:url(#radial-gradient);}.cls-4,.cls-5{opacity:0.18;}.cls-4{fill:url(#radial-gradient-2);}.cls-5{fill:url(#radial-gradient-3);}.cls-6{fill:url(#radial-gradient-4);}.cls-7{fill:url(#linear-gradient);}.cls-8{fill:#ffecff;}.cls-9{fill:url(#linear-gradient-2);}.cls-10{fill:url(#linear-gradient-3);}.cls-11{fill:#cc7dff;}.cls-12{fill:url(#linear-gradient-4);}.cls-13{fill:url(#linear-gradient-5);}.cls-14{fill:#ffe7ff;}.cls-15{fill:url(#linear-gradient-6);}.cls-16{fill:#dda9ff;}.cls-17{fill:url(#linear-gradient-7);}.cls-18{fill:url(#linear-gradient-8);}.cls-19{fill:url(#linear-gradient-9);}.cls-20{fill:url(#linear-gradient-10);}.cls-21{fill:url(#radial-gradient-5);}.cls-22{fill:url(#linear-gradient-11);}.cls-23{fill:url(#linear-gradient-12);}.cls-24{clip-path:url(#clip-path);}.cls-25{fill:url(#linear-gradient-13);}.cls-26{fill:#ffdcff;}.cls-27{fill:url(#radial-gradient-6);}.cls-28{fill:#ffe4ff;}.cls-29{fill:url(#linear-gradient-14);}.cls-30{fill:url(#linear-gradient-15);}.cls-31{fill:url(#linear-gradient-16);}.cls-32{fill:url(#linear-gradient-17);}.cls-33{fill:url(#linear-gradient-18);}.cls-34{fill:url(#linear-gradient-19);}.cls-35{fill:url(#linear-gradient-20);}.cls-36{fill:url(#linear-gradient-21);}.cls-37{fill:url(#linear-gradient-22);}.cls-38{fill:#fff;}.cls-39{fill:url(#linear-gradient-23);}.cls-40{fill:#552c84;opacity:0.42;mix-blend-mode:multiply;}.cls-41{fill:url(#linear-gradient-24);}.cls-42,.cls-43{mix-blend-mode:screen;}.cls-42{fill:url(#radial-gradient-7);}.cls-43{fill:url(#radial-gradient-8);}</style><radialGradient id="radial-gradient" cx="870.87" cy="600.22" r="706.78" gradientTransform="translate(8.13 -0.22) rotate(0.01)" gradientUnits="userSpaceOnUse"><stop offset="0.01" stop-color="red"/><stop offset="1" stop-color="#c10000"/></radialGradient><radialGradient id="radial-gradient-2" cx="1191.37" cy="1083.86" r="607.14" gradientTransform="matrix(1, 0, 0, 1, 0, 0)" xlink:href="#radial-gradient"/><radialGradient id="radial-gradient-3" cx="1187.7" cy="367.29" r="1091.48" gradientTransform="translate(0 1.93) scale(1 0.99)" xlink:href="#radial-gradient"/><radialGradient id="radial-gradient-4" cx="1341.14" cy="707.37" r="1187.4" gradientTransform="translate(-0.71)" xlink:href="#radial-gradient"/><linearGradient id="linear-gradient" x1="1003.51" y1="-225.53" x2="1050.09" y2="-225.53" gradientTransform="translate(448.54 -56.06) rotate(35.44)" gradientUnits="userSpaceOnUse"><stop offset="0.01" stop-color="#ab0000"/><stop offset="1" stop-color="#590000"/></linearGradient><linearGradient id="linear-gradient-2" x1="1005.94" y1="-224.09" x2="1040.87" y2="-224.09" gradientTransform="translate(448.54 -56.06) rotate(35.44)" gradientUnits="userSpaceOnUse"><stop offset="0" stop-color="red"/><stop offset="1" stop-color="#a30000"/></linearGradient><linearGradient id="linear-gradient-3" x1="988.95" y1="-9.86" x2="1064.64" y2="-9.86" gradientTransform="translate(448.54 -58.06) rotate(35.44)" xlink:href="#linear-gradient-2"/><linearGradient id="linear-gradient-4" x1="988.95" y1="-10.04" x2="1049.94" y2="-10.04" gradientTransform="translate(448.54 -58.06) rotate(35.44)" gradientUnits="userSpaceOnUse"><stop offset="0.01" stop-color="#ab0000"/><stop offset="1" stop-color="#a50000"/></linearGradient><linearGradient id="linear-gradient-5" x1="999.62" y1="16.77" x2="1052.35" y2="16.77" gradientTransform="translate(248.69 535.81)" xlink:href="#linear-gradient-2"/><linearGradient id="linear-gradient-6" x1="1408.02" y1="462.82" x2="1680.66" y2="462.82" gradientTransform="matrix(1, 0, 0, 1, 0, 0)" xlink:href="#linear-gradient"/><linearGradient id="linear-gradient-7" x1="1174.62" y1="-220.5" x2="1209.55" y2="-220.5" xlink:href="#linear-gradient-2"/><linearGradient id="linear-gradient-8" x1="1158.8" y1="-6.71" x2="1234.48" y2="-6.71" xlink:href="#linear-gradient-4"/><linearGradient id="linear-gradient-9" x1="1161.64" y1="-6.62" x2="1218.89" y2="-6.62" xlink:href="#linear-gradient-4"/><linearGradient id="linear-gradient-10" x1="1388.85" y1="653.63" x2="1433.61" y2="653.63" gradientTransform="translate(-117.52 939.5) rotate(-35.44)" xlink:href="#linear-gradient-2"/><radialGradient id="radial-gradient-5" cx="1002.17" cy="-596.85" r="51.52" gradientTransform="matrix(0.88, 0, 0, 0.45, 528.59, 877.79)" gradientUnits="userSpaceOnUse"><stop offset="0" stop-color="#371582"/><stop offset="0.99" stop-color="#a02cc2"/></radialGradient><linearGradient id="linear-gradient-11" x1="1041.15" y1="-285.43" x2="1180.08" y2="-285.43" gradientTransform="translate(448.54 -56.06) rotate(35.44)" gradientUnits="userSpaceOnUse"><stop offset="0.01" stop-color="red"/><stop offset="1" stop-color="#a50000"/></linearGradient><linearGradient id="linear-gradient-12" x1="1042.29" y1="-281.88" x2="1152.08" y2="-281.88" xlink:href="#linear-gradient-2"/><clipPath id="clip-path" transform="translate(0 -2)"><path class="cls-1" d="M1704.78,143.05l1-25.09a17.36,17.36,0,0,0-23.67-16.85l-.07,0-23.32,9.09a251.68,251.68,0,0,0-113.55,88.54l-10,14c.76-2.13,1.53-4.25,2.24-6.4l6.34-19.31a6.75,6.75,0,0,0-9.17-8.27,6.62,6.62,0,0,0-1.33.8l-16.16,12.32a240.69,240.69,0,0,0-50.22,51.89L1286.35,497.41l-40.93,32.41,24,17L1254.12,536l-1.81,2.54,33.83,24.09-3.44,4.82L1395.88,648l1.61-2.26,34.31,24.43,1.81-2.55-2.71-1.93h0l12.73,9.06,17.21-49.29,180.53-253.62A241.07,241.07,0,0,0,1674,307.44l6.34-19.31a6.75,6.75,0,0,0-9.16-8.27,6.41,6.41,0,0,0-1.34.8L1653.64,293c-4.13,3.15-8.13,6.46-12,9.86l16.72-23.49A251.73,251.73,0,0,0,1704.78,143.05Z"/></clipPath><linearGradient id="linear-gradient-13" x1="1432.62" y1="322.46" x2="1511.2" y2="495" gradientTransform="matrix(1, 0, 0, 1, 0, 0)" xlink:href="#linear-gradient"/><radialGradient id="radial-gradient-6" cx="564.91" cy="-301.4" r="313.15" gradientTransform="matrix(0.62, 0.44, -0.58, 0.81, 886.92, 253.77)" gradientUnits="userSpaceOnUse"><stop offset="0" stop-color="#67219e"/><stop offset="0.99" stop-color="#de3dbf"/></radialGradient><linearGradient id="linear-gradient-14" x1="983.05" y1="-105.4" x2="1111.89" y2="-105.4" gradientTransform="translate(448.54 -58.06) rotate(35.44)" xlink:href="#linear-gradient-2"/><linearGradient id="linear-gradient-15" x1="983.05" y1="-72.07" x2="1052.94" y2="-72.07" gradientTransform="translate(448.54 -58.06) rotate(35.44)" xlink:href="#linear-gradient-2"/><linearGradient id="linear-gradient-16" x1="1130.55" y1="-105.4" x2="1259.39" y2="-105.4" gradientTransform="translate(448.54 -58.06) rotate(35.44)" xlink:href="#linear-gradient-2"/><linearGradient id="linear-gradient-17" x1="1188.81" y1="-72.46" x2="1259.39" y2="-72.46" gradientTransform="translate(448.54 -58.06) rotate(35.44)" xlink:href="#linear-gradient-2"/><linearGradient id="linear-gradient-18" x1="1360.66" y1="-250.82" x2="1169.94" y2="-240.46" gradientTransform="translate(448.54 -56.06) rotate(35.44)" xlink:href="#linear-gradient-4"/><linearGradient id="linear-gradient-19" x1="1071.77" y1="-236.22" x2="1149.73" y2="-236.22" xlink:href="#linear-gradient-2"/><linearGradient id="linear-gradient-20" x1="1283.67" y1="588.94" x2="1436.27" y2="588.94" gradientTransform="matrix(1, 0, 0, 1, 0, 0)" xlink:href="#linear-gradient-2"/><linearGradient id="linear-gradient-21" x1="1285.45" y1="605.95" x2="1322.96" y2="605.95" gradientTransform="translate(-109.7 868.61) rotate(-35.44)" xlink:href="#linear-gradient-2"/><linearGradient id="linear-gradient-22" x1="1347.5" y1="650.12" x2="1385.02" y2="650.12" gradientTransform="translate(-123.82 912.77) rotate(-35.44)" xlink:href="#linear-gradient-4"/><linearGradient id="linear-gradient-23" x1="1094.41" y1="-455.04" x2="1158.62" y2="-459.38" xlink:href="#linear-gradient-11"/><linearGradient id="linear-gradient-24" x1="1121.14" y1="-123.27" x2="1114.18" y2="75.82" xlink:href="#linear-gradient-2"/><radialGradient id="radial-gradient-7" cx="533.89" cy="1056.77" r="23.44" gradientUnits="userSpaceOnUse"><stop offset="0.01" stop-color="#de3dbf"/><stop offset="0.1" stop-color="#b03097"/><stop offset="0.22" stop-color="#822470"/><stop offset="0.34" stop-color="#5a194d"/><stop offset="0.46" stop-color="#391031"/><stop offset="0.58" stop-color="#20091c"/><stop offset="0.71" stop-color="#0e040c"/><stop offset="0.84" stop-color="#030103"/><stop offset="1"/></radialGradient><radialGradient id="radial-gradient-8" cx="713.96" cy="644.07" r="23.44" xlink:href="#radial-gradient-7"/></defs><title>mission</title><g class="cls-2"><g id="Layer_1" data-name="Layer 1"><path class="cls-3" d="M1637.33,900.35c-11.54-88.83-253.25-148.79-236.37-279.24s-72.79-97.78-72.79-97.78-37.28,88.82-136.76,31.28S1083.83,438.52,893,494.86s-260.19,53-301-11.77S474.24,328.49,311.46,338C174.88,346,94,191.38,2.12,120.22l6.13,959.56,1739.36-5.64C1631.73,1023.25,1648.58,987,1637.33,900.35Z" transform="translate(0 -2)"/><path class="cls-4" d="M1677.5,1085.1c-.66-.71-1.3-1.42-2-2.13L13.08,1087Z" transform="translate(0 -2)"/><path class="cls-5" d="M1677.55,1076c-31-33.72-54.58-67.64-61.83-97.82-28.13-117,21.5-190.73-79.61-254.69s-66.32-155.35-66.32-155.35-5.09-104.78-130-40.94-281.26-9.59-379.2,21-176.87,75.19-311.25-10.48-97.94-87.64-218.65-97.46S230.2,428.5,155,268.71C123.65,202,63.65,173,3.42,162.55L.37,1080l14.71,0Z" transform="translate(0 -2)"/><path class="cls-6" d="M1611.45,1077.4c-19.07-82.17-13-195.94-83.25-235.82-213-114.23-67-241.43-67-241.43s69.13-342.56-141.63-115.21-415.2,129.45-507.49,71.65S620.73,570,507.93,600.15s-147-16.51-210.2-99.84S229.37,423.06,63.6,402.56A217,217,0,0,1,2.29,385.85L0,1083Z" transform="translate(0 -2)"/><polygon class="cls-1" points="1281.24 1084.36 1915.5 1085.04 1915.5 1083.01 1281.24 1084.36"/><path class="cls-7" d="M1504.83,270.81,1309.42,545.33l-37.94-27,195.4-274.51a240.69,240.69,0,0,1,50.22-51.89l16.16-12.32a6.62,6.62,0,0,1,1.33-.8,6.75,6.75,0,0,1,9.17,8.27l-6.34,19.31A241.28,241.28,0,0,1,1504.83,270.81Z" transform="translate(0 -2)"/><path class="cls-8" d="M1495.34,264.05l-195.4,274.52-28.46-20.26,195.4-274.51a240.69,240.69,0,0,1,50.22-51.89l16.16-12.32a6.62,6.62,0,0,1,1.33-.8,5.58,5.58,0,0,1-.32,1.52l-6.34,19.31A241.07,241.07,0,0,1,1495.34,264.05Z" transform="translate(0 -2)"/><path class="cls-9" d="M1497.45,265.28,1302.05,539.8l-28.46-20.26L1469,245a241.15,241.15,0,0,1,50.22-51.89l16.16-12.31a6.62,6.62,0,0,1,1.33-.8,6,6,0,0,1-.31,1.52L1530,200.85A241.07,241.07,0,0,1,1497.45,265.28Z" transform="translate(0 -2)"/><polygon class="cls-10" points="1307.09 571.71 1245.42 527.82 1286.36 495.41 1324.3 522.42 1307.09 571.71"/><polygon class="cls-11" points="1292.07 561.02 1245.42 527.82 1286.36 495.41 1309.28 511.73 1292.07 561.02"/><polygon class="cls-12" points="1295.31 562.91 1245.42 527.82 1289.6 497.3 1312.53 513.62 1295.31 562.91"/><rect class="cls-13" x="1248.33" y="551" width="52.72" height="3.13" transform="translate(556.65 -638.79) rotate(35.44)"/><rect class="cls-14" x="1282.45" y="509.65" width="46.58" height="1.4" transform="translate(537.92 -664.63) rotate(35.44)"/><path class="cls-15" d="M1641.37,371.87,1446,646.39l-37.94-27,195.4-274.52A241.15,241.15,0,0,1,1653.64,293l16.16-12.31a6.41,6.41,0,0,1,1.34-.8,6.75,6.75,0,0,1,9.16,8.27L1674,307.44A241.07,241.07,0,0,1,1641.37,371.87Z" transform="translate(0 -2)"/><path class="cls-16" d="M1631.88,365.12l-195.4,274.52L1408,619.38l195.4-274.52A241.15,241.15,0,0,1,1653.64,293l16.16-12.31a6.41,6.41,0,0,1,1.34-.8,6.45,6.45,0,0,1-.32,1.52l-6.35,19.31A240.78,240.78,0,0,1,1631.88,365.12Z" transform="translate(0 -2)"/><path class="cls-17" d="M1632.79,366l-195.4,274.52-28.46-20.26,195.4-274.52a241.15,241.15,0,0,1,50.22-51.89l16.16-12.31a5.6,5.6,0,0,1,1.33-.8,5.74,5.74,0,0,1-.32,1.52l-6.34,19.3A241,241,0,0,1,1632.79,366Z" transform="translate(0 -2)"/><polygon class="cls-18" points="1443.63 672.78 1381.96 628.88 1422.9 596.48 1460.84 623.49 1443.63 672.78"/><polygon class="cls-11" points="1428.61 662.08 1381.96 628.88 1422.9 596.48 1445.82 612.8 1428.61 662.08"/><polygon class="cls-19" points="1430.87 663.81 1384.23 630.61 1425.16 598.2 1448.09 614.52 1430.87 663.81"/><rect class="cls-20" x="1384.87" y="652.07" width="52.72" height="3.13" transform="translate(640.56 -699.25) rotate(35.44)"/><rect class="cls-21" x="1418.99" y="610.71" width="46.58" height="1.4" transform="translate(621.84 -725.08) rotate(35.44)"/><path class="cls-22" d="M1658.32,279.34,1395.88,648,1282.7,567.46l262.44-368.68a251.68,251.68,0,0,1,113.55-88.54l23.32-9.09.07,0A17.36,17.36,0,0,1,1705.75,118l-1,25.09A251.73,251.73,0,0,1,1658.32,279.34Z" transform="translate(0 -2)"/><path class="cls-14" d="M1634.58,262.44,1372.15,631.13l-89.45-63.67,262.44-368.68a251.68,251.68,0,0,1,113.55-88.54l23.32-9.09-1,25A251.65,251.65,0,0,1,1634.58,262.44Z" transform="translate(0 -2)"/><path class="cls-23" d="M1635.75,262.76,1373.31,631.45l-89.44-63.67L1546.31,199.1a251.68,251.68,0,0,1,113.55-88.54l23.32-9.09-1,25A251.72,251.72,0,0,1,1635.75,262.76Z" transform="translate(0 -2)"/><g class="cls-24"><path class="cls-25" d="M1649.74,217.54a15.89,15.89,0,0,0-1.66-1c-.18-.1-.37-.18-.55-.27-.41-.2-.81-.4-1.23-.57-.22-.09-.45-.16-.68-.24-.39-.14-.79-.28-1.19-.39l-.75-.17c-.4-.09-.8-.17-1.2-.22s-.53-.07-.79-.09-.81-.06-1.22-.07h-.82l-1.2.09-.88.11c-.38.07-.75.15-1.13.24s-.64.15-1,.25l-.2,0c-.57.18-1.12.39-1.7.63q-11.74,5.1-22.9,11.3a264.78,264.78,0,0,0-87.27,78l-84.09,118.14-124.4,30.9-53.78,68.3,1.73,1-3.84,4.88,61,34.86,3,1.72-21.85,18a7.32,7.32,0,0,0,.4,11.61l4.57,3.25-3.44,4.83,34.06,24.25,3.44-4.83,10.58,7.53-14.23,20.93a4.17,4.17,0,0,0,1,5.75,3.62,3.62,0,0,0,.67.3,3.41,3.41,0,0,0,.55.59,4.19,4.19,0,0,0,5.78-.91l15.12-20.31,8.49,6-3.44,4.83L1398.78,671l3.44-4.83,5.5,3.91a7.32,7.32,0,0,0,11.1-3.42l9.82-26.52,2.08,1.81,53.43,46.64,3.35-5.22.23.19,46.93-73.17L1523.32,485l85-119.38a264.81,264.81,0,0,0,45.19-108.41q2.16-12.36,3.13-24.92A16.36,16.36,0,0,0,1649.74,217.54Z" transform="translate(0 -2)"/></g><polygon class="cls-26" points="1359.85 576.15 1245.36 517.73 1301.25 443.56 1477.68 399.74 1359.85 576.15"/><polygon class="cls-27" points="1362.05 578.73 1249.67 514.44 1299.14 449.43 1479.88 402.32 1362.05 578.73"/><polygon class="cls-28" points="1376.53 587.82 1470.49 677.98 1520.99 599.78 1504.63 418.73 1376.53 587.82"/><polygon class="cls-29" points="1357.74 582.02 1306.32 552.6 1245.36 517.73 1299.14 449.43 1390.37 426.77 1475.57 405.61 1357.74 582.02"/><polygon class="cls-30" points="1306.32 552.6 1245.36 517.73 1299.14 449.43 1390.37 426.77 1306.32 552.6"/><polygon class="cls-31" points="1470.49 677.98 1417.05 631.35 1372.95 592.84 1501.05 423.75 1508.87 510.18 1517.42 604.8 1470.49 677.98"/><polygon class="cls-32" points="1470.49 677.98 1417.05 631.35 1508.87 510.18 1517.42 604.8 1470.49 677.98"/><path class="cls-33" d="M1594.63,357l-187,262.71-84.89-60.42,187-262.71a264.81,264.81,0,0,1,87.27-78q11.13-6.18,22.9-11.3a16.61,16.61,0,0,1,1.7-.62,16.5,16.5,0,0,1,21.33,17q-1,12.57-3.13,24.92A264.81,264.81,0,0,1,1594.63,357Z" transform="translate(0 -2)"/><path class="cls-28" d="M1573.26,341.74l-187,262.71-63.52-45.21,187-262.71a264.81,264.81,0,0,1,87.27-78q11.13-6.18,22.9-11.3a16.61,16.61,0,0,1,1.7-.62c0,.6,0,1.19,0,1.81q-1,12.57-3.13,24.92a264.81,264.81,0,0,1-45.19,108.41Z" transform="translate(0 -2)"/><path class="cls-34" d="M1575.66,343.13l-187,262.72-63.52-45.22,187-262.71a264.91,264.91,0,0,1,87.28-78c7.42-4.12,15.07-7.9,22.89-11.3.58-.24,1.13-.45,1.71-.63,0,.6,0,1.19,0,1.82q-1,12.57-3.13,24.92a264.72,264.72,0,0,1-45.19,108.4Z" transform="translate(0 -2)"/><path class="cls-14" d="M1394.05,661.47,1287.88,585.9a7.32,7.32,0,0,1-.41-11.62l74-60.81a29.41,29.41,0,0,1,35.74-1.23l30.69,21.84a29.41,29.41,0,0,1,10.54,34.18l-33.24,89.79A7.32,7.32,0,0,1,1394.05,661.47Z" transform="translate(0 -2)"/><path class="cls-35" d="M1434.47,572.69l-32.63,88.15a7.2,7.2,0,0,1-10.9,3.38l-47.76-34-7.62-5.4L1286.67,590a7.22,7.22,0,0,1-.37-11.42l72.6-59.72a28.87,28.87,0,0,1,35.08-1.19l9.74,6.93,11.85,8.44,8.55,6.08A28.88,28.88,0,0,1,1434.47,572.69Z" transform="translate(0 -2)"/><rect class="cls-36" x="1283.3" y="602.98" width="41.81" height="5.94" transform="translate(593.09 -646.03) rotate(35.44)"/><rect class="cls-37" x="1345.35" y="647.15" width="41.81" height="5.94" transform="translate(630.19 -673.82) rotate(35.44)"/><path class="cls-38" d="M1598.6,300.72a3.88,3.88,0,0,1-1.59-2.54,30,30,0,0,0-34.47-24.53,3.9,3.9,0,0,1-1.3-7.7,37.78,37.78,0,0,1,43.47,30.94,3.91,3.91,0,0,1-6.11,3.83Z" transform="translate(0 -2)"/><path class="cls-39" d="M1639.82,248.54c-6-16.88-19.74-27.11-42.8-30q11.13-6.18,22.9-11.3a16.51,16.51,0,0,1,23,16.4Q1642,236.19,1639.82,248.54Z" transform="translate(0 -2)"/><path class="cls-40" d="M1418.62,529l-3,4.06-72.39,97.17-7.62-5.4,68.16-100.21,2.84-4.2C1413.12,520.32,1416.63,523.74,1418.62,529Z" transform="translate(0 -2)"/><path class="cls-41" d="M1404.12,518.12c6.56-.11,10.08,3.32,12,8.57l-89.11,119.65a4.18,4.18,0,0,1-5.78.91h0a4.17,4.17,0,0,1-1-5.75Z" transform="translate(0 -2)"/><path class="cls-42" d="M557.32,1056.77a23.44,23.44,0,1,1-23.43-23.44A23.43,23.43,0,0,1,557.32,1056.77Z" transform="translate(0 -2)"/><path class="cls-43" d="M737.4,644.07A23.44,23.44,0,1,1,714,620.63,23.44,23.44,0,0,1,737.4,644.07Z" transform="translate(0 -2)"/><polygon class="cls-1" points="0 0 0 580.47 1.68 10.66 0 580.47 0 587.84 1.68 76.02 0 587.84 0 1078 1920 1078 1920 0 0 0"/></g></g></svg>