<svg id="OBJECTS" xmlns="http://www.w3.org/2000/svg" viewBox="0 0 510.27 466.18"><defs><style>.cls-1{fill:#dfdffc;}.cls-2{fill:#843722;stroke-width:0.5px;}.cls-2,.cls-8{stroke:#000;stroke-linecap:round;stroke-linejoin:round;}.cls-3{fill:#247001;}.cls-4{fill:#174f00;}.cls-5{fill:#369604;}.cls-6{fill:#827cf9;}.cls-7{fill:#6969e6;}.cls-11,.cls-8{fill:#fff;}.cls-9{fill:#f3f3ff;}.cls-10{fill:#c10000;}.cls-12{fill:#cfcff0;}.cls-13{fill:#e59c98;}.cls-14{fill:#0a0059;}</style></defs><title>privacy</title><path class="cls-1" d="M198.38,475.62s-129.54-4.28-171.6-74.08S51,290.85,76.93,274.3s57.13-30.09,68-129.49S237.65,31.47,273.09,35.74s59.88,35.19,74,56.92,45.68,55.19,94.13,90.4,101.5,120.85,65.12,213.25-130.08,78.47-130.08,78.47S264.56,485.52,198.38,475.62Z" transform="translate(-13.15 -14.72)"/><path class="cls-2" d="M233.17,170.06s7.58,44.06,21.5,64,27.21,5.23,27.21,5.23l1.68,9.41-6.68.19s-1.44,23.23,12.27,23.55,34.32-29.09,34.32-29.09-6.18-19.51-5.52-33.23c0,0,10.09-16.1,3.9-23.65s-15.2-3.09-14.8,11L302.17,199s-1.56-17.87-4.46-20.95-16.76-8.31-17.11-20.6C280.6,157.46,252.64,175.12,233.17,170.06Z" transform="translate(-13.15 -14.72)"/><path d="M328.12,147.67c-2-22.08-16.11-22.73-25.12-18.26,0,0-5.17-21.29-20.89-17.68S262,120.39,254.46,128s-21.69,3.43-31,9.32-10.9,12.26-16.31,19.79-1,14.44,3.88,12.89c0,0,1.3,20.61,26.2,18.89h0c-2.67-10.77-4.05-18.81-4.05-18.81,19.47,5.06,47.43-12.6,47.43-12.6.35,12.29,14.21,17.52,17.11,20.6S302.17,199,302.17,199l4.88-1.54c-.4-14.05,8.61-18.52,14.8-11a9.43,9.43,0,0,1,2,5.57h0S330.16,169.75,328.12,147.67Z" transform="translate(-13.15 -14.72)"/><path d="M281.88,239.33l-.42.43C281.73,239.5,281.88,239.33,281.88,239.33Z" transform="translate(-13.15 -14.72)"/><path d="M307.35,220.3c-10.61,10.14-25.71,18.2-25.71,18.2l2.13,11.06C300.06,241.72,307.35,220.3,307.35,220.3Z" transform="translate(-13.15 -14.72)"/><path d="M250.17,196.77c1,4,0,7.79-2.36,8.36s-5-2.24-6-6.29.05-7.8,2.35-8.37S249.17,192.72,250.17,196.77Z" transform="translate(-13.15 -14.72)"/><path d="M274.8,190.65c1,4-.05,7.8-2.35,8.37s-5-2.24-6-6.29.05-7.8,2.36-8.37S273.8,186.61,274.8,190.65Z" transform="translate(-13.15 -14.72)"/><path class="cls-3" d="M367,475s14.7-70.08,39.42-115.5S466.8,258.28,466.8,258.28s-19.3,62.58-27.37,100.32S367,475,367,475Z" transform="translate(-13.15 -14.72)"/><path class="cls-4" d="M523.42,321.33s-50.44,5.91-95.71,45S367,475,367,475s38.63-19.62,65.47-64.32S523.42,321.33,523.42,321.33Z" transform="translate(-13.15 -14.72)"/><path class="cls-5" d="M443.91,244.17s-35,61.68-52,101.75S367,475,367,475s37.77-91,50.34-135S443.91,244.17,443.91,244.17Z" transform="translate(-13.15 -14.72)"/><path class="cls-3" d="M200.65,474.81S182,405.68,154.73,361.74s-66-97.66-66-97.66,22.84,61.38,33,98.6S200.65,474.81,200.65,474.81Z" transform="translate(-13.15 -14.72)"/><path class="cls-4" d="M35.74,330.25s50.7,3,98.13,39.5,66.78,105.06,66.78,105.06-39.68-17.39-69-60.49S35.74,330.25,35.74,330.25Z" transform="translate(-13.15 -14.72)"/><path class="cls-5" d="M110.74,248.69s38.44,59.59,57.73,98.63,32.18,127.49,32.18,127.49-42.88-88.65-57.94-132S110.74,248.69,110.74,248.69Z" transform="translate(-13.15 -14.72)"/><path d="M237.27,190.62h-.18a1.75,1.75,0,0,1-1.61-1.87,10.44,10.44,0,0,1,7.62-9.61,1.75,1.75,0,0,1,.79,3.4A6.93,6.93,0,0,0,239,189,1.75,1.75,0,0,1,237.27,190.62Z" transform="translate(-13.15 -14.72)"/><path d="M277.2,179.86a1.74,1.74,0,0,1-1.14-.38c-5.08-4.07-12.11-1.31-12.18-1.28a1.75,1.75,0,1,1-1.31-3.24c.37-.15,9-3.54,15.67,1.79a1.74,1.74,0,0,1-1,3.11Z" transform="translate(-13.15 -14.72)"/><path class="cls-6" d="M403.29,294.18c-7.86-29.3-24.17-49.21-80.8-50.76,0,0-19.66,27.23-33.38,27.21-12.71,0-11.25-22.16-11.25-22.16s-23.11-5.41-40,1.57-36.66,45.76-36.66,45.76,7.6,100.2,4.45,119-7.23,60.82-7.23,60.82,110,12.42,177.9-.84c0,0-7.7-54.16-9.71-75.54a255.68,255.68,0,0,1-.14-41.82s27.05,11.88,32.94,8.91C399.37,366.33,411.15,323.47,403.29,294.18Z" transform="translate(-13.15 -14.72)"/><path class="cls-7" d="M242,288.28l-40.75,9.2c.54,7.25,2.68,36.89,4,64.94C232.35,335.44,242,288.28,242,288.28Z" transform="translate(-13.15 -14.72)"/><path class="cls-7" d="M365.64,377.69l-18.29-36.07.27-21.61c-4.4,15.32-18.37,61.82-18.37,61.82L291.44,394s37.91,33.68,22.4,54c-9.13,12-29.77,24.27-45.23,32.37,34.68,1.15,75.81.58,107.67-5.64,0,0-7.7-54.16-9.71-75.54C365.85,391.64,365.63,384.17,365.64,377.69Z" transform="translate(-13.15 -14.72)"/><path class="cls-2" d="M347.33,340.75l-9.07,27s-24.33-15.12-46.41-25.38-45.23-20.85-52.26-20.65-26.73,5.42-28.23,8.09,3.82,4.64,6.72,4.82,8.93-1.31,8.93-1.31-2.74,5.61-5,10.69,2.88,8.61,4.48,9.09c0,0,4.64,5.67,8.33,5.56,0,0,7.06,7.19,13.07,5.43s-.7-6-.7-6a16.53,16.53,0,0,0,8.45.55,25.58,25.58,0,0,0,7.83-2.86s46.79,54.28,64.63,63.61,26.07,14.72,37.16,9.13,29.91-42,34.08-62.11C399.37,366.33,367,365.84,347.33,340.75Z" transform="translate(-13.15 -14.72)"/><path d="M347.35,341.62h-.05a.86.86,0,0,1-.84-.9l.93-28.84a.88.88,0,0,1,1.75.06l-.94,28.84A.87.87,0,0,1,347.35,341.62Z" transform="translate(-13.15 -14.72)"/><path d="M348.83,331.74a1,1,0,0,1-.37-.07.88.88,0,0,1-.46-1.15l9.57-22.06a.87.87,0,1,1,1.6.7l-9.56,22A.87.87,0,0,1,348.83,331.74Z" transform="translate(-13.15 -14.72)"/><path d="M400.61,358.26c-25.12.72-48.88-22.06-49.12-22.29a.87.87,0,1,1,1.21-1.25c.24.22,24.12,23,48.73,21.76a.88.88,0,0,1,.09,1.75Z" transform="translate(-13.15 -14.72)"/><path d="M226.54,353.94a.77.77,0,0,1-.29-.05.86.86,0,0,1-.56-1.09,92.29,92.29,0,0,1,6.75-15.65.87.87,0,0,1,1.19-.32A.88.88,0,0,1,234,338a92.49,92.49,0,0,0-6.6,15.3A.89.89,0,0,1,226.54,353.94Z" transform="translate(-13.15 -14.72)"/><path d="M234.87,359.5l-.21,0a.88.88,0,0,1-.67-1c.08-.36,1.94-8.7,5.27-13.88a.88.88,0,1,1,1.47.95c-3.16,4.91-5,13.22-5,13.3A.88.88,0,0,1,234.87,359.5Z" transform="translate(-13.15 -14.72)"/><path d="M260.29,452.88c-1.07,0-1.67,0-1.7,0a.88.88,0,0,1,0-1.75h0c.41,0,40.9,0,57.26-19.87a.88.88,0,0,1,1.23-.12.87.87,0,0,1,.12,1.23c-8.85,10.75-24.34,15.75-35.78,18.05A129.92,129.92,0,0,1,260.29,452.88Z" transform="translate(-13.15 -14.72)"/><path d="M277.55,436a.87.87,0,0,1-.11-1.74c.21,0,21.07-2.23,29.57-7.58a.89.89,0,0,1,1.21.28.87.87,0,0,1-.28,1.2c-8.84,5.57-29.45,7.74-30.32,7.84Z" transform="translate(-13.15 -14.72)"/><path class="cls-8" d="M218.58,416.8s-11.23.68-20.48-3.28a36.4,36.4,0,0,1-14.19-10.83l22.46-6.26,29.12,3.74S234.83,413.35,218.58,416.8Z" transform="translate(-13.15 -14.72)"/><polygon class="cls-9" points="247.04 388.6 121.82 372.64 90.58 263.05 211.47 274.35 247.04 388.6"/><polygon class="cls-10" points="211.47 274.35 215.13 275.3 248.29 380.14 280.46 374 286.71 380.4 247.04 388.6 211.47 274.35"/><polygon class="cls-1" points="280.46 374 248.29 380.14 244.81 369.14 280.46 374"/><path d="M235.36,313.19a.9.9,0,0,1-.28,0,.87.87,0,0,1-.58-1.09c0-.12,3.7-12.2,7.54-23.78a.87.87,0,0,1,1.1-.56.89.89,0,0,1,.56,1.11c-3.84,11.56-7.5,23.61-7.53,23.73A.88.88,0,0,1,235.36,313.19Z" transform="translate(-13.15 -14.72)"/><path d="M237,305.93a.86.86,0,0,1-.9-.84l-.47-16.33a.88.88,0,1,1,1.75-.05l.46,16.33A.86.86,0,0,1,237,305.93Z" transform="translate(-13.15 -14.72)"/><ellipse class="cls-10" cx="188.15" cy="72.61" rx="57.89" ry="57.9" transform="translate(98.48 244.49) rotate(-88.81)"/><ellipse class="cls-10" cx="405.05" cy="129.49" rx="67.31" ry="67.32" transform="translate(253.66 516.92) rotate(-88.76)"/><ellipse class="cls-10" cx="111.84" cy="204.43" rx="57.89" ry="57.9" transform="translate(-108.13 297.08) rotate(-88.75)"/><circle class="cls-10" cx="105.02" cy="101.51" r="14.95" transform="translate(-10.64 190.83) rotate(-89.45)"/><path class="cls-6" d="M58,246.11a4.83,4.83,0,1,1-5-4.69A4.84,4.84,0,0,1,58,246.11Z" transform="translate(-13.15 -14.72)"/><circle class="cls-10" cx="363.98" cy="49.31" r="9.14" transform="translate(293.64 397.42) rotate(-88.76)"/><circle class="cls-10" cx="485.18" cy="187.87" r="13.92" transform="translate(273.78 654.18) rotate(-88.77)"/><path class="cls-6" d="M482.51,154.49a4.7,4.7,0,1,1-4.83-4.56A4.71,4.71,0,0,1,482.51,154.49Z" transform="translate(-13.15 -14.72)"/><path class="cls-11" d="M166.81,64.06l1,34.76L212,97.56l-1-34.76Zm27,26.12-9.88.28,2.5-6.74a6.39,6.39,0,1,1,4.66-.09Z" transform="translate(-13.15 -14.72)"/><path class="cls-11" d="M175.14,66.45h-.31a2.62,2.62,0,0,1-2.38-2.84c.07-.82,1.9-20.22,15.08-21l.41,0c13-.37,16.09,19.28,16.22,20.12a2.62,2.62,0,0,1-5.18.79c0-.16-2.71-16.1-11.14-15.66S177.68,63.9,177.67,64.05A2.63,2.63,0,0,1,175.14,66.45Z" transform="translate(-13.15 -14.72)"/><rect class="cls-1" x="78.16" y="184.6" width="66.4" height="42.68" transform="translate(-18.97 -11.47) rotate(-1.63)"/><polygon class="cls-12" points="64.41 170.83 132 211.6 130.78 168.94 64.41 170.83"/><rect class="cls-6" x="83.4" y="203.63" width="36.36" height="2.59" transform="translate(-18.94 -11.75) rotate(-1.63)"/><rect class="cls-6" x="83.55" y="209.16" width="36.36" height="2.59" transform="translate(-19.1 -11.74) rotate(-1.63)"/><rect class="cls-6" x="83.79" y="217.31" width="9.62" height="3.16" transform="translate(-19.35 -12.11) rotate(-1.63)"/><rect class="cls-6" x="98.01" y="216.9" width="9.62" height="3.16" transform="translate(-19.33 -11.71) rotate(-1.63)"/><rect class="cls-6" x="126.02" y="212.63" width="13.31" height="7.51" transform="translate(-19.26 -10.86) rotate(-1.63)"/><rect class="cls-1" x="363.29" y="118.96" width="83.52" height="21.08" transform="translate(-16.67 -3.14) rotate(-1.63)"/><path d="M263.63,220c-1.59.05-3.7-.15-4.92-1.34a3.34,3.34,0,0,1-.93-3.06c.64-4.43-.6-21-.62-21.19a.89.89,0,0,1,.81-.94.85.85,0,0,1,.93.81c.06.69,1.27,16.95.61,21.57a1.64,1.64,0,0,0,.41,1.56c1.18,1.14,4.42.86,5.46.67a.89.89,0,0,1,1,.71.87.87,0,0,1-.71,1A14.25,14.25,0,0,1,263.63,220Z" transform="translate(-13.15 -14.72)"/><path d="M268.56,228.76a.87.87,0,0,1-.27-1.71c.12,0,12.64-3.88,14.88-12.37a.87.87,0,0,1,1.69.45c-2.49,9.44-15.52,13.43-16.07,13.6A.91.91,0,0,1,268.56,228.76Z" transform="translate(-13.15 -14.72)"/><path class="cls-2" d="M167.7,388.56s17.19,17.61,27.1,20,28.62-13.11,31.49-17.24-.14-4.74-2.58-4.31-8.12,5.15-8.12,5.15,10.74-17.88,7.68-20.6-17,17.7-17,17.7.62-25.32-2.37-25.41-9.54,22.65-9.54,22.65-10-23.68-14.21-23.56,3,24,3,24-16.53-6.73-19.67-5.94S167.7,388.56,167.7,388.56Z" transform="translate(-13.15 -14.72)"/><path class="cls-13" d="M289.39,201.78c.48,2-1.68,4.18-4.83,5s-6.1-.18-6.58-2.14,1.67-4.18,4.82-5S288.9,199.82,289.39,201.78Z" transform="translate(-13.15 -14.72)"/><path class="cls-13" d="M253,213.33c-.48-2-3.43-2.91-6.58-2.13a9.32,9.32,0,0,0-1.49.52c.81,2.27,1.67,4.52,2.57,6.7.22,0,.45-.07.68-.13C251.29,217.51,253.45,215.29,253,213.33Z" transform="translate(-13.15 -14.72)"/><path class="cls-10" d="M185.17,335.53c2.13,8.57-1.34,16.81-7.74,18.4s-13.32-4.07-15.45-12.64,1.34-16.8,7.75-18.39S183.05,327,185.17,335.53Z" transform="translate(-13.15 -14.72)"/><path class="cls-14" d="M374.58,129.18l1.79-1.12.09-.06a.05.05,0,0,0,.05,0,.54.54,0,0,1,.35,0,.47.47,0,0,1,.25.27l.41,1.18a.43.43,0,0,1,0,.35.54.54,0,0,1-.42.27l-2.09.27,1.61,1.34a.3.3,0,0,1,.08.07s0,0,.05.05a.43.43,0,0,1,.09.33.39.39,0,0,1-.18.32l-1,.77a.44.44,0,0,1-.34.07.62.62,0,0,1-.3-.16l-.08-.15-.9-1.86-.78,1.91-.08.15a.48.48,0,0,1-.29.18.39.39,0,0,1-.33-.06l-1.05-.7a.39.39,0,0,1-.2-.31.47.47,0,0,1,.07-.34.1.1,0,0,0,0,0,.35.35,0,0,1,.09-.07L373,130.4l-2.08-.15c-.11,0-.17,0-.17,0a.39.39,0,0,1-.27-.21.43.43,0,0,1,0-.35l.34-1.2a.45.45,0,0,1,.24-.28.46.46,0,0,1,.34,0l.05,0a.23.23,0,0,1,.1,0l1.83,1-.5-2a1.15,1.15,0,0,1,0-.16.46.46,0,0,1,.12-.32.47.47,0,0,1,.33-.16l1.25,0a.39.39,0,0,1,.33.14.48.48,0,0,1,.15.31,1.37,1.37,0,0,1,0,.16Z" transform="translate(-13.15 -14.72)"/><path class="cls-14" d="M389,128.77l1.79-1.12.09-.06a.05.05,0,0,0,.05,0,.54.54,0,0,1,.35,0,.47.47,0,0,1,.25.27l.41,1.18a.43.43,0,0,1,0,.35.45.45,0,0,1-.26.23.41.41,0,0,1-.16,0l-2.09.27,1.61,1.34a.3.3,0,0,1,.08.07l.05,0a.43.43,0,0,1,.09.33.39.39,0,0,1-.18.32l-1,.77a.41.41,0,0,1-.33.07.58.58,0,0,1-.3-.16l-.08-.15-.9-1.86-.78,1.91-.08.15a.48.48,0,0,1-.29.18.41.41,0,0,1-.34-.06l-1-.7a.39.39,0,0,1-.2-.31.47.47,0,0,1,.07-.34.1.1,0,0,0,0,0,.23.23,0,0,1,.09-.07l1.51-1.43-2.08-.15c-.12,0-.17,0-.17,0a.39.39,0,0,1-.27-.21.4.4,0,0,1,0-.35l.34-1.2a.45.45,0,0,1,.24-.28.46.46,0,0,1,.34-.05l.05,0,.1.05,1.83,1-.5-2a1.15,1.15,0,0,1,0-.16.46.46,0,0,1,.12-.32.47.47,0,0,1,.32-.16l1.26,0a.39.39,0,0,1,.33.14.43.43,0,0,1,.14.31.47.47,0,0,1,0,.16Z" transform="translate(-13.15 -14.72)"/><path class="cls-14" d="M403.4,128.36l1.79-1.12.09-.06a.05.05,0,0,0,.05,0,.54.54,0,0,1,.35,0,.47.47,0,0,1,.25.27l.41,1.18a.43.43,0,0,1,0,.35.45.45,0,0,1-.26.23.43.43,0,0,1-.17,0l-2.08.27,1.61,1.34a.3.3,0,0,1,.08.07s0,0,.05,0a.43.43,0,0,1,.09.33.39.39,0,0,1-.18.32l-1,.77a.41.41,0,0,1-.33.07.54.54,0,0,1-.3-.16l-.09-.15-.89-1.86-.78,1.91-.08.15a.48.48,0,0,1-.29.18.41.41,0,0,1-.34-.06l-1-.7a.39.39,0,0,1-.2-.31.43.43,0,0,1,.07-.34.1.1,0,0,0,0,0,.38.38,0,0,1,.09-.08l1.51-1.42-2.08-.15c-.12,0-.17,0-.17,0a.45.45,0,0,1-.31-.56l.34-1.2a.46.46,0,0,1,.23-.28.49.49,0,0,1,.35,0l.05,0,.1,0,1.83,1-.5-2a.53.53,0,0,1,0-.16.42.42,0,0,1,.12-.32.47.47,0,0,1,.32-.16l1.26,0a.4.4,0,0,1,.33.14.43.43,0,0,1,.14.31,1,1,0,0,1,0,.16Z" transform="translate(-13.15 -14.72)"/><path class="cls-14" d="M417.8,128l1.8-1.12.09-.06a.05.05,0,0,0,.05,0,.54.54,0,0,1,.35,0,.45.45,0,0,1,.25.27l.41,1.18a.43.43,0,0,1,0,.35.41.41,0,0,1-.25.23.43.43,0,0,1-.17,0l-2.09.27,1.61,1.34a.25.25,0,0,1,.09.07l0,0a.4.4,0,0,1,.1.33.39.39,0,0,1-.18.32l-1,.77a.41.41,0,0,1-.33.07.54.54,0,0,1-.3-.16l-.09-.15-.89-1.86-.78,1.91-.08.15a.52.52,0,0,1-.29.18.4.4,0,0,1-.34-.06l-1.05-.7a.41.41,0,0,1-.19-.31.43.43,0,0,1,.07-.34l0-.05.08-.08,1.51-1.42-2.08-.15c-.11,0-.16,0-.16,0a.38.38,0,0,1-.27-.21.4.4,0,0,1,0-.35l.34-1.2a.46.46,0,0,1,.23-.28.48.48,0,0,1,.35,0l.05,0a.29.29,0,0,1,.1,0l1.83,1-.5-2c0-.07,0-.12,0-.16a.5.5,0,0,1,.45-.48l1.26,0a.44.44,0,0,1,.33.13.46.46,0,0,1,.14.31,1.09,1.09,0,0,1,0,.17Z" transform="translate(-13.15 -14.72)"/><path class="cls-14" d="M432.21,127.54l1.8-1.12.09-.06a.09.09,0,0,0,0,0,.54.54,0,0,1,.35,0,.41.41,0,0,1,.24.27l.42,1.18a.43.43,0,0,1,0,.35.41.41,0,0,1-.25.23.43.43,0,0,1-.17,0l-2.09.27,1.61,1.34a.25.25,0,0,1,.09.07l0,0a.44.44,0,0,1,.1.33.39.39,0,0,1-.18.32l-1,.77a.42.42,0,0,1-.33.07.54.54,0,0,1-.3-.16l-.09-.15-.89-1.86-.78,1.91-.08.15a.52.52,0,0,1-.29.18.4.4,0,0,1-.34-.06l-1.05-.7a.38.38,0,0,1-.19-.31.43.43,0,0,1,.07-.34l0-.05a.29.29,0,0,1,.08-.08l1.51-1.42-2.08-.15c-.11,0-.16,0-.16,0a.38.38,0,0,1-.27-.21.4.4,0,0,1,0-.35l.34-1.2a.43.43,0,0,1,.23-.28.48.48,0,0,1,.35,0l.05,0,.1,0,1.83,1-.5-2a.61.61,0,0,1,0-.16.5.5,0,0,1,.45-.48l1.26,0a.44.44,0,0,1,.33.13.46.46,0,0,1,.14.31,1.09,1.09,0,0,1,0,.17Z" transform="translate(-13.15 -14.72)"/></svg>