<svg xmlns="http://www.w3.org/2000/svg" xmlns:xlink="http://www.w3.org/1999/xlink" viewBox="0 0 3547.41 3618.79"><defs><style>.cls-1{opacity:0.9;}.cls-2{fill:#c10000;}.cls-3{opacity:0.3;}.cls-4{fill:url(#linear-gradient);}.cls-5{fill:url(#linear-gradient-2);}.cls-6{fill:url(#linear-gradient-3);}.cls-7{fill:url(#linear-gradient-4);}.cls-21,.cls-51,.cls-8{fill:#fff;}.cls-8{opacity:0.56;}.cls-9{fill:url(#linear-gradient-5);}.cls-10{fill:url(#linear-gradient-6);}.cls-11{fill:url(#linear-gradient-7);}.cls-12{fill:url(#linear-gradient-8);}.cls-13{fill:url(#linear-gradient-9);}.cls-14{fill:url(#linear-gradient-10);}.cls-15{fill:url(#linear-gradient-11);}.cls-16{fill:url(#linear-gradient-12);}.cls-17{fill:url(#linear-gradient-13);}.cls-18{fill:url(#linear-gradient-14);}.cls-19{fill:url(#linear-gradient-15);}.cls-20{fill:url(#linear-gradient-16);}.cls-22{fill:url(#linear-gradient-17);}.cls-23{fill:url(#linear-gradient-18);}.cls-24{fill:url(#linear-gradient-19);}.cls-25{fill:url(#linear-gradient-20);}.cls-26{fill:url(#linear-gradient-21);}.cls-27{fill:url(#linear-gradient-22);}.cls-28{fill:url(#linear-gradient-23);}.cls-29{fill:url(#linear-gradient-24);}.cls-30{fill:url(#linear-gradient-25);}.cls-31{fill:url(#linear-gradient-26);}.cls-32{fill:url(#linear-gradient-27);}.cls-33{fill:url(#linear-gradient-28);}.cls-34{fill:url(#linear-gradient-29);}.cls-35{fill:url(#linear-gradient-30);}.cls-36{fill:url(#linear-gradient-31);}.cls-37{fill:url(#linear-gradient-32);}.cls-38{fill:url(#linear-gradient-33);}.cls-39{fill:url(#linear-gradient-34);}.cls-40{fill:url(#linear-gradient-35);}.cls-41{fill:url(#linear-gradient-36);}.cls-42{fill:url(#linear-gradient-37);}.cls-43{fill:url(#linear-gradient-38);}.cls-44{fill:url(#linear-gradient-39);}.cls-45{fill:url(#linear-gradient-40);}.cls-46{fill:url(#linear-gradient-41);}.cls-47{fill:url(#linear-gradient-42);}.cls-48{fill:url(#linear-gradient-43);}.cls-49{fill:url(#linear-gradient-44);}.cls-50{fill:url(#linear-gradient-45);}.cls-51{opacity:0.78;}.cls-52{fill:url(#linear-gradient-46);}.cls-53{fill:url(#linear-gradient-47);}.cls-54{fill:url(#linear-gradient-48);}.cls-55{fill:url(#linear-gradient-49);}</style><linearGradient id="linear-gradient" x1="959.56" y1="1978.08" x2="994" y2="1978.08" gradientTransform="translate(-634.87 -404.82) rotate(-26.53)" gradientUnits="userSpaceOnUse"><stop offset="0" stop-color="#b37cff"/><stop offset="1" stop-color="#f895e7"/></linearGradient><linearGradient id="linear-gradient-2" x1="107.39" y1="2182.71" x2="905.77" y2="2182.71" gradientTransform="translate(-217.56 -482.6) rotate(-17.37)" xlink:href="#linear-gradient"/><linearGradient id="linear-gradient-3" x1="27.89" y1="2556.5" x2="77.45" y2="2556.5" xlink:href="#linear-gradient"/><linearGradient id="linear-gradient-4" x1="1290.24" y1="-512.7" x2="501.13" y2="1696.83" gradientUnits="userSpaceOnUse"><stop offset="0" stop-color="#c10000"/><stop offset="1" stop-color="#860000"/></linearGradient><linearGradient id="linear-gradient-5" x1="1458.79" y1="1057.74" x2="1481.56" y2="1057.74" gradientTransform="translate(-499.62 -270.79) rotate(-20.1)" xlink:href="#linear-gradient"/><linearGradient id="linear-gradient-6" x1="703.07" y1="1048.24" x2="1230.88" y2="1048.24" gradientTransform="translate(-76.92 -301.46) rotate(-10.95)" xlink:href="#linear-gradient"/><linearGradient id="linear-gradient-7" x1="842.89" y1="1440.1" x2="875.65" y2="1440.1" gradientTransform="translate(-499.62 -270.79) rotate(-20.1)" xlink:href="#linear-gradient"/><linearGradient id="linear-gradient-8" x1="1244.89" y1="-528.89" x2="455.78" y2="1680.63" xlink:href="#linear-gradient-4"/><linearGradient id="linear-gradient-9" x1="2329.64" y1="2672.26" x2="3924.77" y2="1198.5" gradientUnits="userSpaceOnUse"><stop offset="0" stop-color="#2b3582"/><stop offset="1" stop-color="#150e42"/></linearGradient><linearGradient id="linear-gradient-10" x1="2322.66" y1="1446.04" x2="1949.89" y2="2902.46" gradientUnits="userSpaceOnUse"><stop offset="0" stop-color="#53d8ff"/><stop offset="1" stop-color="#3840f7"/></linearGradient><linearGradient id="linear-gradient-11" x1="2311.15" y1="1443.09" x2="1938.38" y2="2899.52" xlink:href="#linear-gradient-10"/><linearGradient id="linear-gradient-12" x1="2278.59" y1="1434.76" x2="1905.81" y2="2891.18" xlink:href="#linear-gradient-10"/><linearGradient id="linear-gradient-13" x1="2271.13" y1="1432.85" x2="1898.36" y2="2889.27" xlink:href="#linear-gradient-10"/><linearGradient id="linear-gradient-14" x1="1729.08" y1="780.92" x2="2664.99" y2="3245.2" gradientUnits="userSpaceOnUse"><stop offset="0" stop-color="#fdf53f"/><stop offset="1" stop-color="#d93c65"/></linearGradient><linearGradient id="linear-gradient-15" x1="2079.33" y1="1881.5" x2="2161.81" y2="4502.19" xlink:href="#linear-gradient-14"/><linearGradient id="linear-gradient-16" x1="1624.97" y1="1895.81" x2="1707.45" y2="4516.5" xlink:href="#linear-gradient-14"/><linearGradient id="linear-gradient-17" x1="1154.47" y1="3417.7" x2="302.74" y2="4344.15" gradientUnits="userSpaceOnUse"><stop offset="0" stop-color="#cb236d"/><stop offset="1" stop-color="#4c246d"/></linearGradient><linearGradient id="linear-gradient-18" x1="878.01" y1="3486.51" x2="953.67" y2="3486.51" gradientUnits="userSpaceOnUse"><stop offset="0" stop-color="#c4421b"/><stop offset="1" stop-color="#5c0e16"/></linearGradient><linearGradient id="linear-gradient-19" x1="698.62" y1="2908.03" x2="948.77" y2="2908.03" xlink:href="#linear-gradient-9"/><linearGradient id="linear-gradient-20" x1="963.4" y1="3242.04" x2="111.67" y2="4168.49" xlink:href="#linear-gradient-17"/><linearGradient id="linear-gradient-21" x1="605.35" y1="3482.63" x2="670.68" y2="3482.63" xlink:href="#linear-gradient-18"/><linearGradient id="linear-gradient-22" x1="534.95" y1="2899.85" x2="890.08" y2="2899.85" xlink:href="#linear-gradient-9"/><linearGradient id="linear-gradient-23" x1="1053.91" y1="1106.33" x2="781.37" y2="2272.57" xlink:href="#linear-gradient-10"/><linearGradient id="linear-gradient-24" x1="1189.33" y1="1459" x2="1507.5" y2="1459" xlink:href="#linear-gradient-18"/><linearGradient id="linear-gradient-25" x1="1637.77" y1="911.06" x2="1262.76" y2="1508.97" xlink:href="#linear-gradient-18"/><linearGradient id="linear-gradient-26" x1="1553.9" y1="1076.78" x2="1250.72" y2="1394.75" xlink:href="#linear-gradient-18"/><linearGradient id="linear-gradient-27" x1="696.97" y1="1022.91" x2="424.43" y2="2189.16" xlink:href="#linear-gradient-10"/><linearGradient id="linear-gradient-28" x1="343.58" y1="2060.25" x2="832.7" y2="2060.25" xlink:href="#linear-gradient-18"/><linearGradient id="linear-gradient-29" x1="979.74" y1="1713.71" x2="1247.59" y2="2829.73" xlink:href="#linear-gradient-9"/><linearGradient id="linear-gradient-30" x1="953.45" y1="1881.12" x2="744.29" y2="2157.89" xlink:href="#linear-gradient-18"/><linearGradient id="linear-gradient-31" x1="719.16" y1="1537.35" x2="912.54" y2="1537.35" xlink:href="#linear-gradient-18"/><linearGradient id="linear-gradient-32" x1="-2296.99" y1="-3222.99" x2="-2369.26" y2="-3461.34" gradientTransform="matrix(0.75, -0.67, 0.67, 0.75, 4818.28, 2289.1)" xlink:href="#linear-gradient-18"/><linearGradient id="linear-gradient-33" x1="-4651.28" y1="-1536.45" x2="-4590.83" y2="-1191.66" gradientTransform="matrix(0.75, -0.67, 0.67, 0.75, 5126.34, -803.17)" xlink:href="#linear-gradient-9"/><linearGradient id="linear-gradient-34" x1="-2370.86" y1="-3224.1" x2="-2435.88" y2="-3438.55" gradientTransform="matrix(0.75, -0.67, 0.67, 0.75, 4818.28, 2289.1)" xlink:href="#linear-gradient-18"/><linearGradient id="linear-gradient-35" x1="2715.7" y1="4059.94" x2="2693.02" y2="1966.08" xlink:href="#linear-gradient-4"/><linearGradient id="linear-gradient-36" x1="2358.24" y1="2559.93" x2="2348.16" y2="2315.52" xlink:href="#linear-gradient-4"/><linearGradient id="linear-gradient-37" x1="2345.48" y1="2192.98" x2="2395.87" y2="2893.45" xlink:href="#linear-gradient-4"/><linearGradient id="linear-gradient-38" x1="3039.16" y1="2531.85" x2="3029.09" y2="2287.44" xlink:href="#linear-gradient-4"/><linearGradient id="linear-gradient-39" x1="3024.57" y1="2144.12" x2="3074.97" y2="2844.59" xlink:href="#linear-gradient-4"/><linearGradient id="linear-gradient-40" x1="2744.86" y1="1803.02" x2="2676.83" y2="2301.91" xlink:href="#linear-gradient-4"/><linearGradient id="linear-gradient-41" x1="1802.5" y1="2785.32" x2="3598.7" y2="2785.32" xlink:href="#linear-gradient-4"/><linearGradient id="linear-gradient-42" x1="2783.48" y1="2478.88" x2="2685.22" y2="3257.46" xlink:href="#linear-gradient-4"/><linearGradient id="linear-gradient-43" x1="247.76" y1="612.15" x2="233.18" y2="597.57" gradientUnits="userSpaceOnUse"><stop offset="0" stop-color="#c10000"/><stop offset="1" stop-color="#590000"/></linearGradient><linearGradient id="linear-gradient-44" x1="4094.01" y1="1266.63" x2="4400.08" y2="911.37" gradientTransform="translate(705.91 -2802.82) rotate(43.21)" xlink:href="#linear-gradient-14"/><linearGradient id="linear-gradient-45" x1="4573.04" y1="652.25" x2="3667.97" y2="2019.55" gradientTransform="translate(705.91 -2802.82) rotate(43.21)" xlink:href="#linear-gradient-14"/><linearGradient id="linear-gradient-46" x1="4130.6" y1="1649.99" x2="4483.31" y2="1240.6" gradientTransform="matrix(0.68, 0.73, -0.73, 0.68, 1190.08, -2640.29)" xlink:href="#linear-gradient-14"/><linearGradient id="linear-gradient-47" x1="4682.61" y1="942.01" x2="3639.65" y2="2517.61" gradientTransform="matrix(0.68, 0.73, -0.73, 0.68, 1190.08, -2640.29)" xlink:href="#linear-gradient-14"/><linearGradient id="linear-gradient-48" x1="3974.75" y1="2259.93" x2="4283.52" y2="1901.54" gradientTransform="translate(1508.4 -2344.39) rotate(45.62)" xlink:href="#linear-gradient-14"/><linearGradient id="linear-gradient-49" x1="4457.99" y1="1640.15" x2="3544.96" y2="3019.47" gradientTransform="translate(1508.4 -2344.39) rotate(45.62)" xlink:href="#linear-gradient-14"/></defs><title>profitble-projects</title><g id="Illustration"><g class="cls-1"><path class="cls-2" d="M165.21,1610.16a15,15,0,0,1-19.41-5.39c-9.15-14.35-17.81-29.31-25.74-44.47a15.07,15.07,0,0,1,6.36-20.34l.26-.13a15.07,15.07,0,0,1,20.08,6.5c7.53,14.4,15.76,28.61,24.45,42.25a15.06,15.06,0,0,1-4.61,20.8A13.65,13.65,0,0,1,165.21,1610.16Zm-57.75-117.87a15.12,15.12,0,0,1-20.93-8.37c-5.78-16.09-10.93-32.58-15.31-49a15.07,15.07,0,0,1,29.12-7.76c4.16,15.63,9,31.29,14.55,46.58A15.06,15.06,0,0,1,107.46,1492.29ZM77.09,1364.63a14.9,14.9,0,0,1-4.91,1.47A15.08,15.08,0,0,1,55.4,1353c-2.06-16.93-3.4-34.16-4-51.22a15.06,15.06,0,1,1,30.11-1c.57,16.2,1.84,32.56,3.8,48.64A15.07,15.07,0,0,1,77.09,1364.63ZM76,1233.36a14.89,14.89,0,0,1-8.29,1.49,15.06,15.06,0,0,1-13.41-16.55c1.79-17,4.33-34.08,7.55-50.84a15.07,15.07,0,0,1,29.6,5.7c-3.07,15.91-5.48,32.16-7.18,48.29A15,15,0,0,1,76,1233.36Zm28.24-128.21a15.07,15.07,0,0,1-21-18.34c5.5-16.12,11.76-32.23,18.62-47.87A15.07,15.07,0,1,1,129.5,1051c-6.52,14.87-12.47,30.18-17.7,45.5A15,15,0,0,1,104.27,1105.15Zm55.9-118.76A15.07,15.07,0,0,1,140.59,965c8.94-14.52,18.61-28.85,28.75-42.57a15.07,15.07,0,0,1,24.23,17.91c-9.63,13-18.82,26.65-27.31,40.45A14.94,14.94,0,0,1,160.17,986.39Zm478-278.69a15.05,15.05,0,0,1-6.18,1.56c-16.17.59-32.54,1.9-48.65,3.89a15.07,15.07,0,0,1-3.69-29.91c17-2.09,34.21-3.47,51.24-4.09a15.07,15.07,0,0,1,7.28,28.55ZM240.94,883a15.07,15.07,0,0,1-17.49-24c12-12.18,24.56-24,37.51-35.09a15.07,15.07,0,0,1,19.62,22.87c-12.29,10.55-24.27,21.76-35.61,33.32A15.15,15.15,0,0,1,240.94,883Zm267.4-155.8a14.78,14.78,0,0,1-2.83,1.08c-15.64,4.2-31.31,9.13-46.57,14.66a15.07,15.07,0,0,1-10.26-28.34c16.06-5.81,32.55-11,49-15.42a15.06,15.06,0,0,1,10.65,28ZM342.78,800.32a15.07,15.07,0,0,1-14.84-26.18c14.35-9.19,29.29-17.88,44.41-25.82l.28-.15A15.07,15.07,0,0,1,386.37,775c-14.36,7.55-28.55,15.8-42.19,24.53C343.72,799.81,343.25,800.08,342.78,800.32Z" transform="translate(-51.4 -15.77)"/><path class="cls-2" d="M743.78,713.42a15,15,0,0,1-8.88,1.42c-7.69-1.12-15.53-2.1-23.3-2.91a15.07,15.07,0,1,1,3.13-30c8.17.85,16.42,1.88,24.51,3.06a15.07,15.07,0,0,1,4.54,28.4Z" transform="translate(-51.4 -15.77)"/></g><g class="cls-3"><path class="cls-4" d="M1136.4,951.88a15.07,15.07,0,0,1-19-4.71c-4.52-6.31-9.26-12.64-14.07-18.79a15.07,15.07,0,0,1,23.75-18.56c5.07,6.49,10.05,13.15,14.82,19.8a15.07,15.07,0,0,1-3.47,21A14.72,14.72,0,0,1,1136.4,951.88Z" transform="translate(-51.4 -15.77)"/><path class="cls-5" d="M922.33,1818.89q-9.32,4.65-18.84,9a15.07,15.07,0,0,1-12.55-27.41c14.67-6.71,29-14,42.83-21.77A15.07,15.07,0,0,1,948.54,1805C940,1809.8,931.18,1814.47,922.33,1818.89ZM829.07,1856a14.34,14.34,0,0,1-2.39,1c-16.09,4.87-32.56,9.1-49,12.6a15.06,15.06,0,1,1-6.27-29.47c15.58-3.32,31.23-7.35,46.52-12A15.06,15.06,0,0,1,829.07,1856Zm185.73-94.54A15.07,15.07,0,0,1,999,1736c12.68-9.62,25.12-19.91,37-30.61a15.07,15.07,0,0,1,20.18,22.39c-12.49,11.25-25.59,22.1-39,32.23A15.33,15.33,0,0,1,1014.8,1761.45ZM702,1879.55a15.14,15.14,0,0,1-5.63,1.54c-16.76,1.21-33.76,1.72-50.55,1.51a15.07,15.07,0,0,1,.37-30.13c15.94.2,32.09-.28,48-1.44a15.07,15.07,0,0,1,7.81,28.52Zm406.33-207a15.07,15.07,0,0,1-18.26-23.19c10.25-12.17,20.12-25,29.35-38a15.06,15.06,0,1,1,24.59,17.4c-9.7,13.73-20.1,27.18-30.89,40A15.08,15.08,0,0,1,1108.36,1672.51Zm71.79-107.32a15.07,15.07,0,0,1-20.11-20.43c7.36-14.16,14.21-28.8,20.36-43.5a15.07,15.07,0,0,1,27.81,11.63c-6.48,15.47-13.69,30.87-21.43,45.77A15.09,15.09,0,0,1,1180.15,1565.19Zm46.68-120.42a15.07,15.07,0,0,1-21.28-17.36c4.1-15.44,7.61-31.21,10.4-46.89a15.07,15.07,0,0,1,29.67,5.29c-2.95,16.5-6.63,33.11-10.95,49.35A15,15,0,0,1,1226.83,1444.77Zm19.31-127.72a15.08,15.08,0,0,1-21.77-14.09c.63-16,.59-32.1-.13-48a15.07,15.07,0,1,1,30.1-1.36c.76,16.77.8,33.78.14,50.57A15.08,15.08,0,0,1,1246.14,1317.05Zm-9.21-128.9a14.71,14.71,0,0,1-4,1.33,15.05,15.05,0,0,1-17.55-12.07c-2.89-15.66-6.49-31.4-10.7-46.8a15.06,15.06,0,1,1,29.06-7.94c4.44,16.2,8.23,32.77,11.27,49.26A15.07,15.07,0,0,1,1236.93,1188.15Zm-37.27-123.64c-.28.14-.56.27-.85.39a15.06,15.06,0,0,1-19.76-8c-4.59-10.81-9.58-21.6-14.81-32.09q-2.85-5.7-5.8-11.3a15.05,15.05,0,0,1,6.31-20.35,14.9,14.9,0,0,1,20.35,6.3c2.07,3.94,4.1,7.89,6.1,11.89,5.5,11,10.75,22.39,15.58,33.76A15.06,15.06,0,0,1,1199.66,1064.51Z" transform="translate(-51.4 -15.77)"/><path class="cls-6" d="M572.57,1874.49a15,15,0,0,1-9,1.42c-8.07-1.22-16.26-2.63-24.35-4.19a15.07,15.07,0,1,1,5.71-29.59c7.69,1.49,15.47,2.82,23.13,4a15.06,15.06,0,0,1,4.47,28.38Z" transform="translate(-51.4 -15.77)"/></g><path class="cls-7" d="M512.71,1709.05a7.06,7.06,0,0,0,8-1.59l58.76-62.4a373.27,373.27,0,0,0,120.9,3.75l54.8,65.83a7,7,0,0,0,7.9,2.08l96.15-36.41a7,7,0,0,0,4.54-6.8l-2.57-85.61A373.31,373.31,0,0,0,949.3,1505l85.35,7.81a7,7,0,0,0,7.06-4.12L1084,1415a7.06,7.06,0,0,0-1.59-8l-62.4-58.76a373.32,373.32,0,0,0,3.75-120.91l65.83-54.79a7,7,0,0,0,2.08-7.91l-36.41-96.14a7,7,0,0,0-6.8-4.55l-85.61,2.57a373.26,373.26,0,0,0-82.9-88.08L887.71,893a7,7,0,0,0-4.12-7.06l-93.73-42.23a7,7,0,0,0-8,1.59l-58.76,62.4A373.32,373.32,0,0,0,602.17,904l-54.79-65.84a7.05,7.05,0,0,0-7.91-2.08l-96.14,36.42a7,7,0,0,0-4.55,6.79l2.57,85.62a373.26,373.26,0,0,0-88.08,82.9L267.92,1040a7,7,0,0,0-7.07,4.12l-42.23,93.73a7,7,0,0,0,1.59,8l62.4,58.76a373.27,373.27,0,0,0-3.75,120.9L213,1380.29a7,7,0,0,0-2.08,7.9l36.42,96.15a7,7,0,0,0,6.79,4.54l85.62-2.57a373.31,373.31,0,0,0,82.9,88.09l-7.81,85.35a7,7,0,0,0,4.12,7.06Z" transform="translate(-51.4 -15.77)"/><path class="cls-8" d="M697.38,1368.88a103.39,103.39,0,1,1,13-7.76A103.5,103.5,0,0,1,697.38,1368.88ZM616,1205.41a79.27,79.27,0,1,0,49.12-7A79.19,79.19,0,0,0,616,1205.41Z" transform="translate(-51.4 -15.77)"/><path class="cls-8" d="M765.94,1501.48A260.93,260.93,0,0,1,742,1512h0c-2.59,1-5.18,1.91-7.8,2.81a254.67,254.67,0,0,1-39.42,10.08l-.55.1-1.55.25c-1,.17-2,.32-3,.47a6,6,0,0,1-6.3-3.26,5.91,5.91,0,0,1-.56-1.8,6,6,0,0,1,5.06-6.85,243.65,243.65,0,0,0,49.85-13.08c80.22-30.36,134.92-99,151.24-177.36a240.65,240.65,0,0,0-10.61-134.72,247.58,247.58,0,0,0-10-22.82A242.11,242.11,0,0,0,566.28,1048c-124.86,47.3-187.89,187.28-140.62,312.08a244.49,244.49,0,0,0,9.86,22.53,241.37,241.37,0,0,0,66.24,81.55,6.1,6.1,0,0,1,1.66,2,6,6,0,0,1-9.14,7.42A253.54,253.54,0,0,1,424.74,1388a257.76,257.76,0,0,1-10.35-23.64c-49.63-131,16.64-278,147.62-327.64a254.19,254.19,0,0,1,317.15,123.67,259,259,0,0,1,10.48,24,254.16,254.16,0,0,1-123.7,317.16Z" transform="translate(-51.4 -15.77)"/><path class="cls-2" d="M565.29,594.07a10,10,0,0,1-12.36-5C548,579,543.4,568.52,539.31,558A10,10,0,0,1,545,545.08l.18-.06a10,10,0,0,1,12.71,5.75c3.88,10,8.23,20,12.93,29.56a10,10,0,0,1-4.57,13.33A8.93,8.93,0,0,1,565.29,594.07Zm-29.22-81.71a8.81,8.81,0,0,1-1.14.34,10,10,0,0,1-12-7.39c-2.61-11-4.77-22.21-6.43-33.33a10,10,0,1,1,19.7-2.94c1.58,10.57,3.63,21.22,6.11,31.67A10,10,0,0,1,536.07,512.36Zm-10.51-86.11a10.19,10.19,0,0,1-3.33.61A10,10,0,0,1,512.18,417c-.1-11.28.29-22.7,1.16-34a10,10,0,1,1,19.86,1.54c-.82,10.69-1.2,21.53-1.1,32.24A10,10,0,0,1,525.56,426.25Zm9-86.32a10,10,0,0,1-13.14-11.5c2.43-11,5.36-22.06,8.72-32.83a10,10,0,0,1,19,5.93c-3.19,10.23-6,20.72-8.29,31.19A9.94,9.94,0,0,1,534.58,339.93Zm28-82.13a10,10,0,0,1-12.43-13.6C555,234,560.29,223.89,566,214.12a10,10,0,0,1,17.23,10c-5.38,9.29-10.42,18.91-15,28.58A9.93,9.93,0,0,1,562.62,257.8Zm45.51-73.89a10,10,0,0,1-11.29-15.48c6.95-8.88,14.36-17.58,22-25.84a10,10,0,1,1,14.6,13.56c-7.3,7.85-14.34,16.11-20.94,24.55A9.87,9.87,0,0,1,608.13,183.91ZM942.74,36.19a9.83,9.83,0,0,1-4.17.58c-10.67-.81-21.52-1.17-32.25-1.05a10,10,0,0,1-.21-19.92c11.3-.12,22.73.25,34,1.1a10,10,0,0,1,2.67,19.29ZM668.83,122a10,10,0,0,1-9.71-17.08C667.87,97.79,677,91,686.36,84.63a10,10,0,0,1,11.2,16.48c-8.86,6-17.56,12.5-25.86,19.25A10.05,10.05,0,0,1,668.83,122ZM856,39.43a9.69,9.69,0,0,1-1.94.5c-10.59,1.6-21.25,3.68-31.68,6.18a10,10,0,0,1-4.64-19.38c11-2.62,22.19-4.81,33.34-6.5A10,10,0,0,1,856,39.43ZM741.85,75.19A10,10,0,0,1,734,56.89c10.11-5,20.57-9.58,31.09-13.67l.2-.08a10,10,0,0,1,7,18.63c-10,3.9-19.92,8.27-29.52,13C742.51,74.92,742.18,75.07,741.85,75.19Z" transform="translate(-51.4 -15.77)"/><path class="cls-2" d="M1011.72,47.77a9.9,9.9,0,0,1-5.94.27c-5-1.3-10-2.52-15.09-3.63A10,10,0,1,1,995,25c5.31,1.17,10.65,2.45,15.88,3.82a10,10,0,0,1,.88,19Z" transform="translate(-51.4 -15.77)"/><g class="cls-3"><path class="cls-9" d="M1252,233.47A10,10,0,0,1,1239.9,229c-2.5-4.49-5.15-9-7.85-13.39a10,10,0,0,1,17-10.43c2.85,4.63,5.63,9.38,8.27,14.1a10,10,0,0,1-3.83,13.55A9.4,9.4,0,0,1,1252,233.47Z" transform="translate(-51.4 -15.77)"/><path class="cls-10" d="M1047.23,787.21q-6.46,2.35-13,4.52A10,10,0,1,1,1028,772.8c10.13-3.32,20.1-7,29.75-11.13a10,10,0,1,1,7.75,18.35C1059.51,782.54,1053.37,785,1047.23,787.21Zm-64,17.47a11,11,0,0,1-1.64.45c-10.93,2-22.07,3.57-33.1,4.65A10,10,0,1,1,946.54,790c10.48-1,21.06-2.52,31.44-4.42a10,10,0,0,1,5.24,19.14Zm129-48.37a10,10,0,0,1-8.5-17.91c9-5.39,18-11.23,26.56-17.38a10,10,0,0,1,11.6,16.2c-9,6.47-18.45,12.63-28,18.3A10.35,10.35,0,0,1,1112.22,756.31ZM898,810.76a9.91,9.91,0,0,1-3.82.59c-11.1-.44-22.31-1.36-33.32-2.74a10,10,0,0,1,2.48-19.77c10.45,1.31,21.1,2.19,31.63,2.61a10,10,0,0,1,3,19.31Zm282.25-106A10,10,0,0,1,1170,688.22c7.63-7.23,15.06-14.9,22.09-22.78A10,10,0,1,1,1207,678.69c-7.39,8.3-15.22,16.37-23.25,24A10.15,10.15,0,0,1,1180.27,704.81Zm55.1-65.19a10,10,0,0,1-11.7-14.91c5.89-8.76,11.47-17.87,16.6-27.07a10,10,0,1,1,17.4,9.7c-5.4,9.68-11.27,19.26-17.46,28.48A10,10,0,0,1,1235.37,639.62ZM1275,564a10,10,0,0,1-12.7-13c3.84-9.83,7.31-19.94,10.3-30a10,10,0,0,1,19.1,5.67c-3.15,10.62-6.8,21.26-10.84,31.61A10,10,0,0,1,1275,564Zm22.13-82.48a10,10,0,0,1-13.26-10.86c1.6-10.43,2.76-21.05,3.47-31.56a10,10,0,0,1,19.88,1.34c-.75,11.07-2,22.25-3.66,33.23A10,10,0,0,1,1297.08,481.48Zm3.49-85.35a10.21,10.21,0,0,1-2.73.58,10,10,0,0,1-10.63-9.24c-.75-10.5-2-21.1-3.57-31.53a10,10,0,1,1,19.68-3.07c1.71,11,3,22.14,3.76,33.2A10,10,0,0,1,1300.57,396.13Zm-15.34-84-.58.19a10,10,0,0,1-12.4-6.7c-2.22-7.44-4.69-14.9-7.36-22.18q-1.44-3.94-3-7.85a10,10,0,0,1,5.65-12.9,9.86,9.86,0,0,1,12.91,5.64c1.07,2.74,2.11,5.49,3.12,8.27,2.8,7.65,5.41,15.5,7.74,23.33A10,10,0,0,1,1285.23,312.15Z" transform="translate(-51.4 -15.77)"/><path class="cls-11" d="M813.34,797.86a9.91,9.91,0,0,1-6,.27c-5.21-1.4-10.49-2.93-15.69-4.56a10,10,0,0,1,6-19c4.94,1.54,9.95,3,14.9,4.32a10,10,0,0,1,.83,19Z" transform="translate(-51.4 -15.77)"/></g><path class="cls-12" d="M786.26,684.74a4.63,4.63,0,0,0,5.38-.45l43.22-36.64A247.32,247.32,0,0,0,914,659.06l31.13,47.3a4.65,4.65,0,0,0,5,1.95L1016,691.5a4.65,4.65,0,0,0,3.49-4.13l4.65-56.43a247,247,0,0,0,64-48l55.49,11.45a4.66,4.66,0,0,0,4.95-2.18l34.68-58.45a4.66,4.66,0,0,0-.46-5.39l-36.64-43.22a246.68,246.68,0,0,0,11.41-79.15l47.3-31.12a4.67,4.67,0,0,0,2-5L1190.05,304a4.66,4.66,0,0,0-4.13-3.49l-56.44-4.64a246.67,246.67,0,0,0-47.94-64L1093,176.4a4.65,4.65,0,0,0-2.19-4.94l-58.45-34.68a4.64,4.64,0,0,0-5.39.45l-43.21,36.64a246.76,246.76,0,0,0-79.15-11.41l-31.13-47.3a4.66,4.66,0,0,0-5-2L802.57,130a4.65,4.65,0,0,0-3.48,4.13l-4.65,56.43a246.49,246.49,0,0,0-64,47.95l-55.5-11.45a4.65,4.65,0,0,0-4.94,2.18l-34.68,58.45a4.67,4.67,0,0,0,.45,5.39l36.65,43.22A246.68,246.68,0,0,0,661,415.47L613.7,446.59a4.66,4.66,0,0,0-2,5l16.81,65.86a4.67,4.67,0,0,0,4.13,3.49l56.43,4.64a246.71,246.71,0,0,0,48,64l-11.45,55.5a4.66,4.66,0,0,0,2.18,4.94Z" transform="translate(-51.4 -15.77)"/><path class="cls-8" d="M932.74,474.94a68.34,68.34,0,1,1,9.15-4.13A71,71,0,0,1,932.74,474.94ZM891.4,361.52a54,54,0,0,0-7.08,3.2,52.14,52.14,0,1,0,7.08-3.2Z" transform="translate(-51.4 -15.77)"/><path class="cls-8" d="M968,567.12q-8.06,2.94-16.49,5.11h0c-1.77.45-3.54.87-5.33,1.26a168.08,168.08,0,0,1-26.64,3.71l-.37,0-1,.06-2,.08a4,4,0,0,1-3.89-2.6,3.9,3.9,0,0,1-.24-1.23,4,4,0,0,1,3.83-4.13A160.12,160.12,0,0,0,1065,369.89q-2.06-8-4.87-15.74a160.06,160.06,0,0,0-189.75-99.73C784.84,276.25,733.07,363.55,754.89,449a161.37,161.37,0,0,0,4.81,15.53A159.67,159.67,0,0,0,797.18,523a3.82,3.82,0,0,1,.94,1.46,4,4,0,0,1-6.55,4.2A168.15,168.15,0,0,1,747.17,451c-22.91-89.76,31.5-181.41,121.22-204.32a168,168,0,0,1,199.2,104.71,172.58,172.58,0,0,1,5.11,16.51A168,168,0,0,1,968,567.12Z" transform="translate(-51.4 -15.77)"/><path class="cls-13" d="M2290.2,2959.92c-1.5-18.57-20.46-34.63-52.57-47.52,34.89-19.24,54.2-39.86,52.57-60.08-4.94-61.21-198.76-95.52-432.92-76.64s-420,83.8-415,145c1.5,18.57,20.46,34.64,52.57,47.52-34.89,19.24-54.2,39.86-52.57,60.09,1.5,18.56,20.46,34.63,52.57,47.51-34.89,19.24-54.2,39.87-52.57,60.09,1.5,18.57,20.46,34.64,52.57,47.52-34.89,19.24-54.2,39.86-52.57,60.09,2.19,27.07,41.36,48.86,104.59,63.13a542.11,542.11,0,0,0,1.6,66.14c9.16,112.78,136,201.2,303.8,201.2s313-120.56,314.65-233.7a571.66,571.66,0,0,0-3.28-73.82c80.28-26.81,129.17-59.56,126.61-91.32-1.5-18.56-20.46-34.63-52.57-47.52,34.89-19.24,54.2-39.86,52.57-60.09-1.5-18.56-20.46-34.63-52.57-47.51C2272.52,3000.77,2291.83,2980.15,2290.2,2959.92Z" transform="translate(-51.4 -15.77)"/><path class="cls-14" d="M1748.93,3331c-69.54,0-133.18-5.11-185.75-15.18a5.62,5.62,0,1,1,2.11-11c82.27,15.75,192.15,19.22,309.4,9.77,96-7.74,185.68-23.21,259.49-44.76a5.63,5.63,0,0,1,3.15,10.8c-74.53,21.75-165,37.37-261.73,45.17C1832.05,3329.25,1789.48,3331,1748.93,3331Z" transform="translate(-51.4 -15.77)"/><path class="cls-15" d="M1750.1,3223.29c-90.36,0-171.1-8.5-228.06-24.72a5.62,5.62,0,0,1,3.08-10.82c81.16,23.11,211.84,30.28,349.57,19.17,136.25-11,263.32-38.63,339.91-74a5.62,5.62,0,1,1,4.71,10.21c-77.73,35.85-206.22,63.87-343.71,75C1832.7,3221.59,1790.44,3223.29,1750.1,3223.29Z" transform="translate(-51.4 -15.77)"/><path class="cls-16" d="M1748.94,3115.76c-97.56,0-182.93-10-240.39-28.93a5.62,5.62,0,1,1,3.52-10.68c80,26.37,215.52,35,362.62,23.17,136.24-11,263.31-38.63,339.91-74a5.62,5.62,0,1,1,4.71,10.21c-77.74,35.85-206.23,63.88-343.71,75C1832,3114,1789.44,3115.76,1748.94,3115.76Z" transform="translate(-51.4 -15.77)"/><path class="cls-17" d="M1749.69,3008.11c-77.38,0-147.77-6.26-202.49-18.42a5.62,5.62,0,0,1,2.44-11c82.28,18.29,200.76,23,325,13,135-10.88,261.45-38.23,338.17-73.16a5.63,5.63,0,0,1,4.66,10.24c-77.85,35.44-205.67,63.15-341.92,74.13C1832.55,3006.39,1790.16,3008.11,1749.69,3008.11Z" transform="translate(-51.4 -15.77)"/><path class="cls-18" d="M1285.07,2416.75a791.93,791.93,0,0,0-141.8-276.86c-139.4-175.69-366.81-533-394.81-1020.62C707.75,410,1336.81,54.87,1910.84,103.08S3051.29,578.69,2989.28,1238.55c-38.15,406-265.41,714-434.6,890.84C2447.24,2241.7,2370.6,2379.26,2329.11,2529c-50.78,183.34-171.62,411.8-458.84,425.73C1498.61,2972.79,1344.25,2626.37,1285.07,2416.75Z" transform="translate(-51.4 -15.77)"/><path class="cls-19" d="M1965.21,2813.32,2166.06,1507c4.15-27,17.43-45.11,29.67-40.48s18.78,30.27,14.63,57.26c-.11.71-.26,1.6-.38,2.31L1981.19,2820.27c-1.72,9.73-6.66,15.88-11,13.73S1963.77,2822.75,1965.21,2813.32Z" transform="translate(-51.4 -15.77)"/><path class="cls-20" d="M1756.71,2823.7,1555.86,1517.34c-4.15-27-17.43-45.11-29.66-40.48s-18.79,30.26-14.64,57.25c.11.72.25,1.61.38,2.31l228.79,1294.23c1.72,9.73,6.66,15.87,11,13.72S1758.16,2833.12,1756.71,2823.7Z" transform="translate(-51.4 -15.77)"/><path class="cls-21" d="M2164.62,1394.8c-5.1-8.2-16.91-11.27-26.37-6.84l-111.84,52.25-38.82-110.61a23.73,23.73,0,0,0-13.6-13.69c-12.86-5.3-28.25-.56-34.37,10.6l-.19.35-92,167.7-85.35-238.72-.14-.4a27.26,27.26,0,0,0-12.92-14.57c-14.31-7.81-33.21-4.08-42.23,8.32l-128.58,177c-5.23,7.26-3.43,17,4.53,22.34,8.5,5.73,20.74,4.4,27.35-3l113.21-126.29,101.93,227.1.08.17a18,18,0,0,0,9,8.81c9.56,4.48,21.51,1.38,26.67-6.91l98.37-157.85,37,79.84.32.71a16.59,16.59,0,0,0,.92,1.7c5.1,8.19,16.89,11.26,26.34,6.84l132.76-62C2166.18,1413.24,2169.72,1403,2164.62,1394.8Z" transform="translate(-51.4 -15.77)"/><path class="cls-21" d="M2559.06,1942.06a6.57,6.57,0,0,1-5.28-10.49,1499.59,1499.59,0,0,0,94.37-143.35,6.58,6.58,0,0,1,11.39,6.58,1514.54,1514.54,0,0,1-95.2,144.61A6.54,6.54,0,0,1,2559.06,1942.06Z" transform="translate(-51.4 -15.77)"/><path class="cls-21" d="M2724.3,1658.5a6.59,6.59,0,0,1-6-9.2c112.56-259.23,114-495.11,95.33-647.34-20.21-165.08-67.69-270.18-68.17-271.22a6.58,6.58,0,0,1,12-5.48c.48,1.06,48.69,107.62,69.2,274.57,18.92,154,17.57,392.54-96.26,654.71A6.59,6.59,0,0,1,2724.3,1658.5Z" transform="translate(-51.4 -15.77)"/><path class="cls-22" d="M885.24,3486.72s-8.82,49.93-13.15,99.37A34.06,34.06,0,0,0,904.67,3623c65.83,2.75,206.64,8.08,257.16,5.82a11.07,11.07,0,0,0,9.75-15.18,24.75,24.75,0,0,0-12.68-13.36l-232.59-106.9Z" transform="translate(-51.4 -15.77)"/><path class="cls-23" d="M878,3457.38l7.09,59.73s40.74,19,68.57-2.39l-16.88-66.57Z" transform="translate(-51.4 -15.77)"/><path class="cls-24" d="M883.34,2334.45c-3.06,15.59-16.43,778.37,65.1,1120.2a11.6,11.6,0,0,1-6.8,13.5c-12.51,5.11-37,12.5-66.41,13.49a20,20,0,0,1-19.82-14.34C832.1,3388,720.42,2990.63,705.85,2611c-16.28-424.15,0-14.44,0-14.44l9.55-262.19Z" transform="translate(-51.4 -15.77)"/><path class="cls-25" d="M617.69,3512.77s-14,25.21-27.64,92.2a20.78,20.78,0,0,0,18.29,24.88c21.73,2.14,55.19,4.89,82,4.7a20.71,20.71,0,0,0,20.51-23.11c-3-24.45-12.22-64.57-40.79-95.83Z" transform="translate(-51.4 -15.77)"/><path class="cls-26" d="M605.35,3435.94l16.56,90.33s16.38,12.18,48.77,3.35l-7.91-97.19Z" transform="translate(-51.4 -15.77)"/><path class="cls-27" d="M560.62,2357.85c-66.69,402.45,14.46,994.69,41.83,1110.6a18.09,18.09,0,0,0,14.6,13.73c12.22,2,32.33,3.68,52.16-2.08a16.58,16.58,0,0,0,11.91-15.26c3.67-93.71-2.94-669,59.2-896.39A51.63,51.63,0,0,1,760.24,2540l120.6-85.74,9.24-138.58Z" transform="translate(-51.4 -15.77)"/><path class="cls-28" d="M985.54,1595.29c-199.84-3.3-420.35,52.47-420.35,52.47-59.57,347.58-10.41,748.5-10.41,748.5C709.49,2436.83,884,2371.45,884,2371.45c25.72-145.28,145.7-554.15,145.7-554.15,97.64-12.12,173.41-45.83,239.65-83.07-50.52-58.57-69.68-127.56-80-171.61C1118.68,1584.58,1047.18,1596.31,985.54,1595.29Z" transform="translate(-51.4 -15.77)"/><path class="cls-29" d="M1506.83,1194.31c-19.64-23.71-44,0-44,0-29.41,124.22-115,319.08-273.45,368.31,10.35,44.05,29.51,113,80,171.61C1532.28,1586.41,1506.83,1194.31,1506.83,1194.31Z" transform="translate(-51.4 -15.77)"/><path class="cls-30" d="M1503.58,1200.73c3.42,5.93-17.65,20.79-37.1-2.26-3.25-12.39-22.73-64.24-17.52-76.07,27.74-63.05,89.76-148.12,89.76-148.12,15.89,10,8,25,8,25l-28.76,47.27c11,12.4,23.15,22.21,31.42,38.32a53.68,53.68,0,0,1,3.33,39.74c-3.94,13.28-9.48,30.65-15.28,44.56C1526.4,1195.48,1503.58,1200.73,1503.58,1200.73Z" transform="translate(-51.4 -15.77)"/><path class="cls-31" d="M1507.16,1075.44l-27.67,36.46-4.32,31.14,37.87,27s-2.45-59.35,2.41-73.39S1515,1077.48,1507.16,1075.44Z" transform="translate(-51.4 -15.77)"/><path class="cls-32" d="M641.84,1841.27l-76.65-193.51S378.53,1774.59,347.83,1935.4c35.27,2.6,99.45,11.77,162.27,43.49C523.91,1903,641.84,1841.27,641.84,1841.27Z" transform="translate(-51.4 -15.77)"/><path class="cls-33" d="M805,2023.35s-209.58,118.44-280.29,17.31c-14.69-21-18.19-41.87-14.58-61.77-62.82-31.72-127-40.89-162.27-43.49-9.25,48.48-4.36,100,24.13,152.15C495.82,2314.13,832.7,2075,832.7,2075Z" transform="translate(-51.4 -15.77)"/><path class="cls-34" d="M783.83,2159.06l108.28-378.13a22.9,22.9,0,0,1,19.39-16.43c25.52-2.92,80.32-8.93,142.62-14.2,75.63-6.4,162.3-11.7,221-9a22.87,22.87,0,0,1,19.49,33c-41.68,83.81-161,319.8-225.45,407a22.77,22.77,0,0,1-18.55,9.19l-245-2.28A22.88,22.88,0,0,1,783.83,2159.06Z" transform="translate(-51.4 -15.77)"/><path class="cls-35" d="M807.42,2076.69s-15.93-65.52-9.5-88.76,18.87-53.13,60.38-46.49,90.47,24.13,90.47,24.13-2.47,30.27-34,20.51l19.56,15.13s-2.79,24.24-29.44,11.29l18.19,20.08s-11.44,19.91-31,7.14S863,2084.58,807.42,2076.69Z" transform="translate(-51.4 -15.77)"/><path class="cls-36" d="M783.11,1433.05l-63.58,183.89a6.62,6.62,0,0,0,3,8c17.33,9.58,79.78,37.28,155-10.43A31.21,31.21,0,0,0,892,1592.2l20.59-159.15Z" transform="translate(-51.4 -15.77)"/><path class="cls-37" d="M921.47,1262.76s69.83,131.44,60.88,184.53-95.49,49.29-171.06,6.17l-52.8-141.93Z" transform="translate(-51.4 -15.77)"/><path class="cls-38" d="M814.63,1383.76a5.42,5.42,0,0,0,2.37-7.93c-5.6-8.55-16.09-26-19.43-41.25,0,0-12.55-8,31.95-18.69s110.86-27.18,124.81-65.06c13.6-36.93-22.13-129.81-79.14-55.8a5.42,5.42,0,0,1-8.58.06c-9.35-12.17-33.92-37.42-68-22.11-31.92,14.32-35.52,37.71-35.08,49.51a5.38,5.38,0,0,1-6.38,5.51c-16.14-3.08-54.87-5.72-73,34-14.89,32.72-5.21,51.25,3.6,60.31a5.4,5.4,0,0,1-2.31,9c-10.61,3.24-24.3,12.24-22.93,37.09,1.89,34.35,40.3,31.33,51.24,29.76a5.44,5.44,0,0,1,4.81,1.7c9.38,10.38,51.63,54.44,97.35,59.75a5.46,5.46,0,0,0,5.73-7.22l-19.78-57.52a5.44,5.44,0,0,1,2.94-6.75Z" transform="translate(-51.4 -15.77)"/><path class="cls-39" d="M822.59,1391.92s-49.72-34.11-53.35-5.38,44.77,41.6,68.74,30.9Z" transform="translate(-51.4 -15.77)"/><path class="cls-40" d="M1832.85,2861.31l18.42,573c3.21,99.92,85.21,179.43,185.65,180l1372.17,8.09c67.12.4,124.31-48.38,134.11-114.48,21.46-144.7,48.8-403.62,18-646.64Z" transform="translate(-51.4 -15.77)"/><path class="cls-21" d="M3368.72,3587.8h0l-13.15-.08a2.19,2.19,0,0,1,0-4.38h0l13.15.08a2.19,2.19,0,0,1,0,4.38Zm-43.83-.26h0l-13.15-.07a2.2,2.2,0,0,1,0-4.39h0l13.15.08a2.19,2.19,0,0,1,0,4.38Zm-43.83-.25h0l-13.15-.08a2.19,2.19,0,1,1,0-4.38h0l13.15.07a2.2,2.2,0,0,1,0,4.39Zm-43.84-.26h0l-13.15-.08a2.19,2.19,0,0,1,0-4.38h0l13.15.08a2.19,2.19,0,0,1,0,4.38Zm-43.83-.26h0l-13.15-.08a2.19,2.19,0,0,1-2.18-2.2,2.36,2.36,0,0,1,2.21-2.18l13.15.08a2.19,2.19,0,0,1,0,4.38Zm-43.84-.26h0l-13.15-.08a2.19,2.19,0,0,1,0-4.38h0l13.15.08a2.19,2.19,0,0,1,0,4.38Zm-43.83-.26h0l-13.15-.07a2.2,2.2,0,0,1-2.18-2.21,2.28,2.28,0,0,1,2.21-2.18l13.15.08a2.19,2.19,0,0,1,0,4.38Zm-43.84-.25h0l-13.15-.08a2.2,2.2,0,0,1,0-4.39h0l13.15.08a2.2,2.2,0,0,1,0,4.39Zm-43.83-.26h0l-13.16-.08a2.19,2.19,0,0,1,0-4.38l13.15.07a2.2,2.2,0,0,1,0,4.39Zm381.22,0a2.19,2.19,0,0,1-.4-4.35,127.61,127.61,0,0,0,12.57-3,2.19,2.19,0,1,1,1.24,4.2,130.89,130.89,0,0,1-13,3.1A1.81,1.81,0,0,1,3399.27,3585.7Zm-425.06-.22h0l-13.15-.08a2.19,2.19,0,0,1,0-4.38h0l13.16.07a2.2,2.2,0,0,1,0,4.39Zm-43.83-.26h0l-13.15-.08a2.18,2.18,0,0,1-2.18-2.2,2.15,2.15,0,0,1,2.2-2.18l13.15.08a2.19,2.19,0,0,1,0,4.38Zm-43.84-.26h0l-13.15-.08a2.19,2.19,0,0,1,0-4.38h0l13.15.08a2.19,2.19,0,1,1,0,4.38Zm-43.83-.26h0l-13.15-.07a2.2,2.2,0,0,1,0-4.39h0l13.15.08a2.19,2.19,0,0,1,0,4.38Zm-43.83-.26h0l-13.15-.07a2.2,2.2,0,0,1,0-4.39h0l13.15.08a2.19,2.19,0,0,1,0,4.38Zm-43.84-.25h0l-13.15-.08a2.19,2.19,0,0,1,0-4.38h0l13.15.07a2.2,2.2,0,0,1,0,4.39Zm-43.84-.26h0l-13.15-.08a2.19,2.19,0,0,1,0-4.38h0l13.15.07a2.2,2.2,0,0,1,0,4.39Zm-43.83-.26h0l-13.15-.08a2.19,2.19,0,0,1,0-4.38h0l13.15.07a2.2,2.2,0,0,1,0,4.39Zm-43.83-.26h0l-13.15-.08a2.19,2.19,0,0,1,0-4.38h0l13.15.08a2.19,2.19,0,0,1,0,4.38Zm-43.84-.26h0l-13.15-.07a2.2,2.2,0,0,1-2.18-2.21,2.31,2.31,0,0,1,2.2-2.18l13.15.08a2.19,2.19,0,0,1,0,4.38Zm-43.83-.26h0l-13.16-.07a2.2,2.2,0,0,1,0-4.39h0l13.15.08a2.19,2.19,0,0,1,0,4.38Zm-43.84-.25h0l-13.15-.08a2.2,2.2,0,0,1-2.18-2.21,2.24,2.24,0,0,1,2.2-2.18l13.16.08a2.2,2.2,0,0,1,0,4.39Zm-43.83-.26h0l-13.14-.08a2.19,2.19,0,0,1,0-4.38h0l13.15.07a2.2,2.2,0,0,1,0,4.39Zm-43.84-.26h0l-13.15-.08a2.19,2.19,0,1,1,0-4.38l13.15.08a2.19,2.19,0,1,1,0,4.38Zm-43.83-.26h0l-13.15-.08a2.19,2.19,0,0,1,0-4.38h0l13.15.08a2.19,2.19,0,0,1,0,4.38Zm-43.83-.26h0l-13.15-.08a2.19,2.19,0,0,1-2.18-2.2,2.12,2.12,0,0,1,2.21-2.18l13.15.08a2.19,2.19,0,0,1,0,4.38Zm-43.84-.26h0l-13.15-.07a2.2,2.2,0,0,1,0-4.39h0l13.15.08a2.19,2.19,0,0,1,0,4.38Zm-43.84-.25h0l-13.15-.08a2.2,2.2,0,0,1,0-4.39h0l13.15.08a2.2,2.2,0,0,1,0,4.39Zm-43.83-.26h0l-13.15-.08a2.19,2.19,0,0,1,0-4.38h0l13.15.07a2.2,2.2,0,0,1,0,4.39Zm-43.83-.26h0l-13.15-.08a2.19,2.19,0,0,1,0-4.38h0l13.15.08a2.19,2.19,0,0,1,0,4.38Zm-43.84-.26h0l-13.15-.08a2.19,2.19,0,0,1,0-4.38h0l13.15.08a2.19,2.19,0,0,1,0,4.38Zm-43.81-.92h-.2c-4.41-.4-8.85-1-13.19-1.7a2.19,2.19,0,0,1,.72-4.32c4.24.7,8.57,1.26,12.87,1.66a2.19,2.19,0,0,1-.2,4.37Zm1386.49-8.8a2.19,2.19,0,0,1-1.1-4.09,128.56,128.56,0,0,0,10.84-7,2.19,2.19,0,1,1,2.57,3.55,129.5,129.5,0,0,1-11.22,7.28A2.15,2.15,0,0,1,3440.2,3570.59Zm-1429.2-.5a2,2,0,0,1-.72-.12c-4.17-1.46-8.33-3.1-12.37-4.87a2.19,2.19,0,1,1,1.75-4c3.95,1.72,8,3.31,12.07,4.74a2.19,2.19,0,0,1-.73,4.26Zm-39.12-19.45a2.14,2.14,0,0,1-1.21-.36c-3.69-2.44-7.33-5-10.82-7.74a2.2,2.2,0,0,1,2.69-3.47c3.4,2.63,7,5.17,10.55,7.55a2.19,2.19,0,0,1-1.21,4Zm1501.82-8a2.2,2.2,0,0,1-1.67-3.62,126.31,126.31,0,0,0,7.85-10.25,2.19,2.19,0,1,1,3.61,2.49,130.93,130.93,0,0,1-8.12,10.6A2.2,2.2,0,0,1,3473.7,3542.67Zm-1535-20.43a2.18,2.18,0,0,1-1.61-.71c-3-3.26-5.89-6.68-8.62-10.15a2.19,2.19,0,1,1,3.45-2.71c2.66,3.39,5.49,6.72,8.4,9.9a2.19,2.19,0,0,1-1.62,3.67Zm1557.21-17.13a2.38,2.38,0,0,1-.78-.14,2.21,2.21,0,0,1-1.28-2.83,123.76,123.76,0,0,0,3.92-12.3A2.19,2.19,0,1,1,3502,3491a130,130,0,0,1-4.05,12.74A2.19,2.19,0,0,1,3495.86,3505.11Zm-1582.51-18.52a2.19,2.19,0,0,1-1.93-1.15c-2.1-3.9-4.07-7.92-5.87-12a2.19,2.19,0,1,1,4-1.78c1.75,3.94,3.67,7.86,5.72,11.66a2.2,2.2,0,0,1-.89,3A2.17,2.17,0,0,1,1913.35,3486.59ZM3505,3462.36a1.67,1.67,0,0,1-.31,0,2.19,2.19,0,0,1-1.86-2.48q.91-6.37,1.82-13a2.19,2.19,0,0,1,4.34.6q-.9,6.64-1.82,13A2.19,2.19,0,0,1,3505,3462.36Zm-1607.45-16.57a2.19,2.19,0,0,1-2.13-1.66c-1.06-4.29-2-8.68-2.72-13a2.19,2.19,0,0,1,4.32-.74c.72,4.24,1.62,8.52,2.66,12.7a2.2,2.2,0,0,1-1.6,2.66A2.46,2.46,0,0,1,1897.59,3445.79Zm1613.3-26.88-.28,0a2.19,2.19,0,0,1-1.9-2.45c.54-4.29,1.09-8.64,1.62-13a2.19,2.19,0,0,1,4.35.53q-.81,6.62-1.62,13.06A2.2,2.2,0,0,1,3510.89,3418.91ZM1892.27,3402.4a2.19,2.19,0,0,1-2.19-2.12l-.42-13.14a2.2,2.2,0,0,1,2.12-2.27A2.22,2.22,0,0,1,1894,3387l.42,13.15a2.19,2.19,0,0,1-2.12,2.26Zm1623.81-27h-.25a2.2,2.2,0,0,1-1.93-2.42q.72-6.46,1.43-13.07a2.15,2.15,0,0,1,2.41-1.94,2.18,2.18,0,0,1,2,2.41q-.71,6.61-1.43,13.08A2.2,2.2,0,0,1,3516.08,3375.37Zm-1625.22-16.78a2.2,2.2,0,0,1-2.19-2.12l-.42-13.15a2.19,2.19,0,0,1,2.12-2.26,2.15,2.15,0,0,1,2.26,2.12l.42,13.14a2.2,2.2,0,0,1-2.12,2.27Zm1629.76-26.83h-.22a2.18,2.18,0,0,1-2-2.39c.42-4.32.83-8.69,1.23-13.08a2.23,2.23,0,0,1,2.39-2,2.2,2.2,0,0,1,2,2.39q-.62,6.6-1.24,13.1A2.18,2.18,0,0,1,3520.62,3331.76Zm-1631.17-17a2.19,2.19,0,0,1-2.19-2.12l-.42-13.14a2.19,2.19,0,0,1,2.12-2.26,2.12,2.12,0,0,1,2.26,2.12l.42,13.14a2.19,2.19,0,0,1-2.12,2.26Zm1635-26.68h-.18a2.19,2.19,0,0,1-2-2.36q.52-6.51,1-13.1a2.16,2.16,0,0,1,2.35-2,2.19,2.19,0,0,1,2,2.35q-.51,6.6-1,13.12A2.19,2.19,0,0,1,3524.49,3288.09ZM1888,3271a2.18,2.18,0,0,1-2.18-2.12l-.43-13.14a2.19,2.19,0,0,1,4.38-.14l.43,13.14a2.2,2.2,0,0,1-2.12,2.26Zm1639.63-26.6h-.15a2.19,2.19,0,0,1-2-2.33q.42-6.53.81-13.12a2.19,2.19,0,0,1,4.38.27q-.39,6.6-.82,13.13A2.18,2.18,0,0,1,3527.67,3244.36Zm-1641-17.21a2.19,2.19,0,0,1-2.18-2.12l-.43-13.15a2.19,2.19,0,0,1,2.12-2.26,2.22,2.22,0,0,1,2.26,2.12l.43,13.15a2.19,2.19,0,0,1-2.12,2.26Zm1643.51-26.56H3530a2.21,2.21,0,0,1-2.09-2.3q.32-6.52.6-13.12a2.19,2.19,0,1,1,4.38.18q-.28,6.6-.6,13.15A2.18,2.18,0,0,1,3530.14,3200.59Zm-1644.91-17.25a2.19,2.19,0,0,1-2.19-2.12l-.43-13.15a2.19,2.19,0,0,1,2.12-2.26,2.21,2.21,0,0,1,2.26,2.12l.43,13.14a2.2,2.2,0,0,1-2.12,2.27Zm1646.62-26.56h-.07a2.2,2.2,0,0,1-2.13-2.25q.21-6.56.37-13.14a2.26,2.26,0,0,1,2.24-2.14,2.2,2.2,0,0,1,2.14,2.25q-.17,6.6-.36,13.16A2.19,2.19,0,0,1,3531.85,3156.78Zm-1648-17.26a2.19,2.19,0,0,1-2.19-2.12l-.42-13.14a2.19,2.19,0,0,1,2.12-2.26,2.23,2.23,0,0,1,2.26,2.12l.42,13.14a2.19,2.19,0,0,1-2.12,2.26ZM3532.76,3113h0a2.19,2.19,0,0,1-2.16-2.22q.07-6.54.11-13.11a2.2,2.2,0,0,1,2.19-2.18h0a2.2,2.2,0,0,1,2.18,2.21q0,6.59-.12,13.13A2.19,2.19,0,0,1,3532.76,3113Zm-1650.35-17.25a2.19,2.19,0,0,1-2.19-2.12l-.42-13.14a2.18,2.18,0,0,1,2.12-2.26,2.15,2.15,0,0,1,2.26,2.12l.42,13.14a2.19,2.19,0,0,1-2.12,2.26Zm1650.42-26.55a2.19,2.19,0,0,1-2.19-2.17q-.06-6.55-.15-13.14a2.18,2.18,0,0,1,2.16-2.22,2.15,2.15,0,0,1,2.22,2.16c.06,4.39.12,8.78.15,13.16a2.19,2.19,0,0,1-2.17,2.21ZM1881,3051.9a2.2,2.2,0,0,1-2.19-2.12l-.42-13.15a2.2,2.2,0,0,1,2.12-2.26,2.16,2.16,0,0,1,2.26,2.12l.42,13.15a2.19,2.19,0,0,1-2.12,2.26Zm1651-26.56a2.19,2.19,0,0,1-2.19-2.13q-.2-6.55-.44-13.13a2.19,2.19,0,0,1,2.11-2.27,2.24,2.24,0,0,1,2.27,2.11q.24,6.59.44,13.16a2.19,2.19,0,0,1-2.13,2.25Zm-1652.41-17.25a2.2,2.2,0,0,1-2.19-2.13l-.42-13.14a2.19,2.19,0,1,1,4.38-.14l.42,13.14a2.2,2.2,0,0,1-2.12,2.27Zm1650.6-26.55a2.19,2.19,0,0,1-2.19-2.08q-.35-6.55-.74-13.12a2.19,2.19,0,0,1,2.06-2.31,2.22,2.22,0,0,1,2.32,2q.39,6.59.74,13.15a2.18,2.18,0,0,1-2.07,2.3Zm-1652-17.27a2.19,2.19,0,0,1-2.19-2.12l-.42-13.14a2.19,2.19,0,0,1,2.12-2.26,2.15,2.15,0,0,1,2.26,2.12l.42,13.14a2.19,2.19,0,0,1-2.12,2.26Zm1649.15-26.47a2.2,2.2,0,0,1-2.18-2q-.51-6.56-1.07-13.09a2.2,2.2,0,0,1,2-2.38,2.15,2.15,0,0,1,2.37,2q.57,6.55,1.08,13.12a2.2,2.2,0,0,1-2,2.36Zm-1650.56-17.34a2.19,2.19,0,0,1-2.18-2.12l-.43-13.15a2.2,2.2,0,0,1,2.12-2.26,2.3,2.3,0,0,1,2.26,2.12l.43,13.15a2.19,2.19,0,0,1-2.12,2.26Zm1646.56-26.32a2.17,2.17,0,0,1-2.17-2q-.69-6.53-1.44-13a2.19,2.19,0,1,1,4.35-.5q.75,6.54,1.44,13.09a2.18,2.18,0,0,1-2,2.41Zm-1648-17.49a2.19,2.19,0,0,1-2.18-2.12l-.5-15.41h12.2a2.19,2.19,0,1,1,0,4.38h-7.67l.34,10.89a2.18,2.18,0,0,1-2.11,2.26Zm1631.43-13.15h-13.15a2.19,2.19,0,0,1,0-4.38h13.15a2.19,2.19,0,1,1,0,4.38Zm-43.83,0H3449.8a2.19,2.19,0,1,1,0-4.38H3463a2.19,2.19,0,1,1,0,4.38Zm-43.84,0H3406a2.19,2.19,0,1,1,0-4.38h13.15a2.19,2.19,0,1,1,0,4.38Zm-43.84,0h-13.15a2.19,2.19,0,1,1,0-4.38h13.15a2.19,2.19,0,1,1,0,4.38Zm-43.83,0H3318.3a2.19,2.19,0,1,1,0-4.38h13.15a2.19,2.19,0,1,1,0,4.38Zm-43.84,0h-13.15a2.19,2.19,0,1,1,0-4.38h13.15a2.19,2.19,0,1,1,0,4.38Zm-43.83,0h-13.15a2.19,2.19,0,1,1,0-4.38h13.15a2.19,2.19,0,0,1,0,4.38Zm-43.84,0h-13.15a2.19,2.19,0,1,1,0-4.38h13.15a2.19,2.19,0,0,1,0,4.38Zm-43.83,0H3143a2.19,2.19,0,1,1,0-4.38h13.15a2.19,2.19,0,0,1,0,4.38Zm-43.84,0h-13.15a2.19,2.19,0,1,1,0-4.38h13.15a2.19,2.19,0,0,1,0,4.38Zm-43.83,0h-13.15a2.19,2.19,0,1,1,0-4.38h13.15a2.19,2.19,0,0,1,0,4.38Zm-43.84,0h-13.15a2.19,2.19,0,1,1,0-4.38h13.15a2.19,2.19,0,0,1,0,4.38Zm-43.83,0h-13.15a2.19,2.19,0,1,1,0-4.38h13.15a2.19,2.19,0,0,1,0,4.38Zm-43.84,0h-13.15a2.19,2.19,0,0,1,0-4.38h13.15a2.19,2.19,0,0,1,0,4.38Zm-43.83,0H2880a2.19,2.19,0,1,1,0-4.38h13.15a2.19,2.19,0,0,1,0,4.38Zm-43.84,0h-13.15a2.19,2.19,0,0,1,0-4.38h13.15a2.19,2.19,0,0,1,0,4.38Zm-43.83,0h-13.16a2.19,2.19,0,0,1,0-4.38h13.16a2.19,2.19,0,0,1,0,4.38Zm-43.84,0h-13.15a2.19,2.19,0,0,1,0-4.38h13.15a2.19,2.19,0,1,1,0,4.38Zm-43.84,0H2704.6a2.19,2.19,0,0,1,0-4.38h13.15a2.19,2.19,0,1,1,0,4.38Zm-43.83,0h-13.15a2.19,2.19,0,0,1,0-4.38h13.15a2.19,2.19,0,1,1,0,4.38Zm-43.84,0h-13.15a2.19,2.19,0,0,1,0-4.38h13.15a2.19,2.19,0,1,1,0,4.38Zm-43.83,0H2573.1a2.19,2.19,0,0,1,0-4.38h13.15a2.19,2.19,0,1,1,0,4.38Zm-43.84,0h-13.15a2.19,2.19,0,1,1,0-4.38h13.15a2.19,2.19,0,1,1,0,4.38Zm-43.83,0h-13.15a2.19,2.19,0,0,1,0-4.38h13.15a2.19,2.19,0,1,1,0,4.38Zm-43.84,0h-13.15a2.19,2.19,0,1,1,0-4.38h13.15a2.19,2.19,0,1,1,0,4.38Zm-43.83,0h-13.15a2.19,2.19,0,1,1,0-4.38h13.15a2.19,2.19,0,1,1,0,4.38Zm-43.84,0h-13.15a2.19,2.19,0,1,1,0-4.38h13.15a2.19,2.19,0,0,1,0,4.38Zm-43.83,0h-13.15a2.19,2.19,0,1,1,0-4.38h13.15a2.19,2.19,0,1,1,0,4.38Zm-43.84,0h-13.15a2.19,2.19,0,1,1,0-4.38h13.15a2.19,2.19,0,0,1,0,4.38Zm-43.83,0h-13.15a2.19,2.19,0,1,1,0-4.38h13.15a2.19,2.19,0,0,1,0,4.38Zm-43.84,0h-13.15a2.19,2.19,0,1,1,0-4.38h13.15a2.19,2.19,0,0,1,0,4.38Zm-43.83,0h-13.16a2.19,2.19,0,1,1,0-4.38h13.16a2.19,2.19,0,0,1,0,4.38Zm-43.84,0h-13.15a2.19,2.19,0,1,1,0-4.38h13.15a2.19,2.19,0,0,1,0,4.38Zm-43.84,0h-13.15a2.19,2.19,0,1,1,0-4.38h13.15a2.19,2.19,0,1,1,0,4.38Zm-43.83,0h-13.15a2.19,2.19,0,1,1,0-4.38h13.15a2.19,2.19,0,0,1,0,4.38Zm-43.84,0H1959.4a2.19,2.19,0,0,1,0-4.38h13.15a2.19,2.19,0,1,1,0,4.38Zm-43.83,0h-13.15a2.19,2.19,0,1,1,0-4.38h13.15a2.19,2.19,0,1,1,0,4.38Z" transform="translate(-51.4 -15.77)"/><path class="cls-41" d="M2235,2445.34l4.13-44.2a34,34,0,0,1,25.77-19.84c42.75-6.8,148.77-18.76,199.82,19.39l7.62,51.35Z" transform="translate(-51.4 -15.77)"/><path class="cls-42" d="M2368.52,2402.81a61.29,61.29,0,0,1-29.58,0,26.72,26.72,0,0,1-20.38-25.88V2238.52H2389v138.27A26.82,26.82,0,0,1,2368.52,2402.81Z" transform="translate(-51.4 -15.77)"/><path class="cls-43" d="M2917.07,2445.34l4.12-44.2A34,34,0,0,1,2947,2381.3c42.75-6.8,148.77-18.76,199.82,19.39l7.63,51.35Z" transform="translate(-51.4 -15.77)"/><path class="cls-44" d="M3050.6,2402.81a61.29,61.29,0,0,1-29.58,0,26.72,26.72,0,0,1-20.38-25.88v-153h70.42v152.85A26.81,26.81,0,0,1,3050.6,2402.81Z" transform="translate(-51.4 -15.77)"/><path class="cls-45" d="M2311.41,2272.44l757.33-25.07a36.5,36.5,0,0,0,34.88-30c4.15-23.71,7.81-59.2,2.36-96-6.21-41.84-42.2-72.92-84.68-73.93-141.28-3.36-501-3.26-699.17,75.15a69.25,69.25,0,0,0-41.83,48c-5.06,20.82-8.43,48.61-1.81,76.9A32.6,32.6,0,0,0,2311.41,2272.44Z" transform="translate(-51.4 -15.77)"/><path class="cls-21" d="M2298.29,2234.13a4.4,4.4,0,0,1-4.36-3.94c-.12-1.21-2.89-29.87,4.57-57.46a64.18,64.18,0,0,1,43.72-44.43c42.24-12.4,123-33.47,189-35.32a4.39,4.39,0,0,1,.25,8.77c-65,1.82-144.9,22.68-186.73,35A55.38,55.38,0,0,0,2307,2175c-7,26-4.33,54-4.3,54.28a4.4,4.4,0,0,1-3.92,4.81Z" transform="translate(-51.4 -15.77)"/><path class="cls-46" d="M1883.61,2428.12c244.67-3.13,1303.1-14.25,1610.55,22.84a62.62,62.62,0,0,1,53.81,48.48c18.16,82.13,54.71,272.93,50.38,462-.59,25.74-19.46,47.45-44.87,52.26l-701.81,132.77h-249.3l-747.78-148.64a58.48,58.48,0,0,1-47.16-54.28c-4.85-95.15-12.45-318.4,13.28-462.1A64.71,64.71,0,0,1,1883.61,2428.12Z" transform="translate(-51.4 -15.77)"/><path class="cls-21" d="M2608.33,3088.24a2.09,2.09,0,0,1-.43,0l-12.9-2.56a2.19,2.19,0,0,1-1.72-2.58,2.16,2.16,0,0,1,2.57-1.72l12.9,2.56a2.19,2.19,0,0,1-.42,4.34Zm213.29,0h-13.15a2.19,2.19,0,0,1,0-4.38h13.15a2.19,2.19,0,0,1,0,4.38Zm-43.83,0h-13.15a2.19,2.19,0,1,1,0-4.38h13.15a2.19,2.19,0,0,1,0,4.38Zm-43.84,0H2720.8a2.19,2.19,0,0,1,0-4.38H2734a2.19,2.19,0,0,1,0,4.38Zm-43.83,0H2677a2.19,2.19,0,0,1,0-4.38h13.16a2.19,2.19,0,0,1,0,4.38Zm-43.84,0h-13.15a2.19,2.19,0,0,1,0-4.38h13.15a2.19,2.19,0,0,1,0,4.38Zm205.91-1.17a2.19,2.19,0,0,1-.4-4.34l12.92-2.45a2.19,2.19,0,0,1,.82,4.31L2852.6,3087A1.84,1.84,0,0,1,2852.19,3087.07Zm-286.86-7.37a2.18,2.18,0,0,1-.43,0l-12.9-2.56a2.19,2.19,0,1,1,.86-4.3l12.9,2.57a2.19,2.19,0,0,1-.43,4.34Zm329.94-.78a2.19,2.19,0,0,1-.41-4.34l12.92-2.45a2.19,2.19,0,0,1,.82,4.31l-12.92,2.44A2,2,0,0,1,2895.27,3078.92Zm-372.93-7.77a2.09,2.09,0,0,1-.43,0l-12.9-2.56a2.19,2.19,0,0,1-1.72-2.58,2.16,2.16,0,0,1,2.57-1.72l12.9,2.56a2.19,2.19,0,0,1-.42,4.34Zm416-.38a2.19,2.19,0,0,1-.41-4.34l12.92-2.45a2.19,2.19,0,0,1,.82,4.31l-12.92,2.45Zm43.07-8.14a2.2,2.2,0,0,1-.41-4.35l12.93-2.44a2.19,2.19,0,1,1,.81,4.3l-12.92,2.45A3,3,0,0,1,2981.41,3062.63Zm-502.07,0a2.18,2.18,0,0,1-.43-.05L2466,3060a2.19,2.19,0,0,1,.85-4.3l12.9,2.57a2.19,2.19,0,0,1-.43,4.34Zm545.14-8.13a2.19,2.19,0,0,1-.4-4.35l12.92-2.44a2.19,2.19,0,1,1,.81,4.3l-12.92,2.45A3,3,0,0,1,3024.48,3054.48Zm-588.13-.42a2.15,2.15,0,0,1-.43,0l-12.9-2.57a2.19,2.19,0,0,1,.86-4.3l12.9,2.57a2.19,2.19,0,0,1-.43,4.34Zm631.2-7.73a2.19,2.19,0,0,1-.4-4.35l12.92-2.44a2.19,2.19,0,0,1,.81,4.31l-12.92,2.44A1.9,1.9,0,0,1,3067.55,3046.33Zm-674.19-.82a2,2,0,0,1-.43,0l-12.9-2.56a2.19,2.19,0,0,1-1.72-2.58,2.16,2.16,0,0,1,2.57-1.72l12.9,2.56a2.19,2.19,0,0,1-.42,4.34Zm717.26-7.33a2.19,2.19,0,0,1-.4-4.35l12.92-2.44a2.19,2.19,0,0,1,.81,4.31l-12.92,2.44A1.9,1.9,0,0,1,3110.62,3038.18ZM2350.36,3037a2.18,2.18,0,0,1-.43,0l-12.9-2.56a2.2,2.2,0,0,1-1.72-2.58,2.17,2.17,0,0,1,2.58-1.72l12.9,2.57a2.19,2.19,0,0,1-.43,4.34Zm803.33-6.94a2.19,2.19,0,0,1-.4-4.34l12.92-2.45a2.19,2.19,0,0,1,.81,4.31L3154.1,3030A1.84,1.84,0,0,1,3153.69,3030Zm-846.32-1.61a2.09,2.09,0,0,1-.43,0l-12.9-2.57a2.19,2.19,0,1,1,.86-4.29l12.89,2.56a2.19,2.19,0,0,1-.42,4.34Zm889.39-6.54a2.19,2.19,0,0,1-.4-4.34l12.92-2.45a2.19,2.19,0,0,1,.81,4.31l-12.92,2.44A1.84,1.84,0,0,1,3196.76,3021.88Zm-932.39-2a2.18,2.18,0,0,1-.43-.05l-12.89-2.56a2.2,2.2,0,0,1-1.73-2.58,2.17,2.17,0,0,1,2.58-1.72l12.9,2.56a2.2,2.2,0,0,1-.43,4.35Zm975.47-6.15a2.19,2.19,0,0,1-.41-4.34l12.92-2.44a2.19,2.19,0,1,1,.82,4.3l-12.93,2.45A2.69,2.69,0,0,1,3239.84,3013.73Zm-1018.46-2.4a2.09,2.09,0,0,1-.43,0l-12.9-2.57a2.19,2.19,0,1,1,.86-4.3l12.9,2.57a2.19,2.19,0,0,1-.43,4.34Zm1061.53-5.74a2.2,2.2,0,0,1-.41-4.35l12.92-2.44a2.19,2.19,0,1,1,.82,4.3l-12.92,2.45A3,3,0,0,1,3282.91,3005.59Zm-1104.52-2.81a2,2,0,0,1-.43,0l-12.9-2.57a2.19,2.19,0,0,1,.85-4.29l12.9,2.56a2.19,2.19,0,0,1-.42,4.34ZM3326,2997.44a2.19,2.19,0,0,1-.4-4.35l12.92-2.44a2.19,2.19,0,1,1,.81,4.3l-12.92,2.45A2.85,2.85,0,0,1,3326,2997.44Zm-1190.59-3.2a2.18,2.18,0,0,1-.43,0l-12.9-2.56a2.19,2.19,0,0,1,.86-4.3l12.9,2.56a2.2,2.2,0,0,1-.43,4.35Zm1233.66-4.95a2.19,2.19,0,0,1-.4-4.35l12.92-2.44a2.19,2.19,0,0,1,.81,4.31l-12.92,2.44A1.9,1.9,0,0,1,3369.05,2989.29Zm-1276.65-3.6a2.09,2.09,0,0,1-.43,0l-12.9-2.57a2.19,2.19,0,1,1,.85-4.29l12.9,2.56a2.19,2.19,0,0,1-.42,4.34Zm1319.72-4.55a2.19,2.19,0,0,1-.4-4.34l12.92-2.45a2.19,2.19,0,0,1,.81,4.31l-12.92,2.44A1.9,1.9,0,0,1,3412.12,2981.14Zm-1362.72-4a2.15,2.15,0,0,1-.43,0l-12.9-2.56a2.19,2.19,0,1,1,.86-4.3l12.9,2.56a2.19,2.19,0,0,1-.43,4.34ZM3455.19,2973a2.19,2.19,0,0,1-.4-4.34l12.92-2.45a2.19,2.19,0,0,1,.81,4.31L3455.6,2973A1.84,1.84,0,0,1,3455.19,2973Zm-1448.78-4.39a2.1,2.1,0,0,1-.43,0l-12.9-2.56a2.19,2.19,0,1,1,.86-4.3l12.89,2.57a2.19,2.19,0,0,1-.42,4.34Zm1491.86-3.76a2.19,2.19,0,0,1-.41-4.34l12.92-2.45a2.19,2.19,0,0,1,.82,4.31l-12.93,2.44A1.81,1.81,0,0,1,3498.27,2964.84Zm-1534.86-4.79a2.15,2.15,0,0,1-.43,0l-12.89-2.57a2.17,2.17,0,0,1-1.72-2.57,2.15,2.15,0,0,1,2.57-1.72l12.9,2.56a2.19,2.19,0,0,1-.43,4.34Zm1574.65-6.12h0a2.2,2.2,0,0,1-2.16-2.23q.11-6.55.14-13.13a2.19,2.19,0,0,1,2.19-2.17h0a2.17,2.17,0,0,1,2.17,2.2q0,6.58-.14,13.17A2.2,2.2,0,0,1,3538.06,2953.93Zm-1617.64-2.43a2.15,2.15,0,0,1-.43,0l-12.9-2.56a2.2,2.2,0,0,1-1.72-2.58,2.17,2.17,0,0,1,2.58-1.72l12.89,2.56a2.19,2.19,0,0,1-.42,4.34Zm-43-8.54a2,2,0,0,1-.43,0l-11.36-2.26-.25-5a2.19,2.19,0,1,1,4.38-.22l.08,1.58,8,1.59a2.19,2.19,0,0,1-.42,4.34ZM3538,2910.09a2.2,2.2,0,0,1-2.19-2.16c-.07-4.37-.16-8.75-.27-13.11a2.19,2.19,0,0,1,2.13-2.25h.06a2.18,2.18,0,0,1,2.19,2.13q.16,6.59.27,13.16a2.19,2.19,0,0,1-2.15,2.23Zm-1671.86-3a2.19,2.19,0,0,1-2.18-2.1q-.27-6.36-.52-13.15a2.18,2.18,0,0,1,2.11-2.27,2.15,2.15,0,0,1,2.27,2.11q.26,6.77.52,13.13a2.19,2.19,0,0,1-2.1,2.28Zm1670.51-40.81a2.2,2.2,0,0,1-2.19-2.09q-.28-6.55-.64-13.09a2.19,2.19,0,0,1,4.38-.23q.35,6.54.64,13.12a2.2,2.2,0,0,1-2.09,2.29Zm-1672.07-3a2.19,2.19,0,0,1-2.19-2.13q-.2-6.45-.38-13.16a2.2,2.2,0,0,1,2.14-2.24,2.31,2.31,0,0,1,2.25,2.13q.18,6.69.37,13.14a2.2,2.2,0,0,1-2.13,2.26Zm1669.53-40.74a2.18,2.18,0,0,1-2.18-2q-.48-6.59-1-13.11a2.18,2.18,0,0,1,2-2.35,2.21,2.21,0,0,1,2.36,2q.51,6.54,1,13.14a2.21,2.21,0,0,1-2,2.34Zm-1670.6-3.1a2.19,2.19,0,0,1-2.19-2.15l-.22-13.16a2.2,2.2,0,0,1,4.39-.06l.21,13.14a2.18,2.18,0,0,1-2.15,2.23Zm1667-40.6a2.18,2.18,0,0,1-2.18-2q-.63-6.59-1.29-13.08a2.2,2.2,0,0,1,4.37-.44q.66,6.51,1.28,13.1a2.19,2.19,0,0,1-2,2.39ZM1863,2775.61a2.19,2.19,0,0,1-2.19-2.18q0-6.54,0-13.17a2.18,2.18,0,0,1,2.18-2.19h0a2.19,2.19,0,0,1,2.19,2.19q0,6.61,0,13.14a2.2,2.2,0,0,1-2.18,2.21Zm1662.89-40.38a2.19,2.19,0,0,1-2.17-1.93q-.76-6.59-1.56-13.05a2.18,2.18,0,0,1,1.91-2.44,2.14,2.14,0,0,1,2.44,1.9q.79,6.49,1.56,13.08a2.19,2.19,0,0,1-1.92,2.43Zm-1662.84-3.45h0a2.19,2.19,0,0,1-2.18-2.21q.06-6.56.15-13.15a2.05,2.05,0,0,1,2.22-2.16,2.2,2.2,0,0,1,2.16,2.22q-.09,6.58-.14,13.13A2.19,2.19,0,0,1,1863.07,2731.78Zm1657.32-40.05a2.2,2.2,0,0,1-2.17-1.9q-.9-6.57-1.82-13a2.19,2.19,0,0,1,4.34-.62q.91,6.45,1.83,13a2.2,2.2,0,0,1-1.88,2.47ZM1863.81,2688h0a2.2,2.2,0,0,1-2.14-2.25q.17-6.59.37-13.16a2.24,2.24,0,0,1,2.26-2.12,2.19,2.19,0,0,1,2.13,2.25c-.14,4.39-.26,8.76-.37,13.14A2.2,2.2,0,0,1,1863.81,2688ZM3514,2648.34a2.21,2.21,0,0,1-2.17-1.85c-.68-4.39-1.38-8.72-2.07-13a2.19,2.19,0,0,1,4.33-.7q1,6.41,2.08,13a2.21,2.21,0,0,1-1.83,2.51Zm-1648.66-4.21h-.1a2.19,2.19,0,0,1-2.09-2.29q.3-6.6.64-13.16a2.13,2.13,0,0,1,2.31-2.07,2.18,2.18,0,0,1,2.07,2.3q-.35,6.54-.64,13.13A2.18,2.18,0,0,1,1865.35,2644.13Zm1641.44-39.05a2.18,2.18,0,0,1-2.15-1.81q-1.17-6.61-2.32-12.94a2.19,2.19,0,1,1,4.31-.79q1.15,6.35,2.32,13a2.18,2.18,0,0,1-1.77,2.54A2.56,2.56,0,0,1,3506.79,2605.08Zm-1638.91-4.73h-.16a2.18,2.18,0,0,1-2-2.34q.46-6.6,1-13.13a2.23,2.23,0,0,1,2.36-2,2.19,2.19,0,0,1,2,2.35q-.52,6.51-1,13.1A2.19,2.19,0,0,1,1867.88,2600.35ZM3498.76,2562a2.19,2.19,0,0,1-2.15-1.77q-1.31-6.69-2.57-12.89a2.18,2.18,0,0,1,1.71-2.58,2.22,2.22,0,0,1,2.59,1.71c.83,4.14,1.7,8.45,2.57,12.92a2.18,2.18,0,0,1-1.73,2.57A2,2,0,0,1,3498.76,2562Zm-1627.1-5.29h-.23a2.2,2.2,0,0,1-2-2.41q.69-6.61,1.45-13.1a2.19,2.19,0,0,1,4.35.5q-.75,6.46-1.43,13A2.2,2.2,0,0,1,1871.66,2556.67ZM3489.86,2519a2.18,2.18,0,0,1-2.13-1.72l-.95-4.31-6.16-.51a2.18,2.18,0,0,1-1.92-2.42,2.15,2.15,0,0,1,2.42-1.93l6.06.71a4.4,4.4,0,0,1,3.88,3.2l1,4.32a2.19,2.19,0,0,1-1.67,2.61A2,2,0,0,1,3489.86,2519Zm-1612.72-5.83-.33,0a2.2,2.2,0,0,1-1.84-2.5q1-6.62,2.09-13a2.19,2.19,0,1,1,4.32.73q-1.08,6.36-2.07,12.95A2.2,2.2,0,0,1,1877.14,2513.17Zm1573.21-3.82h-.2c-4.25-.4-8.61-.78-13.09-1.17a2.19,2.19,0,0,1,.38-4.36q6.73.57,13.11,1.16a2.19,2.19,0,0,1-.2,4.38Zm-43.69-3.57h-.16q-6.43-.46-13.11-.92a2.19,2.19,0,0,1-2-2.34,2.24,2.24,0,0,1,2.34-2l13.12.93a2.19,2.19,0,0,1-.15,4.38Zm-43.75-2.88h-.13l-13.12-.76a2.19,2.19,0,0,1,.24-4.38l13.14.76a2.19,2.19,0,0,1-.13,4.38Zm-43.77-2.38H3319l-13.13-.64a2.19,2.19,0,0,1,.21-4.37l13.14.64a2.19,2.19,0,0,1-.1,4.38Zm-43.79-2h-.1l-13.14-.55a2.19,2.19,0,1,1,.18-4.38l13.14.55a2.19,2.19,0,0,1-.08,4.38Zm-43.81-1.74h-.08l-13.14-.48a2.18,2.18,0,0,1-2.11-2.27,2.23,2.23,0,0,1,2.26-2.11l13.15.48a2.19,2.19,0,0,1-.08,4.38Zm-43.81-1.51h-.07l-13.15-.41a2.19,2.19,0,0,1-2.12-2.26,2.17,2.17,0,0,1,2.26-2.12l13.14.41a2.2,2.2,0,0,1-.06,4.39Zm-43.82-1.32h-.06l-13.15-.36a2.2,2.2,0,0,1-2.13-2.25,2.23,2.23,0,0,1,2.25-2.14l13.15.37a2.19,2.19,0,0,1-.06,4.38Zm-43.82-1.15H3100l-13.14-.32a2.2,2.2,0,0,1-2.15-2.24,2.13,2.13,0,0,1,2.25-2.14l13.15.31a2.2,2.2,0,0,1,0,4.39Zm-43.83-1h-.05l-13.15-.28a2.18,2.18,0,0,1-2.14-2.23,2.26,2.26,0,0,1,2.23-2.15l13.16.28a2.19,2.19,0,0,1,0,4.38Zm-43.83-.88h0l-13.15-.25a2.19,2.19,0,0,1-2.15-2.23,2.13,2.13,0,0,1,2.23-2.15l13.15.24a2.2,2.2,0,0,1,0,4.39Zm-1109.21-.34a2.19,2.19,0,0,1,0-4.38l13.16-.16h0a2.19,2.19,0,0,1,0,4.38l-13.16.16Zm1065.38-.43h0l-13.14-.21a2.2,2.2,0,0,1,0-4.39h0l13.16.21a2.2,2.2,0,0,1,0,4.39ZM1947.08,2490a2.2,2.2,0,0,1,0-4.39l13.16-.14h0a2.19,2.19,0,0,1,0,4.38l-13.16.15Zm43.85-.48a2.19,2.19,0,0,1,0-4.38l13.15-.14h0a2.2,2.2,0,0,1,0,4.39l-13.16.13Zm933.84-.11h0l-13.15-.19a2.18,2.18,0,0,1-2.16-2.22,2.15,2.15,0,0,1,2.22-2.16l13.15.18a2.2,2.2,0,0,1,0,4.39Zm-890-.33a2.19,2.19,0,0,1,0-4.38l13.16-.13h0a2.2,2.2,0,0,1,0,4.39l-13.15.12Zm846.15-.25h0l-13.15-.16a2.19,2.19,0,0,1-2.17-2.21,2.1,2.1,0,0,1,2.22-2.17l13.15.16a2.19,2.19,0,0,1,0,4.38Zm-802.29-.15a2.19,2.19,0,0,1,0-4.38l13.15-.11h0a2.19,2.19,0,0,1,0,4.38l-13.15.11Zm758.46-.34h0l-13.15-.14a2.19,2.19,0,0,1-2.17-2.21,2.14,2.14,0,0,1,2.21-2.17l13.15.13a2.2,2.2,0,0,1,0,4.39Zm-714.61,0a2.19,2.19,0,0,1,0-4.38l13.16-.11h0a2.2,2.2,0,0,1,0,4.39l-13.15.1Zm43.85-.33a2.19,2.19,0,0,1,0-4.38l13.15-.09a2.36,2.36,0,0,1,2.21,2.17,2.2,2.2,0,0,1-2.18,2.21l-13.15.09Zm626.92-.07h0l-13.14-.11a2.19,2.19,0,0,1-2.18-2.21,2.4,2.4,0,0,1,2.21-2.17l13.15.1a2.2,2.2,0,0,1,0,4.39Zm-583.07-.22a2.2,2.2,0,0,1,0-4.39l13.15-.08h0a2.2,2.2,0,1,1,0,4.39l-13.15.08Zm539.24-.12h0l-13.15-.09a2.2,2.2,0,0,1,0-4.39h0l13.15.09a2.2,2.2,0,0,1,0,4.39Zm-495.39-.14a2.19,2.19,0,0,1,0-4.38l13.16-.07h0a2.19,2.19,0,0,1,0,4.38l-13.16.07Zm451.55-.14h0l-13.15-.08a2.19,2.19,0,0,1,0-4.38h0l13.16.07a2.2,2.2,0,0,1,0,4.39Zm-407.7-.07a2.2,2.2,0,0,1,0-4.39l13.15,0h0a2.19,2.19,0,1,1,0,4.38l-13.15.06Zm363.87-.15h0l-13.14-.05a2.2,2.2,0,0,1-2.19-2.2,2.31,2.31,0,0,1,2.2-2.19l13.16.06a2.19,2.19,0,0,1,0,4.38Zm-320,0a2.2,2.2,0,0,1,0-4.39l13.16,0a2.19,2.19,0,0,1,0,4.38l-13.16,0Zm276.18-.13h0l-13.15,0a2.19,2.19,0,0,1,0-4.38h0l13.15,0a2.2,2.2,0,0,1,0,4.39Zm-232.33,0a2.2,2.2,0,0,1,0-4.39l13.15,0h0a2.19,2.19,0,0,1,0,4.38l-13.16,0Zm188.49-.1h0l-13.15,0a2.19,2.19,0,1,1,0-4.38h0l13.15,0a2.19,2.19,0,1,1,0,4.38Zm-144.64,0a2.19,2.19,0,1,1,0-4.38l13.16,0h0a2.2,2.2,0,0,1,0,4.39l-13.15,0Zm100.81-.05h-13.16a2.19,2.19,0,1,1,0-4.38h13.15a2.2,2.2,0,0,1,0,4.39Zm-57,0a2.2,2.2,0,1,1,0-4.39h13.13a2.19,2.19,0,0,1,0,4.38Z" transform="translate(-51.4 -15.77)"/><path class="cls-47" d="M2828.2,3251.19H2609.8a56.43,56.43,0,0,1-56.12-49.58l-25.24-210.16c-4-33.48,22.25-62.93,56.12-62.93h262.38a56.35,56.35,0,0,1,56.29,61.23l-18.73,210.16A56.42,56.42,0,0,1,2828.2,3251.19Z" transform="translate(-51.4 -15.77)"/><path class="cls-48" d="M2801.33,3212.53H2635.11a43,43,0,0,1-42.72-37.73l-19.2-160A42.88,42.88,0,0,1,2615.9,2967h199.7a42.89,42.89,0,0,1,42.84,46.6l-14.26,159.95A42.93,42.93,0,0,1,2801.33,3212.53Z" transform="translate(-51.4 -15.77)"/><circle class="cls-49" cx="3298.17" cy="873.1" r="228.19" transform="translate(297.24 2572.11) rotate(-45)"/><circle class="cls-50" cx="3298.17" cy="873.1" r="220.6" transform="translate(297.24 2572.11) rotate(-45)"/><path class="cls-21" d="M3113.72,794.55a7.24,7.24,0,0,1-3.34-.69,7.37,7.37,0,0,1-3.56-9.8,210.11,210.11,0,0,1,184.77-121.87,212.88,212.88,0,0,1,38.15,2.23,7.38,7.38,0,1,1-2.19,14.59,199.13,199.13,0,0,0-35.5-2.07,195.43,195.43,0,0,0-171.86,113.35A7.38,7.38,0,0,1,3113.72,794.55Z" transform="translate(-51.4 -15.77)"/><circle class="cls-51" cx="3303.13" cy="877.75" r="186.71" transform="translate(295.4 2576.98) rotate(-45)"/><circle class="cls-52" cx="3335.86" cy="1492" r="262.94" transform="translate(-129.35 2780.03) rotate(-45)"/><circle class="cls-53" cx="3335.86" cy="1492" r="254.2" transform="translate(-129.35 2780.03) rotate(-45)"/><path class="cls-21" d="M3130.3,1383.14a4.64,4.64,0,0,1-2.11-.6,4.74,4.74,0,0,1-1.85-6.45,238.39,238.39,0,0,1,218.77-123.31,240.9,240.9,0,0,1,43,5.56,4.74,4.74,0,1,1-2.06,9.26,232.27,232.27,0,0,0-41.31-5.33,228.94,228.94,0,0,0-210.1,118.42A4.77,4.77,0,0,1,3130.3,1383.14Z" transform="translate(-51.4 -15.77)"/><circle class="cls-51" cx="3341.18" cy="1497.75" r="215.15" transform="translate(-131.86 2785.48) rotate(-45)"/><circle class="cls-54" cx="3154.41" cy="2046.42" r="230.19" transform="translate(-574.53 2814.11) rotate(-45)"/><circle class="cls-55" cx="3154.41" cy="2046.42" r="222.53" transform="translate(-574.53 2814.11) rotate(-45)"/><path class="cls-21" d="M2971.86,1957.66a5.66,5.66,0,0,1-5-8.27,210.21,210.21,0,0,1,189.81-114.05,213.33,213.33,0,0,1,38,3.84,5.67,5.67,0,1,1-2.16,11.13,202.5,202.5,0,0,0-36-3.63A198.94,198.94,0,0,0,2977,1954.6,5.65,5.65,0,0,1,2971.86,1957.66Z" transform="translate(-51.4 -15.77)"/><circle class="cls-51" cx="3107.81" cy="2035.55" r="188.35"/></g></svg>