<svg id="Layer_1" data-name="Layer 1" xmlns="http://www.w3.org/2000/svg" viewBox="0 0 969.69 506.47"><defs><style>.cls-1{fill:#c10000;}</style></defs><title>red-dotted2</title><path class="cls-1" d="M961.39,194.83a8.32,8.32,0,1,1-8.32,8.32A8.31,8.31,0,0,1,961.39,194.83Z" transform="translate(-0.02 0)"/><path class="cls-1" d="M856.13,191.83a8.32,8.32,0,1,1-8.32,8.32A8.31,8.31,0,0,1,856.13,191.83Z" transform="translate(-0.02 0)"/><path class="cls-1" d="M750.86,191.83a8.32,8.32,0,1,1-8.32,8.32A8.31,8.31,0,0,1,750.86,191.83Z" transform="translate(-0.02 0)"/><path class="cls-1" d="M645.59,191.83a8.32,8.32,0,1,1-8.32,8.32A8.31,8.31,0,0,1,645.59,191.83Z" transform="translate(-0.02 0)"/><path class="cls-1" d="M540.32,191.83a8.32,8.32,0,1,1-8.32,8.32A8.31,8.31,0,0,1,540.32,191.83Z" transform="translate(-0.02 0)"/><path class="cls-1" d="M961.39,98.41a8.32,8.32,0,1,1-8.32,8.32A8.31,8.31,0,0,1,961.39,98.41Z" transform="translate(-0.02 0)"/><path class="cls-1" d="M856.13,95.41a8.32,8.32,0,1,1-8.32,8.32A8.31,8.31,0,0,1,856.13,95.41Z" transform="translate(-0.02 0)"/><path class="cls-1" d="M750.86,95.41a8.32,8.32,0,1,1-8.32,8.32A8.31,8.31,0,0,1,750.86,95.41Z" transform="translate(-0.02 0)"/><path class="cls-1" d="M645.59,95.41a8.32,8.32,0,1,1-8.32,8.32A8.31,8.31,0,0,1,645.59,95.41Z" transform="translate(-0.02 0)"/><path class="cls-1" d="M540.32,95.41a8.32,8.32,0,1,1-8.32,8.32A8.31,8.31,0,0,1,540.32,95.41Z" transform="translate(-0.02 0)"/><path class="cls-1" d="M961.39,5a8.32,8.32,0,1,1-8.32,8.32A8.31,8.31,0,0,1,961.39,5Z" transform="translate(-0.02 0)"/><path class="cls-1" d="M856.13,2a8.32,8.32,0,1,1-8.32,8.32A8.31,8.31,0,0,1,856.13,2Z" transform="translate(-0.02 0)"/><path class="cls-1" d="M750.86,2a8.32,8.32,0,1,1-8.32,8.32A8.31,8.31,0,0,1,750.86,2Z" transform="translate(-0.02 0)"/><path class="cls-1" d="M645.59,2a8.32,8.32,0,1,1-8.32,8.32A8.31,8.31,0,0,1,645.59,2Z" transform="translate(-0.02 0)"/><path class="cls-1" d="M540.32,2a8.32,8.32,0,1,1-8.3,8.34v0A8.34,8.34,0,0,1,540.32,2Z" transform="translate(-0.02 0)"/><path class="cls-1" d="M961.39,489.83a8.32,8.32,0,1,1-8.32,8.32A8.32,8.32,0,0,1,961.39,489.83Z" transform="translate(-0.02 0)"/><path class="cls-1" d="M856.13,486.83a8.32,8.32,0,1,1-8.32,8.32A8.32,8.32,0,0,1,856.13,486.83Z" transform="translate(-0.02 0)"/><path class="cls-1" d="M750.86,486.83a8.32,8.32,0,1,1-8.32,8.32A8.32,8.32,0,0,1,750.86,486.83Z" transform="translate(-0.02 0)"/><path class="cls-1" d="M645.59,486.83a8.32,8.32,0,1,1-8.32,8.32A8.32,8.32,0,0,1,645.59,486.83Z" transform="translate(-0.02 0)"/><path class="cls-1" d="M540.32,486.83a8.32,8.32,0,1,1-8.32,8.32A8.32,8.32,0,0,1,540.32,486.83Z" transform="translate(-0.02 0)"/><path class="cls-1" d="M961.39,393.41a8.32,8.32,0,1,1-8.32,8.32A8.31,8.31,0,0,1,961.39,393.41Z" transform="translate(-0.02 0)"/><path class="cls-1" d="M856.13,390.41a8.32,8.32,0,1,1-8.32,8.32A8.31,8.31,0,0,1,856.13,390.41Z" transform="translate(-0.02 0)"/><path class="cls-1" d="M750.86,390.41a8.32,8.32,0,1,1-8.32,8.32A8.31,8.31,0,0,1,750.86,390.41Z" transform="translate(-0.02 0)"/><path class="cls-1" d="M645.59,390.41a8.32,8.32,0,1,1-8.32,8.32A8.31,8.31,0,0,1,645.59,390.41Z" transform="translate(-0.02 0)"/><path class="cls-1" d="M540.32,390.41a8.32,8.32,0,1,1-8.32,8.32A8.31,8.31,0,0,1,540.32,390.41Z" transform="translate(-0.02 0)"/><path class="cls-1" d="M961.39,300a8.32,8.32,0,1,1-8.32,8.32A8.31,8.31,0,0,1,961.39,300Z" transform="translate(-0.02 0)"/><path class="cls-1" d="M856.13,297a8.32,8.32,0,1,1-8.32,8.32A8.31,8.31,0,0,1,856.13,297Z" transform="translate(-0.02 0)"/><path class="cls-1" d="M750.86,297a8.32,8.32,0,1,1-8.32,8.32A8.31,8.31,0,0,1,750.86,297Z" transform="translate(-0.02 0)"/><path class="cls-1" d="M645.59,297a8.32,8.32,0,1,1-8.32,8.32A8.31,8.31,0,0,1,645.59,297Z" transform="translate(-0.02 0)"/><path class="cls-1" d="M540.32,297a8.32,8.32,0,1,1-8.32,8.32A8.31,8.31,0,0,1,540.32,297Z" transform="translate(-0.02 0)"/><path class="cls-1" d="M429.39,192.83a8.32,8.32,0,1,1-8.32,8.32A8.32,8.32,0,0,1,429.39,192.83Z" transform="translate(-0.02 0)"/><path class="cls-1" d="M324.13,189.83a8.32,8.32,0,1,1-8.32,8.32A8.32,8.32,0,0,1,324.13,189.83Z" transform="translate(-0.02 0)"/><path class="cls-1" d="M218.86,189.83a8.32,8.32,0,1,1-8.32,8.32A8.31,8.31,0,0,1,218.86,189.83Z" transform="translate(-0.02 0)"/><path class="cls-1" d="M113.59,189.83a8.32,8.32,0,1,1-8.32,8.32A8.31,8.31,0,0,1,113.59,189.83Z" transform="translate(-0.02 0)"/><path class="cls-1" d="M8.32,189.83A8.32,8.32,0,1,1,0,198.17v0A8.34,8.34,0,0,1,8.32,189.83Z" transform="translate(-0.02 0)"/><path class="cls-1" d="M429.39,96.41a8.32,8.32,0,1,1-8.32,8.32A8.32,8.32,0,0,1,429.39,96.41Z" transform="translate(-0.02 0)"/><path class="cls-1" d="M324.13,93.41a8.32,8.32,0,1,1-8.32,8.32A8.32,8.32,0,0,1,324.13,93.41Z" transform="translate(-0.02 0)"/><path class="cls-1" d="M218.86,93.41a8.32,8.32,0,1,1-8.32,8.32A8.31,8.31,0,0,1,218.86,93.41Z" transform="translate(-0.02 0)"/><path class="cls-1" d="M113.59,93.41a8.32,8.32,0,1,1-8.32,8.32h0A8.34,8.34,0,0,1,113.59,93.41Z" transform="translate(-0.02 0)"/><path class="cls-1" d="M8.32,93.41A8.32,8.32,0,1,1,0,101.75v0A8.34,8.34,0,0,1,8.32,93.41Z" transform="translate(-0.02 0)"/><path class="cls-1" d="M429.39,3a8.32,8.32,0,1,1-8.32,8.32A8.32,8.32,0,0,1,429.39,3Z" transform="translate(-0.02 0)"/><path class="cls-1" d="M324.13,0a8.32,8.32,0,1,1-8.32,8.32A8.32,8.32,0,0,1,324.13,0Z" transform="translate(-0.02 0)"/><path class="cls-1" d="M218.86,0a8.32,8.32,0,1,1-8.32,8.32A8.31,8.31,0,0,1,218.86,0Z" transform="translate(-0.02 0)"/><path class="cls-1" d="M113.59,0a8.32,8.32,0,1,1-8.32,8.32h0A8.34,8.34,0,0,1,113.59,0Z" transform="translate(-0.02 0)"/><path class="cls-1" d="M8.32,0A8.32,8.32,0,1,1,0,8.34v0A8.34,8.34,0,0,1,8.32,0Z" transform="translate(-0.02 0)"/><path class="cls-1" d="M429.39,487.83a8.32,8.32,0,1,1-8.32,8.32A8.33,8.33,0,0,1,429.39,487.83Z" transform="translate(-0.02 0)"/><path class="cls-1" d="M324.13,484.83a8.32,8.32,0,1,1-8.32,8.32A8.33,8.33,0,0,1,324.13,484.83Z" transform="translate(-0.02 0)"/><path class="cls-1" d="M218.86,484.83a8.32,8.32,0,1,1-8.32,8.32A8.32,8.32,0,0,1,218.86,484.83Z" transform="translate(-0.02 0)"/><path class="cls-1" d="M113.59,484.83a8.32,8.32,0,1,1-8.32,8.32A8.32,8.32,0,0,1,113.59,484.83Z" transform="translate(-0.02 0)"/><path class="cls-1" d="M8.32,484.83A8.32,8.32,0,1,1,0,493.17v0A8.34,8.34,0,0,1,8.32,484.83Z" transform="translate(-0.02 0)"/><path class="cls-1" d="M429.39,391.41a8.32,8.32,0,1,1-8.32,8.32A8.32,8.32,0,0,1,429.39,391.41Z" transform="translate(-0.02 0)"/><path class="cls-1" d="M324.13,388.41a8.32,8.32,0,1,1-8.32,8.32A8.32,8.32,0,0,1,324.13,388.41Z" transform="translate(-0.02 0)"/><path class="cls-1" d="M218.86,388.41a8.32,8.32,0,1,1-8.32,8.32A8.31,8.31,0,0,1,218.86,388.41Z" transform="translate(-0.02 0)"/><path class="cls-1" d="M113.59,388.41a8.32,8.32,0,1,1-8.32,8.32A8.31,8.31,0,0,1,113.59,388.41Z" transform="translate(-0.02 0)"/><path class="cls-1" d="M8.32,388.41A8.32,8.32,0,1,1,0,396.75v0A8.34,8.34,0,0,1,8.32,388.41Z" transform="translate(-0.02 0)"/><path class="cls-1" d="M429.39,298a8.32,8.32,0,1,1-8.32,8.32A8.32,8.32,0,0,1,429.39,298Z" transform="translate(-0.02 0)"/><path class="cls-1" d="M324.13,295a8.32,8.32,0,1,1-8.32,8.32A8.32,8.32,0,0,1,324.13,295Z" transform="translate(-0.02 0)"/><path class="cls-1" d="M218.86,295a8.32,8.32,0,1,1-8.32,8.32A8.31,8.31,0,0,1,218.86,295Z" transform="translate(-0.02 0)"/><path class="cls-1" d="M113.59,295a8.32,8.32,0,1,1-8.32,8.32A8.31,8.31,0,0,1,113.59,295Z" transform="translate(-0.02 0)"/><path class="cls-1" d="M8.32,295A8.32,8.32,0,1,1,0,303.34v0A8.34,8.34,0,0,1,8.32,295Z" transform="translate(-0.02 0)"/></svg>