<svg id="Layer_1" data-name="Layer 1" xmlns="http://www.w3.org/2000/svg" viewBox="0 0 969.72 506.47"><title>red-dotted</title><path d="M975.37,210.94a8.32,8.32,0,1,1-8.32,8.32A8.33,8.33,0,0,1,975.37,210.94Z" transform="translate(-13.98 -16.11)"/><path d="M870.11,207.94a8.32,8.32,0,1,1-8.32,8.32A8.33,8.33,0,0,1,870.11,207.94Z" transform="translate(-13.98 -16.11)"/><path d="M764.84,207.94a8.32,8.32,0,1,1-8.32,8.32A8.33,8.33,0,0,1,764.84,207.94Z" transform="translate(-13.98 -16.11)"/><path d="M659.57,207.94a8.32,8.32,0,1,1-8.32,8.32A8.33,8.33,0,0,1,659.57,207.94Z" transform="translate(-13.98 -16.11)"/><path d="M554.3,207.94a8.32,8.32,0,1,1-8.32,8.32A8.33,8.33,0,0,1,554.3,207.94Z" transform="translate(-13.98 -16.11)"/><path d="M975.37,114.52a8.32,8.32,0,1,1-8.32,8.32A8.33,8.33,0,0,1,975.37,114.52Z" transform="translate(-13.98 -16.11)"/><path d="M870.11,111.52a8.32,8.32,0,1,1-8.32,8.32A8.34,8.34,0,0,1,870.11,111.52Z" transform="translate(-13.98 -16.11)"/><path d="M764.84,111.52a8.32,8.32,0,1,1-8.32,8.32A8.33,8.33,0,0,1,764.84,111.52Z" transform="translate(-13.98 -16.11)"/><path d="M659.57,111.52a8.32,8.32,0,1,1-8.32,8.32A8.33,8.33,0,0,1,659.57,111.52Z" transform="translate(-13.98 -16.11)"/><path d="M554.3,111.52a8.32,8.32,0,1,1-8.32,8.32A8.33,8.33,0,0,1,554.3,111.52Z" transform="translate(-13.98 -16.11)"/><path d="M975.37,21.11a8.32,8.32,0,1,1-8.32,8.32A8.33,8.33,0,0,1,975.37,21.11Z" transform="translate(-13.98 -16.11)"/><path d="M870.11,18.11a8.32,8.32,0,1,1-8.32,8.32A8.33,8.33,0,0,1,870.11,18.11Z" transform="translate(-13.98 -16.11)"/><path d="M764.84,18.11a8.32,8.32,0,1,1-8.32,8.32A8.33,8.33,0,0,1,764.84,18.11Z" transform="translate(-13.98 -16.11)"/><path d="M659.57,18.11a8.32,8.32,0,1,1-8.32,8.32A8.33,8.33,0,0,1,659.57,18.11Z" transform="translate(-13.98 -16.11)"/><path d="M554.3,18.11A8.32,8.32,0,1,1,546,26.43,8.33,8.33,0,0,1,554.3,18.11Z" transform="translate(-13.98 -16.11)"/><path d="M975.37,505.94a8.32,8.32,0,1,1-8.32,8.32A8.33,8.33,0,0,1,975.37,505.94Z" transform="translate(-13.98 -16.11)"/><path d="M870.11,502.94a8.32,8.32,0,1,1-8.32,8.32A8.33,8.33,0,0,1,870.11,502.94Z" transform="translate(-13.98 -16.11)"/><path d="M764.84,502.94a8.32,8.32,0,1,1-8.32,8.32A8.33,8.33,0,0,1,764.84,502.94Z" transform="translate(-13.98 -16.11)"/><path d="M659.57,502.94a8.32,8.32,0,1,1-8.32,8.32A8.33,8.33,0,0,1,659.57,502.94Z" transform="translate(-13.98 -16.11)"/><path d="M554.3,502.94a8.32,8.32,0,1,1-8.32,8.32A8.33,8.33,0,0,1,554.3,502.94Z" transform="translate(-13.98 -16.11)"/><path d="M975.37,409.52a8.32,8.32,0,1,1-8.32,8.32A8.33,8.33,0,0,1,975.37,409.52Z" transform="translate(-13.98 -16.11)"/><path d="M870.11,406.52a8.32,8.32,0,1,1-8.32,8.32A8.34,8.34,0,0,1,870.11,406.52Z" transform="translate(-13.98 -16.11)"/><path d="M764.84,406.52a8.32,8.32,0,1,1-8.32,8.32A8.33,8.33,0,0,1,764.84,406.52Z" transform="translate(-13.98 -16.11)"/><path d="M659.57,406.52a8.32,8.32,0,1,1-8.32,8.32A8.33,8.33,0,0,1,659.57,406.52Z" transform="translate(-13.98 -16.11)"/><path d="M554.3,406.52a8.32,8.32,0,1,1-8.32,8.32A8.33,8.33,0,0,1,554.3,406.52Z" transform="translate(-13.98 -16.11)"/><path d="M975.37,316.11a8.32,8.32,0,1,1-8.32,8.32A8.33,8.33,0,0,1,975.37,316.11Z" transform="translate(-13.98 -16.11)"/><path d="M870.11,313.11a8.32,8.32,0,1,1-8.32,8.32A8.33,8.33,0,0,1,870.11,313.11Z" transform="translate(-13.98 -16.11)"/><path d="M764.84,313.11a8.32,8.32,0,1,1-8.32,8.32A8.33,8.33,0,0,1,764.84,313.11Z" transform="translate(-13.98 -16.11)"/><path d="M659.57,313.11a8.32,8.32,0,1,1-8.32,8.32A8.33,8.33,0,0,1,659.57,313.11Z" transform="translate(-13.98 -16.11)"/><path d="M554.3,313.11a8.32,8.32,0,1,1-8.32,8.32A8.33,8.33,0,0,1,554.3,313.11Z" transform="translate(-13.98 -16.11)"/><path d="M443.37,208.94a8.32,8.32,0,1,1-8.32,8.32A8.33,8.33,0,0,1,443.37,208.94Z" transform="translate(-13.98 -16.11)"/><path d="M338.11,205.94a8.32,8.32,0,1,1-8.32,8.32A8.33,8.33,0,0,1,338.11,205.94Z" transform="translate(-13.98 -16.11)"/><path d="M232.84,205.94a8.32,8.32,0,1,1-8.32,8.32A8.33,8.33,0,0,1,232.84,205.94Z" transform="translate(-13.98 -16.11)"/><path d="M127.57,205.94a8.32,8.32,0,1,1-8.32,8.32A8.33,8.33,0,0,1,127.57,205.94Z" transform="translate(-13.98 -16.11)"/><path d="M22.3,205.94A8.32,8.32,0,1,1,14,214.26,8.33,8.33,0,0,1,22.3,205.94Z" transform="translate(-13.98 -16.11)"/><path d="M443.37,112.52a8.32,8.32,0,1,1-8.32,8.32A8.33,8.33,0,0,1,443.37,112.52Z" transform="translate(-13.98 -16.11)"/><path d="M338.11,109.52a8.32,8.32,0,1,1-8.32,8.32A8.34,8.34,0,0,1,338.11,109.52Z" transform="translate(-13.98 -16.11)"/><path d="M232.84,109.52a8.32,8.32,0,1,1-8.32,8.32A8.33,8.33,0,0,1,232.84,109.52Z" transform="translate(-13.98 -16.11)"/><path d="M127.57,109.52a8.32,8.32,0,1,1-8.32,8.32A8.33,8.33,0,0,1,127.57,109.52Z" transform="translate(-13.98 -16.11)"/><path d="M22.3,109.52A8.32,8.32,0,1,1,14,117.84,8.33,8.33,0,0,1,22.3,109.52Z" transform="translate(-13.98 -16.11)"/><path d="M443.37,19.11a8.32,8.32,0,1,1-8.32,8.32A8.33,8.33,0,0,1,443.37,19.11Z" transform="translate(-13.98 -16.11)"/><path d="M338.11,16.11a8.32,8.32,0,1,1-8.32,8.32A8.33,8.33,0,0,1,338.11,16.11Z" transform="translate(-13.98 -16.11)"/><path d="M232.84,16.11a8.32,8.32,0,1,1-8.32,8.32A8.33,8.33,0,0,1,232.84,16.11Z" transform="translate(-13.98 -16.11)"/><path d="M127.57,16.11a8.32,8.32,0,1,1-8.32,8.32A8.33,8.33,0,0,1,127.57,16.11Z" transform="translate(-13.98 -16.11)"/><path d="M22.3,16.11A8.32,8.32,0,1,1,14,24.43,8.33,8.33,0,0,1,22.3,16.11Z" transform="translate(-13.98 -16.11)"/><path d="M443.37,503.94a8.32,8.32,0,1,1-8.32,8.32A8.33,8.33,0,0,1,443.37,503.94Z" transform="translate(-13.98 -16.11)"/><path d="M338.11,500.94a8.32,8.32,0,1,1-8.32,8.32A8.33,8.33,0,0,1,338.11,500.94Z" transform="translate(-13.98 -16.11)"/><path d="M232.84,500.94a8.32,8.32,0,1,1-8.32,8.32A8.33,8.33,0,0,1,232.84,500.94Z" transform="translate(-13.98 -16.11)"/><path d="M127.57,500.94a8.32,8.32,0,1,1-8.32,8.32A8.33,8.33,0,0,1,127.57,500.94Z" transform="translate(-13.98 -16.11)"/><path d="M22.3,500.94A8.32,8.32,0,1,1,14,509.26,8.33,8.33,0,0,1,22.3,500.94Z" transform="translate(-13.98 -16.11)"/><path d="M443.37,407.52a8.32,8.32,0,1,1-8.32,8.32A8.33,8.33,0,0,1,443.37,407.52Z" transform="translate(-13.98 -16.11)"/><path d="M338.11,404.52a8.32,8.32,0,1,1-8.32,8.32A8.34,8.34,0,0,1,338.11,404.52Z" transform="translate(-13.98 -16.11)"/><path d="M232.84,404.52a8.32,8.32,0,1,1-8.32,8.32A8.33,8.33,0,0,1,232.84,404.52Z" transform="translate(-13.98 -16.11)"/><path d="M127.57,404.52a8.32,8.32,0,1,1-8.32,8.32A8.33,8.33,0,0,1,127.57,404.52Z" transform="translate(-13.98 -16.11)"/><path d="M22.3,404.52A8.32,8.32,0,1,1,14,412.84,8.33,8.33,0,0,1,22.3,404.52Z" transform="translate(-13.98 -16.11)"/><path d="M443.37,314.11a8.32,8.32,0,1,1-8.32,8.32A8.33,8.33,0,0,1,443.37,314.11Z" transform="translate(-13.98 -16.11)"/><path d="M338.11,311.11a8.32,8.32,0,1,1-8.32,8.32A8.33,8.33,0,0,1,338.11,311.11Z" transform="translate(-13.98 -16.11)"/><path d="M232.84,311.11a8.32,8.32,0,1,1-8.32,8.32A8.33,8.33,0,0,1,232.84,311.11Z" transform="translate(-13.98 -16.11)"/><path d="M127.57,311.11a8.32,8.32,0,1,1-8.32,8.32A8.33,8.33,0,0,1,127.57,311.11Z" transform="translate(-13.98 -16.11)"/><path d="M22.3,311.11A8.32,8.32,0,1,1,14,319.43,8.33,8.33,0,0,1,22.3,311.11Z" transform="translate(-13.98 -16.11)"/></svg>