<svg id="Layer_1" data-name="Layer 1" xmlns="http://www.w3.org/2000/svg" viewBox="0 0 489 361.48"><defs><style>.cls-1,.cls-2{fill:#fff;}.cls-2{fill-rule:evenodd;}</style></defs><title>rocket-stars</title><path class="cls-1" d="M247.55,227.52a15.07,15.07,0,1,0,15.1,15.07A15.06,15.06,0,0,0,247.55,227.52Zm0,0a15.07,15.07,0,1,0,15.1,15.07A15.06,15.06,0,0,0,247.55,227.52Zm0,0a15.07,15.07,0,1,0,15.1,15.07A15.06,15.06,0,0,0,247.55,227.52Zm0,0a15.07,15.07,0,1,0,15.1,15.07A15.06,15.06,0,0,0,247.55,227.52Zm0,0a15.07,15.07,0,1,0,15.1,15.07A15.06,15.06,0,0,0,247.55,227.52Zm0-67.29a109.24,109.24,0,0,0-43.16,209.58c21.64-14,28.91-52.14,30.74-64.55H232.4A9.86,9.86,0,0,1,224,300.6c-.45-.73-.94-1.47-1.35-2.24-14.29,4.41-15.8,26.05-18.62,38.75-.57,2.61-4.57,2.9-5.59.36-16.86-41.77,5.8-69.08,12-75.49-1.47-15.8,2-30.38,7.27-42.87H276.7c5.47,12.74,8.94,27.64,7.27,43.85.08-.49.12-.94.16-1.43,5.67,5.72,29.6,33.11,12.57,75.74a3,3,0,0,1-5.55-.37c-2.86-12.7-4.49-34.42-18.9-38.66V298c-.49.82-1,1.68-1.51,2.49a9.91,9.91,0,0,1-8.37,4.7H260c1.8,12.37,9.06,50.55,30.74,64.55a109.22,109.22,0,0,0-43.19-209.54ZM221,212.29a126.71,126.71,0,0,1,26.09-34.79.14.14,0,0,1,.08,0l.08,0a128,128,0,0,1,26.25,34.79Zm26.58,15.23a15.07,15.07,0,1,0,15.1,15.07A15.06,15.06,0,0,0,247.55,227.52Zm0,0a15.07,15.07,0,1,0,15.1,15.07A15.06,15.06,0,0,0,247.55,227.52Zm0,0a15.07,15.07,0,1,0,15.1,15.07A15.06,15.06,0,0,0,247.55,227.52Zm0,0a15.07,15.07,0,1,0,15.1,15.07A15.06,15.06,0,0,0,247.55,227.52Zm0,0a15.07,15.07,0,1,0,15.1,15.07A15.06,15.06,0,0,0,247.55,227.52Z" transform="translate(-5 -8.33)"/><path class="cls-2" d="M31.07,185.5l3,5.52a44.07,44.07,0,0,0,17.53,17.53l5.52,3-5.52,3a44.13,44.13,0,0,0-17.53,17.53l-3,5.52-3-5.52a44.19,44.19,0,0,0-17.53-17.53l-5.52-3,5.52-3A44.13,44.13,0,0,0,28.05,191Z" transform="translate(-5 -8.33)"/><path class="cls-2" d="M249.62,8.33l2.87,5.25a41.81,41.81,0,0,0,16.65,16.65l5.24,2.87L269.14,36a41.81,41.81,0,0,0-16.65,16.65l-2.87,5.24-2.87-5.24A41.81,41.81,0,0,0,230.1,36l-5.25-2.87,5.25-2.87a41.81,41.81,0,0,0,16.65-16.65Z" transform="translate(-5 -8.33)"/><path class="cls-2" d="M467.93,171.45l3,5.52a44.07,44.07,0,0,0,17.53,17.53l5.52,3-5.52,3A44.13,44.13,0,0,0,471,218.07l-3,5.52-3-5.52a44.07,44.07,0,0,0-17.53-17.53l-5.52-3,5.52-3A44,44,0,0,0,464.91,177Z" transform="translate(-5 -8.33)"/></svg>