<svg xmlns="http://www.w3.org/2000/svg" viewBox="0 0 3365 2872"><defs><style>.cls-1{isolation:isolate;}.cls-17,.cls-2{fill:#fff;}.cls-3,.cls-5{fill:#c10000;}.cls-3{opacity:0.6;}.cls-4{fill:#9bc1f9;opacity:0.3;mix-blend-mode:multiply;}.cls-6{fill:#3c8f7c;}.cls-7{fill:#96d9c9;}.cls-8{fill:#50bfa5;}.cls-9{fill:#0e2e35;}.cls-10{fill:#e59f39;}.cls-11{fill:#eab054;}.cls-12{fill:#f7cc7f;}.cls-13{fill:#843722;}.cls-14{fill:#f47458;}.cls-15{fill:#184655;}.cls-16{fill:#3d0c02;}.cls-17{opacity:0.8;}</style></defs><title>seamless-invest</title><g class="cls-1"><g id="Layer_1" data-name="Layer 1"><rect class="cls-2" y="488" width="3365" height="2000"/><rect class="cls-3" x="2318.3" y="154.17" width="224.2" height="2696.35"/><rect class="cls-3" x="2005.19" y="976.62" width="224.2" height="1873.9"/><rect class="cls-3" x="2635.92" y="738.36" width="224.2" height="2112.16"/><rect class="cls-3" x="1692.08" y="655.29" width="224.2" height="2195.23"/><rect class="cls-3" x="1378.97" y="1306.17" width="224.2" height="1544.35"/><rect class="cls-4" x="2318.3" y="775.6" width="224.2" height="2074.92"/><rect class="cls-4" x="2005.19" y="1408.5" width="224.2" height="1442.02"/><rect class="cls-4" x="2635.92" y="1225.15" width="224.2" height="1625.37"/><rect class="cls-4" x="1692.08" y="1161.23" width="224.2" height="1689.29"/><rect class="cls-4" x="1378.97" y="1662.1" width="224.2" height="1188.42"/><polygon class="cls-5" points="2969.1 174.8 2790.45 384.73 2858.59 391.48 2432.13 1557.69 2196 1007.63 1861.96 2218.23 1647.11 1744.07 1379.32 2332.23 1396.17 2437.5 1646.99 1889.27 1874.11 2390.47 2206.92 1184.32 2436.02 1718.01 2908.17 426.9 2952 500.14 2969.1 174.8"/><path class="cls-6" d="M1175.06,2752.64c-256.37-317.2-471.78-727.48-634.88-1209.22L187.56,1983.54c188.58,557,437.64,1031.37,734.06,1398.13Z" transform="translate(0 -681.78)"/><path class="cls-7" d="M485,1658.45l-219,277.76C283.31,1986.57,277,2054.52,251.1,2089c165.78,455.44,373.54,851.15,615.47,1172.25,19.78-46.12,57.07-55.08,83.86-21.3l159.81-390.57c-24.66-31.09-28.18-94.62-8.41-140.71-212.45-282-394.9-629.47-540.48-1029.42C535.47,1713.68,501,1704.79,485,1658.45Z" transform="translate(0 -681.78)"/><path class="cls-8" d="M780,2699.59c54.74-109.75,54.21-271.68,2.58-368.55-51.78-96.61-140.23-101.17-201.43-3.49-61.09,97.48-66.93,270.74-8.73,379.52S725.4,2809.18,780,2699.59Z" transform="translate(0 -681.78)"/><path class="cls-6" d="M776.4,2388.12q-10.3,17.8-20.63,35.59c16.45,46.87,13,95.29-4.77,126.94-17.91,31.86-38,34.81-68.54,6.66-22.21-19.49-32.88-25.24-39.64-13.85-5.73,9.62-7.62,27.07,4.51,50.9,6.59,12.93,13.18,21.57,19,27.65,7.78,8.12,10.23,26.46,5.44,40.57h0c-4.63,13.63-14.41,18.16-21.9,9.86-6.12-6.78-12.8-16-20-28.86L612,2674.18q-9.36-18.21-18.59-36.62,9.72-16.35,19.43-32.72c-15.71-47.17-12.59-94.05,5.65-123.8,20.14-32.86,43.42-22.77,70.12,3.25,18.5,17.94,29.23,20.77,36.9,7.52,8.08-14,5.45-35.33-4.73-55.49a121,121,0,0,0-23.09-32.23c-7.86-7.69-10-26.49-4.71-40.54l.57-1.54c4.8-12.76,14-17.08,20.93-10,8.37,8.5,17.38,20.62,25.33,35q9.69-16.41,19.38-32.83Q767.74,2371.24,776.4,2388.12Z" transform="translate(0 -681.78)"/><path class="cls-8" d="M982,2982q-87.64-116.58-168.76-246.86l-27.79,56.14q82.2,132,171.13,250.32Q969.29,3011.83,982,2982Z" transform="translate(0 -681.78)"/><path class="cls-6" d="M1122.78,2624.75C800.77,2561.3,485,2393.9,192,2131.37Q108.46,2435.5,24.91,2739.62c338.73,303.54,703.88,497.1,1076.2,570.46Q1112,2967.42,1122.78,2624.75Z" transform="translate(0 -681.78)"/><path class="cls-7" d="M180.35,2263.2,77.93,2644.5c30.92,27.2,46.84,85.76,35.24,132.14,287,239.69,591.6,401.15,902.33,478.3,2.63-51.14,32.12-85.62,66-78.49q7.79-213.67,15.58-427.33c-31.15-6.57-54.2-54.4-51.57-105.5-272.87-67.75-540.35-209.53-792.39-420C241.5,2270,208.8,2288.23,180.35,2263.2Z" transform="translate(0 -681.78)"/><path class="cls-9" d="M974.92,1615A166.87,166.87,0,0,1,952,1600.83c-8.4-6.27-19.27-13.61-26.14-15.25-14.46-3.46-39.31-1.15-53,21.89-17.09,28.71-47.46,5.19-41.34,155.56,6.92,170.2,68,151.52,69.52,148.64s54.51-108.89,54.51-108.89,18.54,62.8,18.54,60.49S1068.73,1664,974.92,1615Z" transform="translate(0 -681.78)"/><path class="cls-6" d="M1039.33,2737.09C786,2892.62,506.44,2963.72,215.44,2946.64q29,288.59,57.94,577.17c336.46,19.75,659.67-62.46,952.6-242.29Q1132.67,3009.32,1039.33,2737.09Z" transform="translate(0 -681.78)"/><path class="cls-7" d="M245.9,3056.12q19,180.18,38,360.34c30.56,1.41,59.45,36.63,64.7,79.92,279.91,3.18,549.52-65.39,798.7-203.14-13.19-41.27-1.89-86.71,24.88-102.71l-114.88-340.78c-24.63,14.71-55.56-7.68-68.74-48.91C769.77,2921.8,533,2982,287.2,2979.22,292.45,3022.48,274,3057.42,245.9,3056.12Z" transform="translate(0 -681.78)"/><path class="cls-8" d="M851,3157.33c-28.21-106.77-103.51-173.3-169.83-155.64-66.27,17.91-105,115-85.11,224,19.88,108.79,97.8,187.15,172.37,167.07S879.18,3263.9,851,3157.33Z" transform="translate(0 -681.78)"/><path class="cls-6" d="M705.06,3032.29l8,37.86c28.56,1,49.57,25,56.89,57.95,7.35,33.25.41,56.93-25.32,79.49-18.24,16.78-25.33,26.34-22.85,38.64,2.08,10.39,9.39,19.75,25.47,16a53.58,53.58,0,0,0,20.7-9.81c7-5.34,16.51-.49,21.07,10.72h0c4.4,10.84,2.44,23.66-4.51,28.61a75.24,75.24,0,0,1-21.68,10.45q3.4,16.34,6.79,32.67-12.32,2.93-24.68,5.63-3.55-17.65-7.12-35.32c-28.39-1.95-48.84-24.88-55.07-57.64-6.89-36.16,7.44-58,30.57-77.14,16-13.28,21.75-24.12,18.78-38.2-3.14-14.84-14.12-20.74-27.69-17.7A59.36,59.36,0,0,0,679.84,3127c-6.82,5.61-16.42.21-20.75-11.53-.16-.43-.32-.85-.47-1.28-3.93-10.65-2.14-22.69,4-27.57a80.56,80.56,0,0,1,26.74-13.85q-3.6-17.65-7.19-35.3Q693.65,3035,705.06,3032.29Z" transform="translate(0 -681.78)"/><path class="cls-8" d="M1065.69,3048.29a1567.37,1567.37,0,0,1-184.42,86.6q7.26,27.2,14.51,54.37a1588.39,1588.39,0,0,0,187-87.82Z" transform="translate(0 -681.78)"/><path class="cls-10" d="M621.33,3371.59v140.93c0,22.79,163.59,41.26,365.39,41.26s365.39-18.47,365.39-41.26V3371.59Z" transform="translate(0 -681.78)"/><path class="cls-11" d="M885.75,3552.18V3371.59H621.33v140.93C621.33,3531.35,733.06,3547.24,885.75,3552.18Z" transform="translate(0 -681.78)"/><path class="cls-11" d="M898.06,3552.56c28.39.8,58.08,1.22,88.66,1.22,45.56,0,89.17-.94,129.39-2.66V3371.59h-218Z" transform="translate(0 -681.78)"/><path class="cls-11" d="M1130.75,3550.45c130.18-6.31,221.36-20.92,221.36-37.93V3371.59H1130.75Z" transform="translate(0 -681.78)"/><ellipse class="cls-10" cx="986.72" cy="2688.31" rx="365.39" ry="41.25"/><path class="cls-12" d="M1287.61,3370.09c0,15.8-134.71,28.6-300.89,28.6s-300.89-12.8-300.89-28.6,134.71-28.6,300.89-28.6S1287.61,3354.29,1287.61,3370.09Z" transform="translate(0 -681.78)"/><path class="cls-10" d="M558.81,3222.45v140.94c0,22.78,163.59,41.25,365.39,41.25s365.4-18.47,365.4-41.25V3222.45Z" transform="translate(0 -681.78)"/><path class="cls-11" d="M823.24,3403V3222.45H558.81v140.94C558.81,3382.22,670.54,3398.1,823.24,3403Z" transform="translate(0 -681.78)"/><path class="cls-11" d="M835.55,3403.42c28.38.8,58.08,1.22,88.65,1.22,45.56,0,89.17-.94,129.39-2.66V3222.45h-218Z" transform="translate(0 -681.78)"/><path class="cls-11" d="M1068.24,3401.31c130.18-6.31,221.36-20.91,221.36-37.92V3222.45H1068.24Z" transform="translate(0 -681.78)"/><ellipse class="cls-10" cx="924.2" cy="2539.17" rx="365.39" ry="41.25"/><path class="cls-12" d="M1225.09,3221c0,15.8-134.71,28.6-300.89,28.6s-300.89-12.8-300.89-28.6,134.71-28.6,300.89-28.6S1225.09,3205.15,1225.09,3221Z" transform="translate(0 -681.78)"/><path class="cls-10" d="M600.46,3069.35v140.93c0,22.79,163.59,41.26,365.39,41.26s365.4-18.47,365.4-41.26V3069.35Z" transform="translate(0 -681.78)"/><path class="cls-11" d="M864.89,3249.94V3069.35H600.46v140.93C600.46,3229.11,712.2,3245,864.89,3249.94Z" transform="translate(0 -681.78)"/><path class="cls-11" d="M877.2,3250.31c28.38.8,58.08,1.23,88.65,1.23,45.56,0,89.18-.95,129.4-2.67V3069.35h-218Z" transform="translate(0 -681.78)"/><path class="cls-11" d="M1109.89,3248.21c130.18-6.31,221.36-20.92,221.36-37.93V3069.35H1109.89Z" transform="translate(0 -681.78)"/><ellipse class="cls-10" cx="965.85" cy="2386.07" rx="365.39" ry="41.25"/><path class="cls-12" d="M1266.75,3067.85c0,15.8-134.72,28.6-300.9,28.6S665,3083.65,665,3067.85s134.72-28.61,300.89-28.61S1266.75,3052.05,1266.75,3067.85Z" transform="translate(0 -681.78)"/><path class="cls-10" d="M558.81,2918.34v140.94c0,22.78,163.59,41.25,365.39,41.25s365.4-18.47,365.4-41.25V2918.34Z" transform="translate(0 -681.78)"/><path class="cls-11" d="M823.24,3098.94v-180.6H558.81v140.94C558.81,3078.11,670.54,3094,823.24,3098.94Z" transform="translate(0 -681.78)"/><path class="cls-11" d="M835.55,3099.31c28.38.8,58.08,1.22,88.65,1.22,45.56,0,89.17-.94,129.39-2.66V2918.34h-218Z" transform="translate(0 -681.78)"/><path class="cls-11" d="M1068.24,3097.2c130.18-6.31,221.36-20.91,221.36-37.92V2918.34H1068.24Z" transform="translate(0 -681.78)"/><ellipse class="cls-10" cx="924.2" cy="2235.06" rx="365.39" ry="41.25"/><path class="cls-12" d="M1225.09,2916.84c0,15.8-134.71,28.61-300.89,28.61s-300.89-12.81-300.89-28.61,134.71-28.6,300.89-28.6S1225.09,2901.05,1225.09,2916.84Z" transform="translate(0 -681.78)"/><path class="cls-10" d="M3117.1,3359.54v135.54c0,21.91-157.32,39.67-351.38,39.67s-351.38-17.76-351.38-39.67V3359.54Z" transform="translate(0 -681.78)"/><path class="cls-11" d="M2862.81,3533.22V3359.54H3117.1v135.54C3117.1,3513.19,3009.65,3528.46,2862.81,3533.22Z" transform="translate(0 -681.78)"/><path class="cls-11" d="M2851,3533.58c-27.29.76-55.85,1.17-85.25,1.17-43.82,0-85.75-.9-124.43-2.56V3359.54H2851Z" transform="translate(0 -681.78)"/><path class="cls-11" d="M2627.21,3531.55c-125.19-6.07-212.87-20.11-212.87-36.47V3359.54h212.87Z" transform="translate(0 -681.78)"/><ellipse class="cls-10" cx="2765.72" cy="2676.32" rx="351.38" ry="39.67"/><path class="cls-12" d="M2476.36,3358.1c0,15.2,129.55,27.51,289.36,27.51s289.35-12.31,289.35-27.51-129.55-27.5-289.35-27.5S2476.36,3342.91,2476.36,3358.1Z" transform="translate(0 -681.78)"/><path class="cls-10" d="M3177.22,3216.12v135.54c0,21.91-157.32,39.67-351.38,39.67s-351.39-17.76-351.39-39.67V3216.12Z" transform="translate(0 -681.78)"/><path class="cls-11" d="M2922.93,3389.8V3216.12h254.29v135.54C3177.22,3369.77,3069.77,3385,2922.93,3389.8Z" transform="translate(0 -681.78)"/><path class="cls-11" d="M2911.09,3390.15c-27.29.77-55.85,1.18-85.25,1.18-43.82,0-85.76-.91-124.44-2.56V3216.12h209.69Z" transform="translate(0 -681.78)"/><path class="cls-11" d="M2687.32,3388.13c-125.19-6.07-212.87-20.11-212.87-36.47V3216.12h212.87Z" transform="translate(0 -681.78)"/><ellipse class="cls-10" cx="2825.84" cy="2532.9" rx="351.38" ry="39.67"/><ellipse class="cls-12" cx="2825.84" cy="2532.9" rx="289.36" ry="27.51"/><path class="cls-10" d="M3137.16,3068.89v135.53c0,21.91-157.32,39.68-351.38,39.68s-351.38-17.77-351.38-39.68V3068.89Z" transform="translate(0 -681.78)"/><path class="cls-11" d="M2882.87,3242.56V3068.89h254.29v135.53C3137.16,3222.53,3029.71,3237.81,2882.87,3242.56Z" transform="translate(0 -681.78)"/><path class="cls-11" d="M2871,3242.92c-27.3.77-55.86,1.18-85.26,1.18-43.81,0-85.75-.91-124.43-2.56V3068.89H2871Z" transform="translate(0 -681.78)"/><path class="cls-11" d="M2647.27,3240.9c-125.19-6.07-212.87-20.12-212.87-36.48V3068.89h212.87Z" transform="translate(0 -681.78)"/><ellipse class="cls-10" cx="2785.78" cy="2385.67" rx="351.38" ry="39.67"/><ellipse class="cls-12" cx="2785.78" cy="2385.67" rx="289.36" ry="27.51"/><path class="cls-10" d="M3177.22,2923.68v135.53c0,21.91-157.32,39.67-351.38,39.67s-351.39-17.76-351.39-39.67V2923.68Z" transform="translate(0 -681.78)"/><path class="cls-11" d="M2922.93,3097.35V2923.68h254.29v135.53C3177.22,3077.32,3069.77,3092.59,2922.93,3097.35Z" transform="translate(0 -681.78)"/><path class="cls-11" d="M2911.09,3097.71c-27.29.76-55.85,1.17-85.25,1.17-43.82,0-85.76-.9-124.44-2.56V2923.68h209.69Z" transform="translate(0 -681.78)"/><path class="cls-11" d="M2687.32,3095.68c-125.19-6.07-212.87-20.11-212.87-36.47V2923.68h212.87Z" transform="translate(0 -681.78)"/><ellipse class="cls-10" cx="2825.84" cy="2240.46" rx="351.38" ry="39.67"/><ellipse class="cls-12" cx="2825.84" cy="2240.46" rx="289.36" ry="27.51"/><path class="cls-10" d="M3340.71,2759l-21.11,114.49c-3.41,18.51-139.08-25.63-303-98.59s-294.08-147.11-290.67-165.62l21.11-114.5Z" transform="translate(0 -681.78)"/><path class="cls-11" d="M3098.84,2810.09l27-146.72L3340.71,2759l-21.11,114.49C3316.78,2888.77,3223.63,2861.28,3098.84,2810.09Z" transform="translate(0 -681.78)"/><path class="cls-11" d="M3088.79,2805.94c-23.18-9.61-47.37-20-72.21-31.06-37-16.47-72.3-33-104.72-48.94l26.89-145.85,177.14,78.83Z" transform="translate(0 -681.78)"/><path class="cls-11" d="M2900.07,2720.1c-104.82-52.19-176.7-97-174.16-110.84l21.11-114.5,179.83,80Z" transform="translate(0 -681.78)"/><path class="cls-10" d="M2747.25,2493.54c-3.42,18.51,126.72,92.67,290.66,165.63s299.61,117.1,303,98.59-126.72-92.66-290.66-165.62S2750.66,2475,2747.25,2493.54Z" transform="translate(0 -681.78)"/><path class="cls-12" d="M2799.65,2516.86c-2.37,12.84,105.15,71.95,240.16,132s246.36,98.39,248.72,85.55-105.15-71.94-240.16-132S2802,2504,2799.65,2516.86Z" transform="translate(0 -681.78)"/><path class="cls-10" d="M3148.72,1971l22.47,113.86c3.64,18.41-125.59,96.31-288.63,174s-298.15,125.74-301.79,107.34l-22.47-113.87Z" transform="translate(0 -681.78)"/><path class="cls-11" d="M2963.88,2218.65l-28.8-145.91L3148.72,1971l22.47,113.86C3174.2,2100,3086.46,2155.87,2963.88,2218.65Z" transform="translate(0 -681.78)"/><path class="cls-11" d="M2954,2223.69c-22.81,11.58-46.74,23.35-71.44,35.12-36.81,17.54-72.19,33.57-105,47.66l-28.63-145,176.17-83.95Z" transform="translate(0 -681.78)"/><path class="cls-11" d="M2765.66,2311.57c-106.18,45-182.17,68.32-184.89,54.58l-22.47-113.87,178.84-85.22Z" transform="translate(0 -681.78)"/><path class="cls-10" d="M2558.06,2251.07c3.63,18.41,138.75-29.65,301.79-107.34s292.26-155.59,288.63-174-138.75,29.64-301.79,107.33S2554.43,2232.66,2558.06,2251.07Z" transform="translate(0 -681.78)"/><path class="cls-12" d="M2610.17,2226.24c2.52,12.76,113.4-28.75,247.66-92.73s241.06-126.18,238.54-138.94-113.4,28.75-247.66,92.72S2607.65,2213.48,2610.17,2226.24Z" transform="translate(0 -681.78)"/><path class="cls-13" d="M1222.13,3387.63s8.69,71.61,8.7,71.76c.48,9.33.3,32.92,1.6,41.07,4.88,30.62,87.77-43.8,66-49.78-2-.54-16.23-23-19.5-32.47-5.68-16.52-10.91-47.31-10.91-47.31Z" transform="translate(0 -681.78)"/><path class="cls-14" d="M1294.34,3446.21s-21.4,8.23-32.29,9.92-24.87-24.59-32.68-19.62c-8.59,5.47-13.27,88.86-13.27,88.86s136.73,9.68,169-4.19C1397.94,3515.69,1336.88,3471.54,1294.34,3446.21Z" transform="translate(0 -681.78)"/><path class="cls-13" d="M1412.79,3384.37s8.68,71.61,8.69,71.76c.49,9.33.3,32.92,1.6,41.07,4.88,30.62,86.24-38.91,64.5-44.89-2-.54-14.71-27.87-18-37.36-5.68-16.52-10.91-47.31-10.91-47.31Z" transform="translate(0 -681.78)"/><path class="cls-14" d="M1482.89,3446.21s-21.4,8.23-32.29,9.92-24.87-24.59-32.68-19.62c-8.59,5.47-13.27,88.86-13.27,88.86s136.73,9.68,169-4.19C1586.49,3515.69,1525.43,3471.54,1482.89,3446.21Z" transform="translate(0 -681.78)"/><path class="cls-9" d="M938.72,2667.54l248.74-89.65s111.54-45.82,138.47,8S1467.2,3382,1467.2,3382s-59,8-62.83,4l-138.06-380.74c-13.13-36.22-21.77-75.94-25.47-117.11l-9.79-109-101.29,45.82s-116.68,39.84-164.12-6S938.72,2667.54,938.72,2667.54Z" transform="translate(0 -681.78)"/><path class="cls-11" d="M1034.24,2001.24c3.93.25,14.69,5.83,30.44,51.9,20.1,58.84,49.48,236.57,49.48,236.57l-87.71,50.58-11.26-37.1-18.56-285.6S1033.15,2001.17,1034.24,2001.24Z" transform="translate(0 -681.78)"/><path class="cls-12" d="M918.29,1975.62c25.08.05,87.14,11.38,116,25.63,0,0,21.16,281.62-19,495.61-9,47.9,7.44,198.57,7.44,198.57l-259.9-5.31s30.79-364.25,19.19-423.09-11.87-263.88-11.87-263.88,1.78-.43,58.39-15.59C854.85,1980.49,891.52,1975.56,918.29,1975.62Z" transform="translate(0 -681.78)"/><path class="cls-13" d="M767.22,2034.45c24.3-14.12,36.19,324.92,39.46,464.47,43,6.41,118,0,136.72-2.13,8.78-1,29-12.51,37.77-14.28,9-1.81,17.06-2.76,21.46-1.57,1.62.43,46.47,28.84,50.31,35.07,4.76,7.72,17.62,27.21,15.45,35.63s-24.74-23.47-24.74-23.47l-11-9.59c13.73,20.77,39.92,48.13,36.15,58.09-3.68,9.72-27.3-18-44.14-37,14.44,20.21,32.38,56.35,28.25,62-3.72,5.06-24.13-36.79-45.94-48.84-8.08-4.46-16.14,7.9-22.5,9.4-4.67,1.09-11.88,3.43-16.47,1.42l-21.9-3.29c-8.05,1.13-10,1.41-18.09,4.09-9.43,3.11-24.9,6.38-36.91,10.93-69.17,26.16-92.24,38.32-113.42,38.3C713.51,2613.64,709.79,2067.81,767.22,2034.45Z" transform="translate(0 -681.78)"/><path class="cls-11" d="M721.1,2352.74c-4.55-142.94-3.88-319.12,47.87-349.18,20.41-11.86,56.41,59.46,49.93,352.09C791.28,2359.18,750.72,2362,721.1,2352.74Z" transform="translate(0 -681.78)"/><path class="cls-14" d="M1297.47,2265.39l-244.86,24.85c-6.48.66-12.06,7.33-14.13,16.9L975.1,2600.5l-135,13.7c-3.78.38-6.64,5.44-6.39,11.3h0c.24,5.86,3.5,10.31,7.28,9.92l384.2-39c10.56-1.07,19.74-11.68,23.43-27.09l64.87-270.46C1317.56,2282,1309.05,2264.21,1297.47,2265.39Z" transform="translate(0 -681.78)"/><path class="cls-2" d="M1175.46,2446.67c-.49,13.09-6.86,23.17-14.24,22.51s-13-11.81-12.48-24.9,6.86-23.18,14.24-22.52S1176,2433.57,1175.46,2446.67Z" transform="translate(0 -681.78)"/><path class="cls-15" d="M762.89,2680.92l271.05-72.72s117.2-27.74,144.13,26.05S1283.2,3385.3,1283.2,3385.3s-59,8-62.82,4c-3-3.08-74.39-235.54-106.46-340.27a568.08,568.08,0,0,1-21.28-104.8l-10.31-94.9-34.11,18.25c-59.94,32.06-123.8,43.18-186.71,31-26.34-5.08-50.92-13.82-66.17-28.55C747.9,2824.23,762.89,2680.92,762.89,2680.92Z" transform="translate(0 -681.78)"/><path class="cls-13" d="M928.52,1924.24l5.28,60.81s11.82,87.62-3.39,104.51-64.66-107-64.66-107L871,1828.45Z" transform="translate(0 -681.78)"/><path class="cls-16" d="M869.29,1878.4c12.56,52.56,42.47,84.87,63.7,97.4l-4.47-51.56L871,1828.45Z" transform="translate(0 -681.78)"/><path class="cls-13" d="M925.4,1660.76c32.22-8.06,61.11,32.07,60.31,82-.35,21.71-1.5,48.81-4.41,78-7,70.21-37.94,132-58.39,126.51s-71.92-66.08-62.86-166C865.65,1719.61,891.59,1669.21,925.4,1660.76Z" transform="translate(0 -681.78)"/><path class="cls-13" d="M874.24,1793.21c-1.72,15.44-9.71,26.18-17.83,24s-13.31-16.49-11.59-31.93,9.71-26.17,17.84-24S876,1777.78,874.24,1793.21Z" transform="translate(0 -681.78)"/><path class="cls-9" d="M862.66,1761.29s24.73,9.52,33.9-15.11,42-77.78,83.71-55.74-36.71-53.58-40-53.58-43.39-.44-43.39-.44-30.87,39.33-32,43.65-10,51.42-10,51.42Z" transform="translate(0 -681.78)"/><path class="cls-17" d="M1417.38,910c-6.23-42.17-30.52-73.63-59.54-73.63a41,41,0,0,0-15.43,3.06c-14.33-47.61-45.42-80.59-81.48-80.59a61,61,0,0,0-26.77,6.3c-19.41-50-54.67-83.34-95-83.34-47.93,0-88.76,47.27-104.23,113.44-11-9.49-23.55-14.91-37-14.91-42,0-76.07,52.92-76.07,118.2,0,3.87.13,7.69.36,11.47Z" transform="translate(0 -681.78)"/><path class="cls-17" d="M1640.49,1379.09c-4.72-31.9-23.09-55.71-45.06-55.71a31.18,31.18,0,0,0-11.68,2.31c-10.84-36-34.37-61-61.66-61a46.16,46.16,0,0,0-20.25,4.77c-14.69-37.8-41.38-63.07-71.87-63.07-36.27,0-67.17,35.77-78.87,85.85-8.29-7.18-17.83-11.28-28-11.28-31.79,0-57.57,40-57.57,89.44,0,2.93.1,5.83.28,8.68Z" transform="translate(0 -681.78)"/><path class="cls-17" d="M597.16,1313.15c4.11-27.82,20.14-48.58,39.3-48.58a27,27,0,0,1,10.18,2c9.45-31.42,30-53.19,53.76-53.19a40.3,40.3,0,0,1,17.67,4.16c12.81-33,36.08-55,62.66-55,31.63,0,58.57,31.19,68.78,74.86,7.23-6.26,15.55-9.84,24.41-9.84,27.72,0,50.2,34.92,50.2,78,0,2.56-.09,5.08-.24,7.57Z" transform="translate(0 -681.78)"/><path class="cls-8" d="M1288.83,1710.25l4.36,82.48,30.84-54,99.72-126.9-85,41.63s-41.87,31.6-43.79,35.77S1288.83,1710.25,1288.83,1710.25Z" transform="translate(0 -681.78)"/><polygon class="cls-7" points="1243.64 993.03 1423.75 930.09 1288.83 1028.47 1243.64 993.03"/><polygon class="cls-7" points="1358.1 1089.55 1302.58 1046.51 1423.75 930.09 1358.1 1089.55"/><path class="cls-6" d="M1267.8,1756c8.32-4.86,14.45-5.91,14.51-5.92l-.41-6c-.27,0-6.69,1.14-15.46,6.27Z" transform="translate(0 -681.78)"/><path class="cls-6" d="M1178.91,2243.55a238.36,238.36,0,0,0,19.53-33.18l3.1,3.63a244.24,244.24,0,0,1-20,34Zm34.53-71.55c1.9-6.21,3.66-12.68,5.21-19.23,1.75-7.41,3.31-15.17,4.61-23l3.76,1.51c-1.34,8.06-2.93,16-4.73,23.61-1.59,6.73-3.39,13.37-5.34,19.74Zm15.68-131.87,3.87-.14c.24,16.37-.07,31.39-1,45.9l-3.86-.57C1229.05,2071.05,1229.35,2056.26,1229.12,2040.13Zm-5.53-90.38,3.85-.86c1.62,17.65,2.78,32.06,3.65,45.37l-3.87.61C1226.37,1981.65,1225.21,1967.31,1223.59,1949.75Zm-4.34-45.4a344.19,344.19,0,0,1-1.47-45.77l3.88.37a333.4,333.4,0,0,0,1.43,44.5l0,.35-3.84.82Zm4.88-91.08c3.9-14.84,9.57-27.78,16.84-38.45l2.67,4.38c-6.87,10.08-12.22,22.31-15.92,36.35Z" transform="translate(0 -681.78)"/></g></g></svg>