<svg xmlns="http://www.w3.org/2000/svg" viewBox="0 0 492.51 383.49"><defs><style>.cls-1{fill:#ebebeb;}.cls-2{fill:#f5f5f5;}.cls-3{fill:#407bff;}.cls-4{fill:#babec6;opacity:0.8;}.cls-5{fill:#f2f3f4;}.cls-6,.cls-7{fill:#fff;}.cls-7,.cls-9{opacity:0.3;}.cls-8{fill:#7f3e3b;}.cls-10{fill:#263238;}.cls-11{fill:#803e3c;}.cls-12{fill:#630f0f;}.cls-13{opacity:0.2;}.cls-14{opacity:0.4;}.cls-15{fill:#a0490e;}.cls-16{opacity:0.5;}</style></defs><title>signup</title><g id="Background_Complete" data-name="Background Complete"><rect class="cls-1" y="326.03" width="492.51" height="0.15"/><rect class="cls-1" x="466.77" y="348.97" width="25.75" height="0.3"/><rect class="cls-1" x="327.03" y="342.81" width="40.51" height="0.3"/><rect class="cls-1" x="429.19" y="337.94" width="52.88" height="0.3"/><rect class="cls-1" x="150.46" y="343.93" width="13.23" height="0.3"/><rect class="cls-1" x="94.3" y="343.93" width="45.59" height="0.3"/><rect class="cls-1" x="36.97" y="338.92" width="32.89" height="0.3"/></g><g id="Shadow"><ellipse id="_Path_" data-name="&lt;Path&gt;" class="cls-2" cx="255.11" cy="370.04" rx="230.26" ry="13.45"/></g><g id="Login"><path class="cls-3" d="M271.59,378.7H120.08a9.66,9.66,0,0,1-9.53-9.06L97,106.53a8.53,8.53,0,0,1,8.6-9.06h151.5a9.64,9.64,0,0,1,9.53,9.06l13.56,263.11A8.52,8.52,0,0,1,271.59,378.7Z" transform="translate(-4.11 -68.92)"/><path class="cls-4" d="M271.59,378.7H120.08a9.66,9.66,0,0,1-9.53-9.06L97,106.53a8.53,8.53,0,0,1,8.6-9.06h151.5a9.64,9.64,0,0,1,9.53,9.06l13.56,263.11A8.52,8.52,0,0,1,271.59,378.7Z" transform="translate(-4.11 -68.92)"/><rect class="cls-3" x="221.28" y="19.97" width="16.76" height="1.19"/><rect class="cls-3" x="209.34" y="19.97" width="6.14" height="1.19"/><path class="cls-5" d="M278.1,362H133.2a9.23,9.23,0,0,1-9.11-8.66l-13-251.64A8.15,8.15,0,0,1,119.34,93h144.9a9.22,9.22,0,0,1,9.11,8.67l13,251.64A8.14,8.14,0,0,1,278.1,362Z" transform="translate(-4.11 -68.92)"/><path class="cls-6" d="M278.1,356.23H133.2a3.48,3.48,0,0,1-3.33-3.18l-13-251.64a2.45,2.45,0,0,1,.65-1.85,2.38,2.38,0,0,1,1.79-.73h144.9a3.47,3.47,0,0,1,3.33,3.18l13,251.63a2.37,2.37,0,0,1-2.44,2.59ZM119.34,99.13a2.07,2.07,0,0,0-2.14,2.27l13,251.63a3.16,3.16,0,0,0,3,2.9H278.1a2.09,2.09,0,0,0,1.58-.64,2.13,2.13,0,0,0,.57-1.63L267.28,102a3.16,3.16,0,0,0-3-2.89Z" transform="translate(-4.11 -68.92)"/><ellipse class="cls-7" cx="195.2" cy="159.14" rx="42.75" ry="45.01" transform="translate(-59.12 118.94) rotate(-45.74)"/><path class="cls-6" d="M230.69,159.14a34.25,34.25,0,0,1-3.42,16.91A33.31,33.31,0,0,1,197,194.63a37.7,37.7,0,0,1-32.16-18.58,36.66,36.66,0,0,1-5.16-16.91,33.37,33.37,0,0,1,33.66-35.49A37.79,37.79,0,0,1,230.69,159.14Z" transform="translate(-4.11 -68.92)"/><path class="cls-8" d="M227.27,176.05A33.31,33.31,0,0,1,197,194.63a37.7,37.7,0,0,1-32.16-18.58,53.65,53.65,0,0,1,30.71-9.46A58.32,58.32,0,0,1,227.27,176.05Z" transform="translate(-4.11 -68.92)"/><ellipse class="cls-8" cx="194.57" cy="147" rx="15.41" ry="16.22" transform="translate(-50.61 114.83) rotate(-45.74)"/><path class="cls-6" d="M257.34,264.13H143.88a3.9,3.9,0,0,1-3.85-3.67l-.86-16.67a3.45,3.45,0,0,1,3.48-3.67H256.1a3.92,3.92,0,0,1,3.86,3.67l.85,16.67A3.44,3.44,0,0,1,257.34,264.13Z" transform="translate(-4.11 -68.92)"/><path class="cls-9" d="M222.59,231H175.21a3.91,3.91,0,0,1-3.86-3.67l-.18-3.54a3.45,3.45,0,0,1,3.48-3.67H222a3.92,3.92,0,0,1,3.86,3.67l.18,3.54A3.45,3.45,0,0,1,222.59,231Z" transform="translate(-4.11 -68.92)"/><path class="cls-9" d="M240.21,344h-71a6.66,6.66,0,0,1-6.57-6.25l-.42-8.18a5.88,5.88,0,0,1,5.93-6.25h71a6.66,6.66,0,0,1,6.57,6.25l.42,8.18A5.89,5.89,0,0,1,240.21,344Z" transform="translate(-4.11 -68.92)"/><path class="cls-6" d="M259.41,304.31H146a3.9,3.9,0,0,1-3.85-3.66L141.24,284a3.44,3.44,0,0,1,3.48-3.66H258.17A3.91,3.91,0,0,1,262,284l.86,16.68A3.45,3.45,0,0,1,259.41,304.31Z" transform="translate(-4.11 -68.92)"/><path class="cls-10" d="M158.31,252.13a3.82,3.82,0,0,1-3.85,4.06,4.32,4.32,0,0,1-4.27-4.06,3.82,3.82,0,0,1,3.85-4.06A4.33,4.33,0,0,1,158.31,252.13Z" transform="translate(-4.11 -68.92)"/><path class="cls-10" d="M170.79,252.13a3.82,3.82,0,0,1-3.85,4.06,4.32,4.32,0,0,1-4.27-4.06,3.81,3.81,0,0,1,3.85-4.06A4.33,4.33,0,0,1,170.79,252.13Z" transform="translate(-4.11 -68.92)"/><path class="cls-10" d="M183.27,252.13a3.83,3.83,0,0,1-3.86,4.06,4.33,4.33,0,0,1-4.27-4.06,3.83,3.83,0,0,1,3.86-4.06A4.33,4.33,0,0,1,183.27,252.13Z" transform="translate(-4.11 -68.92)"/><path class="cls-10" d="M195.74,252.13a3.81,3.81,0,0,1-3.85,4.06,4.33,4.33,0,0,1-4.27-4.06,3.82,3.82,0,0,1,3.85-4.06A4.32,4.32,0,0,1,195.74,252.13Z" transform="translate(-4.11 -68.92)"/><path class="cls-10" d="M160.38,292.31a3.82,3.82,0,0,1-3.85,4.06,4.32,4.32,0,0,1-4.27-4.06,3.82,3.82,0,0,1,3.85-4.06A4.33,4.33,0,0,1,160.38,292.31Z" transform="translate(-4.11 -68.92)"/><path class="cls-10" d="M172.86,292.31a3.82,3.82,0,0,1-3.85,4.06,4.32,4.32,0,0,1-4.27-4.06,3.82,3.82,0,0,1,3.85-4.06A4.33,4.33,0,0,1,172.86,292.31Z" transform="translate(-4.11 -68.92)"/><path class="cls-10" d="M185.34,292.31a3.82,3.82,0,0,1-3.85,4.06,4.33,4.33,0,0,1-4.28-4.06,3.83,3.83,0,0,1,3.86-4.06A4.33,4.33,0,0,1,185.34,292.31Z" transform="translate(-4.11 -68.92)"/><path class="cls-10" d="M197.81,292.31a3.81,3.81,0,0,1-3.85,4.06,4.33,4.33,0,0,1-4.27-4.06,3.82,3.82,0,0,1,3.85-4.06A4.32,4.32,0,0,1,197.81,292.31Z" transform="translate(-4.11 -68.92)"/><path class="cls-10" d="M210.29,292.31a3.82,3.82,0,0,1-3.85,4.06,4.33,4.33,0,0,1-4.27-4.06,3.82,3.82,0,0,1,3.85-4.06A4.32,4.32,0,0,1,210.29,292.31Z" transform="translate(-4.11 -68.92)"/><path class="cls-10" d="M222.77,292.31a3.82,3.82,0,0,1-3.85,4.06,4.32,4.32,0,0,1-4.27-4.06,3.82,3.82,0,0,1,3.85-4.06A4.32,4.32,0,0,1,222.77,292.31Z" transform="translate(-4.11 -68.92)"/></g><g id="Character"><path class="cls-11" d="M357.83,154.4c.29.44.44.69.64,1l.53.89c.35.59.65,1.18.95,1.76.59,1.18,1.16,2.35,1.66,3.54a65,65,0,0,1,2.57,7.24A75.64,75.64,0,0,1,367,183.72l.09.94c0,.13,0,.34,0,.56l0,.64a15.32,15.32,0,0,1-.15,2.47,19.5,19.5,0,0,1-1.18,4.42,30.2,30.2,0,0,1-4.1,7.11,50.49,50.49,0,0,1-11.06,10.46l-3.27-3.83a69,69,0,0,0,7.89-10.91,25.73,25.73,0,0,0,2.4-5.61,11.06,11.06,0,0,0,.39-2.55,5.67,5.67,0,0,0,0-1.1l0-.25c0-.08,0-.17-.05-.33l-.15-.83a93.45,93.45,0,0,0-3.23-13.07c-.68-2.12-1.53-4.17-2.38-6.18-.43-1-.89-2-1.37-2.95l-.74-1.4-.37-.66-.3-.52Z" transform="translate(-4.11 -68.92)"/><path class="cls-8" d="M346.74,210.4l4.3,9.08,3.41-7.68s-3-6.65-7.11-6Z" transform="translate(-4.11 -68.92)"/><polygon class="cls-8" points="350.01 151.01 353.43 145.41 350.34 142.88 346.93 150.56 350.01 151.01"/><path class="cls-3" d="M334.79,429.44a11.93,11.93,0,0,0,2.63-.36.22.22,0,0,0,.17-.19.24.24,0,0,0-.1-.24c-.34-.22-3.36-2.17-4.52-1.65a.84.84,0,0,0-.47.67,1.36,1.36,0,0,0,.39,1.25A2.86,2.86,0,0,0,334.79,429.44Zm2-.7c-1.73.35-3,.29-3.54-.17a.9.9,0,0,1-.24-.84.34.34,0,0,1,.2-.3C333.78,427.15,335.52,428,336.75,428.74Z" transform="translate(-4.11 -68.92)"/><path class="cls-3" d="M337.36,429.09a.19.19,0,0,0,.12,0,.24.24,0,0,0,.12-.2c0-.12,0-3-1.1-3.94a1.21,1.21,0,0,0-1-.32.85.85,0,0,0-.8.66c-.22,1.12,1.59,3.27,2.54,3.81A.2.2,0,0,0,337.36,429.09Zm-1.69-4a.77.77,0,0,1,.52.21c.65.57.87,2.18.92,3.13-.94-.75-2.07-2.36-1.93-3.05,0-.11.08-.24.38-.28Z" transform="translate(-4.11 -68.92)"/><path class="cls-3" d="M323.57,424.59a.24.24,0,0,0,.06-.23.24.24,0,0,0-.22-.16c-.49,0-4.76-.21-5.72.83l-.06.07a.78.78,0,0,0-.1.74,1.29,1.29,0,0,0,.87.86c1.38.43,3.81-1.12,5.14-2.08Zm-5.52.75c.53-.57,2.87-.73,4.64-.7-1.85,1.26-3.38,1.86-4.15,1.61a.82.82,0,0,1-.56-.57.25.25,0,0,1,0-.29Z" transform="translate(-4.11 -68.92)"/><path class="cls-3" d="M323.57,424.59l0,0a.24.24,0,0,0,0-.23c-.06-.1-1.39-2.44-3-2.86a1.72,1.72,0,0,0-1.35.17c-.57.33-.6.72-.53,1,.3,1.1,3.33,2.07,4.63,2.06A.21.21,0,0,0,323.57,424.59Zm-4.26-2.38a1,1,0,0,1,.23-.17,1.22,1.22,0,0,1,1-.13,5.46,5.46,0,0,1,2.43,2.26c-1.4-.16-3.55-1-3.73-1.69C319.21,422.44,319.19,422.34,319.31,422.21Z" transform="translate(-4.11 -68.92)"/><path class="cls-8" d="M336.65,119.61c-1.16,5.91-3.76,18.78.37,22.72,0,0-1.61,6-12.58,6-12.06,0-5.76-6-5.76-6,6.58-1.57,6.41-6.45,5.26-11Z" transform="translate(-4.11 -68.92)"/><path class="cls-10" d="M316.55,105.69a.41.41,0,0,0,.21,0A.47.47,0,0,0,317,105a4.66,4.66,0,0,0-3.42-2.61.47.47,0,0,0-.1.94h0a3.68,3.68,0,0,1,2.68,2.09A.46.46,0,0,0,316.55,105.69Z" transform="translate(-4.11 -68.92)"/><path class="cls-12" d="M313,110.85a21.38,21.38,0,0,1-3.46,4.73,3.46,3.46,0,0,0,2.77.89Z" transform="translate(-4.11 -68.92)"/><path class="cls-10" d="M313.84,109.57c-.1.8-.6,1.39-1.12,1.33s-.87-.76-.77-1.56.6-1.39,1.12-1.33S313.93,108.78,313.84,109.57Z" transform="translate(-4.11 -68.92)"/><path class="cls-10" d="M313.3,108.09l-1.85-.79S312.25,108.91,313.3,108.09Z" transform="translate(-4.11 -68.92)"/><polygon class="cls-8" points="329.95 353.42 320.26 355.68 314.38 333.4 324.06 331.13 329.95 353.42"/><polygon class="cls-8" points="344.82 359.93 334.88 359.93 335.66 336.9 345.6 336.9 344.82 359.93"/><path class="cls-10" d="M338.2,427.7h11.17a.77.77,0,0,1,.79.68l1.28,8.84a1.6,1.6,0,0,1-1.6,1.77c-3.89-.07-5.77-.3-10.69-.3-3,0-7.44.32-11.61.32s-4.4-4.13-2.66-4.5c7.8-1.68,9-4,11.65-6.2A2.61,2.61,0,0,1,338.2,427.7Z" transform="translate(-4.11 -68.92)"/><path class="cls-10" d="M323.51,423.11l10.15-4.67a.79.79,0,0,1,1,.29l4.85,7.5a1.6,1.6,0,0,1-.71,2.27c-3.57,1.57-5.37,2.15-9.83,4.2-2.75,1.26-8.3,4.16-12.09,5.91s-5.72-1.92-4.3-3c6.38-4.78,8.2-8.17,9.67-11.27A2.57,2.57,0,0,1,323.51,423.11Z" transform="translate(-4.11 -68.92)"/><polygon class="cls-13" points="314.38 333.4 317.53 345.34 327.1 342.62 324.07 331.14 314.38 333.4"/><polygon class="cls-13" points="345.61 336.9 335.65 336.9 335.26 348.78 345.21 348.78 345.61 336.9"/><path class="cls-10" d="M354.18,144.59c4.13.91,8.54,15.78,8.54,15.78L351,172.79s-9.69-14-7.72-19.1C345.38,148.34,349.29,143.52,354.18,144.59Z" transform="translate(-4.11 -68.92)"/><path class="cls-14" d="M347.63,154.05c-2.09-1.91-3.51-1.34-4.47.18-1,4.42,4.68,13.67,6.95,17.17C351.16,167.22,352.35,158.4,347.63,154.05Z" transform="translate(-4.11 -68.92)"/><path class="cls-10" d="M301.86,144.88s-4.74,1.67,4.76,60H347c-.68-16.44-.7-26.58,7.16-60.33A119.58,119.58,0,0,0,337,142.33a128.89,128.89,0,0,0-18.34,0C310.8,143.05,301.86,144.88,301.86,144.88Z" transform="translate(-4.11 -68.92)"/><path class="cls-14" d="M301.5,167.28c.26,2.84.61,6,1.06,9.65,3.31-3,6-11.46,5-16.4A29.43,29.43,0,0,0,301.5,167.28Z" transform="translate(-4.11 -68.92)"/><path class="cls-11" d="M305.82,158.43a173.39,173.39,0,0,1-7.35,16.1A99.45,99.45,0,0,1,289,190l-.76.93-.38.47c-.13.15-.23.29-.44.51a14.61,14.61,0,0,1-2.35,2.08,19,19,0,0,1-5,2.48,36.13,36.13,0,0,1-9.55,1.69,71,71,0,0,1-18-1.6l.65-5c2.73,0,5.6,0,8.36-.22a65.32,65.32,0,0,0,8.15-.91,31.93,31.93,0,0,0,7.29-2,11.17,11.17,0,0,0,2.63-1.6,5.29,5.29,0,0,0,.81-.85s.15-.2.24-.33l.28-.39.55-.78A119.48,119.48,0,0,0,289.46,170c2.41-5,4.74-10.29,6.92-15.4Z" transform="translate(-4.11 -68.92)"/><path class="cls-10" d="M301.86,144.88c-4.94,1.21-11,14.78-11,14.78l10.27,15.08s13.66-17.2,12-22.46C311.44,146.81,307.86,143.42,301.86,144.88Z" transform="translate(-4.11 -68.92)"/><path class="cls-8" d="M256.05,192.27l-8.56-4-.86,8.51s7.15,2.11,10.68-.05Z" transform="translate(-4.11 -68.92)"/><polygon class="cls-8" points="238.26 118.54 237.44 125.02 242.52 127.91 243.38 119.4 238.26 118.54"/><path class="cls-8" d="M341,110.15c-1.81,9.71-2.37,13.85-7.93,18.26-8.37,6.63-19.89,2.29-21-7.76-1-9.05,2.12-23.4,12.18-26.11A13.47,13.47,0,0,1,341,110.15Z" transform="translate(-4.11 -68.92)"/><path class="cls-10" d="M319.63,112.2c-.55,4.94-.77,17.8,10.1,18.21,13.32.49,17.31-10.89,16.13-15.44,6.92-5.64,7.93-15.34.14-22.76s-24.94-3.28-29.73,4C310.33,105.13,319.63,112.2,319.63,112.2Z" transform="translate(-4.11 -68.92)"/><path class="cls-3" d="M333,95.09c-.64-5.22-.14-8.82,4.74-8.82s11.56,1.77,14,6.77,2.65,12.82-4.18,12S333.74,101.34,333,95.09Z" transform="translate(-4.11 -68.92)"/><path class="cls-10" d="M340.54,93.83c-1.16-6.22,4.39-23.74,17.92-24.88,6.26-.53,9.17,6.22,5.89,7.33,5.92-.07,9.73,7.78,4.2,9,4.37,2.79,3.28,8.55-2.95,11.37C361,98.69,342.15,102.45,340.54,93.83Z" transform="translate(-4.11 -68.92)"/><path class="cls-10" d="M355,100.52c-4.36,0-8.91-.64-11.73-2.53a5.82,5.82,0,0,1-2.79-4.52.31.31,0,0,1,.27-.32.3.3,0,0,1,.32.28,5.27,5.27,0,0,0,2.53,4.07c5.37,3.6,17.79,2.43,21.69,1.16,3.34-1.09,5.61-3.21,6.06-5.66a4.9,4.9,0,0,0-2-4.81.3.3,0,0,1,0-.41.3.3,0,0,1,.42,0,5.57,5.57,0,0,1,2.2,5.38c-.49,2.67-2.91,5-6.47,6.12A39,39,0,0,1,355,100.52Z" transform="translate(-4.11 -68.92)"/><path class="cls-8" d="M316.6,110.88a7.4,7.4,0,0,0-1.27,5.37c.39,2.49,2.82,2.65,4.58,1.06,1.58-1.44,3.28-4.47,2-6.53S318,109,316.6,110.88Z" transform="translate(-4.11 -68.92)"/><path class="cls-15" d="M317.29,204.92s5.77,68.27,11.76,106.75c4.84,31.08,8.65,103.73,8.65,103.73h13.57s4.82-70.48,2.37-101.22c-6.22-77.78,7.64-84.12-6.62-109.26Z" transform="translate(-4.11 -68.92)"/><path class="cls-14" d="M334.36,230.72a66.37,66.37,0,0,0-12.81,19.34c1.58,15.34,3.45,32.37,5.45,47.29A131.15,131.15,0,0,0,334.36,230.72Z" transform="translate(-4.11 -68.92)"/><path class="cls-15" d="M307.79,204.49s-12.52,74.56-14.5,108.17c4.92,31.08,25,96.78,25,96.78L330.66,405s-6.82-71.64-14.29-91.25c16.71-56.26,29-70.48,25.42-108.8C333.27,204.92,307.79,204.49,307.79,204.49Z" transform="translate(-4.11 -68.92)"/><polygon class="cls-10" points="312.56 343.8 329.24 339.27 328.29 332.63 310.44 337.45 312.56 343.8"/><polygon class="cls-10" points="331.74 346.75 349.02 346.75 349.92 340.68 331.64 340.06 331.74 346.75"/><path class="cls-3" d="M347.62,202.55l1.82,3.61c.14.28-.19.57-.65.57H306.42c-.37,0-.67-.18-.69-.41l-.37-3.61c0-.25.29-.47.69-.47H347A.74.74,0,0,1,347.62,202.55Z" transform="translate(-4.11 -68.92)"/><path class="cls-16" d="M347.62,202.55l1.82,3.61c.14.28-.19.57-.65.57H306.42c-.37,0-.67-.18-.69-.41l-.37-3.61c0-.25.29-.47.69-.47H347A.74.74,0,0,1,347.62,202.55Z" transform="translate(-4.11 -68.92)"/><path class="cls-3" d="M342.13,207.12h1.09c.22,0,.39-.11.37-.25l-.51-4.7c0-.13-.21-.25-.43-.25h-1.09c-.22,0-.39.12-.37.25l.51,4.7C341.72,207,341.91,207.12,342.13,207.12Z" transform="translate(-4.11 -68.92)"/><path class="cls-3" d="M315.57,207.12h1.09c.22,0,.39-.11.37-.25l-.51-4.7c0-.13-.21-.25-.42-.25H315c-.22,0-.38.12-.37.25l.51,4.7C315.16,207,315.35,207.12,315.57,207.12Z" transform="translate(-4.11 -68.92)"/></g></svg>