<svg xmlns="http://www.w3.org/2000/svg" viewBox="0 0 951.63 885.64"><defs><style>.cls-1{isolation:isolate;}.cls-2{fill:#c10000;}.cls-3,.cls-4{fill:none;stroke:#fff;stroke-linecap:round;stroke-linejoin:round;}.cls-3{stroke-width:7px;opacity:0.66;mix-blend-mode:overlay;}.cls-4{stroke-width:3px;}</style></defs><title>sign-up-background</title><g class="cls-1"><g id="Layer_1" data-name="Layer 1"><line class="cls-2" x1="862.33" y1="197.29" x2="934.92" y2="124.69"/><path class="cls-2" d="M860.87,870.15a13,13,0,1,1-9.21,3.82A13.13,13.13,0,0,1,860.87,870.15Z" transform="translate(-0.08 -10.55)"/><path class="cls-2" d="M894.83,849.21a13,13,0,0,1,0,18.42h0a13,13,0,0,1-18.4,0h0a13,13,0,0,1,0-18.42h0a12.94,12.94,0,0,1,9.2-3.8h0A13,13,0,0,1,894.83,849.21Z" transform="translate(-0.08 -10.55)"/><path class="cls-2" d="M910.37,820.67a13,13,0,1,1-9.2,3.8A13.11,13.11,0,0,1,910.37,820.67Z" transform="translate(-0.08 -10.55)"/><path class="cls-2" d="M7.68,783a7.56,7.56,0,0,1,7.59,7.6A7.62,7.62,0,0,1,13.06,796a7.85,7.85,0,0,1-10.74,0,7.52,7.52,0,0,1-2.24-5.36,7.61,7.61,0,0,1,7.6-7.6Z" transform="translate(-0.08 -10.55)"/><path class="cls-2" d="M40.32,758a7.62,7.62,0,0,1,0,10.74h0a7.6,7.6,0,0,1-10.75,0h0a7.59,7.59,0,0,1,0-10.74h0a7.57,7.57,0,0,1,5.36-2.22h0A7.62,7.62,0,0,1,40.32,758Z" transform="translate(-0.08 -10.55)"/><path class="cls-2" d="M62.19,728.48a7.56,7.56,0,0,1,7.6,7.59,7.58,7.58,0,0,1-2.22,5.36,7.87,7.87,0,0,1-10.74,0,7.58,7.58,0,0,1,5.36-12.95Z" transform="translate(-0.08 -10.55)"/><line class="cls-3" x1="769.95" y1="514.68" x2="730.77" y2="553.86"/><path class="cls-2" d="M823.39,382.24a7.61,7.61,0,0,1,5.39,13,7.87,7.87,0,0,1-10.75,0,7.6,7.6,0,0,1,5.36-13Z" transform="translate(-0.08 -10.55)"/><path class="cls-2" d="M883.49,329.76a7.56,7.56,0,0,1,0,10.72h0a7.6,7.6,0,0,1-10.75,0h0a7.6,7.6,0,0,1,0-10.72h0a7.56,7.56,0,0,1,5.39-2.24h0A7.51,7.51,0,0,1,883.49,329.76ZM856.14,357.1a7.64,7.64,0,0,1,0,10.75h0a7.59,7.59,0,0,1-10.74,0h0a7.6,7.6,0,0,1,0-10.75h0a7.59,7.59,0,0,1,5.36-2.21h0A7.65,7.65,0,0,1,856.14,357.1Z" transform="translate(-0.08 -10.55)"/><circle class="cls-2" cx="783.68" cy="415.43" r="22.17"/><circle class="cls-2" cx="167.51" cy="394.39" r="17.5"/><path class="cls-2" d="M190.76,368.17a9.62,9.62,0,1,1,0,13.61A9.62,9.62,0,0,1,190.76,368.17Z" transform="translate(-0.08 -10.55)"/><line class="cls-2" x1="684.51" y1="715.84" x2="595.03" y2="805.33"/><line class="cls-2" x1="430.58" y1="415.7" x2="312.45" y2="533.83"/><line class="cls-4" x1="123.31" y1="495.74" x2="53.95" y2="565.1"/><path class="cls-2" d="M147.85,10.55a7.73,7.73,0,0,1,5.38,2.24,7.6,7.6,0,0,1,0,10.74,7.9,7.9,0,0,1-10.76,0,7.71,7.71,0,0,1-2.22-5.38,7.63,7.63,0,0,1,2.22-5.36A7.73,7.73,0,0,1,147.85,10.55Z" transform="translate(-0.08 -10.55)"/><path class="cls-2" d="M128.17,37.84a7.59,7.59,0,0,1,0,10.74h0a7.6,7.6,0,0,1-10.75,0h0a7.59,7.59,0,0,1,0-10.74h0a7.59,7.59,0,0,1,5.39-2.22h0A7.57,7.57,0,0,1,128.17,37.84Zm-25,25.06a7.62,7.62,0,0,1,0,10.74h0a7.59,7.59,0,0,1-10.76,0h0a7.62,7.62,0,0,1,0-10.74h0a7.53,7.53,0,0,1,5.38-2.23h0A7.55,7.55,0,0,1,103.12,62.9ZM78.05,88a7.57,7.57,0,0,1,0,10.74h0a7.59,7.59,0,0,1-10.74,0h0a7.59,7.59,0,0,1,0-10.74h0a7.57,7.57,0,0,1,5.36-2.22h0A7.55,7.55,0,0,1,78.05,88ZM53,113a7.64,7.64,0,0,1,0,10.75h0a7.62,7.62,0,0,1-10.74,0h0a7.58,7.58,0,0,1,0-10.75h0a7.54,7.54,0,0,1,5.36-2.21h0A7.65,7.65,0,0,1,53,113Z" transform="translate(-0.08 -10.55)"/><path class="cls-2" d="M22.56,135.84a7.59,7.59,0,0,1,5.38,13,7.83,7.83,0,0,1-10.74,0,7.6,7.6,0,0,1,5.36-13Z" transform="translate(-0.08 -10.55)"/><line class="cls-2" x1="605.33" y1="75.51" x2="456.91" y2="223.93"/><circle class="cls-2" cx="912.04" cy="43.65" r="17.5"/><path class="cls-2" d="M935.28,17.43a9.63,9.63,0,1,1,0,13.62A9.64,9.64,0,0,1,935.28,17.43Z" transform="translate(-0.08 -10.55)"/></g></g></svg>