<svg xmlns="http://www.w3.org/2000/svg" xmlns:xlink="http://www.w3.org/1999/xlink" viewBox="0 0 3710 3710"><defs><style>.cls-1,.cls-21,.cls-3,.cls-46,.cls-5,.cls-6{fill:#fff;}.cls-2{fill:url(#_3);}.cls-3{opacity:0.6;}.cls-4{fill:url(#linear-gradient);}.cls-5{opacity:0.58;}.cls-6{opacity:0.25;}.cls-7{fill:url(#linear-gradient-2);}.cls-8{fill:url(#linear-gradient-3);}.cls-9{fill:url(#linear-gradient-4);}.cls-10{fill:url(#linear-gradient-5);}.cls-11{fill:url(#linear-gradient-6);}.cls-12{fill:url(#linear-gradient-7);}.cls-13{fill:#6e381f;}.cls-14{fill:url(#linear-gradient-8);}.cls-15{fill:url(#linear-gradient-9);}.cls-16{fill:url(#linear-gradient-10);}.cls-17{fill:url(#linear-gradient-11);}.cls-18{fill:url(#linear-gradient-12);}.cls-19{fill:url(#linear-gradient-13);}.cls-20{fill:url(#linear-gradient-14);}.cls-21{opacity:0.78;}.cls-22{fill:url(#linear-gradient-15);}.cls-23{fill:url(#linear-gradient-16);}.cls-24{fill:url(#linear-gradient-17);}.cls-25{fill:url(#linear-gradient-18);}.cls-26{fill:url(#linear-gradient-19);}.cls-27{fill:url(#linear-gradient-20);}.cls-28{fill:url(#linear-gradient-21);}.cls-29{fill:url(#linear-gradient-22);}.cls-30{fill:url(#linear-gradient-23);}.cls-31{fill:url(#linear-gradient-24);}.cls-32{fill:url(#linear-gradient-25);}.cls-33{fill:url(#linear-gradient-26);}.cls-34{fill:url(#linear-gradient-27);}.cls-35{fill:url(#linear-gradient-28);}.cls-36{fill:url(#linear-gradient-29);}.cls-37{fill:url(#linear-gradient-30);}.cls-38{fill:url(#linear-gradient-31);}.cls-39{opacity:0.9;}.cls-40{fill:#c10000;}.cls-41{opacity:0.3;}.cls-42{fill:url(#linear-gradient-32);}.cls-43{fill:url(#linear-gradient-33);}.cls-44{fill:url(#linear-gradient-34);}.cls-45{fill:url(#linear-gradient-35);}.cls-46{opacity:0.56;}.cls-47{fill:url(#linear-gradient-36);}.cls-48{fill:url(#linear-gradient-37);}.cls-49{fill:url(#linear-gradient-38);}.cls-50{fill:url(#linear-gradient-39);}</style><linearGradient id="_3" x1="264.03" y1="4243.88" x2="3504.23" y2="-214.63" gradientUnits="userSpaceOnUse"><stop offset="0" stop-color="#53d8ff"/><stop offset="0.21" stop-color="#4db9fd"/><stop offset="0.86" stop-color="#3c56f8"/><stop offset="1" stop-color="#3840f7"/></linearGradient><linearGradient id="linear-gradient" x1="1873.38" y1="14.17" x2="1873.38" y2="4096.61" gradientUnits="userSpaceOnUse"><stop offset="0" stop-color="#53d8ff"/><stop offset="1" stop-color="#3840f7"/></linearGradient><linearGradient id="linear-gradient-2" x1="2134.37" y1="-192.15" x2="1257.83" y2="960.91" gradientUnits="userSpaceOnUse"><stop offset="0" stop-color="#2b3582"/><stop offset="1" stop-color="#150e42"/></linearGradient><linearGradient id="linear-gradient-3" x1="2230.52" y1="-119.07" x2="1353.98" y2="1034" xlink:href="#linear-gradient-2"/><linearGradient id="linear-gradient-4" x1="1860.05" y1="-107.16" x2="1775.81" y2="994.45" xlink:href="#linear-gradient"/><linearGradient id="linear-gradient-5" x1="1771.56" y1="1122.9" x2="3986.73" y2="993.71" gradientTransform="translate(-190.8 -49.56) rotate(-2.18)" gradientUnits="userSpaceOnUse"><stop offset="0" stop-color="#c10000"/><stop offset="1" stop-color="#860000"/></linearGradient><linearGradient id="linear-gradient-6" x1="1771.75" y1="1126.15" x2="3986.91" y2="996.96" xlink:href="#linear-gradient-5"/><linearGradient id="linear-gradient-7" x1="-3152.78" y1="-944.65" x2="-3541.6" y2="602" gradientTransform="matrix(-1, 0, 0, 1, -752.82, 0)" gradientUnits="userSpaceOnUse"><stop offset="0" stop-color="#cb236d"/><stop offset="1" stop-color="#4c246d"/></linearGradient><linearGradient id="linear-gradient-8" x1="-2825.68" y1="-862.43" x2="-3214.5" y2="684.23" xlink:href="#linear-gradient-7"/><linearGradient id="linear-gradient-9" x1="3348.3" y1="2244.18" x2="3529.76" y2="3782.19" xlink:href="#linear-gradient-2"/><linearGradient id="linear-gradient-10" x1="3566.83" y1="892.8" x2="3502.03" y2="2843.25" xlink:href="#linear-gradient"/><linearGradient id="linear-gradient-11" x1="3116.08" y1="1357.29" x2="3031.84" y2="3340.2" gradientUnits="userSpaceOnUse"><stop offset="0" stop-color="#fdf53f"/><stop offset="1" stop-color="#d93c65"/></linearGradient><linearGradient id="linear-gradient-12" x1="-2376.46" y1="2054.95" x2="-4007.61" y2="3342.7" gradientTransform="matrix(-1, 0, 0, 1, 652.06, 0)" xlink:href="#linear-gradient-11"/><linearGradient id="linear-gradient-13" x1="1470.21" y1="1581.75" x2="1682.9" y2="1334.87" gradientTransform="translate(1593.72 -726.02) rotate(46.57)" xlink:href="#linear-gradient-11"/><linearGradient id="linear-gradient-14" x1="1803.09" y1="1154.8" x2="1174.14" y2="2104.97" gradientTransform="translate(1593.72 -726.02) rotate(46.57)" xlink:href="#linear-gradient-11"/><linearGradient id="linear-gradient-15" x1="1798.96" y1="1583.98" x2="2108.88" y2="1224.25" gradientTransform="translate(1648.4 -1060.31) rotate(46.57)" xlink:href="#linear-gradient-11"/><linearGradient id="linear-gradient-16" x1="2284.01" y1="961.87" x2="1367.55" y2="2346.38" gradientTransform="translate(1648.4 -1060.31) rotate(46.57)" xlink:href="#linear-gradient-11"/><linearGradient id="linear-gradient-17" x1="1674.73" y1="2100.35" x2="1993.64" y2="1730.19" gradientTransform="translate(1965.89 -822.04) rotate(46.57)" xlink:href="#linear-gradient-11"/><linearGradient id="linear-gradient-18" x1="2173.84" y1="1460.2" x2="1230.82" y2="2884.85" gradientTransform="translate(1965.89 -822.04) rotate(46.57)" xlink:href="#linear-gradient-11"/><linearGradient id="linear-gradient-19" x1="2222.41" y1="1772.52" x2="2456.07" y2="1501.3" gradientTransform="translate(1951.15 -1214.81) rotate(46.57)" xlink:href="#linear-gradient-11"/><linearGradient id="linear-gradient-20" x1="2588.1" y1="1303.49" x2="1897.16" y2="2347.31" gradientTransform="translate(1951.15 -1214.81) rotate(46.57)" xlink:href="#linear-gradient-11"/><linearGradient id="linear-gradient-21" x1="2840.56" y1="1950.33" x2="-2159.67" y2="2754.6" gradientTransform="matrix(1, 0, 0, 1, 0, 0)" xlink:href="#linear-gradient-5"/><linearGradient id="linear-gradient-22" x1="2848.48" y1="1999.58" x2="-2151.74" y2="2803.84" gradientTransform="matrix(1, 0, 0, 1, 0, 0)" xlink:href="#linear-gradient-5"/><linearGradient id="linear-gradient-23" x1="1027.34" y1="4188.85" x2="1002.23" y2="1870.43" gradientTransform="matrix(1, 0, 0, 1, 0, 0)" xlink:href="#linear-gradient-5"/><linearGradient id="linear-gradient-24" x1="631.54" y1="2527.96" x2="620.38" y2="2257.34" gradientTransform="matrix(1, 0, 0, 1, 0, 0)" xlink:href="#linear-gradient-5"/><linearGradient id="linear-gradient-25" x1="617.41" y1="2121.66" x2="673.21" y2="2897.25" gradientTransform="matrix(1, 0, 0, 1, 0, 0)" xlink:href="#linear-gradient-5"/><linearGradient id="linear-gradient-26" x1="1385.49" y1="2496.87" x2="1374.33" y2="2226.25" gradientTransform="matrix(1, 0, 0, 1, 0, 0)" xlink:href="#linear-gradient-5"/><linearGradient id="linear-gradient-27" x1="1369.34" y1="2067.56" x2="1425.13" y2="2843.15" gradientTransform="matrix(1, 0, 0, 1, 0, 0)" xlink:href="#linear-gradient-5"/><linearGradient id="linear-gradient-28" x1="1059.63" y1="1689.87" x2="984.3" y2="2242.27" gradientTransform="matrix(1, 0, 0, 1, 0, 0)" xlink:href="#linear-gradient-5"/><linearGradient id="linear-gradient-29" x1="16.19" y1="2777.52" x2="2005.04" y2="2777.52" gradientTransform="matrix(1, 0, 0, 1, 0, 0)" xlink:href="#linear-gradient-5"/><linearGradient id="linear-gradient-30" x1="1102.39" y1="2438.22" x2="993.58" y2="3300.3" gradientTransform="matrix(1, 0, 0, 1, 0, 0)" xlink:href="#linear-gradient-5"/><linearGradient id="linear-gradient-31" x1="-1705.29" y1="371.29" x2="-1721.43" y2="355.14" gradientUnits="userSpaceOnUse"><stop offset="0" stop-color="#c10000"/><stop offset="1" stop-color="#590000"/></linearGradient><linearGradient id="linear-gradient-32" x1="251.6" y1="1526.92" x2="279.55" y2="1526.92" gradientTransform="matrix(-0.89, -0.45, -0.45, 0.89, 3739.46, -404.82)" gradientUnits="userSpaceOnUse"><stop offset="0" stop-color="#b37cff"/><stop offset="1" stop-color="#f895e7"/></linearGradient><linearGradient id="linear-gradient-33" x1="-525.01" y1="1768.27" x2="122.77" y2="1768.27" gradientTransform="matrix(-0.95, -0.3, -0.3, 0.95, 3322.15, -482.6)" xlink:href="#linear-gradient-32"/><linearGradient id="linear-gradient-34" x1="-504.33" y1="1996.23" x2="-464.12" y2="1996.23" xlink:href="#linear-gradient-32"/><linearGradient id="linear-gradient-35" x1="420.79" y1="-326.84" x2="-219.48" y2="1465.92" gradientTransform="matrix(-1, 0, 0, 1, 3104.59, 0)" xlink:href="#linear-gradient-5"/><linearGradient id="linear-gradient-36" x1="747.5" y1="865.56" x2="765.98" y2="865.56" gradientTransform="matrix(-0.94, -0.34, -0.34, 0.94, 3604.21, -270.79)" xlink:href="#linear-gradient-32"/><linearGradient id="linear-gradient-37" x1="61.66" y1="917.69" x2="489.92" y2="917.69" gradientTransform="matrix(-0.98, -0.19, -0.19, 0.98, 3181.51, -301.46)" xlink:href="#linear-gradient-32"/><linearGradient id="linear-gradient-38" x1="247.78" y1="1175.8" x2="274.36" y2="1175.8" gradientTransform="matrix(-0.94, -0.34, -0.34, 0.94, 3604.21, -270.79)" xlink:href="#linear-gradient-32"/><linearGradient id="linear-gradient-39" x1="508.79" y1="-323.43" x2="-131.48" y2="1469.33" gradientTransform="matrix(-1, 0, 0, 1, 3104.59, 0)" xlink:href="#linear-gradient-5"/></defs><title>steady returns</title><g id="Background"><rect class="cls-1" width="3710" height="3710"/></g><g id="Illustration"><path class="cls-2" d="M626.65,693.09C626.65,569.33,727,469,850.74,469H2756.39a197.42,197.42,0,0,1,197.17,187.39l140.67,2762.84a145.59,145.59,0,0,1-142.75,153L767.35,3611.89a138.18,138.18,0,0,1-140.7-138.17Z"/><path class="cls-3" d="M1086.57,3564.92s0,0-.07,21.59l-244.39-3.16c-81.72-22.64-148.2-90-148.2-171.71v-369a5.22,5.22,0,1,1,10.43,0v369c0,76,61.86,138.7,137.9,139.69l244.39,3.16a5.22,5.22,0,0,1-.06,10.43Z"/><path class="cls-3" d="M699.12,2933.57a5.21,5.21,0,0,1-5.21-5.21v-38.17c0-2.89,2.33-26.81,5.21-26.81a5.22,5.22,0,0,1,5.22,5.22v59.76A5.21,5.21,0,0,1,699.12,2933.57Z"/><path class="cls-4" d="M782.77,511.52A65.1,65.1,0,0,1,856.6,446.6c260.23,35.29,1155.11,144.44,1895,87.64A60.2,60.2,0,0,1,2816.41,591L2963.9,3366.17a69.28,69.28,0,0,1-65.07,72.85c-311.18,18.41-1592.71,89.6-2049.81,41.72a54.87,54.87,0,0,1-49.1-54.31Z"/><path class="cls-3" d="M813.42,581.07a62.64,62.64,0,0,1,71.05-62.48c250.44,34,1111.62,139,1823.63,84.34a57.93,57.93,0,0,1,62.38,54.63l141.94,2670.66a66.65,66.65,0,0,1-62.62,70.1c-299.46,17.72-1532.73,86.23-1972.62,40.16a52.81,52.81,0,0,1-47.25-52.27Z"/><rect class="cls-5" x="1768.4" y="746.01" width="908.13" height="282.41" rx="10.42"/><rect class="cls-5" x="976.22" y="1936.64" width="1732.61" height="114.48" rx="5.86"/><rect class="cls-5" x="976.22" y="2113.27" width="1732.61" height="114.48" rx="4.28"/><rect class="cls-5" x="977.66" y="3121.83" width="1768.81" height="114.48" rx="5.16"/><path class="cls-6" d="M2665.36,1816.71H1017.75a41.53,41.53,0,0,1-41.53-41.54V1158.26a41.53,41.53,0,0,1,41.53-41.54H2637.43a41.53,41.53,0,0,1,41.49,39.66l27.94,616.91A41.54,41.54,0,0,1,2665.36,1816.71Z"/><path class="cls-1" d="M2666.33,1823.19H1018.71a48.07,48.07,0,0,1-48-48V1158.25a48.07,48.07,0,0,1,48-48H2638.39a47.94,47.94,0,0,1,48,45.84L2714.29,1773a48,48,0,0,1-48,50.19Zm-1647.62-700a35.09,35.09,0,0,0-35.05,35v616.92a35.09,35.09,0,0,0,35.05,35.06H2666.33a35.07,35.07,0,0,0,35-36.65l-27.94-616.91a35,35,0,0,0-35-33.47Z"/><path class="cls-6" d="M2691.7,3052H1030.34a52.68,52.68,0,0,1-52.68-52.68V2404.7a52.68,52.68,0,0,1,52.68-52.69H2668.65a52.68,52.68,0,0,1,52.64,50.64l23.05,594.63A52.68,52.68,0,0,1,2691.7,3052Z"/><path class="cls-1" d="M2691.7,3058.48H1030.34a59.24,59.24,0,0,1-59.17-59.16V2404.69a59.24,59.24,0,0,1,59.17-59.16H2668.65a59,59,0,0,1,59.12,56.87L2750.82,2997a59.15,59.15,0,0,1-59.12,61.45Zm-1661.36-700a46.26,46.26,0,0,0-46.21,46.2v594.63a46.26,46.26,0,0,0,46.21,46.2H2691.7a46.2,46.2,0,0,0,46.17-48l-23-594.63a46.07,46.07,0,0,0-46.17-44.41Z"/><rect class="cls-1" x="1488.71" y="1116.67" width="12.96" height="700.09" transform="translate(-24.16 25.04) rotate(-0.95)"/><rect class="cls-1" x="2126.22" y="1116.59" width="12.96" height="700.24" transform="translate(-38.81 58.09) rotate(-1.55)"/><rect class="cls-1" x="1833.01" y="498.06" width="12.96" height="1716.1" transform="translate(476.92 3190.82) rotate(-89.8)"/><rect class="cls-1" x="981.44" y="1595.34" width="1716.08" height="12.96"/><rect class="cls-1" x="1143.72" y="2695.53" width="700.04" height="12.96" transform="translate(-1226.53 4162.22) rotate(-89.29)"/><rect class="cls-1" x="981.44" y="2515.62" width="1746.61" height="12.96"/><rect class="cls-1" x="981.44" y="2677" width="1750.97" height="12.96"/><rect class="cls-1" x="1852.22" y="1986.8" width="12.96" height="1762.24" transform="translate(-1032.17 4690.71) rotate(-89.29)"/><path class="cls-7" d="M1921.76,92.3c-68.84-47.89-128.69-46.94-170.83-34.51a84.05,84.05,0,0,0-59.69,88.36l18.17,198.33,216.22,19.19S2056.75,186.21,1921.76,92.3Zm-95.09,160a53.92,53.92,0,1,1,53.91-53.91A53.91,53.91,0,0,1,1826.67,252.3Z"/><path class="cls-3" d="M1731,261.05a5.23,5.23,0,0,1-5.19-4.75l-2.89-31.58a5.22,5.22,0,1,1,10.39-.95l2.89,31.59a5.22,5.22,0,0,1-4.72,5.67Zm-5.67-61.9a5.21,5.21,0,0,1-5.19-4.74l-2.2-24a80.23,80.23,0,0,1,56.88-84.17,161.46,161.46,0,0,1,79-3.24,5.22,5.22,0,1,1-2.09,10.22,151.45,151.45,0,0,0-74,3,69.77,69.77,0,0,0-49.44,73.21l2.2,24a5.21,5.21,0,0,1-4.72,5.67A3.85,3.85,0,0,1,1725.34,199.15Z"/><path class="cls-8" d="M1414.31,472.65V372.93a60.85,60.85,0,0,1,62.93-60.81l687.49,23.56a59.16,59.16,0,0,1,57,55.6l5.75,95.81Z"/><path class="cls-3" d="M1670.66,349.69h-29.57a5.22,5.22,0,0,1,0-10.43h29.57a5.22,5.22,0,1,1,0,10.43Z"/><path class="cls-3" d="M1451.52,441.34a5.22,5.22,0,0,1-5.21-5.22V395.78a56.58,56.58,0,0,1,56.52-56.52h108.7a5.22,5.22,0,0,1,0,10.43h-108.7a46.15,46.15,0,0,0-46.09,46.09v40.34A5.22,5.22,0,0,1,1451.52,441.34Z"/><path class="cls-9" d="M1134.19,497.83a64.79,64.79,0,0,1,64.71-61.68l1202.19,0a88.86,88.86,0,0,1,87.56,73.7l1,5.88A76.31,76.31,0,0,1,2414.48,605H1181.1a49.61,49.61,0,0,1-49.56-52Z"/><path class="cls-10" d="M1741.26,992.54c244.69-164.31,458.66-171.1,709.26-62.27a45.46,45.46,0,0,1,27.4,40.47l.27,10.24a45.39,45.39,0,0,1-59.32,44.4c-215.78-69.78-376.76-104.88-629.39,44-27.8,16.39-63.35-.8-67.89-32.76h0A45.42,45.42,0,0,1,1741.26,992.54Z"/><path class="cls-11" d="M1780.92,871.18l-126.19,210.37a9.89,9.89,0,0,0,8,15l235.75,11.22a11.46,11.46,0,0,0,10.76-16.62c-58.87-70.07-94.54-143.36-111.09-219.32A9.85,9.85,0,0,0,1780.92,871.18Z"/><path class="cls-12" d="M3595.49,3518.28s16.11,25.39,20.16,96.47a11.58,11.58,0,0,1-11.5,12.26h-126a7.43,7.43,0,0,1-7.07-9.77c7.39-21.84,29.7-75.11,79.5-105.55Z"/><path class="cls-13" d="M3601,3470.11l-7.12,59.75a11.25,11.25,0,0,1-9.81,9.87,99.91,99.91,0,0,1-26.64-.25,18.46,18.46,0,0,1-15.21-18.31v-57.68Z"/><path class="cls-14" d="M3283.82,3511.69s24.11,37.48,23.59,88.92a22.25,22.25,0,0,1-22.38,21.77H3089.39a9.37,9.37,0,0,1-5.39-17c37-26,109.79-74.56,162.42-93.65Z"/><path class="cls-13" d="M3304,3447.17l-15.2,73.79a15.21,15.21,0,0,1-18,12,54.94,54.94,0,0,1-17.2-7.19,17.47,17.47,0,0,1-7.8-17.83l15.72-89.38Z"/><path class="cls-15" d="M3573.05,2421.33s52.84,46.59,62.78,102.63-28.17,967-28.17,967-52.84,8.79-80.08-7.72c0,0-32.3-591.21-56.86-727.83,0,0-128.78,612.42-164.46,723.08,0,0-50.91,6.19-67.32-3.5,0,0,33.73-793.86,76.12-935Z"/><path class="cls-16" d="M3472.26,2735.79a5.53,5.53,0,0,1-1.34-.17,5.3,5.3,0,0,1-3.79-6.47l22.44-86.1a5.4,5.4,0,0,1,2.26-3.13l48.5-31.1a5.3,5.3,0,0,1,5.73,8.92l-46.76,30-21.91,84.09A5.31,5.31,0,0,1,3472.26,2735.79Z"/><path class="cls-17" d="M3051.6,1895c222.44-18.46,280.58,27.57,280.58,27.57l-106.9,168.76s-218.57-4.32-375.18-125c29.31-31.57,49.67-66.45,62.72-93.61C2953.21,1889.42,2999.71,1899.26,3051.6,1895Z"/><path class="cls-13" d="M2703.26,1568.44a6.82,6.82,0,0,1,13-2.61l28.38,60.57a63.09,63.09,0,0,1,5,37.54l-10,35.25a60.88,60.88,0,0,0,12.41,48.44c26.08,32.6,81.63,92.15,160.7,125-13.05,27.16-33.41,62-62.72,93.61-57.47-44.29-106.6-104.23-133.52-185.41a29.77,29.77,0,0,1-21-29.58Z"/><path class="cls-18" d="M2978.38,1992.79c78.31-84.38,227.47-122.5,313.83-138.16a79.22,79.22,0,0,1,88.53,50.23c38.86,104.47,144.56,376.26,165.05,423,16.8,38.32,34.35,75.75,45.51,99.15a28.09,28.09,0,0,1-13.11,37.43c-72.66,35-203.4,74.64-256.4,90.1a18.18,18.18,0,0,1-23.27-17.49,56.82,56.82,0,0,0-8.1-29.24l-200.74-334.51c-125.11,138.73-234.68,151.41-318.85,121a633.25,633.25,0,0,0,27.85-131.47C2923,2141.56,2978.38,1992.79,2978.38,1992.79Z"/><path class="cls-13" d="M2575.28,2105.5l40.65-23.77c72.65,49.9,150.18,80.11,199.89,71.59A633.19,633.19,0,0,1,2788,2284.78C2677.08,2244.78,2575.28,2105.5,2575.28,2105.5Z"/><path class="cls-13" d="M2365.09,2123.59c25.28-13.75,100.29-25.59,100.29-25.59s86.22-50.44,111-60.37c20.61-8.25,29.48,22.59,31.9,33.27.49,2.18.72,3.52.72,3.52l-3.19,20.51-87.11,38.71a110.88,110.88,0,0,1-59.45,8.62l-93-12.16a3.48,3.48,0,0,1-1.21-6.51Z"/><path class="cls-13" d="M3173.42,1699.66l66.71,162.78s-76.65,53-138.31,48l-33.29-146.37Z"/><path class="cls-13" d="M3060.74,1588.69c-1.52,2.17-48.25,171-48.25,171l97,24.64,68.06-153.42S3086.32,1552.46,3060.74,1588.69Z"/><path d="M3141,1654.2l-29.5,83.56a12,12,0,0,1-1.54,3c-4,5.69-19.21,24.25-37.25,7.53-16.37-15.17-31.54-28.78-45.55-31.25a12.37,12.37,0,0,0-14.08,8.89c-4.24,15.34-13.16,50.08-16.3,81.45a12.34,12.34,0,0,0,10,13.31c18.93,3.59,59.09,10.06,92.61,7.7a12.39,12.39,0,0,0,10.43-7.19c9.24-20.18,37.54-81.43,48.07-97.28,9.88-14.87,34.1-14.45,44.26-13.55a12.17,12.17,0,0,0,9.11-3c8.89-7.79,25.81-27.68,2-51.49a12.39,12.39,0,0,1,.29-17.84c10.22-9.61,21.14-26.65,4.12-47.78-17.3-21.48-40.14-18.06-54.13-13a12.4,12.4,0,0,1-14.91-5.51c-1.75-3-4.8-5.18-10.1-4.72a12.19,12.19,0,0,1-13-12.51c.25-13.75-4.68-31.14-28.55-38.57-42.35-13.18-68.77,27.74-71.38,58.27s44.12,42.22,71.6,40.16c20.89-1.57,36.4,19.14,42.64,29.16A12.27,12.27,0,0,1,3141,1654.2Z"/><path class="cls-13" d="M3146.87,1754.25s6.84-53,28.89-55.61,43.52,15.53,21.59,45.28C3170.08,1780.93,3146.87,1754.25,3146.87,1754.25Z"/><circle class="cls-19" cx="1787.82" cy="1413.45" r="158.57" transform="translate(-475.82 1678.17) rotate(-45)"/><circle class="cls-20" cx="1787.82" cy="1413.45" r="153.3" transform="translate(-475.82 1678.17) rotate(-45)"/><path class="cls-1" d="M1663,1352.29a6,6,0,0,1-5.07-8.78,147.7,147.7,0,0,1,160.41-74.35,6,6,0,0,1-2.45,11.65,137,137,0,0,0-24.39-2.87,135,135,0,0,0-123.09,71.22A5.94,5.94,0,0,1,1663,1352.29Z"/><circle class="cls-21" cx="1791.07" cy="1416.88" r="129.75" transform="translate(-477.29 1681.47) rotate(-45)"/><circle class="cls-22" cx="2218.69" cy="1312.32" r="231.06" transform="translate(-278.11 1953.22) rotate(-45)"/><circle class="cls-23" cx="2218.69" cy="1312.32" r="223.37" transform="translate(-278.11 1953.22) rotate(-45)"/><path class="cls-1" d="M2037,1219.51a5,5,0,0,1-4.24-7.35,210.3,210.3,0,0,1,191.74-111,213.62,213.62,0,0,1,38,4.47,5,5,0,0,1-2.06,9.76,201.55,201.55,0,0,0-218.9,101.45A5,5,0,0,1,2037,1219.51Z"/><circle class="cls-21" cx="2223.42" cy="1317.31" r="189.06" transform="translate(-280.26 1958.03) rotate(-45)"/><circle class="cls-24" cx="2089.81" cy="1814.69" r="237.75" transform="translate(-671.09 2009.23) rotate(-45)"/><circle class="cls-25" cx="2089.81" cy="1814.69" r="229.85" transform="translate(-671.09 2009.23) rotate(-45)"/><path class="cls-1" d="M1902.82,1719a5,5,0,0,1-4.24-7.34,216.26,216.26,0,0,1,197.17-114.09,218.85,218.85,0,0,1,39.06,4.6,5,5,0,1,1-2,9.75,209.24,209.24,0,0,0-37.28-4.38,206.33,206.33,0,0,0-188.13,108.85A5,5,0,0,1,1902.82,1719Z"/><circle class="cls-21" cx="2094.68" cy="1819.83" r="194.54" transform="translate(-673.3 2014.18) rotate(-45)"/><circle class="cls-26" cx="2556.55" cy="1600.52" r="174.2" transform="translate(-382.94 2276.54) rotate(-45)"/><circle class="cls-27" cx="2556.55" cy="1600.52" r="168.41" transform="translate(-382.94 2276.54) rotate(-45)"/><path class="cls-1" d="M2419.51,1531.77a4.86,4.86,0,0,1-2.22-.6,5,5,0,0,1-2-6.75,159.77,159.77,0,0,1,145.67-84.29,161.69,161.69,0,0,1,28.86,3.4,5,5,0,1,1-2.06,9.75,151.85,151.85,0,0,0-27.07-3.18A149.84,149.84,0,0,0,2424,1529.15,5,5,0,0,1,2419.51,1531.77Z"/><circle class="cls-21" cx="2560.12" cy="1604.28" r="142.54" transform="translate(-384.56 2280.16) rotate(-45)"/><path class="cls-28" d="M2467.15,2079.16c-249.08,141.67-457,132.84-692.15,9.27a44.22,44.22,0,0,1-23.64-41.22l.47-10a44.12,44.12,0,0,1,60.72-38.76c204.17,83.2,357.72,128.83,613.39,2.67,28.14-13.89,61.36,5.34,63.46,36.65h0A44.16,44.16,0,0,1,2467.15,2079.16Z"/><path class="cls-29" d="M2420,2194l137.51-194.87a9.61,9.61,0,0,0-6.69-15.08L2323,1956.16a11.13,11.13,0,0,0-11.64,15.33c52,72.18,81.33,145.81,91.91,220.64A9.57,9.57,0,0,0,2420,2194Z"/><path class="cls-30" d="M49.8,2861.67l20.4,634.46c3.56,110.63,94.35,198.68,205.56,199.33l1519.33,9c74.32.43,137.64-53.57,148.5-126.76,23.75-160.22,54-446.91,19.94-716Z"/><path class="cls-1" d="M1750.4,3666.08h0l-14.56-.09a2.43,2.43,0,0,1,0-4.86h0l14.56.09a2.43,2.43,0,0,1,0,4.86Zm-48.54-.29h0l-14.56-.09a2.43,2.43,0,1,1,0-4.85h0l14.56.09a2.43,2.43,0,0,1,0,4.85Zm-48.53-.29h0l-14.56-.08a2.43,2.43,0,0,1,0-4.86h0l14.56.09a2.43,2.43,0,0,1,0,4.85Zm-48.54-.28h0l-14.57-.09a2.43,2.43,0,0,1,0-4.85h0l14.56.08a2.43,2.43,0,0,1,0,4.86Zm-48.53-.29h0l-14.56-.08a2.43,2.43,0,0,1-2.41-2.45,2.6,2.6,0,0,1,2.44-2.41l14.56.09a2.43,2.43,0,0,1,0,4.85Zm-48.54-.29h0l-14.56-.08a2.43,2.43,0,0,1,0-4.86h0l14.56.09a2.43,2.43,0,1,1,0,4.85Zm-48.54-.28h0l-14.56-.09a2.44,2.44,0,0,1-2.42-2.44,2.52,2.52,0,0,1,2.45-2.41l14.56.08a2.43,2.43,0,0,1,0,4.86Zm-48.53-.29h0l-14.56-.08a2.43,2.43,0,0,1,0-4.86h0l14.56.09a2.43,2.43,0,0,1,0,4.85Zm-48.54-.28h0l-14.56-.09a2.43,2.43,0,1,1,0-4.85l14.57.08a2.43,2.43,0,0,1,0,4.86Zm422.11-.05a2.42,2.42,0,0,1-.44-4.81,137.43,137.43,0,0,0,13.92-3.32,2.43,2.43,0,0,1,1.37,4.66,144.41,144.41,0,0,1-14.41,3.43A2.25,2.25,0,0,1,1784.22,3663.74Zm-470.65-.24h0l-14.56-.09a2.43,2.43,0,0,1,0-4.85h0l14.56.09a2.43,2.43,0,0,1,0,4.85Zm-48.53-.29h0l-14.56-.08a2.43,2.43,0,0,1-2.42-2.44,2.38,2.38,0,0,1,2.44-2.42l14.56.09a2.43,2.43,0,1,1,0,4.85Zm-48.54-.28h0l-14.56-.09a2.43,2.43,0,0,1,0-4.85h0l14.56.08a2.43,2.43,0,0,1,0,4.86Zm-48.53-.29h0l-14.56-.08a2.43,2.43,0,0,1,0-4.86h0l14.56.09a2.43,2.43,0,0,1,0,4.85Zm-48.54-.29h0l-14.56-.08a2.43,2.43,0,0,1,0-4.85h0l14.56.08a2.43,2.43,0,0,1,0,4.85Zm-48.53-.28h0l-14.56-.09a2.43,2.43,0,0,1,0-4.85h0l14.56.09a2.43,2.43,0,0,1,0,4.85Zm-48.54-.29h0l-14.57-.08a2.43,2.43,0,0,1,0-4.86h0l14.56.09a2.43,2.43,0,1,1,0,4.85Zm-48.53-.28h0l-14.56-.09a2.43,2.43,0,0,1,0-4.85h0l14.56.08a2.43,2.43,0,0,1,0,4.86Zm-48.54-.29h0l-14.56-.09a2.43,2.43,0,0,1,0-4.85h0l14.56.09a2.43,2.43,0,1,1,0,4.85Zm-48.54-.28h0l-14.56-.09a2.44,2.44,0,0,1-2.42-2.44,2.55,2.55,0,0,1,2.45-2.41l14.56.08a2.43,2.43,0,0,1,0,4.86Zm-48.53-.29h0l-14.56-.09a2.43,2.43,0,0,1,0-4.85h0l14.56.09a2.43,2.43,0,0,1,0,4.85Zm-48.54-.29h0l-14.56-.08a2.44,2.44,0,0,1-2.42-2.44,2.49,2.49,0,0,1,2.44-2.42l14.57.09a2.43,2.43,0,0,1,0,4.85Zm-48.54-.28h0l-14.56-.09a2.43,2.43,0,0,1,0-4.85h0l14.56.08a2.43,2.43,0,0,1,0,4.86Zm-48.53-.29h0L668,3659.7a2.44,2.44,0,0,1-2.42-2.45,2.41,2.41,0,0,1,2.44-2.41l14.56.09a2.43,2.43,0,1,1,0,4.85Zm-48.54-.29h0l-14.56-.08a2.43,2.43,0,0,1,0-4.85h0l14.56.08a2.43,2.43,0,0,1,0,4.85Zm-48.53-.28h0l-14.57-.09a2.42,2.42,0,0,1-2.41-2.44,2.34,2.34,0,0,1,2.44-2.41l14.56.09a2.43,2.43,0,1,1,0,4.85Zm-48.54-.29h0l-14.56-.08a2.43,2.43,0,0,1,0-4.86h0l14.56.09a2.43,2.43,0,0,1,0,4.85Zm-48.53-.28h0l-14.56-.09a2.43,2.43,0,0,1,0-4.85h0l14.56.08a2.43,2.43,0,0,1,0,4.86Zm-48.54-.29h0l-14.56-.09a2.43,2.43,0,1,1,0-4.85h0l14.56.09a2.43,2.43,0,0,1,0,4.85Zm-48.53-.28h0l-14.56-.09a2.43,2.43,0,0,1,0-4.85h0l14.56.08a2.43,2.43,0,0,1,0,4.86Zm-48.54-.29h0l-14.56-.09a2.43,2.43,0,0,1,0-4.85h0l14.56.08a2.43,2.43,0,0,1,0,4.86Zm-48.51-1h-.22c-4.88-.45-9.8-1.08-14.61-1.88a2.43,2.43,0,0,1,.8-4.79c4.69.78,9.49,1.4,14.25,1.84a2.42,2.42,0,0,1-.22,4.84ZM1829.54,3647a2.43,2.43,0,0,1-1.22-4.53,139,139,0,0,0,12-7.79,2.43,2.43,0,0,1,2.85,3.94,146.2,146.2,0,0,1-12.42,8.05A2.42,2.42,0,0,1,1829.54,3647Zm-1582.48-.55a2.54,2.54,0,0,1-.8-.14c-4.61-1.62-9.22-3.44-13.7-5.39a2.43,2.43,0,1,1,1.95-4.45c4.36,1.91,8.86,3.68,13.36,5.26a2.43,2.43,0,0,1-.81,4.72Zm-43.32-21.54a2.46,2.46,0,0,1-1.34-.4c-4.08-2.7-8.11-5.59-12-8.58a2.43,2.43,0,1,1,3-3.84c3.76,2.92,7.7,5.73,11.68,8.37a2.43,2.43,0,0,1-1.34,4.45Zm1662.89-8.83a2.39,2.39,0,0,1-1.57-.58,2.43,2.43,0,0,1-.28-3.42c3.07-3.62,6-7.43,8.7-11.35a2.42,2.42,0,0,1,3.37-.63,2.45,2.45,0,0,1,.63,3.38c-2.8,4.05-5.82,8-9,11.74A2.42,2.42,0,0,1,1866.63,3616.1ZM167,3593.48a2.41,2.41,0,0,1-1.79-.79c-3.3-3.61-6.51-7.39-9.53-11.23a2.42,2.42,0,1,1,3.81-3c2.95,3.75,6.08,7.43,9.31,11a2.42,2.42,0,0,1-1.8,4.06Zm1724.21-19a2.33,2.33,0,0,1-.85-.16,2.42,2.42,0,0,1-1.42-3.12,136.54,136.54,0,0,0,4.34-13.63,2.42,2.42,0,0,1,4.69,1.23,140.94,140.94,0,0,1-4.49,14.11A2.42,2.42,0,0,1,1891.16,3574.51ZM138.94,3554a2.4,2.4,0,0,1-2.14-1.28c-2.32-4.31-4.51-8.77-6.5-13.24a2.43,2.43,0,1,1,4.44-2c1.94,4.36,4.07,8.71,6.33,12.91a2.43,2.43,0,0,1-1,3.29A2.33,2.33,0,0,1,138.94,3554Zm1762.4-26.83-.35,0a2.43,2.43,0,0,1-2.06-2.75q1-7.07,2-14.41a2.42,2.42,0,1,1,4.8.66q-1,7.37-2,14.43A2.43,2.43,0,0,1,1901.34,3527.18ZM121.48,3508.84a2.42,2.42,0,0,1-2.35-1.85c-1.18-4.75-2.19-9.61-3-14.42a2.42,2.42,0,1,1,4.78-.81c.8,4.69,1.79,9.43,2.94,14.06a2.44,2.44,0,0,1-1.77,2.95A3,3,0,0,1,121.48,3508.84Zm1786.33-29.78a1.56,1.56,0,0,1-.31,0,2.42,2.42,0,0,1-2.1-2.71q.9-7.11,1.8-14.44a2.39,2.39,0,0,1,2.7-2.11,2.42,2.42,0,0,1,2.11,2.7q-.9,7.33-1.8,14.46A2.42,2.42,0,0,1,1907.81,3479.06ZM115.59,3460.79a2.43,2.43,0,0,1-2.42-2.35l-.47-14.55a2.43,2.43,0,1,1,4.85-.16l.47,14.55a2.43,2.43,0,0,1-2.34,2.51Zm1798-29.93h-.28a2.43,2.43,0,0,1-2.14-2.69q.79-7.15,1.59-14.46a2.38,2.38,0,0,1,2.67-2.16,2.42,2.42,0,0,1,2.15,2.67q-.78,7.34-1.58,14.49A2.43,2.43,0,0,1,1913.56,3430.86ZM114,3412.27a2.42,2.42,0,0,1-2.42-2.34l-.47-14.56a2.43,2.43,0,0,1,2.35-2.5,2.37,2.37,0,0,1,2.5,2.35l.47,14.55a2.43,2.43,0,0,1-2.35,2.5Zm1804.55-29.7h-.24a2.42,2.42,0,0,1-2.18-2.64q.69-7.18,1.36-14.49a2.43,2.43,0,0,1,4.84.44q-.67,7.32-1.37,14.51A2.42,2.42,0,0,1,1918.58,3382.57ZM112.47,3363.76a2.42,2.42,0,0,1-2.42-2.34l-.47-14.56a2.43,2.43,0,0,1,2.35-2.5,2.33,2.33,0,0,1,2.5,2.35l.47,14.55a2.42,2.42,0,0,1-2.35,2.5Zm1810.4-29.54h-.2a2.44,2.44,0,0,1-2.23-2.62q.58-7.2,1.14-14.5a2.43,2.43,0,1,1,4.84.37q-.56,7.3-1.14,14.53A2.43,2.43,0,0,1,1922.87,3334.22Zm-1812-19a2.42,2.42,0,0,1-2.42-2.34l-.46-14.56a2.41,2.41,0,0,1,2.34-2.5,2.46,2.46,0,0,1,2.51,2.34l.46,14.56a2.42,2.42,0,0,1-2.35,2.5Zm1815.48-29.45h-.16a2.44,2.44,0,0,1-2.27-2.58q.46-7.23.91-14.52a2.42,2.42,0,1,1,4.84.29q-.43,7.31-.9,14.54A2.43,2.43,0,0,1,1926.39,3285.8Zm-1817-19.06a2.42,2.42,0,0,1-2.42-2.35l-.47-14.55a2.43,2.43,0,0,1,4.85-.16l.47,14.56a2.42,2.42,0,0,1-2.34,2.5Zm1819.77-29.41H1929a2.43,2.43,0,0,1-2.31-2.54q.35-7.23.66-14.54a2.43,2.43,0,1,1,4.85.21q-.32,7.32-.66,14.56A2.42,2.42,0,0,1,1929.12,3237.33ZM107.8,3218.23a2.43,2.43,0,0,1-2.43-2.35l-.47-14.55a2.43,2.43,0,0,1,4.85-.16l.47,14.56a2.42,2.42,0,0,1-2.34,2.5ZM1931,3188.83h-.07a2.43,2.43,0,0,1-2.35-2.5q.21-7.24.4-14.55a2.49,2.49,0,0,1,2.48-2.36,2.42,2.42,0,0,1,2.37,2.48c-.12,4.88-.25,9.73-.4,14.58A2.43,2.43,0,0,1,1931,3188.83ZM106.24,3169.72a2.43,2.43,0,0,1-2.43-2.35l-.47-14.55a2.44,2.44,0,0,1,2.35-2.51,2.48,2.48,0,0,1,2.51,2.35l.46,14.55a2.43,2.43,0,0,1-2.34,2.51ZM1932,3140.3h0a2.42,2.42,0,0,1-2.4-2.45c.05-4.83.1-9.67.12-14.52a2.43,2.43,0,0,1,2.43-2.41h0a2.43,2.43,0,0,1,2.41,2.44q0,7.29-.13,14.55A2.42,2.42,0,0,1,1932,3140.3ZM104.67,3121.21a2.43,2.43,0,0,1-2.42-2.35l-.46-14.56a2.42,2.42,0,0,1,2.34-2.5,2.39,2.39,0,0,1,2.5,2.35l.47,14.55a2.43,2.43,0,0,1-2.35,2.51Zm1827.43-29.4a2.43,2.43,0,0,1-2.42-2.41q-.06-7.26-.17-14.54a2.43,2.43,0,0,1,2.39-2.47,2.39,2.39,0,0,1,2.46,2.39q.11,7.3.17,14.58a2.43,2.43,0,0,1-2.41,2.45Zm-1829-19.11a2.43,2.43,0,0,1-2.42-2.35l-.47-14.56a2.43,2.43,0,0,1,2.35-2.5,2.39,2.39,0,0,1,2.5,2.35l.47,14.55a2.42,2.42,0,0,1-2.34,2.5Zm1828.07-29.42a2.44,2.44,0,0,1-2.43-2.35q-.21-7.26-.48-14.54a2.43,2.43,0,0,1,2.34-2.51,2.46,2.46,0,0,1,2.51,2.33q.27,7.3.49,14.57a2.43,2.43,0,0,1-2.35,2.5Zm-1829.62-19.1a2.42,2.42,0,0,1-2.43-2.35l-.46-14.55a2.43,2.43,0,0,1,4.85-.16l.46,14.56a2.42,2.42,0,0,1-2.34,2.5Zm1827.62-29.39a2.43,2.43,0,0,1-2.42-2.3q-.39-7.26-.82-14.53a2.42,2.42,0,0,1,2.27-2.56,2.46,2.46,0,0,1,2.57,2.28q.43,7.28.83,14.55a2.43,2.43,0,0,1-2.3,2.55ZM100,2975.67a2.42,2.42,0,0,1-2.43-2.35l-.47-14.55a2.43,2.43,0,0,1,2.35-2.5,2.39,2.39,0,0,1,2.51,2.34l.46,14.56a2.41,2.41,0,0,1-2.34,2.5Zm1826-29.31a2.43,2.43,0,0,1-2.42-2.24q-.57-7.26-1.19-14.5a2.42,2.42,0,0,1,2.21-2.62,2.39,2.39,0,0,1,2.63,2.21q.62,7.26,1.19,14.53a2.43,2.43,0,0,1-2.23,2.61ZM98.44,2927.16a2.43,2.43,0,0,1-2.43-2.35l-.46-14.55a2.43,2.43,0,0,1,2.34-2.51,2.54,2.54,0,0,1,2.5,2.35l.47,14.56a2.42,2.42,0,0,1-2.34,2.5ZM1921.59,2898a2.43,2.43,0,0,1-2.41-2.17q-.77-7.23-1.59-14.45a2.43,2.43,0,0,1,4.82-.56q.83,7.24,1.59,14.5a2.42,2.42,0,0,1-2.16,2.67ZM96.87,2878.65a2.43,2.43,0,0,1-2.42-2.35l-.54-17.06h13.51a2.43,2.43,0,0,1,0,4.86h-8.5l.38,12a2.43,2.43,0,0,1-2.34,2.51Zm1806.4-14.55h-14.56a2.43,2.43,0,0,1,0-4.86h14.56a2.43,2.43,0,0,1,0,4.86Zm-48.54,0h-14.56a2.43,2.43,0,0,1,0-4.86h14.56a2.43,2.43,0,0,1,0,4.86Zm-48.53,0h-14.56a2.43,2.43,0,0,1,0-4.86h14.56a2.43,2.43,0,0,1,0,4.86Zm-48.54,0H1743.1a2.43,2.43,0,0,1,0-4.86h14.56a2.43,2.43,0,0,1,0,4.86Zm-48.54,0h-14.56a2.43,2.43,0,0,1,0-4.86h14.56a2.43,2.43,0,0,1,0,4.86Zm-48.53,0H1646a2.43,2.43,0,1,1,0-4.86h14.56a2.43,2.43,0,0,1,0,4.86Zm-48.54,0h-14.56a2.43,2.43,0,1,1,0-4.86h14.56a2.43,2.43,0,0,1,0,4.86Zm-48.54,0H1549a2.43,2.43,0,0,1,0-4.86h14.56a2.43,2.43,0,0,1,0,4.86Zm-48.53,0h-14.56a2.43,2.43,0,0,1,0-4.86H1515a2.43,2.43,0,0,1,0,4.86Zm-48.54,0h-14.56a2.43,2.43,0,0,1,0-4.86h14.56a2.43,2.43,0,0,1,0,4.86Zm-48.54,0h-14.56a2.43,2.43,0,0,1,0-4.86h14.56a2.43,2.43,0,0,1,0,4.86Zm-48.53,0h-14.56a2.43,2.43,0,0,1,0-4.86h14.56a2.43,2.43,0,0,1,0,4.86Zm-48.54,0h-14.56a2.43,2.43,0,0,1,0-4.86h14.56a2.43,2.43,0,0,1,0,4.86Zm-48.54,0h-14.56a2.43,2.43,0,0,1,0-4.86h14.56a2.43,2.43,0,0,1,0,4.86Zm-48.53,0H1209.2a2.43,2.43,0,0,1,0-4.86h14.56a2.43,2.43,0,0,1,0,4.86Zm-48.54,0h-14.56a2.43,2.43,0,0,1,0-4.86h14.56a2.43,2.43,0,0,1,0,4.86Zm-48.54,0h-14.56a2.43,2.43,0,0,1,0-4.86h14.56a2.43,2.43,0,0,1,0,4.86Zm-48.53,0h-14.56a2.43,2.43,0,0,1,0-4.86h14.56a2.43,2.43,0,0,1,0,4.86Zm-48.54,0h-14.56a2.43,2.43,0,0,1,0-4.86h14.56a2.43,2.43,0,0,1,0,4.86Zm-48.53,0H966.51a2.43,2.43,0,0,1,0-4.86h14.57a2.43,2.43,0,0,1,0,4.86Zm-48.54,0H918a2.43,2.43,0,0,1,0-4.86h14.56a2.43,2.43,0,0,1,0,4.86Zm-48.54,0H869.44a2.43,2.43,0,0,1,0-4.86H884a2.43,2.43,0,0,1,0,4.86Zm-48.53,0H820.9a2.43,2.43,0,0,1,0-4.86h14.57a2.43,2.43,0,0,1,0,4.86Zm-48.54,0H772.37a2.43,2.43,0,1,1,0-4.86h14.56a2.43,2.43,0,0,1,0,4.86Zm-48.54,0H723.83a2.43,2.43,0,0,1,0-4.86h14.56a2.43,2.43,0,0,1,0,4.86Zm-48.53,0H675.29a2.43,2.43,0,0,1,0-4.86h14.57a2.43,2.43,0,0,1,0,4.86Zm-48.54,0H626.76a2.43,2.43,0,1,1,0-4.86h14.56a2.43,2.43,0,0,1,0,4.86Zm-48.54,0H578.22a2.43,2.43,0,0,1,0-4.86h14.56a2.43,2.43,0,0,1,0,4.86Zm-48.53,0H529.68a2.43,2.43,0,0,1,0-4.86h14.57a2.43,2.43,0,0,1,0,4.86Zm-48.54,0H481.15a2.43,2.43,0,1,1,0-4.86h14.56a2.43,2.43,0,0,1,0,4.86Zm-48.54,0H432.61a2.43,2.43,0,1,1,0-4.86h14.56a2.43,2.43,0,0,1,0,4.86Zm-48.53,0H384.07a2.43,2.43,0,0,1,0-4.86h14.57a2.43,2.43,0,0,1,0,4.86Zm-48.54,0H335.54a2.43,2.43,0,1,1,0-4.86H350.1a2.43,2.43,0,0,1,0,4.86Zm-48.54,0H287a2.43,2.43,0,1,1,0-4.86h14.56a2.43,2.43,0,0,1,0,4.86Zm-48.53,0H238.47a2.43,2.43,0,1,1,0-4.86H253a2.43,2.43,0,0,1,0,4.86Zm-48.54,0H189.93a2.43,2.43,0,1,1,0-4.86h14.56a2.43,2.43,0,0,1,0,4.86Zm-48.54,0H141.39a2.43,2.43,0,1,1,0-4.86H156a2.43,2.43,0,0,1,0,4.86Z"/><path class="cls-31" d="M495.06,2401.08l4.57-48.93a37.61,37.61,0,0,1,28.54-22c47.33-7.54,164.72-20.78,221.24,21.46l8.45,56.86Z"/><path class="cls-32" d="M642.92,2354a68,68,0,0,1-32.75,0,29.58,29.58,0,0,1-22.57-28.66V2172.08h78v153.1A29.72,29.72,0,0,1,642.92,2354Z"/><path class="cls-33" d="M1250.3,2401.08l4.57-48.93a37.59,37.59,0,0,1,28.53-22c47.34-7.54,164.73-20.78,221.25,21.46l8.44,56.86Z"/><path class="cls-34" d="M1398.16,2354a68,68,0,0,1-32.76,0,29.58,29.58,0,0,1-22.56-28.66V2155.94h78v169.24A29.71,29.71,0,0,1,1398.16,2354Z"/><path class="cls-35" d="M579.68,2209.64l838.56-27.76a40.42,40.42,0,0,0,38.62-33.18c4.6-26.25,8.65-65.55,2.61-106.29-6.87-46.33-46.72-80.75-93.75-81.87-156.44-3.72-554.68-3.61-774.17,83.22A76.65,76.65,0,0,0,545.24,2097c-5.6,23-9.33,53.82-2,85.15A36.1,36.1,0,0,0,579.68,2209.64Z"/><path class="cls-1" d="M565.16,2167.22a4.85,4.85,0,0,1-4.82-4.36c-.14-1.34-3.21-33.07,5-63.62A71,71,0,0,1,613.8,2050c46.77-13.73,136.14-37.06,209.22-39.1a4.85,4.85,0,1,1,.27,9.7c-72,2-160.44,25.12-206.75,38.71a61.33,61.33,0,0,0-41.78,42.43c-7.8,28.83-4.8,59.79-4.76,60.1a4.86,4.86,0,0,1-4.34,5.32Z"/><path class="cls-36" d="M106,2382c270.91-3.47,1442.86-15.78,1783.28,25.29a69.31,69.31,0,0,1,59.58,53.68c20.12,90.94,60.59,302.2,55.79,511.6-.65,28.5-21.55,52.54-49.68,57.87l-777.08,147h-276l-828-164.59a64.75,64.75,0,0,1-52.21-60.1c-5.38-105.35-13.79-352.55,14.7-511.66A71.64,71.64,0,0,1,106,2382Z"/><path class="cls-1" d="M908.45,3112.94a2.61,2.61,0,0,1-.48-.05l-14.28-2.84a2.43,2.43,0,1,1,.95-4.76l14.28,2.84a2.43,2.43,0,0,1-.47,4.81Zm236.17,0h-14.56a2.43,2.43,0,0,1,0-4.86h14.56a2.43,2.43,0,0,1,0,4.86Zm-48.54,0h-14.56a2.43,2.43,0,1,1,0-4.86h14.56a2.43,2.43,0,0,1,0,4.86Zm-48.53,0H1033a2.43,2.43,0,0,1,0-4.86h14.57a2.43,2.43,0,0,1,0,4.86Zm-48.54,0H984.45a2.43,2.43,0,0,1,0-4.86H999a2.43,2.43,0,0,1,0,4.86Zm-48.54,0H935.91a2.43,2.43,0,1,1,0-4.86h14.56a2.43,2.43,0,0,1,0,4.86Zm228-1.3a2.43,2.43,0,0,1-.45-4.81l14.31-2.71a2.43,2.43,0,0,1,.9,4.77l-14.31,2.71A2.28,2.28,0,0,1,1178.47,3111.64Zm-317.63-8.16a2.59,2.59,0,0,1-.47-.05l-14.28-2.84a2.43,2.43,0,1,1,.94-4.76l14.28,2.84a2.43,2.43,0,0,1-.47,4.81Zm365.32-.86a2.43,2.43,0,0,1-.45-4.81l14.31-2.71a2.43,2.43,0,1,1,.9,4.77l-14.31,2.7A2.3,2.3,0,0,1,1226.16,3102.62ZM813.24,3094a2,2,0,0,1-.48-.05l-14.28-2.83a2.43,2.43,0,1,1,.95-4.76l14.28,2.84a2.42,2.42,0,0,1-.47,4.8Zm460.61-.42a2.43,2.43,0,0,1-.45-4.81l14.31-2.7a2.43,2.43,0,1,1,.9,4.77l-14.31,2.7A2.28,2.28,0,0,1,1273.85,3093.59Zm47.69-9a2.43,2.43,0,0,1-.45-4.81l14.31-2.71a2.43,2.43,0,1,1,.9,4.77l-14.3,2.71A2.45,2.45,0,0,1,1321.54,3084.57Zm-555.91,0a1.93,1.93,0,0,1-.47-.05l-14.29-2.84a2.42,2.42,0,0,1,1-4.75l14.28,2.83a2.43,2.43,0,0,1-.47,4.81Zm603.6-9a2.43,2.43,0,0,1-.45-4.81l14.31-2.71a2.43,2.43,0,1,1,.9,4.77l-14.3,2.71A2.45,2.45,0,0,1,1369.23,3075.55Zm-651.2-.46a2.61,2.61,0,0,1-.48-.05l-14.28-2.84a2.43,2.43,0,0,1-1.91-2.85,2.4,2.4,0,0,1,2.86-1.91l14.28,2.84a2.43,2.43,0,0,1-.47,4.81Zm698.89-8.56a2.43,2.43,0,0,1-.44-4.81l14.3-2.71a2.43,2.43,0,1,1,.9,4.77l-14.3,2.7A2.49,2.49,0,0,1,1416.92,3066.53Zm-746.5-.91a2.56,2.56,0,0,1-.47,0l-14.29-2.84a2.43,2.43,0,0,1,1-4.76l14.28,2.84a2.42,2.42,0,0,1-.47,4.8Zm794.19-8.12a2.43,2.43,0,0,1-.44-4.81l14.3-2.7a2.43,2.43,0,1,1,.9,4.77l-14.3,2.7A2.45,2.45,0,0,1,1464.61,3057.5Zm-841.79-1.34a2,2,0,0,1-.48,0l-14.28-2.84a2.42,2.42,0,1,1,1-4.75l14.28,2.84a2.42,2.42,0,0,1-.47,4.8Zm889.48-7.68a2.43,2.43,0,0,1-.44-4.81l14.3-2.7a2.42,2.42,0,1,1,.9,4.76l-14.3,2.71A2.38,2.38,0,0,1,1512.3,3048.48Zm-937.09-1.78a2.5,2.5,0,0,1-.47,0l-14.29-2.84a2.43,2.43,0,0,1,.95-4.76l14.28,2.84a2.43,2.43,0,0,1-.47,4.81Zm984.79-7.24a2.43,2.43,0,0,1-.45-4.81l14.3-2.71a2.43,2.43,0,0,1,.91,4.77l-14.31,2.71A2.35,2.35,0,0,1,1560,3039.46Zm-1032.39-2.22a2.61,2.61,0,0,1-.48,0l-14.28-2.84a2.43,2.43,0,0,1-1.91-2.85,2.4,2.4,0,0,1,2.86-1.91l14.28,2.84a2.43,2.43,0,0,1-.47,4.81Zm1080.08-6.8a2.43,2.43,0,0,1-.45-4.81l14.31-2.71a2.43,2.43,0,0,1,.9,4.77l-14.31,2.71A3.58,3.58,0,0,1,1607.69,3030.44ZM480,3027.77a2.67,2.67,0,0,1-.48,0l-14.28-2.84a2.43,2.43,0,0,1,.95-4.76l14.28,2.84a2.42,2.42,0,0,1-.47,4.8Zm1175.38-6.35a2.43,2.43,0,0,1-.45-4.82l14.31-2.7a2.43,2.43,0,0,1,.9,4.77l-14.31,2.7A2.3,2.3,0,0,1,1655.38,3021.42Zm-1223-3.11a2,2,0,0,1-.48,0l-14.28-2.84a2.42,2.42,0,1,1,.95-4.75l14.28,2.83a2.43,2.43,0,0,1-.47,4.81Zm1270.67-5.92a2.43,2.43,0,0,1-.45-4.81l14.31-2.7a2.42,2.42,0,0,1,.9,4.76l-14.31,2.71A2.28,2.28,0,0,1,1703.07,3012.39Zm-1318.28-3.54a2.7,2.7,0,0,1-.48,0L370,3006a2.43,2.43,0,1,1,.94-4.76l14.28,2.84a2.43,2.43,0,0,1-.47,4.81Zm1366-5.48a2.43,2.43,0,0,1-.45-4.81l14.31-2.71a2.43,2.43,0,0,1,.9,4.77l-14.31,2.71A2.28,2.28,0,0,1,1750.76,3003.37Zm-1413.57-4a2.61,2.61,0,0,1-.48,0l-14.28-2.84a2.43,2.43,0,1,1,.95-4.76l14.28,2.84a2.43,2.43,0,0,1-.47,4.81Zm1461.26-5a2.43,2.43,0,0,1-.45-4.81l14.31-2.71a2.43,2.43,0,0,1,.9,4.77l-14.31,2.71A3.42,3.42,0,0,1,1798.45,2994.35Zm-1508.87-4.43a2.59,2.59,0,0,1-.48,0L274.82,2987a2.43,2.43,0,0,1,.95-4.76l14.28,2.84a2.42,2.42,0,0,1-.47,4.8Zm1556.56-4.59a2.43,2.43,0,0,1-.45-4.82l14.31-2.7a2.43,2.43,0,0,1,.9,4.77l-14.31,2.7A2.3,2.3,0,0,1,1846.14,2985.33ZM242,2980.46a1.93,1.93,0,0,1-.47-.05l-14.28-2.84a2.43,2.43,0,1,1,.95-4.76l14.28,2.84a2.43,2.43,0,0,1-.48,4.81Zm1651.86-4.16a2.43,2.43,0,0,1-.45-4.81l14.31-2.7a2.42,2.42,0,1,1,.9,4.76l-14.31,2.71A2.28,2.28,0,0,1,1893.83,2976.3ZM194.37,2971a2.61,2.61,0,0,1-.48-.05l-14.28-2.84a2.42,2.42,0,0,1-1.9-2.85,2.39,2.39,0,0,1,2.85-1.91l14.28,2.84a2.43,2.43,0,0,1-.47,4.81Zm1743.52-6.78h0a2.43,2.43,0,0,1-2.39-2.47q.1-7.26.16-14.53a2.42,2.42,0,0,1,2.42-2.42h0a2.43,2.43,0,0,1,2.41,2.45q0,7.29-.16,14.58A2.43,2.43,0,0,1,1937.89,2964.22Zm-1791.13-2.69a2.56,2.56,0,0,1-.47,0L132,2958.65a2.43,2.43,0,0,1,.94-4.76l14.28,2.84a2.42,2.42,0,0,1-.47,4.8Zm-47.6-9.46a2.59,2.59,0,0,1-.48,0l-12.57-2.5-.27-5.53a2.42,2.42,0,0,1,4.84-.24l.09,1.74,8.86,1.77a2.42,2.42,0,0,1-.47,4.8Zm1838.71-36.39a2.42,2.42,0,0,1-2.42-2.39q-.12-7.27-.3-14.52a2.41,2.41,0,0,1,2.36-2.49h.06a2.42,2.42,0,0,1,2.43,2.36q.18,7.28.3,14.57a2.43,2.43,0,0,1-2.39,2.47ZM86.71,2912.36a2.42,2.42,0,0,1-2.42-2.33q-.29-7.05-.58-14.56a2.43,2.43,0,0,1,2.34-2.52,2.38,2.38,0,0,1,2.51,2.34q.28,7.5.58,14.54a2.44,2.44,0,0,1-2.33,2.53Zm1849.67-45.19a2.44,2.44,0,0,1-2.43-2.32q-.32-7.26-.71-14.49a2.43,2.43,0,1,1,4.85-.25q.39,7.24.71,14.52a2.43,2.43,0,0,1-2.31,2.54ZM85,2863.84a2.42,2.42,0,0,1-2.43-2.35q-.21-7.15-.41-14.57a2.42,2.42,0,0,1,2.36-2.49,2.57,2.57,0,0,1,2.49,2.36q.2,7.41.41,14.55a2.43,2.43,0,0,1-2.35,2.5Zm1848.58-45.1a2.41,2.41,0,0,1-2.41-2.25q-.53-7.29-1.09-14.51a2.43,2.43,0,0,1,4.84-.38q.57,7.24,1.09,14.54a2.42,2.42,0,0,1-2.25,2.59ZM83.8,2815.31a2.43,2.43,0,0,1-2.43-2.38l-.24-14.57a2.43,2.43,0,0,1,2.39-2.47,2.4,2.4,0,0,1,2.46,2.39l.24,14.56a2.42,2.42,0,0,1-2.38,2.47Zm1845.75-45a2.42,2.42,0,0,1-2.41-2.19q-.69-7.29-1.42-14.49a2.43,2.43,0,0,1,4.83-.49c.48,4.82,1,9.65,1.42,14.52a2.42,2.42,0,0,1-2.19,2.64ZM83.2,2766.77a2.43,2.43,0,0,1-2.42-2.41q0-7.24-.06-14.58a2.44,2.44,0,0,1,2.43-2.43h0a2.44,2.44,0,0,1,2.43,2.43q0,7.32,0,14.55a2.42,2.42,0,0,1-2.41,2.44Zm1841.25-44.7a2.42,2.42,0,0,1-2.41-2.15q-.86-7.27-1.73-14.45a2.42,2.42,0,0,1,2.11-2.7,2.38,2.38,0,0,1,2.71,2.11q.88,7.18,1.73,14.48a2.43,2.43,0,0,1-2.13,2.69ZM83.27,2718.25h0a2.43,2.43,0,0,1-2.41-2.45q.06-7.26.16-14.56a2.27,2.27,0,0,1,2.46-2.39,2.42,2.42,0,0,1,2.39,2.46q-.09,7.28-.15,14.53A2.43,2.43,0,0,1,83.27,2718.25Zm1835.06-44.35a2.43,2.43,0,0,1-2.4-2.1q-1-7.28-2-14.41a2.42,2.42,0,1,1,4.8-.69q1,7.14,2,14.44a2.44,2.44,0,0,1-2.08,2.74ZM84.09,2669.72H84a2.43,2.43,0,0,1-2.36-2.49q.18-7.28.41-14.57a2.49,2.49,0,0,1,2.5-2.35,2.43,2.43,0,0,1,2.35,2.5q-.23,7.28-.41,14.55A2.42,2.42,0,0,1,84.09,2669.72Zm1827.17-43.86a2.42,2.42,0,0,1-2.39-2.05q-1.14-7.29-2.3-14.37a2.43,2.43,0,1,1,4.79-.78q1.16,7.08,2.3,14.39a2.43,2.43,0,0,1-2.4,2.81ZM85.79,2621.2h-.11a2.41,2.41,0,0,1-2.31-2.53q.33-7.3.71-14.57a2.36,2.36,0,0,1,2.55-2.3,2.43,2.43,0,0,1,2.3,2.55c-.26,4.83-.49,9.68-.72,14.54A2.42,2.42,0,0,1,85.79,2621.2ZM1903.28,2578a2.43,2.43,0,0,1-2.39-2q-1.29-7.32-2.57-14.32a2.43,2.43,0,1,1,4.77-.88c.86,4.68,1.71,9.47,2.58,14.36a2.43,2.43,0,0,1-2,2.81A2,2,0,0,1,1903.28,2578ZM88.59,2572.72h-.18a2.43,2.43,0,0,1-2.25-2.59q.53-7.32,1.09-14.54a2.47,2.47,0,0,1,2.62-2.23,2.42,2.42,0,0,1,2.22,2.61q-.57,7.22-1.09,14.5A2.42,2.42,0,0,1,88.59,2572.72Zm1805.79-42.51a2.43,2.43,0,0,1-2.38-2c-1-4.93-1.92-9.7-2.85-14.27a2.43,2.43,0,0,1,4.76-1q1.39,6.87,2.85,14.3a2.43,2.43,0,0,1-1.91,2.85A2.56,2.56,0,0,1,1894.38,2530.21ZM92.77,2524.35h-.25a2.43,2.43,0,0,1-2.17-2.66q.77-7.33,1.6-14.51a2.43,2.43,0,0,1,4.82.56q-.83,7.16-1.59,14.45A2.42,2.42,0,0,1,92.77,2524.35Zm1791.76-41.7a2.44,2.44,0,0,1-2.37-1.91l-1.05-4.77-6.81-.56a2.43,2.43,0,0,1-2.14-2.69,2.39,2.39,0,0,1,2.69-2.13l6.7.78a4.86,4.86,0,0,1,4.3,3.55l1.05,4.78a2.42,2.42,0,0,1-1.85,2.89A2.31,2.31,0,0,1,1884.53,2482.65ZM98.84,2476.19a2.19,2.19,0,0,1-.36,0,2.42,2.42,0,0,1-2-2.76q1.11-7.32,2.31-14.42a2.43,2.43,0,1,1,4.79.81q-1.2,7-2.3,14.34A2.43,2.43,0,0,1,98.84,2476.19ZM1840.78,2472h-.23q-7-.64-14.49-1.28a2.44,2.44,0,0,1-2.21-2.63,2.4,2.4,0,0,1,2.63-2.21q7.45.63,14.52,1.29a2.43,2.43,0,0,1-.22,4.84ZM1792.4,2468h-.18l-14.52-1a2.42,2.42,0,0,1-2.25-2.58,2.48,2.48,0,0,1,2.59-2.26l14.53,1a2.43,2.43,0,0,1-.17,4.85Zm-48.44-3.18h-.15l-14.53-.85a2.42,2.42,0,1,1,.28-4.84l14.54.84a2.43,2.43,0,0,1-.14,4.85Zm-48.47-2.64h-.12l-14.54-.71a2.43,2.43,0,0,1,.23-4.85l14.55.71a2.43,2.43,0,0,1-.12,4.85Zm-48.49-2.24h-.1l-14.55-.61a2.41,2.41,0,0,1-2.32-2.52,2.38,2.38,0,0,1,2.52-2.32l14.55.6a2.43,2.43,0,0,1-.1,4.86Zm-48.5-1.93h-.09l-14.55-.52a2.43,2.43,0,0,1-2.34-2.51,2.48,2.48,0,0,1,2.51-2.34l14.56.53a2.43,2.43,0,0,1-.09,4.85Zm-48.51-1.68h-.08l-14.56-.46a2.43,2.43,0,1,1,.16-4.85l14.55.46a2.43,2.43,0,0,1-.07,4.85Zm-48.52-1.46h-.07l-14.55-.4a2.42,2.42,0,0,1-2.36-2.49,2.47,2.47,0,0,1,2.49-2.36l14.56.4a2.43,2.43,0,0,1-.07,4.85ZM1453,2453.6h-.06l-14.56-.35a2.44,2.44,0,0,1-2.37-2.49,2.36,2.36,0,0,1,2.49-2.37l14.56.36a2.43,2.43,0,0,1-.06,4.85Zm-48.53-1.12h-.05l-14.56-.31a2.42,2.42,0,0,1-2.38-2.47,2.52,2.52,0,0,1,2.48-2.38l14.56.31a2.43,2.43,0,0,1,0,4.85Zm-48.53-1h0l-14.56-.26a2.44,2.44,0,0,1-2.39-2.47,2.37,2.37,0,0,1,2.47-2.39l14.57.27a2.43,2.43,0,0,1,0,4.85Zm-1228.18-.37a2.43,2.43,0,0,1,0-4.85l14.58-.18h0a2.43,2.43,0,0,1,0,4.86l-14.56.17Zm1179.65-.48h0l-14.56-.23a2.43,2.43,0,0,1,0-4.86h0l14.56.24a2.43,2.43,0,0,1,0,4.85Zm-1131.08-.09a2.43,2.43,0,0,1,0-4.85l14.57-.16h0a2.43,2.43,0,0,1,0,4.85l-14.56.16Zm48.56-.52a2.43,2.43,0,0,1,0-4.86l14.57-.15h0a2.43,2.43,0,0,1,0,4.86l-14.57.15Zm1034-.13h0l-14.56-.2a2.43,2.43,0,0,1-2.39-2.46,2.4,2.4,0,0,1,2.46-2.4l14.56.2a2.43,2.43,0,0,1,0,4.86Zm-985.44-.36a2.43,2.43,0,0,1,0-4.85l14.56-.14h0a2.43,2.43,0,0,1,0,4.85l-14.56.14Zm936.9-.28h0l-14.56-.17a2.44,2.44,0,0,1-2.4-2.46,2.34,2.34,0,0,1,2.46-2.4l14.56.18a2.43,2.43,0,0,1,0,4.85ZM322,2449.11a2.43,2.43,0,0,1,0-4.86l14.57-.12h0a2.43,2.43,0,0,1,0,4.85l-14.56.13Zm839.81-.39h0l-14.56-.14a2.43,2.43,0,0,1-2.4-2.45,2.37,2.37,0,0,1,2.45-2.41l14.56.15a2.43,2.43,0,0,1,0,4.85Zm-791.26,0a2.43,2.43,0,0,1,0-4.86l14.56-.11h0a2.43,2.43,0,0,1,0,4.85l-14.57.12Zm48.56-.37a2.43,2.43,0,0,1,0-4.85l14.57-.1a2.62,2.62,0,0,1,2.44,2.41,2.42,2.42,0,0,1-2.41,2.44l-14.56.1Zm694.16-.08h0l-14.56-.12a2.43,2.43,0,0,1-2.41-2.45,2.67,2.67,0,0,1,2.45-2.4l14.56.12a2.43,2.43,0,0,1,0,4.85ZM467.61,2448a2.43,2.43,0,0,1,0-4.86l14.56-.08h0a2.43,2.43,0,0,1,0,4.85l-14.56.09Zm597.07-.14h0l-14.56-.1a2.43,2.43,0,0,1,0-4.85h0l14.56.1a2.43,2.43,0,0,1,0,4.85Zm-548.51-.14a2.43,2.43,0,0,1,0-4.86l14.57-.07h0a2.43,2.43,0,1,1,0,4.85l-14.56.08Zm500-.17h0l-14.56-.08a2.43,2.43,0,0,1,0-4.85h0l14.56.08a2.43,2.43,0,0,1,0,4.85Zm-451.43-.07a2.43,2.43,0,0,1,0-4.86l14.56-.06h0a2.43,2.43,0,0,1,0,4.85l-14.56.07Zm402.89-.17h0l-14.55-.06a2.41,2.41,0,0,1-2.42-2.43,2.55,2.55,0,0,1,2.44-2.42l14.56.06a2.43,2.43,0,0,1,0,4.85Zm-354.34,0a2.43,2.43,0,0,1,0-4.86l14.57-.05a2.4,2.4,0,0,1,2.43,2.42,2.43,2.43,0,0,1-2.42,2.44l-14.56.05Zm305.8-.15h0l-14.56,0a2.43,2.43,0,1,1,0-4.85h0l14.56,0a2.43,2.43,0,0,1,0,4.85Zm-257.25,0a2.43,2.43,0,0,1,0-4.85l14.57,0h0a2.43,2.43,0,0,1,0,4.85l-14.56,0Zm208.71-.1h0L856,2447a2.43,2.43,0,1,1,0-4.85h0l14.57,0a2.43,2.43,0,0,1,0,4.86Zm-160.16,0a2.43,2.43,0,0,1,0-4.85l14.56,0h0a2.43,2.43,0,0,1,0,4.85l-14.56,0ZM822,2447H807.43a2.43,2.43,0,0,1,0-4.86H822a2.43,2.43,0,1,1,0,4.85Zm-63.06,0a2.43,2.43,0,1,1,0-4.85h14.54a2.43,2.43,0,0,1,0,4.86Z"/><path class="cls-37" d="M1151.9,3293.36H910.07a62.47,62.47,0,0,1-62.13-54.9L820,3005.76c-4.45-37.07,24.63-69.68,62.14-69.68h290.51c36.74,0,65.58,31.37,62.33,67.8l-20.74,232.7A62.47,62.47,0,0,1,1151.9,3293.36Z"/><path class="cls-38" d="M1122.16,3250.56H938.1a47.55,47.55,0,0,1-47.29-41.78l-21.27-177.11a47.49,47.49,0,0,1,47.3-53H1138a47.5,47.5,0,0,1,47.44,51.6l-15.79,177.11A47.55,47.55,0,0,1,1122.16,3250.56Z"/><g class="cls-39"><path class="cls-40" d="M3595.5,1395a12.22,12.22,0,0,1-3.74-16.88c7-11.07,13.72-22.6,19.83-34.28a12.23,12.23,0,0,1,16.29-5.28l.21.11a12.22,12.22,0,0,1,5.17,16.5c-6.44,12.3-13.46,24.44-20.89,36.09a12.25,12.25,0,0,1-16.87,3.74Zm41.95-110.08c4.46-12.4,8.43-25.11,11.81-37.79a12.22,12.22,0,1,1,23.62,6.3c-3.55,13.34-7.73,26.72-12.42,39.77a12.22,12.22,0,0,1-15.64,7.36,11.47,11.47,0,0,1-1.34-.57A12.22,12.22,0,0,1,3637.45,1284.89Zm24-100.92c1.58-13,2.62-26.33,3.07-39.47a12.23,12.23,0,0,1,24.44.85c-.48,13.84-1.57,27.82-3.24,41.56a12.22,12.22,0,1,1-24.27-2.94Zm.82-103.76c-1.38-13.09-3.34-26.27-5.82-39.18a12.23,12.23,0,1,1,24-4.63c2.62,13.6,4.68,27.47,6.13,41.25a12.23,12.23,0,0,1-24.32,2.56ZM3640,978.85c-4.23-12.43-9.06-24.85-14.35-36.92a12.22,12.22,0,1,1,22.39-9.81c5.57,12.7,10.65,25.77,15.1,38.84a12.22,12.22,0,0,1-23.14,7.89ZM3595.77,885c-6.89-11.2-14.34-22.24-22.16-32.82a12.22,12.22,0,1,1,19.66-14.53c8.23,11.13,16.08,22.75,23.33,34.54A12.23,12.23,0,1,1,3595.77,885ZM3206.14,652a12.22,12.22,0,0,1,12.66-11.77c13.83.5,27.82,1.62,41.58,3.32a12.22,12.22,0,1,1-3,24.26c-13.06-1.61-26.34-2.67-39.47-3.15a12.05,12.05,0,0,1-5-1.27A12.22,12.22,0,0,1,3206.14,652Zm325.77,151.28c-9.2-9.39-18.92-18.48-28.9-27a12.23,12.23,0,1,1,15.93-18.55c10.5,9,20.74,18.58,30.43,28.47a12.23,12.23,0,1,1-17.46,17.12Zm-220-138.13a12.22,12.22,0,0,1,15-8.64c13.36,3.59,26.74,7.8,39.77,12.51a12.22,12.22,0,1,1-8.32,23c-12.38-4.47-25.1-8.48-37.79-11.89a11.74,11.74,0,0,1-2.3-.87A12.22,12.22,0,0,1,3311.88,665.12Zm139.53,72.75c-11.07-7.09-22.58-13.78-34.23-19.91a12.22,12.22,0,0,1,11.14-21.76l.23.12c12.27,6.45,24.39,13.5,36,20.95a12.23,12.23,0,0,1-12,21.24A12.76,12.76,0,0,1,3451.41,737.87Z"/><path class="cls-40" d="M3127.18,668a12.17,12.17,0,0,0,7.21,1.16c6.24-.91,12.6-1.7,18.91-2.37a12.22,12.22,0,1,0-2.54-24.31c-6.64.69-13.32,1.53-19.89,2.48a12.22,12.22,0,0,0-3.69,23Z"/></g><g class="cls-41"><path class="cls-42" d="M2808.62,861.49a12.23,12.23,0,0,0,15.38-3.82c3.67-5.13,7.52-10.26,11.42-15.26a12.23,12.23,0,0,0-19.27-15c-4.11,5.26-8.15,10.67-12,16.06a12.24,12.24,0,0,0,2.81,17.06A12.07,12.07,0,0,0,2808.62,861.49Z"/><path class="cls-43" d="M2961.05,1553.68a12.22,12.22,0,1,1,12-21.31c11.2,6.29,22.85,12.21,34.75,17.66a12.23,12.23,0,0,1-10.18,22.23q-7.74-3.54-15.28-7.31C2975.13,1561.37,2968,1557.58,2961.05,1553.68Zm90.7,26.9a12.23,12.23,0,0,1,15.24-8.15c12.41,3.75,25.11,7,37.75,9.71a12.22,12.22,0,1,1-5.09,23.91c-13.31-2.83-26.68-6.27-39.73-10.22a13.28,13.28,0,0,1-1.94-.77A12.25,12.25,0,0,1,3051.75,1580.58Zm-146.41-63.44c-10.83-8.22-21.46-17-31.59-26.15a12.22,12.22,0,1,1,16.37-18.16c9.62,8.67,19.71,17,30,24.83a12.23,12.23,0,0,1-12.83,20.69A12.86,12.86,0,0,1,2905.34,1517.14Zm249,85.21A12.21,12.21,0,0,1,3167.4,1591c12.91.93,26,1.32,38.94,1.17a12.22,12.22,0,0,1,.3,24.44c-13.62.17-27.42-.25-41-1.23a12,12,0,0,1-4.57-1.25A12.23,12.23,0,0,1,3154.32,1602.35Zm-326.83-159.23c-8.76-10.4-17.19-21.32-25.07-32.46a12.22,12.22,0,0,1,20-14.11c7.48,10.57,15.49,21,23.81,30.82a12.23,12.23,0,0,1-14.82,18.81A12.09,12.09,0,0,1,2827.49,1443.12Zm-59.74-89.31c-6.29-12.09-12.14-24.58-17.39-37.14a12.23,12.23,0,0,1,22.56-9.43c5,11.93,10.55,23.8,16.52,35.29a12.22,12.22,0,1,1-21.69,11.28Zm-38.86-100.2c-3.51-13.18-6.49-26.66-8.88-40a12.23,12.23,0,1,1,24.07-4.3c2.26,12.73,5.11,25.52,8.44,38a12.23,12.23,0,0,1-23.63,6.29Zm-16.07-106.3c-.54-13.62-.51-27.43.11-41a12.22,12.22,0,1,1,24.42,1.1c-.58,12.91-.62,26-.1,39a12.22,12.22,0,1,1-24.43,1ZM2720.5,1040c2.47-13.38,5.54-26.83,9.14-40a12.22,12.22,0,1,1,23.58,6.44c-3.41,12.49-6.33,25.27-8.68,38a12.22,12.22,0,0,1-14.24,9.8,12.06,12.06,0,0,1-3.25-1.08A12.24,12.24,0,0,1,2720.5,1040Zm31-102.87c3.92-9.23,8.17-18.45,12.64-27.4q2.43-4.86,5-9.64a12.22,12.22,0,0,1,21.63,11.39q-2.38,4.54-4.7,9.17c-4.25,8.51-8.3,17.27-12,26a12.23,12.23,0,0,1-16,6.47l-.68-.32A12.21,12.21,0,0,1,2751.52,937.16Z"/><path class="cls-44" d="M3266.1,1610.07a12.12,12.12,0,0,0,7.27,1.15c6.54-1,13.19-2.13,19.76-3.4a12.23,12.23,0,0,0-4.64-24c-6.24,1.21-12.55,2.29-18.76,3.23a12.22,12.22,0,0,0-3.63,23Z"/></g><path class="cls-45" d="M3390.72,1441.56a5.7,5.7,0,0,0,3.34-5.73l-6.34-69.25a302.78,302.78,0,0,0,67.27-71.47l69.47,2.08a5.69,5.69,0,0,0,5.51-3.68l29.55-78a5.73,5.73,0,0,0-1.69-6.42l-53.42-44.45a302.81,302.81,0,0,0-3-98.1l50.63-47.68a5.72,5.72,0,0,0,1.29-6.51L3519,936.29a5.71,5.71,0,0,0-5.73-3.34L3444,939.29A303,303,0,0,0,3372.57,872l2.08-69.46A5.72,5.72,0,0,0,3371,797l-78-29.54a5.71,5.71,0,0,0-6.42,1.68l-44.46,53.42a302.81,302.81,0,0,0-98.1,3L3096.31,775a5.72,5.72,0,0,0-6.51-1.3L3013.75,808a5.72,5.72,0,0,0-3.35,5.73l6.34,69.26a302.75,302.75,0,0,0-67.26,71.47L2880,952.36a5.72,5.72,0,0,0-5.51,3.69l-29.55,78a5.72,5.72,0,0,0,1.69,6.41l53.42,44.46a302.81,302.81,0,0,0,3,98.1l-50.63,47.68a5.71,5.71,0,0,0-1.29,6.5l34.27,76.06a5.71,5.71,0,0,0,5.73,3.34l69.25-6.34a302.74,302.74,0,0,0,71.47,67.26l-2.08,69.47a5.73,5.73,0,0,0,3.69,5.52l78,29.54a5.72,5.72,0,0,0,6.42-1.69l44.46-53.42a302.82,302.82,0,0,0,98.1-3l47.67,50.63a5.71,5.71,0,0,0,6.51,1.29Z"/><path class="cls-46" d="M3154.25,1193.54a83.8,83.8,0,1,1,10.58,6.29A85.39,85.39,0,0,1,3154.25,1193.54ZM3191,1061.48a64.29,64.29,0,1,0,48.06,10.58,65.76,65.76,0,0,0-8.2-4.87A63.87,63.87,0,0,0,3191,1061.48Z"/><path class="cls-46" d="M3109.21,1307.42a210.5,210.5,0,0,0,19.41,8.49h0q3.14,1.18,6.32,2.28a207,207,0,0,0,32,8.18l.44.08,1.26.2c.81.14,1.63.26,2.45.39a4.89,4.89,0,0,0,5.1-2.65,5,5,0,0,0,.46-1.46,4.89,4.89,0,0,0-4.11-5.56A196.61,196.61,0,0,1,3026.09,1035a196.43,196.43,0,0,1,245.11-95.58c101.31,38.38,152.45,152,114.1,253.22q-3.56,9.36-8,18.27a195.73,195.73,0,0,1-53.75,66.17,4.94,4.94,0,0,0-1.34,1.66,4.89,4.89,0,0,0,7.41,6,206.25,206.25,0,0,0,64.82-88.66c40.27-106.32-13.49-225.57-119.77-265.83a206.23,206.23,0,0,0-257.33,100.34,209.62,209.62,0,0,0-8.5,19.44,206.21,206.21,0,0,0,100.37,257.34Z"/><path class="cls-40" d="M3146.43,587.39a8.09,8.09,0,0,1-3.71-10.82c3.81-7.79,7.34-15.86,10.49-24a8.08,8.08,0,0,1,10.31-4.67l.15.05a8.1,8.1,0,0,1,4.62,10.46c-3.32,8.56-7,17.05-11.05,25.25a8.09,8.09,0,0,1-10,4Q3146.81,587.57,3146.43,587.39ZM3165.84,512c2-8.48,3.68-17.12,5-25.7a8.08,8.08,0,0,1,16,2.39c-1.35,9-3.1,18.12-5.22,27a8.08,8.08,0,0,1-9.73,6,8.94,8.94,0,0,1-.92-.28A8.08,8.08,0,0,1,3165.84,512Zm8.3-68.08c.07-8.69-.23-17.49-.9-26.15a8.08,8.08,0,1,1,16.12-1.25c.7,9.13,1,18.39.94,27.54a8.08,8.08,0,0,1-8.15,8,7.89,7.89,0,0,1-2.71-.49A8.08,8.08,0,0,1,3174.14,443.89ZM3167,375.67c-1.87-8.5-4.13-17-6.72-25.31a8.08,8.08,0,0,1,15.43-4.81c2.73,8.73,5.11,17.7,7.08,26.64a8.08,8.08,0,0,1-15.79,3.48Zm-22.16-64.94c-3.7-7.85-7.79-15.65-12.16-23.19a8.08,8.08,0,0,1,14-8.1c4.59,7.93,8.9,16.14,12.79,24.4a8.08,8.08,0,1,1-14.62,6.89Zm-36-58.41c-5.35-6.85-11.07-13.55-17-19.92a8.08,8.08,0,0,1,11.85-11c6.23,6.7,12.24,13.76,17.87,21a8.08,8.08,0,1,1-12.73,10Zm-273.2-124.23a8.07,8.07,0,0,1,7.45-8.67c9.11-.69,18.39-1,27.55-.9a8.08,8.08,0,1,1-.17,16.16c-8.7-.09-17.5.2-26.16.86a8.31,8.31,0,0,1-3.39-.47A8.08,8.08,0,0,1,2835.67,128.09Zm225.2,75.27c-6.74-5.48-13.79-10.73-21-15.62a8.08,8.08,0,0,1,9.09-13.37c7.56,5.15,15,10.68,22.09,16.46a8.08,8.08,0,0,1-7.88,13.86A8,8,0,0,1,3060.87,203.36ZM2906.1,128.9a8.08,8.08,0,0,1,9.2-6.78c9,1.37,18.14,3.14,27,5.28a8.08,8.08,0,0,1-3.76,15.72c-8.47-2-17.12-3.72-25.71-5a8.21,8.21,0,0,1-1.57-.4A8.1,8.1,0,0,1,2906.1,128.9Zm97.05,37.47c-7.79-3.83-15.85-7.38-24-10.54a8.08,8.08,0,0,1,5.71-15.12l.16.06c8.54,3.32,17,7.06,25.22,11.09a8.08,8.08,0,0,1-6.33,14.85A8,8,0,0,1,3003.15,166.37Z"/><path class="cls-40" d="M2785,144.46a8.08,8.08,0,0,0,4.83.23c4-1.06,8.15-2.05,12.24-2.95a8.08,8.08,0,0,0-3.47-15.79c-4.3.94-8.64,2-12.88,3.1a8.08,8.08,0,0,0-.72,15.41Z"/><g class="cls-41"><path class="cls-47" d="M2590,295.14a8.1,8.1,0,0,0,9.83-3.65c2-3.64,4.17-7.29,6.37-10.86a8.09,8.09,0,0,0-13.78-8.47c-2.31,3.76-4.56,7.61-6.71,11.44a8.09,8.09,0,0,0,3.12,11A7.71,7.71,0,0,0,2590,295.14Z"/><path class="cls-48" d="M2741.37,738.59a8.08,8.08,0,1,1,6.29-14.89c7.83,3.31,15.92,6.34,24.14,9a8.08,8.08,0,0,1-5,15.36q-5.34-1.76-10.58-3.67C2751.19,742.6,2746.21,740.64,2741.37,738.59Zm61.58,11a8.08,8.08,0,0,1,9.41-6.49c8.43,1.54,17,2.75,25.51,3.59a8.08,8.08,0,1,1-1.57,16.08c-9-.87-18-2.15-26.86-3.77a8.43,8.43,0,0,1-1.33-.37A8.07,8.07,0,0,1,2803,749.56Zm-100.88-30.85c-7.72-4.6-15.36-9.59-22.69-14.84a8.09,8.09,0,0,1,9.41-13.15c7,5,14.21,9.73,21.55,14.1a8.08,8.08,0,0,1-6.9,14.54A8.54,8.54,0,0,1,2702.07,718.71Zm169.87,37.55a8.07,8.07,0,0,1,7.75-8.39c8.55-.34,17.19-1.06,25.67-2.12a8.08,8.08,0,1,1,2,16c-8.93,1.12-18,1.87-27,2.23a8.07,8.07,0,0,1-8.4-7.76Zm-226.49-80.42c-6.52-6.18-12.87-12.73-18.87-19.46a8.08,8.08,0,0,1,12.07-10.76c5.7,6.4,11.73,12.62,17.92,18.49a8.08,8.08,0,1,1-11.12,11.73Zm-45.85-54.25c-5-7.47-9.79-15.25-14.17-23.11a8.08,8.08,0,1,1,14.12-7.86c4.16,7.46,8.69,14.85,13.46,22a8.08,8.08,0,0,1-9.49,12.09A8,8,0,0,1,2599.6,621.59Zm-32.95-63c-3.27-8.4-6.23-17-8.79-25.65a8.08,8.08,0,1,1,15.49-4.6c2.43,8.19,5.25,16.39,8.36,24.37a8.08,8.08,0,0,1-15.06,5.88ZM2548.23,490c-1.36-8.91-2.36-18-3-27a8.08,8.08,0,0,1,16.12-1.08c.58,8.53,1.52,17.14,2.82,25.61a8.08,8.08,0,0,1-16,2.44ZM2545.34,419c.63-9,1.66-18,3-26.94a8.08,8.08,0,1,1,16,2.5c-1.32,8.45-2.29,17.06-2.9,25.58a8.08,8.08,0,0,1-8.63,7.49,7.7,7.7,0,0,1-2.21-.47A8.07,8.07,0,0,1,2545.34,419Zm12.77-69.88c1.89-6.35,4-12.72,6.28-18.93.82-2.25,1.67-4.48,2.53-6.7a8,8,0,0,1,10.47-4.58,8.08,8.08,0,0,1,4.59,10.47q-1.24,3.17-2.41,6.37c-2.17,5.9-4.17,12-6,18a8.08,8.08,0,0,1-10.05,5.44l-.47-.16A8.08,8.08,0,0,1,2558.11,349.07Z"/><path class="cls-49" d="M2945.94,753.07a8.06,8.06,0,0,0,4.87.21c4.22-1.13,8.5-2.37,12.72-3.69a8.08,8.08,0,1,0-4.82-15.43c-4,1.25-8.07,2.44-12.09,3.51a8.09,8.09,0,0,0-.68,15.4Z"/></g><path class="cls-50" d="M3015.35,633.15a3.79,3.79,0,0,0,1.77-4l-9.29-45a200.21,200.21,0,0,0,38.9-51.93l45.79-3.77a3.77,3.77,0,0,0,3.35-2.83l13.64-53.43a3.78,3.78,0,0,0-1.58-4.09l-38.39-25.26a200.1,200.1,0,0,0-9.25-64.22L3090,343.52a3.79,3.79,0,0,0,.37-4.37l-28.14-47.43a3.78,3.78,0,0,0-4-1.77l-45,9.29a200.21,200.21,0,0,0-51.93-38.9l-3.77-45.79a3.76,3.76,0,0,0-2.83-3.35l-53.43-13.64a3.78,3.78,0,0,0-4.09,1.58l-25.26,38.38a200.39,200.39,0,0,0-64.22,9.26l-35.06-29.73a3.79,3.79,0,0,0-4.37-.37l-47.43,28.14a3.76,3.76,0,0,0-1.77,4l9.29,45a200,200,0,0,0-38.9,51.93l-45.79,3.77a3.76,3.76,0,0,0-3.35,2.83l-13.64,53.43a3.77,3.77,0,0,0,1.58,4.09l38.38,25.25a200.45,200.45,0,0,0,9.26,64.23l-29.73,35.06a3.79,3.79,0,0,0-.37,4.37l28.14,47.43a3.77,3.77,0,0,0,4,1.77l45-9.29a200,200,0,0,0,51.93,38.9l3.77,45.79a3.77,3.77,0,0,0,2.83,3.35l53.43,13.64a3.79,3.79,0,0,0,4.09-1.58l25.25-38.38a200.35,200.35,0,0,0,64.22-9.26l35.07,29.73a3.79,3.79,0,0,0,4.37.37Z"/><path class="cls-46" d="M2841.65,487.7a55.31,55.31,0,1,1,7.41,3.36A56.31,56.31,0,0,1,2841.65,487.7ZM2856,398.24a42.38,42.38,0,1,0,26.61.8A42.19,42.19,0,0,0,2856,398.24Z"/><path class="cls-46" d="M2820.48,565.85a139.24,139.24,0,0,0,13.38,4.14h0c1.44.37,2.88.71,4.32,1a136.66,136.66,0,0,0,21.62,3l.3,0,.84,0,1.64.07a3.23,3.23,0,0,0,3.16-2.11,3.29,3.29,0,0,0,.19-1,3.24,3.24,0,0,0-3.11-3.35,129.94,129.94,0,0,1-118.62-89.43,129.1,129.1,0,0,1-2.43-72.45,132,132,0,0,1,3.95-12.76,129.84,129.84,0,1,1,213.33,137,3.45,3.45,0,0,0-.76,1.19,3.24,3.24,0,0,0,5.32,3.41,136.14,136.14,0,0,0,36-63c18.59-72.83-25.55-147.19-98.35-165.77a136.31,136.31,0,0,0-161.62,84.95,137.74,137.74,0,0,0-4.15,13.4,136.31,136.31,0,0,0,85,161.63Z"/></g></svg>