<svg xmlns="http://www.w3.org/2000/svg" width="33.494" height="33.378" viewBox="0 0 33.494 33.378">
  <path id="Path_53" data-name="Path 53" d="M318.548,357.615l-6.3-6.3a1.517,1.517,0,0,0-1.075-.442h-1.03a13.152,13.152,0,1,0-2.277,2.276v1.031a1.515,1.515,0,0,0,.443,1.075l6.3,6.3a1.511,1.511,0,0,0,2.144,0l1.789-1.789A1.524,1.524,0,0,0,318.548,357.615Zm-18.781-6.747a8.094,8.094,0,1,1,8.094-8.094A8.089,8.089,0,0,1,299.767,350.868Z" transform="translate(-286.115 -329.122)" fill="none" stroke="#c10000" stroke-miterlimit="10" stroke-width="1"/>
</svg>
