<svg xmlns="http://www.w3.org/2000/svg" width="126" height="126" viewBox="0 0 126 126">
  <g id="Group_122" data-name="Group 122" transform="translate(-1385 -5243)">
    <path id="Path_4257" data-name="Path 4257" d="M1496.96,5369h-97.92a14.045,14.045,0,0,1-14.04-14.04v-97.92a14.045,14.045,0,0,1,14.04-14.04h97.92a14.045,14.045,0,0,1,14.04,14.04v97.92A14.045,14.045,0,0,1,1496.96,5369Z" fill="#c10000" opacity="0.05"/>
    <path id="Path_4258" data-name="Path 4258" d="M1429.86,5342h36v-56.25a6.747,6.747,0,0,0-6.75-6.75h-22.5a6.747,6.747,0,0,0-6.75,6.75Zm9-54h18v4.5h-18Zm45,11.25v36a6.747,6.747,0,0,1-6.75,6.75h-6.75v-49.5h6.75A6.754,6.754,0,0,1,1483.86,5299.25Zm-58.5,42.75h-6.75a6.747,6.747,0,0,1-6.75-6.75v-36a6.747,6.747,0,0,1,6.75-6.75h6.75Z" fill="none" stroke="#c10000" stroke-miterlimit="10" stroke-width="2"/>
  </g>
</svg>
