<svg xmlns="http://www.w3.org/2000/svg" width="126" height="126" viewBox="0 0 126 126">
  <g id="Group_121" data-name="Group 121" transform="translate(-134 -5243)">
    <path id="Path_4252" data-name="Path 4252" d="M245.96,5369H148.04A14.045,14.045,0,0,1,134,5354.96v-97.92A14.045,14.045,0,0,1,148.04,5243h97.92A14.045,14.045,0,0,1,260,5257.04v97.92A14.045,14.045,0,0,1,245.96,5369Z" fill="#c10000" opacity="0.05"/>
    <path id="Path_4253" data-name="Path 4253" d="M196.52,5274.95a30.59,30.59,0,1,1-30.6,30.59,30.579,30.579,0,0,1,30.6-30.59m0-5.89A36.47,36.47,0,1,0,233,5305.53,36.475,36.475,0,0,0,196.52,5269.06Zm0,8.24a28.23,28.23,0,1,0,28.25,28.23A28.242,28.242,0,0,0,196.52,5277.3Zm0,6.47a5.29,5.29,0,1,1-5.3,5.29A5.3,5.3,0,0,1,196.52,5283.77Zm17.32,14.41a104.674,104.674,0,0,1-12.08,2.32c.13,14.85,1.81,18.09,3.68,22.88a2.647,2.647,0,1,1-4.93,1.93,42.234,42.234,0,0,1-3.27-11.55h-1.42a41.841,41.841,0,0,1-3.28,11.55,2.647,2.647,0,1,1-4.93-1.93c1.87-4.78,3.56-8.02,3.68-22.88a106.591,106.591,0,0,1-12.08-2.32,2.353,2.353,0,0,1,1.08-4.58c14.22,3.36,18.28,3.35,32.48,0a2.352,2.352,0,1,1,1.07,4.58Z" fill="none" stroke="#c10000" stroke-miterlimit="10" stroke-width="2"/>
  </g>
</svg>
