<svg xmlns="http://www.w3.org/2000/svg" width="126" height="126" viewBox="0 0 126 126">
  <g id="Group_124" data-name="Group 124" transform="translate(-765 -5243)">
    <g id="Group_123" data-name="Group 123">
      <path id="Path_4255" data-name="Path 4255" d="M876.96,5369H779.04A14.045,14.045,0,0,1,765,5354.96v-97.92A14.045,14.045,0,0,1,779.04,5243h97.92A14.045,14.045,0,0,1,891,5257.04v97.92A14.045,14.045,0,0,1,876.96,5369Z" fill="#c10000" opacity="0.05"/>
    </g>
    <path id="Path_4256" data-name="Path 4256" d="M843.92,5288.93a24.05,24.05,0,0,0-39.74,11.68,1.721,1.721,0,0,1-1.67,1.31h-8.2a1.716,1.716,0,0,1-1.69-2.03,35.508,35.508,0,0,1,59.41-19.06l5.11-5.11a3.434,3.434,0,0,1,5.86,2.43v19.19a3.44,3.44,0,0,1-3.44,3.44H840.37a3.44,3.44,0,0,1-2.43-5.87Zm-48.48,23.3h19.19a3.44,3.44,0,0,1,2.43,5.87l-5.98,5.98a24.05,24.05,0,0,0,39.74-11.68,1.721,1.721,0,0,1,1.67-1.31h8.2a1.716,1.716,0,0,1,1.69,2.03,35.508,35.508,0,0,1-59.41,19.06l-5.11,5.11a3.434,3.434,0,0,1-5.86-2.43v-19.19A3.433,3.433,0,0,1,795.44,5312.23Z" fill="none" stroke="#c10000" stroke-miterlimit="10" stroke-width="2"/>
  </g>
</svg>
