<svg xmlns="http://www.w3.org/2000/svg" width="28" height="32" viewBox="0 0 28 32">
  <path id="Path_5" data-name="Path 5" d="M1654,578.25v-2.5a.752.752,0,0,1,.75-.75h2.5a.752.752,0,0,1,.75.75v2.5a.752.752,0,0,1-.75.75h-2.5A.752.752,0,0,1,1654,578.25Zm8.75.75h2.5a.752.752,0,0,0,.75-.75v-2.5a.752.752,0,0,0-.75-.75h-2.5a.752.752,0,0,0-.75.75v2.5A.752.752,0,0,0,1662.75,579Zm-8,6h2.5a.752.752,0,0,0,.75-.75v-2.5a.752.752,0,0,0-.75-.75h-2.5a.752.752,0,0,0-.75.75v2.5A.752.752,0,0,0,1654.75,585Zm8,0h2.5a.752.752,0,0,0,.75-.75v-2.5a.752.752,0,0,0-.75-.75h-2.5a.752.752,0,0,0-.75.75v2.5A.752.752,0,0,0,1662.75,585Zm-4.75,5.25v-2.5a.752.752,0,0,0-.75-.75h-2.5a.752.752,0,0,0-.75.75v2.5a.752.752,0,0,0,.75.75h2.5A.752.752,0,0,0,1658,590.25Zm4.75.75h2.5a.752.752,0,0,0,.75-.75v-2.5a.752.752,0,0,0-.75-.75h-2.5a.752.752,0,0,0-.75.75v2.5A.752.752,0,0,0,1662.75,591Zm11.25,7.75V601h-28v-2.25a.752.752,0,0,1,.75-.75h1.219V570.5a1.5,1.5,0,0,1,1.5-1.5h21.062a1.5,1.5,0,0,1,1.5,1.5V598h1.219A.752.752,0,0,1,1674,598.75Zm-23.031-.812H1658V593.75a.752.752,0,0,1,.75-.75h2.5a.752.752,0,0,1,.75.75v4.188h7.031V572.063L1651,572Z" transform="translate(-1646 -569)" fill="#c10000"/>
</svg>
