<svg id="Group_111" data-name="Group 111" xmlns="http://www.w3.org/2000/svg" width="1920" height="1080" viewBox="0 0 1920 1080">
  <rect id="Rectangle_37" data-name="Rectangle 37" width="1920" height="1080" fill="#fff"/>
  <circle id="Ellipse_103" data-name="Ellipse 103" cx="130.5" cy="130.5" r="130.5" transform="translate(582 659)" fill="#c10000"/>
  <g id="Group_79" data-name="Group 79" opacity="0.31">
    <g id="Group_75" data-name="Group 75">
      <circle id="Ellipse_104" data-name="Ellipse 104" cx="3.57" cy="3.57" r="3.57" transform="translate(1235.43 681.9)"/>
      <circle id="Ellipse_105" data-name="Ellipse 105" cx="3.57" cy="3.57" r="3.57" transform="translate(1235.14 703.31)"/>
      <circle id="Ellipse_106" data-name="Ellipse 106" cx="3.57" cy="3.57" r="3.57" transform="translate(1256.55 703.59)"/>
      <circle id="Ellipse_107" data-name="Ellipse 107" cx="3.57" cy="3.57" r="3.57" transform="translate(1277.95 703.88)"/>
      <circle id="Ellipse_108" data-name="Ellipse 108" cx="3.57" cy="3.57" r="3.57" transform="translate(1299.35 704.17)"/>
      <circle id="Ellipse_109" data-name="Ellipse 109" cx="3.57" cy="3.57" r="3.57" transform="translate(1256.83 682.19)"/>
      <circle id="Ellipse_110" data-name="Ellipse 110" cx="3.57" cy="3.57" r="3.57" transform="translate(1278.24 682.48)"/>
      <circle id="Ellipse_111" data-name="Ellipse 111" cx="3.57" cy="3.57" r="3.57" transform="translate(1299.64 682.76)"/>
    </g>
    <g id="Group_76" data-name="Group 76">
      <circle id="Ellipse_112" data-name="Ellipse 112" cx="3.57" cy="3.57" r="3.57" transform="translate(1321.05 683.05)"/>
      <circle id="Ellipse_113" data-name="Ellipse 113" cx="3.57" cy="3.57" r="3.57" transform="translate(1320.76 704.46)"/>
      <circle id="Ellipse_114" data-name="Ellipse 114" cx="3.57" cy="3.57" r="3.57" transform="translate(1342.16 704.74)"/>
      <circle id="Ellipse_115" data-name="Ellipse 115" cx="3.57" cy="3.57" r="3.57" transform="translate(1363.57 705.03)"/>
      <circle id="Ellipse_116" data-name="Ellipse 116" cx="3.57" cy="3.57" r="3.57" transform="translate(1384.97 705.32)"/>
      <circle id="Ellipse_117" data-name="Ellipse 117" cx="3.57" cy="3.57" r="3.57" transform="translate(1342.45 683.34)"/>
      <circle id="Ellipse_118" data-name="Ellipse 118" cx="3.57" cy="3.57" r="3.57" transform="translate(1363.85 683.63)"/>
      <circle id="Ellipse_119" data-name="Ellipse 119" cx="3.57" cy="3.57" r="3.57" transform="translate(1385.26 683.92)"/>
    </g>
    <g id="Group_77" data-name="Group 77">
      <circle id="Ellipse_120" data-name="Ellipse 120" cx="3.57" cy="3.57" r="3.57" transform="translate(1234.81 728.28)"/>
      <circle id="Ellipse_121" data-name="Ellipse 121" cx="3.57" cy="3.57" r="3.57" transform="translate(1234.52 749.68)"/>
      <circle id="Ellipse_122" data-name="Ellipse 122" cx="3.57" cy="3.57" r="3.57" transform="translate(1255.92 749.97)"/>
      <circle id="Ellipse_123" data-name="Ellipse 123" cx="3.57" cy="3.57" r="3.57" transform="translate(1277.33 750.26)"/>
      <circle id="Ellipse_124" data-name="Ellipse 124" cx="3.57" cy="3.57" r="3.57" transform="translate(1298.73 750.54)"/>
      <circle id="Ellipse_125" data-name="Ellipse 125" cx="3.57" cy="3.57" r="3.57" transform="translate(1256.21 728.57)"/>
      <circle id="Ellipse_126" data-name="Ellipse 126" cx="3.57" cy="3.57" r="3.57" transform="translate(1277.61 728.85)"/>
      <circle id="Ellipse_127" data-name="Ellipse 127" cx="3.57" cy="3.57" r="3.57" transform="translate(1299.02 729.14)"/>
    </g>
    <g id="Group_78" data-name="Group 78">
      <circle id="Ellipse_128" data-name="Ellipse 128" cx="3.57" cy="3.57" r="3.57" transform="translate(1320.42 729.43)"/>
      <circle id="Ellipse_129" data-name="Ellipse 129" cx="3.57" cy="3.57" r="3.57" transform="translate(1320.14 750.83)"/>
      <circle id="Ellipse_130" data-name="Ellipse 130" cx="3.57" cy="3.57" r="3.57" transform="translate(1341.54 751.12)"/>
      <circle id="Ellipse_131" data-name="Ellipse 131" cx="3.57" cy="3.57" r="3.57" transform="translate(1362.94 751.41)"/>
      <circle id="Ellipse_132" data-name="Ellipse 132" cx="3.57" cy="3.57" r="3.57" transform="translate(1384.35 751.69)"/>
      <circle id="Ellipse_133" data-name="Ellipse 133" cx="3.57" cy="3.57" r="3.57" transform="translate(1341.83 729.72)"/>
      <circle id="Ellipse_134" data-name="Ellipse 134" cx="3.57" cy="3.57" r="3.57" transform="translate(1363.23 730)"/>
      <circle id="Ellipse_135" data-name="Ellipse 135" cx="3.57" cy="3.57" r="3.57" transform="translate(1384.64 730.29)"/>
    </g>
  </g>
</svg>
