<svg xmlns="http://www.w3.org/2000/svg" width="1872.101" height="1684.039" viewBox="0 0 1872.101 1684.039">
  <path id="Path_52" data-name="Path 52" d="M1920,508c-259.33-87.53-507.538-31.045-614,125-47.178,69.15-87.385,188.433-39,286,77.827,156.934,435.717-19.974,518,111,47.682,75.9-3.54,227.5-90,268-114.518,53.638-225.3-118.359-428-79-101.686,19.745-96.4,67.414-179,71-193.826,8.415-322.7-249.751-400-210-35.052,18.025-9.469,71.576-57,132-41.9,53.266-105.543,67.282-228,86-263.864,40.333-333.192,9.238-350,42-39.534,77.056,239.067,426.373,575,436,323.668,9.275,563.421-300.717,646-228,57.408,50.553-59.573,199.391,7,364,63.889,157.971,240.917,213.927,254,218,99.153,30.866,184.7,16.527,225,7" transform="translate(-48.219 -465.732)" fill="none" stroke="#4d4d4d" stroke-miterlimit="10" stroke-width="2" stroke-dasharray="12" opacity="0.26"/>
</svg>
