<svg xmlns="http://www.w3.org/2000/svg" width="683.94" height="392.602" viewBox="0 0 683.94 392.602">
  <g id="Group_43" data-name="Group 43" transform="translate(-666.08 -4743.998)">
    <g id="Group_42" data-name="Group 42" opacity="0.39">
      <g id="Group_41" data-name="Group 41">
        <ellipse id="Ellipse_68" data-name="Ellipse 68" cx="341.97" cy="13.3" rx="341.97" ry="13.3" transform="translate(666.08 5110)" fill="#bcbec0"/>
      </g>
    </g>
    <path id="Path_20" data-name="Path 20" d="M1112.87,4744.34l-7.46-.34h-.18a1.782,1.782,0,0,0-1.84,1.51l-.96,6.17a1.368,1.368,0,0,1-.07.29,1.749,1.749,0,0,1-1.51,1.18,31.169,31.169,0,0,0-11.82,3.39,1.642,1.642,0,0,1-.47.16,1.8,1.8,0,0,1-1.68-.57l-3.43-3.92a1.815,1.815,0,0,0-1.8-.54,2.1,2.1,0,0,0-.57.26l-6.26,4.37a1.835,1.835,0,0,0-.53,2.41l3.48,5.99a1.752,1.752,0,0,1-.08,1.88,29.492,29.492,0,0,0-1.55,2.53,30.92,30.92,0,0,0-2.21,5.04h0a1.794,1.794,0,0,1-1.63,1.23l-7.03.28-.35.02a1.754,1.754,0,0,0-1.69,1.68l-.35,7.63a1.834,1.834,0,0,0,1.54,1.89l6.86,1.07a1.772,1.772,0,0,1,1.49,1.46,31.019,31.019,0,0,0,3.12,9.11,1.8,1.8,0,0,1-.41,2.16l-4.64,4.07a1.818,1.818,0,0,0-.29,2.41l4.39,6.28a1.747,1.747,0,0,0,2.3.51l7.05-4.08a1.8,1.8,0,0,1,1.92.06c.71.47,1.44.92,2.2,1.33a32.005,32.005,0,0,0,4.38,1.99,1.712,1.712,0,0,1,1.16,1.58l.33,8.45a1.783,1.783,0,0,0,1.7,1.71l7.66.36a1.8,1.8,0,0,0,1.78-1.25,1.056,1.056,0,0,0,.06-.24l1.19-7.61a1.766,1.766,0,0,1,1.31-1.46,1.191,1.191,0,0,1,.18-.04,5.173,5.173,0,0,0,.55-.1,31.524,31.524,0,0,0,6.39-1.82,1.733,1.733,0,0,1,1.98.48l4.3,4.9a1.8,1.8,0,0,0,2.41.28l1.39-.97,4.85-3.4a1.784,1.784,0,0,0,.52-2.38l-3.43-5.9a1.72,1.72,0,0,1,.17-1.98,31.108,31.108,0,0,0,3.28-4.83,30.453,30.453,0,0,0,1.83-3.98l1.47-.06,6.04-.25a1.723,1.723,0,0,0,1.6-1.22,1.771,1.771,0,0,0,.08-.45l.37-7.68a1.8,1.8,0,0,0-1.51-1.84l-4.68-.72a1.773,1.773,0,0,1-1.49-1.58,31.33,31.33,0,0,0-2.45-9.56,1.707,1.707,0,0,1,.45-2.02l5.87-5.14a1.722,1.722,0,0,0,.27-2.27l-4.43-6.34a1.737,1.737,0,0,0-2.31-.51l-7.33,4.24a1.767,1.767,0,0,1-1.99-.14,29.189,29.189,0,0,0-4-2.61c-.77-.42-1.54-.81-2.33-1.16a1.812,1.812,0,0,1-1.06-1.55l-.32-8.1A1.9,1.9,0,0,0,1112.87,4744.34Zm-23.17,30.03a19.35,19.35,0,0,1,4.65-4.6,11.114,11.114,0,0,1,1.41-.84,16.9,16.9,0,0,1,7.53-1.76c16.83.86,22.83,20.85,9.56,30.85-.22.16-.43.32-.67.48a16.333,16.333,0,0,1-8.56,2.48,20.72,20.72,0,0,1-3.84-.52A16.778,16.778,0,0,1,1089.7,4774.37Z" fill="#dfedfb"/>
    <path id="Path_21" data-name="Path 21" d="M1214.08,4797.46l-11.37-1.94-.27-.04a2.75,2.75,0,0,0-3.1,1.94l-2.65,9.26a2.269,2.269,0,0,1-.17.43,2.7,2.7,0,0,1-2.55,1.51,48.215,48.215,0,0,0-18.77,2.95,2.767,2.767,0,0,1-3.23-1.04l-4.49-6.66a2.8,2.8,0,0,0-2.65-1.18,3.278,3.278,0,0,0-.92.29l-10.41,5.52a2.807,2.807,0,0,0-1.27,3.58l4.18,9.84a2.718,2.718,0,0,1-.48,2.87c-1,1.15-1.96,2.33-2.86,3.58a47.628,47.628,0,0,0-4.36,7.29v.01a2.779,2.779,0,0,1-2.74,1.57l-10.82-.92-.54-.04a2.706,2.706,0,0,0-2.92,2.23l-2,11.62a2.825,2.825,0,0,0,2.01,3.19l10.3,2.95a2.747,2.747,0,0,1,2,2.53,48.277,48.277,0,0,0,3.02,14.55,2.751,2.751,0,0,1-1.05,3.24l-7.89,5.35a2.8,2.8,0,0,0-.9,3.64l5.52,10.46a2.678,2.678,0,0,0,3.42,1.21l11.57-4.89a2.818,2.818,0,0,1,2.93.45c1,.86,2.04,1.69,3.12,2.47a50.557,50.557,0,0,0,6.32,3.89,2.679,2.679,0,0,1,1.48,2.64l-1.11,13.01a2.754,2.754,0,0,0,2.28,2.95l11.66,2.01a2.772,2.772,0,0,0,2.96-1.58,2.357,2.357,0,0,0,.14-.37l3.28-11.44a2.733,2.733,0,0,1,2.28-1.99,1.426,1.426,0,0,1,.29-.03,6.2,6.2,0,0,0,.86-.05,47.8,47.8,0,0,0,10.15-1.57,2.665,2.665,0,0,1,2.93,1.12l5.65,8.33a2.816,2.816,0,0,0,3.63.9l2.32-1.22,8.07-4.28a2.763,2.763,0,0,0,1.26-3.52l-4.12-9.69a2.661,2.661,0,0,1,.64-2.99,48.057,48.057,0,0,0,5.95-6.79,47.309,47.309,0,0,0,3.57-5.74l2.27.19,9.31.78a2.65,2.65,0,0,0,2.68-1.56,2.559,2.559,0,0,0,.21-.68l2.03-11.69a2.79,2.79,0,0,0-1.96-3.11l-7.04-2.01a2.77,2.77,0,0,1-1.99-2.71,48.516,48.516,0,0,0-1.92-15.11,2.643,2.643,0,0,1,1.08-3.02l9.97-6.75a2.659,2.659,0,0,0,.85-3.43l-5.6-10.57a2.677,2.677,0,0,0-3.44-1.23l-12.04,5.1a2.736,2.736,0,0,1-3.02-.59,46.526,46.526,0,0,0-5.63-4.77c-1.1-.79-2.21-1.54-3.35-2.22a2.77,2.77,0,0,1-1.32-2.58l1.06-12.47A2.781,2.781,0,0,0,1214.08,4797.46Zm-41.26,41.57a29.569,29.569,0,0,1,8-6.15,16.431,16.431,0,0,1,2.32-1.01,26.078,26.078,0,0,1,11.87-1.26c25.61,4.56,30.97,36.32,8.73,49.09-.37.22-.74.41-1.12.61a25.256,25.256,0,0,1-13.6,2.16,32.3,32.3,0,0,1-5.79-1.53A25.924,25.924,0,0,1,1172.82,4839.03Z" fill="#cde3fd"/>
    <path id="Path_22" data-name="Path 22" d="M836.33,4880.08c-.64-15.87,12.65-22.9,26.24-22.9s28.38,3.52,29.66,24.61c.82,13.57-6.41,21.91-27.23,21.91-7.02,0-12.48-1.11-16.66-3.08l-10.41,9.25,5.12-12.79C838.52,4892.87,836.61,4886.92,836.33,4880.08Z" fill="#00aeef"/>
    <path id="Path_23" data-name="Path 23" d="M707.03,5119.04a27.582,27.582,0,0,0-1.87-7.01c-1.31-2.61-9.62-.95-9.62-.95s-1.66,1.42-2.02,8.08Z" fill="#233862"/>
    <path id="Path_24" data-name="Path 24" d="M735.36,5118.98c-1.95-1.19-.84-10.09-.84-10.09s9.1-7.28,10.36-1.71,8.65,8.08,12.86,8.77c2.91.47,3.81,2.08,4.08,3.02Z" fill="#233862"/>
    <path id="Path_25" data-name="Path 25" d="M716.5,5054.27a42.776,42.776,0,0,1,.67,4.92c.85,16.51,13.9,54.26,16.23,55.14,3.61,1.36,9.3-1.53,12.28-2.48a2.554,2.554,0,0,0,1.79-2.9c-6.46-29.71-8.84-72.49-9.7-97.82a114.01,114.01,0,0,0-2.63-21.57s-31.83-8.49-32.02,2.25C702.95,5001.3,713.67,5038.59,716.5,5054.27Z" fill="#213f7a"/>
    <path id="Path_26" data-name="Path 26" d="M716.5,5054.27l21.26-43.15a114.01,114.01,0,0,0-2.63-21.57s-31.83-8.49-32.02,2.25C702.95,5001.3,713.67,5038.59,716.5,5054.27Z" fill="#233862"/>
    <path id="Path_27" data-name="Path 27" d="M723.59,4991.84l-16.83,121.95s-7.39,1.78-13.14.36c0,0-4.93-64.86-4.52-80.54s-3.54-41.96.9-44.86S723.59,4991.84,723.59,4991.84Z" fill="#213f7a"/>
    <path id="Path_28" data-name="Path 28" d="M688.83,4960.53l-2.1,29.28a2.325,2.325,0,0,0,1.69,2.41c2.35.68,5.05,1.16,10.27,2.24a99.523,99.523,0,0,0,19.6,1.97c12.89.08,17.77-4.36,17.77-4.36.55,0-.29-2.69-1.06-15.51-.26-4.35-.51-9.85-.69-16.81-.16-6.26-.27-13.7-.28-22.53-.01-10.62-16.45-22.04-16.74-22.04h0c0,1.53-2.41,4.35-6.12,4.59-4.4.29-9.81-1.9-9.81-4.44,0-.03-7.96,12.74-10.79,26.34-.36,1.73-.64,3.54-.86,5.46v.09c-.04.35-.08.7-.12,1.06a1.223,1.223,0,0,1-.02.19c-.03.32-.06.65-.1.98,0,.09-.02.19-.02.28-.03.3-.05.6-.08.9v.08c-.02.22-.03.45-.05.68,0,.16-.02.32-.03.48-.02.27-.04.53-.06.8-.01.13-.02.27-.03.4-.02.25-.03.51-.05.77,0,.11-.02.23-.02.34-.02.37-.04.74-.06,1.12v.09c-.02.36-.04.73-.05,1.09v.27c-.02.34-.03.69-.05,1.04v.15c-.03.85-.07,1.71-.1,2.59v.07Z" fill="#f99746"/>
    <path id="Path_29" data-name="Path 29" d="M717.28,4915.16s15.28-.13,18.96,5.03,11.74,32.91,7.53,42.14-12.09-3.82-16.45-9.48S717.28,4915.16,717.28,4915.16Z" fill="#f99746"/>
    <path id="Path_30" data-name="Path 30" d="M717.43,4912.83v1.58s.43,4.94-5.65,5.66-10.59-.94-10.43-4.75a52.942,52.942,0,0,0,1.08-8.42,17.278,17.278,0,0,0-.22-2.96l11.79-.23,3.47.57Z" fill="#843722"/>
    <path id="Path_31" data-name="Path 31" d="M717.48,4904.29l-.05,8.55a10.054,10.054,0,0,1-4.25.94c-5.42,0-8.92-3.97-10.75-6.86a17.278,17.278,0,0,0-.22-2.96l11.79-.24Z" fill="#702919"/>
    <path id="Path_32" data-name="Path 32" d="M701.31,4902.06c1.37,7.36,10.87,7.12,14.97,6.66,1.16-.13,1.88-.28,1.88-.28,1.3-.35,2.03-2.4,2.37-5.09.67-5.32-.18-13.13-1.08-15.11-1.35-3-3.9-6.26-13.46-3.91S699.55,4892.63,701.31,4902.06Z" fill="#843722"/>
    <path id="Path_33" data-name="Path 33" d="M732.9,4935.85s5.91,13.05,5.74,16.97a20.249,20.249,0,0,0-5.74.74C728.29,4954.93,732.9,4935.85,732.9,4935.85Z" fill="#ed7d2b"/>
    <path id="Path_34" data-name="Path 34" d="M722.39,4881.22a31.8,31.8,0,0,1-9.18-2.48c-4.03-1.75-9.12.18-10.77,1.05a2.467,2.467,0,0,1,.4-.99,2.2,2.2,0,0,0-.85,1.26c-.08.06-.11.1-.09.11a3.025,3.025,0,0,0-1.38.09s.38-.05.51.19a.443.443,0,0,0,.06.07c-6.29,3.04-6.87,12.97-4.84,15.27,2.44,2.77,5.35,9,5.35,9a5.365,5.365,0,0,0,.62-3.91c-.44-2.44,1.66-2.43,4.32-3.54s.44-4.21,2.77-6.09,10.84-.78,10.73-2.21C723.21,4887.88,722.39,4881.55,722.39,4881.22Z" fill="#231f20"/>
    <path id="Path_35" data-name="Path 35" d="M699.38,4960.3c2.5,10.02,29.48,15.2,35.62,16.25-.26-4.35-.51-9.85-.69-16.81Z" fill="#ed7d2b"/>
    <path id="Path_36" data-name="Path 36" d="M705.31,4963.56a48.049,48.049,0,0,1-7.03-1.37c-1.03-.51-5.73-7.2-2.65-8.91s11.35,5.14,11.35,5.14Z" fill="#843722"/>
    <path id="Path_37" data-name="Path 37" d="M740.23,4965.54s-22.21,1.21-37.11-1.99a6.406,6.406,0,0,1,4.31-6.22s23.23-4.92,28.81-3.55S740.23,4965.54,740.23,4965.54Z" fill="#f99746"/>
    <path id="Path_38" data-name="Path 38" d="M689.23,4948.12c4.61,5.55,10.63,10.09,17.27,11.15h0a12.361,12.361,0,0,0,1.65-7.42,14.879,14.879,0,0,0-2.42-6.81,15.318,15.318,0,0,1-1.3-2.63c-3.63-9.25-3.09-27.09-3.09-27.09s-15.41,1.61-20.21,8.47C678.21,4927.99,681.95,4939.33,689.23,4948.12Z" fill="#f99746"/>
    <path id="Path_39" data-name="Path 39" d="M716.28,4908.72c1.16-.13,1.88-.28,1.88-.28,1.3-.35,2.03-2.4,2.37-5.09a6.463,6.463,0,0,0-4.03,3.29A4.846,4.846,0,0,0,716.28,4908.72Z" fill="#843722"/>
    <path id="Path_40" data-name="Path 40" d="M722.49,4912.88s5.32-8.78,1.18-9.16a6.236,6.236,0,0,0-6.39,3.45c-.59,1.04.16,5.67.16,5.67Z" fill="#843722"/>
    <path id="Path_41" data-name="Path 41" d="M702.21,4951.56a11.282,11.282,0,0,0,.91,3.05,14.744,14.744,0,0,0,3.39,4.67h0c13.82-6.23,16.61-27.65,17.08-39.41.19-4.73,0-7.9,0-7.9-6.23-2.06-7.99,1.52-7.99,1.52s-7.36,17.49-11.17,28.93C702.97,4946.79,702.03,4950.28,702.21,4951.56Z" fill="#f99746"/>
    <path id="Path_42" data-name="Path 42" d="M689.23,4948.12c4.61,5.55,10.63,10.09,17.27,11.15h0c13.82-6.23,16.61-27.65,17.08-39.41,0,0-6.54,23.71-15.43,32a9.7,9.7,0,0,1-5.03,2.75s-11.23-3.17-13.57-6.16A1.253,1.253,0,0,0,689.23,4948.12Z" fill="#ed7d2b"/>
    <path id="Path_43" data-name="Path 43" d="M1131.44,5025.46s8.78-10.3.5-16.8c0,0-6.04-3.64-10.97-3.33,0,0,7.01,11.68,4.75,12.85s-6.87-13.57-6.87-13.57-13.74-1.29-18.15.84c0,0,11.77,9.58,9.3,10.15s-15.18-8.82-15.18-8.82-12.78,2.21-12.07,10.01,5.11,10.19,7.05,9.98,13.25-4.57,13.5-2.98-6.55,6.79-11.32,7.04c0,0,9.04,9.91,15.02,7.03s6.48-7.43,10.21-9.15,6.91-1.73,5.38.02-8.29,3.45-10.41,7.23-4.03,6.34,2.16,5.4,16.26-5.51,16.68-10.71Z" fill="#036b14"/>
    <path id="Path_44" data-name="Path 44" d="M1089.04,5016.99s34.72-1.43,42.41,8.48a25.121,25.121,0,0,0,6.94,9.68l.82,2.22s-6.04-6.33-8.19-6.71C1131.01,5030.66,1134.35,5018.36,1089.04,5016.99Z" fill="#036b14"/>
    <path id="Path_45" data-name="Path 45" d="M1138.38,5035.15a21.779,21.779,0,0,1,8.01,15.33l-1.35.13s-2.41-10.18-6.72-14.15S1138.38,5035.15,1138.38,5035.15Z" fill="#036b14"/>
    <path id="Path_46" data-name="Path 46" d="M1178.01,4998.31s-14.03-7.81-7.52-18.47c0,0,5.21-6.55,10.81-8.25,0,0-2.94,15.88.05,16.25s2.01-17.94,2.01-17.94,14.73-7.14,20.53-6.59c0,0-9.11,15.53-6.12,15.14s13.22-16.1,13.22-16.1,15.11-2.84,17.58,6.12-1.46,13.45-3.7,14.02-16.62.42-16.24,2.29,10.1,4.83,15.51,3.13c0,0-5.94,14.77-13.78,14.05s-10.29-5.57-15.15-5.93-8.4.96-5.97,2.26,10.65.4,14.58,3.72,7.11,5.37-.17,6.88-20.36.62-22.99-4.98Z" fill="#036b14"/>
    <path id="Path_47" data-name="Path 47" d="M1221.64,4971.29s-39.19,12.81-43.63,27.02a29.827,29.827,0,0,1-3.7,13.64v2.81s4.08-9.54,6.32-10.85C1180.64,5003.91,1171.82,4991.6,1221.64,4971.29Z" fill="#036b14"/>
    <path id="Path_48" data-name="Path 48" d="M1174.31,5011.95a25.882,25.882,0,0,0-2.54,20.38l1.55-.43s-1.55-12.31,1.6-18.51C1178.07,5007.17,1174.31,5011.95,1174.31,5011.95Z" fill="#036b14"/>
    <path id="Path_49" data-name="Path 49" d="M1155.69,4987.55s18.44-10.39,9.78-24.4c0,0-6.92-8.6-14.31-10.79,0,0,4,20.92.06,21.42s-2.77-23.63-2.77-23.63-19.47-9.3-27.11-8.55c0,0,12.12,20.4,8.18,19.92s-17.54-21.12-17.54-21.12-19.95-3.64-23.12,8.19,2.02,17.72,4.97,18.45,21.91.43,21.43,2.9-13.28,6.44-20.42,4.24c0,0,7.93,19.43,18.27,18.42s13.52-7.42,19.92-7.93,11.08,1.2,7.89,2.93-14.03.6-19.19,5.01-9.34,7.12.27,9.07,26.84.67,30.26-6.73Z" fill="#036b14"/>
    <path id="Path_50" data-name="Path 50" d="M1097.98,4952.26s51.75,16.6,57.71,35.29a39.354,39.354,0,0,0,4.97,17.96v3.69s-5.45-12.54-8.42-14.25C1152.26,4994.95,1163.79,4978.67,1097.98,4952.26Z" fill="#036b14"/>
    <path id="Path_51" data-name="Path 51" d="M1160.66,5005.51s8.01,12.09,3.5,26.84l-2.05-.54s1.94-16.24-2.25-24.4S1160.66,5005.51,1160.66,5005.51Z" fill="#036b14"/>
    <path id="Path_52" data-name="Path 52" d="M1276.06,5117.84l-151.61.38c-22.55-25.81-24.84-60.72,5.11-90.11,3.77-3.7,10.99-6.31,18.78-8.16,14.36-3.4,30.64-4.18,30.76-4.25.05-.02,8.61-6.95,13.76-13.18,16-19.36,29.61-17.69,29.61-17.69,16.3-3.17,30.21-4.1,40.51,1.65h0c9.55,5.33,16.01,16.38,18.42,36.7.46,3.84.77,8.01.93,12.54.58,16.48,3.83,31.15,5.75,43.57h0C1290.89,5097.28,1290.91,5110.55,1276.06,5117.84Z" fill="#f99746"/>
    <path id="Path_53" data-name="Path 53" d="M1254.91,5006.82c-9.89,5.38-10.99,23.13-26.48,27.71s-41.77,4.15-56.68,20.31c-14.39,15.6-30.22-24.1-23.4-35.26,14.36-3.4,30.64-4.18,30.76-4.25.05-.02,8.61-6.95,13.76-13.18,16-19.36,29.61-17.69,29.61-17.69,16.3-3.16,30.21-4.1,40.51,1.65h0C1268.22,4991.83,1264.8,5001.43,1254.91,5006.82Z" fill="#ed7d2b"/>
    <path id="Path_54" data-name="Path 54" d="M1194.19,5011.9s-49.64-.65-56.25,3.58,6.82,71.46,6.82,71.46,12.84.37,13.85-3.02c0,0-2.4-31.52-.39-36.96s.74-12.99.74-12.99,25.12,3.76,33.09,1.85S1194.19,5011.9,1194.19,5011.9Z" fill="#233862"/>
    <path id="Path_55" data-name="Path 55" d="M1205.67,4977.15c0,.04-6.98,16.28-10.39,18.01s-15.73,15.9-18.38,15.65,3.09,2.16,3.09,2.16,21.55-9.93,22.8-10.55,7.85-11.48,8.76-16.99S1205.67,4977.15,1205.67,4977.15Z" fill="#843722"/>
    <path id="Path_56" data-name="Path 56" d="M1160.19,5091.95c-1.66,3.19-2.03,9.07-2.52,11.05s-9.17,8.76-9.91,8.42c-1.9-.86-.08-4.16,1.08-6.58.05-.1.09-.19.14-.29,1.14-2.44.16-7.87.75-10.68s-2.26-10.36-2.26-10.36l4.79-6.04s3.37,6.41,5.78,7.58a5.559,5.559,0,0,1,1.17.75C1160.84,5087.12,1161.55,5089.32,1160.19,5091.95Z" fill="#843722"/>
    <path id="Path_57" data-name="Path 57" d="M1143.34,5110.64c-3.32,1.37-7.39,5.61-9.05,6.82s-12.65.77-13,.04c-.93-1.94,2.91-3.34,5.35-4.47l.11-.05h0c2.42-1.22,5.12-5.88,7.35-7.62s4.97-9.37,4.97-9.37l7.57-1.54s-1.56,7.07-.47,9.51a5.89,5.89,0,0,1,.26.7C1147.11,5106.93,1146.35,5109.4,1143.34,5110.64Z" fill="#843722"/>
    <path id="Path_58" data-name="Path 58" d="M1219.93,4969.94c-1.01-1.17,14.95-5.98,18.35,7.12,0,0,29.38-7.81,11.32-20.9-6.26-4.53-6.88-9.37-7.78-13.79s-7.14-17.14-17.97-10.83c0,0-4.95.02-8.08,2.73C1208.66,4940.44,1200.87,4979.64,1219.93,4969.94Z" fill="#231f20"/>
    <path id="Path_59" data-name="Path 59" d="M1214.93,5014.2s-51.48,5.23-56,10.48-22.31,73.58-22.31,73.58,5.25,2.93,10.03.19c0,0,13.62-23.18,19.65-30.46s8.28-29.74,9.28-29.97,33.25,4.5,44.36-4.02S1214.93,5014.2,1214.93,5014.2Z" fill="#2a4e96"/>
    <path id="Path_60" data-name="Path 60" d="M1243.6,4967.49a53.6,53.6,0,0,0-27.85-2.98c-3.18.51-6.04,1.56-8.32,5.3-3.21,5.3-4.72,8.14-4.72,8.14s.31,2.45,4.7,4.41c-1.2,4.39,1.09,12.06-1.02,15.03s-15.19,10.35-15.84,14.45c-1.19,7.54,22.35,21.2,29.38,19.74C1240.13,5027.4,1253.85,4973.27,1243.6,4967.49Z" fill="#f9ddbf"/>
    <path id="Path_61" data-name="Path 61" d="M1236.65,4951.96s2.42-4.76,2.74-8.67c.23-2.79-2.13-12.83-12.21-10.4a13.928,13.928,0,0,0-5.55,2.72c-2.08,1.71-4.97,5.25-.56,13.78l1.21,2.91Z" fill="#231f20"/>
    <path id="Path_62" data-name="Path 62" d="M1219.78,4970.37c-1.02,1.08-.62,4.65,4.15,4.38,3.13-.18,9.85-4.05,9.22-6.73-.3-1.27-2.71-4.55-3.27-12.1l-.57.16-9.56,2.69s.46,3.04.7,5.92C1220.64,4967.11,1220.2,4969.93,1219.78,4970.37Z" fill="#843722"/>
    <path id="Path_63" data-name="Path 63" d="M1219.75,4958.77s.46,3.04.7,5.92c5.42-.58,7.91-5.76,8.87-8.6Z" fill="#702919"/>
    <path id="Path_64" data-name="Path 64" d="M1219.92,4964.89s12.52-3.15,10.43-10.91-1.87-13.38-9.93-11.72-8.83,5.06-8.76,7.82C1211.71,4952.84,1216.61,4965.51,1219.92,4964.89Z" fill="#843722"/>
    <path id="Path_65" data-name="Path 65" d="M1214.31,4941.9s4.19,8.01,12.12,8.88c4.64.51,5.91,3.56,5.91,3.56s-1.38-8.74-3.71-14.08C1228.63,4940.26,1215.72,4936.88,1214.31,4941.9Z" fill="#231f20"/>
    <path id="Path_66" data-name="Path 66" d="M1215.74,4942.97a22.274,22.274,0,0,0-3.59,4.77c-1.25,2.92,1.19,9.07,2.2,10.39,0,0-5.83-9.88-3.88-14.16C1212.54,4939.44,1215.74,4942.97,1215.74,4942.97Z" fill="#231f20"/>
    <path id="Path_67" data-name="Path 67" d="M1180.62,5012.67s-2.49,2.64-2.79,2.78c-1.65.77-3.73.32-4.74.57s-.83-.37-.09-.88,2.57-.31,1.82-.49-4.77-.94-6.29-.53a5.614,5.614,0,0,1-4.45-.36c-.15-.25,5.48-3,7.09-2.9s6.24-.13,6.24-.13Z" fill="#ffb27d"/>
    <path id="Path_68" data-name="Path 68" d="M1247.83,4972.36s1.5,36.7-2.82,41.84c-4.29,5.11-30.54-.57-30.54-.57l-1.82-2.68s23.32-3.41,24.87-3.85c2.25-.63.68-25.91.68-25.91Z" fill="#843722"/>
    <path id="Path_69" data-name="Path 69" d="M1242.04,4966.92c.37,0,5.01,1.53,8.34,8.13,3.27,6.48,4.46,9.62,4.46,9.62s-14.52,11.25-20.29,7.1S1236.72,4966.78,1242.04,4966.92Z" fill="#f9ddbf"/>
    <path id="Path_70" data-name="Path 70" d="M1214.47,5013.63s-2.09,2.12-2.88,3.2-6.35,3.04-6.48,2.46,2.48-2.34,2.72-3,3.08-3.96,4.82-4.33S1214.47,5013.63,1214.47,5013.63Z" fill="#843722"/>
    <path id="Path_71" data-name="Path 71" d="M1212.65,5010.95s-8.56,1.98-10.02,2.58-4.53,4.95-3.31,5.61c.77.41,4.15-1.37,5.87-1.74s6.58.47,8.8-3.92C1214.24,5012.98,1212.65,5010.95,1212.65,5010.95Z" fill="#843722"/>
    <path id="Path_72" data-name="Path 72" d="M1143.34,5110.64c-3.32,1.37-7.39,5.61-9.05,6.82s-12.65.77-13,.04c-.93-1.94,2.91-3.34,5.35-4.47l.11-.05h0l.35-.11s4.75,1.69,8.68,0c3.08-1.32,7.64-6.21,10.65-8.2C1147.11,5106.93,1146.35,5109.4,1143.34,5110.64Z" fill="#2e3552"/>
    <path id="Path_73" data-name="Path 73" d="M1160.19,5091.95c-1.66,3.19-2.03,9.07-2.52,11.05s-9.17,8.76-9.91,8.42c-1.9-.86-.08-4.16,1.08-6.58a5.424,5.424,0,0,0,2.65-.98c2.16-1.45,5.85-6.91,6.17-10.12.27-2.62.1-6.38,1.56-7.96C1160.84,5087.12,1161.55,5089.32,1160.19,5091.95Z" fill="#2e3552"/>
    <path id="Path_74" data-name="Path 74" d="M1201.61,5020.24h-37.3l-11.22-27.9h37.24Z" fill="#c10000"/>
    <path id="Path_75" data-name="Path 75" d="M1163.87,5019.16h49.26v1.08h-48.82Z" fill="#c10000"/>
    <path id="Path_76" data-name="Path 76" d="M1175.54,5004.11c-.2-.49.2-.89.89-.89a1.809,1.809,0,0,1,1.61.89c.2.49-.2.89-.89.89A1.809,1.809,0,0,1,1175.54,5004.11Z" fill="#fff"/>
    <path id="Path_77" data-name="Path 77" d="M1244.31,5020.08s-4.88,4.57-25.28,5.22-47.02,23.19-47.28,29.55,41.08,16.06,41.72,15.15,26.22-22.87,26.22-22.87Z" fill="#f99746"/>
    <path id="Path_78" data-name="Path 78" d="M1288.1,5078.92c-10.99-19.78-36.08,7.5-42.31-1.73s8.82-20.94,22.39-31.04c13.3-9.89,13.24-22.81,13.24-23.34.45,3.84.77,8.02.93,12.54C1282.93,5051.84,1286.17,5066.5,1288.1,5078.92Z" fill="#ed7d2b"/>
    <path id="Path_79" data-name="Path 79" d="M1050.66,4853.99a55.56,55.56,0,0,1-12.65,35.72,46.666,46.666,0,0,0-10.74,29.61v15.6a18.124,18.124,0,0,1-16.8,18c-.41.03-.78,0-1.19,0h-28.8c-.39,0-.81.03-1.19,0a18.062,18.062,0,0,1-16.81-18v-15.57a46.565,46.565,0,0,0-10.68-29.58,55.787,55.787,0,1,1,98.86-35.78Z" fill="#c10000"/>
    <path id="Path_80" data-name="Path 80" d="M1010.46,4952.91c-.15,1.12-2.58,19.77-2.59,19.94-.4,3.08-3.92,5.43-8.12,5.43h-9.48c-4.17,0-7.68-2.31-8.12-5.37-.46-3.22-2.22-15.54-2.86-20Z" fill="#ed7d2b"/>
    <path id="Path_81" data-name="Path 81" d="M1006.7,4952.91h-5.36c-8.64,2.5-17.22,4.97-21.19,6.09l.22,1.46v.03l.22,1.48c3.22-.89,10.94-3.1,29.82-8.58l.06-.48h-3.77Z" fill="#f99746"/>
    <path id="Path_82" data-name="Path 82" d="M981.58,4969.04h0v.03h0l.22,1.48c3.72-1.04,11.4-3.24,27.39-7.88l.22-1.61v-.01l.22-1.6c-10.1,2.93-22.33,6.46-28.23,8.13Z" fill="#f99746"/>
    <path id="Path_83" data-name="Path 83" d="M985.14,4976.96l.05.03a9.137,9.137,0,0,0,2.21.92h0c4.38-1.26,10.89-3.14,20.57-5.94l.22-1.61v-.01l.22-1.6c-8.64,2.5-18.57,5.37-24.69,7.12A7.446,7.446,0,0,0,985.14,4976.96Z" fill="#f99746"/>
    <path id="Path_84" data-name="Path 84" d="M983.59,4952.91l-12.06-71.17,2.49-.42,12.13,71.59Z" fill="#ffeac5"/>
    <path id="Path_85" data-name="Path 85" d="M1005.03,4952.91h-2.57l12.91-70.48,2.48.46Z" fill="#ffeac5"/>
    <path id="Path_86" data-name="Path 86" d="M1001.53,4894.48a4.993,4.993,0,0,1-1.09-.13,1.551,1.551,0,0,1-1.23-1.35c-.29-1.58.95-4.47,2.69-6.92a6.862,6.862,0,0,0-3.39-3.28c-1.87-.57-4.75,1.16-6.75,3.37a14.527,14.527,0,0,1,.98,1.6c1.03,1.94,1.76,4.41.76,5.56-.37.43-1.14.81-2.65.24-1.89-.71-2.57-2.31-1.87-4.4a10.131,10.131,0,0,1,1.79-3.06c-1.55-2.02-3.62-3.56-5.66-3.3a6.223,6.223,0,0,0-2.81,1.06c1.31,2.43,1.61,5.51.7,7.17a2.281,2.281,0,0,1-3.04,1.01c-.96-.34-1.47-1.67-1.28-3.38a7.768,7.768,0,0,1,2.63-4.99,6.629,6.629,0,0,0-1.45-1.63,4.806,4.806,0,0,0-6.55.33l-.55-.53a5.643,5.643,0,0,1,7.56-.4,7.062,7.062,0,0,1,1.59,1.77,7.1,7.1,0,0,1,3.1-1.16c2.29-.29,4.57,1.33,6.26,3.48,2.18-2.37,5.28-4.12,7.45-3.45a7.22,7.22,0,0,1,3.64,3.36,13.1,13.1,0,0,1,2.94-2.89c1.6-1.06,2.63-.81,3.22-.43a5.719,5.719,0,0,1,1.55,1.55,8.283,8.283,0,0,1,1.48-.95c1.85-.92,3.54-.85,4.78.19l-.49.58c-1.33-1.13-3.04-.54-3.94-.09a7.668,7.668,0,0,0-1.42.92c1.23,2.22,1.47,5.11.76,6.5a1.616,1.616,0,0,1-2.16.85,2.851,2.851,0,0,1-2.12-2.62c-.09-1.64,1.04-3.5,2.53-4.88a5.04,5.04,0,0,0-1.38-1.42c-.72-.48-1.69-.03-2.37.43a12.775,12.775,0,0,0-2.95,2.97c1.14,2.18,1.73,4.72,1.3,6.36A2.494,2.494,0,0,1,1001.53,4894.48Zm.76-7.66c-1.51,2.2-2.58,4.7-2.33,6.03a.83.83,0,0,0,.65.75c1.5.34,2.42-.1,2.73-1.3C1003.71,4890.92,1003.23,4888.75,1002.29,4886.82Zm-11.05-.05a9.147,9.147,0,0,0-1.54,2.65c-.58,1.71-.1,2.86,1.41,3.43.61.23,1.42.41,1.81-.03.6-.68.25-2.61-.86-4.7A15.668,15.668,0,0,0,991.24,4886.77Zm-9.55-2.42a7.017,7.017,0,0,0-2.25,4.4c-.14,1.29.18,2.36.78,2.58a1.54,1.54,0,0,0,2.11-.65c.78-1.42.49-4.15-.64-6.33Zm28.19.49a6.127,6.127,0,0,0-2.16,4.17,2.151,2.151,0,0,0,1.62,1.94.857.857,0,0,0,1.22-.48c.59-1.17.33-3.68-.68-5.63Z" fill="#ffeac5"/>
    <path id="Path_87" data-name="Path 87" d="M1023.67,4819.99c4.59,4.32,4.01,12.27-1.89,14.03a13.007,13.007,0,0,1-14.36-6.12c-3.28-5.67-1.77-10.34,2.26-12.67S1018.9,4815.49,1023.67,4819.99Z" fill="#ffeac5"/>
    <path id="Path_88" data-name="Path 88" d="M793.21,4935.79c-.86-1.64,18.58-7.56,18.89,8.65,0,0,36.4-.9,19.02-21.19-6.02-7.02-5.4-12.83-5.22-18.24s-3.75-21.12-17.22-19.54a10,10,0,0,0-7.93.85C790.73,4891.52,768.3,4941.76,793.21,4935.79Z" fill="#231f20"/>
    <path id="Path_89" data-name="Path 89" d="M852.73,4953.91s2.37-3.61,4.28-3.67,5.45-1.06,5.16-.35-2.48.78-2.69,1.2,3.25,1.06,4.24,1.13,3.32,0,3.26.5-4.21,2.55-7.12,2.26a19.9,19.9,0,0,0-6.53.85Z" fill="#843722"/>
    <path id="Path_90" data-name="Path 90" d="M818.46,4955.08a35.831,35.831,0,0,0,3.62,5.48c2.82,3.53,7.16,7.6,12.61,8.41a13.571,13.571,0,0,0,7.49-1.22h0c6.62-2.94,11.6-9.7,11.6-9.7a5.437,5.437,0,0,0-.74-5.34s-13.37,3.01-14.64,2.37-8.7-22.03-10.47-24.72-7.8-4.08-7.8-4.08Z" fill="#f9ddbf"/>
    <path id="Path_91" data-name="Path 91" d="M822.08,4960.56c2.82,3.53,7.16,7.6,12.61,8.41a13.571,13.571,0,0,0,7.49-1.22c-.26.03-6.87.86-9.5-3.86-2.69-4.81-5.6-12.45-9.59-9.9C821.36,4955.08,821.44,4957.81,822.08,4960.56Z" fill="#f2ccaa"/>
    <path id="Path_92" data-name="Path 92" d="M768.58,5099.39s-4.08,3.72-3.28,6.37,4.48,4.41,4.97,7.64,2.49,5,4.28,5h8.54s1.32-2.28-1.87-2.96-4.38-4.49-4.19-8.01a61.831,61.831,0,0,0-.3-8.23l-6.77-1.57Z" fill="#233862"/>
    <path id="Path_93" data-name="Path 93" d="M803.11,5100.97s-1.47,15.77.32,16.65l22.92-.05s0-2.64-3.68-3.24-10.15-2.74-11.24-7.54S803.11,5100.97,803.11,5100.97Z" fill="#233862"/>
    <path id="Path_94" data-name="Path 94" d="M786.77,4987.82c4.72-10.58,7.6-13.61,7.05-16.9-.41-2.44,1.25-45.55,1.25-45.55.56-.17,1.68-.33,2.29-.46a5.733,5.733,0,0,0,4.2-3.65,29.313,29.313,0,0,0,1.42-9.73l.6.12,10.16,2.01s-.23,3.19-.24,6.21v.07a5.838,5.838,0,0,0,4.22,5.65c1.28.37,2.4.69,2.4.69a93.087,93.087,0,0,1,4.44,21.59c.71,10.94-6.78,15.69.06,37.56C831.62,5007.75,784.17,4993.67,786.77,4987.82Z" fill="#843722"/>
    <path id="Path_95" data-name="Path 95" d="M813.76,4913.65s-.23,3.19-.24,6.21c-5.68-.16-8.69-5.35-9.93-8.22Z" fill="#702919"/>
    <path id="Path_96" data-name="Path 96" d="M815.66,4916.5s-13.45.22-13.46-8.16-1.75-13.99,6.83-14.49,10.26,2.7,10.94,5.49C820.66,4902.15,819.16,4916.23,815.66,4916.5Z" fill="#843722"/>
    <path id="Path_97" data-name="Path 97" d="M815.16,4893.65s-3.68,9.83-9.33,11.28-8.1-.06-8.1-.06a16.039,16.039,0,0,0,5.23-9.45S812.38,4888.97,815.16,4893.65Z" fill="#231f20"/>
    <path id="Path_98" data-name="Path 98" d="M814.25,4894.45a8.352,8.352,0,0,1,3.86,3.02,13.539,13.539,0,0,1,1.82,7.69s2.77-6.68-.34-10.46C816.27,4890.69,814.25,4894.45,814.25,4894.45Z" fill="#231f20"/>
    <path id="Path_99" data-name="Path 99" d="M812.73,4911.3a3.376,3.376,0,0,0,2.78,1.13,2.447,2.447,0,0,0,2.07-1.37A9.211,9.211,0,0,0,812.73,4911.3Z" fill="#ebf3fa"/>
    <path id="Path_100" data-name="Path 100" d="M785.47,4944.44a93.523,93.523,0,0,0,0,10.59c.22,3.83,4.1,8.96,4.65,10.23,1.38,3.18,2.93,3.7,2.93,3.7l12.04,2.95,4.23,1.04,13.34-3.99s6.08-16.96,3.63-26.51a73.536,73.536,0,0,0-6.17-16.19s-10.89,10.67-25.06-.89Z" fill="#f9ddbf"/>
    <path id="Path_101" data-name="Path 101" d="M789,4956.6c.22,3.83.58,7.4,1.13,8.67,1.38,3.18,2.93,3.7,2.93,3.7l12.04,2.95,5.23-1.54s-17.45-2.64-15.52-17.66Z" fill="#f2ccaa"/>
    <path id="Path_102" data-name="Path 102" d="M821.82,4971.54s6.61,20.57,7.03,27.57-12.63,99.48-13.16,102.71c-.5,3.04-4.27,4.98-4.27,4.98a5.74,5.74,0,0,1-4.22.32c-3.44-.97-4.53-2.14-4.53-2.14s-5.14-65.96-1.96-89.51a373.9,373.9,0,0,0,3.22-43.94h17.89Z" fill="#ed7d2b"/>
    <path id="Path_103" data-name="Path 103" d="M793.83,4970.92s-10.08,13.52-11.01,22.67-1.47,41.26-3.48,50.17-9.36,26.07-9.36,53.86a5.531,5.531,0,0,0,3.12,2.44,25.993,25.993,0,0,0,2.75.76,4.315,4.315,0,0,0,4.83-2.29c4.97-10.01,20.81-42.31,21.63-49.01.58-4.75,5.58-36.14,16.49-54.56,2.62-4.42-1.61-22.02-1.61-22.02Z" fill="#f99746"/>
    <path id="Path_104" data-name="Path 104" d="M813.03,4911.53s.23.99,2.69.84c0,0,2.06-.13,2-1.21A6.54,6.54,0,0,0,813.03,4911.53Z" fill="#fff"/>
    <path id="Path_105" data-name="Path 105" d="M822.88,4968.36s-2.65,2.1-7.92,2.2c-6.3.13-21.89-1.61-21.89-1.61a12.819,12.819,0,0,0-.66,3.98s19.05,4.81,30.09.7A7,7,0,0,0,822.88,4968.36Z" fill="#233862"/>
    <path id="Path_106" data-name="Path 106" d="M813.59,4972.74a2.892,2.892,0,1,1,2.87,3.25A3.091,3.091,0,0,1,813.59,4972.74Zm.95,0a1.951,1.951,0,1,0,1.92-2.3A2.136,2.136,0,0,0,814.54,4972.74Z" fill="#fff"/>
    <rect id="Rectangle_15" data-name="Rectangle 15" width="35.42" height="25.88" transform="translate(772.363 4972.025) rotate(-48.949)" fill="#b5453c"/>
    <path id="Path_107" data-name="Path 107" d="M797.47,4972.16s7.15.84,7.12,2.53-1.78,5.18-2.67,5.34-5.83-4.71-5.83-4.71Z" fill="#843722"/>
    <path id="Path_108" data-name="Path 108" d="M795.07,4925.37s-9.55.67-13.21,9.57-10.61,23.84-10.61,26.35,3.89,10.26,24.71,14.71c0,0,2.16-2.27,2.02-4.06,0,0-13-11.17-12.97-12.47.07-2.47,2.13-5.73,13.55-17.15C801.68,4939.2,795.07,4925.37,795.07,4925.37Z" fill="#f9ddbf"/>
    <path id="Path_109" data-name="Path 109" d="M877.61,5118.71h-.09a.956.956,0,0,1-.95-.95v-.02l1.44-62.45,4.24-.49-3.62,62.95A1.027,1.027,0,0,1,877.61,5118.71Z" fill="#95c0f4"/>
    <path id="Path_110" data-name="Path 110" d="M945.86,5118.71h.09a.956.956,0,0,0,.95-.95v-.02l-1.44-62.45-4.24-.49,3.62,62.95A1.013,1.013,0,0,0,945.86,5118.71Z" fill="#b0d4ff"/>
    <path id="Path_111" data-name="Path 111" d="M874.79,5051.41v-42.79a13.638,13.638,0,0,1,13.64-13.64h30.83a13.627,13.627,0,0,1,13.63,13.63h0v44.43Z" fill="#b0d4ff"/>
    <path id="Path_112" data-name="Path 112" d="M874.79,5051.41h63.63v6.76H878.11a3.318,3.318,0,0,1-3.32-3.32v-3.44Z" fill="#95c0f4"/>
    <path id="Path_113" data-name="Path 113" d="M899.94,5051.41h46.19a2.454,2.454,0,0,1,2.45,2.45v1.85a2.454,2.454,0,0,1-2.45,2.45H899.94a2.454,2.454,0,0,1-2.45-2.45v-1.85A2.454,2.454,0,0,1,899.94,5051.41Z" fill="#b0d4ff"/>
    <path id="Path_114" data-name="Path 114" d="M943.8,5040.75c-4.42,7.69-9.97,10.66-9.97,10.66H910.72C910.72,5051.4,947.17,5034.88,943.8,5040.75Z" fill="#233862"/>
    <path id="Path_115" data-name="Path 115" d="M926.04,5100.23a2.143,2.143,0,0,0-.38,2.29v.01c.55,1.51,2.37,3.22,4.49,4.92q.405.33.72.6c.05.05.11.1.16.15l.12.11c1.97,1.82,1.23,2.23,4.78,5.92,4.04,4.21,6.82,4.28,7.61,3.9.67-.33-.69-2.56-2.2-5.06l-.22-.36c-.2-.33-.4-.67-.6-1.01-1.77-3.02-1.31-4.43-.89-8.92.34-3.65,5.68-20.38,5.68-20.38l-7.74-1.33s-2.33,13.32-4.9,15.38c-1.38,1.09-2.91,1.11-4.23,1.92-.09.06-.19.11-.27.17A9.793,9.793,0,0,0,926.04,5100.23Z" fill="#843722"/>
    <path id="Path_116" data-name="Path 116" d="M926.04,5100.23a2.143,2.143,0,0,0-.38,2.29v.01c.68,1.51,2.45,3.21,4.5,4.91.27.22.5.43.71.62.05.05.11.1.16.15l.12.11c1.97,1.82,1.23,2.23,4.78,5.92,4.04,4.21,6.82,4.28,7.61,3.9.67-.33-.69-2.56-2.2-5.06a17.1,17.1,0,0,1-7.2-5.31c-2.43-3.1-4.06-7.09-5.71-9.4-.09.06-.19.11-.27.17A9.983,9.983,0,0,0,926.04,5100.23Z" fill="#233862"/>
    <path id="Path_117" data-name="Path 117" d="M988.5,5095.39c.48,2.39,3.89,1.99,7.69,1.06s2.9.18,8.32-.43,7.06-2.62,7.22-3.43c.15-.71-2.53-.97-5.4-1.3l-1.08-.13c-3.24-.41-5.61-2.5-8.56-4.22-2.79-1.63-6.95-8.26-6.95-8.26l-7.43.59s3.9,5.92,5.41,8.5a8.948,8.948,0,0,1,.73,5.06A9.135,9.135,0,0,0,988.5,5095.39Z" fill="#843722"/>
    <path id="Path_118" data-name="Path 118" d="M996.19,5096.45c3.81-.93,2.9.18,8.32-.43s7.06-2.62,7.22-3.43c.15-.71-2.53-.97-5.4-1.3l-.03.05a15.274,15.274,0,0,1-7.76,2.41c-3.67.09-7.57-.96-10.11-.92a9.4,9.4,0,0,0,.06,2.54C988.97,5097.78,992.38,5097.38,996.19,5096.45Z" fill="#233862"/>
    <path id="Path_119" data-name="Path 119" d="M960.02,5047.88l-6.95,18.69-9.07,24.4a14.755,14.755,0,0,1-4.82-.43,20.989,20.989,0,0,1-4.66-2.27s2.52-26.2,7.21-41.23c1.2-3.86,2.55-6.99,4.04-8.74C953.07,5029.68,960.02,5047.88,960.02,5047.88Z" fill="#233862"/>
    <path id="Path_120" data-name="Path 120" d="M952.96,5018.2c-4.55-1.47-17.53.42-30.57,2.97l-2.73-4.5-28.16-2.19s-9.28,20.61-4.2,33.74a4.758,4.758,0,0,0,4.76,3.21h22.61c14,0,29.64-9.63,31.66-10.03,3.31-.66,4.64,5.96,7.94,12.91s31.13,30.77,31.13,30.77,4.27.04,6.04-.62a5.87,5.87,0,0,0,2.59-1.64S963.22,5021.51,952.96,5018.2Z" fill="#2b478b"/>
    <path id="Path_121" data-name="Path 121" d="M918.55,4934.67c-3.61-1.9-9.1-2.16-9.99-2.27-10.67-1.43-17.09,14.07-17.47,18.77-.7,8.66-5.28,9.98-11.73,15.4-12.93,10.87-9.14,23.51-2.07,28.21,4.24,2.81,11.72,0,11.72,0,.11.07,20.45-11.37,30.48-16.9C934.53,4975.75,927.75,4939.49,918.55,4934.67Z" fill="#231f20"/>
    <path id="Path_122" data-name="Path 122" d="M911.09,4973.18c.04.03-4.94,1.73-8.26.25-3.13-1.38-5.5-6.53-5.46-6.54,1.42-.06,2.99-1.31,4.19-9.48l.61.22,10.2,3.67s-.74,3.27-1.22,6.39C910.75,4970.31,910.54,4972.81,911.09,4973.18Z" fill="#843722"/>
    <path id="Path_123" data-name="Path 123" d="M912.37,4961.3s-.74,3.27-1.22,6.39c-5.86-1.05-8.16-6.89-8.98-10.06Z" fill="#702919"/>
    <path id="Path_124" data-name="Path 124" d="M913.89,4964.55s-13.95-1.87-12.66-10.55.38-14.75,9.34-13.92,10.19,4.4,10.47,7.4S917.55,4964.82,913.89,4964.55Z" fill="#843722"/>
    <path id="Path_125" data-name="Path 125" d="M920.53,4942.73s-8.93,7.7-15.01,8.32-8.38-1.33-8.38-1.33a23.637,23.637,0,0,0,5.74-7.77,4.276,4.276,0,0,1,3.51-2.52C910.74,4939.05,918.97,4938.88,920.53,4942.73Z" fill="#231f20"/>
    <path id="Path_126" data-name="Path 126" d="M914.95,4942.04s2.99,2.89,3.93,5.03c.91,2.07,1.18,7.01.46,8.98,0,0,4.66-9.05,2.02-13.45C918.56,4937.93,914.95,4942.04,914.95,4942.04Z" fill="#231f20"/>
    <path id="Path_127" data-name="Path 127" d="M922.84,4993.75c-.43,28.25-.11,22.34-3.2,25.02-.74.65-2.84,1.03-5.59,1.21-8.66.57-23.89-.86-24.47-2.45-2-5.54-.59-7.26-2.25-15.74-.17-.9-.39-1.88-.65-2.94-1.39-5.83-2.74-7.8,2.19-17.16,4.47-8.48,9.12-15.35,9.53-15.11,11.8,7,12.74,1.12,12.74,1.12S923.05,4979.96,922.84,4993.75Z" fill="#f9ddbf"/>
    <path id="Path_128" data-name="Path 128" d="M953.08,5066.57l-9.07,24.4a14.755,14.755,0,0,1-4.82-.43,20.989,20.989,0,0,1-4.66-2.27s2.52-26.2,7.21-41.23Z" fill="#2b478b"/>
    <path id="Path_129" data-name="Path 129" d="M911.15,4967.69s12.14,2.06,13.56,7.28,9.81,35.95,9.81,35.95-6.17,1.11-9.02-1.74-9.93-26.45-9.93-26.45Z" fill="#f9ddbf"/>
    <path id="Path_130" data-name="Path 130" d="M914.05,5019.98c-8.66.57-23.89-.86-24.47-2.45-2-5.54-.59-7.26-2.25-15.74l4.18-11.76s-.69,13.1,3.17,16.54,15.82,6.65,17.7,9.53A10.666,10.666,0,0,1,914.05,5019.98Z" fill="#f2ccaa"/>
    <path id="Path_131" data-name="Path 131" d="M904.12,5014.47s8.55-1.9,9.93-1.14,4.75,3.52,5.17,4.48-3.07-.73-4.21-1.03c-.73-.2-2.67.48-3.63.79-4.03,1.34-6.5.65-6.5.65Z" fill="#843722"/>
    <path id="Path_132" data-name="Path 132" d="M898.41,4966.57s-11.47.71-15.45,6.25c-5.59,7.8-16.68,41.03-10.33,45.47,7.16,4.99,32.58,1.3,32.58,1.3s.84-3.96-.33-5.87-20.29-5-21.19-5.89,11.04-17.21,11.04-19.86S898.41,4966.57,898.41,4966.57Z" fill="#f9ddbf"/>
    <path id="Path_133" data-name="Path 133" d="M914.46,5015.7a16.954,16.954,0,0,0,2.37,2.59,1.8,1.8,0,0,0,.96.21l-1.2-2.16Z" fill="#843722"/>
    <path id="Path_134" data-name="Path 134" d="M914.05,5013.32l5.2,2.53a.924.924,0,0,1-.86.33,12.279,12.279,0,0,1-2.26-.62Z" fill="#843722"/>
    <path id="Path_135" data-name="Path 135" d="M916.84,5021.82h41.17l12.39-30.8H929.29Z" fill="#c10000"/>
    <path id="Path_136" data-name="Path 136" d="M958.5,5020.62H904.12v1.2h53.89Z" fill="#ed7d2b"/>
    <path id="Path_137" data-name="Path 137" d="M947.62,5006.42a1.429,1.429,0,0,0-1.4-1.96,2.812,2.812,0,0,0-2.52,1.96,1.429,1.429,0,0,0,1.4,1.96A2.812,2.812,0,0,0,947.62,5006.42Z" fill="#fff"/>
    <path id="Path_138" data-name="Path 138" d="M1047.33,5118.77h.12a1.332,1.332,0,0,0,1.25-1.42l-1.9-91.12-5.61-.72,4.79,91.85A1.411,1.411,0,0,0,1047.33,5118.77Z" fill="#233862"/>
    <path id="Path_139" data-name="Path 139" d="M905.5,5118.77h-.12a1.34,1.34,0,0,1-1.26-1.42l1.9-91.12,5.61-.72-4.79,91.85A1.389,1.389,0,0,1,905.5,5118.77Z" fill="#233862"/>
    <path id="Path_140" data-name="Path 140" d="M897.97,5021.02h159.01a1.835,1.835,0,0,1,1.84,1.84v2.84a1.835,1.835,0,0,1-1.84,1.84H897.97a1.835,1.835,0,0,1-1.84-1.84v-2.84A1.842,1.842,0,0,1,897.97,5021.02Z" fill="#233862"/>
    <path id="Path_141" data-name="Path 141" d="M1170.69,4770.33l30.87,4.88-20.31-14.3-1.12,4.47-7.54,1.24Z" fill="#9ec3f6"/>
    <path id="Path_142" data-name="Path 142" d="M1201.56,4775.21l-25.54-13.66-25.22-1.66Z" fill="#fff"/>
    <path id="Path_143" data-name="Path 143" d="M1181.25,4760.91l20.31,14.3L1186,4753.1Z" fill="#fff"/>
    <path id="Path_144" data-name="Path 144" d="M874.61,4800.67l-40.2,11.55,24.64-22.33,2.21,5.75,10.22.42Z" fill="#9ec3f6"/>
    <path id="Path_145" data-name="Path 145" d="M834.41,4812.22l31.68-22.34,33.21-6.33Z" fill="#ebf3fa"/>
    <path id="Path_146" data-name="Path 146" d="M859.05,4789.89l-24.64,22.33,17.04-31.92Z" fill="#ebf3fa"/>
  </g>
</svg>
