<svg xmlns="http://www.w3.org/2000/svg" width="44.371" height="26.623" viewBox="0 0 44.371 26.623">
  <path id="Path_1" data-name="Path 1" d="M1253.2,334.546c-3.676,0-6.656,3.477-6.656,7.765s2.98,7.766,6.656,7.766,6.655-3.476,6.655-7.766S1256.876,334.546,1253.2,334.546Zm2.773,11.648a.555.555,0,0,1-.555.555h-4.437a.556.556,0,0,1-.555-.555v-1.109a.555.555,0,0,1,.555-.555h1.109v-3.844l-.032.022a.555.555,0,0,1-.769-.153h0l-.616-.923a.554.554,0,0,1,.153-.768h0l1.063-.708a1.664,1.664,0,0,1,.923-.28h.941a.555.555,0,0,1,.555.555v6.1h1.109a.554.554,0,0,1,.555.555ZM1273.168,329h-39.935a2.219,2.219,0,0,0-2.218,2.219V353.4a2.219,2.219,0,0,0,2.218,2.219h39.935a2.219,2.219,0,0,0,2.218-2.219V331.219A2.219,2.219,0,0,0,1273.168,329Zm-1.109,18.858a4.437,4.437,0,0,0-4.438,4.437H1238.78a4.436,4.436,0,0,0-4.437-4.437V336.765a4.436,4.436,0,0,0,4.437-4.437h28.841a4.437,4.437,0,0,0,4.438,4.437Z" transform="translate(-1231.015 -329)" fill="#c10000"/>
</svg>
