<svg xmlns="http://www.w3.org/2000/svg" width="1920" height="388.28" viewBox="0 0 1920 388.28">
  <g id="Group_16" data-name="Group 16" transform="translate(-8 -1123)">
    <path id="Path_8" data-name="Path 8" d="M8,1247.08c119.11-53.54,266-60.06,416.81-26.42,99.57,22.2,136.47,61.95,237.38,86.18,102.64,24.65,241.81,26.11,425.81-47.19-290.21,174.44-456.83,171.71-556.31,133.89-54.57-20.74-85.84-50.86-155.25-61.56C233.81,1310,99.25,1435.31,8,1511.28Z" fill="#f2f2f2"/>
    <path id="Path_9" data-name="Path 9" d="M1928,1387.21c-119.11,53.54-266,60.06-416.81,26.42-99.57-22.2-136.47-62-237.38-86.19-102.64-24.68-241.81-26.1-425.81,47.2,290.21-174.45,456.83-171.71,556.31-133.88,54.57,20.74,85.84,50.86,155.25,61.57,142.63,21.96,277.19-103.35,368.44-179.33Z" fill="#f2f2f2"/>
  </g>
</svg>
