<svg xmlns="http://www.w3.org/2000/svg" width="24" height="24" viewBox="0 0 24 24">
  <path id="Path_3" data-name="Path 3" d="M1665.551,336.062a8.131,8.131,0,0,0-13.435,3.947.583.583,0,0,1-.564.443h-2.773a.58.58,0,0,1-.571-.686,12,12,0,0,1,20.081-6.443l1.729-1.728a1.161,1.161,0,0,1,1.982.822V338.9a1.161,1.161,0,0,1-1.161,1.162h-6.487a1.161,1.161,0,0,1-.821-1.983Zm-16.39,7.873h6.487a1.161,1.161,0,0,1,.821,1.983l-2.02,2.02a8.131,8.131,0,0,0,13.435-3.947.583.583,0,0,1,.564-.443h2.773a.58.58,0,0,1,.571.686,12,12,0,0,1-20.081,6.443l-1.729,1.728a1.161,1.161,0,0,1-1.982-.822V345.1A1.161,1.161,0,0,1,1649.161,343.935Z" transform="translate(-1648 -330)" fill="#c10000"/>
</svg>
