<svg width="12" height="14" xmlns="http://www.w3.org/2000/svg" xmlns:xlink="http://www.w3.org/1999/xlink" xmlns:svgjs="http://svgjs.com/svgjs" fill="#c10000"><svg xmlns="http://www.w3.org/2000/svg" width="12" height="14"><path paint-order="stroke fill markers" fill-rule="evenodd" d="M11.769 9.847c-.517-.556-1.485-1.393-1.485-4.133 0-2.081-1.46-3.747-3.427-4.156V1a.858.858 0 0 0-1.714 0v.558c-1.967.409-3.427 2.075-3.427 4.156 0 2.74-.968 3.577-1.485 4.133a.839.839 0 0 0-.231.582.858.858 0 0 0 .86.857h10.28a.858.858 0 0 0 .86-.857.836.836 0 0 0-.231-.582zM1.809 10c.568-.75 1.19-1.991 1.193-4.27L3 5.714a3 3 0 1 1 6 0l-.002.016C9 8.009 9.623 9.25 10.19 10H1.809zm4.19 3.857c.947 0 1.714-.767 1.714-1.714H4.287c0 .947.767 1.714 1.713 1.714z"/></svg></svg>