<svg width="56" height="49" xmlns="http://www.w3.org/2000/svg" xmlns:xlink="http://www.w3.org/1999/xlink" xmlns:svgjs="http://svgjs.com/svgjs" fill="#6b6a6a"><svg xmlns="http://www.w3.org/2000/svg" width="56" height="49"><path paint-order="stroke fill markers" fill-rule="evenodd" d="M55.018 12.807v30.75a5.127 5.127 0 0 1-5.125 5.126H5.475A5.126 5.126 0 0 1 .35 43.558V12.807a5.125 5.125 0 0 1 5.125-5.125h9.396l1.313-3.513A5.119 5.119 0 0 1 20.978.848h13.4a5.118 5.118 0 0 1 4.795 3.32l1.324 3.514h9.396a5.126 5.126 0 0 1 5.125 5.125zM40.497 28.182c0-7.068-5.745-12.813-12.813-12.813-7.07 0-12.813 5.745-12.813 12.813 0 7.069 5.744 12.813 12.813 12.813 7.068 0 12.813-5.744 12.813-12.813zm-3.417 0c0 5.179-4.218 9.396-9.396 9.396-5.18 0-9.396-4.217-9.396-9.396 0-5.178 4.217-9.396 9.396-9.396 5.178 0 9.396 4.218 9.396 9.396z"/></svg></svg>