<svg width="14" height="11" xmlns="http://www.w3.org/2000/svg" xmlns:xlink="http://www.w3.org/1999/xlink" xmlns:svgjs="http://svgjs.com/svgjs" fill="#c10000"><svg xmlns="http://www.w3.org/2000/svg" width="14" height="11"><path paint-order="stroke fill markers" fill-rule="evenodd" d="M4.428.477a.295.295 0 0 0-.416 0H4.01L2.447 2.032l-.557-.543a.295.295 0 0 0-.417-.001h-.001l-.385.387a.294.294 0 0 0-.001.417l1.169 1.164a.312.312 0 0 0 .433 0l.383-.383L4.844 1.3a.296.296 0 0 0 .002-.417L4.428.477zm0 3.91a.293.293 0 0 0-.416-.001H4.01L2.447 5.952l-.557-.542a.294.294 0 0 0-.417-.001h-.001l-.385.386a.294.294 0 0 0-.001.417l1.166 1.167a.315.315 0 0 0 .433 0l.385-.385 1.773-1.774a.294.294 0 0 0 .002-.415l-.417-.417zM2.572 8.643c-.651 0-1.194.528-1.194 1.178 0 .65.544 1.179 1.194 1.179a1.178 1.178 0 0 0 0-2.357zm10.608.392H6.108a.393.393 0 0 0-.393.393v.786c0 .217.176.393.393.393h7.072a.393.393 0 0 0 .393-.393v-.786a.393.393 0 0 0-.393-.393zm0-7.858H6.108a.393.393 0 0 0-.393.393v.786c0 .217.176.393.393.393h7.072a.393.393 0 0 0 .393-.393V1.57a.393.393 0 0 0-.393-.393zm0 3.929H6.108a.393.393 0 0 0-.393.393v.786c0 .217.176.393.393.393h7.072a.393.393 0 0 0 .393-.393v-.786a.393.393 0 0 0-.393-.393z"/></svg></svg>