<svg width="25" height="29" xmlns="http://www.w3.org/2000/svg" xmlns:xlink="http://www.w3.org/1999/xlink" xmlns:svgjs="http://svgjs.com/svgjs" fill="none" stroke-miterlimit="100" stroke="#fff"><svg xmlns="http://www.w3.org/2000/svg" width="25" height="29"><path paint-order="stroke fill markers" d="M3.166 25.732c-3.107-3.205-3.05-8.374.073-11.567L14.39 2.759a5.948 5.948 0 0 1 8.542 0c2.333 2.386 2.336 6.237 0 8.626l-9.721 9.934a3.967 3.967 0 0 1-5.74-.053c-1.503-1.594-1.455-4.12.077-5.686l7.642-7.806a.85.85 0 0 1 1.203-.013l1.215 1.19c.336.328.34.867.013 1.203L9.98 17.959c-.262.268-.278.714-.035.972.233.247.598.25.834.009L20.5 9.007a2.784 2.784 0 0 0-.001-3.87 2.549 2.549 0 0 0-3.676 0L5.672 16.543c-1.848 1.89-1.877 4.95-.063 6.82a4.533 4.533 0 0 0 6.54.017l9.148-9.357a.85.85 0 0 1 1.203-.013l1.216 1.188a.85.85 0 0 1 .014 1.203l-9.147 9.357a7.932 7.932 0 0 1-11.417-.026s0 0 0 0z"/></svg></svg>