<svg width="68" height="86" viewBox="0 0 68 86" fill="none" xmlns="http://www.w3.org/2000/svg">
<path d="M66.895 23.1533L48.025 1.90326C47.6277 1.463 47.1426 1.11076 46.6009 0.86922C46.0593 0.627676 45.4731 0.502167 44.88 0.500765H10.88C9.46793 0.483922 8.06638 0.745395 6.75538 1.27025C5.44437 1.79511 4.24959 2.57308 3.23927 3.55972C2.22895 4.54636 1.42288 5.72236 0.867077 7.02055C0.311279 8.31874 0.0166446 9.7137 0 11.1258V74.8758C0.0166446 76.2878 0.311279 77.6828 0.867077 78.981C1.42288 80.2792 2.22895 81.4552 3.23927 82.4418C4.24959 83.4285 5.44437 84.2064 6.75538 84.7313C8.06638 85.2561 9.46793 85.5176 10.88 85.5008H57.12C58.5321 85.5176 59.9336 85.2561 61.2446 84.7313C62.5556 84.2064 63.7504 83.4285 64.7607 82.4418C65.771 81.4552 66.5771 80.2792 67.1329 78.981C67.6887 77.6828 67.9834 76.2878 68 74.8758V26.0008C67.9973 24.9475 67.6035 23.9327 66.895 23.1533ZM42.5 9.00076L58.395 26.0008H45.645C45.1999 25.9739 44.7647 25.8586 44.3646 25.6617C43.9646 25.4649 43.6078 25.1902 43.315 24.854C43.0223 24.5177 42.7994 24.1264 42.6595 23.7031C42.5195 23.2798 42.4653 22.8328 42.5 22.3883V9.00076Z" fill="#767676"/>
</svg>
