<svg width="14" height="14" viewBox="0 0 14 14" fill="none" xmlns="http://www.w3.org/2000/svg">
<path d="M13.0136 3.60182L8.32531 8.29931C8.14411 8.48095 7.92141 8.61574 7.67644 8.69202L6.68025 9.02549C6.44383 9.09225 6.19388 9.09477 5.95617 9.03278C5.71845 8.9708 5.50156 8.84654 5.32785 8.67283C5.15413 8.49912 5.02988 8.28223 4.96789 8.04451C4.9059 7.80679 4.90842 7.55685 4.97519 7.32043L5.30866 6.32423C5.38472 6.07934 5.51924 5.85665 5.7006 5.67536L10.3981 0.986342C10.4411 0.943331 10.4705 0.888517 10.4824 0.828832C10.4943 0.769147 10.4882 0.707273 10.465 0.651033C10.4417 0.594793 10.4023 0.546715 10.3517 0.512878C10.3011 0.479041 10.2416 0.460966 10.1808 0.460938H2.15393C1.58267 0.460938 1.03481 0.687869 0.630871 1.09181C0.226931 1.49575 0 2.04361 0 2.61486V11.846C0 12.4172 0.226931 12.9651 0.630871 13.369C1.03481 13.773 1.58267 13.9999 2.15393 13.9999H11.385C11.9563 13.9999 12.5042 13.773 12.9081 13.369C13.312 12.9651 13.539 12.4172 13.539 11.846V3.81914C13.5389 3.75828 13.5209 3.69879 13.487 3.64821C13.4532 3.59762 13.4051 3.5582 13.3489 3.53494C13.2926 3.51168 13.2308 3.50562 13.1711 3.51752C13.1114 3.52943 13.0566 3.55877 13.0136 3.60182Z" fill="#068503"/>
</svg>
