<svg width="15" height="13" xmlns="http://www.w3.org/2000/svg" xmlns:xlink="http://www.w3.org/1999/xlink" xmlns:svgjs="http://svgjs.com/svgjs" fill="#0a47a0"><svg xmlns="http://www.w3.org/2000/svg" width="15" height="13"><path paint-order="stroke fill markers" fill-rule="evenodd" d="M9.837 8.962l.773-.773a.195.195 0 0 1 .332.137v3.514c0 .64-.52 1.16-1.16 1.16H1.275c-.64 0-1.16-.52-1.16-1.16V3.334c0-.641.52-1.16 1.16-1.16h6.61c.171 0 .258.208.137.33l-.773.774a.194.194 0 0 1-.138.056H1.275v8.506h8.507V9.097c0-.05.019-.1.055-.135zm3.784-4.877L7.276 10.43l-2.185.242A.998.998 0 0 1 3.989 9.57l.242-2.185 6.346-6.346a1.41 1.41 0 0 1 1.998 0l1.044 1.044c.553.554.553 1.45.002 2zm-2.387.747L9.83 3.428 5.34 7.92l-.176 1.578 1.578-.176 4.492-4.49zM12.8 2.906l-1.044-1.044a.253.253 0 0 0-.358 0l-.746.747 1.404 1.404.746-.747a.257.257 0 0 0-.002-.36z"/></svg></svg>