<svg width="14" height="10" xmlns="http://www.w3.org/2000/svg" xmlns:xlink="http://www.w3.org/1999/xlink" xmlns:svgjs="http://svgjs.com/svgjs" fill="#c10000"><svg xmlns="http://www.w3.org/2000/svg" width="14" height="10"><path paint-order="stroke fill markers" fill-rule="evenodd" d="M12.083 0H1.25C.56 0 0 .56 0 1.25v7.5C0 9.44.56 10 1.25 10h10.833c.69 0 1.25-.56 1.25-1.25v-7.5c0-.69-.56-1.25-1.25-1.25zm0 1.25v1.063c-.584.475-1.514 1.214-3.505 2.773C8.14 5.43 7.271 6.26 6.667 6.25c-.605.01-1.474-.819-1.912-1.164A263.785 263.785 0 0 1 1.25 2.313V1.25h10.833zM1.25 8.75V3.917c.597.475 1.443 1.142 2.733 2.152.569.448 1.566 1.437 2.684 1.43 1.112.007 2.096-.968 2.683-1.43 1.29-1.01 2.137-1.677 2.733-2.152V8.75H1.25z"/></svg></svg>