<svg width="12" height="12" xmlns="http://www.w3.org/2000/svg" xmlns:xlink="http://www.w3.org/1999/xlink" xmlns:svgjs="http://svgjs.com/svgjs" fill="#2d2c2c"><svg xmlns="http://www.w3.org/2000/svg" width="12" height="12"><path paint-order="stroke fill markers" fill-rule="evenodd" d="M11.732 10.356L9.53 8.155A.527.527 0 0 0 9.155 8h-.36c.609-.78.97-1.76.97-2.826A4.591 4.591 0 0 0 5.175.58 4.591 4.591 0 0 0 .58 5.174a4.591 4.591 0 0 0 4.593 4.592A4.57 4.57 0 0 0 8 8.795v.36c0 .14.055.276.155.375l2.2 2.202a.53.53 0 0 0 .75 0l.625-.625a.533.533 0 0 0 .002-.751zM5.174 8a2.825 2.825 0 0 1-2.827-2.826 2.825 2.825 0 0 1 2.827-2.827A2.825 2.825 0 0 1 8 5.174 2.824 2.824 0 0 1 5.174 8z"/></svg></svg>