<svg width="14" height="10" xmlns="http://www.w3.org/2000/svg" xmlns:xlink="http://www.w3.org/1999/xlink" xmlns:svgjs="http://svgjs.com/svgjs" viewBox="0.57 0 12.859 10" fill="#c10000"><svg xmlns="http://www.w3.org/2000/svg" width="14" height="10" viewBox="0.609 0.05 12.795 9.95"><path paint-order="stroke fill markers" fill-rule="evenodd" d="M6.838 2.63L2.742 6.005v3.64c0 .197.159.356.356.356l2.489-.006a.356.356 0 0 0 .353-.356V7.512c0-.196.16-.355.356-.355h1.42c.198 0 .357.159.357.355v2.125a.355.355 0 0 0 .354.356l2.489.007a.356.356 0 0 0 .356-.355V6.002L7.177 2.63a.269.269 0 0 0-.339 0zm6.468 2.294L11.45 3.393V.317a.267.267 0 0 0-.267-.267H9.939a.266.266 0 0 0-.266.267v1.612L7.683.293a1.066 1.066 0 0 0-1.354 0L.706 4.923A.267.267 0 0 0 .67 5.3l.566.689c.094.113.262.13.375.036L6.839 1.72c.099-.08.24-.08.339 0l5.225 4.303a.268.268 0 0 0 .376-.035v-.001l.566-.688a.266.266 0 0 0-.036-.375l-.002-.001z"/></svg></svg>