<svg width="78" height="78" viewBox="0 0 78 78" fill="none" xmlns="http://www.w3.org/2000/svg">
<path d="M64.5 0.75H13.5C10.1185 0.75 6.87548 2.0933 4.48439 4.48439C2.0933 6.87548 0.75 10.1185 0.75 13.5V64.5C0.75 67.8815 2.0933 71.1245 4.48439 73.5156C6.87548 75.9067 10.1185 77.25 13.5 77.25H64.5C67.8815 77.25 71.1245 75.9067 73.5156 73.5156C75.9067 71.1245 77.25 67.8815 77.25 64.5V13.5C77.25 10.1185 75.9067 6.87548 73.5156 4.48439C71.1245 2.0933 67.8815 0.75 64.5 0.75ZM13.5 9.25H64.5C65.6272 9.25 66.7082 9.69777 67.5052 10.4948C68.3022 11.2918 68.75 12.3728 68.75 13.5V49.03L55.15 37.4275C53.0428 35.6937 50.3988 34.7457 47.67 34.7457C44.9412 34.7457 42.2972 35.6937 40.19 37.4275L9.25 63.225V13.5C9.25 12.3728 9.69777 11.2918 10.4948 10.4948C11.2918 9.69777 12.3728 9.25 13.5 9.25Z" fill="#767676"/>
</svg>
