<svg width="12" height="8" xmlns="http://www.w3.org/2000/svg" xmlns:xlink="http://www.w3.org/1999/xlink" xmlns:svgjs="http://svgjs.com/svgjs" fill="#c10000"><svg xmlns="http://www.w3.org/2000/svg" width="12" height="8"><path paint-order="stroke fill markers" fill-rule="evenodd" d="M11.4.4H.6A.6.6 0 0 0 0 1v6c0 .33.269.6.6.6h10.8A.6.6 0 0 0 12 7V1a.6.6 0 0 0-.6-.6zm-.3 5.1a1.2 1.2 0 0 0-1.2 1.2H2.1A1.2 1.2 0 0 0 .9 5.5v-3a1.2 1.2 0 0 0 1.2-1.2h7.8a1.2 1.2 0 0 0 1.2 1.2v3zM6 1.9c-.994 0-1.8.94-1.8 2.1 0 1.16.806 2.1 1.8 2.1S7.8 5.16 7.8 4c0-1.16-.806-2.1-1.8-2.1zm.75 3.15a.15.15 0 0 1-.15.15H5.4a.15.15 0 0 1-.15-.15v-.3a.15.15 0 0 1 .15-.15h.3V3.56l-.01.006a.15.15 0 0 1-.207-.041l-.166-.25a.15.15 0 0 1 .04-.208l.289-.191a.446.446 0 0 1 .249-.076h.255a.15.15 0 0 1 .15.15V4.6h.3a.15.15 0 0 1 .15.15v.3z"/></svg></svg>