<svg width="15" height="10" xmlns="http://www.w3.org/2000/svg" xmlns:xlink="http://www.w3.org/1999/xlink" xmlns:svgjs="http://svgjs.com/svgjs" fill="#c10000"><svg xmlns="http://www.w3.org/2000/svg" width="15" height="10"><path paint-order="stroke fill markers" fill-rule="evenodd" d="M14.375 0H2.917c-.544 0-1.007.348-1.18.833H.626A.625.625 0 0 0 0 1.458v7.084C0 9.347.653 10 1.458 10h12.917c.345 0 .625-.28.625-.625V.625A.625.625 0 0 0 14.375 0zM1.25 8.542v-6.46h.417v6.46a.209.209 0 0 1-.417 0zm12.5.208H2.902c.009-.068.015-.138.015-.208V1.25H13.75v7.5zM4.479 5.625H8.02c.172 0 .312-.14.312-.312v-2.5A.313.313 0 0 0 8.02 2.5H4.479a.313.313 0 0 0-.312.313v2.5c0 .172.14.312.312.312zm.729-2.083h2.084v1.04H5.208v-1.04zM4.167 7.188v-.625c0-.173.14-.313.312-.313H8.02c.172 0 .312.14.312.313v.625c0 .172-.14.312-.312.312H4.479a.312.312 0 0 1-.312-.312zm5 0v-.625c0-.173.14-.313.312-.313h2.709c.172 0 .312.14.312.313v.625c0 .172-.14.312-.312.312h-2.71a.312.312 0 0 1-.311-.312zm0-3.75v-.625c0-.173.14-.313.312-.313h2.709c.172 0 .312.14.312.313v.625c0 .172-.14.312-.312.312h-2.71a.312.312 0 0 1-.311-.312zm0 1.875v-.625c0-.173.14-.313.312-.313h2.709c.172 0 .312.14.312.313v.625c0 .172-.14.312-.312.312h-2.71a.312.312 0 0 1-.311-.312z"/></svg></svg>