<svg width="17" height="22" xmlns="http://www.w3.org/2000/svg" xmlns:xlink="http://www.w3.org/1999/xlink" xmlns:svgjs="http://svgjs.com/svgjs" viewBox="394 756 17 22"><svg width="5" height="5" xmlns="http://www.w3.org/2000/svg" xmlns:xlink="http://www.w3.org/1999/xlink" xmlns:svgjs="http://svgjs.com/svgjs" fill="#c10000" x="394" y="756"><svg xmlns="http://www.w3.org/2000/svg" xmlns:xlink="http://www.w3.org/1999/xlink" width="5" height="5"><path paint-order="stroke fill markers" fill-rule="evenodd" d="M2.425 4.8A2.023 2.023 0 0 1 .4 2.775C.4 1.655 1.305.75 2.425.75c1.12 0 2.025.905 2.025 2.025 0 1.12-.906 2.025-2.025 2.025z"/></svg></svg><svg width="5" height="5" xmlns="http://www.w3.org/2000/svg" xmlns:xlink="http://www.w3.org/1999/xlink" xmlns:svgjs="http://svgjs.com/svgjs" fill="#c10000" x="406" y="756"><svg xmlns="http://www.w3.org/2000/svg" xmlns:xlink="http://www.w3.org/1999/xlink" width="5" height="5"><path paint-order="stroke fill markers" fill-rule="evenodd" d="M2.575 4.8A2.023 2.023 0 0 1 .55 2.775C.55 1.655 1.455.75 2.575.75c1.12 0 2.025.905 2.025 2.025 0 1.12-.905 2.025-2.025 2.025z"/></svg></svg><svg width="5" height="5" xmlns="http://www.w3.org/2000/svg" xmlns:xlink="http://www.w3.org/1999/xlink" xmlns:svgjs="http://svgjs.com/svgjs" fill="#c10000" x="406" y="764"><svg xmlns="http://www.w3.org/2000/svg" xmlns:xlink="http://www.w3.org/1999/xlink" width="5" height="5"><path paint-order="stroke fill markers" fill-rule="evenodd" d="M2.575 4.9A2.023 2.023 0 0 1 .55 2.875C.55 1.755 1.455.85 2.575.85c1.12 0 2.025.905 2.025 2.025 0 1.12-.905 2.025-2.025 2.025z"/></svg></svg><svg width="5" height="5" xmlns="http://www.w3.org/2000/svg" xmlns:xlink="http://www.w3.org/1999/xlink" xmlns:svgjs="http://svgjs.com/svgjs" fill="#c10000" x="394" y="764"><svg xmlns="http://www.w3.org/2000/svg" xmlns:xlink="http://www.w3.org/1999/xlink" width="5" height="5"><path paint-order="stroke fill markers" fill-rule="evenodd" d="M2.425 4.9A2.023 2.023 0 0 1 .4 2.875C.4 1.755 1.305.85 2.425.85c1.12 0 2.025.905 2.025 2.025 0 1.12-.906 2.025-2.025 2.025z"/></svg></svg><svg width="5" height="6" xmlns="http://www.w3.org/2000/svg" xmlns:xlink="http://www.w3.org/1999/xlink" xmlns:svgjs="http://svgjs.com/svgjs" fill="#c10000" x="394" y="772"><svg xmlns="http://www.w3.org/2000/svg" xmlns:xlink="http://www.w3.org/1999/xlink" width="5" height="6"><path paint-order="stroke fill markers" fill-rule="evenodd" d="M2.425 5A2.023 2.023 0 0 1 .4 2.975C.4 1.855 1.305.95 2.425.95c1.12 0 2.025.905 2.025 2.025C4.45 4.095 3.544 5 2.425 5z"/></svg></svg><svg width="5" height="6" xmlns="http://www.w3.org/2000/svg" xmlns:xlink="http://www.w3.org/1999/xlink" xmlns:svgjs="http://svgjs.com/svgjs" fill="#c10000" x="406" y="772"><svg xmlns="http://www.w3.org/2000/svg" width="5" height="6"><path paint-order="stroke fill markers" fill-rule="evenodd" d="M2.575 5A2.023 2.023 0 0 1 .55 2.975C.55 1.855 1.455.95 2.575.95c1.12 0 2.025.905 2.025 2.025C4.6 4.095 3.695 5 2.575 5z"/></svg></svg></svg>