<svg width="11" height="11" xmlns="http://www.w3.org/2000/svg" xmlns:xlink="http://www.w3.org/1999/xlink" xmlns:svgjs="http://svgjs.com/svgjs" fill="#c10000"><svg xmlns="http://www.w3.org/2000/svg" width="11" height="11"><path paint-order="stroke fill markers" fill-rule="evenodd" d="M10.715 7.07l-2.19-.937a.47.47 0 0 0-.547.135l-.97 1.184a7.243 7.243 0 0 1-3.462-3.463L4.73 3.02a.468.468 0 0 0 .135-.548L3.927.282a.472.472 0 0 0-.537-.27L1.357.48a.468.468 0 0 0-.363.457 9.067 9.067 0 0 0 9.068 9.068c.219 0 .408-.15.457-.363l.469-2.033a.474.474 0 0 0-.273-.54z"/></svg></svg>