<svg width="14" height="10" xmlns="http://www.w3.org/2000/svg" xmlns:xlink="http://www.w3.org/1999/xlink" xmlns:svgjs="http://svgjs.com/svgjs" fill="#c10000"><svg xmlns="http://www.w3.org/2000/svg" width="14" height="10"><path paint-order="stroke fill markers" fill-rule="evenodd" d="M13.25 8.333H2V.417A.416.416 0 0 0 1.583 0H.75a.417.417 0 0 0-.417.417v8.75c0 .46.374.833.834.833H13.25c.23 0 .417-.186.417-.417V8.75a.417.417 0 0 0-.417-.417zM11.5 6.667h1c.167 0 .333-.167.333-.334v-6A.358.358 0 0 0 12.5 0h-1a.358.358 0 0 0-.333.333v6c0 .167.166.334.333.334zm-7.5 0h1c.167 0 .333-.167.333-.334V4.5A.357.357 0 0 0 5 4.167H4a.357.357 0 0 0-.333.333v1.833c0 .167.166.334.333.334zm2.5 0h1c.167 0 .333-.167.333-.334V1.167C7.833 1 7.667.833 7.5.833h-1c-.167 0-.333.167-.333.334v5.166c0 .167.166.334.333.334zm2.5 0h1c.167 0 .333-.167.333-.334v-3.5A.358.358 0 0 0 10 2.5H9a.358.358 0 0 0-.333.333v3.5c0 .167.166.334.333.334z"/></svg></svg>