<svg width="10" height="11" xmlns="http://www.w3.org/2000/svg" xmlns:xlink="http://www.w3.org/1999/xlink" xmlns:svgjs="http://svgjs.com/svgjs" fill="#c10000"><svg xmlns="http://www.w3.org/2000/svg" width="10" height="11"><path paint-order="stroke fill markers" fill-rule="evenodd" d="M7.225 6.53c-.593 0-.878.345-1.85.345-.972 0-1.255-.344-1.85-.344C1.993 6.53.75 7.825.75 9.419v.55c0 .569.444 1.03.99 1.03H9.01c.547 0 .99-.461.99-1.03v-.55C10 7.825 8.758 6.53 7.226 6.53zM9.009 9.97H1.74v-.55c0-1.023.8-1.857 1.784-1.857.3 0 .79.344 1.85.344 1.067 0 1.546-.344 1.85-.344.983 0 1.784.834 1.784 1.857v.55zM5.375 6.188c1.64 0 2.973-1.386 2.973-3.094S7.016 0 5.375 0C3.734 0 2.402 1.386 2.402 3.094s1.332 3.094 2.973 3.094zm0-5.157c1.092 0 1.982.926 1.982 2.063 0 1.136-.89 2.062-1.982 2.062S3.393 4.23 3.393 3.094c0-1.137.89-2.063 1.982-2.063z"/></svg></svg>